<svg width="50" height="50" viewBox="0 0 50 50" fill="none" xmlns="http://www.w3.org/2000/svg">
<path d="M47.5 9.5H36.6667V6.16667C36.6638 3.86646 34.8002 2.00285 32.5 2H17.5C15.1998 2.00285 13.3362 3.86646 13.3333 6.16667V9.5H2.5C1.11938 9.5 0 10.6194 0 12V30.5498C0.00528971 31.6069 0.671387 32.5473 1.66667 32.9025V44.5C1.66667 45.8806 2.78605 47 4.16667 47H45.8333C47.2139 47 48.3333 45.8806 48.3333 44.5V32.9033C49.3286 32.5477 49.9951 31.6069 50 30.5498V12C50 10.6194 48.8806 9.5 47.5 9.5ZM15 6.16667C15 4.78605 16.1194 3.66667 17.5 3.66667H32.5C33.8806 3.66667 35 4.78605 35 6.16667V9.5H33.3333V6.16667C33.3333 5.70646 32.9602 5.33333 32.5 5.33333H17.5C17.0398 5.33333 16.6667 5.70646 16.6667 6.16667V9.5H15V6.16667ZM31.6667 9.5H18.3333V7H31.6667V9.5ZM46.6667 44.5C46.6667 44.9602 46.2935 45.3333 45.8333 45.3333H4.16667C3.70646 45.3333 3.33333 44.9602 3.33333 44.5V33.189L21.6667 35.7174V37.8333C21.6667 39.2139 22.7861 40.3333 24.1667 40.3333H25.8333C27.2139 40.3333 28.3333 39.2139 28.3333 37.8333V35.7174L46.6667 33.189V44.5ZM26.6667 37.8333C26.6667 38.2935 26.2935 38.6667 25.8333 38.6667H24.1667C23.7065 38.6667 23.3333 38.2935 23.3333 37.8333V32.8333C23.3333 32.3731 23.7065 32 24.1667 32H25.8333C26.2935 32 26.6667 32.3731 26.6667 32.8333V37.8333ZM48.3333 30.5498C48.3337 30.9653 48.0282 31.3176 47.6168 31.3758L47.3857 31.4076L28.3333 34.0349V32.8333C28.3333 31.4527 27.2139 30.3333 25.8333 30.3333H24.1667C22.7861 30.3333 21.6667 31.4527 21.6667 32.8333V34.0349L2.38403 31.3758C1.97266 31.318 1.66626 30.9657 1.66667 30.5498V12C1.66667 11.5398 2.03979 11.1667 2.5 11.1667H47.5C47.9602 11.1667 48.3333 11.5398 48.3333 12V30.5498Z" fill="#6667AB"/>
</svg>
