<svg width="50" height="50" viewBox="0 0 50 50" fill="none" xmlns="http://www.w3.org/2000/svg">
<path d="M40 20.4641V20.3333C40 12.4299 33.4953 6 25.5 6C17.5047 6 11 12.4299 11 20.3333V20.4641C11 26.3012 17.2843 29.3769 17.7667 37.5653V43.2667C17.7667 46.9802 20.7911 49 24.5333 49H26.4667C30.2117 49 33.2333 46.9774 33.2333 43.2667V37.5673C33.7602 29.3747 40 26.3002 40 20.4641V20.4641ZM19.7 38.4889H31.3V42.3111H19.7V38.4889ZM26.9025 27.9778H24.0975C22.3657 25.2635 20.1702 21.4092 19.7655 19.8069L22.4067 17.8489L24.7267 20.9067C25.1135 21.4165 25.8873 21.4154 26.2733 20.9067L28.5933 17.8489L31.2344 19.8069C30.8299 21.4086 28.6343 25.2631 26.9025 27.9778ZM24.5333 29.8889H26.4667V36.5778H24.5333V29.8889ZM12.9333 20.4641V20.3333C12.9333 13.4837 18.5707 7.91111 25.5 7.91111C32.4294 7.91111 38.0667 13.4837 38.0667 20.3333V20.4641C38.0667 25.2595 32.2734 28.5259 31.3796 36.5778H28.4V29.2112C28.7645 28.6406 29.7217 27.1229 30.6927 25.4154C32.9699 21.4104 33.2333 20.0515 33.2333 19.3778C33.2333 19.0771 33.0901 18.7938 32.8467 18.6133L28.98 15.7467C28.5529 15.4301 27.947 15.5157 27.6267 15.9378L25.5 18.7407L23.3733 15.9378C23.053 15.5157 22.4472 15.4299 22.02 15.7467L18.1533 18.6133C17.9099 18.7938 17.7667 19.0771 17.7667 19.3778C17.7667 20.0515 18.0301 21.4104 20.3074 25.4155C21.2784 27.1231 22.2356 28.6409 22.6001 29.2114V36.5778H19.6248C18.7685 28.5417 12.9333 25.2454 12.9333 20.4641V20.4641ZM26.4667 47.0889H24.5333C22.483 47.0889 20.3093 46.3158 19.8075 44.2222H31.1924C30.6907 46.3158 28.5171 47.0889 26.4667 47.0889Z" fill="#6667AB"/>
<path d="M25 5C25.5522 5 26 4.5523 26 4V2C26 1.4477 25.5522 1 25 1C24.4478 1 24 1.4477 24 2V4C24 4.5523 24.4478 5 25 5Z" fill="#6667AB"/>
<path d="M37.5 7.25729L36.2573 8.49995C35.9142 8.84309 35.9142 9.39948 36.2573 9.74262C36.6004 10.0858 37.1566 10.0858 37.5 9.74262L38.7427 8.49995C39.0858 8.15682 39.0858 7.60042 38.7427 7.25729C38.3995 6.91424 37.8433 6.91424 37.5 7.25729Z" fill="#6667AB"/>
<path d="M44 20H42C41.4478 20 41 20.4477 41 21C41 21.5523 41.4478 22 42 22H44C44.5522 22 45 21.5523 45 21C45 20.4477 44.5522 20 44 20Z" fill="#6667AB"/>
<path d="M37.5 32.2573C37.1568 31.9142 36.6006 31.9142 36.2573 32.2573C35.9142 32.6004 35.9142 33.1568 36.2573 33.5L37.5 34.7427C37.8433 35.0858 38.3994 35.0857 38.7427 34.7427C39.0858 34.3996 39.0858 33.8432 38.7427 33.5L37.5 32.2573Z" fill="#6667AB"/>
<path d="M12.5 32.2573L11.2573 33.5C10.9142 33.8431 10.9142 34.3995 11.2573 34.7427C11.6006 35.0858 12.1569 35.0857 12.5 34.7427L13.7427 33.5C14.0858 33.1569 14.0858 32.6005 13.7427 32.2573C13.3995 31.9142 12.8431 31.9142 12.5 32.2573V32.2573Z" fill="#6667AB"/>
<path d="M9 21C9 20.4477 8.5523 20 8 20H6C5.4477 20 5 20.4477 5 21C5 21.5523 5.4477 22 6 22H8C8.5523 22 9 21.5523 9 21Z" fill="#6667AB"/>
<path d="M12.5 9.74269C12.843 10.0857 13.3995 10.0858 13.7427 9.74269C14.0858 9.39956 14.0858 8.84318 13.7427 8.49997L12.5 7.25734C12.1569 6.91422 11.6005 6.91422 11.2573 7.25734C10.9142 7.60047 10.9142 8.15685 11.2573 8.50006L12.5 9.74269Z" fill="#6667AB"/>
<path d="M41.4602 15.9105L43.3731 15.0544C43.9013 14.818 44.1431 14.1864 43.9129 13.6438C43.6828 13.1012 43.068 12.8533 42.5398 13.0893L40.6269 13.9454C40.0987 14.1818 39.8569 14.8134 40.0871 15.356C40.3165 15.8969 40.9302 16.1476 41.4602 15.9105Z" fill="#6667AB"/>
<path d="M43.3429 27.8798L41.4149 27.0765C40.8824 26.8544 40.2814 27.1324 40.0721 27.6966C39.8628 28.2611 40.1248 28.8983 40.6571 29.1203L42.585 29.9236C43.1173 30.1455 43.7186 29.8677 43.9279 29.3034C44.1372 28.739 43.8753 28.1017 43.3429 27.8798Z" fill="#6667AB"/>
<path d="M9.5397 27.0895L7.62681 27.9455C7.09859 28.1819 6.85696 28.8134 7.08711 29.356C7.31663 29.8973 7.93062 30.1474 8.4603 29.9105L10.3732 29.0545C10.9014 28.8181 11.143 28.1865 10.9129 27.6439C10.6827 27.1014 10.0678 26.8531 9.5397 27.0895Z" fill="#6667AB"/>
<path d="M6.6571 15.1202L8.58504 15.9236C9.11742 16.1455 9.71867 15.8678 9.92789 15.3034C10.1372 14.739 9.87528 14.1015 9.3429 13.8797L7.41496 13.0764C6.88268 12.8546 6.28133 13.1322 6.07211 13.6966C5.86278 14.261 6.12472 14.8984 6.6571 15.1202Z" fill="#6667AB"/>
<path d="M16.9453 6.37321C17.1209 6.76579 17.5146 7 17.928 7C18.6934 7 19.2194 6.23205 18.9097 5.53974L18.0539 3.62692C17.8174 3.09871 17.1859 2.85678 16.6437 3.08724C16.1012 3.31738 15.8531 3.93218 16.0895 4.46038L16.9453 6.37321Z" fill="#6667AB"/>
<path d="M31.0984 6C31.5365 6 31.9505 5.7509 32.1204 5.34291L32.9236 3.41493C33.1455 2.88254 32.8677 2.28128 32.3036 2.07205C31.7391 1.86283 31.102 2.12477 30.8803 2.65705L30.0771 4.58504C29.7933 5.26595 30.3285 6 31.0984 6V6Z" fill="#6667AB"/>
</svg>
