<svg width="50" height="50" viewBox="0 0 50 50" fill="none" xmlns="http://www.w3.org/2000/svg">
<path d="M37.5993 33.6289L34.3358 32.9L32.949 30.8164C32.8281 30.6344 32.6362 30.5109 32.4193 30.4773C32.2041 30.4422 31.9825 30.5023 31.8125 30.6391L31.786 30.6602L31.378 29.025C32.5348 27.6602 33.4084 25.9914 33.7219 24.1313C35.4418 23.6844 36.2 21.4937 36.2 20.3125C36.2 19.2977 35.8038 18.7836 35.42 18.5227V15.7555C35.6501 15.6195 35.7983 15.5281 35.8334 15.5062C35.8584 15.4906 35.8724 15.4656 35.895 15.4477C35.9371 15.4141 35.9754 15.3797 36.0097 15.3383C36.0417 15.3 36.0674 15.2602 36.0908 15.2172C36.115 15.1734 36.1353 15.1305 36.1509 15.082C36.1672 15.0312 36.1758 14.9805 36.1821 14.9273C36.186 14.8992 36.2 14.8734 36.2 14.8438V13.7414C37.0323 13.1867 38.54 11.6547 38.54 7.8125C38.54 7.60547 38.4581 7.40625 38.3115 7.26016C35.562 4.50625 31.2517 2.21172 24.7465 0.0398438C24.5866 -0.0132813 24.4126 -0.0132813 24.2527 0.0398438C17.7475 2.21172 13.438 4.50547 10.6878 7.26016C10.5419 7.40625 10.46 7.60547 10.46 7.8125C10.46 11.6547 11.9677 13.1867 12.8 13.7414V14.8438C12.8 14.8734 12.814 14.8992 12.8172 14.9281C12.8234 14.9812 12.832 15.032 12.8484 15.0828C12.864 15.1312 12.8842 15.1742 12.9084 15.2172C12.9326 15.2602 12.9576 15.3 12.9903 15.3383C13.0246 15.3797 13.0629 15.4141 13.105 15.4477C13.1276 15.4656 13.1416 15.4906 13.1666 15.5062C13.2017 15.5281 13.3499 15.6195 13.58 15.7555V18.5227C13.1962 18.7836 12.8 19.2977 12.8 20.3125C12.8 21.4922 13.5566 23.6797 15.2726 24.1313C15.583 26.0398 16.4691 27.6898 17.6212 29.0258L17.2125 30.6602L17.1875 30.6398C17.0167 30.5031 16.7952 30.4438 16.5807 30.4781C16.3646 30.5117 16.1727 30.6344 16.051 30.8172L14.6642 32.9008L11.3695 33.6375C7.61924 34.6375 5 38.0516 5 41.9398V49.2188C5 49.6508 5.34866 50 5.78 50C6.21134 50 6.56 49.6508 6.56 49.2188V41.9398C6.56 38.7594 8.70266 35.9656 11.7408 35.1531L14.828 34.4633L19.9854 41.1047C20.1133 41.2695 20.302 41.3766 20.5095 41.4008C20.5392 41.4047 20.5696 41.4062 20.6 41.4062C20.7763 41.4062 20.9479 41.3469 21.0875 41.2352L22.284 40.2766L22.9026 41.5156L21.3948 49.0648C21.3106 49.4883 21.5844 49.8992 22.0063 49.9844C22.0586 49.9953 22.1101 50 22.1608 50C22.525 50 22.8511 49.7437 22.9244 49.3719L24.3596 42.1875H24.6412L26.0756 49.3719C26.1489 49.7437 26.475 50 26.8392 50C26.8891 50 26.9414 49.9953 26.9929 49.9844C27.4149 49.9 27.6894 49.4883 27.6044 49.0648L26.0967 41.5156L26.7152 40.2766L27.9117 41.2352C28.0521 41.3469 28.2237 41.4062 28.4 41.4062C28.4304 41.4062 28.4608 41.4047 28.4913 41.4008C28.6987 41.3766 28.8875 41.2695 29.0154 41.1047L34.1728 34.4633L37.2288 35.1453C40.2973 35.9648 42.44 38.7586 42.44 41.9398V49.2188C42.44 49.6508 42.7887 50 43.22 50C43.6513 50 44 49.6508 44 49.2188V41.9398C44 38.0516 41.3808 34.6375 37.5993 33.6289ZM33.86 22.2641V19.982C34.2399 19.793 34.484 19.782 34.5402 19.8125C34.5558 19.8203 34.64 19.9484 34.64 20.3125C34.64 20.8656 34.3483 21.7547 33.86 22.2641ZM33.86 18.3188C33.6361 18.3758 33.4037 18.4641 33.1658 18.5828C32.8936 18.3367 32.5106 17.9539 32.1245 17.4695C32.7657 17.1758 33.3507 16.8852 33.8592 16.6187V18.3188H33.86ZM16.6446 15.625H32.3569C30.1862 16.6953 27.0685 17.9688 24.5 17.9688C21.9354 17.9688 18.8169 16.6953 16.6446 15.625ZM34.64 14.0625H14.36V12.3781C15.7133 12.168 19.2194 11.7188 24.5 11.7188C29.7681 11.7188 33.2836 12.168 34.64 12.3789V14.0625ZM12.0239 8.1375C14.548 5.72422 18.6367 3.58359 24.5 1.60547C30.3633 3.58438 34.452 5.72422 36.9761 8.1375C36.934 9.82734 36.5635 10.8828 36.168 11.5391C36.0978 11.2484 35.8755 11.0133 35.5729 10.9531C35.4106 10.9203 31.5161 10.1562 24.5 10.1562C17.4839 10.1562 13.5894 10.9203 13.4271 10.9531C13.1245 11.0141 12.9014 11.2492 12.832 11.5398C12.4357 10.8828 12.066 9.82734 12.0239 8.1375ZM16.8732 17.4688C16.4925 17.9461 16.1095 18.332 15.8365 18.5789C15.5971 18.4586 15.3654 18.3797 15.1392 18.3227V16.6187C15.6486 16.8852 16.2328 17.175 16.8732 17.4688ZM14.4598 19.8117C14.5144 19.7828 14.7586 19.793 15.14 19.982V22.2633C14.6517 21.7547 14.36 20.8648 14.36 20.3117C14.36 19.9484 14.4442 19.8203 14.4598 19.8117ZM16.7 19.9C17.0775 19.575 17.7374 18.9547 18.3575 18.1047C20.3013 18.8805 22.5133 19.5312 24.5 19.5312C26.4867 19.5312 28.6987 18.8805 30.6425 18.1047C31.2626 18.9547 31.9225 19.575 32.3 19.9V22.6562C32.3 27.1375 27.8439 31.25 24.5 31.25C21.8301 31.25 16.7 27.6203 16.7 22.6562V19.9ZM18.909 30.307C20.7864 31.9102 22.9728 32.8125 24.5 32.8125C26.1934 32.8125 28.3041 31.8828 30.0949 30.3227L30.4475 31.7336L24.5 36.4992L18.5533 31.7344L18.909 30.307ZM20.7303 39.5203L16.1002 33.5586L16.8763 32.3922L23.2512 37.5L20.7303 39.5203ZM24.798 40.625H24.202L23.5297 39.2781L24.5 38.5008L25.4703 39.2781L24.798 40.625ZM28.2697 39.5203L25.7488 37.5L32.1237 32.3922L32.8998 33.5586L28.2697 39.5203Z" fill="#6667AB"/>
<path d="M36 46C35.447 46 35 46.3576 35 46.8V49.2C35 49.6424 35.447 50 36 50C36.553 50 37 49.6424 37 49.2V46.8C37 46.3576 36.553 46 36 46Z" fill="#6667AB"/>
<path d="M14 46C13.447 46 13 46.3576 13 46.8V49.2C13 49.6424 13.447 50 14 50C14.553 50 15 49.6424 15 49.2V46.8C15 46.3576 14.553 46 14 46Z" fill="#6667AB"/>
<path d="M24.16 7.93786C24.2683 7.97929 24.3833 8 24.5 8C24.6167 8 24.7317 7.97929 24.84 7.93786C25.2017 7.79931 27 7.04867 27 5.85737V4.42895C27 4.15827 26.8217 3.91115 26.5392 3.78974L24.8725 3.07553C24.6383 2.97482 24.3617 2.97482 24.1267 3.07553L22.46 3.78974C22.1783 3.91115 22 4.15827 22 4.42895V5.85737C22 7.04867 23.7983 7.79931 24.16 7.93786ZM23.6667 4.87034L24.5 4.51323L25.3333 4.87034V5.85309C25.3033 5.98307 24.9442 6.25947 24.5 6.48231C24.0525 6.25876 23.6933 5.98093 23.6667 5.85737V4.87034Z" fill="#6667AB"/>
</svg>
