<svg width="50" height="50" viewBox="0 0 50 50" fill="none" xmlns="http://www.w3.org/2000/svg">
<path d="M31.3104 11.3573H27.4489L26.1545 7.47132C26.1087 7.33406 26.0209 7.21469 25.9035 7.1301C25.7861 7.04551 25.6451 7 25.5004 7C25.3557 7 25.2147 7.04551 25.0973 7.1301C24.9799 7.21469 24.8921 7.33406 24.8463 7.47132L23.5511 11.3573H19.6896C19.5532 11.3573 19.4198 11.3977 19.3064 11.4735C19.193 11.5493 19.1046 11.6571 19.0524 11.7831C19.0003 11.9092 18.9866 12.0479 19.0133 12.1816C19.0399 12.3154 19.1057 12.4383 19.2022 12.5348L21.8056 15.1388L20.4887 19.0925C20.4433 19.2288 20.4416 19.3759 20.4839 19.5133C20.5262 19.6506 20.6103 19.7713 20.7245 19.8585C20.8386 19.9457 20.9772 19.995 21.1208 19.9996C21.2644 20.0043 21.4059 19.9639 21.5254 19.8842L25.5004 17.2341L29.4754 19.8842C29.5949 19.9639 29.7364 20.0043 29.88 19.9996C30.0236 19.995 30.1621 19.9457 30.2763 19.8585C30.3905 19.7713 30.4746 19.6506 30.5169 19.5133C30.5591 19.3759 30.5575 19.2288 30.5121 19.0925L29.194 15.1388L31.7978 12.5348C31.8943 12.4383 31.9601 12.3154 31.9867 12.1816C32.0134 12.0479 31.9997 11.9092 31.9476 11.7831C31.8954 11.6571 31.807 11.5493 31.6936 11.4735C31.5802 11.3977 31.4468 11.3573 31.3104 11.3573ZM27.9178 14.4649C27.8272 14.5554 27.7636 14.6693 27.7341 14.7939C27.7047 14.9185 27.7105 15.0489 27.7511 15.1703L28.5679 17.6214L25.883 15.8312C25.7697 15.7556 25.6366 15.7153 25.5004 15.7153C25.3642 15.7153 25.2311 15.7556 25.1178 15.8312L22.4329 17.6214L23.2497 15.1703C23.2902 15.0489 23.2961 14.9185 23.2667 14.7939C23.2372 14.6693 23.1736 14.5554 23.083 14.4649L21.3552 12.7365H24.048C24.1929 12.7364 24.334 12.6907 24.4514 12.6058C24.5689 12.5209 24.6566 12.4012 24.7021 12.2636L25.5004 9.86885L26.2987 12.2644C26.3443 12.4019 26.4321 12.5216 26.5495 12.6064C26.6668 12.6913 26.8079 12.7371 26.9528 12.7373H29.6456L27.9178 14.4649Z" fill="#6667AB"/>
<path d="M45.9796 4.94946C44.076 3.63085 41.1595 3.67264 38.7604 4.90574L39.2446 2.83032C39.2678 2.73116 39.2682 2.62807 39.2459 2.52872C39.2237 2.42937 39.1792 2.33632 39.116 2.25651C39.0527 2.1767 38.9723 2.11219 38.8806 2.06777C38.789 2.02336 38.6885 2.0002 38.5866 2H11.4164C11.3144 1.9999 11.2137 2.02286 11.1218 2.06714C11.0299 2.11143 10.9492 2.17591 10.8857 2.25575C10.8223 2.3356 10.7777 2.42875 10.7553 2.52824C10.7329 2.62774 10.7333 2.731 10.7565 2.83032L11.2384 4.90458C8.83855 3.6707 5.92277 3.62775 4.01956 4.9483C1.99442 6.35125 1.4622 8.96951 2.55954 12.1298C5.0089 19.1821 13.1586 22.5143 16.7649 23.6704C17.9155 25.0601 19.4015 26.1337 21.0827 26.7897V29.4304C21.0827 29.61 21.154 29.7822 21.2811 29.9092C21.4081 30.0361 21.5804 30.1075 21.76 30.1075H22.4904C22.3992 31.8404 21.9091 33.5288 21.0583 35.0414H18.4204C18.2408 35.0414 18.0685 35.1128 17.9414 35.2397C17.8144 35.3667 17.743 35.5389 17.743 35.7185V39.0073H15.2565C15.1107 39.0074 14.9687 39.0545 14.8518 39.1416C14.7348 39.2287 14.6491 39.3513 14.6074 39.491L12.326 47.1294C12.2959 47.2305 12.2898 47.3372 12.3082 47.441C12.3266 47.5449 12.369 47.643 12.432 47.7275C12.4951 47.8121 12.577 47.8808 12.6713 47.9281C12.7656 47.9754 12.8696 48 12.9751 48H37.026C37.1315 48.0001 37.2356 47.9755 37.3299 47.9282C37.4242 47.8809 37.5062 47.8123 37.5693 47.7277C37.6323 47.6431 37.6747 47.545 37.6931 47.4411C37.7115 47.3372 37.7053 47.2305 37.6751 47.1294L35.3937 39.491C35.352 39.3513 35.2663 39.2287 35.1493 39.1416C35.0324 39.0545 34.8904 39.0074 34.7446 39.0073H32.2592V35.7181C32.2592 35.6291 32.2417 35.541 32.2076 35.4588C32.1734 35.3766 32.1234 35.3019 32.0604 35.2391C31.9974 35.1762 31.9226 35.1264 31.8402 35.0925C31.7579 35.0586 31.6697 35.0412 31.5807 35.0414H28.9401C28.0892 33.5289 27.599 31.8404 27.508 30.1075H28.2384C28.3273 30.1075 28.4154 30.09 28.4977 30.056C28.5799 30.022 28.6546 29.9722 28.7175 29.9093C28.7804 29.8464 28.8303 29.7717 28.8643 29.6896C28.8983 29.6074 28.9158 29.5193 28.9157 29.4304V26.7897C30.5967 26.1336 32.0827 25.0602 33.2335 23.6708C36.8406 22.5143 44.9907 19.1825 47.4389 12.1298C48.5385 8.96951 48.0063 6.35125 45.9796 4.94946ZM37.6375 9.74257C39.4761 8.50715 41.7792 8.07341 42.7612 8.80662C43.574 9.41137 43.3216 10.752 42.9682 11.77C41.7273 15.3432 38.1802 17.5567 35.542 18.7569L37.6375 9.74257ZM14.4592 18.7577C11.8209 17.5563 8.27343 15.3432 7.03288 11.77C6.6791 10.752 6.42828 9.40982 7.23996 8.80662C8.22272 8.07148 10.5246 8.50715 12.3636 9.74257L14.4592 18.7577ZM3.83957 11.686C2.94351 9.10532 3.2818 7.10845 4.79176 6.06223C6.58543 4.81984 9.56778 5.14562 11.6754 6.78266L11.9463 7.94844C10.0497 7.03145 7.80469 6.69599 6.42983 7.72093C5.61931 8.3253 4.84285 9.59554 5.75284 12.2142C7.32937 16.7539 12.0547 19.2769 14.9263 20.4307C15.09 20.8986 15.2857 21.3547 15.512 21.7958C11.716 20.3425 5.7722 17.2514 3.83957 11.686ZM36.1171 46.6458H13.8844L15.7613 40.3611H34.2399L36.1171 46.6458ZM30.9045 39.0069H19.0966V36.3952H30.9045V39.0069ZM27.4023 35.041H22.5984C23.3409 33.4968 23.7658 31.8193 23.8479 30.1079H26.1532C26.235 31.8194 26.6597 33.4971 27.4023 35.0414V35.041ZM27.5626 28.7537H22.4386V27.2203C24.1213 27.6356 25.8798 27.6356 27.5626 27.2203V28.7537ZM25.0006 26.1776C23.6005 26.1813 22.2176 25.8691 20.9549 25.2643C19.6923 24.6595 18.5825 23.7776 17.7082 22.6845C17.6966 22.669 17.6842 22.6547 17.6714 22.6404C16.8134 21.5557 16.2064 20.2944 15.894 18.9473L12.2691 3.35459H37.732L34.1071 18.9473C33.7947 20.2944 33.1877 21.5557 32.3297 22.6404C32.3169 22.6551 32.3041 22.6694 32.291 22.6853C31.4168 23.778 30.3073 24.6595 29.045 25.2642C27.7827 25.8689 26.4003 26.1811 25.0006 26.1776ZM46.1615 11.686C44.2289 17.2514 38.2847 20.3425 34.4876 21.7958C34.714 21.3548 34.9097 20.8987 35.0732 20.4307C37.9464 19.2769 42.6717 16.755 44.2467 12.2142C45.1559 9.59554 44.3803 8.3253 43.5694 7.72093C42.1953 6.69599 39.9518 7.03145 38.0529 7.94844L38.3238 6.78305C40.4318 5.14562 43.4137 4.81984 45.2082 6.06261C46.7193 7.10845 47.0576 9.10532 46.1615 11.686Z" fill="#6667AB"/>
</svg>
