<svg width="50" height="50" viewBox="0 0 50 50" fill="none" xmlns="http://www.w3.org/2000/svg">
<g clip-path="url(#clip0_2825_3327)">
<path d="M50 4.67871V1.52148C50 0.68252 49.3175 0 48.4785 0H41.0449C40.6404 0 40.3125 0.32793 40.3125 0.732422C40.3125 1.13691 40.6404 1.46484 41.0449 1.46484H48.4785C48.5098 1.46484 48.5352 1.49023 48.5352 1.52148V4.67871C48.5352 4.70957 48.5104 4.73447 48.4797 4.73516H36.2449C36.2143 4.73447 36.1895 4.70957 36.1895 4.67871V1.52148C36.1895 1.49023 36.2148 1.46484 36.2461 1.46484H37.627C38.0314 1.46484 38.3594 1.13691 38.3594 0.732422C38.3594 0.32793 38.0314 0 37.627 0H36.2461C35.4071 0 34.7246 0.68252 34.7246 1.52148V2.36758H33.0324V2.31074C33.0324 1.47178 32.3498 0.78916 31.5108 0.78916H27.3676C26.5285 0.78916 25.8459 1.47178 25.8459 2.31074V2.36758H24.154V2.31074C24.154 1.47178 23.4714 0.78916 22.6323 0.78916H18.4891C17.6501 0.78916 16.9675 1.47178 16.9675 2.31074V2.36758H15.2754V1.52148C15.2754 0.68252 14.5929 0 13.7539 0H1.52148C0.68252 0 0 0.68252 0 1.52148V4.67871C0 5.24775 0.314453 5.74404 0.77832 6.00508V6.13867C0.77832 6.71572 0.707129 7.29463 0.566797 7.8582L0.267969 9.05186C0.0985352 9.72949 0.0126953 10.428 0.0126953 11.1279V16.7285C0.0126953 17.9631 0.95918 18.9751 2.16797 19.0324C2.5083 19.0481 2.83867 18.99 3.14228 18.8643C3.37822 19.8323 4.21123 20.5595 5.22969 20.6065C5.6251 20.6255 6.00791 20.5439 6.35039 20.3724C6.69551 21.1243 7.42686 21.6555 8.29307 21.6965C8.32969 21.6982 8.36611 21.699 8.40244 21.699C8.9876 21.699 9.53867 21.4788 9.96426 21.0726C10.1148 20.9288 10.2438 20.7654 10.3483 20.5884C10.6542 20.7634 11.0055 20.8686 11.3818 20.8822C12.0028 20.903 12.5898 20.6785 13.0356 20.2479C13.4812 19.8176 13.7267 19.2394 13.7267 18.6199V15.535H14.5255C15.1289 15.535 15.6972 15.2999 16.1273 14.8713C16.5541 14.443 16.7892 13.8747 16.7892 13.2713V11.1043C16.7892 10.3399 16.537 9.58291 16.0792 8.97246L14.9103 7.41387C14.6407 7.05449 14.4923 6.60986 14.4923 6.16191V6.00781C14.9589 5.74766 15.2755 5.24961 15.2755 4.67852V3.83223H16.9677V3.88897C16.9677 4.72803 17.6503 5.41064 18.4893 5.41064H22.6325C23.4716 5.41064 24.1542 4.72803 24.1542 3.88897V3.83223H24.2678V6.80654H24.2109C23.372 6.80654 22.6894 7.48916 22.6894 8.32822V12.4715C22.6894 13.3104 23.372 13.9931 24.2109 13.9931H24.2678V15.7836H24.2109C23.372 15.7836 22.6894 16.4662 22.6894 17.3053V21.4485C22.6894 21.4677 22.6915 21.4863 22.6922 21.5053H20.4623C18.5354 21.5053 16.9677 23.0729 16.9677 24.9999V27.8192H11.7812C10.2892 27.8192 9.0752 29.0327 9.0752 30.5243V47.2949C9.0752 48.7865 10.2892 50 11.7812 50H38.2188C39.7108 50 40.9248 48.7865 40.9248 47.2949V42.3271C40.9248 41.9227 40.5969 41.5947 40.1924 41.5947C39.7879 41.5947 39.46 41.9227 39.46 42.3271V47.2949C39.46 47.9788 38.9031 48.5352 38.2188 48.5352H11.7812C11.0969 48.5352 10.54 47.9788 10.54 47.2949V36.2823C10.7418 36.3854 10.9594 36.465 11.1899 36.5167L22.2945 39.0028V40.5865C22.2945 41.5344 23.0656 42.3055 24.0135 42.3055H25.9864C26.9343 42.3055 27.7054 41.5344 27.7054 40.5865V39.0028L38.81 36.5167C39.0406 36.465 39.2582 36.3854 39.4599 36.2823V38.9092C39.4599 39.3137 39.7878 39.6416 40.1923 39.6416C40.5968 39.6416 40.9247 39.3137 40.9247 38.9092V30.5244C40.9247 29.0329 39.7107 27.8193 38.2187 27.8193H33.0323V25C33.0323 23.073 31.4646 21.5054 29.5377 21.5054H27.3078C27.3085 21.4864 27.3106 21.4678 27.3106 21.4486V17.3054C27.3106 16.4663 26.628 15.7837 25.7891 15.7837H25.7324V13.9932H25.7893C26.6282 13.9932 27.3108 13.3105 27.3108 12.4716V8.32842C27.3108 7.48936 26.6282 6.80674 25.7893 6.80674H25.7324V3.83242H25.846V3.88916C25.846 4.72822 26.5286 5.41084 27.3677 5.41084H31.5109C32.3499 5.41084 33.0325 4.72822 33.0325 3.88916V3.83242H34.7247V4.67871C34.7247 5.24961 35.0411 5.74746 35.5075 6.00771V6.16172C35.5075 6.61045 35.3593 7.05518 35.09 7.41416L33.9211 8.97266C33.463 9.5835 33.2106 10.3404 33.2106 11.104V13.2719C33.2106 14.52 34.2261 15.5354 35.4743 15.5354H36.2731V18.6197C36.2731 19.2396 36.5188 19.8182 36.9649 20.2487C37.4109 20.6791 37.9988 20.9047 38.6186 20.8819C38.9949 20.8686 39.3462 20.7638 39.6521 20.5888C39.7569 20.766 39.8859 20.9296 40.0367 21.0733C40.462 21.4791 41.0125 21.699 41.5971 21.699C41.6337 21.699 41.6706 21.6981 41.7075 21.6964C42.5732 21.6557 43.3046 21.1246 43.6499 20.3726C43.992 20.5439 44.3742 20.6254 44.7699 20.6069C45.789 20.559 46.6218 19.8318 46.8579 18.8645C47.1615 18.9902 47.4922 19.0481 47.8323 19.0323C49.0408 18.9754 49.9874 17.9632 49.9874 16.7279V11.1274C49.9874 10.4283 49.9015 9.72998 49.7318 9.05166L49.4336 7.85879C49.2931 7.29658 49.2218 6.71777 49.2218 6.13828V6.00498C49.6855 5.74395 50 5.24775 50 4.67871ZM14.9072 9.85156C15.1761 10.2101 15.3242 10.6551 15.3242 11.1045V13.2715C15.3242 13.4847 15.2408 13.6857 15.0914 13.8356C14.9396 13.9869 14.7386 14.0703 14.5254 14.0703H13.727V12.7071C13.727 12.3026 13.399 11.9747 12.9945 11.9747C12.59 11.9747 12.2621 12.3026 12.2621 12.7071V14.7942C12.2621 14.7971 12.2617 18.6201 12.2617 18.6201C12.2617 18.8387 12.1751 19.0427 12.0179 19.1944C11.8604 19.3465 11.6529 19.4264 11.434 19.4184C11.01 19.4028 10.665 19.0281 10.665 18.5829C10.665 18.5801 10.6646 18.5772 10.6646 18.5744V16.1901C10.6646 15.7856 10.3367 15.4577 9.93223 15.4577C9.52773 15.4577 9.19981 15.7856 9.19981 16.1901V18.5831C9.19981 18.5859 9.2002 18.5888 9.2002 18.5916V19.4354C9.2002 19.6556 9.1124 19.8606 8.95283 20.0129C8.79316 20.1653 8.58252 20.2444 8.36182 20.2332C7.94307 20.2134 7.60254 19.8362 7.60254 19.3926V18.3457C7.60254 18.3435 7.60225 16.1902 7.60225 16.1902C7.60225 15.7857 7.27432 15.4578 6.86982 15.4578C6.46533 15.4578 6.1374 15.7857 6.1374 16.1902V18.346C6.1374 18.3471 6.1376 18.3481 6.1376 18.3492C6.13662 18.5685 6.04883 18.7725 5.88984 18.924C5.73037 19.0761 5.52158 19.1544 5.29854 19.1434C4.88027 19.124 4.54004 18.7469 4.54004 18.3027C4.54004 18.3027 4.53984 16.7684 4.53984 16.7668V16.1902C4.53984 15.7857 4.21191 15.4578 3.80742 15.4578C3.40293 15.4578 3.075 15.7857 3.075 16.1902V16.7714C3.075 16.7722 3.0751 16.773 3.0751 16.7738C3.07451 16.993 2.98682 17.1972 2.82783 17.3488C2.66816 17.5014 2.45762 17.5797 2.23682 17.5691C1.81807 17.5493 1.47754 17.1722 1.47754 16.7285V11.1279C1.47754 10.5477 1.54873 9.96865 1.68906 9.40732L1.98809 8.21299C2.15234 7.55273 2.2373 6.87598 2.24229 6.2002H3.28125C3.68574 6.2002 4.01367 5.87227 4.01367 5.46777C4.01367 5.06328 3.68574 4.73535 3.28125 4.73535H1.52148C1.49023 4.73535 1.46484 4.70996 1.46484 4.67871V1.52148C1.46484 1.49023 1.49023 1.46484 1.52148 1.46484H13.7539C13.7852 1.46484 13.8105 1.49023 13.8105 1.52148V4.67871C13.8105 4.70996 13.7852 4.73535 13.7539 4.73535H6.69922C6.29473 4.73535 5.9668 5.06328 5.9668 5.46777C5.9668 5.87227 6.29473 6.2002 6.69922 6.2002H13.0281C13.0364 6.95 13.2875 7.6918 13.7383 8.29297L14.9072 9.85156ZM22.6892 3.88916C22.6892 3.92051 22.6637 3.946 22.6323 3.946H18.4891C18.4578 3.946 18.4323 3.92051 18.4323 3.88916V2.31084C18.4323 2.27959 18.4578 2.2541 18.4891 2.2541H22.6323C22.6637 2.2541 22.6892 2.27959 22.6892 2.31084V3.88916ZM25.9865 40.8406H24.0136C23.8734 40.8406 23.7595 40.7267 23.7595 40.5865V39.1487H26.2405V40.5865C26.2405 40.7266 26.1266 40.8406 25.9865 40.8406ZM39.46 30.5244V33.8672C39.46 33.8704 39.4595 33.8734 39.4595 33.8767C39.4595 34.4616 39.0607 34.9595 38.4899 35.0872L26.892 37.6838H23.108L11.5101 35.0872C10.9393 34.9594 10.5405 34.4616 10.5405 33.8767C10.5405 33.8734 10.5401 33.8704 10.54 33.8672V30.5244C10.54 29.8406 11.0969 29.2842 11.7812 29.2842H38.2188C38.9031 29.2842 39.46 29.8405 39.46 30.5244ZM28.4108 27.8193H21.5892V26.127H28.4108V27.8193ZM31.5676 25V27.8193H29.8757V25.3945C29.8757 24.99 29.5478 24.6621 29.1433 24.6621H20.8567C20.4522 24.6621 20.1243 24.99 20.1243 25.3945V27.8193H18.4324V25C18.4324 23.8808 19.343 22.9702 20.4622 22.9702H29.5379C30.657 22.9702 31.5676 23.8808 31.5676 25ZM25.846 17.3055V21.4487C25.846 21.48 25.8205 21.5055 25.7893 21.5055H24.2108C24.1796 21.5055 24.1541 21.48 24.1541 21.4487V17.3055C24.1541 17.2741 24.1796 17.2486 24.2108 17.2486H25.7893C25.8205 17.2486 25.846 17.2741 25.846 17.3055ZM25.846 8.32842V12.4717C25.846 12.5029 25.8205 12.5284 25.7893 12.5284H24.2108C24.1796 12.5284 24.1541 12.5029 24.1541 12.4717V8.32842C24.1541 8.29707 24.1796 8.27158 24.2108 8.27158H25.7893C25.8205 8.27158 25.846 8.29707 25.846 8.32842ZM31.5676 3.88916C31.5676 3.92051 31.5421 3.946 31.5108 3.946H27.3676C27.3362 3.946 27.3107 3.92051 27.3107 3.88916V2.31084C27.3107 2.27959 27.3362 2.2541 27.3676 2.2541H31.5108C31.5421 2.2541 31.5676 2.27959 31.5676 2.31084V3.88916ZM48.5226 16.728C48.5226 17.1721 48.1819 17.5494 47.7634 17.5691C47.5413 17.5795 47.332 17.5016 47.1726 17.3494C47.0129 17.1971 46.925 16.9918 46.925 16.7714V16.1902C46.925 15.7857 46.5971 15.4578 46.1926 15.4578C45.7881 15.4578 45.4602 15.7857 45.4602 16.1902V18.3027C45.4602 18.7468 45.1196 19.1241 44.701 19.1438C44.4787 19.1548 44.2696 19.0763 44.1103 18.9241C43.9506 18.7718 43.8627 18.5665 43.8627 18.346V16.1902C43.8627 15.7857 43.5348 15.4578 43.1303 15.4578C42.7258 15.4578 42.3979 15.7857 42.3979 16.1902V19.3922C42.3979 19.8362 42.0573 20.2136 41.6387 20.2333C41.4162 20.2441 41.2073 20.1657 41.0479 20.0136C40.8883 19.8612 40.8004 19.656 40.8004 19.4354V16.1903C40.8004 15.7858 40.4725 15.4579 40.068 15.4579C39.6635 15.4579 39.3355 15.7858 39.3355 16.1903V18.5833C39.3355 19.0286 38.9905 19.4031 38.5665 19.4183C38.3462 19.4251 38.1395 19.3468 37.9822 19.1949C37.8247 19.043 37.738 18.8388 37.738 18.62V12.7072C37.738 12.3027 37.4101 11.9748 37.0056 11.9748C36.6011 11.9748 36.2731 12.3027 36.2731 12.7072V14.0708H35.4743C35.0339 14.0708 34.6755 13.7125 34.6755 13.2721V11.1042C34.6755 10.6555 34.8237 10.2107 35.093 9.85176L36.2619 8.29326C36.7123 7.69268 36.9638 6.95088 36.9722 6.20039H47.7573C47.7623 6.87881 47.848 7.55596 48.0127 8.21426L48.3109 9.40723C48.4515 9.96943 48.5228 10.5483 48.5228 11.1278V16.728H48.5226Z" fill="#6667AB"/>
</g>
<defs>
<clipPath id="clip0_2825_3327">
<rect width="50" height="50" fill="white"/>
</clipPath>
</defs>
</svg>
