<svg width="50" height="50" viewBox="0 0 50 50" fill="none" xmlns="http://www.w3.org/2000/svg">
<path d="M48.9225 44.783L41.1806 29.2992C41.116 29.1699 41.0165 29.0613 40.8934 28.9856C40.7702 28.9099 40.6284 28.8703 40.4838 28.871H31.9878L36.4193 20.996C37.5536 18.9871 38.1546 16.7212 38.165 14.4142C38.1754 12.1072 37.595 9.83603 36.4789 7.81694C35.4348 5.87165 33.91 4.22613 32.0496 3.03719C30.1893 1.84826 28.0555 1.15551 25.8516 1.02497C25.2864 0.991678 24.7197 0.991678 24.1546 1.02497C21.9495 1.15448 19.8145 1.84674 17.953 3.03573C16.0915 4.22472 14.5657 5.87079 13.521 7.81694C12.405 9.83603 11.8245 12.1072 11.835 14.4142C11.8454 16.7212 12.4464 18.9871 13.5806 20.996L18.0121 28.871H9.51612C9.37225 28.871 9.23121 28.911 9.10882 28.9866C8.98643 29.0622 8.88753 29.1705 8.82322 29.2992L1.08129 44.783C1.02772 44.8905 0.999888 45.0089 1 45.129V48.2258C1 48.4311 1.08157 48.6281 1.22676 48.7732C1.37195 48.9184 1.56886 49 1.77419 49H48.2258C48.4311 49 48.628 48.9184 48.7732 48.7732C48.9184 48.6281 49 48.4311 49 48.2258V45.129C49.0013 45.0093 48.9748 44.8908 48.9225 44.783ZM24.2258 41.2581V44.3549H14.3788L15.9272 38.1613H23.2402L24.3241 40.0891C24.3914 40.209 24.4894 40.3088 24.6081 40.3782C24.7267 40.4477 24.8617 40.4843 24.9992 40.4843C25.1367 40.4843 25.2717 40.4477 25.3903 40.3782C25.509 40.3088 25.607 40.209 25.6743 40.0891L26.7582 38.1613H34.0704L35.6188 44.3549H25.7742V41.2581H24.2258ZM3.02684 44.3549L6.12361 38.1613H14.3301L12.7817 44.3549H3.02684ZM37.2167 44.3549L35.6684 38.1613H43.8748L46.9716 44.3549H37.2167ZM43.1006 36.613H35.2813L33.7329 30.4194H40.0038L43.1006 36.613ZM32.1365 30.4194L33.6849 36.613H27.6322L28.7997 34.5381L29.0993 34.8377C29.2445 34.9829 29.4414 35.0644 29.6467 35.0644C29.852 35.0644 30.0489 34.9829 30.194 34.8377L31.7424 33.2894L30.6477 32.1946L29.6451 33.1957L29.5871 33.1376L31.1161 30.4194H32.1365ZM14.8797 8.56016C15.799 6.84531 17.1422 5.39446 18.7812 4.34592C20.4203 3.29737 22.3005 2.68606 24.2428 2.57025C24.4937 2.5558 24.746 2.54857 25 2.54857C25.2539 2.54857 25.5066 2.5558 25.7579 2.57025C27.7001 2.68619 29.5802 3.29756 31.219 4.3461C32.8579 5.39464 34.201 6.84541 35.1202 8.56016C36.1096 10.3489 36.6244 12.3613 36.6155 14.4054C36.6065 16.4495 36.0742 18.4573 35.0691 20.2373L25 38.1311L14.9308 20.2373C13.9258 18.4573 13.3934 16.4495 13.3845 14.4054C13.3756 12.3613 13.8903 10.3489 14.8797 8.56016ZM20.4129 33.1376L20.3548 33.1957L19.3538 32.1946L18.2591 33.2894L19.8075 34.8377C19.9526 34.9829 20.1495 35.0644 20.3548 35.0644C20.5601 35.0644 20.757 34.9829 20.9022 34.8377L21.2018 34.5381L22.3677 36.613H16.3143L17.8627 30.4194H18.8839L20.4129 33.1376ZM9.99457 30.4194H16.2655L14.7171 36.613H6.8978L9.99457 30.4194ZM2.54839 47.4516V45.9032H47.4516V47.4516H2.54839Z" fill="#6667AB"/>
<path d="M19 41.0465L18.0447 40L17 41.1444L18.4777 42.763C18.6162 42.9148 18.8041 43 19 43C19.1959 43 19.3838 42.9148 19.5223 42.763L21 41.1444L19.9553 40L19 41.0465Z" fill="#6667AB"/>
<path d="M30 43C30.1959 43 30.3838 42.9147 30.5223 42.7629L32 41.1443L30.9553 40L30 41.0464L29.0447 40L28 41.1443L29.4777 42.7629C29.6162 42.9147 29.8041 43 30 43Z" fill="#6667AB"/>
<path d="M37.4777 34.763C37.6162 34.9148 37.8041 35 38 35C38.1959 35 38.3838 34.9148 38.5223 34.763L40 33.1444L38.9553 32L38 33.0465L37.0447 32L36 33.1444L37.4777 34.763Z" fill="#6667AB"/>
<path d="M41.9553 40L41 41.0465L40.0447 40L39 41.1444L40.4777 42.763C40.6162 42.9148 40.8041 43 41 43C41.1959 43 41.3838 42.9148 41.5223 42.763L43 41.1444L41.9553 40Z" fill="#6667AB"/>
<path d="M9.9553 40L9 41.0465L8.0447 40L7 41.1444L8.47765 42.763C8.6162 42.9148 8.80409 43 9 43C9.19591 43 9.3838 42.9148 9.52235 42.763L11 41.1444L9.9553 40Z" fill="#6667AB"/>
<path d="M11.4777 34.763C11.6162 34.9148 11.8041 35 12 35C12.1959 35 12.3838 34.9148 12.5223 34.763L14 33.1444L12.9553 32L12 33.0465L11.0447 32L10 33.1444L11.4777 34.763Z" fill="#6667AB"/>
<path d="M35 14C35 12.0222 34.4135 10.0888 33.3147 8.4443C32.2159 6.79981 30.6541 5.51809 28.8268 4.76121C26.9996 4.00433 24.9889 3.8063 23.0491 4.19215C21.1093 4.578 19.3275 5.53041 17.9289 6.92894C16.5304 8.32746 15.578 10.1093 15.1922 12.0491C14.8063 13.9889 15.0043 15.9996 15.7612 17.8268C16.5181 19.6541 17.7998 21.2159 19.4443 22.3147C21.0888 23.4135 23.0222 24 25 24C27.6512 23.9969 30.193 22.9424 32.0677 21.0677C33.9424 19.193 34.9969 16.6512 35 14ZM16.5385 14C16.5385 12.3265 17.0347 10.6905 17.9645 9.29902C18.8943 7.90753 20.2158 6.823 21.7619 6.18256C23.3081 5.54213 25.0094 5.37456 26.6508 5.70105C28.2921 6.02754 29.7998 6.83343 30.9832 8.01679C32.1666 9.20016 32.9725 10.7079 33.299 12.3492C33.6254 13.9906 33.4579 15.6919 32.8174 17.2381C32.177 18.7842 31.0925 20.1057 29.701 21.0355C28.3095 21.9653 26.6735 22.4615 25 22.4615C22.7567 22.4589 20.606 21.5666 19.0197 19.9803C17.4334 18.394 16.5411 16.2433 16.5385 14Z" fill="#6667AB"/>
<path d="M29.5001 19.25V14.7499H30.2501C30.3985 14.7499 30.5434 14.7059 30.6667 14.6235C30.7901 14.5411 30.8862 14.4239 30.9429 14.2869C30.9997 14.1499 31.0145 13.9991 30.9856 13.8536C30.9567 13.7082 30.8853 13.5746 30.7804 13.4697L25.5303 8.21959C25.3896 8.07899 25.1989 8 25 8C24.8011 8 24.6104 8.07899 24.4697 8.21959L19.2196 13.4697C19.1147 13.5746 19.0433 13.7082 19.0144 13.8536C18.9855 13.9991 19.0003 14.1499 19.0571 14.2869C19.1138 14.4239 19.2099 14.5411 19.3333 14.6235C19.4566 14.7059 19.6015 14.7499 19.7499 14.7499H20.4999V19.25C20.4999 19.4489 20.5789 19.6397 20.7196 19.7803C20.8602 19.921 21.051 20 21.2499 20H28.7501C28.949 20 29.1398 19.921 29.2804 19.7803C29.4211 19.6397 29.5001 19.4489 29.5001 19.25ZM25 9.81036L28.4396 13.2499H21.5604L25 9.81036ZM25.75 18.5H24.25V17H25.75V18.5ZM27.2501 18.5V16.2499C27.2501 16.051 27.171 15.8603 27.0304 15.7196C26.8897 15.579 26.699 15.4999 26.5 15.4999H23.5C23.301 15.4999 23.1103 15.579 22.9696 15.7196C22.829 15.8603 22.7499 16.051 22.7499 16.2499V18.5H21.9999V14.7499H28.0001V18.5H27.2501Z" fill="#6667AB"/>
</svg>
