<svg width="50" height="50" viewBox="0 0 50 50" fill="none" xmlns="http://www.w3.org/2000/svg">
<path d="M46.647 40.8909C46.6482 40.858 46.6488 40.8254 46.6488 40.7931C46.6479 39.9703 46.3175 39.1815 45.7301 38.5997C45.1427 38.0178 44.3463 37.6906 43.5156 37.6897V23.3362L46.3355 21.2414C46.4334 21.1686 46.5128 21.0741 46.5672 20.9655C46.6216 20.8569 46.6495 20.7371 46.6488 20.6159C46.648 20.4946 46.6186 20.3752 46.5628 20.2673C46.507 20.1593 46.4265 20.0658 46.3276 19.9943L39.5992 15.1239V6.65517C39.8069 6.65517 40.0062 6.57343 40.1531 6.42793C40.3 6.28243 40.3825 6.08508 40.3825 5.87931V2.77586C40.3825 2.57009 40.3 2.37275 40.1531 2.22724C40.0062 2.08174 39.8069 2 39.5992 2H31.7663C31.5586 2 31.3593 2.08174 31.2124 2.22724C31.0655 2.37275 30.983 2.57009 30.983 2.77586V5.87931C30.983 6.08508 31.0655 6.28243 31.2124 6.42793C31.3593 6.57343 31.5586 6.65517 31.7663 6.65517V9.45419L25.9621 5.2529C25.828 5.1558 25.6661 5.10347 25.5 5.10347C25.3339 5.10347 25.172 5.1558 25.0379 5.2529L4.67235 19.9943C4.57351 20.0658 4.49297 20.1593 4.43721 20.2673C4.38144 20.3752 4.352 20.4946 4.35123 20.6159C4.35047 20.7371 4.37842 20.8569 4.43282 20.9655C4.48723 21.0741 4.56658 21.1686 4.66452 21.2414L7.48436 23.3362V37.6897C6.65368 37.6906 5.85729 38.0178 5.26991 38.5997C4.68254 39.1815 4.35214 39.9703 4.3512 40.7931C4.3512 40.8254 4.35179 40.858 4.35297 40.8909C3.61402 41.0791 2.9698 41.5279 2.54116 42.1531C2.11253 42.7783 1.92895 43.5369 2.02486 44.2867C2.12078 45.0364 2.48959 45.7258 3.06211 46.2253C3.63464 46.7249 4.37151 47.0003 5.13449 47H45.8655C46.6285 47.0003 47.3654 46.7249 47.9379 46.2253C48.5104 45.7258 48.8792 45.0364 48.9751 44.2867C49.0711 43.5369 48.8875 42.7783 48.4588 42.1531C48.0302 41.5279 47.386 41.0791 46.647 40.8909ZM32.5496 3.55172H38.8159V5.10345H32.5496V3.55172ZM33.3329 10.5345V6.65517H38.0326V13.99L33.2588 10.5345H33.3329ZM25.5 6.84022L44.5491 20.6288L42.7252 21.9838L25.9608 9.907C25.8269 9.81053 25.6656 9.75857 25.5 9.75857C25.3344 9.75857 25.1731 9.81053 25.0392 9.907L8.27479 21.9838L6.45091 20.6288L25.5 6.84022ZM3.56791 43.8966C3.56835 43.4892 3.73032 43.0982 4.01895 42.808C4.30757 42.5177 4.69975 42.3514 5.11099 42.3448H5.11285C5.1529 42.3504 5.19295 42.3551 5.23377 42.3577C5.36358 42.3658 5.49338 42.3418 5.61146 42.2878C5.72954 42.2338 5.83219 42.1515 5.91014 42.0484C5.98809 41.9453 6.03888 41.8245 6.05794 41.6971C6.077 41.5697 6.06373 41.4395 6.01931 41.3185C5.95449 41.1506 5.92012 40.9728 5.91778 40.7931C5.91827 40.3817 6.08348 39.9873 6.37716 39.6964C6.67085 39.4055 7.06903 39.2419 7.48436 39.2414V45.4483H5.13449C4.71916 45.4478 4.32098 45.2841 4.0273 44.9933C3.73361 44.7024 3.56841 44.3079 3.56791 43.8966ZM37.2493 45.4483H27.8499V28.3793H37.2493V45.4483ZM38.8159 45.4483V27.6034C38.8159 27.3977 38.7334 27.2003 38.5865 27.0548C38.4396 26.9093 38.2404 26.8276 38.0326 26.8276H27.0666C26.8588 26.8276 26.6596 26.9093 26.5127 27.0548C26.3658 27.2003 26.2833 27.3977 26.2833 27.6034V45.4483H9.05094V23.3434L25.5 11.4938L41.9491 23.3434V45.4483H38.8159ZM45.8655 45.4483H43.5156V39.2414C43.931 39.2419 44.3292 39.4055 44.6228 39.6964C44.9165 39.9873 45.0817 40.3817 45.0822 40.7931C45.0799 40.9729 45.0456 41.1509 44.9807 41.3188C44.9363 41.4399 44.923 41.5701 44.9421 41.6975C44.9611 41.8249 45.0119 41.9457 45.0899 42.0488C45.1678 42.1519 45.2705 42.2342 45.3885 42.2882C45.5066 42.3422 45.6364 42.3662 45.7662 42.3581C45.8071 42.3555 45.8471 42.3507 45.8871 42.3452H45.889C46.3045 42.3483 46.7017 42.5147 46.9933 42.8079C47.2849 43.1011 47.4469 43.497 47.4438 43.9086C47.4407 44.3201 47.2727 44.7136 46.9767 45.0024C46.6807 45.2912 46.281 45.4518 45.8655 45.4487V45.4483Z" fill="#6667AB"/>
<path d="M22.2143 27H12.7857C12.5773 27 12.3775 27.0856 12.2301 27.238C12.0828 27.3903 12 27.597 12 27.8125V39.1875C12 39.403 12.0828 39.6097 12.2301 39.762C12.3775 39.9144 12.5773 40 12.7857 40H22.2143C22.4227 40 22.6225 39.9144 22.7699 39.762C22.9172 39.6097 23 39.403 23 39.1875V27.8125C23 27.597 22.9172 27.3903 22.7699 27.238C22.6225 27.0856 22.4227 27 22.2143 27ZM21.4286 32.6875H18.2857V28.625H21.4286V32.6875ZM16.7143 28.625V32.6875H13.5714V28.625H16.7143ZM13.5714 34.3125H16.7143V38.375H13.5714V34.3125ZM18.2857 38.375V34.3125H21.4286V38.375H18.2857Z" fill="#6667AB"/>
<path d="M31.2317 35.861C31.4475 35.3526 31.2103 34.7655 30.702 34.5497C30.1936 34.3339 29.6065 34.5711 29.3907 35.0795C29.1749 35.5879 29.4121 36.1749 29.9205 36.3907C30.4289 36.6065 31.0159 36.3693 31.2317 35.861Z" fill="#6667AB"/>
</svg>
