<svg width="50" height="50" viewBox="0 0 50 50" fill="none" xmlns="http://www.w3.org/2000/svg">
<path d="M46.5605 32.8472C45.8359 32.3045 44.985 31.9236 44.0963 31.7455L41.8898 31.3043L41.6428 30.3148C42.5045 29.6939 43.1432 28.7858 43.4219 27.7314L43.8152 27.3566C44.6088 26.601 45.2119 25.6519 45.5579 24.6129C45.7871 23.927 45.9032 23.2108 45.9032 22.4854C45.9032 20.9432 45.3141 19.5404 44.3548 18.4759V18.0323C44.3548 16.0395 43.0914 14.3409 41.3246 13.6828C41.8782 13.1665 42.3048 12.5177 42.5548 11.7861C44.4408 11.5275 45.9032 9.92335 45.9032 7.96774C45.9032 5.83329 44.1667 4.09677 42.0323 4.09677C40.7672 4.09677 39.6129 4.70374 38.8921 5.70864C38.6537 5.67071 38.4106 5.64516 38.1613 5.64516C35.5995 5.64516 33.5161 7.72852 33.5161 10.2903C33.5161 11.6289 34.0883 12.8328 34.9964 13.6813C33.9621 14.0637 33.105 14.8039 32.5693 15.7615C32.169 15.1987 31.7061 14.6846 31.1935 14.224V13.3871C31.1935 11.3943 29.9301 9.69574 28.1634 9.03768C29.0723 8.18916 29.6452 6.98374 29.6452 5.64516C29.6452 3.08335 27.5618 1 25 1C22.4382 1 20.3548 3.08335 20.3548 5.64516C20.3548 6.98374 20.9277 8.18916 21.8366 9.03768C20.0699 9.69574 18.8065 11.3943 18.8065 13.3871V14.224C18.2939 14.6846 17.831 15.1979 17.4307 15.7608C16.8942 14.8039 16.0379 14.063 15.0028 13.6805C15.9117 12.8328 16.4839 11.6289 16.4839 10.2903C16.4839 7.72852 14.4005 5.64516 11.8387 5.64516C9.2769 5.64516 7.19355 7.72852 7.19355 10.2903C7.19355 11.6289 7.76645 12.8335 8.67535 13.6821C7.384 14.1644 6.35665 15.2119 5.90374 16.5458C4.87097 16.7819 4.09677 17.7032 4.09677 18.8065V22.4854C4.09677 23.2108 4.2129 23.927 4.44206 24.6121C4.78813 25.6519 5.39123 26.601 6.184 27.3559L6.57806 27.7314C6.85677 28.7858 7.49548 29.6932 8.35716 30.3148L8.11019 31.3043L5.90374 31.7455C5.01574 31.9228 4.16413 32.3045 3.44026 32.8472C1.91277 33.993 1 35.8178 1 37.727V49H49V37.727C49 35.8178 48.0872 33.993 46.5605 32.8472ZM15.551 27.7321L15.7097 27.5804V31.4668C15.64 31.5117 15.568 31.5535 15.4999 31.6008L14.0188 31.305L13.7719 30.3156C14.6335 29.6939 15.2723 28.7866 15.551 27.7321ZM13.5497 32.7899L14.0374 32.8875C13.7812 33.1701 13.5443 33.4681 13.329 33.7832L12.6044 33.4209L13.5497 32.7899ZM10.8485 35.8387L10.463 34.6828L11.0645 34.3817L12.575 35.1365C12.4735 35.3657 12.3822 35.5995 12.3009 35.8379H10.8485V35.8387ZM9.064 35.3819L9.45419 36.5533L9.23277 36.9961L8.512 35.6575L9.064 35.3819ZM10.7688 37.3871H11.9324C11.8759 37.7874 11.8387 38.1938 11.8387 38.6095V38.961L11.0645 40.3987L10.1308 38.6637L10.7688 37.3871ZM11.8387 42.2274L11.999 41.9301C12.2498 42.4464 12.7755 42.8064 13.3871 42.8064V47.4516H11.8387V42.2274ZM14.9355 42.8064H16.8145C16.912 43.1688 17.0227 43.528 17.1636 43.8803L18.0323 46.0519V47.4516H14.9355V42.8064ZM18.6013 43.305C18.2235 42.3621 18.0323 41.3688 18.0323 40.3515C18.0323 39.4952 18.1701 38.649 18.4395 37.8369L18.7662 36.8575L17.2983 36.3675L16.9708 37.3468C16.648 38.3185 16.4839 39.3288 16.4839 40.3515C16.4839 40.6557 16.4986 40.9577 16.5272 41.2581H13.3871V38.6095C13.3871 35.1458 15.8723 32.2495 19.2957 31.7223L19.3948 31.7068L24.2258 40.679V47.4516H19.5806V45.7546L18.6013 43.305ZM25 18.5231C26.0785 19.7363 27.5138 20.5639 29.1334 20.8875L29.6452 20.9897V23.6134C29.6452 26.0854 27.6338 28.0968 25.1626 28.0968H25.0263C22.4506 28.0968 20.3548 26.0126 20.3548 23.4501V20.9897L20.8666 20.8875C22.4862 20.5639 23.9215 19.7363 25 18.5231ZM23.2898 29.3951C23.8418 29.5546 24.4232 29.6452 25.0263 29.6452H25.1626C25.7022 29.6452 26.2225 29.567 26.721 29.4338C27.064 30.4403 27.9079 31.2083 28.9894 31.4421L27.4557 34.2903H22.5443L21.0106 31.4421C22.1061 31.2052 22.9561 30.4201 23.2898 29.3951ZM25 38.8511L23.3781 35.8387H26.6219L25 38.8511ZM25.7742 40.6797L30.6059 31.7076L30.705 31.7231C34.1277 32.2495 36.6129 35.1458 36.6129 38.6095V41.2581H33.4735C33.5014 40.9577 33.5161 40.6557 33.5161 40.3515C33.5161 39.3288 33.352 38.3185 33.0284 37.3468L32.7017 36.3675L31.2338 36.8575L31.5597 37.8361C31.8299 38.649 31.9677 39.4952 31.9677 40.3515C31.9677 41.368 31.7765 42.3621 31.3987 43.305L30.4194 45.7546V47.4516H25.7742V40.6797ZM34.2903 27.5804L34.449 27.7314C34.7277 28.7858 35.3664 29.6932 36.2281 30.3148L35.9812 31.3043L34.5001 31.6C34.432 31.5528 34.36 31.511 34.2903 31.4661V27.5804ZM39.1515 35.8387H37.6991C37.6178 35.5995 37.5265 35.3657 37.425 35.1373L38.9355 34.3817L39.537 34.6828L39.1515 35.8387ZM36.671 33.7825C36.455 33.4674 36.2181 33.1693 35.9626 32.8867L36.4503 32.7892L37.3964 33.4194L36.671 33.7825ZM31.9677 46.0519L32.8364 43.8803C32.9773 43.5288 33.0888 43.1688 33.1856 42.8064H35.0645V47.4516H31.9677V46.0519ZM36.6129 42.8064C37.2245 42.8064 37.7502 42.4464 38.001 41.9301L38.1613 42.2274V47.4516H36.6129V42.8064ZM38.9355 40.3987L38.1613 38.961V38.6095C38.1613 38.1938 38.1241 37.7874 38.0668 37.3871H39.2304L39.8692 38.6645L38.9355 40.3987ZM40.7672 36.9969L40.5458 36.5541L40.936 35.3827L41.488 35.6591L40.7672 36.9969ZM42.8761 33.081L42.2227 34.2942L40.4754 33.4201L41.4214 32.7899L42.8761 33.081ZM40.3747 31.6263L38.9355 32.5855L37.4963 31.6255L37.6503 31.0085C38.0591 31.127 38.4895 31.1935 38.9355 31.1935C39.3814 31.1935 39.8119 31.127 40.2206 31.0085L40.3747 31.6263ZM42.0323 26.5484C42.0323 28.2563 40.6434 29.6452 38.9355 29.6452C37.2276 29.6452 35.8387 28.2563 35.8387 26.5484V25.0952C35.8387 24.0276 36.5626 23.1009 37.5984 22.8423L37.6619 22.8261C38.1706 23.3231 38.8341 23.6661 39.5765 23.7721L41.3672 24.0284C41.7466 24.0818 42.0323 24.4116 42.0323 24.7941V26.5484ZM44.0893 24.1236C43.9631 24.5014 43.7897 24.863 43.5806 25.2013V24.7941C43.5806 23.6459 42.7236 22.6573 41.5871 22.4955L39.7964 22.2392C38.8635 22.1061 38.1613 21.2963 38.1613 20.3548H36.6129C36.6129 20.7427 36.6787 21.119 36.8003 21.4712C35.303 22.0317 34.2903 23.4648 34.2903 25.0952V21.129C34.2903 20.7768 34.2663 20.4299 34.2276 20.087C35.0444 18.8173 36.4526 18.0323 37.9693 18.0323H39.9017C42.3574 18.0323 44.3548 20.0305 44.3548 22.4854C44.3548 23.0444 44.2658 23.5948 44.0893 24.1236ZM39.7097 14.9355C39.7097 15.7894 39.0152 16.4839 38.1613 16.4839C37.3074 16.4839 36.6129 15.7894 36.6129 14.9355H39.7097ZM42.6671 17.1644C42.0888 16.8625 41.4563 16.6565 40.7874 16.5566C41.0119 16.1943 41.1574 15.784 41.2163 15.3435C41.913 15.736 42.4372 16.3832 42.6671 17.1644ZM38.1613 13.3871C36.4534 13.3871 35.0645 11.9982 35.0645 10.2903H41.2581C41.2581 11.9982 39.8692 13.3871 38.1613 13.3871ZM42.0323 5.64516C43.3128 5.64516 44.3548 6.68723 44.3548 7.96774C44.3548 8.96877 43.7146 9.81574 42.7987 10.1409C42.7453 8.48026 41.8194 7.03871 40.4622 6.26064C40.8834 5.87277 41.4361 5.64516 42.0323 5.64516ZM38.1613 7.19355C39.3025 7.19355 40.2903 7.82064 40.8276 8.74194H35.4957C36.0323 7.82064 37.0201 7.19355 38.1613 7.19355ZM35.1048 15.335C35.1822 15.928 35.4253 16.4645 35.7899 16.9035C35.0514 17.193 34.3747 17.6243 33.801 18.177C33.7283 17.9603 33.6539 17.745 33.5657 17.536C33.7213 16.5783 34.3004 15.784 35.1048 15.335ZM29.6134 13.0766C28.9375 12.688 28.2083 12.3845 27.4395 12.1747C27.7654 11.7535 27.9814 11.2511 28.055 10.6983C28.912 11.1814 29.5097 12.0524 29.6134 13.0766ZM23.4516 10.2903H26.5484C26.5484 11.1443 25.8539 11.8387 25 11.8387C24.1461 11.8387 23.4516 11.1443 23.4516 10.2903ZM25 8.74194C23.2921 8.74194 21.9032 7.35303 21.9032 5.64516H28.0968C28.0968 7.35303 26.7079 8.74194 25 8.74194ZM25 2.54839C26.1412 2.54839 27.129 3.17548 27.6663 4.09677H22.3344C22.871 3.17548 23.8588 2.54839 25 2.54839ZM21.9443 10.6983C22.0178 11.2511 22.2338 11.7535 22.5597 12.1747C21.791 12.3845 21.0617 12.688 20.3858 13.0766C20.4903 12.0524 21.0872 11.1814 21.9443 10.6983ZM25 13.3871C29.2689 13.3871 32.7419 16.8601 32.7419 21.129V30.6803C32.1706 30.4596 31.5706 30.2893 30.9404 30.1925L29.4098 29.9572C28.792 29.8619 28.3166 29.4168 28.1579 28.8408C29.9688 27.7987 31.1928 25.8477 31.1928 23.6134V19.72L29.4361 19.3685C27.945 19.0705 26.656 18.2312 25.7734 17.0041V14.9355H24.225V17.0041C23.3417 18.2312 22.0526 19.0705 20.5623 19.3685L18.8065 19.72V23.4501C18.8065 25.7138 20.0359 27.6919 21.8606 28.7726C21.7228 29.3819 21.2328 29.8581 20.5902 29.9572L19.0596 30.1925C18.4294 30.2893 17.8294 30.4596 17.2581 30.6803V21.129C17.2581 16.8601 20.7311 13.3871 25 13.3871ZM16.4335 17.536C16.3786 17.6661 16.3368 17.8015 16.2872 17.9339C15.7197 17.4106 15.0477 17.0165 14.3169 16.7726C14.6243 16.3592 14.8248 15.8692 14.8945 15.3342C15.6996 15.7832 16.2795 16.5783 16.4335 17.536ZM10.2903 14.9355H13.3871C13.3871 15.7894 12.6926 16.4839 11.8387 16.4839C10.9848 16.4839 10.2903 15.7894 10.2903 14.9355ZM11.8387 13.3871C10.1308 13.3871 8.74194 11.9982 8.74194 10.2903H14.9355C14.9355 11.9982 13.5466 13.3871 11.8387 13.3871ZM11.8387 7.19355C12.9799 7.19355 13.9677 7.82064 14.505 8.74194H9.17316C9.70968 7.82064 10.6975 7.19355 11.8387 7.19355ZM8.78219 15.3319C8.83639 15.7484 8.97032 16.1363 9.17316 16.4839H7.61394C7.89497 16.0008 8.29832 15.6021 8.78219 15.3319ZM5.91071 24.1228C5.73419 23.5948 5.64516 23.0444 5.64516 22.4854V18.8065C5.64516 18.3799 5.992 18.0323 6.41935 18.0323H12.6129C13.9027 18.0323 15.1066 18.6895 15.8227 19.7541C15.7561 20.2039 15.7097 20.6606 15.7097 21.129V25.0952C15.7097 23.4648 14.697 22.031 13.1997 21.4712C13.3213 21.119 13.3871 20.7427 13.3871 20.3548H11.8387C11.8387 21.2963 11.1365 22.1061 10.2044 22.24L8.41368 22.4963C7.27639 22.6581 6.41935 23.6459 6.41935 24.7941V25.2013C6.21032 24.8622 6.0369 24.5014 5.91071 24.1228ZM7.96774 24.7941C7.96774 24.4116 8.25342 24.0818 8.632 24.0276L10.4227 23.7714C11.1652 23.6653 11.8279 23.3215 12.3373 22.8253L12.4015 22.8415C13.4374 23.1009 14.1613 24.0276 14.1613 25.0952V26.5484C14.1613 28.2563 12.7724 29.6452 11.0645 29.6452C9.35664 29.6452 7.96774 28.2563 7.96774 26.5484V24.7941ZM11.0645 31.1935C11.5105 31.1935 11.9409 31.127 12.3497 31.0085L12.5037 31.6255L11.0645 32.5855L9.62529 31.6255L9.77936 31.0085C10.1881 31.127 10.6186 31.1935 11.0645 31.1935ZM8.57935 32.7899L9.52542 33.4201L7.77806 34.2942L7.12387 33.081L8.57935 32.7899ZM2.54839 37.727C2.54839 36.3017 3.2289 34.9406 4.37006 34.0852C4.73161 33.8142 5.13729 33.6028 5.56387 33.4495L10.2903 42.2281V47.4516H5.64516V38.9355H4.09677V47.4516H2.54839V37.727ZM47.4516 47.4516H45.9032V38.9355H44.3548V47.4516H39.7097V42.2281L44.4361 33.4503C44.8627 33.6036 45.2692 33.815 45.6307 34.0859C46.7711 34.9406 47.4516 36.3024 47.4516 37.727V47.4516Z" fill="#6667AB"/>
<path d="M25 27C26.2442 27 27.3629 26.2195 27.9191 24.9623L28 24.7787L26.6217 24L26.5408 24.1845C26.2473 24.8474 25.6572 25.2599 25 25.2599C24.3428 25.2599 23.7527 24.8474 23.4592 24.1845L23.3783 24.0009L22 24.7796L22.0809 24.9623C22.6371 26.2195 23.7558 27 25 27Z" fill="#6667AB"/>
</svg>
