<svg width="30" height="30" viewBox="0 0 30 30" fill="none" xmlns="http://www.w3.org/2000/svg">
<g clip-path="url(#clip0_2777_936)">
<path d="M0.102279 18.9274C0.254943 19.2149 0.553634 19.3945 0.878875 19.3945H2.56917C4.24641 24.136 8.56037 27.6212 13.7162 28.1213L16.2648 29.8487C16.5335 30.0309 16.8816 30.0503 17.1695 29.8975C17.457 29.7452 17.6367 29.4466 17.6367 29.1211V27.9183C23.3084 26.757 27.5626 22.0084 28.1213 16.2838L29.8487 13.7354C30.0311 13.466 30.0501 13.1179 29.8974 12.8304C29.745 12.543 29.4465 12.3633 29.121 12.3633H27.9183C26.7569 6.69182 22.0083 2.43737 16.2835 1.87866L13.7352 0.151523C13.466 -0.0311244 13.1179 -0.0501216 12.8304 0.102543C12.5429 0.254978 12.3632 0.553668 12.3632 0.878909V2.08145C6.31115 3.31719 1.81637 8.67371 1.81637 15C1.81637 15.1822 1.82072 15.3655 1.82805 15.5484L0.15126 18.0226C-0.031159 18.2918 -0.0499273 18.6399 0.102279 18.9274ZM4.04912 18.2641C3.93788 17.8919 3.59547 17.6367 3.20683 17.6367H2.53621C2.58633 17.5628 4.39702 14.8915 4.44714 14.8176C4.93695 15.5525 5.94746 17.0682 6.43498 17.7997C6.34709 17.8624 6.27018 17.9416 6.2093 18.0347C6.0468 18.2831 6.02093 18.5966 6.13995 18.8683C7.25529 21.4137 9.38893 23.3233 11.9561 24.1761L10.9968 24.8156C10.7542 24.9774 10.6077 25.2489 10.6054 25.5405C7.50363 24.2358 5.04155 21.5877 4.04912 18.2641ZM7.08981 15C7.08981 11.6254 9.25183 8.64418 12.3632 7.54143V7.96875C12.3632 8.29285 12.5415 8.59062 12.8274 8.74374C13.1133 8.89664 13.46 8.87993 13.7297 8.70003L16.0418 7.15851C18.9825 7.54944 21.4732 9.60022 22.4574 12.3633H22.0312C21.7071 12.3633 21.4093 12.5418 21.2562 12.8275C21.1033 13.1133 21.12 13.4601 21.2999 13.7297L22.8415 16.0419C22.4505 18.9825 20.3997 21.4732 17.6367 22.4574V22.0312C17.6367 21.7071 17.4582 21.4094 17.1725 21.2563C16.8866 21.1034 16.5399 21.1201 16.2703 21.3L13.9583 22.8413C11.6551 22.5368 9.61529 21.2308 8.36308 19.3011C8.52238 19.221 8.6565 19.0931 8.74371 18.9304C8.89637 18.6447 8.87989 18.2977 8.69999 18.0281L7.11659 15.653C7.09896 15.4365 7.08981 15.2177 7.08981 15ZM16.6328 26.3095C16.2 26.3718 15.8789 26.7423 15.8789 27.1795V27.4638C15.7232 27.3582 13.201 25.6487 13.0597 25.553C13.6047 25.1896 15.3225 24.0445 15.8809 23.6723C15.8974 23.9138 16.013 24.139 16.2018 24.2933C16.4062 24.4604 16.6747 24.5265 16.9333 24.4739C20.4808 23.7506 23.1486 21.1517 24.1781 18.0471L24.8156 19.0034C24.9771 19.2458 25.2486 19.3922 25.54 19.3945C24.0142 23.0157 20.662 25.7309 16.6328 26.3095ZM26.3095 13.3672C26.3717 13.8 26.7423 14.1211 27.1794 14.1211H27.4637C27.3713 14.2573 25.6295 16.8272 25.553 16.9402L23.6723 14.119C23.9138 14.1028 24.139 13.9872 24.2932 13.7981C24.4601 13.5937 24.5265 13.3253 24.4738 13.0666C23.7506 9.51919 21.1518 6.85135 18.0468 5.82184L19.0031 5.1844C19.2457 5.02281 19.392 4.75136 19.3943 4.46022C23.0156 5.98572 25.7306 9.33792 26.3095 13.3672ZM13.3671 3.69049C13.7999 3.62824 14.1211 3.25768 14.1211 2.82051V2.53647C14.2767 2.64199 16.799 4.3515 16.9402 4.44718L14.119 6.3279C14.1025 6.0862 13.9869 5.86121 13.7981 5.70671C13.5937 5.53986 13.3252 5.47371 13.0666 5.52635C9.1763 6.3192 6.21251 9.42604 5.49794 13.225L5.18437 12.7547C5.02186 12.5111 4.74904 12.3644 4.45652 12.3633C4.21803 12.3626 3.99121 12.4587 3.82664 12.6256C4.81244 8.04176 8.58601 4.37737 13.3671 3.69049Z" fill="#6667AB"/>
<path d="M11.9 13H19.1C19.5971 13 20 12.5523 20 12C20 11.4479 19.5971 11 19.1 11H11.9C11.4029 11 11 11.4479 11 12C11 12.5523 11.4029 13 11.9 13Z" fill="#6667AB"/>
<path d="M11.9 16H19.1C19.5971 16 20 15.5523 20 15C20 14.4477 19.5971 14 19.1 14H11.9C11.4029 14 11 14.4477 11 15C11 15.5523 11.4029 16 11.9 16Z" fill="#6667AB"/>
<path d="M11.9 20H19.1C19.5971 20 20 19.5523 20 19C20 18.4477 19.5971 18 19.1 18H11.9C11.4029 18 11 18.4477 11 19C11 19.5523 11.4029 20 11.9 20Z" fill="#6667AB"/>
</g>
<defs>
<clipPath id="clip0_2777_936">
<rect width="30" height="30" fill="white"/>
</clipPath>
</defs>
</svg>
