<svg width="207" height="302" viewBox="0 0 207 302" fill="none" xmlns="http://www.w3.org/2000/svg">
<g clip-path="url(#clip0_2358_2000)">
<path d="M102.622 268.1C102.514 264.703 102.402 261.304 102.247 257.905C101.936 251.035 101.453 244.162 100.481 237.348C98.8545 225.939 94.5748 215.788 91.5812 204.774C90.3991 200.406 89.4532 195.979 88.7475 191.51C87.4201 183.183 86.8922 174.809 86.9627 166.405C87.0349 158.161 87.635 149.838 90.5495 142.044C92.1331 137.808 93.8904 132.497 97.3569 129.387C97.9054 128.895 98.8786 128.362 99.3325 127.894C99.3325 127.894 99.3325 127.894 99.3325 127.882C99.5045 127.75 99.6764 127.617 99.8312 127.474C99.9498 126.712 100.093 125.952 100.208 125.182C100.218 125.124 100.225 125.064 100.234 125.011C98.4418 124.868 96.4644 126.154 94.8894 126.832C91.1358 128.454 87.2825 129.839 83.541 131.498C81.8215 132.261 80.0728 133.06 78.3826 133.871C76.7405 134.666 75.4595 135.999 73.802 136.797C71.9587 137.689 70.112 138.572 68.2378 139.403C66.8209 140.035 65.399 140.659 63.9873 141.302C64.998 144.01 66.3082 146.597 67.8939 149.017C67.844 149.188 67.7942 149.358 67.7391 149.539C66.3481 153.934 63.6348 157.729 61.7829 161.92C61.329 162.945 60.9473 163.998 60.5793 165.042C61.427 165.5 61.4614 166.528 61.7503 167.414C64.1403 174.77 60.2217 179.019 59.1453 185.902C58.2855 191.411 60.3489 196.395 60.1271 201.776C59.9775 205.248 58.0379 208.222 57.1387 211.499C56.7455 212.969 56.4469 214.463 56.2445 215.97C54.2362 230.332 50.983 244.62 48.1528 258.867C47.465 262.283 46.8855 265.967 46 269.572C46.913 280.591 47.0317 291.863 46.9457 303H102.556C102.801 298.023 102.983 293.041 102.998 288.058C103.019 281.348 102.837 274.784 102.622 268.1ZM90.3449 248.816C89.5419 247.035 90.5977 244.656 92.6834 244.511C93.6428 244.444 94.2309 244.478 95.0407 245.1C96.7602 246.432 96.0363 248.611 94.8361 250.024C93.6359 251.436 90.9828 250.223 90.3449 248.816ZM96.7963 282.084C95.6047 283.486 92.9378 282.284 92.3051 280.876C91.5021 279.093 92.5578 276.716 94.6401 276.571C95.6013 276.504 96.1962 276.538 96.9992 277.16C98.7204 278.492 97.9931 280.671 96.7963 282.084Z" fill="#6667AB"/>
<path d="M34.0202 68C34.0202 68.0236 34.0202 68.0371 34 68.0607C34 68.0405 34 68.0202 34 68H34.0202Z" fill="#8CC295"/>
<path d="M115.982 117.57V117.458C120.914 117.285 126.673 114.356 130.912 111L131 111.114C130.821 112.568 130.905 114.167 130.799 115.471C130.59 118.03 130.461 120.674 130.65 123.252C127.72 123.424 124.886 124.2 121.854 123.951C118.371 123.636 114.949 122.819 111.691 121.526C108.904 120.419 106.426 118.584 104.055 116.76C102.44 115.512 101.167 114.027 99.782 112.532C99.5354 112.266 99.2753 111.915 99 111.557C100.61 112.478 102.249 113.354 103.916 114.244C105.96 115.337 108.147 116.06 110.378 116.681C112.206 117.198 114.087 117.497 115.982 117.57Z" fill="#E3E3E3"/>
<path d="M94.978 245.597C96.702 246.893 95.9762 249.013 94.7729 250.388C93.5695 251.762 90.9043 250.582 90.2699 249.213C89.4648 247.48 90.5233 245.165 92.6145 245.024C93.5764 244.959 94.1712 244.992 94.978 245.597Z" fill="#37628F"/>
<path d="M181.246 303H135.86C135.923 296.075 136.014 289.101 135.395 282.236C134.88 276.462 134.563 270.663 134.719 264.866C134.848 260.103 134.469 255.274 134.63 250.478C134.801 245.111 135.968 239.775 136.189 234.386C136.361 230.366 137.047 226.479 137.905 222.55C138.884 218.042 138.822 213.398 140.059 208.902C141.311 204.362 142.632 199.849 143.541 195.197C144.365 190.968 144.871 186.703 145.741 182.494C147.715 172.954 147.763 163.301 146.199 153.691C145.742 150.886 145.547 148.095 144.848 145.321C143.476 139.896 140.997 134.608 136.743 130.838C135.17 129.444 133.016 128.769 131.48 127.473C131.336 126.715 131.17 125.961 131.031 125.193C131.018 125.135 131.008 125.078 131 125.022C132.781 124.822 134.794 126.047 136.386 126.675C140.181 128.178 144.068 129.441 147.85 130.981C149.592 131.689 151.358 132.433 153.062 133.192C154.724 133.933 156.052 135.228 157.721 135.973C159.587 136.806 161.459 137.63 163.353 138.403C167.382 140.05 171.456 141.639 175.234 143.82C180.246 146.724 184.958 149.61 188.957 153.898C192.684 157.91 195.647 163.206 198.23 168C201.088 173.306 203.243 179.238 205.174 184.933C205.641 186.313 206.327 187.704 206.598 189.133C207.113 191.826 207.284 194.634 207.696 197.356C208.159 200.431 208.582 203.515 208.964 206.608C209.744 212.889 210.379 219.188 210.926 225.493C211.624 233.533 211.537 241.623 212.403 249.651C213.249 257.509 216.33 264.57 217.661 272.286C218.518 277.291 217.518 282.311 217.191 287.318C217.019 290.013 218.009 292.613 217.976 295.3C217.946 297.882 217.251 300.407 217.179 302.998L181.246 303Z" fill="#6667AB"/>
<path d="M34.9755 159.24C34.708 157.962 34.5437 156.674 34.2982 155.372C34.0476 154.003 33.7411 152.635 33.4346 151.266C32.1578 145.572 31.196 140.269 32.974 134.556C34.5708 129.424 37.3394 124.734 38.5519 119.479C39.3833 115.876 39.1852 112.257 39.07 108.584C38.9244 104.084 39.1564 99.5676 39.1835 95.0705C39.2021 91.9196 38.8448 87.3404 41.9301 85.4279C42.8073 84.8857 43.3407 84.8754 44.2771 85.303C46.9509 86.5227 47.4538 90.5169 47.569 93.0742C47.8924 100.236 47.6265 107.375 47.5978 114.544C47.5978 114.932 47.6689 115.172 47.6841 115.526C48.6565 115.483 49.6293 115.603 50.5628 115.881C54.6997 117.14 57.5056 120.852 60.0456 124.207C60.623 121.757 61.9675 118.793 64.5025 117.931C65.273 117.669 65.9334 117.486 66.7038 117.77C67.8689 118.203 68.9391 118.933 69.4945 120.084C70.6934 122.56 69.4538 125.645 68.9137 128.136C68.5411 129.855 68.0856 131.542 68.0958 133.333C68.0958 135.285 68.4243 137.216 68.4717 139.166C68.5106 140.75 68.5022 142.348 68.3853 143.935C68.2603 145.869 67.9159 147.782 67.3592 149.636C65.9892 154.038 63.3171 157.839 61.4934 162.036C61.0464 163.063 60.6704 164.118 60.3081 165.163C59.2311 168.189 58.1812 171.138 55.4431 173.256C51.8396 176.051 47.0169 175.138 43.3542 172.962C41.3521 171.774 39.5883 170.217 38.1539 168.372C37.3564 167.346 37.0854 166.621 36.8568 165.382C36.5588 163.762 35.7816 162.214 35.3243 160.635C35.1878 160.172 35.0715 159.707 34.9755 159.24Z" fill="#F6F6F6"/>
<path d="M125.785 88.995C126.633 91.0354 124.789 93.3285 123.413 94.7129C121.12 97.0093 118.123 98.3475 114.79 97.9213C112.914 97.6834 111.421 97.2753 109.824 96.2527C108.378 95.3259 107.014 94.2173 105.982 92.856C105.175 91.7904 104.536 89.8525 105.443 88.6564C106.194 87.6651 107.634 87.3215 108.833 87.4437C109.946 87.5544 111.088 87.5709 112.205 87.6502C113.248 87.7039 114.292 87.699 115.334 87.6354C116.7 87.5742 118.076 87.6354 119.433 87.4702C120.674 87.305 121.887 86.8093 123.15 87.0786C124.314 87.3215 125.314 87.8683 125.785 88.995Z" fill="#D8D8D8"/>
<path d="M72.6756 72.4692C72.4824 71.0992 72.3337 69.7292 72.1627 68.3781C71.9917 66.8934 71.8618 65.3693 71.4018 63.9257C70.4786 61.0281 68.6902 58.5057 67.7071 55.6321C67.2454 54.2827 66.9821 53.0549 67.0009 51.6215C67.0249 50.0632 67.2301 48.5168 67.3651 46.9653C67.5874 44.3709 68.1294 41.8142 68.7329 39.2848C69.5314 35.9558 70.7282 32.5137 70.3692 29.0562C70.3264 28.6555 70.2751 28.2565 70.2238 27.8575C69.8939 25.2477 70.7744 23.3143 71.9661 21.0709C73.8041 17.6049 76.5465 14.3923 80.0635 12.5428C83.9275 10.5135 88.6464 9.82683 92.6848 8.07154C94.4196 7.31304 96.0898 6.41445 97.679 5.38466C98.3304 4.96339 98.8263 4.42054 99.5119 4.06434C100.546 3.52834 101.641 3.09166 102.704 2.63443C103.99 2.07842 105.335 1.66997 106.713 1.41686C110.956 0.684933 115.309 0.91905 119.449 2.10185C123.433 3.24578 127.571 5.69805 128.557 10.0306C128.81 11.1471 129.645 11.041 130.657 11.041C133.649 10.356 136.86 11.041 139.522 12.5034C143.396 14.6286 144.704 18.3258 146.788 21.922C148.64 25.1192 151.234 27.7907 153.497 30.6814C156.382 34.3615 158.579 38.5159 157.864 43.3366C157.522 45.5816 157.18 47.6897 157.255 49.9433C157.325 52.2363 156.229 54.8324 155.664 57.0295C155.293 58.4526 155.151 59.9955 154.6 61.3381C153.268 64.5456 153.051 67.9277 153.203 71.3424C153.213 71.5907 153.224 71.839 153.239 72.089C153.27 73.003 153.245 73.9181 153.164 74.829C153.137 75.4776 153.022 76.1194 152.822 76.7367C152.627 77.2744 152.177 78.1067 151.524 78.1974C149.389 78.5142 149.799 72.3031 149.767 71.1592C149.659 67.3917 148.992 63.1636 146.822 59.9681C145.696 58.3105 145.005 56.2127 144.543 54.2639C144.03 52.1044 143.895 50.07 143.897 47.8678C143.897 44.4428 144.148 40.9802 142.316 37.8635C140.64 35.0156 137.198 33.7535 134.057 33.5206C133.303 33.4641 132.825 33.5121 132.088 33.4676C127.006 33.161 122 33.5121 117.276 35.5003C115.776 36.1117 114.165 36.4033 112.545 36.3565C108.404 36.2812 104.487 34.6235 100.476 33.7878C98.5558 33.386 96.5882 33.2592 94.6323 33.411C92.5652 33.5532 90.4912 33.6816 88.7729 35.0054C87.2239 36.2041 86.1656 37.9166 85.5654 39.7643C85.1648 41.0454 84.9028 42.3659 84.7841 43.703C84.6131 45.3761 85.0987 46.9687 84.955 48.6247C84.7157 51.5119 84.1857 54.2759 82.7905 56.8446C82.428 57.5124 82.1801 58.2265 81.8758 58.9184C81.5988 59.5451 81.1816 60.0058 80.8089 60.5743C79.9916 61.8193 79.0855 63.0283 78.5178 64.4171C77.227 67.5869 78.0408 71.0598 78.087 74.3495C78.1075 75.6989 78.087 77.1665 77.2099 78.2745C76.2952 79.4184 75.0727 79.1016 74.2007 78.0741C73.2894 77.0056 73.1885 75.6458 72.9594 74.3238C72.8603 73.6936 72.7611 73.0857 72.6756 72.4692Z" fill="#1E244A"/>
<path d="M131.106 125C131.113 125.058 131.124 125.115 131.136 125.17C131.077 125.135 131.019 125.141 131 125.01C131.034 125.007 131.08 125.003 131.106 125Z" fill="#8CC295"/>
<path d="M132.933 66.7308C133.163 67.851 132.778 69.0528 132.124 69.989C131.397 71.0292 129.794 71.1636 128.602 70.8531C125.941 70.1618 125.158 67.1724 127.018 65.2953C128.013 64.2935 129.698 63.5814 131.089 64.2791C131.945 64.708 132.751 65.8394 132.933 66.7308Z" fill="#2B1A0F"/>
<path d="M96.9781 277.597C98.7026 278.893 97.9749 281.013 96.7746 282.388C95.5743 283.762 92.9047 282.582 92.27 281.213C91.4647 279.478 92.5235 277.165 94.612 277.023C95.5743 276.959 96.171 276.992 96.9781 277.597Z" fill="#37628F"/>
<path d="M62.2417 167.254C64.6283 174.585 60.7153 178.82 59.6405 185.68C58.782 191.171 60.8424 196.138 60.6209 201.502C60.4715 204.962 58.5347 207.926 57.6368 211.192C57.2442 212.657 56.946 214.146 56.7439 215.648C54.7385 229.962 51.49 244.202 48.6639 258.402C47.9771 261.806 47.3985 265.478 46.5143 269.071C45.3931 273.628 43.7929 278.054 40.929 281.623C34.1298 290.096 17.7825 293.385 9.15135 285.577C4.00045 280.915 2.01735 273.492 1.31511 266.853C-0.243895 252.128 4.23395 236.355 9.20114 222.651C10.9421 217.856 13.291 213.305 15.0629 208.523C16.7363 204.087 17.8325 199.457 18.3251 194.746C18.6685 191.37 19.4789 188.065 21.11 185.064C23.0244 181.544 26.3348 179.012 27.504 175.075C29.0939 169.72 28.0723 163.514 33.5769 160.059C34.1933 159.672 34.9007 159.478 35.3832 159C35.4816 159.463 35.5961 159.924 35.7266 160.384C36.1901 161.955 36.9782 163.495 37.2804 165.107C37.5122 166.34 37.7869 167.06 38.5956 168.083C40.0499 169.918 41.8384 171.467 43.8684 172.65C47.5822 174.81 52.4721 175.724 56.1258 172.943C58.9022 170.835 59.9667 167.901 61.0587 164.89C61.9258 165.346 61.9601 166.37 62.2417 167.254Z" fill="#6667AB"/>
<path d="M98.9545 125.546C98.9545 125.425 98.9545 125.308 98.9545 125.189C99.083 122.785 99.0864 120.376 98.9647 117.972C98.8933 116.77 98.7776 115.571 98.5989 114.382C98.5223 113.872 98.3607 113.376 98.2705 112.896C98.1889 112.447 98.3131 111.755 98 111.384L98.2229 111C98.5087 111.17 98.798 111.33 99.0889 111.495C99.3663 111.849 99.6283 112.195 99.8767 112.457C101.272 113.928 102.555 115.394 104.185 116.625C106.567 118.426 109.07 120.237 111.877 121.329C115.16 122.605 118.607 123.412 122.116 123.723C125.179 123.968 128.025 123.213 130.977 123.033C131.008 123.473 131.049 123.91 131.103 124.344C131.14 124.655 131.188 124.961 131.243 125.267C131.208 125.267 131.171 125.267 131.137 125.281C131.156 125.411 131.214 125.405 131.273 125.44C131.411 126.206 131.576 126.955 131.719 127.71C131.936 128.748 132.028 129.807 131.993 130.867C131.875 132.869 131.347 134.827 130.441 136.618C128.675 140.163 125.587 143.101 121.881 144.542C121.151 144.826 120.428 145.152 119.688 145.411C118.319 145.869 116.876 146.063 115.435 145.982C113.99 145.889 112.559 145.651 111.162 145.271C108.882 144.664 106.98 144.042 105.037 142.622C102.116 140.479 99.8529 137.35 98.9409 133.824C98.5896 132.587 98.5516 131.283 98.8303 130.028C98.9503 129.395 99.0073 128.752 99.0004 128.108C98.9987 127.246 98.9392 126.396 98.9545 125.546Z" fill="#F6F6F6"/>
<path d="M136.76 53.7167C137.345 54.6984 136.804 55.7539 135.752 55.9142C134.77 56.0655 133.811 55.6242 132.907 55.3C132.494 55.1505 132.051 54.9739 131.633 54.8695C131.109 54.738 130.604 54.9055 130.082 54.8893C128.576 54.8407 127.245 55.4387 125.839 55.8998C125.466 56.0204 124.987 56.0655 124.617 55.8421C123.329 55.0784 124.337 53.7798 125.113 53.0683C125.606 52.5982 126.185 52.2345 126.816 51.9984C127.689 51.6579 128.69 51.2779 129.611 51.141C130.414 50.997 131.232 50.9631 132.044 51.0401C133.682 51.2311 135.866 52.2109 136.76 53.7167Z" fill="#1E244A"/>
<path d="M103.759 53.7149C104.346 54.6973 103.803 55.7537 102.75 55.9141C101.768 56.0655 100.813 55.6239 99.9086 55.2994C99.4964 55.1498 99.0529 54.9731 98.6338 54.8686C98.1099 54.737 97.6052 54.9046 97.0813 54.8884C95.5759 54.8397 94.247 55.4382 92.8394 55.8997C92.4692 56.0205 91.9907 56.0655 91.617 55.842C90.3299 55.0777 91.3358 53.778 92.1112 53.0659C92.6043 52.595 93.1839 52.2309 93.8156 51.9951C94.6888 51.6544 95.6894 51.2741 96.6097 51.1371C97.4102 50.9956 98.2251 50.9635 99.0337 51.0415C100.673 51.2272 102.86 52.2078 103.759 53.7149Z" fill="#1E244A"/>
<path d="M100.933 66.7308C101.163 67.851 100.778 69.0528 100.123 69.989C99.3951 71.0292 97.7928 71.1636 96.6008 70.8531C93.9415 70.1618 93.1581 67.1724 95.0171 65.2953C96.0132 64.2935 97.6965 63.5814 99.0878 64.2791C99.9455 64.708 100.751 65.8394 100.933 66.7308Z" fill="#2B1A0F"/>
<path d="M99.5105 111.071C99.2179 110.901 98.927 110.743 98.6396 110.576C96.9697 109.624 95.3323 108.61 93.7257 107.481C90.5621 105.255 87.1743 102.709 84.8389 99.5963C83.4564 97.7561 82.026 95.9925 80.5803 94.1931C79.2936 92.591 78.4621 90.6828 77.2165 89.0535C75.8922 87.3187 74.4002 87.0432 72.5592 86.0074C70.6772 84.9496 68.9251 83.5056 67.6658 81.7556C67.1731 81.0753 66.6564 80.5651 66.3107 79.7912C65.917 78.9686 65.5914 78.1154 65.3372 77.2401C64.8667 75.4628 64.8427 73.5495 65.5596 71.8301C65.8749 71.1197 66.3712 70.5034 66.9996 70.0423C67.628 69.5811 68.3666 69.291 69.1424 69.2007C71.1836 68.9983 71.88 70.4678 72.9476 71.8556C73.0332 72.4678 73.1273 73.0767 73.235 73.6873C73.4643 75.0002 73.5653 76.3506 74.4772 77.4119C75.3498 78.4323 76.5732 78.747 77.4885 77.6109C78.3748 76.5105 78.3868 75.0598 78.3663 73.7128C78.3201 70.4372 77.5108 66.9881 78.7974 63.8485C79.3655 62.4692 80.2723 61.2685 81.0901 60.032C81.4631 59.4674 81.8806 59.0116 82.1578 58.3874C82.4623 57.7071 82.7104 56.9911 83.0731 56.3278C84.4693 53.7767 84.9997 51.03 85.2392 48.1643C85.3778 46.5197 84.897 44.9329 85.0681 43.2764C85.187 41.9484 85.4491 40.6369 85.8501 39.3647C86.4455 37.5364 87.5046 35.8237 89.0547 34.6451C90.7742 33.3304 92.8496 33.2029 94.9182 33.0617C96.8756 32.9109 98.8446 33.0369 100.766 33.4359C104.78 34.2726 108.7 35.919 112.844 35.987C114.464 36.0335 116.077 35.7439 117.578 35.1366C122.307 33.1621 127.315 32.8134 132.401 33.1178C133.138 33.1621 133.617 33.1178 134.372 33.1706C137.515 33.4053 140.959 34.6553 142.636 37.4836C144.47 40.579 144.223 44.0162 144.218 47.4194C144.218 49.6065 144.352 51.627 144.865 53.7716C145.327 55.7071 146.018 57.7905 147.146 59.4368C149.317 62.6104 149.984 66.8027 150.092 70.5511C150.124 71.6872 149.714 77.8643 151.851 77.5411C152.504 77.4442 152.954 76.6245 153.149 76.0904C153.35 75.4774 153.465 74.8399 153.492 74.1958C153.573 73.2911 153.598 72.3823 153.567 71.4746C153.552 71.2263 153.541 70.9797 153.531 70.7331H153.632C155.442 68.0391 159.347 69.432 160.423 72.0069C161.164 73.7808 161.136 75.7486 160.652 77.5905C160.388 78.4907 160.052 79.3683 159.646 80.2147C159.29 81.0158 158.756 81.5413 158.25 82.2454C156.948 84.0482 155.131 85.5414 153.194 86.6299C151.767 87.436 150.26 88.084 148.798 88.8204L148.694 88.7745C146.843 92.9771 144.557 97.331 141.72 100.734C139.496 103.399 136.796 106.027 134.283 108.43C133.507 109.166 132.695 109.862 131.848 110.515C127.553 113.837 121.719 116.726 116.723 116.889V117C114.803 116.93 112.898 116.637 111.046 116.128C108.786 115.515 106.57 114.801 104.5 113.723C102.802 112.845 101.141 111.981 99.5105 111.071ZM135.629 55.7445C136.656 55.5931 137.19 54.5965 136.616 53.6696C135.733 52.2478 133.595 51.3226 131.981 51.1474C131.189 51.0736 130.39 51.1039 129.605 51.2375C128.705 51.3736 127.723 51.7256 126.867 52.0471C126.249 52.27 125.682 52.6135 125.199 53.0573C124.439 53.7291 123.452 54.9553 124.713 55.6764C125.083 55.8873 125.551 55.8465 125.911 55.7309C127.28 55.2955 128.592 54.7308 130.067 54.7768C130.58 54.7921 131.078 54.6339 131.586 54.758C131.995 54.8567 132.43 55.0234 132.833 55.1645C133.728 55.4707 134.668 55.8873 135.629 55.7445ZM132.604 70.5562C133.266 69.5613 133.656 68.2874 133.424 67.0935C133.239 66.1462 132.423 64.9438 131.555 64.488C130.145 63.7465 128.438 64.5033 127.43 65.5679C125.548 67.5578 126.339 70.7399 129.035 71.4746C130.243 71.8046 131.867 71.6617 132.604 70.5562ZM124.142 94.1846C125.536 92.7594 127.392 90.3987 126.537 88.2983C126.061 87.1384 125.052 86.5755 123.88 86.3221C122.605 86.0465 121.38 86.5636 120.128 86.7251C118.759 86.8952 117.368 86.8357 115.989 86.8952C114.937 86.9607 113.883 86.9658 112.83 86.9105C111.703 86.8289 110.55 86.8119 109.426 86.6979C108.207 86.5721 106.753 86.9258 106.004 87.9463C105.088 89.1776 105.733 91.1777 106.548 92.2696C107.59 93.671 108.967 94.8122 110.426 95.7663C112.038 96.819 113.546 97.2391 115.44 97.484C118.802 97.9126 121.827 96.552 124.142 94.1846ZM103.037 55.7479C104.063 55.5965 104.601 54.5999 104.026 53.673C103.145 52.2512 101.002 51.326 99.389 51.1508C98.5968 51.0771 97.7984 51.1074 97.0142 51.2409C96.1159 51.377 95.1321 51.729 94.2766 52.0505C93.6577 52.2729 93.0898 52.6164 92.6067 53.0607C91.847 53.7325 90.8615 54.9587 92.1225 55.6798C92.4921 55.8907 92.9609 55.8499 93.3202 55.7343C94.6992 55.2989 96.0013 54.7342 97.4761 54.7802C97.9894 54.7955 98.4907 54.6373 98.9972 54.7614C99.4078 54.8601 99.8424 55.0268 100.246 55.1679C101.139 55.4707 102.075 55.8873 103.037 55.7445V55.7479ZM100.517 70.5596C101.18 69.5647 101.57 68.2908 101.338 67.0969C101.153 66.1496 100.335 64.9472 99.4677 64.4914C98.0578 63.7499 96.352 64.5067 95.3425 65.5713C93.4605 67.5612 94.2526 70.7433 96.9474 71.478C98.1554 71.8046 99.7791 71.6617 100.517 70.5562V70.5596Z" fill="#F6F6F6"/>
<path d="M108.417 291.816C107.788 290.011 107.832 288.185 107.498 286.304C106.694 281.782 106.164 277.219 105.741 272.653C105.54 270.472 105.662 268.038 105.152 265.907C104.747 264.21 104.619 262.613 104.521 260.863C104.005 252.438 102.488 244.097 100 236C100.101 236.582 100.199 237.168 100.286 237.757C101.252 244.261 101.75 250.827 102.065 257.379C102.077 257.649 102.091 257.919 102.104 258.189C102.264 261.567 102.38 264.945 102.492 268.321C102.714 274.965 102.906 281.488 102.881 288.149C102.865 293.102 102.677 298.054 102.424 303H110C109.883 301.511 109.671 300.021 109.456 298.549C109.143 296.394 109.129 293.88 108.417 291.816Z" fill="#A8A9D1"/>
<path d="M146.898 154.14C146.443 151.343 146.248 148.56 145.552 145.795C144.183 140.386 141.711 135.113 137.468 131.355C135.9 129.965 133.751 129.293 132.22 128C132.438 129.039 132.53 130.1 132.495 131.161C132.376 133.167 131.845 135.127 130.935 136.92C129.159 140.471 126.054 143.414 122.328 144.856C121.594 145.141 120.867 145.468 120.123 145.727C118.747 146.186 117.295 146.38 115.846 146.299C114.391 146.207 112.949 145.97 111.542 145.59C109.249 144.982 107.337 144.359 105.383 142.937C102.446 140.791 100.17 137.658 99.2535 134.126C98.9003 132.887 98.862 131.581 99.1423 130.325C99.263 129.691 99.3203 129.047 99.3134 128.402C98.8617 128.86 97.8934 129.4 97.3477 129.89C93.8988 132.992 92.1504 138.288 90.5748 142.511C87.6665 150.282 87.078 158.583 87.0062 166.803C86.936 175.191 87.4612 183.54 88.7819 191.837C89.4823 196.293 90.4217 200.708 91.5961 205.063C94.4206 215.474 98.3896 225.121 100.174 235.78C102.567 243.904 104.026 252.273 104.523 260.724C104.625 262.48 104.74 264.091 105.13 265.786C105.621 267.923 105.503 270.365 105.696 272.553C106.103 277.135 106.613 281.712 107.386 286.249C107.708 288.136 107.665 289.969 108.271 291.779C108.965 293.85 108.976 296.377 109.279 298.535C109.486 300.011 109.689 301.506 109.802 303H136.587C136.651 296.096 136.741 289.143 136.124 282.298C135.611 276.542 135.294 270.76 135.45 264.98C135.578 260.232 135.2 255.418 135.361 250.636C135.532 245.285 136.695 239.965 136.916 234.592C137.087 230.584 137.771 226.708 138.627 222.791C139.603 218.297 139.542 213.667 140.775 209.184C142.024 204.658 143.341 200.158 144.248 195.521C145.069 191.304 145.574 187.052 146.441 182.856C148.41 173.35 148.458 163.721 146.898 154.14Z" fill="#BFC0F2"/>
<path d="M120.46 31C120.369 30.9999 120.28 30.9728 120.205 30.9222C120.13 30.8716 120.071 30.7996 120.036 30.7154C120.001 30.6313 119.991 30.5385 120.008 30.4489C120.025 30.3593 120.069 30.2768 120.132 30.2117C123.482 26.7947 125.023 22.2959 126.091 18.3595C126.105 18.2987 126.131 18.2414 126.167 18.1909C126.204 18.1405 126.25 18.098 126.303 18.0659C126.356 18.0339 126.415 18.0129 126.477 18.0044C126.538 17.9958 126.6 17.9998 126.66 18.0162C126.72 18.0325 126.776 18.0608 126.825 18.0994C126.873 18.138 126.914 18.186 126.943 18.2407C126.973 18.2954 126.992 18.3556 126.998 18.4177C127.004 18.4797 126.997 18.5424 126.979 18.6019C125.013 25.8366 122.751 28.8594 120.787 30.8631C120.745 30.9068 120.694 30.9415 120.637 30.965C120.581 30.9885 120.521 31.0004 120.46 31Z" fill="black"/>
<path d="M127.484 31C127.37 30.9998 127.259 30.9596 127.172 30.8865C127.084 30.8133 127.026 30.712 127.007 30.6003C126.988 30.4886 127.009 30.3738 127.067 30.2762C127.125 30.1785 127.216 30.1043 127.323 30.0666C129.849 29.2023 132.183 27.8619 134.195 26.1194C134.292 26.0353 134.418 25.9927 134.547 26.001C134.675 26.0094 134.795 26.0679 134.88 26.1638C134.964 26.2597 135.007 26.3851 134.999 26.5124C134.991 26.6396 134.931 26.7584 134.835 26.8425C132.728 28.6649 130.287 30.0678 127.644 30.9744C127.592 30.9911 127.538 30.9997 127.484 31Z" fill="black"/>
<path d="M106.514 27C106.404 26.9997 106.297 26.9609 106.211 26.89C106.125 26.819 106.066 26.7203 106.043 26.6102C104.955 21.4741 102.132 17.5882 98.2969 15.9499C98.2382 15.9248 98.185 15.8881 98.1402 15.842C98.0954 15.7958 98.06 15.7412 98.036 15.6811C98.0119 15.621 97.9997 15.5567 98 15.4918C98.0003 15.4269 98.0132 15.3627 98.0378 15.3028C98.0624 15.243 98.0984 15.1887 98.1436 15.143C98.1888 15.0974 98.2424 15.0612 98.3013 15.0367C98.3602 15.0121 98.4233 14.9997 98.4869 15C98.5505 15.0003 98.6134 15.0134 98.6721 15.0386C102.803 16.805 105.834 20.9473 106.989 26.403C107.016 26.5308 106.992 26.6641 106.923 26.774C106.853 26.8838 106.744 26.9613 106.619 26.9895C106.585 26.9966 106.55 27.0001 106.514 27Z" fill="black"/>
<path d="M89.5444 25.9983C89.4674 25.9979 89.3919 25.9767 89.3248 25.9368C86.5801 24.3274 83.9598 23.6942 81.517 24.0595C81.4579 24.0682 81.3978 24.0646 81.3401 24.0487C81.2824 24.0329 81.2282 24.0053 81.1806 23.9673C81.133 23.9294 81.0929 23.8819 81.0627 23.8275C81.0325 23.7732 81.0127 23.7131 81.0044 23.6507C80.9961 23.5883 80.9996 23.5247 81.0145 23.4637C81.0295 23.4027 81.0557 23.3454 81.0916 23.2951C81.1275 23.2448 81.1724 23.2024 81.2238 23.1705C81.2752 23.1385 81.332 23.1176 81.3911 23.1088C84.034 22.7163 86.8514 23.387 89.7656 25.1006C89.8538 25.152 89.9233 25.2331 89.9631 25.331C90.0029 25.4289 90.0108 25.538 89.9854 25.6411C89.96 25.7442 89.9029 25.8354 89.8231 25.9004C89.7432 25.9654 89.6452 26.0004 89.5444 26V25.9983Z" fill="black"/>
<path d="M115.661 81C115.145 80.99 114.637 80.8636 114.167 80.6288C113.407 80.2948 112.708 79.8129 112.106 79.2066C112.034 79.1135 111.996 78.9946 112 78.873C112.004 78.7514 112.05 78.6358 112.128 78.5488C112.206 78.4618 112.311 78.4096 112.423 78.4023C112.534 78.395 112.644 78.4332 112.731 78.5094C113.257 79.0309 113.866 79.4442 114.527 79.7294C114.974 79.9664 115.474 80.0583 115.967 79.9944C116.307 79.9327 116.637 79.8206 116.949 79.6615C117.376 79.4471 118.668 78.79 117.819 75.7539C117.538 74.75 117.207 73.7409 116.887 72.7666C116.594 71.876 116.292 70.954 116.026 70.0321C115.895 69.5249 115.816 69.0035 115.791 68.4774C115.772 68.2369 115.754 68.0086 115.724 67.7803C115.493 65.9956 115.637 64.1551 115.826 62.4314C115.833 62.3675 115.852 62.3058 115.881 62.2497C115.91 62.1937 115.948 62.1444 115.995 62.1046C116.041 62.0649 116.094 62.0355 116.151 62.0182C116.208 62.0008 116.267 61.9958 116.326 62.0035C116.385 62.0112 116.441 62.0313 116.493 62.0629C116.544 62.0944 116.589 62.1366 116.626 62.1872C116.662 62.2378 116.689 62.2957 116.705 62.3576C116.721 62.4195 116.726 62.4843 116.719 62.5481C116.536 64.2056 116.399 65.9694 116.615 67.6443C116.647 67.9005 116.667 68.1515 116.687 68.3938C116.706 68.8488 116.772 69.3001 116.883 69.7393C117.144 70.6438 117.443 71.5553 117.733 72.4372C118.053 73.4237 118.392 74.4433 118.68 75.4698C119.571 78.6593 118.435 80.0013 117.326 80.5521C116.939 80.7491 116.529 80.8875 116.108 80.9634C115.96 80.9881 115.811 81.0003 115.661 81Z" fill="#676767"/>
<path d="M74.503 83C74.4101 83.0001 74.3189 82.9755 74.2397 82.9292C74.1605 82.8828 74.0964 82.8164 74.0545 82.7374C73.7964 82.246 73.3052 81.9292 72.7837 81.5937C72.1803 81.2057 71.4951 80.7651 71.1712 79.9925C70.8472 79.2199 71.0679 78.4913 71.2691 77.8712C71.3606 77.6171 71.4309 77.3565 71.4791 77.0918C71.4957 76.8262 71.4412 76.5609 71.3207 76.3208C71.2673 76.1819 71.2121 76.0396 71.1658 75.8803C71.0199 75.372 70.8882 75.067 70.5785 74.8247C69.7811 74.2029 69.0692 73.8962 68.5744 73.9606C68.4362 73.9824 68.3046 74.0323 68.1885 74.1068C68.0725 74.1814 67.9746 74.2789 67.9016 74.3926C67.8237 74.4924 67.708 74.5592 67.5791 74.5788C67.4502 74.5985 67.3184 74.5693 67.2117 74.4977C67.1051 74.426 67.0321 74.3175 67.0083 74.1953C66.9846 74.0731 67.012 73.9469 67.0846 73.8437C67.2351 73.6216 67.4339 73.4329 67.6676 73.2903C67.9012 73.1476 68.1643 73.0544 68.4391 73.0168C69.2365 72.9152 70.1691 73.2744 71.2121 74.0894C71.7781 74.5299 71.9774 75.0924 72.1305 75.6278C72.1661 75.7498 72.2106 75.8684 72.2604 75.9955C72.4434 76.3825 72.5152 76.8087 72.4687 77.2307C72.4139 77.5438 72.3324 77.852 72.2248 78.1524C72.0469 78.7133 71.8973 79.1555 72.1002 79.6401C72.3031 80.1247 72.789 80.4483 73.3461 80.8058C73.9032 81.1633 74.576 81.5971 74.948 82.3104C74.9857 82.383 75.0034 82.4636 74.9995 82.5445C74.9955 82.6254 74.97 82.704 74.9253 82.773C74.8806 82.842 74.8183 82.899 74.7441 82.9387C74.6699 82.9784 74.5863 82.9995 74.5013 83H74.503Z" fill="#676767"/>
<path d="M151.486 84C151.41 84.0005 151.336 83.9835 151.269 83.9506C151.212 83.9235 151.161 83.8859 151.119 83.8401C151.077 83.7942 151.045 83.7409 151.025 83.6833C151.005 83.6256 150.997 83.5648 151.001 83.5042C151.006 83.4435 151.023 83.3843 151.051 83.33C151.427 82.6188 152.09 82.1974 152.658 81.827C153.226 81.4566 153.696 81.157 153.913 80.6516C154.129 80.1462 153.965 79.6919 153.788 79.1502C153.681 78.849 153.599 78.5402 153.542 78.2267C153.498 77.8059 153.57 77.3813 153.752 76.9953C153.8 76.8686 153.847 76.7484 153.882 76.6266C154.036 76.0899 154.228 75.5302 154.799 75.089C155.838 74.2758 156.776 73.9136 157.569 74.0173C157.843 74.0552 158.104 74.1483 158.337 74.2902C158.57 74.4322 158.768 74.6198 158.918 74.8404C158.988 74.9407 159.015 75.0634 158.992 75.1821C158.969 75.3008 158.898 75.4062 158.794 75.4759C158.69 75.5455 158.562 75.5738 158.437 75.5547C158.311 75.5357 158.199 75.4707 158.123 75.3738C158.048 75.2572 157.947 75.1575 157.828 75.0816C157.708 75.0057 157.573 74.9555 157.431 74.9343C156.929 74.8701 156.208 75.1779 155.405 75.8051C155.09 76.0504 154.958 76.3566 154.81 76.8702C154.765 77.0349 154.709 77.1731 154.656 77.3114C154.545 77.6044 154.456 77.8349 154.495 78.0917C154.544 78.3577 154.614 78.6197 154.706 78.8753C154.908 79.4959 155.139 80.1923 154.806 80.994C154.474 81.7957 153.826 82.1859 153.193 82.5941C152.673 82.9234 152.173 83.2526 151.912 83.7465C151.871 83.8214 151.81 83.8845 151.735 83.9291C151.661 83.9737 151.574 83.9982 151.486 84Z" fill="#676767"/>
<path d="M58.7021 140C58.6169 139.999 58.5325 139.982 58.4527 139.95C58.4362 139.941 58.4183 139.937 58.4 139.936C58.284 139.922 58.1775 139.86 58.1031 139.764C58.0287 139.667 57.9922 139.543 58.0014 139.418C58.0105 139.292 58.0646 139.176 58.1521 139.093C58.2396 139.01 58.3538 138.967 58.4703 138.973C58.5547 138.979 58.638 138.997 58.7181 139.026C58.7611 139.016 58.8052 139.012 58.8491 139.016C60.0415 139.11 61.0869 137.511 61.4545 136.484C62.0779 134.774 62.2537 132.796 61.9724 130.602C61.7358 128.746 61.4273 126.818 60.4891 125.521L59.9584 124.778C59.8859 124.676 59.854 124.547 59.8698 124.42C59.8855 124.293 59.9476 124.178 60.0423 124.1C60.1371 124.022 60.2567 123.987 60.375 124.004C60.4932 124.021 60.6004 124.088 60.6729 124.19C60.8487 124.44 61.0245 124.686 61.2004 124.929C62.2729 126.422 62.6101 128.486 62.8627 130.471C63.1631 132.831 62.9698 134.972 62.2904 136.835C62.0029 137.621 61.5707 138.336 61.0197 138.938C60.3436 139.661 59.5956 140.022 58.8539 139.991C58.8036 139.998 58.7528 140.001 58.7021 140Z" fill="#676767"/>
<path d="M42.4502 118C42.3556 117.997 42.2641 117.964 42.1879 117.905C42.1117 117.846 42.0546 117.763 42.0243 117.669C41.994 117.574 41.992 117.472 42.0185 117.377C42.045 117.281 42.0988 117.196 42.1726 117.133C43.7267 115.916 45.5706 115.178 47.4989 115.002C47.6209 114.991 47.742 115.031 47.8357 115.114C47.9294 115.198 47.9879 115.317 47.9983 115.445C48.0088 115.574 47.9703 115.702 47.8915 115.801C47.8126 115.9 47.6997 115.961 47.5777 115.972C45.8222 116.133 44.1434 116.804 42.7279 117.911C42.6467 117.972 42.5494 118.003 42.4502 118Z" fill="#676767"/>
<path d="M52.2624 147C51.6228 147 51.0235 146.826 50.5938 146.347C50.5242 146.298 50.4499 146.256 50.3722 146.223C50.117 146.102 49.6889 145.897 49.647 145.386C49.6376 145.263 49.6735 145.141 49.7474 145.044C49.8214 144.947 49.9279 144.883 50.0457 144.865C50.1634 144.846 50.2836 144.874 50.3822 144.943C50.4807 145.013 50.5503 145.118 50.577 145.238C50.639 145.274 50.7029 145.308 50.7683 145.337C50.9607 145.416 51.1359 145.534 51.2837 145.685C51.9905 146.468 53.9865 145.756 54.8577 145.163C57.2919 143.481 59.0545 139.306 57.5151 134.881C57.3322 134.36 56.9729 133.839 56.6254 133.318C56.4894 133.119 56.3501 132.916 56.2208 132.711C54.1694 129.479 52.1449 127.623 50.2009 127.194C48.1126 126.735 45.7809 127.1 44.5772 127.359C44.5161 127.374 44.4528 127.375 44.391 127.364C44.3292 127.353 44.2702 127.329 44.2173 127.294C44.1645 127.259 44.119 127.214 44.0834 127.16C44.0478 127.107 44.0228 127.047 44.01 126.983C43.9972 126.92 43.9967 126.854 44.0086 126.79C44.0205 126.727 44.0446 126.666 44.0795 126.612C44.1143 126.558 44.1592 126.512 44.2115 126.476C44.2638 126.44 44.3225 126.415 44.3842 126.403C45.6617 126.129 48.1411 125.743 50.3973 126.24C52.6233 126.73 54.7872 128.673 57.0082 132.176C57.129 132.364 57.2583 132.553 57.3943 132.753C57.7787 133.311 58.1749 133.889 58.4015 134.544C59.6689 138.193 59.0411 143.44 55.3798 145.97C54.7402 146.406 53.4342 147 52.2624 147Z" fill="#676767"/>
<path d="M45.357 152C44.9179 151.995 44.4861 151.881 44.0964 151.668C43.7067 151.455 43.37 151.148 43.1133 150.773C42.6442 150.138 42.3521 149.378 42.2694 148.578C42.2556 148.271 42.2662 147.963 42.301 147.658C42.341 147.193 42.3793 146.754 42.2278 146.412C41.85 145.555 41.1542 144.963 40.4168 144.335L40.1722 144.127C40.0759 144.044 40.0149 143.924 40.0024 143.794C39.9899 143.664 40.027 143.534 40.1056 143.433C40.1842 143.332 40.2978 143.267 40.4214 143.254C40.545 143.241 40.6685 143.28 40.7647 143.363L41.0044 143.57C41.7934 144.239 42.6073 144.933 43.0767 145.998C43.333 146.58 43.2798 147.199 43.2315 147.751C43.2029 148.003 43.1934 148.257 43.2032 148.511C43.2715 149.12 43.4972 149.697 43.8557 150.179C44.5481 151.131 45.59 151.29 46.5771 150.598C48.2932 149.394 48.9856 146.873 49.0605 144.915C49.0877 143.824 48.9386 142.735 48.6194 141.696C48.2748 140.519 47.3577 139.539 46.4706 138.593L46.2575 138.365C45.2999 137.307 44.1327 136.484 42.8387 135.954C42.7226 135.907 42.6288 135.814 42.5779 135.695C42.527 135.576 42.5232 135.44 42.5674 135.318C42.6115 135.196 42.7 135.097 42.8133 135.043C42.9266 134.99 43.0555 134.986 43.1716 135.032C44.5953 135.612 45.8793 136.517 46.9316 137.682L47.143 137.908C48.0651 138.891 49.1087 140.011 49.5199 141.412C49.8674 142.556 50.0283 143.754 49.9959 144.954C49.8861 147.803 48.8008 150.211 47.0947 151.416C46.5835 151.789 45.9785 151.992 45.357 152Z" fill="#676767"/>
<path d="M51.4779 153C51.4307 153 51.3838 152.993 51.3385 152.98C51.2175 152.945 51.116 152.865 51.0564 152.757C50.9968 152.65 50.9838 152.524 51.0204 152.407C51.7212 150.185 52.5512 148.526 53.7162 147.028C53.9254 146.761 54.1125 146.514 54.2979 146.272C54.5684 145.916 54.8252 145.581 55.1296 145.197C55.1665 145.146 55.2137 145.103 55.2685 145.07C55.3232 145.037 55.3843 145.015 55.4481 145.006C55.512 144.996 55.5771 144.999 55.6397 145.014C55.7023 145.029 55.761 145.057 55.8123 145.095C55.8637 145.132 55.9065 145.18 55.9382 145.234C55.97 145.288 55.99 145.348 55.9971 145.41C56.0042 145.471 55.9982 145.534 55.9795 145.593C55.9608 145.653 55.9297 145.708 55.8882 145.756C55.5906 146.132 55.3371 146.465 55.0684 146.815C54.8813 147.061 54.6925 147.307 54.4816 147.58C53.3863 148.988 52.6107 150.559 51.9304 152.674C51.9007 152.768 51.8409 152.85 51.7595 152.908C51.6782 152.967 51.5795 152.999 51.4779 153Z" fill="#676767"/>
<path d="M46.4719 269C46.4352 269 46.3985 268.996 46.3627 268.988C46.3023 268.973 46.2453 268.947 46.1951 268.91C46.1448 268.873 46.1022 268.826 46.0697 268.772C46.0373 268.719 46.0155 268.659 46.0058 268.597C45.9961 268.535 45.9986 268.471 46.0131 268.41C46.5661 266.053 47.0031 263.656 47.4249 261.338C47.6283 260.216 47.8216 259.157 48.0284 258.098C48.7124 254.577 49.4335 250.994 50.1327 247.523C52.2572 236.971 54.4557 226.06 55.9331 215.287C56.1332 213.761 56.429 212.25 56.8189 210.762C57.1719 209.54 57.595 208.34 58.0862 207.169C58.8829 205.161 59.6342 203.263 59.7233 201.158C59.8191 198.844 59.4813 196.543 59.1535 194.319C58.7266 191.419 58.2846 188.409 58.7669 185.252C59.1283 182.898 59.8023 180.87 60.4477 178.907C61.7268 175.057 62.8294 171.731 61.3268 167.01C61.2562 166.789 61.2024 166.563 61.1486 166.347C60.994 165.712 60.8595 165.163 60.4057 164.912C60.3477 164.884 60.2958 164.845 60.2534 164.796C60.211 164.747 60.1788 164.69 60.1589 164.628C60.139 164.566 60.1317 164.5 60.1376 164.436C60.1435 164.371 60.1623 164.308 60.193 164.25C60.2237 164.193 60.2655 164.143 60.316 164.103C60.3665 164.062 60.4246 164.033 60.4866 164.016C60.5487 163.999 60.6135 163.996 60.677 164.005C60.7406 164.015 60.8015 164.037 60.8562 164.072C61.6764 164.524 61.8831 165.37 62.0664 166.118C62.1168 166.328 62.1655 166.528 62.2344 166.717C63.8329 171.74 62.6277 175.371 61.352 179.216C60.7133 181.139 60.0527 183.128 59.7048 185.4C59.2426 188.414 59.6746 191.344 60.0914 194.179C60.4276 196.449 60.7637 198.794 60.6696 201.201C60.5755 203.471 59.7569 205.533 58.9653 207.528C58.4892 208.666 58.0784 209.831 57.7349 211.016C57.3538 212.465 57.0652 213.936 56.871 215.422C55.3902 226.232 53.1901 237.158 51.0605 247.726C50.363 251.188 49.6419 254.77 48.9578 258.287C48.7528 259.339 48.5612 260.397 48.3561 261.516C47.9325 263.846 47.4939 266.256 46.9358 268.635C46.9102 268.74 46.8504 268.833 46.7663 268.899C46.6821 268.965 46.5784 269.001 46.4719 269Z" fill="#2E5378"/>
<path d="M45.5177 197C45.4535 197 45.3899 196.988 45.3306 196.964C45.2713 196.939 45.2174 196.904 45.1722 196.859C41.0401 192.781 37.3588 188.277 33.0988 182.767C33.0209 182.666 32.987 182.538 33.0045 182.413C33.022 182.287 33.0895 182.174 33.1921 182.097C33.2947 182.021 33.4241 181.987 33.5517 182.004C33.6794 182.022 33.7948 182.088 33.8727 182.189C38.1068 187.669 41.7673 192.146 45.8597 196.184C45.9271 196.252 45.9728 196.337 45.9911 196.43C46.0094 196.522 45.9994 196.618 45.9625 196.705C45.9256 196.792 45.8634 196.867 45.7837 196.919C45.7039 196.972 45.6102 197 45.5142 197H45.5177Z" fill="#2E5378"/>
<path d="M37.7192 208C35.443 208 33.0272 207.619 30.3409 206.845C30.2797 206.828 30.2229 206.8 30.1738 206.764C30.1247 206.727 30.0842 206.682 30.0546 206.632C30.0251 206.581 30.0071 206.525 30.0017 206.469C29.9963 206.412 30.0036 206.354 30.0232 206.3C30.0428 206.245 30.0743 206.195 30.1159 206.152C30.1574 206.108 30.2082 206.073 30.2653 206.047C30.3224 206.021 30.3847 206.005 30.4485 206.001C30.5124 205.997 30.5765 206.004 30.6372 206.022C34.733 207.202 38.1551 207.437 41.4049 206.762C41.5301 206.736 41.6618 206.755 41.771 206.816C41.8803 206.876 41.958 206.973 41.9873 207.085C42.0165 207.197 41.9948 207.314 41.927 207.412C41.8591 207.509 41.7507 207.579 41.6254 207.605C40.3446 207.869 39.0339 208.002 37.7192 208Z" fill="#2E5378"/>
<path d="M181.508 303C181.444 303 181.381 302.987 181.322 302.962C181.263 302.938 181.21 302.902 181.165 302.858C181.12 302.813 181.085 302.76 181.061 302.702C181.037 302.644 181.025 302.581 181.025 302.519C181.056 299.235 180.762 295.846 180.478 292.569C180.231 289.722 179.976 286.787 179.935 283.92C179.859 278.648 179.589 273.3 179.326 268.122C179.232 266.251 179.133 264.328 179.047 262.43C178.528 251.206 177.751 240.522 176.66 229.779C175.511 218.457 174.537 207.381 175.234 196.356C175.738 188.377 177.527 179.861 180.701 170.323C180.743 170.204 180.83 170.106 180.945 170.05C181.059 169.994 181.191 169.985 181.313 170.024C181.434 170.063 181.535 170.147 181.594 170.259C181.652 170.371 181.664 170.5 181.626 170.62C178.477 180.082 176.704 188.519 176.205 196.414C175.513 207.369 176.482 218.402 177.628 229.684C178.72 240.443 179.502 251.14 180.018 262.387C180.106 264.282 180.203 266.21 180.298 268.074C180.56 273.261 180.831 278.617 180.907 283.906C180.949 286.731 181.202 289.657 181.447 292.487C181.733 295.788 182.029 299.199 181.998 302.52C181.998 302.584 181.985 302.646 181.961 302.705C181.936 302.763 181.9 302.816 181.855 302.861C181.809 302.905 181.755 302.94 181.696 302.964C181.636 302.988 181.572 303 181.508 303Z" fill="#2E5378"/>
<path d="M195.502 285C195.399 285.002 195.298 284.972 195.213 284.914C195.129 284.857 195.064 284.775 195.029 284.68C194.994 284.585 194.991 284.481 195.018 284.384C195.046 284.286 195.104 284.2 195.184 284.137C200.405 279.806 204.061 275.482 206.057 271.288C206.083 271.229 206.122 271.176 206.169 271.132C206.217 271.088 206.273 271.053 206.335 271.031C206.396 271.008 206.461 270.998 206.527 271C206.592 271.003 206.657 271.018 206.716 271.046C206.775 271.073 206.829 271.112 206.872 271.16C206.916 271.207 206.95 271.263 206.972 271.324C206.994 271.385 207.003 271.45 206.999 271.514C206.995 271.578 206.978 271.641 206.949 271.699C204.896 276.016 201.152 280.457 195.821 284.879C195.733 284.956 195.619 284.999 195.502 285Z" fill="#2E5378"/>
<path d="M93.5111 238C93.3945 238 93.2817 237.96 93.1934 237.886C93.1052 237.811 93.0474 237.709 93.0307 237.596C92.2792 232.627 90.7951 227.877 89.4441 223.885C88.9759 222.503 88.4074 221.081 87.8632 219.705C86.6849 216.741 85.4669 213.677 85.0073 210.555C84.9961 210.492 84.9978 210.428 85.0124 210.367C85.027 210.305 85.0542 210.247 85.0923 210.195C85.1305 210.144 85.1788 210.101 85.2345 210.068C85.2901 210.035 85.352 210.014 85.4163 210.005C85.4807 209.996 85.5463 209.999 85.6092 210.016C85.672 210.032 85.731 210.06 85.7824 210.099C85.8339 210.137 85.8768 210.186 85.9087 210.241C85.9405 210.296 85.9607 210.357 85.9679 210.42C86.412 213.434 87.6092 216.449 88.7685 219.364C89.3197 220.75 89.8898 222.185 90.3666 223.589C91.7315 227.626 93.2294 232.419 93.9948 237.458C94.0041 237.52 94.0009 237.582 93.9854 237.643C93.9698 237.703 93.9422 237.759 93.9042 237.809C93.8662 237.859 93.8185 237.901 93.7638 237.933C93.709 237.965 93.6484 237.986 93.5853 237.995L93.5111 238Z" fill="#2E5378"/>
<path d="M183.48 167C183.418 167 183.357 166.988 183.299 166.963C183.241 166.939 183.187 166.903 183.142 166.858C183.098 166.812 183.062 166.758 183.037 166.698C183.013 166.639 183 166.575 183 166.51C183 166.446 183.012 166.382 183.036 166.322C183.815 164.37 184.915 162.587 185.992 160.866C186.716 159.698 187.466 158.493 188.092 157.266C188.121 157.208 188.161 157.157 188.209 157.116C188.257 157.074 188.313 157.043 188.373 157.023C188.434 157.004 188.497 156.996 188.56 157.002C188.623 157.007 188.684 157.025 188.74 157.055C188.796 157.085 188.846 157.126 188.887 157.175C188.928 157.224 188.958 157.282 188.977 157.343C188.997 157.405 189.004 157.47 188.998 157.534C188.993 157.598 188.975 157.661 188.946 157.718C188.302 158.984 187.542 160.209 186.807 161.388C185.758 163.075 184.675 164.819 183.928 166.691C183.892 166.782 183.83 166.86 183.75 166.916C183.671 166.971 183.577 167 183.48 167Z" fill="#2E5378"/>
<path d="M29.7787 68.1651C29.589 67.6069 29.5225 67.0134 29.583 66.4204C29.642 65.8581 29.8248 65.3088 30.1193 64.808C30.4264 64.2922 30.8379 63.836 31.3291 63.4665C31.8868 63.0478 32.5167 62.7263 33.1877 62.5177C33.8581 62.2915 34.5611 62.1799 35.263 62.1883C35.8821 62.1947 36.488 62.3205 37.0436 62.5582C37.5755 62.7907 38.0455 63.1279 38.4235 63.5479C38.8197 63.9927 39.1138 64.5121 39.2884 65.0752C39.4768 65.629 39.5419 66.2181 39.4797 66.8064C39.4153 67.3641 39.2313 67.9082 38.939 68.4052C38.6282 68.924 38.2116 69.382 37.7147 69.7514C37.1511 70.1704 36.5167 70.4934 35.8416 70.7049C35.176 70.9301 34.4777 71.0401 33.7807 71.0296C33.1665 71.0189 32.5659 70.8916 32.0147 70.6551C31.4862 70.4252 31.018 70.0928 30.6392 69.6788C30.2433 69.2395 29.9505 68.7243 29.7787 68.1651ZM35.585 57.8417L28.5169 60.1383L20.209 37.9321L29.2849 34.9832L35.585 57.8417Z" fill="white"/>
<path d="M40.334 49.6238C40.1921 49.205 40.1365 48.7618 40.1705 48.3207C40.2039 47.9025 40.3246 47.4959 40.5248 47.127C40.7337 46.7471 41.017 46.4132 41.3578 46.1451C41.7446 45.8413 42.1839 45.6109 42.6537 45.4653C43.1229 45.3066 43.6167 45.2337 44.1115 45.2503C44.5479 45.2642 44.9767 45.3669 45.3718 45.5521C45.7501 45.7333 46.0863 45.9914 46.3588 46.31C46.6446 46.6473 46.8595 47.0387 46.9908 47.4609C47.1317 47.8764 47.1862 48.3163 47.151 48.7538C47.1138 49.1685 46.9921 49.5713 46.7933 49.9374C46.5819 50.3194 46.2951 50.6546 45.9503 50.9227C45.5592 51.2266 45.1168 51.458 44.6442 51.6057C44.1784 51.7637 43.6878 51.8355 43.1965 51.8174C42.7635 51.8004 42.3383 51.6966 41.9464 51.5123C41.5705 51.3332 41.2357 51.0787 40.9627 50.7646C40.6772 50.4314 40.4633 50.0431 40.334 49.6238ZM44.2747 42.0158L39.327 43.6234L33.1463 26.9525L39.4994 24.8882L44.2747 42.0158Z" fill="white"/>
</g>
<defs>
<clipPath id="clip0_2358_2000">
<rect width="207" height="304" fill="white"/>
</clipPath>
</defs>
</svg>
