<svg width="50" height="50" viewBox="0 0 50 50" fill="none" xmlns="http://www.w3.org/2000/svg">
<path d="M50 21.0346C49.9995 20.7907 49.8702 20.5655 49.6608 20.4441L46.226 18.4534L49.6622 16.452C49.8716 16.3299 50.0005 16.1044 50 15.8605C49.9995 15.6166 49.8702 15.3916 49.6608 15.2702C43.8055 11.8782 37.9505 8.48491 32.0959 5.09071C31.8869 4.9695 31.6305 4.9698 31.4216 5.0914L0.338283 23.2006C0.128908 23.3224 1.38225e-06 23.5479 0.000489664 23.7916C0.000977945 24.0355 0.129787 24.2606 0.33965 24.3822C1.48438 25.046 2.6294 25.709 3.77422 26.3727L0.337794 28.3745C0.128419 28.4963 -0.000486899 28.7218 1.38226e-06 28.9655C0.000489664 29.2094 0.129787 29.4347 0.339162 29.5561L3.77393 31.5467L0.337794 33.5482C0.128419 33.6703 -0.000486899 33.8957 1.38226e-06 34.1394C0.000489664 34.3833 0.129787 34.6086 0.339162 34.73L17.9041 44.9094C18.0084 44.9698 18.1245 45 18.2406 45C18.3572 45 18.4737 44.9695 18.5784 44.9086L49.6621 26.7996C49.8715 26.6778 50.0004 26.4522 49.9999 26.2083C49.9994 25.9646 49.8701 25.7393 49.6607 25.6179L46.226 23.6275L49.6621 21.6257C49.8716 21.5038 50.0005 21.2783 50 21.0346ZM31.7603 6.46873C37.163 9.60101 42.5662 12.7324 47.9698 15.8629L36.2704 22.6771C35.8982 22.4645 35.2154 22.0705 34.3275 21.5568L40.9786 17.6842C41.1383 17.5909 41.2535 17.436 41.2971 17.2551C41.341 17.0745 41.3094 16.8833 41.21 16.7264C41.067 16.5005 40.8571 16.051 41.0604 15.5803C41.1976 15.2618 41.0753 14.89 40.7771 14.7171L33.5865 10.547C33.4123 10.4462 33.2025 10.4285 33.0138 10.4995C32.09 10.8476 30.8293 10.7925 29.803 10.3599C29.6095 10.2787 29.3873 10.292 29.2048 10.3987L22.1665 14.4998C21.9074 14.3492 21.6587 14.2047 21.4292 14.0714L20.0666 13.2799L31.7603 6.46873ZM39.7633 16.8173L32.9717 20.7718C30.2042 19.1684 26.392 16.9545 23.5202 15.2862L29.6021 11.7419C30.7656 12.1523 32.0813 12.2038 33.175 11.8813L39.6511 15.637C39.5938 16.0251 39.6321 16.4269 39.7633 16.8173ZM13.7167 16.9788C14.3694 17.3572 15.0223 17.7352 15.6751 18.1136L9.03535 21.9841C8.87569 22.0771 8.76045 22.232 8.7169 22.4128C8.67295 22.5938 8.70459 22.7846 8.80401 22.9415C8.94697 23.1675 9.15684 23.6169 8.95401 24.0872C8.8168 24.4057 8.93906 24.7775 9.23731 24.9503L16.4256 29.1139C16.5993 29.2149 16.8101 29.2325 16.9983 29.1614C17.9212 28.8137 19.1819 28.8683 20.2096 29.3004C20.2927 29.3357 20.3812 29.353 20.4695 29.353C20.5865 29.353 20.7035 29.3224 20.8073 29.2616L21.9149 28.6161C23.8908 27.4646 25.8664 26.3134 27.8426 25.1632L29.9283 26.3713L18.2396 33.1834C12.8359 30.0532 7.43184 26.9219 2.02949 23.7894L13.7167 16.9788ZM10.2508 22.8504L17.0298 18.8986C19.8891 20.5556 22.7484 22.2126 25.6079 23.8689L26.4875 24.3784C24.7378 25.3969 22.9885 26.4159 21.2394 27.4353L20.4102 27.9186C19.2458 27.5083 17.931 27.4578 16.8369 27.7799L10.3635 24.0303C10.4202 23.6425 10.3819 23.2407 10.2508 22.8504ZM5.12891 27.1578C9.38711 29.6262 13.6452 32.0945 17.9041 34.5614C18.0084 34.6218 18.1245 34.6519 18.2406 34.6519C18.3572 34.6519 18.4742 34.6215 18.5784 34.5605L30.6087 27.5494L30.6173 31.1467L18.2397 38.3574L2.02969 28.9633L5.12891 27.1578ZM18.2397 43.5314L2.02969 34.1372L5.1292 32.332L17.9041 39.7356C18.0084 39.796 18.1245 39.8261 18.2406 39.8261C18.3572 39.8261 18.4737 39.7957 18.5784 39.7347L30.6211 32.7188L30.6298 36.3135L18.2397 43.5314ZM31.9793 35.5273L31.9573 26.3675C31.9569 26.1238 31.8275 25.8989 31.6182 25.7778C31.6182 25.7778 18.8059 18.3566 15.0694 16.1905L18.7144 14.0677C18.7144 14.0677 34.4771 23.2255 35.6022 23.8448L35.6212 33.4052L31.9793 35.5273ZM47.9703 26.2108L36.971 32.6191L36.9639 29.0236L44.8729 24.4159L47.9703 26.2108ZM36.9606 27.4509L36.9535 23.854L44.8726 19.2415L47.9703 21.0368L36.9606 27.4509ZM16.2747 25.1093C16.0882 24.7832 16.1986 24.3661 16.522 24.178L19.482 22.4533C19.8045 22.2647 20.2185 22.3763 20.4049 22.7028C20.5914 23.0289 20.481 23.446 20.1576 23.6341L17.1976 25.3588C17.0911 25.4209 16.975 25.4502 16.8602 25.4502C16.6271 25.4501 16.3996 25.3281 16.2747 25.1093ZM34.1154 14.7143C34.302 15.0404 34.1915 15.4574 33.8682 15.6455L31.2648 17.1623C31.1584 17.2245 31.0423 17.2537 30.9274 17.2537C30.6943 17.2537 30.4669 17.1316 30.342 16.9129C30.1555 16.5868 30.2659 16.1698 30.5893 15.9816L33.1926 14.4649C33.5154 14.2765 33.9289 14.3876 34.1154 14.7143Z" fill="#6667AB"/>
</svg>
