<svg width="70" height="70" viewBox="0 0 70 70" fill="none" xmlns="http://www.w3.org/2000/svg">
<path d="M47.4462 61.4076V66.8891H3.89062V9.3335H9.33507L47.4462 61.4076Z" fill="#D0D1F7"/>
<path d="M52.8915 13.4818V59.0969L42.8873 61.4447H9.33594C9.33594 58.566 9.33594 6.24675 9.33594 3.88916H43.3637L46.6803 10.7477L52.8915 13.4818Z" fill="white"/>
<path d="M66.1128 26.1626V57.0598C66.1128 59.0525 64.4986 60.6668 62.5059 60.6668C60.3669 60.6668 45.1629 60.6668 42.4976 60.6668C40.5063 60.6668 38.8906 59.0525 38.8906 57.0598V26.1626C38.8906 24.1713 40.5063 22.5557 42.4976 22.5557H62.5059C64.4986 22.5557 66.1128 24.1713 66.1128 26.1626Z" fill="white"/>
<path d="M60.671 55.2224H55.2266C55.2266 53.905 55.2266 45.6595 55.2266 44.3335H60.671V55.2224Z" fill="#D0D1F7"/>
<path d="M55.2266 38.8892H60.671V44.3336H55.2266V38.8892Z" fill="white"/>
<path d="M44.3359 28.0002H60.6693V33.4447H44.3359V28.0002Z" fill="#D0D1F7"/>
<path d="M49.7812 49.7781H55.2257V55.2225H49.7812V49.7781Z" fill="white"/>
<path d="M49.7812 44.3335H55.2257V49.7779H49.7812V44.3335Z" fill="white"/>
<path d="M49.7812 38.8892H55.2257V44.3336H49.7812V38.8892Z" fill="white"/>
<path d="M52.8919 13.2225H43.5586V3.88916L52.8919 13.2225Z" fill="#D0D1F7"/>
<path d="M44.3359 49.7778H49.7804V55.2223H44.3359V49.7778Z" fill="white"/>
<path d="M44.3359 44.3335H49.7804V49.7779H44.3359V44.3335Z" fill="white"/>
<path d="M44.3359 38.8892H49.7804V44.3336H44.3359V38.8892Z" fill="white"/>
<path d="M24.5035 9.3335C29.8729 9.3335 34.2257 13.6863 34.2257 19.0557C34.2257 24.4252 29.8729 28.7779 24.5035 28.7779C19.134 28.7779 14.7812 24.4252 14.7812 19.0557H24.5035V9.3335Z" fill="#D0D1F7"/>
<path d="M24.1146 9.3335V18.6668H14.7812C14.7812 13.5122 18.9599 9.3335 24.1146 9.3335Z" fill="white"/>
<path d="M42.9871 62.2224H9.1538C8.39574 62.2224 7.78125 61.6129 7.78125 60.8613V3.69461C7.78125 2.94287 8.39574 2.3335 9.1538 2.3335H43.4675C43.8315 2.3335 44.1807 2.47696 44.4381 2.73217L54.0459 12.2599C54.3033 12.5152 54.4479 12.8614 54.4479 13.2224V22.7502C54.4479 23.5019 53.8334 24.1113 53.0754 24.1113C52.3173 24.1113 51.7028 23.5019 51.7028 22.7502V13.7862L42.899 5.05572H10.5263V59.5002H42.9871C43.7452 59.5002 44.3597 60.1097 44.3597 60.8613C44.3597 61.6129 43.7452 62.2224 42.9871 62.2224Z" fill="#6667AB"/>
<path d="M47.6301 67.6667H3.70849C2.95043 67.6667 2.33594 67.0572 2.33594 66.3056V9.13894C2.33594 8.3872 2.95043 7.77783 3.70849 7.77783H9.19868C9.95674 7.77783 10.5712 8.3872 10.5712 9.13894C10.5712 9.89068 9.95674 10.5001 9.19868 10.5001H5.08104V64.9445H46.2575V60.8612C46.2575 60.1096 46.872 59.5001 47.6301 59.5001C48.3881 59.5001 49.0026 60.1096 49.0026 60.8612V66.3056C49.0026 67.0572 48.3881 67.6667 47.6301 67.6667Z" fill="#6667AB"/>
<path d="M53.0617 14.7779H43.3827C42.619 14.7779 42 14.1589 42 13.3952V3.71621C42 2.95254 42.619 2.3335 43.3827 2.3335C44.1464 2.3335 44.7654 2.95254 44.7654 3.71621V12.0125H53.0617C53.8254 12.0125 54.4444 12.6315 54.4444 13.3952C54.4444 14.1589 53.8254 14.7779 53.0617 14.7779Z" fill="#6667AB"/>
<path d="M63.414 63.0001H43.1459C40.3709 63.0001 38.1133 60.7501 38.1133 57.9847V26.7932C38.1133 24.0277 40.3709 21.7778 43.1459 21.7778H63.414C66.189 21.7778 68.4466 24.0277 68.4466 26.7932V57.9847C68.4466 60.7501 66.189 63.0001 63.414 63.0001ZM43.1459 24.526C41.8914 24.526 40.8709 25.5431 40.8709 26.7932V57.9847C40.8709 59.2348 41.8914 60.2519 43.1459 60.2519H63.414C64.6685 60.2519 65.689 59.2348 65.689 57.9847V26.7932C65.689 25.5431 64.6685 24.526 63.414 24.526H43.1459Z" fill="#6667AB"/>
<path d="M50.6882 57.5556H44.9845C44.197 57.5556 43.5586 56.917 43.5586 56.1296V50.4259C43.5586 49.6385 44.197 49 44.9845 49C45.7721 49 46.4104 49.6385 46.4104 50.4259V54.7037H50.6882C51.4758 54.7037 52.1141 55.3422 52.1141 56.1296C52.1141 56.917 51.4758 57.5556 50.6882 57.5556Z" fill="#6667AB"/>
<path d="M56.1296 57.5556H50.4259C49.6384 57.5556 49 56.917 49 56.1296V50.4259C49 49.6385 49.6384 49 50.4259 49C51.2135 49 51.8519 49.6385 51.8519 50.4259V54.7037H56.1296C56.9172 54.7037 57.5556 55.3422 57.5556 56.1296C57.5556 56.917 56.9172 57.5556 56.1296 57.5556Z" fill="#6667AB"/>
<path d="M50.6882 52.1112H44.9845C44.197 52.1112 43.5586 51.4727 43.5586 50.6853V44.9816C43.5586 44.1942 44.197 43.5557 44.9845 43.5557C45.7721 43.5557 46.4104 44.1942 46.4104 44.9816V49.2594H50.6882C51.4758 49.2594 52.1141 49.8979 52.1141 50.6853C52.1141 51.4727 51.4758 52.1112 50.6882 52.1112Z" fill="#6667AB"/>
<path d="M56.1296 52.1112H50.4259C49.6384 52.1112 49 51.4727 49 50.6853V44.9816C49 44.1942 49.6384 43.5557 50.4259 43.5557C51.2135 43.5557 51.8519 44.1942 51.8519 44.9816V49.2594H56.1296C56.9172 49.2594 57.5556 49.8979 57.5556 50.6853C57.5556 51.4727 56.9172 52.1112 56.1296 52.1112Z" fill="#6667AB"/>
<path d="M61.5749 57.5557H55.8712C55.0837 57.5557 54.4453 56.9287 54.4453 56.1557V44.9557C54.4453 44.1826 55.0837 43.5557 55.8712 43.5557C56.6588 43.5557 57.2972 44.1826 57.2972 44.9557V54.7557H60.149V44.9557C60.149 44.1826 60.7874 43.5557 61.5749 43.5557C62.3625 43.5557 63.0009 44.1826 63.0009 44.9557V56.1557C63.0009 56.9287 62.3625 57.5557 61.5749 57.5557Z" fill="#6667AB"/>
<path d="M50.6882 46.6669H44.9845C44.197 46.6669 43.5586 46.0284 43.5586 45.241V39.5373C43.5586 38.7499 44.197 38.1113 44.9845 38.1113H50.6882C51.4758 38.1113 52.1141 38.7499 52.1141 39.5373C52.1141 40.3247 51.4758 40.9632 50.6882 40.9632H46.4104V43.815H50.6882C51.4758 43.815 52.1141 44.4536 52.1141 45.241C52.1141 46.0284 51.4758 46.6669 50.6882 46.6669Z" fill="#6667AB"/>
<path d="M56.1296 46.6669H50.4259C49.6384 46.6669 49 46.0284 49 45.241V39.5373C49 38.7499 49.6384 38.1113 50.4259 38.1113H56.1296C56.9172 38.1113 57.5556 38.7499 57.5556 39.5373C57.5556 40.3247 56.9172 40.9632 56.1296 40.9632H51.8519V43.815H56.1296C56.9172 43.815 57.5556 44.4536 57.5556 45.241C57.5556 46.0284 56.9172 46.6669 56.1296 46.6669Z" fill="#6667AB"/>
<path d="M61.5749 46.6669H55.8712C55.0837 46.6669 54.4453 46.0284 54.4453 45.241V39.5373C54.4453 38.7499 55.0837 38.1113 55.8712 38.1113H61.5749C62.3625 38.1113 63.0009 38.7499 63.0009 39.5373V45.241C63.0009 46.0284 62.3625 46.6669 61.5749 46.6669ZM57.2972 43.815H60.149V40.9632H57.2972V43.815Z" fill="#6667AB"/>
<path d="M61.6142 35.778H44.9475C44.1804 35.778 43.5586 35.1396 43.5586 34.352V28.6483C43.5586 27.8608 44.1804 27.2224 44.9475 27.2224H61.6142C62.3812 27.2224 63.003 27.8608 63.003 28.6483V34.352C63.003 35.1396 62.3812 35.778 61.6142 35.778ZM46.3364 32.9261H60.2253V30.0743H46.3364V32.9261Z" fill="#6667AB"/>
<path d="M24.1155 29.5556C18.1113 29.5556 13.2266 24.6709 13.2266 18.6667C13.2266 12.6626 18.1113 7.77783 24.1155 7.77783C30.1196 7.77783 35.0043 12.6626 35.0043 18.6667C35.0043 24.6709 30.1196 29.5556 24.1155 29.5556ZM24.1155 10.5001C19.6124 10.5001 15.9488 14.1636 15.9488 18.6667C15.9488 23.1698 19.6124 26.8334 24.1155 26.8334C28.6186 26.8334 32.2821 23.1698 32.2821 18.6667C32.2821 14.1636 28.6186 10.5001 24.1155 10.5001Z" fill="#6667AB"/>
<path d="M24.2883 20.2223H14.6093C13.8456 20.2223 13.2266 19.6032 13.2266 18.8396C13.2266 18.0759 13.8456 17.4568 14.6093 17.4568H22.9056V9.16055C22.9056 8.39687 23.5246 7.77783 24.2883 7.77783C25.052 7.77783 25.671 8.39687 25.671 9.16055V18.8396C25.671 19.6032 25.052 20.2223 24.2883 20.2223Z" fill="#6667AB"/>
<path d="M15.8192 35.7781H14.5229C13.8069 35.7781 13.2266 35.0817 13.2266 34.2225C13.2266 33.3634 13.8069 32.667 14.5229 32.667H15.8192C16.5351 32.667 17.1155 33.3634 17.1155 34.2225C17.1155 35.0817 16.5351 35.7781 15.8192 35.7781Z" fill="#6667AB"/>
<path d="M33.6609 35.7781H21.57C20.828 35.7781 20.2266 35.0817 20.2266 34.2225C20.2266 33.3634 20.828 32.667 21.57 32.667H33.6609C34.4029 32.667 35.0043 33.3634 35.0043 34.2225C35.0043 35.0817 34.4029 35.7781 33.6609 35.7781Z" fill="#6667AB"/>
<path d="M15.8192 41.2224H14.5229C13.8069 41.2224 13.2266 40.5259 13.2266 39.6669C13.2266 38.8079 13.8069 38.1113 14.5229 38.1113H15.8192C16.5351 38.1113 17.1155 38.8079 17.1155 39.6669C17.1155 40.5259 16.5351 41.2224 15.8192 41.2224Z" fill="#6667AB"/>
<path d="M33.6609 41.2224H21.57C20.828 41.2224 20.2266 40.5259 20.2266 39.6669C20.2266 38.8079 20.828 38.1113 21.57 38.1113H33.6609C34.4029 38.1113 35.0043 38.8079 35.0043 39.6669C35.0043 40.5259 34.4029 41.2224 33.6609 41.2224Z" fill="#6667AB"/>
<path d="M15.8192 46.6668H14.5229C13.8069 46.6668 13.2266 45.9702 13.2266 45.1112C13.2266 44.2522 13.8069 43.5557 14.5229 43.5557H15.8192C16.5351 43.5557 17.1155 44.2522 17.1155 45.1112C17.1155 45.9702 16.5351 46.6668 15.8192 46.6668Z" fill="#6667AB"/>
<path d="M33.6609 46.6668H21.57C20.828 46.6668 20.2266 45.9702 20.2266 45.1112C20.2266 44.2522 20.828 43.5557 21.57 43.5557H33.6609C34.4029 43.5557 35.0043 44.2522 35.0043 45.1112C35.0043 45.9702 34.4029 46.6668 33.6609 46.6668Z" fill="#6667AB"/>
<path d="M15.8192 52.1111H14.5229C13.8069 52.1111 13.2266 51.4145 13.2266 50.5556C13.2266 49.6966 13.8069 49 14.5229 49H15.8192C16.5351 49 17.1155 49.6966 17.1155 50.5556C17.1155 51.4145 16.5351 52.1111 15.8192 52.1111Z" fill="#6667AB"/>
<path d="M33.6609 52.1111H21.57C20.828 52.1111 20.2266 51.4145 20.2266 50.5556C20.2266 49.6966 20.828 49 21.57 49H33.6609C34.4029 49 35.0043 49.6966 35.0043 50.5556C35.0043 51.4145 34.4029 52.1111 33.6609 52.1111Z" fill="#6667AB"/>
</svg>
