<svg width="50" height="50" viewBox="0 0 50 50" fill="none" xmlns="http://www.w3.org/2000/svg">
<path d="M44.7707 15.9188C46.1228 16.0984 47.3058 16.3677 48.5734 15.6495C48.7424 15.5597 48.8269 15.7393 48.6579 15.829C47.3903 16.8166 45.9538 17.2655 44.5172 16.4575C44.1792 16.2779 44.5172 15.829 44.7707 15.9188Z" fill="#6667AB"/>
<path d="M39.0966 11.9079C39.7204 12.155 40.1882 12.6491 40.734 13.0609C41.3578 13.5551 41.9037 14.0492 42.4495 14.6257C42.6055 14.7904 42.3715 15.1198 42.1376 14.9551C41.6697 14.461 41.1239 14.1315 40.5781 13.7198C40.0323 13.308 39.3305 12.9786 38.8626 12.4844C38.6287 12.2374 38.7847 11.7432 39.0966 11.9079Z" fill="#6667AB"/>
<path d="M32.8509 5.63862C34.3399 6.25189 35.7461 7.74127 36.8214 8.96782C36.9869 9.23065 36.7387 9.49349 36.4906 9.31827C35.8288 8.70499 35.0843 8.09172 34.3399 7.56605C33.7608 7.128 33.0991 6.77756 32.6028 6.25189C32.3546 5.90145 32.6028 5.55101 32.8509 5.63862Z" fill="#6667AB"/>
<path d="M25.3257 2.50702C26.8893 2.43391 28.4528 2.94572 29.8427 3.38442C30.1032 3.45754 30.0164 3.75 29.7558 3.75C28.2791 3.38442 26.8024 3.23819 25.3257 3.16507C24.8914 3.09195 24.8914 2.50702 25.3257 2.50702Z" fill="#6667AB"/>
<path d="M19.7918 5.24424C20.1878 4.75451 20.7421 4.26478 21.2172 3.85667C21.6131 3.53018 22.0883 4.01991 21.7715 4.42802C21.3754 4.83613 20.9796 5.32587 20.5837 5.8156C20.1876 6.30533 19.7918 7.03993 19.2375 7.44804C19 7.61128 18.6832 7.36642 18.7624 7.03993C18.7624 6.38695 19.3167 5.73398 19.7918 5.24424Z" fill="#6667AB"/>
<path d="M18.1478 9.63503C18.1478 9.28832 18.83 9.28832 18.83 9.63503C18.9275 10.5018 19.1225 11.2819 19.3176 12.1487C19.5126 12.9288 20 13.7088 20 14.5756C20 15.009 19.3176 15.1823 19.1225 14.749C18.2451 13.2755 18.0503 11.1952 18.1478 9.63503Z" fill="#6667AB"/>
<path d="M21.9221 18.2898C22.3765 18.9121 22.8305 19.5343 23.2849 20.1566C23.6481 20.7789 24.284 21.4012 24.375 22.1123C24.375 22.4679 24.0116 22.5568 23.7391 22.4679C23.1032 22.2012 22.8307 21.4012 22.5582 20.8678C22.104 20.1566 21.7406 19.3565 21.2864 18.6454C21.1045 18.2009 21.6496 17.9342 21.9221 18.2898Z" fill="#6667AB"/>
<path d="M25.9262 24.4283C26.6668 25.0618 27.2429 25.6953 27.7367 26.408C28.2304 27.1207 28.8888 28.1501 28.7242 29.0212C28.6419 29.4171 28.2304 29.4963 27.9836 29.1795C27.5721 28.6252 27.4898 27.8334 27.2429 27.1999C26.9137 26.2496 26.3376 25.3785 25.6793 24.5867C25.5147 24.5075 25.7616 24.2699 25.9262 24.4283Z" fill="#6667AB"/>
<path d="M31.0072 32.5877C31.7474 33.2378 32.3232 33.9692 32.8166 34.8631C33.3101 35.757 33.8858 36.8948 33.7213 37.87C33.6391 38.195 33.1456 38.195 33.0634 37.9512C32.5699 37.2197 32.5699 36.2445 32.2409 35.4319C31.9119 34.5381 31.3362 33.6441 30.6783 32.8315C30.5138 32.6689 30.7605 32.3439 31.0072 32.5877Z" fill="#6667AB"/>
<path d="M31.4171 45.5089C31.9535 45.1806 32.4133 44.9342 32.7965 44.4415C33.1796 43.7845 33.3329 42.799 33.3329 42.0599C33.3329 41.8134 33.716 41.8134 33.716 42.0599C33.8693 43.6202 33.5628 46.3302 31.5703 46.2482C31.2638 46.1661 31.1106 45.6733 31.4171 45.5089Z" fill="#6667AB"/>
<path d="M21.735 48.3758C22.6926 48.3041 23.6504 48.4475 24.608 48.4475C25.8271 48.3758 26.959 48.0886 27.9167 47.5144C28.0908 47.4427 28.1779 47.6581 28.0908 47.7297C26.2624 48.8782 23.7374 49.883 21.4736 49.0935C21.0384 48.8782 21.2996 48.3758 21.735 48.3758Z" fill="#6667AB"/>
<path d="M14.491 42.537C15.1153 42.8642 15.6505 43.3551 16.364 43.7642C16.9883 44.0914 17.702 44.255 18.4154 44.3369C18.8615 44.4187 18.8615 44.9914 18.4154 44.9914C16.81 45.0732 14.7585 44.5823 13.8666 43.1915C13.5097 42.7824 14.045 42.3732 14.491 42.537Z" fill="#6667AB"/>
<path d="M11.3046 37.6263C12.3913 38.7569 13.5614 39.9744 14.3138 41.3659C14.5646 41.8009 13.9795 42.0616 13.7287 41.7138C12.8092 40.4962 11.3046 39.6266 10.6358 38.1481C10.5523 37.7134 10.9703 37.2786 11.3046 37.6263Z" fill="#6667AB"/>
<path d="M5.03858 37.5828C5.29308 37.1124 5.97174 36.7987 6.48073 36.5635C7.07456 36.3283 7.75322 36.25 8.43188 36.25C8.85604 36.25 8.85604 36.7987 8.43188 36.7987C7.83805 36.7987 7.32906 36.9557 6.82006 37.1909C6.39576 37.4261 6.05643 37.8182 5.63241 38.0533C5.29308 38.2884 4.86905 37.8965 5.03858 37.5828Z" fill="#6667AB"/>
<path d="M0.083354 40.7003C1.22719 38.8297 1.96252 36.7151 2.94296 34.7631C3.43317 33.8685 4.74042 34.6818 4.3319 35.5764C3.59658 37.2029 2.94296 38.911 1.96252 40.4563C2.69785 40.5376 3.43317 40.6189 4.2502 40.7003C4.57701 40.7816 5.14894 40.7816 5.39404 41.1071L5.47561 41.1883C5.47561 41.1883 5.55732 41.1883 5.55732 41.2696C5.72072 41.4323 5.55732 41.7576 5.39391 41.7576C5.31221 41.8389 5.23037 41.8389 5.0671 41.8389C4.65845 41.9201 4.25007 41.8389 3.75985 41.8389C2.69771 41.7576 1.71728 41.6761 0.655143 41.7576C0.16506 41.8389 -0.161755 41.1883 0.083354 40.7003Z" fill="#6667AB"/>
</svg>
