<svg width="40" height="40" viewBox="0 0 40 40" fill="none" xmlns="http://www.w3.org/2000/svg">
<path d="M29.5 13C31.8463 13 33.9711 13.9535 35.5104 15.4895C37.0496 17.0285 38 19.1532 38 21.5015C38 23.8471 37.0496 25.9718 35.5104 27.5108C33.9711 29.0468 31.8463 30 29.5 30C27.1516 30 25.0265 29.0465 23.4902 27.5108C21.951 25.9718 21 23.8471 21 21.5015C21 19.1532 21.951 17.0285 23.4902 15.4895C25.0265 13.9535 27.1516 13 29.5 13ZM34.6518 16.348C33.333 15.0294 31.5116 14.2141 29.5 14.2141C27.4884 14.2141 25.667 15.0297 24.3485 16.348C23.0298 17.6662 22.2143 19.4876 22.2143 21.5018C22.2143 23.513 23.0301 25.3338 24.3485 26.6524C25.667 27.9709 27.4884 28.7862 29.5 28.7862C31.5116 28.7862 33.333 27.9706 34.6518 26.6524C35.9702 25.3338 36.7857 23.513 36.7857 21.5018C36.7857 19.4873 35.9702 17.6659 34.6518 16.348Z" fill="#6667AB"/>
<path d="M21.4914 6.25707C21.1459 6.25707 20.8644 5.97479 20.8644 5.62869C20.8644 5.27977 21.1459 5.00031 21.4914 5.00031H27.6383C28.2842 5.00031 28.8761 5.26688 29.3034 5.69534H29.3068V5.69848C29.7338 6.12693 30 6.71728 30 7.36797V10.3162C30 10.6623 29.7185 10.9446 29.373 10.9446C29.0253 10.9446 28.7466 10.6623 28.7466 10.3162V7.36766C28.7466 7.05991 28.6228 6.78392 28.4237 6.58368L28.4202 6.58054C28.2208 6.38061 27.9428 6.25676 27.6387 6.25676H21.4914V6.25707ZM28.7463 32.069C28.7463 31.7226 29.0247 31.4403 29.3727 31.4403C29.7182 31.4403 29.9994 31.7226 29.9994 32.069V37.6323C29.9994 38.2827 29.7335 38.8765 29.3062 39.305C28.8792 39.7366 28.287 40 27.638 40H4.36134C3.71238 40 3.12048 39.7366 2.69317 39.305C2.26617 38.8765 2 38.2862 2 37.6323V7.36766C2 6.71382 2.26617 6.12347 2.69317 5.69502C3.12016 5.26657 3.71238 5 4.36134 5H10.508C10.856 5 11.1347 5.27945 11.1347 5.62838C11.1347 5.97447 10.856 6.25676 10.508 6.25676H4.36134C4.05724 6.25676 3.78198 6.38061 3.57945 6.58368C3.37975 6.7836 3.25685 7.06306 3.25685 7.36766V37.6317C3.25685 37.9366 3.38006 38.2158 3.57945 38.4157C3.78198 38.6188 4.05724 38.7426 4.36134 38.7426H27.638C27.9421 38.7426 28.2174 38.6188 28.4199 38.4157V38.4188C28.6196 38.2158 28.746 37.9401 28.746 37.6317L28.7463 32.069Z" fill="#6667AB"/>
<path d="M24.0593 8.25259C23.7156 8.25259 23.4401 7.97195 23.4401 7.62473C23.4401 7.28065 23.7156 7 24.0593 7H26.3809C26.7217 7 27 7.28065 27 7.62473V10.168C27 10.5121 26.7217 10.7928 26.3809 10.7928C26.0366 10.7928 25.7611 10.5121 25.7611 10.168V8.2529H24.0593V8.25259ZM25.7611 31.4315C25.7611 31.0871 26.0366 30.8064 26.3809 30.8064C26.7217 30.8064 27 31.0871 27 31.4315V36.3756C27 36.7194 26.7217 37 26.3809 37H5.62285C5.27858 37 5 36.7194 5 36.3756V7.62473C5 7.28065 5.27827 7 5.62285 7H7.64356C7.98504 7 8.26331 7.28065 8.26331 7.62473C8.26331 7.97163 7.98504 8.25259 7.64356 8.25259H6.2423V35.7505H25.7614L25.7611 31.4315Z" fill="#6667AB"/>
<path d="M11.8437 3.50207H13.5974V2.46845C13.5974 1.78926 13.8676 1.17041 14.3023 0.724044L14.3054 0.727203C14.7401 0.27736 15.3421 0 16 0C16.661 0 17.2633 0.27736 17.698 0.724044C18.1324 1.17073 18.4023 1.78926 18.4023 2.46845V3.50176H20.1563C20.6623 3.50176 21.122 3.7153 21.4568 4.05648L21.4598 4.05964C21.7919 4.40397 22 4.87624 22 5.39589V7.73703C22 8.08136 21.8635 8.39726 21.6369 8.62692L21.64 8.63008C21.4165 8.85658 21.109 9 20.7712 9H11.2291C10.894 9 10.5866 8.85974 10.3634 8.63008H10.3603C10.1399 8.40042 10 8.08452 10 7.73703V5.39589C10 4.87276 10.2081 4.40081 10.5402 4.05648C10.8756 3.71594 11.338 3.50207 11.8437 3.50207ZM13.5974 4.76504H11.8437C11.6762 4.76504 11.524 4.83517 11.4124 4.94984C11.3008 5.06483 11.2291 5.22404 11.2291 5.39653V7.73766H20.7709V5.39653C20.7709 5.22436 20.7026 5.06483 20.591 4.94984C20.4791 4.83485 20.3238 4.76504 20.1563 4.76504H18.4023C18.0642 4.76504 17.7567 4.62478 17.5335 4.39512V4.39196C17.31 4.1623 17.1732 3.84988 17.1732 3.50239V2.46845C17.1732 2.13675 17.0398 1.83696 16.8289 1.61709C16.6149 1.40007 16.3228 1.26297 16 1.26297C15.6775 1.26297 15.3857 1.39691 15.1742 1.61709C14.9602 1.83696 14.8299 2.13707 14.8299 2.46845V3.50176C14.8299 3.84956 14.6903 4.16515 14.4668 4.39481C14.2464 4.62478 13.9392 4.76504 13.5974 4.76504Z" fill="#6667AB"/>
<path d="M27.2652 19.2981C27.2652 19.6571 26.981 19.9479 26.6329 19.9479C26.2813 19.9479 26 19.6574 26 19.2981V18.7007C26 17.9364 26.3516 17.2507 26.9203 16.7575C27.457 16.2908 28.1946 16 29 16C29.8054 16 30.5402 16.2904 31.0797 16.7575C31.6487 17.2504 32 17.9364 32 18.7007V19.311C32 19.7881 31.901 20.2383 31.7028 20.6565C31.5082 21.0647 31.2237 21.437 30.8468 21.7669L30.2813 22.2631C30.0383 22.4785 29.8563 22.7071 29.7415 22.9555C29.6263 23.1936 29.5722 23.4553 29.5722 23.7428V24.3534C29.5722 24.7096 29.288 25 28.9396 25C28.5883 25 28.307 24.7096 28.307 24.3534V23.7428C28.307 23.2628 28.406 22.8155 28.6038 22.3941C28.7956 21.9859 29.0832 21.6172 29.4601 21.2837L30.0256 20.7875C30.2684 20.5754 30.4475 20.3435 30.5655 20.0951C30.6775 19.8599 30.7348 19.5953 30.7348 19.3114V18.7007C30.7348 18.3349 30.5525 17.995 30.2652 17.7437C29.9456 17.4665 29.4984 17.2963 29 17.2963C28.5019 17.2963 28.0544 17.4661 27.7348 17.7437C27.4443 17.995 27.2652 18.3349 27.2652 18.7007V19.2981Z" fill="#6667AB"/>
<path d="M29.5 27C29.7761 27 30 26.7761 30 26.5C30 26.2239 29.7761 26 29.5 26C29.2239 26 29 26.2239 29 26.5C29 26.7761 29.2239 27 29.5 27Z" fill="#6667AB"/>
<path d="M9.6336 13.2313C9.28178 13.2313 9 12.9578 9 12.6157C9 12.2766 9.28178 12 9.6336 12H10.6545C11.0035 12 11.2881 12.2766 11.2881 12.6157C11.2881 12.9578 11.0035 13.2313 10.6545 13.2313H9.6336ZM14.1071 13.2313C13.7582 13.2313 13.4735 12.9578 13.4735 12.6157C13.4735 12.2766 13.7582 12 14.1071 12H21.4548C21.8035 12 22.0881 12.2766 22.0881 12.6157C22.0881 12.9578 21.8035 13.2313 21.4548 13.2313H14.1071ZM9.6336 32C9.28178 32 9 31.7234 9 31.3846C9 31.0452 9.28178 30.7687 9.6336 30.7687H10.6545C11.0035 30.7687 11.2881 31.0452 11.2881 31.3846C11.2881 31.7234 11.0035 32 10.6545 32H9.6336ZM14.1071 32C13.7582 32 13.4735 31.7234 13.4735 31.3846C13.4735 31.0452 13.7582 30.7687 14.1071 30.7687H24.3667C24.7154 30.7687 25 31.0452 25 31.3846C25 31.7234 24.7154 32 24.3667 32H14.1071ZM9.6336 28.2469C9.28178 28.2469 9 27.9703 9 27.6312C9 27.2894 9.28178 27.0156 9.6336 27.0156H10.6545C11.0035 27.0156 11.2881 27.2894 11.2881 27.6312C11.2881 27.9703 11.0035 28.2469 10.6545 28.2469H9.6336ZM14.1071 28.2469C13.7582 28.2469 13.4735 27.9703 13.4735 27.6312C13.4735 27.2894 13.7582 27.0156 14.1071 27.0156H19.5506C19.9024 27.0156 20.1842 27.2894 20.1842 27.6312C20.1842 27.9703 19.9024 28.2469 19.5506 28.2469H14.1071ZM9.6336 24.4941C9.28178 24.4941 9 24.2175 9 23.8781C9 23.5365 9.28178 23.2627 9.6336 23.2627H10.6545C11.0035 23.2627 11.2881 23.5365 11.2881 23.8781C11.2881 24.2175 11.0035 24.4941 10.6545 24.4941H9.6336ZM14.1071 24.4941C13.7582 24.4941 13.4735 24.2175 13.4735 23.8781C13.4735 23.5365 13.7582 23.2627 14.1071 23.2627H17.7106C18.0593 23.2627 18.3439 23.5365 18.3439 23.8781C18.3439 24.2175 18.0593 24.4941 17.7106 24.4941H14.1071ZM9.6336 20.7406C9.28178 20.7406 9 20.4641 9 20.125C9 19.7831 9.28178 19.5059 9.6336 19.5059H10.6545C11.0035 19.5059 11.2881 19.7825 11.2881 20.125C11.2881 20.4641 11.0035 20.7406 10.6545 20.7406H9.6336ZM14.1071 20.7406C13.7582 20.7406 13.4735 20.4641 13.4735 20.125C13.4735 19.7831 13.7582 19.5059 14.1071 19.5059H17.7106C18.0593 19.5059 18.3439 19.7825 18.3439 20.125C18.3439 20.4641 18.0593 20.7406 17.7106 20.7406H14.1071ZM9.6336 16.9844C9.28178 16.9844 9 16.7106 9 16.3688C9 16.0297 9.28178 15.7531 9.6336 15.7531H10.6545C11.0035 15.7531 11.2881 16.0297 11.2881 16.3688C11.2881 16.7106 11.0035 16.9844 10.6545 16.9844H9.6336ZM14.1071 16.9844C13.7582 16.9844 13.4735 16.7106 13.4735 16.3688C13.4735 16.0297 13.7582 15.7531 14.1071 15.7531H18.4206C18.7727 15.7531 19.0545 16.0297 19.0545 16.3688C19.0545 16.7106 18.7727 16.9844 18.4206 16.9844H14.1071Z" fill="#6667AB"/>
</svg>
