<svg width="50" height="50" viewBox="0 0 50 50" fill="none" xmlns="http://www.w3.org/2000/svg">
<path d="M27.2639 40.7271H26.5749V38.7933C26.5749 37.8044 25.796 37 24.8386 37H7.16148C6.20408 37 5.42523 37.8044 5.42523 38.7933V40.7271H4.73624C3.77884 40.7271 3 41.5315 3 42.5204V44.2067C3 45.1955 3.77884 46 4.73624 46H9.01423C9.41017 46 9.73103 45.6685 9.73103 45.2595C9.73103 44.8506 9.41008 44.5191 9.01423 44.5191H4.73624C4.56939 44.5191 4.4337 44.3789 4.4337 44.2066V42.5203C4.4337 42.348 4.56939 42.2078 4.73624 42.2078H27.2638C27.4306 42.2078 27.5663 42.348 27.5663 42.5203V44.2066C27.5663 44.3789 27.4306 44.5191 27.2638 44.5191H12.3142C11.9183 44.5191 11.5973 44.8506 11.5973 45.2595C11.5973 45.6685 11.9183 46 12.3142 46H27.2638C28.2212 46 29 45.1955 29 44.2067V42.5204C29.0001 41.5316 28.2212 40.7271 27.2639 40.7271ZM25.1412 40.7271H6.85893V38.7933C6.85893 38.621 6.99462 38.4808 7.16148 38.4808H24.8385C25.0054 38.4808 25.1411 38.621 25.1411 38.7933V40.7271H25.1412Z" fill="#6667AB"/>
<path d="M49.3596 39.1902C48.5664 38.3969 47.311 38.3427 46.453 39.0251L26.4705 19.0425C26.7276 18.6185 26.7458 18.0895 26.5259 17.6501L29.9889 14.187L30.0145 14.2126C30.2864 14.4845 30.6479 14.6342 31.0324 14.6342C31.417 14.6342 31.7784 14.4845 32.0504 14.2126L33.3451 12.9178C33.6171 12.6459 33.7668 12.2844 33.7668 11.8999C33.7668 11.5154 33.6171 11.1538 33.3451 10.882L25.8849 3.42166C25.613 3.14972 25.2515 3 24.8669 3C24.4824 3 24.1209 3.14972 23.849 3.42166L22.5543 4.71635C22.2823 4.9883 22.1326 5.34976 22.1326 5.73436C22.1326 6.11886 22.2823 6.48042 22.5543 6.75227L22.5798 6.77782L19.1167 10.2409C18.5774 9.9708 17.9028 10.0595 17.4535 10.5088L14.5081 13.4542C14.0588 13.9036 13.9703 14.5781 14.2403 15.1173L10.7772 18.5804L10.7516 18.5548C10.1904 17.9937 9.27708 17.9936 8.71578 18.5548L7.42091 19.8496C6.8597 20.4109 6.8597 21.3242 7.42091 21.8855L14.8812 29.3459C15.1619 29.6265 15.5304 29.7668 15.8991 29.7668C16.2677 29.7668 16.6365 29.6265 16.9171 29.3458L18.2119 28.051C18.7732 27.4897 18.7732 26.5764 18.2119 26.0151L18.1862 25.9895L21.6493 22.5264C21.8518 22.6278 22.0729 22.6795 22.2945 22.6794C22.5536 22.6794 22.812 22.6085 23.0406 22.4699L43.0241 42.4538C42.7166 42.8393 42.5485 43.3134 42.5485 43.8138C42.5485 44.398 42.776 44.9473 43.1892 45.3604C43.6156 45.7868 44.1757 46 44.7357 46C45.2958 46 45.8559 45.7868 46.2823 45.3604L49.3594 42.2832C49.7726 41.8702 50 41.3209 50 40.7366C50 40.1524 49.7727 39.6034 49.3596 39.1902ZM24.8669 4.44992L32.3169 11.9L31.0325 13.1844L23.5826 5.73436L24.8669 4.44992ZM23.6029 7.80095L26.2844 10.4825L28.9659 13.164L25.5552 16.5745L20.1923 11.2116L23.6029 7.80095ZM15.8992 28.3177L8.44925 20.8677L9.73367 19.5833L17.1836 27.0333L15.8992 28.3177ZM22.2946 21.2305L19.5833 18.5191C19.3008 18.2366 18.8427 18.2366 18.5602 18.5191C18.2776 18.8016 18.2776 19.2597 18.5602 19.5422L20.5739 21.556L17.1633 24.9666L11.8003 19.6037L15.2109 16.193L16.1705 17.1526C16.453 17.4351 16.9111 17.4351 17.1936 17.1526C17.4762 16.8701 17.4762 16.4119 17.1936 16.1295L15.5365 14.4722L18.4715 11.5372L25.2296 18.2954L22.2946 21.2305ZM24.094 21.4774L25.4766 20.0947L45.4192 40.0375L44.7278 40.7288L44.0364 41.4201L24.094 21.4774ZM48.3365 41.2603L45.2594 44.3375C44.9708 44.626 44.5011 44.6261 44.2124 44.3375C44.0725 44.1976 43.9955 44.0118 43.9955 43.814C43.9955 43.6163 44.0725 43.4304 44.2124 43.2905L47.2895 40.2134C47.4338 40.0691 47.6234 39.9969 47.8129 39.9969C48.0025 39.9969 48.1921 40.0691 48.3364 40.2134C48.6251 40.5021 48.6251 40.9717 48.3365 41.2603Z" fill="#6667AB"/>
<path d="M4.899 17.8111C5.02496 17.937 5.19 18 5.35504 18C5.52007 18 5.68511 17.937 5.81107 17.8111C6.06298 17.5592 6.06298 17.1508 5.81107 16.899L4.10099 15.1889C3.84917 14.937 3.44085 14.937 3.18893 15.1889C2.93702 15.4408 2.93702 15.8491 3.18893 16.101L4.899 17.8111Z" fill="#6667AB"/>
<path d="M3.98546 20.4197C4.06374 20.0269 3.81807 19.6431 3.43659 19.5624L0.846897 19.015C0.465799 18.9343 0.0928114 19.1875 0.0145359 19.5803C-0.0637397 19.9731 0.181932 20.357 0.563408 20.4376L3.1531 20.985C3.20092 20.9951 3.24854 21 3.2956 21C3.62342 21 3.91709 20.7633 3.98546 20.4197Z" fill="#6667AB"/>
<path d="M8.56241 15.4366C8.63293 15.7703 8.93531 16 9.27295 16C9.32132 16 9.37047 15.9953 9.41971 15.9855C9.81252 15.9072 10.0657 15.5346 9.98503 15.1531L9.43759 12.5634C9.35706 12.182 8.973 11.9362 8.58029 12.0146C8.18748 12.0928 7.93435 12.4654 8.01497 12.8468L8.56241 15.4366Z" fill="#6667AB"/>
</svg>
