<svg width="508" height="417" viewBox="0 0 508 417" fill="none" xmlns="http://www.w3.org/2000/svg">
<g clip-path="url(#clip0_2728_1173)">
<path d="M461.834 62.5322C488.948 100.639 492.128 143.95 491.996 177.814C491.778 234.008 472.547 285.095 444.195 327.848C427.27 353.369 378.953 410.361 295.451 416.393C278.749 417.6 184.107 424.437 144.064 335.388C108.376 256.026 138.933 151.374 170.004 97.9447C242.97 -27.5235 399.761 -24.7129 461.834 62.5322Z" fill="#F2F0FF"/>
<path d="M251.954 96.7028C302.405 79.6708 298.307 28.5038 346.558 22.7463C396.231 16.818 423.061 47.4056 442.934 72.1029C492.356 133.524 471.153 243.809 420.838 309.815C365.767 382.063 219.543 424.94 124.183 367.008C67.1937 332.387 19.412 253.854 30.6509 182.043C38.6972 130.635 83.8249 96.1424 126.046 88.9655C183.44 79.209 205.786 112.29 251.954 96.7028Z" fill="#DBD7F4"/>
<path d="M214.339 359C212.964 359 211.576 358.985 210.201 358.957L210.254 356.422C211.606 356.451 212.981 356.465 214.339 356.465C215.059 356.465 215.782 356.465 216.489 356.453L216.517 358.989C215.8 358.996 215.067 359 214.339 359ZM222.834 358.817L222.727 356.282C224.786 356.195 226.882 356.073 228.957 355.919L229.14 358.455C227.041 358.606 224.918 358.729 222.832 358.817H222.834ZM203.887 358.72C201.791 358.607 199.671 358.459 197.585 358.277L197.8 355.751C199.859 355.93 201.951 356.077 204.021 356.188L203.887 358.72ZM235.433 357.889L235.175 355.367C237.228 355.153 239.319 354.903 241.374 354.625L241.706 357.138C239.622 357.419 237.512 357.671 235.433 357.889ZM191.299 357.625C189.217 357.371 187.111 357.082 185.04 356.761L185.417 354.255C187.46 354.572 189.539 354.858 191.594 355.107L191.299 357.625ZM247.949 356.202L247.545 353.7C249.582 353.365 251.65 352.994 253.698 352.597L254.173 355.087C252.106 355.49 250.014 355.87 247.949 356.202ZM178.807 355.695C176.745 355.303 174.663 354.871 172.619 354.411L173.166 351.936C175.183 352.39 177.238 352.818 179.272 353.204L178.807 355.695ZM260.352 353.803L259.809 351.328C261.826 350.878 263.872 350.391 265.89 349.883L266.498 352.342C264.463 352.85 262.391 353.341 260.357 353.796L260.352 353.803ZM166.478 352.915C164.448 352.385 162.399 351.812 160.386 351.214L161.096 348.781C163.082 349.373 165.105 349.937 167.107 350.461L166.478 352.915ZM272.604 350.713L271.936 348.264C273.926 347.705 275.944 347.109 277.934 346.489L278.67 348.913C276.659 349.544 274.621 350.145 272.609 350.709L272.604 350.713ZM154.352 349.307C152.377 348.647 150.369 347.939 148.385 347.204L149.25 344.824C151.209 345.55 153.192 346.248 155.142 346.9L154.352 349.307ZM284.677 346.985L283.881 344.576C285.842 343.916 287.827 343.217 289.784 342.502L290.638 344.887C288.667 345.608 286.662 346.313 284.682 346.981L284.677 346.985ZM142.486 344.917C140.55 344.133 138.593 343.304 136.658 342.453L137.662 340.129C139.571 340.97 141.509 341.789 143.423 342.565L142.486 344.917ZM296.55 342.646L295.637 340.283C297.564 339.522 299.514 338.731 301.437 337.922L302.404 340.262C300.467 341.079 298.498 341.881 296.55 342.646ZM130.905 339.819C129.021 338.922 127.107 337.983 125.227 337.03L126.357 334.766C128.217 335.713 130.106 336.642 131.973 337.528L130.905 339.819ZM308.203 337.742L307.183 335.425C309.048 334.588 310.962 333.705 312.871 332.797L313.941 335.092C312.016 336.004 310.086 336.897 308.203 337.742ZM119.631 334.079C117.791 333.077 115.934 332.034 114.113 330.979L115.369 328.78C117.171 329.824 119.011 330.856 120.828 331.846L119.631 334.079ZM319.621 332.325L318.511 330.051C319.465 329.577 320.339 329.139 321.135 328.738L321.156 328.728C322.14 328.233 323.134 327.726 324.108 327.219L325.257 329.474C324.273 329.981 323.269 330.497 322.275 330.996L322.252 331.006C321.455 331.407 320.578 331.847 319.621 332.324V332.325ZM108.676 327.728C106.889 326.627 105.09 325.486 103.329 324.337L104.693 322.208C106.435 323.349 108.209 324.473 109.984 325.562L108.676 327.728ZM330.835 326.478L329.627 324.255C331.445 323.248 333.268 322.203 335.061 321.15L336.326 323.34C334.517 324.407 332.669 325.463 330.835 326.481V326.478ZM98.0782 320.806C96.354 319.614 94.6222 318.383 92.9293 317.146L94.4024 315.093C96.0764 316.316 97.7932 317.534 99.4973 318.714L98.0782 320.806ZM341.734 320.056L340.412 317.9C342.17 316.799 343.942 315.658 345.675 314.508L347.056 316.626C345.299 317.793 343.51 318.946 341.73 320.059L341.734 320.056ZM87.8758 313.35C86.2143 312.065 84.5466 310.742 82.9215 309.42L84.5001 307.447C86.1088 308.76 87.7577 310.07 89.3979 311.339L87.8758 313.35ZM352.282 313.058L350.848 310.976C352.551 309.781 354.259 308.546 355.926 307.308L357.415 309.35C355.727 310.605 354 311.852 352.278 313.062L352.282 313.058ZM362.454 305.506L360.903 303.515C362.536 302.233 364.18 300.91 365.785 299.585L367.377 301.545C365.756 302.881 364.096 304.215 362.445 305.51L362.454 305.506ZM78.0764 305.347C76.4803 303.971 74.8854 302.558 73.3356 301.144L75.0185 299.262C76.5519 300.656 78.1292 302.058 79.7078 303.418L78.0764 305.347ZM372.206 297.43L370.563 295.511C372.129 294.145 373.703 292.737 375.236 291.327L376.928 293.202C375.377 294.628 373.784 296.052 372.206 297.43ZM68.7016 296.809C67.1808 295.342 65.6662 293.839 64.1981 292.339L65.984 290.557C67.4357 292.04 68.9339 293.525 70.4359 294.974L68.7016 296.809ZM381.539 288.853L379.802 287.022C381.298 285.575 382.798 284.088 384.258 282.601L386.041 284.387C384.566 285.894 383.051 287.392 381.539 288.855V288.853ZM59.8241 287.741C58.3874 286.184 56.9607 284.593 55.5843 283.01L57.4681 281.338C58.8282 282.902 60.2309 284.475 61.6576 286.012L59.8241 287.741ZM390.429 279.809L388.603 278.071C390.022 276.55 391.447 274.991 392.836 273.43L394.704 275.124C393.301 276.701 391.869 278.278 390.429 279.809ZM51.4878 278.148C50.1453 276.5 48.8191 274.826 47.5432 273.158L49.5261 271.609C50.782 273.257 52.0956 274.913 53.4193 276.536L51.4878 278.148ZM398.864 270.332L396.955 268.684C398.298 267.097 399.646 265.467 400.958 263.839L402.906 265.439C401.581 267.084 400.221 268.73 398.864 270.332ZM43.7593 268.041C42.5261 266.313 41.3092 264.55 40.1463 262.799L42.2322 261.386C43.3801 263.114 44.5794 264.854 45.7963 266.558L43.7593 268.041ZM406.832 260.452L404.846 258.899C406.115 257.251 407.383 255.552 408.614 253.865L410.636 255.371C409.393 257.073 408.113 258.782 406.832 260.452ZM36.7166 257.435C35.6014 255.624 34.51 253.78 33.4727 251.951L35.6516 250.691C36.6751 252.493 37.7501 254.312 38.849 256.096L36.7166 257.435ZM414.329 250.201L412.273 248.743C413.463 247.034 414.652 245.283 415.809 243.537L417.897 244.945C416.725 246.709 415.525 248.476 414.326 250.201H414.329ZM30.4248 246.35C29.4452 244.465 28.4921 242.547 27.5929 240.645L29.8609 239.554C30.7463 241.428 31.6844 243.32 32.6501 245.177L30.4248 246.35ZM421.341 239.61L419.222 238.249C420.335 236.482 421.445 234.677 422.52 232.883L424.669 234.197C423.584 236.006 422.465 237.827 421.341 239.61ZM24.9832 234.824C24.1519 232.869 23.3506 230.88 22.6059 228.91L24.9518 228.005C25.6853 229.942 26.4727 231.901 27.2915 233.824L24.9832 234.824ZM427.876 228.709L425.698 227.441C426.729 225.632 427.759 223.778 428.759 221.933L430.963 223.149C429.954 225.014 428.916 226.883 427.876 228.709ZM20.471 222.905C19.8016 220.892 19.1687 218.849 18.5872 216.821L20.9997 216.117C21.5699 218.107 22.1928 220.122 22.8508 222.1L20.471 222.905ZM433.932 217.532L431.704 216.362C432.637 214.549 433.565 212.706 434.541 210.726L436.79 211.855C435.808 213.849 434.872 215.705 433.932 217.532ZM16.9672 210.661C16.4649 208.595 16.0153 206.495 15.6109 204.419L18.0761 203.931C18.4717 205.97 18.92 208.033 19.4086 210.063L16.9672 210.661ZM439.558 206.135L437.29 205.045C438.183 203.155 439.064 201.228 439.913 199.318L442.205 200.356C441.349 202.283 440.457 204.227 439.557 206.135H439.558ZM14.5309 198.121C14.2194 196.022 13.9507 193.888 13.7334 191.783L16.2325 191.52C16.4448 193.59 16.7085 195.684 17.0149 197.747L14.5309 198.121ZM444.719 194.516L442.404 193.532C443.207 191.605 444.001 189.639 444.763 187.689L447.099 188.62C446.331 190.587 445.531 192.571 444.719 194.516ZM13.2223 185.411C13.0967 183.293 13.0264 181.143 13 179.021L15.5117 178.989C15.5368 181.072 15.6109 183.184 15.7302 185.264L13.2223 185.411ZM449.346 182.669L446.989 181.793C447.704 179.832 448.408 177.83 449.08 175.848L451.457 176.669C450.778 178.67 450.068 180.689 449.346 182.669ZM15.5782 172.709L13.0666 172.625C13.1356 170.507 13.2549 168.358 13.4194 166.24L15.9236 166.439C15.7616 168.519 15.6448 170.629 15.5757 172.709H15.5782ZM453.434 170.621L451.039 169.861C451.667 167.861 452.278 165.831 452.86 163.824L455.271 164.535C454.682 166.554 454.064 168.604 453.431 170.621H453.434ZM16.5478 160.198L14.0549 159.886C14.3061 157.791 14.6175 155.665 14.9654 153.568L17.4432 153.988C17.1003 156.052 16.7989 158.14 16.5478 160.198ZM456.971 158.398L454.544 157.743C455.08 155.722 455.601 153.666 456.092 151.629L458.532 152.228C458.034 154.285 457.509 156.36 456.969 158.398H456.971ZM18.6036 147.826L16.1459 147.301C16.5791 145.236 17.0626 143.145 17.5838 141.089L20.0176 141.723C19.5027 143.739 19.0268 145.795 18.6011 147.826H18.6036ZM459.958 146.026L457.504 145.482C457.95 143.439 458.383 141.36 458.779 139.303L461.244 139.792C460.837 141.869 460.404 143.966 459.955 146.026H459.958ZM21.6766 135.666L19.2704 134.938C19.8707 132.91 20.5263 130.873 21.2057 128.865L23.5805 129.689C22.9023 131.665 22.2669 133.676 21.6766 135.666ZM462.388 133.531L459.914 133.098C460.267 131.039 460.603 128.942 460.919 126.868L463.403 127.249C463.085 129.335 462.746 131.454 462.388 133.531ZM25.7192 123.793L23.3783 122.87C24.1318 120.901 24.9456 118.916 25.7832 116.972L28.0877 117.986C27.2626 119.9 26.4664 121.856 25.7192 123.793ZM464.268 120.939L461.776 120.617C462.04 118.541 462.279 116.434 462.502 114.349L465 114.615C464.78 116.717 464.533 118.844 464.268 120.939ZM30.6772 112.275L28.4167 111.174C29.3247 109.273 30.2841 107.354 31.2662 105.481L33.4865 106.668C32.5158 108.512 31.5676 110.399 30.6772 112.275ZM36.5018 101.175L34.3292 99.9073C35.3803 98.0755 36.4817 96.2399 37.6032 94.4563L39.7256 95.8114C38.6229 97.5633 37.5379 99.3711 36.5018 101.175ZM43.1502 90.5556L41.0794 89.1206C42.2674 87.375 43.5031 85.6294 44.7552 83.9307L46.7646 85.4443C45.5376 87.1214 44.3194 88.8366 43.1502 90.5556ZM50.5811 80.4775L48.6245 78.8879C49.9418 77.2399 51.3069 75.5919 52.6821 73.9971L54.5771 75.6616C53.2221 77.2335 51.8771 78.8523 50.5811 80.4775ZM58.7516 71.0041L56.9231 69.2661C58.3597 67.7234 59.8467 66.1895 61.3399 64.7025L63.098 66.5102C61.6312 67.9794 60.1682 69.4842 58.7516 71.0041ZM67.6203 62.1963L65.93 60.3214C67.4822 58.894 69.0821 57.4818 70.6858 56.1203L72.3021 58.0611C70.7235 59.401 69.1487 60.7917 67.6203 62.1963ZM77.1396 54.1161L75.5999 52.1131C77.2589 50.8138 78.9643 49.5321 80.6685 48.3101L82.1278 50.3726C80.45 51.5769 78.7722 52.8382 77.1396 54.1161ZM87.2579 46.8244L85.8765 44.7048C87.6347 43.5436 89.4305 42.4052 91.2276 41.3176L92.5186 43.4929C90.7554 44.5628 88.9834 45.6834 87.2579 46.8244ZM97.9326 40.3731L96.7307 38.1471C98.5756 37.1329 100.466 36.1403 102.347 35.2035L103.458 37.4765C101.603 38.3993 99.7447 39.3729 97.9288 40.3731H97.9326ZM109.097 34.8105L108.077 32.4932L108.474 32.317C110.266 31.5196 112.097 30.7476 113.916 30.0225L114.839 32.3791C113.05 33.0941 111.249 33.8534 109.485 34.6369L109.097 34.8105ZM120.675 30.1886L119.848 27.7952C121.832 27.0967 123.857 26.4312 125.868 25.8163L126.596 28.2427C124.614 28.8474 122.622 29.5015 120.671 30.1886H120.675ZM223.384 29.4875C221.841 28.9931 220.351 28.5393 218.826 28.1007L219.514 25.6629C221.063 26.1092 222.577 26.5693 224.143 27.0713L223.384 29.4875ZM132.586 26.5427L131.958 24.0885C133.989 23.5586 136.061 23.0617 138.112 22.6142L138.642 25.0925C136.624 25.5336 134.586 26.0192 132.588 26.5427H132.586ZM212.794 26.4907C210.794 25.9976 208.748 25.5324 206.712 25.1102L207.215 22.6268C209.28 23.0553 211.359 23.5269 213.387 24.0289L212.794 26.4907ZM200.584 23.9554C198.543 23.608 196.468 23.2936 194.418 23.0211L194.745 20.5073C196.826 20.7836 198.931 21.1031 201.001 21.4555L200.584 23.9554ZM144.759 23.8945L144.328 21.3972C146.393 21.0346 148.498 20.7088 150.585 20.4287L150.915 22.9425C148.863 23.215 146.791 23.5358 144.76 23.892L144.759 23.8945ZM188.223 22.3112C186.159 22.1122 184.068 21.9499 182.007 21.8282L182.154 19.2928C184.245 19.4196 186.368 19.5806 188.461 19.7822L188.223 22.3112ZM157.107 22.2377L156.873 19.7124C158.959 19.5172 161.081 19.36 163.184 19.2447L163.319 21.78C161.251 21.8865 159.161 22.0424 157.108 22.2351L157.107 22.2377ZM175.78 21.5759C174.579 21.5493 173.366 21.5366 172.172 21.5366C171.3 21.5366 170.413 21.543 169.547 21.5569L169.507 19.0215C170.386 19.0076 171.286 19 172.172 19C173.384 19 174.616 19.0127 175.834 19.0393L175.78 21.5759Z" fill="#393D5F"/>
<path d="M467 101L474 95.1094L468.861 93L467 101Z" fill="#6667AB"/>
<path d="M467.135 101L457 87.15L501 33L469.373 93.2011L467.135 101Z" fill="#C1BFD4"/>
<path d="M459.462 91L501 33L435 85.3162L459.462 91Z" fill="#6667AB"/>
<path d="M469 93.2751L496.034 103L501 33L469 93.2751Z" fill="#6667AB"/>
<path d="M441.324 35.6159C446.011 30.9296 446.04 23.3024 441.39 18.58C436.74 13.8577 429.172 13.8284 424.485 18.5147C419.799 23.201 419.77 30.8282 424.419 35.5506C429.069 40.2729 436.638 40.3021 441.324 35.6159Z" fill="#6667AB"/>
<path d="M54.9864 161.924C62.0158 154.894 62.06 143.454 55.0851 136.37C48.1101 129.286 36.7574 129.243 29.7279 136.272C22.6985 143.302 22.6543 154.742 29.6292 161.826C36.6042 168.909 47.9569 168.953 54.9864 161.924Z" fill="#6667AB"/>
<path d="M368.382 414.577C373.304 413.885 376.742 409.333 376.06 404.41C375.378 399.486 370.835 396.056 365.912 396.747C360.99 397.439 357.553 401.991 358.235 406.915C358.917 411.838 363.46 415.269 368.382 414.577Z" fill="#C1BFD4"/>
<path d="M44.9932 359.462C48.5079 355.947 48.53 350.227 45.0425 346.685C41.5551 343.143 35.8787 343.121 32.364 346.636C28.8492 350.151 28.8271 355.871 32.3146 359.413C35.8021 362.955 41.4785 362.977 44.9932 359.462Z" fill="#C1BFD4"/>
<path d="M68.2649 325.247C74.2073 323.984 78.016 318.139 76.7719 312.193C75.5278 306.246 69.702 302.45 63.7596 303.713C57.8172 304.976 54.0085 310.821 55.2526 316.767C56.4967 322.713 62.3225 326.51 68.2649 325.247Z" fill="#6667AB"/>
<path d="M102.986 365.924C110.016 358.894 110.06 347.454 103.085 340.37C96.1101 333.286 84.7574 333.243 77.7279 340.272C70.6985 347.302 70.6543 358.742 77.6292 365.826C84.6041 372.909 95.9569 372.953 102.986 365.924Z" fill="#6667AB"/>
<path d="M474.653 275C485.383 284.454 494.906 295.245 503 307.122C495.034 313.387 485.841 317.83 476.044 320.149C466.247 322.468 456.076 322.61 446.22 320.564L397 300.546C403.068 302.401 421.761 307.249 443.126 299.011C460.527 292.295 470.6 280.399 474.653 275Z" fill="#6667AB"/>
<path d="M446 320L398 301C402.544 302.901 407.3 304.248 412.165 305.013C415.959 305.609 423.168 304.894 426.482 304.52C427.873 307.096 428.92 307.94 432.6 311.297C438.184 316.377 441.228 318.4 446 320Z" fill="#6667AB"/>
<path d="M409.126 411.132C411.742 401.602 412.843 395.508 411.19 390.607C409.537 385.707 404.987 381.59 397.172 375.708L394 373.321L397.799 374.401C407.16 377.065 413.144 378.187 417.957 376.503C422.771 374.82 426.817 370.185 432.591 362.23L434.936 359L433.874 362.869C431.258 372.4 430.157 378.492 431.811 383.394C433.466 388.296 438.013 392.411 445.828 398.292L449 400.679L445.201 399.6C435.841 396.936 429.856 395.813 425.044 397.498C420.231 399.183 416.188 403.813 410.411 411.77L408.067 415L409.126 411.132ZM430.43 383.874C428.886 379.299 429.53 373.93 431.492 366.163C426.681 372.506 422.917 376.33 418.423 377.901C413.93 379.473 408.657 378.817 401.03 376.821C407.259 381.72 411.014 385.552 412.558 390.126C414.102 394.701 413.457 400.07 411.497 407.838C416.308 401.489 420.072 397.67 424.564 396.099C429.057 394.527 434.33 395.183 441.959 397.181C435.731 392.282 431.981 388.452 430.437 383.874H430.43Z" fill="#C1BFD4"/>
<path d="M488.151 167.028C489.109 162.17 489.432 159.085 488.405 156.705C487.378 154.326 484.903 152.452 480.705 149.826L479 148.761L480.972 149.15C485.83 150.108 488.915 150.432 491.294 149.404C493.674 148.377 495.547 145.902 498.173 141.704L499.238 140L498.849 141.971C497.891 146.829 497.568 149.914 498.595 152.294C499.622 154.673 502.097 156.547 506.295 159.172L508 160.238L506.028 159.848C501.17 158.891 498.085 158.567 495.706 159.595C493.326 160.622 491.453 163.097 488.827 167.295L487.762 169L488.151 167.028ZM497.918 152.585C496.956 150.363 497.074 147.659 497.769 143.706C495.571 147.064 493.808 149.119 491.587 150.08C489.366 151.042 486.661 150.924 482.709 150.229C486.066 152.427 488.121 154.19 489.082 156.411C490.044 158.632 489.926 161.337 489.231 165.29C491.429 161.932 493.192 159.877 495.413 158.916C497.634 157.955 500.339 158.073 504.291 158.768C500.933 156.569 498.875 154.806 497.916 152.585H497.918Z" fill="#C1BFD4"/>
<path d="M62.5072 182C52.1797 186.727 41.8568 191.463 31.5386 196.208C21.0647 201.025 10.5937 205.852 0.125698 210.687C-0.318604 219.054 -0.117909 237.102 10.0127 256.291C15.4675 266.587 22.934 275.671 31.9652 283C43.9345 267.298 59.3447 254.577 77 245.824C70.3569 236.752 65.6422 226.405 63.149 215.425C60.6558 204.445 60.4373 193.068 62.5072 182Z" fill="#6667AB"/>
<path d="M20.3698 247.813C22.061 251.051 24.0665 254.111 26.3565 256.944C28.7411 259.898 31.4162 262.597 34.3401 265C35.4283 263.556 36.6758 262 38.0941 260.377C41.1501 256.878 44.4927 253.649 48.0858 250.723C49.4802 249.587 50.8633 248.538 52.2188 247.572C55.6435 245.128 59.2478 242.954 63 241.07C61.5077 239.009 61.9344 239.814 59.6489 236.071C58.0587 233.466 55.3967 226.417 54.4842 222.774C52.6289 215.324 52.3878 207.554 53.7776 200C47.2043 203.042 40.6361 206.089 34.0728 209.143C27.4075 212.243 20.7438 215.348 14.0818 218.46C13.7944 223.848 13.9237 235.463 20.3698 247.813Z" fill="white" stroke="white" stroke-miterlimit="10"/>
<path d="M26.1338 256.991C28.5188 259.928 31.1942 262.611 34.1186 265C35.2069 263.564 36.4547 262.018 37.8731 260.404C40.9297 256.925 44.2727 253.714 47.8664 250.805C49.261 249.676 50.6443 248.633 52 247.672C51.6033 247.349 51.3096 246.74 50.7824 246.689C46.2835 246.251 45.047 245.444 41.7306 243.446C37.2116 240.721 33.5713 236.21 31.3947 237.119C25.1183 239.738 35.0827 249.949 32.3298 251.674C30.6478 252.731 27.5347 248.758 25.8351 249.646C25.0229 250.07 24.335 251.049 26.1338 256.991Z" fill="#6667AB"/>
<path d="M37.8432 260C40.9301 256.549 44.3063 253.363 47.9356 250.478C49.3441 249.358 50.7411 248.323 52.1102 247.37C55.5694 244.959 59.2101 242.815 63 240.957C61.4927 238.924 61.0173 238.804 59.2691 235.152C52.0545 232.555 48.0535 222.803 44.069 224.122C41.6604 224.917 42.4413 233.008 43.5227 236.168C45.8046 242.853 48.0725 242.745 48.3489 244.978C48.5074 246.259 47.7214 246.965 46.9164 247.441C44.14 249.082 42.0318 244.87 38.955 246.616C36.4487 248.049 36.6731 253.665 37.8432 260Z" fill="#C1BFD4"/>
<path d="M199.441 134.032C209.153 121.863 225.776 114.697 241 112C232.087 113.833 217.004 115.324 208.969 119.409C198.806 124.004 189.242 128.797 183 138L196.064 136.114C197.313 135.928 198.449 135.268 199.25 134.264L199.441 134.032Z" fill="#6667AB"/>
<path d="M338.929 118.199C319.461 80.5453 267.811 76.127 257.599 76.0094C233.547 75.7324 214.807 81.6786 216.059 81.4674C241.851 77.12 273.661 80.7325 296.007 95.0018C306.362 101.588 315.591 110.697 321.448 121.577H321.462C331.652 140.721 331.46 164.952 325.169 185.348C319.96 200.939 309.182 213.622 297.327 224.567C279.674 240.642 262.2 254.839 258.2 280L272.295 277.47C273.313 277.29 274.253 276.799 274.987 276.064C275.721 275.329 276.215 274.384 276.401 273.357C283.367 234.175 324.129 225.312 340.362 188.032C347.642 171.317 346.993 158.757 346.98 154.449C346.962 149.263 346.75 133.328 338.929 118.199Z" fill="#6667AB"/>
<path d="M321.627 121.194C336.179 147.435 331.176 188.39 311.171 210.387C293.363 231.737 265.483 245.816 262.139 275.433C261.991 276.78 261.317 278.013 260.266 278.863C259.215 279.714 257.872 280.113 256.529 279.973L232 277.385C230.664 277.243 229.437 276.578 228.585 275.535C227.733 274.492 227.325 273.154 227.448 271.811C230.47 238.279 253.813 220.651 276.887 199.608C287.042 189.375 293.839 178.863 294.469 163.582C297.349 107.787 217.193 99.5484 186.803 135.587C186.349 136.123 185.789 136.558 185.159 136.867C184.53 137.176 183.843 137.351 183.143 137.382C182.443 137.413 181.744 137.298 181.089 137.046C180.435 136.793 179.84 136.408 179.341 135.914L162.528 119.334C161.62 118.44 161.078 117.237 161.008 115.962C160.938 114.687 161.345 113.432 162.15 112.444C200.314 65.7207 290.778 67.334 321.627 121.194Z" fill="white"/>
<path d="M310.486 200C309.602 199.998 308.735 199.765 307.968 199.322C307.202 198.88 306.563 198.244 306.115 197.477C305.667 196.711 305.425 195.84 305.413 194.95C305.402 194.06 305.62 193.183 306.048 192.405C309.678 185.814 320.735 162.313 310.834 136.582C305.628 123.056 296.61 114.2 289.96 109.152C288.907 108.327 288.219 107.119 288.044 105.787C287.869 104.456 288.221 103.109 289.024 102.036C289.826 100.964 291.016 100.252 292.335 100.055C293.655 99.8584 294.998 100.192 296.075 100.983C303.779 106.831 314.237 117.119 320.307 132.886C325.434 146.208 326.365 160.507 323.076 175.385C320.769 185.826 316.985 193.636 314.939 197.363C314.499 198.163 313.853 198.83 313.07 199.294C312.287 199.758 311.395 200.002 310.486 200Z" fill="#E6E8F4"/>
<path d="M316.007 132.952C315.293 132.952 313.604 132.766 313.243 132.077C304.604 115.579 299.232 111.429 291.796 105.687C291.586 105.525 291.41 105.322 291.277 105.09C291.143 104.858 291.056 104.601 291.019 104.335C290.983 104.068 290.998 103.797 291.064 103.536C291.13 103.276 291.245 103.031 291.403 102.816C291.561 102.601 291.759 102.42 291.986 102.283C292.212 102.147 292.462 102.057 292.722 102.02C292.983 101.982 293.247 101.998 293.502 102.065C293.756 102.133 293.995 102.251 294.205 102.413C301.752 108.242 307.713 112.847 316.761 130.138C316.886 130.376 316.963 130.636 316.99 130.904C317.016 131.172 316.991 131.443 316.915 131.701C316.839 131.96 316.714 132.2 316.548 132.408C316.381 132.617 316.176 132.79 315.944 132.917C315.65 133.08 316.326 132.952 316.007 132.952Z" fill="white"/>
<path d="M279.973 341.913C279.935 331.435 273.982 320.329 263.719 317.105C260.998 316.246 258.149 315.883 255.304 316.033C254.2 315.938 236.574 319.294 235 319.539C251.147 316.782 262.853 330.782 262.371 346.367C262.582 357.429 256.032 369.84 244.63 372C250.029 370.606 264.923 369.517 269.289 365.825C276.81 360.52 280.35 350.992 279.973 341.913Z" fill="#6667AB"/>
<path d="M241.998 319.177C263.48 320.973 269.317 351.744 255.62 365.75C246.874 375.66 230.662 373.24 223.498 362.331C211.425 346.831 219.962 316.404 241.998 319.177Z" fill="white"/>
<path d="M229.466 361C228.917 361.001 228.373 360.881 227.87 360.648C227.367 360.415 226.915 360.074 226.544 359.646C222.493 354.993 220.599 349.309 221.071 343.208C221.6 336.333 225.246 329.316 230.584 324.893C230.994 324.554 231.462 324.303 231.964 324.155C232.465 324.007 232.99 323.964 233.507 324.03C234.024 324.095 234.524 324.267 234.978 324.536C235.432 324.805 235.831 325.166 236.153 325.598C236.474 326.03 236.712 326.524 236.853 327.053C236.993 327.581 237.034 328.134 236.972 328.679C236.91 329.224 236.746 329.751 236.491 330.23C236.236 330.708 235.894 331.129 235.484 331.469C231.882 334.453 229.327 339.325 228.975 343.885C228.684 347.658 229.83 351.058 232.387 353.992C232.907 354.59 233.251 355.335 233.377 356.135C233.502 356.936 233.404 357.758 233.095 358.5C232.785 359.243 232.277 359.875 231.633 360.319C230.989 360.763 230.236 360.999 229.466 361Z" fill="#F3F5FF"/>
<path d="M225.403 347C224.959 347 224.528 346.857 224.173 346.594C223.817 346.33 223.556 345.959 223.429 345.537C222.09 341.092 224.191 336.099 225.567 333.523C227.618 329.666 230.442 326.5 232.934 325.26C233.177 325.125 233.446 325.04 233.723 325.011C234 324.982 234.28 325.009 234.546 325.091C234.812 325.173 235.059 325.307 235.271 325.487C235.484 325.666 235.657 325.886 235.782 326.134C235.907 326.382 235.98 326.653 235.996 326.929C236.013 327.206 235.973 327.483 235.879 327.744C235.785 328.005 235.639 328.245 235.45 328.448C235.261 328.651 235.032 328.814 234.777 328.927C231.485 330.571 225.845 339.271 227.378 344.356C227.47 344.662 227.489 344.986 227.433 345.301C227.377 345.616 227.248 345.913 227.056 346.17C226.864 346.427 226.615 346.635 226.328 346.779C226.041 346.922 225.724 346.997 225.403 346.997V347Z" fill="white"/>
</g>
<defs>
<clipPath id="clip0_2728_1173">
<rect width="508" height="417" fill="white"/>
</clipPath>
</defs>
</svg>
