<svg width="429" height="432" viewBox="0 0 429 432" fill="none" xmlns="http://www.w3.org/2000/svg">
<g clip-path="url(#clip0_2728_1733)">
<path d="M379.968 365.219C371.283 374.364 363.064 380.261 356.571 384.92C280.238 439.689 189.927 423.725 170.731 419.826C142.387 414.068 87.599 402.939 47.9862 356.355C-11.9444 285.875 -2.61142 174.837 43.8729 101.538C52.3715 88.1309 97.2906 13.7163 188.58 1.78358C243.827 -5.43907 308.231 9.12523 354.865 48.2008C452.76 130.223 445.791 295.919 379.968 365.219Z" fill="#E8E8F2"/>
<path d="M126.043 201.526C128.049 223.041 132.77 251.487 138.44 276H142C134.668 246.42 127.921 205.909 129.909 159.213C131.915 112.121 143.215 54.9446 122.14 27.631C104.6 4.90189 30.1717 1.50025 5.69615 1.00083C2.63902 0.937433 0.887459 4.53234 2.7918 6.97688C12.1746 19.0249 31.823 46.926 33.5344 71.291C35.7906 103.406 60.2476 128.612 84.5519 139.104C108.856 149.597 121.941 157.6 126.043 201.526Z" fill="#6667AB"/>
<g style="mix-blend-mode:soft-light">
<path d="M36.6749 21.0162C51.856 24.9677 66.0838 31.9367 78.508 41.5067C84.7989 46.319 90.4474 51.9159 95.3161 58.1611C100.151 64.4628 104.21 71.4475 107.029 78.9404L108.071 81.7553C108.413 82.6962 108.668 83.6664 108.97 84.6196C109.248 85.5774 109.564 86.543 109.811 87.4932L110.556 90.3451C111.557 94.1456 112.542 97.9508 113.494 101.765C115.396 109.393 117.18 117.05 118.844 124.737C122.183 140.107 125.056 155.578 126.992 171.222C127.006 171.31 127.002 171.399 126.981 171.485C126.961 171.57 126.923 171.651 126.871 171.723C126.819 171.794 126.754 171.855 126.678 171.901C126.603 171.947 126.519 171.978 126.432 171.992C126.345 172.006 126.255 172.002 126.17 171.981C126.084 171.961 126.003 171.923 125.931 171.871C125.86 171.82 125.799 171.754 125.753 171.679C125.707 171.603 125.676 171.52 125.662 171.432V171.411C124.284 163.711 122.761 156.009 121.096 148.354C119.465 140.688 117.745 133.043 115.936 125.418L113.193 113.986L110.323 102.59C109.37 98.7897 108.385 94.9985 107.368 91.2165L106.616 88.3769C106.366 87.4283 106.067 86.5307 105.795 85.6053C105.523 84.6798 105.274 83.7513 104.949 82.8537L103.964 80.1516C101.316 72.9384 97.4129 66.2612 92.8622 60.1077C90.5196 57.0796 88.0687 54.1211 85.3503 51.419L84.3499 50.387L83.3092 49.3936C82.6134 48.7354 81.9346 48.0572 81.2248 47.413C79.7884 46.1446 78.3642 44.8561 76.8597 43.6665C70.9282 38.7907 64.4106 34.6534 57.6394 31.0243C50.8682 27.3953 43.7306 24.3579 36.4182 22.0853L36.3842 22.0745C36.246 22.0304 36.1306 21.9338 36.0632 21.8054C35.9958 21.677 35.9817 21.5273 36.0239 21.3886C36.0632 21.2545 36.153 21.1409 36.2744 21.0715C36.3957 21.002 36.5393 20.9823 36.6749 21.0162Z" fill="white"/>
</g>
<path d="M133.645 236.374C142.156 258.715 138.026 269.179 136.332 278.454C136.031 280.101 135.594 282.426 135.158 285.192L138.687 286C138.797 282.135 139.177 278.282 139.826 274.47C144.347 248.816 148.605 204.237 133.084 173.434C117.563 142.63 94.6436 134.894 59.7187 151.669C30.6166 165.649 12.9966 172.032 3.56572 171.801C1.23193 171.746 -0.493307 174.058 0.127595 176.348C3.43135 188.54 14.084 217.247 41.9195 221.772C77.4283 227.553 125.133 214.034 133.645 236.374Z" fill="#ABABD1"/>
<g style="mix-blend-mode:soft-light">
<path d="M62.2844 185.701C64.6303 184.298 67.0537 183.03 69.5429 181.902C72.0183 180.76 74.5413 179.71 77.1212 178.819C82.2718 177.01 87.63 175.686 93.1281 175.189C95.8898 174.937 98.6688 174.937 101.431 175.189C104.228 175.463 106.98 176.085 109.624 177.04C110.279 177.308 110.951 177.531 111.589 177.84C112.227 178.148 112.883 178.444 113.489 178.783L117.053 180.878L120.471 183.231L123.7 185.852C127.902 189.547 131.416 193.961 134.078 198.889C136.771 203.796 138.536 209.144 139.757 214.546L140.218 216.575C140.372 217.25 140.452 217.941 140.574 218.622C140.783 219.99 141.035 221.353 141.207 222.723L141.628 226.847C141.797 228.219 141.782 229.602 141.865 230.979C142.146 236.489 141.951 241.996 141.616 247.475C141.608 247.621 141.543 247.758 141.435 247.856C141.327 247.954 141.185 248.006 141.039 247.999C140.902 247.991 140.772 247.93 140.678 247.829C140.583 247.728 140.53 247.595 140.529 247.457V247.438C140.481 241.981 140.481 236.526 139.935 231.126C139.748 228.417 139.336 225.743 138.996 223.064C138.789 221.73 138.506 220.414 138.264 219.089C138.127 218.431 138.04 217.761 137.863 217.113L137.362 215.164C136.046 209.967 134.155 204.949 131.578 200.347C128.998 195.771 125.655 191.672 121.695 188.228L118.638 185.778L115.396 183.572L111.998 181.598C111.43 181.29 110.862 181.031 110.296 180.741C109.73 180.451 109.123 180.259 108.54 180.012C106.136 179.129 103.632 178.549 101.086 178.285C98.5059 177.998 95.9051 177.947 93.3156 178.131C88.0882 178.466 82.8884 179.554 77.787 181.043C75.2393 181.814 72.6994 182.633 70.201 183.586C67.7026 184.538 65.221 185.59 62.821 186.729H62.8041C62.7368 186.761 62.6638 186.779 62.5894 186.783C62.515 186.786 62.4407 186.774 62.3708 186.749C62.3009 186.723 62.2369 186.683 62.1824 186.632C62.128 186.581 62.0843 186.52 62.0538 186.452C61.9934 186.32 61.9835 186.171 62.026 186.032C62.0686 185.894 62.1606 185.776 62.2844 185.701Z" fill="white"/>
</g>
<path d="M98 80.3808C98 73.3842 100.784 66.6741 105.74 61.7267C110.695 56.7794 117.416 54 124.425 54H349.139C355.109 54.0002 360.85 56.2896 365.177 60.3952C369.504 64.5008 372.086 70.1089 372.39 76.0609L388.978 401.316C389.095 403.611 388.748 405.906 387.959 408.065C387.17 410.223 385.954 412.201 384.384 413.881C382.813 415.561 380.92 416.909 378.818 417.844C376.715 418.779 374.446 419.282 372.144 419.324L114.592 423.997C112.428 424.036 110.277 423.645 108.266 422.845C106.255 422.045 104.424 420.853 102.879 419.339C101.335 417.825 100.108 416.018 99.2705 414.025C98.433 412.033 98.0016 409.893 98.0015 407.732L98 80.3808Z" fill="#41435D"/>
<path d="M117 58.7084C116.993 57.6115 117.222 56.526 117.671 55.5251C118.121 54.5242 118.78 53.6315 119.605 52.9072C120.43 52.1829 121.401 51.644 122.452 51.3269C123.504 51.0099 124.611 50.9221 125.7 51.0695C156.361 55.2221 261.797 68.0643 348.973 61.3817C349.916 61.3075 350.864 61.4225 351.762 61.72C352.66 62.0175 353.489 62.4914 354.201 63.1139C354.913 63.7363 355.492 64.4947 355.906 65.3444C356.32 66.194 356.559 67.1178 356.609 68.0612L373.988 394.605C374.104 396.756 373.362 398.864 371.925 400.47C370.488 402.076 368.473 403.049 366.321 403.176C329.657 405.335 178.663 413.719 124.807 408.086C123.224 407.919 121.758 407.175 120.691 405.996C119.623 404.817 119.028 403.286 119.021 401.696L117 58.7084Z" fill="#455A64"/>
<path d="M121 66.43C120.993 65.3728 121.214 64.3264 121.648 63.3617C122.081 62.397 122.718 61.5364 123.514 60.8383C124.31 60.1402 125.247 59.6207 126.261 59.3151C127.276 59.0095 128.345 58.9249 129.395 59.067C158.979 63.0698 260.731 75.443 344.849 69.0054C345.759 68.9342 346.674 69.0453 347.54 69.3321C348.407 69.619 349.207 70.0758 349.894 70.6756C350.58 71.2755 351.14 72.0063 351.539 72.825C351.938 73.6437 352.169 74.5339 352.219 75.443L368.989 390.161C369.1 392.234 368.384 394.266 366.997 395.814C365.611 397.362 363.667 398.3 361.59 398.423C326.209 400.51 180.5 408.584 128.528 403.154C127.002 402.991 125.589 402.274 124.56 401.137C123.531 400.001 122.959 398.527 122.952 396.996L121 66.43Z" fill="#E8E8F2"/>
<path opacity="0.58" d="M338.39 86H234.61C233.721 86 233 86.7147 233 87.5962V117.404C233 118.285 233.721 119 234.61 119H338.39C339.279 119 340 118.285 340 117.404V87.5962C340 86.7147 339.279 86 338.39 86Z" fill="white"/>
<path opacity="0.58" d="M343.095 226H140.905C140.405 226 140 226.391 140 226.872V238.128C140 238.609 140.405 239 140.905 239H343.095C343.595 239 344 238.609 344 238.128V226.872C344 226.391 343.595 226 343.095 226Z" fill="white"/>
<path opacity="0.58" d="M343.339 247H140.661C140.296 247 140 247.285 140 247.637V259.363C140 259.715 140.296 260 140.661 260H343.339C343.704 260 344 259.715 344 259.363V247.637C344 247.285 343.704 247 343.339 247Z" fill="white"/>
<path opacity="0.58" d="M348.201 366H140.799C140.358 366 140 366.344 140 366.768V378.232C140 378.656 140.358 379 140.799 379H348.201C348.642 379 349 378.656 349 378.232V366.768C349 366.344 348.642 366 348.201 366Z" fill="white"/>
<path opacity="0.25" d="M339.101 212H144.896C143.597 212 142.352 211.487 141.434 210.575C140.516 209.663 140 208.425 140 207.135V134.865C140 133.575 140.516 132.337 141.434 131.425C142.352 130.513 143.597 130 144.896 130H335.811C337.071 130 338.283 130.483 339.193 131.349C340.104 132.214 340.645 133.395 340.702 134.646L343.995 206.914C344.025 207.571 343.921 208.227 343.688 208.843C343.456 209.459 343.1 210.022 342.643 210.497C342.185 210.973 341.636 211.351 341.027 211.609C340.418 211.868 339.763 212 339.101 212Z" fill="white"/>
<path d="M339.315 213H144.685C143.178 212.999 141.733 212.401 140.667 211.339C139.601 210.276 139.002 208.836 139 207.333V134.669C139.002 133.166 139.601 131.725 140.667 130.662C141.733 129.599 143.178 129.002 144.685 129H336.015C337.479 128.998 338.887 129.56 339.946 130.569C341.004 131.578 341.63 132.955 341.694 134.414L344.994 207.077C345.029 207.842 344.908 208.606 344.638 209.323C344.369 210.04 343.956 210.696 343.425 211.249C342.894 211.803 342.256 212.244 341.55 212.545C340.844 212.845 340.083 213 339.315 213ZM144.685 130.552C143.591 130.553 142.541 130.987 141.767 131.759C140.993 132.531 140.558 133.577 140.556 134.669V207.333C140.558 208.424 140.993 209.471 141.767 210.243C142.541 211.014 143.591 211.448 144.685 211.45H339.315C339.873 211.45 340.425 211.337 340.938 211.118C341.451 210.899 341.914 210.579 342.3 210.177C342.685 209.775 342.985 209.299 343.181 208.778C343.377 208.257 343.465 207.702 343.439 207.146L340.139 134.48C340.093 133.421 339.638 132.42 338.87 131.688C338.101 130.955 337.078 130.547 336.015 130.549L144.685 130.552Z" fill="white"/>
<path opacity="0.25" d="M341.798 357H146.202C144.557 357 142.979 356.349 141.816 355.192C140.653 354.034 140 352.464 140 350.828V281.171C140 279.534 140.653 277.965 141.816 276.807C142.979 275.65 144.557 275 146.202 275H339.083C340.687 275 342.228 275.618 343.384 276.724C344.539 277.83 345.22 279.338 345.282 280.933L347.995 350.59C348.028 351.419 347.891 352.247 347.595 353.024C347.298 353.8 346.847 354.508 346.268 355.107C345.689 355.706 344.995 356.182 344.227 356.507C343.459 356.832 342.633 357 341.798 357Z" fill="white"/>
<path d="M342.008 358.991H145.993C144.139 358.989 142.361 358.253 141.05 356.944C139.739 355.635 139.002 353.861 139 352.01V281.981C139.002 280.13 139.739 278.356 141.05 277.047C142.361 275.738 144.139 275.002 145.993 275H339.288C341.098 274.995 342.839 275.692 344.142 276.945C345.446 278.197 346.211 279.907 346.275 281.712L348.994 351.743C349.032 352.682 348.879 353.62 348.545 354.498C348.211 355.377 347.702 356.18 347.05 356.857C346.397 357.535 345.614 358.074 344.748 358.443C343.881 358.811 342.949 359 342.008 359V358.991ZM145.993 276.549C144.551 276.55 143.169 277.123 142.149 278.141C141.13 279.158 140.556 280.538 140.554 281.977V352.01C140.556 353.449 141.13 354.829 142.149 355.847C143.169 356.865 144.551 357.437 145.993 357.439H342.008C342.74 357.439 343.464 357.292 344.137 357.006C344.811 356.72 345.42 356.301 345.927 355.774C346.434 355.248 346.83 354.624 347.09 353.941C347.351 353.259 347.47 352.53 347.441 351.8L344.722 281.769C344.672 280.365 344.077 279.036 343.063 278.062C342.049 277.088 340.696 276.545 339.288 276.549H145.993Z" fill="white"/>
<path d="M201 129.965L199 130L200.436 211.987L202.436 211.953L201 129.965Z" fill="white"/>
<path d="M275.999 129.93L274 130L276.87 211.95L278.869 211.88L275.999 129.93Z" fill="white"/>
<path d="M140 156V158L342 157.997V155.997L140 156Z" fill="white"/>
<path d="M342 186H140V188H342V186Z" fill="white"/>
<path d="M201.431 276.012L200 358L202 358.035L203.431 276.047L201.431 276.012Z" fill="white"/>
<path d="M346 295H140V297H346V295Z" fill="white"/>
<path d="M347 314H140V316H347V314Z" fill="white"/>
<path d="M139.035 333L139 335L346.968 338.622L347.003 336.623L139.035 333Z" fill="white"/>
<path d="M250.892 8.93207C242.874 3.27294 235.903 3.38603 230.995 4.85464C228.824 5.51032 226.945 6.90936 225.677 8.81333C224.409 10.7173 223.832 13.0084 224.042 15.2961L226.159 38.732L251.344 41C251.344 41 266.616 20.0304 250.892 8.93207ZM239.817 27.832C238.574 27.8323 237.36 27.4588 236.327 26.7588C235.294 26.0588 234.489 25.0637 234.013 23.8993C233.537 22.735 233.413 21.4537 233.655 20.2176C233.897 18.9814 234.496 17.8459 235.374 16.9547C236.253 16.0635 237.372 15.4567 238.59 15.2108C239.809 14.965 241.072 15.0914 242.22 15.5738C243.367 16.0563 244.348 16.8732 245.038 17.9213C245.728 18.9693 246.096 20.2015 246.096 21.4618C246.097 22.2989 245.935 23.128 245.62 23.9017C245.305 24.6754 244.842 25.3785 244.259 25.9708C243.676 26.5631 242.984 27.033 242.221 27.3537C241.459 27.6744 240.642 27.8396 239.817 27.8398V27.832Z" fill="#455A64"/>
<path d="M228.632 29C228.473 29.0007 228.319 28.9447 228.202 28.8431C228.084 28.7415 228.01 28.6015 227.995 28.4507L227.644 24.7956C227.627 24.7121 227.628 24.6259 227.647 24.5427C227.667 24.4595 227.704 24.3811 227.758 24.3128C227.811 24.2444 227.879 24.1875 227.958 24.1459C228.036 24.1042 228.122 24.0787 228.211 24.071C228.3 24.0632 228.39 24.0735 228.475 24.1011C228.56 24.1286 228.637 24.1729 228.703 24.2309C228.768 24.289 228.82 24.3596 228.855 24.4381C228.89 24.5165 228.908 24.6012 228.906 24.6864L229.258 28.3415C229.273 28.5009 229.22 28.6593 229.113 28.7824C229.006 28.9054 228.852 28.9831 228.684 28.9985L228.632 29ZM227.945 21.837C227.786 21.8377 227.633 21.7817 227.515 21.6801C227.397 21.5784 227.323 21.4385 227.308 21.2877L227.041 18.5126C226.835 16.3786 227.411 14.2426 228.671 12.4671C229.931 10.6916 231.797 9.38594 233.952 8.77176C237.07 7.8912 240.368 7.76191 243.552 8.39547C243.702 8.44004 243.831 8.53645 243.911 8.66598C243.992 8.7955 244.019 8.9489 243.987 9.09638C243.956 9.24387 243.868 9.37493 243.74 9.4641C243.613 9.55328 243.455 9.59421 243.298 9.57894C240.318 8.98545 237.23 9.10588 234.31 9.92943C232.437 10.4655 230.817 11.6019 229.723 13.146C228.629 14.6901 228.13 16.5469 228.309 18.4019L228.583 21.1785C228.597 21.3376 228.545 21.4957 228.437 21.6184C228.33 21.7411 228.176 21.8185 228.009 21.8339L227.945 21.837Z" fill="#BDD0FB"/>
<path d="M191 54.2542V42.3006C191 41.3209 191.194 40.3512 191.57 39.4492C191.947 38.5473 192.498 37.7316 193.191 37.0507C193.884 36.3698 194.705 35.8378 195.605 35.4862C196.505 35.1346 197.465 34.9707 198.429 35.0043L279.587 37.8354C281.325 37.8956 282.979 38.6127 284.224 39.8463C285.47 41.0799 286.218 42.7414 286.322 44.5058L287 56L191 54.2542Z" fill="#455A64"/>
<path d="M222.346 39H218.654C218.481 39 218.314 38.9473 218.192 38.8536C218.069 38.7598 218 38.6326 218 38.5C218 38.3674 218.069 38.2402 218.192 38.1465C218.314 38.0527 218.481 38 218.654 38H222.346C222.519 38 222.686 38.0527 222.808 38.1465C222.931 38.2402 223 38.3674 223 38.5C223 38.6326 222.931 38.7598 222.808 38.8536C222.686 38.9473 222.519 39 222.346 39Z" fill="#BDD0FB"/>
<path d="M195.615 50C195.452 50 195.296 49.935 195.18 49.8194C195.065 49.7038 195 49.547 195 49.3835V44.6442C195.002 42.8826 195.702 41.1938 196.945 39.9482C198.189 38.7027 199.874 38.002 201.632 38H214.385C214.548 38 214.704 38.065 214.82 38.1806C214.935 38.2962 215 38.453 215 38.6165C215 38.78 214.935 38.9368 214.82 39.0524C214.704 39.168 214.548 39.233 214.385 39.233H201.632C200.199 39.2346 198.824 39.8058 197.811 40.8214C196.797 41.837 196.226 43.214 196.224 44.6504V49.3928C196.222 49.5536 196.157 49.7071 196.043 49.8206C195.929 49.934 195.776 49.9984 195.615 50Z" fill="#BDD0FB"/>
<path d="M158.32 57.2959C158.416 55.3287 159.26 53.4739 160.678 52.1157C162.096 50.7576 163.979 50 165.937 50H307.443C309.907 49.9999 312.293 50.8755 314.178 52.4722C316.064 54.0689 317.328 56.2841 317.748 58.7271L317.868 59.4225C318.092 60.7202 318.03 62.0514 317.689 63.3228C317.347 64.5941 316.733 65.7749 315.89 66.7826C315.047 67.7902 313.995 68.6003 312.808 69.156C311.621 69.7118 310.328 69.9998 309.018 70H163.84C163.049 70.0001 162.267 69.8387 161.54 69.5256C160.814 69.2125 160.158 68.7543 159.612 68.1787C159.067 67.603 158.643 66.922 158.367 66.1768C158.091 65.4316 157.969 64.6378 158.007 63.8435L158.32 57.2959Z" fill="#41435D"/>
<path d="M163 85L162.348 90.156H152.807L149.144 120H142.928L146.565 90.156H137L137.626 85H163Z" fill="white"/>
<path d="M188 120H183.087C182.532 120 182.091 119.872 181.766 119.612C181.437 119.353 181.218 118.983 181.149 118.572L179.683 111.262H166.511L163.235 118.572C163.031 118.971 162.729 119.313 162.356 119.565C161.958 119.852 161.478 120.004 160.987 120H156L173.086 85H179.562L188 120ZM168.493 106.833H178.784L176.388 94.8508C176.258 94.2706 176.128 93.6599 175.998 93.0187C175.867 92.3774 175.745 91.6512 175.631 90.8399C175.322 91.6471 175.017 92.3937 174.715 93.0797C174.412 93.7657 174.131 94.3668 173.871 94.8828L168.493 106.833Z" fill="white"/>
<path d="M200.871 101.319L192.79 85.0107H198.632C199.061 85.0107 199.372 85.0702 199.563 85.1923C199.781 85.3471 199.949 85.5588 200.047 85.8028L205.565 97.8775C205.739 97.5252 205.938 97.1855 206.162 96.8609L213.792 85.8715C214.191 85.2895 214.679 84.999 215.258 85H222L209.771 101.026L218.794 119.997H213.026C212.843 120.007 212.661 119.983 212.488 119.925C212.315 119.867 212.156 119.776 212.019 119.658C211.787 119.443 211.598 119.188 211.46 118.907L205.221 104.897C205.138 105.027 205.064 105.156 204.986 105.285C204.908 105.413 204.829 105.543 204.749 105.672L195.455 118.91C195.229 119.265 194.912 119.557 194.535 119.757C194.194 119.922 193.818 120.005 193.437 120H187L200.871 101.319Z" fill="white"/>
<path d="M216.468 194.742C215.352 234.574 211.732 371.97 213.46 420.659C213.642 425.816 218.317 429.956 224.143 430.125C252.981 430.96 358.693 433.077 405.862 431.326C415.687 430.96 423.499 423.921 423.702 415.224C424.684 373.415 426.845 255.822 421.706 201.955C421.087 195.5 415.358 190.36 408.081 189.715C376.677 186.93 270.508 180.143 229.757 182.482C222.406 182.903 216.649 188.23 216.468 194.742Z" fill="#6667AB"/>
<path d="M397.261 201H235.739C229.256 201 224 206.23 224 212.681V246.319C224 252.77 229.256 258 235.739 258H397.261C403.744 258 409 252.77 409 246.319V212.681C409 206.23 403.744 201 397.261 201Z" fill="#6364A0"/>
<path opacity="0.2" d="M399.828 212.712C399.124 211.988 398.283 211.409 397.354 211.009C396.425 210.609 395.426 210.394 394.413 210.378L243.929 208.001C241.989 207.973 240.111 208.672 238.667 209.959C237.222 211.246 236.319 213.027 236.136 214.947L233.01 248.14C232.754 250.858 237.252 253.147 242.985 253.216L390.937 254.998C396.661 255.067 401.394 252.897 401.442 250.18L401.999 218.171C402.015 217.164 401.832 216.163 401.46 215.227C401.087 214.29 400.533 213.435 399.828 212.712Z" fill="white"/>
<path d="M265 293C265 295.917 263.854 298.715 261.814 300.778C259.773 302.841 257.006 304 254.121 304H240.879C237.994 304 235.227 302.841 233.186 300.778C231.146 298.715 230 295.917 230 293C230 290.083 231.146 287.285 233.186 285.222C235.227 283.159 237.994 282 240.879 282H254.115C257 282 259.767 283.159 261.807 285.222C263.848 287.285 264.994 290.083 264.994 293H265Z" fill="#484981"/>
<path d="M314 293C314 295.917 312.854 298.715 310.814 300.778C308.773 302.841 306.006 304 303.121 304H289.879C286.994 304 284.227 302.841 282.186 300.778C280.146 298.715 279 295.917 279 293C279 290.083 280.146 287.285 282.186 285.222C284.227 283.159 286.994 282 289.879 282H303.121C306.006 282 308.773 283.159 310.814 285.222C312.854 287.285 314 290.083 314 293Z" fill="#484981"/>
<path d="M361 293C361 295.917 359.853 298.715 357.813 300.778C355.773 302.84 353.006 304 350.121 304H336.877C333.992 304 331.226 302.84 329.186 300.778C327.146 298.715 326 295.917 326 293C326 290.083 327.146 287.285 329.186 285.222C331.226 283.159 333.992 282 336.877 282H350.121C353.006 282 355.773 283.159 357.813 285.222C359.853 287.285 361 290.083 361 293Z" fill="#484981"/>
<path d="M408 293.999C408 296.917 406.832 299.715 404.753 301.778C402.675 303.841 399.855 305 396.915 305H384.083C381.143 305 378.324 303.84 376.246 301.777C374.168 299.714 373 296.917 373 293.999C373 292.555 373.287 291.124 373.844 289.79C374.401 288.456 375.217 287.243 376.246 286.222C377.275 285.2 378.497 284.39 379.842 283.837C381.186 283.285 382.628 283 384.083 283H396.915C399.855 283 402.674 284.159 404.753 286.222C406.832 288.284 408 291.082 408 293.999Z" fill="#484981"/>
<path d="M265 325.999C265 328.917 263.854 331.715 261.814 333.778C259.773 335.841 257.006 337 254.121 337H240.879C237.994 337 235.227 335.841 233.186 333.778C231.146 331.715 230 328.917 230 325.999C230 324.555 230.281 323.124 230.828 321.79C231.375 320.455 232.176 319.242 233.186 318.221C234.197 317.2 235.396 316.389 236.716 315.837C238.036 315.284 239.45 315 240.879 315H254.115C255.543 315 256.958 315.284 258.278 315.837C259.598 316.389 260.797 317.2 261.807 318.221C262.818 319.242 263.619 320.455 264.166 321.79C264.712 323.124 264.994 324.555 264.994 325.999H265Z" fill="#484981"/>
<path d="M314 325.999C314 328.917 312.854 331.715 310.814 333.778C308.773 335.841 306.006 337 303.121 337H289.879C286.994 337 284.227 335.841 282.186 333.778C280.146 331.715 279 328.917 279 325.999C279 324.555 279.281 323.124 279.828 321.79C280.375 320.455 281.176 319.242 282.186 318.221C283.197 317.2 284.396 316.389 285.716 315.837C287.036 315.284 288.45 315 289.879 315H303.121C304.55 315 305.964 315.284 307.284 315.837C308.604 316.389 309.803 317.2 310.814 318.221C311.824 319.242 312.625 320.455 313.172 321.79C313.719 323.124 314 324.555 314 325.999Z" fill="#484981"/>
<path d="M361 325.999C361 328.917 359.853 331.715 357.813 333.777C355.773 335.84 353.006 337 350.121 337H336.877C333.992 337 331.226 335.84 329.186 333.777C327.146 331.714 326 328.917 326 325.999C326 323.082 327.146 320.284 329.186 318.222C331.226 316.159 333.993 315 336.877 315H350.121C353.006 315 355.773 316.159 357.813 318.222C359.853 320.284 361 323.082 361 325.999Z" fill="#484981"/>
<path d="M409 325.999C409 328.917 407.853 331.715 405.813 333.777C403.773 335.84 401.006 337 398.121 337H384.877C381.992 337 379.226 335.84 377.186 333.777C375.146 331.714 374 328.917 374 325.999C374 323.082 375.146 320.284 377.186 318.222C379.226 316.159 381.993 315 384.877 315H398.121C401.006 315 403.773 316.159 405.813 318.222C407.853 320.284 409 323.082 409 325.999Z" fill="#484981"/>
<path opacity="0.63" d="M265 356C265 358.917 263.854 361.715 261.814 363.778C259.773 365.841 257.006 367 254.121 367H240.879C237.994 367 235.227 365.841 233.186 363.778C231.146 361.715 230 358.917 230 356C230 353.083 231.146 350.285 233.186 348.222C235.227 346.159 237.994 345 240.879 345H254.115C257 345 259.767 346.159 261.807 348.222C263.848 350.285 264.994 353.083 264.994 356H265Z" fill="#484981"/>
<path opacity="0.63" d="M314 356C314 358.917 312.854 361.715 310.814 363.778C308.773 365.841 306.006 367 303.121 367H289.879C286.994 367 284.227 365.841 282.186 363.778C280.146 361.715 279 358.917 279 356C279 353.083 280.146 350.285 282.186 348.222C284.227 346.159 286.994 345 289.879 345H303.121C306.006 345 308.773 346.159 310.814 348.222C312.854 350.285 314 353.083 314 356Z" fill="#484981"/>
<path opacity="0.63" d="M361 356C361 358.917 359.853 361.715 357.813 363.778C355.773 365.841 353.006 367 350.121 367H336.877C333.992 367 331.226 365.84 329.186 363.778C327.146 361.715 326 358.917 326 356C326 353.083 327.146 350.285 329.186 348.222C331.226 346.16 333.992 345 336.877 345H350.121C353.006 345 355.773 346.159 357.813 348.222C359.853 350.285 361 353.083 361 356Z" fill="#484981"/>
<path opacity="0.63" d="M265 389.007C264.999 390.452 264.717 391.882 264.169 393.216C263.622 394.55 262.82 395.763 261.809 396.783C260.798 397.804 259.599 398.614 258.278 399.166C256.958 399.718 255.543 400.001 254.115 400H240.879C239.45 400 238.036 399.716 236.716 399.163C235.396 398.611 234.197 397.8 233.186 396.779C232.176 395.758 231.375 394.545 230.828 393.21C230.281 391.876 230 390.445 230 389.001C230 386.083 231.146 383.285 233.186 381.222C235.227 379.159 237.994 378 240.879 378H254.115C257 378 259.767 379.159 261.807 381.222C263.848 383.285 264.994 386.083 264.994 389.001L265 389.007Z" fill="#484981"/>
<path opacity="0.63" d="M314 389.001C314 390.445 313.719 391.876 313.172 393.21C312.625 394.545 311.824 395.758 310.814 396.779C309.803 397.8 308.604 398.611 307.284 399.163C305.964 399.716 304.55 400 303.121 400H289.879C288.45 400 287.036 399.716 285.716 399.163C284.396 398.611 283.197 397.8 282.186 396.779C281.176 395.758 280.375 394.545 279.828 393.21C279.281 391.876 279 390.445 279 389.001C279 386.083 280.146 383.285 282.186 381.222C284.227 379.159 286.994 378 289.879 378H303.121C306.006 378 308.773 379.159 310.814 381.222C312.854 383.285 314 386.083 314 389.001Z" fill="#484981"/>
<path opacity="0.63" d="M361 389.001C361 391.918 359.853 394.716 357.813 396.779C355.773 398.841 353.006 400 350.121 400H336.877C333.993 400 331.226 398.841 329.186 396.778C327.146 394.716 326 391.918 326 389.001C326 386.083 327.146 383.286 329.186 381.223C331.226 379.16 333.992 378 336.877 378H350.121C353.006 378 355.773 379.16 357.813 381.223C359.853 383.285 361 386.083 361 389.001Z" fill="#484981"/>
<path d="M390.414 348H389.586C382.083 348 376 354.06 376 361.535V387.465C376 394.94 382.083 401 389.586 401H390.414C397.917 401 404 394.94 404 387.465V361.535C404 354.06 397.917 348 390.414 348Z" fill="#484981"/>
<g opacity="0.7">
<path d="M385.997 217.5C385.997 218.163 385.756 218.799 385.326 219.268C384.896 219.737 384.313 220 383.705 220H377.292C376.684 220 376.101 219.737 375.671 219.268C375.241 218.799 375 218.163 375 217.5C375 216.837 375.241 216.201 375.671 215.732C376.101 215.263 376.684 215 377.292 215H383.708C384.009 215 384.307 215.065 384.585 215.19C384.863 215.316 385.116 215.5 385.329 215.732C385.542 215.964 385.71 216.24 385.826 216.543C385.941 216.847 386 217.172 386 217.5H385.997Z" fill="white"/>
<path d="M385.997 248.501C385.997 249.164 385.756 249.799 385.326 250.268C384.896 250.737 384.313 251 383.705 251H377.292C376.684 251 376.101 250.737 375.671 250.268C375.241 249.799 375 249.164 375 248.501C375 248.172 375.059 247.847 375.174 247.544C375.289 247.241 375.458 246.965 375.671 246.733C375.883 246.5 376.136 246.316 376.414 246.19C376.692 246.065 376.991 246 377.292 246H383.708C384.009 246 384.308 246.065 384.586 246.19C384.864 246.316 385.116 246.5 385.329 246.733C385.542 246.965 385.711 247.241 385.826 247.544C385.941 247.847 386 248.172 386 248.501H385.997Z" fill="white"/>
<path d="M376 229.707C376 230.315 375.737 230.898 375.268 231.328C374.799 231.758 374.162 232 373.499 232C372.836 232 372.201 231.758 371.732 231.328C371.263 230.898 371 230.315 371 229.707V223.291C371 222.684 371.263 222.101 371.732 221.671C372.201 221.241 372.836 221 373.499 221C373.828 221 374.153 221.059 374.456 221.174C374.759 221.289 375.035 221.458 375.267 221.671C375.5 221.883 375.684 222.136 375.81 222.414C375.935 222.692 376 222.99 376 223.291V229.707Z" fill="white"/>
<path d="M376 242.708C376 243.009 375.935 243.308 375.81 243.586C375.684 243.864 375.5 244.117 375.267 244.329C375.035 244.542 374.759 244.711 374.456 244.826C374.153 244.941 373.828 245 373.499 245C372.836 245 372.201 244.759 371.732 244.329C371.263 243.899 371 243.316 371 242.708V236.292C371 235.684 371.263 235.101 371.732 234.671C372.201 234.241 372.836 234 373.499 234C373.828 234 374.153 234.059 374.456 234.174C374.759 234.289 375.035 234.458 375.267 234.671C375.5 234.884 375.684 235.136 375.81 235.414C375.935 235.692 376 235.991 376 236.292V242.708Z" fill="white"/>
<path d="M392 229.707C392 230.315 391.737 230.898 391.268 231.328C390.799 231.758 390.162 232 389.499 232C388.836 232 388.201 231.758 387.732 231.328C387.263 230.898 387 230.315 387 229.707V223.291C387 222.684 387.263 222.101 387.732 221.671C388.201 221.241 388.836 221 389.499 221C389.828 221 390.153 221.059 390.456 221.174C390.759 221.289 391.035 221.458 391.267 221.671C391.5 221.883 391.684 222.136 391.81 222.414C391.935 222.692 392 222.99 392 223.291V229.707Z" fill="white"/>
<path d="M392 242.708C392 243.009 391.935 243.308 391.81 243.586C391.684 243.864 391.5 244.117 391.267 244.329C391.035 244.542 390.759 244.711 390.456 244.826C390.153 244.941 389.828 245 389.499 245C388.836 245 388.201 244.759 387.732 244.329C387.263 243.899 387 243.316 387 242.708V236.292C387 235.684 387.263 235.101 387.732 234.671C388.201 234.241 388.836 234 389.499 234C389.828 234 390.153 234.059 390.456 234.174C390.759 234.289 391.035 234.458 391.267 234.671C391.5 234.884 391.684 235.136 391.81 235.414C391.935 235.692 392 235.991 392 236.292V242.708Z" fill="white"/>
</g>
<path d="M290.555 134.715C294.427 124.075 288.938 112.322 278.295 108.462C267.651 104.602 255.884 110.097 252.011 120.736C248.139 131.375 253.628 143.129 264.272 146.989C274.915 150.849 286.683 145.354 290.555 134.715Z" fill="#6364A0"/>
<path d="M284.416 141.738C292.032 134.123 292.02 121.787 284.391 114.186C276.762 106.585 264.404 106.596 256.789 114.211C249.173 121.827 249.185 134.162 256.814 141.763C264.443 149.364 276.801 149.353 284.416 141.738Z" fill="#6667AB"/>
<path opacity="0.78" d="M252.856 124.976C252.753 125.004 252.644 125.008 252.539 124.985C252.364 124.95 252.211 124.847 252.112 124.7C252.014 124.553 251.978 124.373 252.013 124.2C252.721 120.732 254.392 117.529 256.839 114.951C259.285 112.372 262.41 110.52 265.862 109.604C266.987 109.301 268.138 109.099 269.3 109C269.473 108.994 269.642 109.054 269.772 109.168C269.902 109.281 269.983 109.44 269.998 109.611C270.012 109.782 269.96 109.952 269.851 110.086C269.743 110.22 269.586 110.307 269.414 110.33C268.333 110.422 267.262 110.61 266.214 110.891C263.004 111.743 260.097 113.466 257.822 115.865C255.546 118.263 253.992 121.243 253.334 124.468C253.309 124.588 253.251 124.699 253.167 124.789C253.083 124.878 252.975 124.943 252.856 124.976Z" fill="white"/>
<path opacity="0.78" d="M283.045 139.624C289.488 133.181 289.479 122.743 283.023 116.311C276.568 109.879 266.111 109.889 259.667 116.333C253.224 122.776 253.233 133.214 259.689 139.646C266.144 146.078 276.601 146.068 283.045 139.624Z" fill="white"/>
<path d="M272.923 141.212L272.44 139.443C270.57 139.871 268.62 139.93 267.165 139.714C266.913 139.674 266.684 139.545 266.52 139.351C266.355 139.158 266.266 138.911 266.268 138.658V136.888C266.269 136.736 266.302 136.585 266.366 136.446C266.43 136.308 266.523 136.184 266.639 136.084C266.755 135.985 266.891 135.911 267.037 135.867C267.184 135.824 267.339 135.812 267.49 135.833C269.114 136.061 270.767 135.967 272.354 135.556C274.138 135.073 275.304 134.112 274.967 132.877C274.663 131.763 273.455 131.379 270.796 131.387C266.998 131.387 264.042 130.53 263.197 127.428C262.434 124.627 263.908 121.943 267.317 120.399L266.836 118.629C266.762 118.356 266.799 118.065 266.941 117.819C267.082 117.573 267.315 117.394 267.59 117.319L268.634 117.037C268.909 116.963 269.202 117.001 269.448 117.142C269.695 117.283 269.875 117.516 269.95 117.789L270.382 119.377C271.736 119.047 273.133 118.926 274.523 119.016C274.792 119.038 275.042 119.16 275.224 119.357C275.406 119.554 275.506 119.813 275.505 120.081V121.717C275.506 121.866 275.475 122.013 275.415 122.149C275.354 122.286 275.266 122.408 275.155 122.508C275.045 122.608 274.914 122.684 274.772 122.731C274.63 122.778 274.48 122.794 274.331 122.779C272.967 122.645 271.589 122.762 270.267 123.126C268.151 123.698 267.785 124.734 267.997 125.516C268.26 126.48 269.71 126.8 272.69 126.898C276.939 127.011 279.014 128.196 279.808 131.116C280.538 133.796 279.2 136.744 275.496 138.391L276.034 140.371C276.071 140.506 276.081 140.647 276.063 140.786C276.045 140.926 276 141.06 275.93 141.182C275.86 141.303 275.767 141.41 275.655 141.496C275.544 141.581 275.416 141.644 275.28 141.681L274.237 141.963C273.963 142.037 273.671 141.999 273.424 141.858C273.178 141.718 272.998 141.485 272.923 141.212Z" fill="#6667AB"/>
<path d="M334.089 94.2485C346.977 81.3612 346.958 60.486 334.047 47.6224C321.135 34.7589 300.222 34.7782 287.335 47.6655C274.447 60.5528 274.466 81.428 287.377 94.2915C300.288 107.155 321.202 107.136 334.089 94.2485Z" fill="#6364A0"/>
<path d="M332.966 93.544C345.462 81.0472 345.444 60.8046 332.924 48.3309C320.404 35.8571 300.124 35.8758 287.627 48.3726C275.131 60.8694 275.149 81.112 287.669 93.5857C300.189 106.059 320.469 106.041 332.966 93.544Z" fill="#6667AB"/>
<path opacity="0.78" d="M281.781 64.978C281.688 65.0037 281.589 65.007 281.495 64.9873C281.334 64.9535 281.193 64.8576 281.103 64.7204C281.013 64.5832 280.98 64.4158 281.012 64.2547C282.127 58.7235 284.761 53.6138 288.618 49.5004C292.474 45.387 297.4 42.4331 302.842 40.9711C304.616 40.4886 306.43 40.1672 308.262 40.0108C308.347 39.9947 308.435 39.9966 308.52 40.0166C308.605 40.0366 308.685 40.0742 308.754 40.1269C308.823 40.1796 308.881 40.2463 308.923 40.3227C308.965 40.399 308.99 40.4834 308.998 40.5702C309.005 40.6571 308.994 40.7446 308.966 40.827C308.938 40.9094 308.892 40.985 308.833 41.0487C308.773 41.1125 308.701 41.1631 308.621 41.1972C308.541 41.2314 308.455 41.2483 308.368 41.247C306.609 41.3972 304.868 41.706 303.165 42.1698C297.946 43.5724 293.221 46.406 289.522 50.3516C285.823 54.2973 283.296 59.1986 282.226 64.5041C282.203 64.6165 282.149 64.7202 282.07 64.8038C281.991 64.8874 281.891 64.9477 281.781 64.978Z" fill="white"/>
<path opacity="0.78" d="M330.346 90.0215C340.89 79.4773 340.874 62.3976 330.311 51.8729C319.747 41.3482 302.636 41.364 292.092 51.9081C281.548 62.4523 281.563 79.532 292.127 90.0567C302.691 100.581 319.802 100.566 330.346 90.0215Z" fill="white"/>
<path d="M313.76 90.7463L312.994 87.9156C310.021 88.5979 306.926 88.6932 304.615 88.349C304.216 88.2847 303.852 88.0788 303.591 87.7687C303.329 87.4586 303.187 87.0648 303.19 86.6585V83.8278C303.19 83.5835 303.243 83.3421 303.344 83.1199C303.446 82.8978 303.593 82.6999 303.777 82.5398C303.961 82.3796 304.176 82.2608 304.41 82.1914C304.643 82.122 304.889 82.1036 305.13 82.1374C307.411 82.4447 310.125 82.4355 312.854 81.6917C315.686 80.9233 317.537 79.3866 317.003 77.4072C316.522 75.6246 314.604 75.0099 310.381 75.0206C304.349 75.0083 299.652 73.6498 298.312 68.6876C297.101 64.2064 299.441 59.8973 304.856 57.4401L304.09 54.6078C304.032 54.3913 304.016 54.1652 304.044 53.9427C304.073 53.7201 304.145 53.5053 304.256 53.3106C304.367 53.1159 304.515 52.9452 304.692 52.8081C304.869 52.671 305.072 52.5703 305.287 52.5117L306.944 52.0599C307.16 52.001 307.385 51.9853 307.607 52.0138C307.829 52.0424 308.043 52.1145 308.237 52.2261C308.431 52.3377 308.601 52.4866 308.738 52.6643C308.875 52.8419 308.975 53.0449 309.034 53.2616L309.72 55.8034C312.475 55.1718 314.578 55.0996 316.303 55.2271C316.729 55.2616 317.125 55.4562 317.414 55.772C317.703 56.0877 317.862 56.5013 317.86 56.9299V59.5424C317.861 59.7805 317.811 60.016 317.716 60.2339C317.62 60.4517 317.48 60.647 317.304 60.8071C317.129 60.9672 316.921 61.0887 316.696 61.1636C316.471 61.2385 316.233 61.2652 315.997 61.242C313.83 61.027 311.642 61.2145 309.542 61.7953C306.183 62.7173 305.6 64.3693 305.938 65.6218C306.356 67.1585 308.657 67.6749 313.389 67.8347C320.138 68.0145 323.433 69.9093 324.696 74.5826C325.855 78.8717 323.728 83.5881 317.845 86.2251L318.702 89.3924C318.82 89.8301 318.76 90.2968 318.535 90.6901C318.31 91.0833 317.939 91.371 317.503 91.4901L315.847 91.9404C315.412 92.0587 314.949 91.9995 314.558 91.7757C314.167 91.5519 313.88 91.1818 313.76 90.7463Z" fill="#6667AB"/>
<path d="M376.213 159.953C389.491 146.675 389.471 125.167 376.169 111.914C362.867 98.6607 341.319 98.6805 328.042 111.958C314.764 125.236 314.784 146.744 328.086 159.997C341.388 173.251 362.936 173.231 376.213 159.953Z" fill="#6364A0"/>
<path d="M375.089 159.248C387.977 146.361 387.958 125.486 375.047 112.622C362.135 99.7589 341.222 99.7782 328.335 112.665C315.447 125.553 315.466 146.428 328.377 159.292C341.288 172.155 362.202 172.136 375.089 159.248Z" fill="#6667AB"/>
<path opacity="0.78" d="M322.763 129.979C322.672 130.004 322.576 130.007 322.483 129.988C322.326 129.955 322.189 129.861 322.1 129.728C322.012 129.594 321.98 129.431 322.012 129.274C323.132 123.736 325.778 118.62 329.653 114.501C333.529 110.383 338.479 107.425 343.946 105.962C345.73 105.479 347.553 105.157 349.395 105C349.547 105.001 349.693 105.058 349.805 105.161C349.916 105.264 349.985 105.405 349.998 105.556C350.011 105.707 349.966 105.858 349.874 105.978C349.781 106.098 349.646 106.179 349.497 106.205C347.728 106.356 345.977 106.665 344.264 107.129C339.013 108.535 334.26 111.375 330.538 115.33C326.816 119.285 324.274 124.199 323.198 129.517C323.175 129.627 323.122 129.728 323.046 129.809C322.969 129.89 322.871 129.949 322.763 129.979Z" fill="white"/>
<path opacity="0.74" d="M373.47 155.726C384.405 144.791 384.388 127.079 373.433 116.165C362.479 105.25 344.734 105.266 333.799 116.201C322.864 127.136 322.881 144.848 333.835 155.762C344.79 166.677 362.535 166.661 373.47 155.726Z" fill="white"/>
<path d="M355.354 156.734L354.561 153.825C351.474 154.525 348.265 154.623 345.867 154.269C345.453 154.204 345.076 153.993 344.805 153.675C344.534 153.357 344.387 152.954 344.39 152.538V149.628C344.391 149.379 344.446 149.132 344.551 148.905C344.656 148.679 344.809 148.476 344.999 148.313C345.188 148.149 345.411 148.027 345.653 147.956C345.894 147.884 346.147 147.865 346.397 147.898C348.765 148.205 351.58 148.205 354.41 147.439C357.343 146.649 359.269 145.07 358.715 143.046C358.216 141.218 356.225 140.587 351.844 140.597C345.586 140.584 340.715 139.191 339.324 134.103C338.067 129.51 340.494 125.091 346.116 122.572L345.322 119.663C345.202 119.217 345.264 118.741 345.495 118.339C345.726 117.938 346.108 117.643 346.557 117.52L348.277 117.061C348.727 116.94 349.207 117.001 349.612 117.231C350.017 117.46 350.314 117.839 350.438 118.285L351.15 120.888C354.004 120.241 356.189 120.166 357.975 120.296C358.417 120.331 358.828 120.531 359.128 120.854C359.427 121.178 359.592 121.602 359.59 122.041V124.725C359.591 124.969 359.54 125.211 359.441 125.434C359.341 125.658 359.196 125.858 359.014 126.023C358.832 126.187 358.617 126.312 358.383 126.389C358.15 126.465 357.902 126.493 357.657 126.469C355.409 126.249 353.139 126.441 350.961 127.037C347.476 127.974 346.871 129.675 347.223 130.96C347.655 132.54 350.043 133.064 354.953 133.227C361.953 133.411 365.371 135.356 366.684 140.146C367.887 144.542 365.681 149.377 359.584 152.089L360.473 155.336C360.593 155.784 360.53 156.261 360.298 156.662C360.065 157.064 359.681 157.358 359.23 157.48L357.511 157.939C357.064 158.059 356.587 158 356.184 157.775C355.78 157.549 355.482 157.176 355.354 156.734Z" fill="#6667AB"/>
<path d="M384.334 95.7537C399.243 92.8557 409.014 78.6418 406.159 64.006C403.304 49.3702 388.904 39.8548 373.995 42.7528C359.086 45.6507 349.315 59.8647 352.17 74.5004C355.025 89.1362 369.425 98.6516 384.334 95.7537Z" fill="#6364A0"/>
<path d="M397.284 88.6692C407.633 78.3203 407.617 61.5569 397.249 51.2271C386.882 40.8973 370.087 40.9128 359.738 51.2617C349.389 61.6106 349.405 78.374 359.773 88.7038C370.141 99.0336 386.935 99.0181 397.284 88.6692Z" fill="#6667AB"/>
<path opacity="0.78" d="M354.841 65.9767C354.731 66.0068 354.615 66.0077 354.505 65.9794C354.395 65.9511 354.293 65.8945 354.21 65.8149C354.127 65.7354 354.066 65.6355 354.031 65.5249C353.997 65.4142 353.991 65.2964 354.013 65.1826C354.925 60.5785 357.077 56.3253 360.227 52.9013C363.378 49.4773 367.402 47.0185 371.848 45.8013C373.298 45.4002 374.78 45.1328 376.277 45.0025C376.364 44.9949 376.452 45.0048 376.535 45.0319C376.619 45.0589 376.696 45.1024 376.763 45.1599C376.83 45.2174 376.885 45.2878 376.925 45.3671C376.966 45.4464 376.99 45.533 376.998 45.6219C377.005 45.7109 376.995 45.8005 376.969 45.8856C376.942 45.9707 376.9 46.0496 376.843 46.1179C376.787 46.1862 376.718 46.2425 376.64 46.2836C376.563 46.3247 376.478 46.3497 376.391 46.3573C374.974 46.4819 373.57 46.7356 372.198 47.1154C367.99 48.2665 364.18 50.5931 361.198 53.8334C358.215 57.0737 356.178 61.0991 355.315 65.4567C355.29 65.5795 355.233 65.693 355.15 65.7848C355.066 65.8765 354.959 65.9429 354.841 65.9767Z" fill="white"/>
<path opacity="0.78" d="M395.788 85.8512C404.575 77.0644 404.562 62.8314 395.759 54.0608C386.956 45.2902 372.697 45.3033 363.91 54.0901C355.123 62.8769 355.136 77.11 363.939 85.8806C372.742 94.6512 387.001 94.638 395.788 85.8512Z" fill="white"/>
<path d="M380.837 86.95L380.214 84.6154C377.788 85.179 375.268 85.2576 373.391 84.9727C373.067 84.9205 372.771 84.752 372.558 84.4979C372.345 84.2437 372.229 83.9205 372.23 83.5867V81.2521C372.231 81.0512 372.275 80.853 372.358 80.6708C372.441 80.4885 372.562 80.3263 372.711 80.1951C372.861 80.0639 373.037 79.9666 373.226 79.9099C373.416 79.8532 373.615 79.8382 373.811 79.8661C375.913 80.1655 378.052 80.0405 380.106 79.498C382.414 78.862 383.922 77.5931 383.487 75.9638C383.095 74.4946 381.531 73.9864 378.091 73.9972C373.174 73.9864 369.348 72.8653 368.254 68.7736C367.267 65.0776 369.175 61.5249 373.588 59.4983L372.962 57.1498C372.866 56.7891 372.915 56.4045 373.097 56.0803C373.28 55.7561 373.582 55.5187 373.937 55.4204L375.288 55.0492C375.464 55.0007 375.647 54.9879 375.828 55.0115C376.009 55.0351 376.183 55.0946 376.342 55.1867C376.5 55.2788 376.638 55.4017 376.75 55.5483C376.861 55.6948 376.943 55.8623 376.99 56.041L377.55 58.1369C379.792 57.6164 381.509 57.5563 382.911 57.6611C383.258 57.6894 383.582 57.8499 383.817 58.1104C384.052 58.3708 384.182 58.712 384.18 59.0655V61.2215C384.18 61.4176 384.14 61.6115 384.062 61.7909C383.984 61.9703 383.87 62.1312 383.728 62.2632C383.585 62.3951 383.416 62.4953 383.233 62.5573C383.05 62.6192 382.856 62.6416 382.664 62.6229C380.897 62.4473 379.114 62.6039 377.403 63.0849C374.665 63.8395 374.19 65.207 374.466 66.2403C374.806 67.5108 376.683 67.9343 380.54 68.0636C386.039 68.2176 388.727 69.7761 389.752 73.6307C390.697 77.1726 388.965 81.0565 384.17 83.2309L384.867 85.8489C384.915 86.0275 384.928 86.2139 384.905 86.3975C384.882 86.5812 384.823 86.7584 384.733 86.919C384.642 87.0797 384.521 87.2206 384.377 87.3337C384.233 87.4468 384.068 87.53 383.892 87.5783L382.541 87.951C382.365 87.9996 382.18 88.0122 381.999 87.9881C381.817 87.9641 381.642 87.9038 381.484 87.8107C381.326 87.7177 381.187 87.5937 381.076 87.446C380.965 87.2983 380.884 87.1297 380.837 86.95Z" fill="#6667AB"/>
</g>
<defs>
<clipPath id="clip0_2728_1733">
<rect width="429" height="432" fill="white"/>
</clipPath>
</defs>
</svg>
