<svg width="425" height="425" viewBox="0 0 425 425" fill="none" xmlns="http://www.w3.org/2000/svg">
<g clip-path="url(#clip0_2728_1834)">
<path d="M373.968 365.219C365.284 374.363 357.064 380.262 350.571 384.92C274.243 439.689 183.921 423.724 164.731 419.827C136.387 414.071 81.5979 402.942 41.9866 356.356C-17.944 285.875 -8.61223 174.844 37.8736 101.539C46.376 88.1307 91.2911 13.7167 182.581 1.7834C237.827 -5.43898 302.229 9.12626 348.864 48.2022C446.76 130.223 439.791 295.919 373.968 365.219Z" fill="#E8E8F2"/>
<path d="M304.889 242C304.889 242 303.654 189.721 327.691 175.729C351.728 161.738 397.448 152.99 399.164 77.9234C400.167 33.9763 401.252 14.7622 401.981 6.38391C402.048 5.62267 401.939 4.85609 401.661 4.14434C401.383 3.43259 400.944 2.79503 400.379 2.28171C399.813 1.76838 399.137 1.39325 398.402 1.18576C397.668 0.978273 396.895 0.944068 396.145 1.08583C373.374 5.38086 299.4 23.0633 283.89 73.6284C265.504 133.572 304.889 242 304.889 242Z" fill="#6667AB"/>
<path d="M378.391 22.2408C353.51 44.5144 324.751 83.9346 309.418 123.355C307.451 129.853 301.694 143.669 299.194 168.215C296.961 188.688 298.071 210.321 300.779 224.642C300.82 224.857 300.902 225.062 301.022 225.246C301.141 225.429 301.296 225.587 301.476 225.71C301.657 225.834 301.859 225.92 302.073 225.965C302.287 226.01 302.507 226.012 302.722 225.971C304.272 225.675 304.066 224 304.052 224.053C300.96 199.586 302.243 169.134 309.328 141.656C318.38 107.917 338.566 75.204 359.454 47.4626L361.604 44.7303C377.782 23.8722 381.188 23.718 379.675 22.2639C379.503 22.0986 379.276 22.0044 379.038 22.0002C378.8 21.9959 378.569 22.0818 378.391 22.2408Z" fill="#E8E8F2"/>
<path d="M275.218 336.957C271.96 338.551 306.063 295.768 316.746 228.577C321.78 196.915 321.846 157.244 339.931 141.956C354.979 129.233 406.182 137.265 422.936 140.319C423.405 140.403 423.84 140.62 424.191 140.942C424.542 141.265 424.793 141.68 424.916 142.14C425.038 142.6 425.027 143.085 424.883 143.539C424.74 143.993 424.469 144.396 424.104 144.702C416.067 151.435 398.883 167.311 394.405 183.314C388.496 204.406 368.397 217.821 350.402 221.451C332.407 225.081 322.397 228.605 313.631 257.314C304.865 286.023 284.476 332.428 275.218 336.957Z" fill="#ABABD1"/>
<path d="M398.566 150C377.305 150.898 354.483 160.677 342.901 179.023L341.808 180.773C339.284 184.878 324.975 214.058 317.029 238.246C316.981 238.391 316.993 238.549 317.06 238.685C317.128 238.822 317.247 238.925 317.39 238.973C317.53 239.017 317.682 239.006 317.814 238.943C317.946 238.879 318.05 238.767 318.104 238.629C323.639 224.964 331.593 207.639 337.926 194.684C344.718 180.547 349.472 170.973 364.964 161.803C382.208 151.927 398.681 150.91 398.634 150.919C398.743 150.896 398.84 150.834 398.907 150.744C398.974 150.654 399.007 150.543 398.999 150.431C398.991 150.318 398.943 150.213 398.863 150.134C398.784 150.054 398.679 150.007 398.568 150H398.566Z" fill="#E8E8F2"/>
<path d="M82 101.456C81.9998 98.2445 82.6314 95.0643 83.8588 92.0972C85.0862 89.1301 86.8853 86.4341 89.1534 84.1631C91.4215 81.8921 94.1142 80.0907 97.0777 78.8616C100.041 77.6326 103.217 77 106.425 77H314.153C319.671 77 324.979 79.1222 328.979 82.9281C332.979 86.734 335.365 91.9328 335.646 97.4503L350.979 398.972C351.088 401.1 350.768 403.227 350.038 405.229C349.309 407.23 348.185 409.064 346.734 410.621C345.282 412.179 343.533 413.428 341.589 414.296C339.646 415.163 337.548 415.63 335.421 415.669L97.341 419.998C95.3401 420.034 93.352 419.671 91.4928 418.929C89.6336 418.188 87.9406 417.083 86.5127 415.679C85.0848 414.275 83.9506 412.6 83.1763 410.753C82.402 408.905 82.0032 406.922 82.0031 404.918L82 101.456Z" fill="#41435D"/>
<path d="M131.421 414L105.014 413.658C96.1835 413.544 89 406.263 89 397.425V357.536C89.0075 357.391 89.0703 357.255 89.1752 357.155C89.2802 357.056 89.4194 357 89.5641 357C89.7088 357 89.848 357.056 89.9529 357.155C90.0579 357.255 90.1206 357.391 90.1281 357.536V397.428C90.1281 405.649 96.8126 412.424 105.028 412.531L131.437 412.873C131.586 412.873 131.729 412.932 131.835 413.038C131.941 413.144 132 413.287 132 413.436C132 413.586 131.941 413.729 131.835 413.835C131.729 413.941 131.586 414 131.437 414H131.421Z" fill="#91B3FA"/>
<path d="M89.4993 346C89.3671 346 89.2402 345.938 89.1467 345.827C89.0532 345.716 89.0007 345.565 89.0007 345.408V338.624C88.9971 338.544 89.0074 338.463 89.0309 338.388C89.0544 338.312 89.0907 338.243 89.1374 338.185C89.1841 338.126 89.2403 338.08 89.3027 338.048C89.365 338.016 89.4322 338 89.5 338C89.5679 338 89.635 338.016 89.6973 338.048C89.7597 338.08 89.8159 338.126 89.8626 338.185C89.9094 338.243 89.9456 338.312 89.9691 338.388C89.9926 338.463 90.0029 338.544 89.9993 338.624V345.408C89.9993 345.486 89.9864 345.563 89.9612 345.635C89.9361 345.707 89.8993 345.772 89.8528 345.827C89.8064 345.882 89.7512 345.926 89.6906 345.955C89.6299 345.985 89.5649 346 89.4993 346Z" fill="url(#paint0_linear_2728_1834)"/>
<path d="M99.0001 81.1491C98.9948 80.1321 99.2076 79.1258 99.6242 78.198C100.041 77.2703 100.651 76.4427 101.415 75.7711C102.179 75.0996 103.077 74.5996 104.05 74.305C105.023 74.0104 106.048 73.9279 107.056 74.0632C135.452 77.9146 233.094 89.8336 313.824 83.6291C314.698 83.5601 315.576 83.6668 316.407 83.9427C317.239 84.2185 318.007 84.6581 318.666 85.2355C319.325 85.8128 319.862 86.5163 320.245 87.3044C320.628 88.0925 320.849 88.9493 320.896 89.8244L336.989 392.72C337.096 394.714 336.409 396.67 335.079 398.16C333.749 399.649 331.883 400.552 329.89 400.67C295.936 402.68 156.105 410.449 106.232 405.223C104.766 405.069 103.409 404.378 102.421 403.285C101.432 402.191 100.882 400.771 100.875 399.297L99.0001 81.1491Z" fill="#455A64"/>
<path d="M102 88.8705C101.994 87.8929 102.198 86.9253 102.598 86.0333C102.998 85.1412 103.586 84.3455 104.321 83.6999C105.055 83.0543 105.921 82.574 106.857 82.2914C107.794 82.0088 108.781 81.9305 109.751 82.0619C137.072 85.7672 231.026 97.2106 308.704 91.2527C309.544 91.1877 310.389 91.2911 311.188 91.5568C311.988 91.8225 312.726 92.2451 313.359 92.7999C313.993 93.3547 314.509 94.0304 314.877 94.7873C315.246 95.5442 315.459 96.3671 315.504 97.2075L330.99 388.277C331.092 390.194 330.431 392.073 329.151 393.504C327.87 394.936 326.075 395.803 324.157 395.916C291.487 397.848 156.941 405.314 108.95 400.293C107.539 400.144 106.233 399.481 105.282 398.429C104.331 397.378 103.801 396.013 103.794 394.596L102 88.8705Z" fill="#E8E8F2"/>
<path opacity="0.78" d="M128.005 111.401L130.892 173.579C130.938 174.576 131.358 175.518 132.07 176.218C132.781 176.917 133.731 177.322 134.728 177.35C146.243 177.676 182.121 178.55 202.381 177.495C203.486 177.437 204.528 176.966 205.302 176.175C206.076 175.385 206.525 174.333 206.56 173.227C206.948 161.566 207.791 127.625 205.136 113.436C204.926 112.324 204.343 111.316 203.483 110.579C202.624 109.843 201.539 109.42 200.408 109.382L132.349 107.003C131.768 106.982 131.19 107.083 130.65 107.297C130.11 107.512 129.621 107.836 129.213 108.249C128.804 108.663 128.486 109.156 128.278 109.699C128.071 110.241 127.977 110.821 128.005 111.401Z" fill="white"/>
<g opacity="0.6">
<path d="M298.744 117.99C300.018 117.99 301.033 116.975 300.999 115.734C300.965 114.493 299.896 113.458 298.623 113.433L223.667 112C222.394 111.975 221.697 113.019 222.127 114.316L222.558 115.639C222.982 116.937 224.371 118 225.639 118L298.744 117.99Z" fill="white"/>
</g>
<g opacity="0.6">
<path d="M223.667 123C222.394 122.976 221.697 124.017 222.127 125.313L222.558 126.642C222.982 127.938 224.371 129 225.639 129H298.744C300.018 129 301.033 127.986 300.999 126.747C300.965 125.508 299.896 124.474 298.623 124.449L223.667 123Z" fill="white"/>
</g>
<g opacity="0.6">
<path d="M223.667 135C222.394 134.977 221.697 136.018 222.127 137.314L222.558 138.643C222.982 139.94 224.371 141 225.639 141H298.744C300.018 141 301.033 139.986 300.999 138.746C300.965 137.507 299.896 136.473 298.623 136.45L223.667 135Z" fill="white"/>
</g>
<g opacity="0.6">
<path d="M306.805 198C308.087 198 309.072 196.99 308.996 195.754C308.92 194.519 307.81 193.501 306.528 193.491L130.291 192C129.01 191.989 128.614 192.856 129.413 193.928L130.989 196.048C131.788 197.119 133.489 197.995 134.769 197.995L306.805 198Z" fill="white"/>
</g>
<g opacity="0.6">
<path d="M130.291 204C129.01 203.989 128.614 204.857 129.413 205.929L130.989 208.051C131.788 209.123 133.489 210 134.769 210H306.805C308.087 210 309.072 208.989 308.996 207.754C308.92 206.519 307.81 205.497 306.528 205.487L130.291 204Z" fill="white"/>
</g>
<path d="M129.613 222.526C133.862 222.208 141.821 222.061 146.202 222C147.103 221.987 147.981 222.273 148.694 222.812C149.406 223.351 149.91 224.111 150.122 224.966C150.966 228.389 152.132 234.332 151.988 240.629C151.968 241.535 151.584 242.397 150.918 243.028C150.252 243.659 149.358 244.008 148.43 244L132.258 243.83C131.298 243.819 130.376 243.461 129.67 242.826C128.964 242.191 128.524 241.324 128.434 240.39L127.013 225.54C126.977 225.175 127.017 224.806 127.129 224.456C127.241 224.106 127.423 223.781 127.665 223.5C127.907 223.22 128.204 222.989 128.538 222.822C128.873 222.654 129.238 222.554 129.613 222.526Z" fill="url(#paint1_linear_2728_1834)"/>
<g opacity="0.6">
<path d="M159.017 229.002C157.731 228.952 156.837 229.9 157.025 231.11L157.45 233.8C157.565 234.405 157.894 234.954 158.385 235.354C158.875 235.755 159.495 235.983 160.141 236H199.687C199.993 236 200.295 235.942 200.577 235.83C200.859 235.718 201.115 235.555 201.33 235.348C201.545 235.142 201.715 234.897 201.83 234.628C201.945 234.359 202.003 234.071 202 233.781L201.989 232.937C201.973 232.338 201.72 231.768 201.282 231.338C200.843 230.909 200.249 230.653 199.62 230.62L159.017 229.002Z" fill="white"/>
</g>
<path d="M216.612 222.526C220.862 222.208 228.821 222.061 233.201 222C234.102 221.987 234.981 222.273 235.694 222.812C236.406 223.351 236.91 224.111 237.121 224.966C237.967 228.389 239.134 234.332 238.987 240.629C238.968 241.535 238.584 242.397 237.918 243.028C237.252 243.659 236.358 244.008 235.43 244L219.257 243.83C218.298 243.819 217.376 243.461 216.67 242.826C215.964 242.191 215.524 241.324 215.434 240.39L214.012 225.54C213.977 225.175 214.017 224.806 214.129 224.456C214.241 224.106 214.424 223.781 214.666 223.501C214.908 223.22 215.204 222.99 215.539 222.822C215.873 222.655 216.238 222.554 216.612 222.526Z" fill="#6667AB"/>
<g opacity="0.6">
<path d="M246.018 229.002C244.73 228.952 243.838 229.9 244.025 231.11L244.45 233.8C244.564 234.405 244.894 234.953 245.384 235.354C245.874 235.754 246.495 235.983 247.141 236H286.686C286.991 236 287.294 235.942 287.576 235.83C287.858 235.718 288.114 235.555 288.329 235.348C288.545 235.142 288.715 234.897 288.83 234.629C288.945 234.36 289.003 234.072 289 233.781L288.987 232.937C288.972 232.338 288.719 231.768 288.28 231.338C287.841 230.909 287.248 230.653 286.619 230.62L246.018 229.002Z" fill="white"/>
</g>
<g opacity="0.6">
<path d="M124.16 274.393C124.71 275.94 126.603 277.015 128.76 277L304.464 275.889C306.452 275.876 308.042 274.659 307.999 273.184C307.956 271.75 306.382 270.602 304.45 270.595L128.741 270C125.634 269.993 123.364 272.17 124.16 274.393Z" fill="white"/>
</g>
<g opacity="0.6">
<path d="M124.16 306.393C124.71 307.94 126.603 309.013 128.76 309L304.464 307.888C306.452 307.876 308.042 306.659 307.999 305.184C307.956 303.75 306.382 302.601 304.45 302.595L128.741 302C125.634 301.99 123.364 304.167 124.16 306.393Z" fill="white"/>
</g>
<g opacity="0.6">
<path d="M124.16 338.389C124.71 339.938 126.603 341.013 128.76 341L304.464 339.886C306.452 339.873 308.042 338.655 307.999 337.179C307.956 335.743 306.382 334.594 304.45 334.588L128.741 334C125.634 333.982 123.364 336.161 124.16 338.389Z" fill="white"/>
</g>
<g opacity="0.6">
<path d="M124.16 369.392C124.71 370.94 126.603 372.015 128.76 372L304.464 370.885C306.452 370.872 308.042 369.655 307.999 368.179C307.956 366.744 306.382 365.596 304.45 365.588L128.737 365C125.634 364.985 123.364 367.164 124.16 369.392Z" fill="white"/>
</g>
<path d="M223.31 35.5321C215.764 30.3327 209.203 30.4357 204.584 31.7848C202.541 32.3875 200.772 33.6733 199.579 35.423C198.386 37.1728 197.842 39.2783 198.04 41.3808L200.032 62.9171L223.736 65C223.736 65 238.11 45.7311 223.31 35.5321ZM212.894 52.9074C211.725 52.9092 210.581 52.5674 209.608 51.9251C208.635 51.2829 207.876 50.3692 207.427 49.2995C206.978 48.2298 206.86 47.0523 207.087 45.916C207.314 44.7797 207.876 43.7356 208.702 42.9158C209.528 42.0961 210.582 41.5376 211.728 41.3109C212.875 41.0843 214.064 41.1997 215.145 41.6425C216.225 42.0854 217.149 42.8358 217.799 43.7988C218.449 44.7618 218.796 45.8942 218.796 47.0525C218.796 48.6037 218.174 50.0915 217.068 51.1893C215.961 52.287 214.46 52.9049 212.894 52.9074Z" fill="#455A64"/>
<path d="M202.434 55C202.295 54.9998 202.16 54.946 202.058 54.8493C201.955 54.7525 201.891 54.6197 201.879 54.477L201.576 50.9953C201.562 50.8435 201.608 50.6925 201.702 50.5754C201.797 50.4582 201.933 50.3847 202.08 50.3708C202.228 50.3569 202.374 50.4039 202.488 50.5014C202.602 50.5989 202.673 50.7389 202.687 50.8907L202.99 54.3724C202.997 54.4475 202.989 54.5234 202.968 54.5955C202.946 54.6677 202.911 54.7347 202.864 54.7927C202.817 54.8508 202.759 54.8987 202.694 54.9337C202.629 54.9688 202.558 54.9902 202.485 54.9969L202.434 55ZM201.827 48.1772C201.688 48.1773 201.554 48.1237 201.451 48.0269C201.348 47.93 201.285 47.797 201.272 47.6541L201.036 45.0124C200.855 42.9802 201.362 40.9461 202.472 39.2552C203.581 37.5643 205.225 36.3206 207.123 35.7353C209.87 34.8959 212.777 34.773 215.581 35.3777C215.72 35.4148 215.84 35.5054 215.915 35.6307C215.991 35.756 216.017 35.9065 215.989 36.0511C215.96 36.1957 215.878 36.3234 215.761 36.4079C215.643 36.4924 215.498 36.5271 215.357 36.505C212.732 35.9395 210.011 36.0543 207.44 36.8391C205.789 37.3485 204.36 38.4303 203.396 39.901C202.431 41.3717 201.991 43.1407 202.149 44.9078L202.384 47.5511C202.39 47.6262 202.383 47.702 202.361 47.7741C202.339 47.8461 202.304 47.9131 202.257 47.971C202.21 48.029 202.152 48.077 202.088 48.1121C202.023 48.1472 201.952 48.1687 201.879 48.1756L201.827 48.1772Z" fill="#91B3FA"/>
<path d="M168 77.4313V66.6059C168.001 65.7197 168.181 64.8427 168.531 64.027C168.88 63.2114 169.391 62.4737 170.034 61.8579C170.676 61.242 171.437 60.7605 172.27 60.4419C173.104 60.1234 173.994 59.9743 174.887 60.0036L250.127 62.5612C251.739 62.6161 253.271 63.2651 254.426 64.3814C255.58 65.4977 256.274 67.0011 256.371 68.5975L257 79L168 77.4313Z" fill="#455A64"/>
<path d="M195.498 63.9993H192.55C192.479 64.0029 192.408 63.9926 192.342 63.9691C192.275 63.9456 192.214 63.9093 192.163 63.8626C192.111 63.8159 192.07 63.7597 192.042 63.6973C192.014 63.635 192 63.5679 192 63.5C192 63.4321 192.014 63.365 192.042 63.3027C192.07 63.2403 192.111 63.1841 192.163 63.1374C192.214 63.0906 192.275 63.0544 192.342 63.0309C192.408 63.0074 192.479 62.9971 192.55 63.0007H195.505C195.638 63.0073 195.764 63.0629 195.856 63.1558C195.949 63.2487 196 63.3719 196 63.5C196 63.6281 195.949 63.7513 195.856 63.8442C195.764 63.9371 195.638 63.9927 195.505 63.9993H195.498Z" fill="#91B3FA"/>
<path d="M171.58 74C171.426 74 171.279 73.9408 171.17 73.8355C171.061 73.7301 171 73.5873 171 73.4383V69.0911C171.004 67.4771 171.668 65.9303 172.847 64.789C174.026 63.6477 175.624 63.0048 177.291 63.0008H189.388C189.467 62.9968 189.546 63.0084 189.62 63.0349C189.694 63.0613 189.762 63.1021 189.819 63.1547C189.876 63.2074 189.922 63.2707 189.953 63.3409C189.984 63.4112 190 63.4868 190 63.5632C190 63.6397 189.984 63.7153 189.953 63.7855C189.922 63.8558 189.876 63.9191 189.819 63.9717C189.762 64.0244 189.694 64.0652 189.62 64.0916C189.546 64.1181 189.467 64.1297 189.388 64.1257H177.291C175.931 64.1269 174.627 64.6505 173.666 65.5814C172.704 66.5123 172.163 67.7746 172.162 69.0911V73.4383C172.162 73.5874 172.1 73.7303 171.991 73.8356C171.882 73.9409 171.734 74 171.58 74Z" fill="#91B3FA"/>
<path d="M137.298 79.5743C137.385 77.8022 138.165 76.1308 139.477 74.9067C140.788 73.6827 142.531 72.9999 144.343 73H275.234C277.513 72.9995 279.719 73.787 281.464 75.2235C283.208 76.6599 284.378 78.6532 284.767 80.8517L284.878 81.4783C285.085 82.6466 285.028 83.8449 284.712 84.9894C284.396 86.134 283.828 87.197 283.048 88.104C282.268 89.0111 281.295 89.7403 280.197 90.2405C279.099 90.7408 277.903 91 276.692 91H142.405C141.673 91.0008 140.949 90.8561 140.276 90.5746C139.604 90.2931 138.997 89.8807 138.492 89.3625C137.987 88.8442 137.595 88.2309 137.34 87.5598C137.084 86.8887 136.971 86.1738 137.006 85.4585L137.298 79.5743Z" fill="#41435D"/>
<path d="M194 377H6V421H194V377Z" fill="#525389"/>
<path d="M2 401H198V417.195C198 417.408 197.916 417.613 197.766 417.764C197.616 417.915 197.412 418 197.2 418H3.1974C2.88024 418 2.57607 417.873 2.35181 417.647C2.12754 417.422 2.00155 417.116 2.00155 416.796V401H2Z" fill="#6667AB"/>
<path d="M2 382H198V397.806C198 398.123 197.875 398.426 197.652 398.65C197.43 398.874 197.128 399 196.813 399H3.48051C3.08786 399 2.71128 398.843 2.43363 398.564C2.15598 398.284 2 397.905 2 397.51V382Z" fill="#6667AB"/>
<path d="M3.22221 376H196.762C197.091 376 197.405 376.124 197.637 376.343C197.87 376.563 198 376.861 198 377.172V382H2.00002V377.164C1.9992 377.011 2.03021 376.86 2.09127 376.719C2.15232 376.578 2.24222 376.449 2.35579 376.341C2.46937 376.233 2.60438 376.147 2.75306 376.089C2.90175 376.03 3.06119 376 3.22221 376Z" fill="#525389"/>
<path d="M374.947 415.911C378.578 408.465 376.29 399.878 369.837 396.732C363.383 393.587 355.207 397.072 351.576 404.518C347.944 411.964 350.232 420.55 356.686 423.696C363.139 426.842 371.315 423.357 374.947 415.911Z" fill="#6667AB"/>
<path d="M349.024 394.6L342.429 408.121C342.192 408.606 342.39 409.19 342.87 409.424L351.017 413.396C351.498 413.63 352.08 413.426 352.316 412.941L358.911 399.419C359.148 398.934 358.95 398.351 358.47 398.116L350.323 394.145C349.842 393.91 349.26 394.114 349.024 394.6Z" fill="#484981"/>
<path d="M350.834 393.772C349.67 399.735 347.015 405.062 342.979 409.792C340.799 412.351 337.302 413.497 333.822 412.799C300.56 406.138 230.85 363.167 163.151 325.626C158.673 323.138 155.564 320.316 157.678 315.98L162.347 306.404C164.447 302.091 169.476 304.52 174.196 306.455C245.806 335.797 321.757 361.377 347.832 385.043C350.334 387.313 351.449 390.622 350.834 393.772Z" fill="#6667AB"/>
<path d="M172.908 296.462L157.093 329.473C156.986 329.696 156.796 329.867 156.565 329.948C156.334 330.03 156.081 330.015 155.861 329.907L147.52 325.789C147.3 325.68 147.132 325.487 147.051 325.253C146.971 325.018 146.985 324.761 147.092 324.537L162.905 291.528C163.012 291.305 163.202 291.133 163.433 291.052C163.664 290.971 163.918 290.985 164.138 291.093L172.48 295.211C172.7 295.32 172.868 295.513 172.949 295.747C173.029 295.982 173.015 296.239 172.908 296.462Z" fill="#7475B3"/>
<path d="M102.911 263.455L87.095 296.473C86.9877 296.696 86.7978 296.867 86.5667 296.948C86.3357 297.03 86.0824 297.015 85.8622 296.907L77.5188 292.788C77.2992 292.679 77.1309 292.486 77.0509 292.251C76.9709 292.017 76.9857 291.76 77.092 291.536L92.9079 258.527C93.0152 258.304 93.2052 258.133 93.4362 258.052C93.6673 257.97 93.9206 257.985 94.1408 258.093L102.484 262.211C102.702 262.32 102.869 262.511 102.949 262.744C103.028 262.977 103.015 263.232 102.911 263.455Z" fill="#7475B3"/>
<path d="M110.413 229.639L60 333L130.113 367.178L180.526 263.817L110.413 229.639Z" fill="#6667AB"/>
<path d="M63.1372 328.417L57 341L127.113 375.178L133.25 362.595L63.1372 328.417Z" fill="#7475B3"/>
<path d="M129 369.023L125.885 375.477C125.423 376.432 124.64 377.191 123.675 377.619C122.71 378.047 121.625 378.117 120.614 377.815C98.9706 371.339 78.0233 361.246 57.869 347.034C57.0148 346.431 56.4019 345.54 56.1402 344.523C55.8786 343.506 55.9853 342.427 56.4413 341.482L59.5686 335L129 369.023Z" fill="#484981"/>
<path d="M136.902 359.064L134.278 364.454C134.223 364.569 134.145 364.671 134.05 364.756C133.955 364.84 133.844 364.905 133.723 364.947C133.603 364.988 133.475 365.006 133.348 364.998C133.221 364.991 133.096 364.958 132.982 364.902L59.5466 329.231C59.4319 329.175 59.3293 329.098 59.2446 329.002C59.16 328.907 59.095 328.796 59.0533 328.676C59.0116 328.556 58.9941 328.428 59.0018 328.301C59.0094 328.174 59.0421 328.05 59.0979 327.936L61.7217 322.546C61.7772 322.431 61.8549 322.329 61.9501 322.244C62.0454 322.16 62.1564 322.095 62.2768 322.053C62.3972 322.012 62.5247 321.994 62.6519 322.002C62.7791 322.009 62.9035 322.042 63.0181 322.098L136.453 357.769C136.568 357.825 136.671 357.902 136.755 357.998C136.84 358.093 136.905 358.204 136.947 358.324C136.988 358.444 137.006 358.572 136.998 358.699C136.991 358.826 136.958 358.95 136.902 359.064Z" fill="#7475B3"/>
<path d="M135.912 359.858L134.13 363.507C134.08 363.61 134.01 363.703 133.924 363.779C133.838 363.856 133.738 363.914 133.629 363.952C133.52 363.99 133.405 364.005 133.29 363.998C133.175 363.991 133.062 363.962 132.959 363.911L59.4939 328.311C59.2847 328.209 59.1244 328.029 59.0483 327.81C58.9722 327.591 58.9864 327.35 59.0879 327.142L60.8684 323.493C60.9187 323.389 60.989 323.297 61.0752 323.221C61.1614 323.144 61.2618 323.086 61.3708 323.048C61.4797 323.01 61.595 322.995 61.7101 323.002C61.8252 323.008 61.9378 323.038 62.0414 323.088L135.506 358.689C135.715 358.79 135.876 358.97 135.952 359.19C136.028 359.409 136.014 359.649 135.912 359.858Z" fill="#484981"/>
<path d="M180.863 263.583L187 251L116.887 216.822L110.75 229.405L180.863 263.583Z" fill="#7475B3"/>
<path d="M183.438 256L186.553 249.543C187.013 248.587 187.122 247.497 186.861 246.468C186.599 245.438 185.983 244.536 185.124 243.92C166.702 230.755 145.886 220.389 122.344 213.19C121.346 212.885 120.272 212.949 119.316 213.369C118.36 213.79 117.584 214.54 117.128 215.486L114 221.969L183.438 256Z" fill="#484981"/>
<path d="M181.278 268.453L183.902 263.063C183.958 262.949 183.991 262.825 183.998 262.697C184.006 262.57 183.988 262.443 183.947 262.323C183.905 262.202 183.84 262.092 183.755 261.996C183.671 261.901 183.568 261.824 183.453 261.768L110.018 226.097C109.787 225.985 109.52 225.969 109.277 226.053C109.034 226.137 108.834 226.314 108.722 226.546L106.098 231.935C106.042 232.049 106.009 232.174 106.002 232.301C105.994 232.428 106.012 232.556 106.053 232.676C106.095 232.797 106.16 232.908 106.245 233.003C106.329 233.098 106.432 233.176 106.547 233.231L179.982 268.903C180.097 268.958 180.221 268.991 180.348 268.998C180.476 269.006 180.603 268.988 180.724 268.946C180.844 268.905 180.955 268.84 181.05 268.755C181.145 268.67 181.223 268.567 181.278 268.453Z" fill="#7475B3"/>
<path d="M181.131 267.508L182.912 263.858C182.962 263.755 182.992 263.642 182.998 263.528C183.005 263.413 182.989 263.298 182.952 263.19C182.914 263.081 182.855 262.981 182.779 262.895C182.702 262.809 182.609 262.739 182.506 262.689L109.041 227.088C108.832 226.986 108.591 226.972 108.372 227.048C108.152 227.124 107.972 227.284 107.87 227.492L106.088 231.141C105.986 231.35 105.972 231.59 106.048 231.809C106.124 232.029 106.285 232.209 106.494 232.31L179.958 267.912C180.062 267.962 180.174 267.991 180.289 267.998C180.404 268.005 180.519 267.99 180.628 267.952C180.737 267.915 180.838 267.856 180.924 267.78C181.01 267.704 181.081 267.612 181.131 267.508Z" fill="#484981"/>
</g>
<defs>
<linearGradient id="paint0_linear_2728_1834" x1="58.376" y1="318.55" x2="265.681" y2="429.509" gradientUnits="userSpaceOnUse">
<stop stop-color="#A737D5"/>
<stop offset="1" stop-color="#EF497A"/>
</linearGradient>
<linearGradient id="paint1_linear_2728_1834" x1="104.583" y1="205.817" x2="302.206" y2="367.593" gradientUnits="userSpaceOnUse">
<stop stop-color="#A737D5"/>
<stop offset="1" stop-color="#EF497A"/>
</linearGradient>
<clipPath id="clip0_2728_1834">
<rect width="425" height="425" fill="white"/>
</clipPath>
</defs>
</svg>
