<svg width="47" height="40" viewBox="0 0 47 40" fill="none" xmlns="http://www.w3.org/2000/svg">
<path fill-rule="evenodd" clip-rule="evenodd" d="M32.9927 14.7528C33.1021 14.5441 33.4046 13.9606 33.6649 13.456C34.0613 12.6874 34.1576 12.5389 34.2576 12.5408C34.5731 12.5471 37.9572 13.0211 37.9944 13.0643C38.0178 13.0914 38.1269 13.6766 38.2368 14.3646C38.3467 15.0527 38.451 15.6391 38.4686 15.6677C38.4862 15.6964 38.8676 15.9666 39.3163 16.2682C39.8274 16.6118 40.4742 16.6839 41.0484 16.4613L41.552 16.266C42.3331 15.9632 43.0028 15.7155 43.0403 15.7155C43.1007 15.7155 45.4123 18.9988 45.4123 19.0846C45.4123 19.1034 45.0574 19.6441 44.6237 20.2859L44.3665 20.6665C44.0242 21.1731 43.8801 21.7877 43.9614 22.3936C44.0308 22.911 44.1098 23.3559 44.1369 23.3823C44.164 23.4086 44.81 23.7153 45.5725 24.0638C46.3349 24.4123 46.9763 24.7162 46.9977 24.7392C47.0192 24.762 46.8858 25.6787 46.7013 26.7762L46.6359 27.1655C46.473 28.1345 45.7338 28.9051 44.7724 29.1082C43.8961 29.2933 43.1693 29.4553 43.1574 29.4681C43.1455 29.4809 42.952 29.8612 42.7274 30.3131C42.4651 30.8408 42.415 31.4489 42.5874 32.0124L42.7211 32.4494C42.9424 33.1724 43.1233 33.8026 43.1234 33.8498C43.1234 33.9007 42.5527 34.3257 41.7203 34.8945C40.9485 35.4218 40.2908 35.8687 40.2586 35.8876C40.2265 35.9065 39.5957 35.5817 38.8568 35.1659L38.2822 34.8425C37.788 34.5644 37.2068 34.4839 36.6556 34.6171C36.1308 34.744 35.7735 34.8582 35.7348 34.9114C35.7 34.9592 35.4201 35.5522 35.1127 36.2291C34.6108 37.3343 34.542 37.4571 34.4382 37.4333C34.3747 37.4188 33.4911 37.2837 32.4747 37.1332C31.4584 36.9827 30.6203 36.8529 30.6121 36.8448C30.6041 36.8366 30.542 36.1731 30.4741 35.3703L30.4291 34.8376C30.379 34.2442 30.0948 33.6952 29.6392 33.3117C29.2479 32.9823 28.8785 32.6821 28.8183 32.6447C28.7234 32.5856 28.497 32.661 27.1018 33.2168C26.2178 33.569 25.4666 33.8686 25.4325 33.8825C25.3978 33.8967 24.926 33.2051 24.3579 32.307L23.6336 31.1621C23.4588 30.8858 23.4665 30.5317 23.653 30.2632C24.1895 29.491 24.6937 28.8303 24.9206 28.6022C25.1751 28.3465 25.1833 28.2789 25.0294 27.7102C24.9087 27.2643 24.5023 26.0415 24.426 25.8947C24.3961 25.8372 23.9414 25.658 23.1927 25.4086C22.5405 25.1914 21.9876 24.9961 21.9641 24.9747C21.9184 24.9331 22.2994 21.0277 22.3556 20.9627C22.3739 20.9414 23.0262 20.8172 23.8051 20.6868L24.1026 20.6369C24.8119 20.5181 25.4325 20.0922 25.7984 19.4732C26.1654 18.8523 26.2482 18.1038 26.0258 17.4178L25.9214 17.0956C25.6716 16.3251 25.4673 15.6888 25.4673 15.6817C25.4673 15.6507 28.5102 14.0722 28.5701 14.0722C28.6066 14.0722 28.9473 14.2895 29.3271 14.5551C29.7068 14.8207 30.2229 15.1812 30.474 15.3562C30.7627 15.5574 31.1268 15.6172 31.4647 15.5189L31.8622 15.4032L32.3826 15.2518C32.6454 15.1754 32.8657 14.9952 32.9927 14.7528ZM8.9323 17.4317C8.96767 17.418 9.77817 17.3252 10.7335 17.2254C11.6887 17.1257 12.5073 17.0409 12.5525 17.0371C12.6124 17.032 12.7651 17.3997 13.1146 18.3907L13.3059 18.9329C13.4866 19.4454 13.9075 19.8364 14.4318 19.9792C14.8923 20.1045 15.3075 20.207 15.3544 20.207C15.4013 20.207 15.8825 19.9359 16.4236 19.6045C16.9647 19.2731 17.4323 19.002 17.4626 19.002C17.5451 19.002 20.0724 21.3006 20.0718 21.3751C20.0715 21.4105 19.8523 21.9765 19.5847 22.6329L19.4306 23.0109C19.2184 23.5314 19.23 24.1163 19.4626 24.6279C19.6931 25.1348 20.1404 25.5105 20.6795 25.6499L21.0921 25.7567L21.9444 25.9771C22.1975 26.0426 22.3923 26.245 22.448 26.5005C22.498 26.7296 22.6544 27.4223 22.7956 28.0399C22.9368 28.6575 23.0439 29.1788 23.0338 29.1984C23.0237 29.2179 22.4909 29.5455 21.85 29.9264C21.2091 30.3072 20.6481 30.6609 20.6036 30.7124C20.4439 30.8968 19.6196 32.1218 19.619 32.1755C19.6187 32.2056 19.9168 32.73 20.2813 33.3408C20.6459 33.9517 20.9442 34.4758 20.9442 34.5056C20.9442 34.5617 18.7825 37.093 18.7106 37.1211C18.6883 37.1297 18.2438 36.9358 17.7227 36.6901C17.2017 36.4443 16.6751 36.1995 16.5525 36.1459C16.41 36.0836 16.2483 36.0814 16.1042 36.1398L15.6124 36.3389C14.691 36.712 14.389 36.8866 14.4317 37.0218C14.4694 37.1411 14.3031 38.0002 14.0682 38.8999C13.9272 39.4401 13.8814 39.5484 13.7846 39.5697C13.3503 39.6654 10.5124 40.033 10.482 39.9976C10.4611 39.9734 10.2158 39.2757 9.93696 38.4472C9.65806 37.6188 9.42651 36.936 9.42243 36.93C9.41834 36.9239 8.99306 36.8477 8.47727 36.7606C7.87719 36.6593 7.26149 36.802 6.76721 37.157L6.44473 37.3886L5.57441 38.0137C5.44247 38.1085 5.26296 38.1013 5.1391 37.9962C3.80262 36.8621 2.64052 35.8327 2.63763 35.7804C2.63567 35.7446 2.87621 35.1987 3.17217 34.5673L3.35799 34.1709C3.58002 33.6973 3.56835 33.1471 3.32645 32.6833C3.07959 32.2099 2.66419 31.8462 2.16228 31.6641L1.61673 31.4662C0.887432 31.2016 0.290771 30.9571 0.290771 30.923C0.290771 30.8888 0.217313 30.1718 0.12756 29.3296C0.0378075 28.4874 -0.017341 27.7804 0.00494731 27.7585C0.0272901 27.7366 0.571854 27.4882 1.21516 27.2065L1.65043 27.0158C2.12208 26.8092 2.49707 26.4303 2.69883 25.9566C2.87158 25.5509 3.01348 25.18 3.01419 25.1325C3.0149 25.0849 2.70782 24.4833 2.33176 23.7956C1.95569 23.1079 1.65891 22.5167 1.67221 22.4819C1.69264 22.4283 3.76524 19.937 3.96605 19.7246C4.02131 19.6662 4.27307 19.7645 5.33468 20.2587C6.05014 20.5918 6.66146 20.8643 6.69306 20.8643C6.72467 20.8643 7.08112 20.647 7.48514 20.3814C7.9582 20.0705 8.30003 19.596 8.44529 19.0489L8.54386 18.6775C8.72217 18.0059 8.89699 17.4453 8.9323 17.4317ZM39.2589 22.0213C38.53 20.9424 37.346 20.1044 36.0315 19.7369C35.6044 19.6175 35.3798 19.5909 34.6496 19.5735C34.0409 19.559 33.6528 19.5765 33.364 19.6315C31.4533 19.9949 29.7478 21.4063 29.1235 23.1406C27.9106 26.5099 30.1849 29.9882 33.8676 30.3963C35.117 30.5347 36.4003 30.2502 37.5369 29.5827C38.14 29.2285 39.0809 28.2821 39.4246 27.6839C39.9802 26.7169 40.1483 26.0779 40.1452 24.9451C40.1432 24.2156 40.1265 24.0682 39.9962 23.6305C39.8185 23.0335 39.5568 22.4622 39.2589 22.0213ZM16.2618 27.7836C15.8852 25.7271 14.3372 24.0746 12.2891 23.5427C11.7284 23.3971 10.7487 23.361 10.2006 23.4658C9.22319 23.6527 8.34545 24.108 7.66825 24.7795C6.96794 25.4739 6.51007 26.3311 6.31029 27.322C6.18616 27.9379 6.22141 28.9274 6.39057 29.5736C7.05017 32.0938 9.50493 33.8176 12.0252 33.5302C14.1232 33.291 15.7614 31.8128 16.2278 29.738C16.336 29.2566 16.3529 28.2815 16.2618 27.7836Z" fill="black"/>
<path fill-rule="evenodd" clip-rule="evenodd" d="M15.4948 0.49168C14.8204 0.759312 14.2189 1.00049 14.1581 1.02766C14.0481 1.07674 14.048 1.08216 14.1366 2.0834C14.1857 2.63685 14.2109 3.1186 14.1927 3.15393C14.1745 3.1892 13.9353 3.46182 13.661 3.75974C13.3481 4.09963 12.8904 4.26746 12.4319 4.21033L11.9717 4.15298C11.3168 4.07136 10.7657 4.02058 10.747 4.04014C10.7283 4.05969 10.4911 4.66726 10.2198 5.3903C9.94851 6.11333 9.70127 6.77146 9.67032 6.85274C9.6161 6.99538 9.6428 7.02611 10.4285 7.72526C11.0793 8.30429 11.2481 8.48368 11.2689 8.6181C11.3249 8.98016 11.4077 9.71481 11.4077 9.8495C11.4077 9.96798 11.2501 10.1165 10.454 10.7482C9.9295 11.1644 9.50193 11.5342 9.50379 11.5698C9.50569 11.6055 9.78263 12.2632 10.1192 13.0315C10.5286 13.9661 10.7574 14.4265 10.8105 14.423C10.8542 14.4202 11.4295 14.4024 12.0888 14.3834L12.5896 14.369C13.0309 14.3563 13.4539 14.5449 13.7394 14.8816C14.0301 15.2244 14.1831 15.6629 14.1688 16.1122L14.1578 16.4549C14.1396 17.0273 14.1134 17.5359 14.0996 17.585C14.0852 17.6367 14.1156 17.6906 14.1716 17.7128C14.755 17.9438 16.6086 18.6183 16.6573 18.6173C16.6923 18.6166 17.101 18.2592 17.5655 17.8231L18.0526 17.3658C18.2826 17.1499 18.5852 17.0279 18.9007 17.0239C19.1704 17.0205 19.4889 17.0143 19.6083 17.0102C19.8243 17.0027 19.8292 17.0072 20.4434 17.7695C20.7832 18.1913 21.0935 18.5811 21.1329 18.6357C21.2002 18.729 21.2903 18.6996 22.6139 18.1516C23.3889 17.8307 24.0313 17.56 24.0414 17.5501C24.0514 17.5402 23.9798 17.0282 23.8823 16.4123L23.8276 16.0672C23.7491 15.571 23.8699 15.0639 24.1637 14.6565C24.5354 14.1413 24.6485 14.02 24.7588 14.0186C24.8338 14.0175 25.4553 14.0933 26.14 14.1871C26.8248 14.2808 27.4041 14.3364 27.4274 14.3107C27.4507 14.2849 27.6683 13.6625 27.9111 12.9274L28.2463 11.9121C28.3107 11.7172 28.253 11.5027 28.0995 11.3663C27.538 10.8675 26.7953 10.287 26.6812 10.2578C26.5982 10.2365 26.5497 10.1715 26.5273 10.0514C26.4883 9.84227 26.5939 8.42441 26.6525 8.3715C26.675 8.35118 27.0612 8.0452 27.5108 7.69157C27.9604 7.33794 28.3345 7.04298 28.3422 7.03613C28.3499 7.02928 28.1021 6.42199 27.7915 5.68663L27.2991 4.52057C27.2546 4.4154 27.1556 4.34349 27.0419 4.33379C26.9401 4.32513 26.4277 4.35334 25.9032 4.39651C25.1869 4.45544 24.9338 4.45939 24.886 4.41228C24.851 4.37777 24.6676 4.06687 24.4783 3.72135C24.2516 3.30739 24.1163 2.84962 24.0816 2.37893L24.0484 1.92893C24.0011 1.28861 23.947 0.749124 23.928 0.730062C23.885 0.686789 21.5107 0.104473 21.3774 0.104473C21.3198 0.104473 20.9867 0.440355 20.5652 0.92331L20.2886 1.24019C20.0117 1.55749 19.6057 1.73183 19.1849 1.7141C18.8188 1.69871 18.4702 1.67461 18.4102 1.66064C18.3503 1.64667 17.9826 1.26615 17.5933 0.815073C17.204 0.363998 16.8484 -0.00277769 16.8031 1.58526e-05C16.7579 0.0028094 16.1691 0.224102 15.4948 0.49168ZM23.0461 7.81613C22.5051 6.46992 21.2761 5.4815 19.8276 5.22761C18.7879 5.04538 17.7768 5.20642 16.8571 5.70076C15.4292 6.46833 14.5561 7.89156 14.561 9.44367C14.5646 10.5944 14.9266 11.4704 15.74 12.2967C16.255 12.8199 16.7405 13.1226 17.4566 13.3667C17.9043 13.5195 18.0683 13.5466 18.6701 13.5678C19.2497 13.5881 19.451 13.5725 19.8751 13.474C20.7824 13.2632 21.5441 12.8211 22.1744 12.1392C22.8316 11.4283 23.1773 10.6829 23.299 9.71459C23.354 9.27683 23.3498 9.12932 23.2689 8.67052C23.2171 8.37665 23.1168 7.99218 23.0461 7.81613Z" fill="white"/>
</svg>
