<svg width="40" height="40" viewBox="0 0 40 40" fill="none" xmlns="http://www.w3.org/2000/svg">
<path fill-rule="evenodd" clip-rule="evenodd" d="M27.7284 2.51426C28.1037 1.31726 29.165 0.339123 30.3704 0.0791963C31.5043 -0.165323 32.701 0.164727 33.5414 0.953728C34.6831 2.02552 34.9895 3.70731 34.302 5.12736C34.0335 5.68191 33.2814 6.437 32.733 6.70257C31.7221 7.19221 30.586 7.20896 29.6313 6.74825C29.4402 6.656 29.2116 6.69467 29.0614 6.84464L27.3401 8.56397C26.2554 9.64729 25.2911 10.5623 25.1973 10.5972C25.1034 10.6321 24.7964 10.6607 24.5151 10.6607C24.2326 10.6607 24.0037 10.4317 24.0037 10.1492V9.78111V9.15961C24.0037 9.01708 24.1192 8.90154 24.2617 8.90154C24.5192 8.90154 24.5244 8.89687 26.2954 7.12452L27.8137 5.60489C27.9683 5.45012 28.0105 5.21556 27.9195 5.01659C27.5624 4.2359 27.4892 3.27699 27.7284 2.51426ZM32.46 4.70571C33.2328 3.84586 32.9596 2.46385 31.9158 1.95297C31.1298 1.56827 30.2037 1.79035 29.7014 2.48399C29.0394 3.39813 29.3454 4.61794 30.3704 5.15053C30.5898 5.26457 30.7381 5.29229 31.1283 5.29229C31.7201 5.29229 32.0723 5.13712 32.46 4.70571ZM33.1531 10.3012C33.5466 9.2214 34.5736 8.33055 35.7063 8.08628C36.899 7.82908 38.0874 8.18151 38.9478 9.04743C39.6712 9.77559 39.9776 10.5067 39.9798 11.5099C39.9813 12.2312 39.9065 12.5592 39.5994 13.1781C39.3488 13.683 38.6344 14.4251 38.1514 14.6819C37.45 15.0549 36.368 15.1892 35.6129 14.9968C34.4708 14.7058 33.4641 13.7635 33.1026 12.6473C33.0587 12.5117 32.9324 12.4198 32.7898 12.4198H31.3809C30.3259 12.4198 29.3142 12.8398 28.5693 13.587L28.0961 14.0616C27.1959 14.9646 26.3775 15.763 26.2775 15.8359C26.0958 15.9682 26.0901 15.9685 22.033 15.9995C18.0141 16.0303 17.9661 16.0322 17.5638 16.168C17.0212 16.3512 16.3059 16.839 15.9598 17.2621C15.3435 18.0153 15.0223 19.0778 15.1453 19.9568C15.3424 21.3658 16.1645 22.3946 17.5157 22.9233C17.776 23.0251 18.0355 23.0617 18.698 23.09C19.1752 23.1104 19.5542 23.4983 19.5635 23.9757L19.5637 23.9906L19.5755 24.5956C19.5783 24.739 19.4646 24.8577 19.3212 24.8609C17.6831 24.898 16.7772 24.6763 15.7365 23.9836C14.2284 22.9797 13.3604 21.3533 13.3689 19.5473C13.3801 17.1632 14.8231 15.2163 17.1518 14.4432C17.4933 14.3298 17.8505 14.2706 18.2103 14.2677L21.5627 14.2406L23.0371 14.2288C24.5888 14.2163 26.0735 13.5949 27.1715 12.4985C28.1138 11.5575 28.9616 10.7591 29.0555 10.7242C29.161 10.6849 29.9511 10.6607 31.1241 10.6607H32.6395C32.8692 10.6607 33.0744 10.517 33.1531 10.3012ZM14.1749 9.8869C15.1124 9.44772 16.0365 9.17445 17.1822 8.99757C17.4823 8.95122 17.9394 8.91064 18.1978 8.90743C18.4564 8.90419 18.6677 9.11291 18.6677 9.37151V9.77195V10.05C18.6677 10.383 18.4088 10.6585 18.0765 10.6792C16.7757 10.7603 15.246 11.2322 14.1653 11.8856C12.3065 13.0096 10.9134 14.7416 10.2469 16.757C9.91834 17.7508 9.80204 18.4975 9.80301 19.608C9.80422 21.0084 10.042 22.0701 10.6346 23.3217C11.1111 24.3279 11.5636 24.966 12.392 25.7997C13.6721 27.0881 15.0476 27.8546 16.8183 28.2664C17.3258 28.3844 17.6084 28.3961 20.8506 28.4328C22.7682 28.4545 24.35 28.4773 24.3658 28.4835C24.3815 28.4896 25.5002 29.5995 26.8518 30.95L29.0652 33.1615C29.2114 33.3076 29.4339 33.3455 29.6203 33.2562C30.8147 32.6834 32.3396 32.8617 33.3434 33.6915C34.4363 34.5948 34.8981 35.9753 34.5557 37.3148C34.386 37.9788 34.1076 38.4651 33.6119 38.9642C31.9325 40.6545 29.0928 40.2144 27.9887 38.0927C27.4787 37.1127 27.4542 36.0078 27.9198 34.9879C28.0107 34.7889 27.9684 34.5543 27.8138 34.3996L25.8507 32.4352L25.6982 32.2826C24.3742 30.9576 22.5786 30.212 20.7054 30.2092C18.8549 30.2064 17.6037 30.1793 17.2994 30.1354C14.4232 29.7205 11.9745 28.3058 10.2348 26.0538C8.34437 23.6068 7.6211 20.4849 8.23528 17.4234C8.88929 14.1633 11.1387 11.3092 14.1749 9.8869ZM21.366 10.6607C20.8804 10.6607 20.4868 10.2667 20.4868 9.78111C20.4868 9.29553 20.8804 8.90154 21.366 8.90154C21.8516 8.90154 22.2452 9.29553 22.2452 9.78111C22.2452 10.2667 21.8516 10.6607 21.366 10.6607ZM38.218 11.5706C38.2227 10.8343 37.885 10.27 37.2554 9.96188C36.1244 9.40823 34.828 10.1272 34.6971 11.3807C34.5341 12.9408 36.4357 13.932 37.6093 12.8986C38.0349 12.5238 38.2146 12.1318 38.218 11.5706ZM33.011 18.6983C33.3722 17.3801 34.4146 16.3741 35.7107 16.0929C36.8515 15.8454 37.9986 16.1638 38.8756 16.9713C39.2985 17.3607 39.588 17.8031 39.8176 18.4104C39.9496 18.7597 39.9725 18.9212 39.975 19.517C39.9782 20.2694 39.9155 20.5555 39.6079 21.193C39.3665 21.6934 38.5897 22.4618 38.0711 22.7133C36.6787 23.3887 35.1541 23.1712 34.0629 22.1414C33.573 21.679 33.2897 21.2397 33.075 20.6089C32.9898 20.3586 32.9195 20.2153 32.9186 20.2904C32.9178 20.366 32.8562 20.4269 32.7806 20.4269H28.9151H25.7927C25.307 20.4269 24.9132 20.0331 24.9132 19.5473C24.9132 19.0616 25.307 18.6678 25.7927 18.6678H28.9151H32.7502C32.8432 18.6678 32.9194 18.7416 32.9225 18.8346C32.9265 18.9592 32.9489 18.9247 33.011 18.6983ZM38.1372 20.1284C38.4423 19.3203 38.0491 18.3574 37.2554 17.969C36.2549 17.4792 35.0813 17.9901 34.7658 19.0526C34.5643 19.7317 34.7081 20.2872 35.2174 20.7967C35.4968 21.0762 35.6372 21.1666 35.9201 21.2489C36.8606 21.5224 37.7879 21.0537 38.1372 20.1284ZM18.698 20.4269C18.2125 20.4269 17.8188 20.0329 17.8188 19.5473C17.8188 19.0617 18.2125 18.6678 18.698 18.6678C19.1836 18.6678 19.5773 19.0617 19.5773 19.5473C19.5773 20.0329 19.1836 20.4269 18.698 20.4269ZM22.2149 20.4269C21.7293 20.4269 21.3357 20.0329 21.3357 19.5473C21.3357 19.0617 21.7293 18.6678 22.2149 18.6678C22.7005 18.6678 23.0941 19.0617 23.0941 19.5473C23.0941 20.0329 22.7005 20.4269 22.2149 20.4269ZM21.349 24.0582C21.3396 23.6157 21.3456 23.2182 21.3622 23.1748C21.3851 23.1153 21.6013 23.0959 22.2449 23.0959C22.7131 23.0959 23.0901 23.4801 23.0812 23.9482L23.0806 23.9794L23.0799 24.014C23.071 24.4853 22.6863 24.8627 22.2149 24.8627L22.1708 24.8628C21.7236 24.8628 21.3585 24.5053 21.349 24.0582ZM25.1417 24.855C25.0155 24.855 24.9132 24.7527 24.9132 24.6265V23.9755V23.5829C24.9132 23.314 25.1312 23.0959 25.4002 23.0959C25.7019 23.0959 25.9731 23.1316 26.1127 23.1897C26.2643 23.2527 27.0432 23.9875 28.4918 25.4341L29.8022 26.7427C30.3422 27.2819 31.0741 27.5847 31.8372 27.5847H32.7898C32.9324 27.5847 33.0587 27.4929 33.1026 27.3573C33.4713 26.2186 34.4643 25.2983 35.6453 25.0004C36.2111 24.8577 37.1127 24.909 37.6696 25.1156C40.107 26.0196 40.7935 29.1353 38.9556 30.9513C38.298 31.6011 37.6129 31.9135 36.6829 31.9876C35.1854 32.107 33.6723 31.1279 33.1531 29.7033C33.0744 29.4875 32.8692 29.3439 32.6395 29.3439H31.5638C30.2327 29.3439 30.084 29.3334 29.859 29.2235C29.7016 29.1467 28.8456 28.3352 27.4913 26.9791C25.4536 24.9386 25.3612 24.855 25.1417 24.855ZM38.2353 28.28C38.1688 27.6355 37.6517 26.9733 37.0564 26.7704C36.3721 26.5371 35.6541 26.7224 35.1643 27.2586C34.3488 28.1512 34.6082 29.5215 35.6931 30.0525C36.9185 30.6523 38.3752 29.6366 38.2353 28.28ZM32.7213 35.6753C32.5195 35.2891 32.0895 34.9033 31.7205 34.7775C31.3695 34.6578 30.8476 34.6621 30.4919 34.7877C30.0759 34.9346 29.5739 35.4709 29.4348 35.9171C29.0751 37.0712 29.9223 38.2265 31.1283 38.2265C31.825 38.2265 32.412 37.8631 32.7161 37.2436C32.9553 36.7562 32.9574 36.1273 32.7213 35.6753Z" fill="black"/>
<path d="M14.6596 1.03216C14.2564 1.30161 14.2415 1.38478 14.2415 3.36635C14.2414 4.55819 14.2205 5.14064 14.178 5.14064C14.0556 5.14064 12.9304 5.58279 12.3046 5.87681C11.9565 6.04041 11.6502 6.16694 11.6241 6.15791C11.5979 6.14893 11.0369 5.60384 10.3772 4.94665C9.08406 3.65824 8.89536 3.5254 8.45812 3.59552C8.22661 3.6327 8.0116 3.83148 5.55113 6.28377C4.08976 7.74021 2.85504 9.00558 2.80738 9.09566C2.70521 9.28855 2.69502 9.6149 2.78385 9.84856C2.8186 9.9401 3.39845 10.5713 4.07235 11.2512C4.74626 11.9312 5.29289 12.5064 5.28713 12.5295C5.28136 12.5526 5.16143 12.8171 5.02057 13.1174C4.87978 13.4177 4.64803 13.9772 4.5056 14.3609C4.34944 14.7817 3.95143 15.0637 3.50271 15.0717L2.468 15.09C1.33218 15.1101 0.632567 15.1466 0.532337 15.1909C0.288097 15.299 0.0639282 15.6079 0.0229993 15.8929C0.00268644 16.0345 -0.00580284 17.7765 0.00420201 19.7641L0.0210071 23.1137C0.0218706 23.2859 0.0743337 23.4538 0.171617 23.5957C0.443748 23.9929 0.516147 24.0058 2.48201 24.0058C3.83466 24.0058 4.24614 24.0233 4.26572 24.0816C4.45211 24.6379 4.79525 25.4976 5.03361 26.0052C5.21251 26.3862 5.1341 26.8384 4.83736 27.137L4.09315 27.8857C3.41204 28.5709 2.8246 29.1912 2.78767 29.264C2.69441 29.4483 2.70393 29.8037 2.80738 29.999C2.85504 30.0891 4.08976 31.3551 5.55113 32.8124C7.85376 35.1087 8.23783 35.4674 8.43077 35.5025C8.90063 35.5877 8.97752 35.5347 10.3344 34.1883L11.1634 33.3656C11.4328 33.0984 11.8403 33.0275 12.184 33.1882C12.6835 33.4217 12.9738 33.539 13.9988 33.9218C14.1268 33.9696 14.2125 34.0909 14.2148 34.2276L14.2413 35.8233C14.27 37.5437 14.2786 37.655 14.3967 37.813C14.4655 37.9051 14.597 38.0366 14.6891 38.1054C14.8541 38.2286 14.9132 38.2305 18.657 38.2305C22.2011 38.2305 22.4709 38.2232 22.6572 38.1214C22.767 38.0614 22.9102 37.9249 22.9753 37.8181C23.0873 37.6343 23.0937 37.4977 23.0939 35.2733L23.094 33.802C23.0941 33.3164 22.7005 32.9228 22.2149 32.9228C21.7293 32.9228 21.3357 33.3164 21.3357 33.802V34.6819C21.3357 35.6535 20.5481 36.441 19.5766 36.441H18.6677H17.6395C16.7339 36.441 15.9998 35.7069 15.9998 34.8013C15.9998 33.0804 15.9755 32.8965 15.7184 32.6677C15.6545 32.6108 15.1431 32.414 14.582 32.2302C13.8821 32.0011 13.2592 31.7431 12.5977 31.4086C12.0674 31.1404 11.5645 30.921 11.4802 30.921C11.1621 30.921 10.9052 31.1223 9.78512 32.2495C9.1497 32.8889 8.11573 32.8905 7.4783 32.2531L6.73892 31.5137L6.05429 30.8291C5.38536 30.1601 5.38343 29.0761 6.04998 28.4048C7.55665 26.8871 7.51748 26.9914 6.97443 25.9458C6.51057 25.0525 6.11347 24.0856 5.88099 23.2833C5.70345 22.6705 5.60085 22.4865 5.35892 22.3472C5.27809 22.3007 4.65415 22.2668 3.50887 22.2467C2.54796 22.2298 1.77618 21.449 1.77045 20.488L1.76493 19.5625L1.75845 18.4706C1.75333 17.6092 2.44975 16.908 3.31114 16.9072C4.17028 16.9064 4.97855 16.8813 5.10734 16.8514C5.48128 16.7646 5.66986 16.5329 5.84715 15.9422C6.17331 14.856 6.61777 13.7814 7.0333 13.0749C7.12553 12.918 7.23383 12.6801 7.27397 12.5461C7.40627 12.1042 7.28167 11.916 6.02597 10.6613C5.40858 10.0444 4.90348 9.51196 4.90348 9.47805C4.90348 9.44414 5.73534 8.58454 6.75202 7.56788L7.43527 6.88462C8.07929 6.2406 9.12306 6.23935 9.76863 6.88182C10.4111 7.52117 11.0135 8.07342 11.1074 8.10896C11.4476 8.23781 11.6741 8.18497 12.3772 7.8127C13.2412 7.35527 14.0751 7.00829 14.8509 6.78337C15.5429 6.58264 15.7142 6.48802 15.8812 6.21408C15.9908 6.03422 15.9993 5.8984 15.9995 4.3369C15.9997 3.4072 16.7534 2.65359 17.6831 2.65359H18.6668H19.5595C20.542 2.65359 21.341 3.44539 21.3499 4.42789L21.3583 5.35332C21.3626 5.82338 21.7448 6.20219 22.2149 6.20219C22.6847 6.20219 23.0664 5.82305 23.0695 5.35331L23.0797 3.84477C23.095 1.56791 23.0913 1.48056 22.9726 1.28839C22.7221 0.882938 22.8487 0.894463 18.6524 0.894463H15.1135C14.9519 0.894463 14.7939 0.942383 14.6596 1.03216Z" fill="white"/>
</svg>
