<svg width="40" height="40" viewBox="0 0 40 40" fill="none" xmlns="http://www.w3.org/2000/svg">
<path fill-rule="evenodd" clip-rule="evenodd" d="M3.53352 0.17452C3.41344 0.285841 3.3452 0.442174 3.3452 0.605916V12.8436V24.5941C3.3452 25.005 3.0121 25.3381 2.60121 25.3381C1.82584 25.3381 1.57986 25.3989 1.43843 25.6253C1.39217 25.6994 1.04961 26.9776 0.677154 28.4658C0.227418 30.2628 0 32.1083 0 33.9607V34.0515V36.6682C0 36.8381 0.0609077 37.0024 0.171673 37.1312C0.280805 37.2582 0.439281 37.3321 0.606688 37.334L2.16456 37.3522L2.88058 37.3605C3.49303 37.3676 3.98577 37.8662 3.98577 38.4786V39.2897C3.98577 39.4781 4.0606 39.6587 4.19381 39.792C4.32701 39.9252 4.50768 40 4.69607 40H14.6619H24.6278C24.8162 40 24.9968 39.9252 25.13 39.792C25.2632 39.6587 25.3381 39.4781 25.3381 39.2897V36.7534V35.5167C25.3381 34.4583 25.2066 33.404 24.9466 32.3781C24.7313 31.5283 24.5552 30.7978 24.5552 30.7546C24.5552 30.7009 24.8923 30.6762 25.6228 30.6762C26.2124 30.6762 26.6904 31.1541 26.6904 31.7438V34.4868C26.6904 38.1511 26.6958 38.3082 26.8321 38.5752C27.0954 39.0915 27.9383 39.5554 29.0525 39.7974C29.8993 39.9814 31.8701 40.0531 32.7791 39.9331C34.6027 39.6923 35.749 39.1092 35.9616 38.3142C36.0417 38.0149 36.0433 38.0137 36.4374 37.9715C38.2046 37.7821 39.4304 37.2939 39.8236 36.6231C39.9391 36.4259 40 36.2015 39.9999 35.973L39.9989 30.6699L39.9977 25.3384C39.9977 25.1283 39.9429 24.9218 39.8387 24.7394C39.5244 24.1888 38.728 23.7913 37.4204 23.5322C36.976 23.4442 36.6558 23.0543 36.6558 22.6013L36.6553 14.2004L36.655 8.56967C36.6549 6.29685 35.7519 4.11715 34.1448 2.51004C32.5377 0.90289 30.3579 0 28.0851 0H17.6783H3.97861C3.81355 0 3.65459 0.0623312 3.53352 0.17452ZM29.8754 1.35139C30.3178 1.3519 30.6762 1.71065 30.6762 2.15302V3.44797V5.28027C30.6762 5.45019 30.7371 5.61449 30.8478 5.74335C30.957 5.87038 31.1153 5.94464 31.2828 5.9474L33.1788 5.97865C34.3778 5.99841 35.3401 6.97468 35.3426 8.17381L35.3562 14.6797L35.3732 22.8645C35.3738 23.1299 35.1589 23.3454 34.8935 23.3456C33.9103 23.3465 32.3823 23.66 31.7236 23.996C31.3425 24.1905 30.8853 24.6204 30.772 24.891C30.7022 25.0578 30.6762 25.5169 30.6762 26.5814V27.7673C30.6762 27.9194 30.5529 28.0427 30.4008 28.0427C29.9937 28.0427 28.9273 28.2384 28.3986 28.4102C27.7757 28.6126 27.4486 28.784 27.1216 29.0794C26.9455 29.2386 26.7156 29.3251 26.4782 29.3217L25.51 29.3076L24.5753 29.2941C24.3381 29.2907 24.1332 29.1273 24.0771 28.8968C23.8573 27.9945 23.8039 27.9715 21.9315 27.9715H21.6672C20.9898 27.9715 20.4001 27.5086 20.2394 26.8505C20.0186 25.947 19.9285 25.6915 19.7747 25.5338C19.6527 25.4087 19.4853 25.3381 19.3106 25.3381H12.1051C7.9747 25.3381 4.62633 21.9897 4.62633 17.8593V13.3475V2.15798C4.62633 1.71239 4.98161 1.34807 5.42705 1.33687C5.86747 1.32577 11.3683 1.32434 17.6512 1.33359C23.9342 1.34285 29.4351 1.35089 29.8754 1.35139ZM33.2581 3.53872L33.3128 3.59422C33.8453 4.13447 34.2844 4.57998 34.3001 4.59609C34.3164 4.61274 33.812 4.62633 33.1791 4.62633C32.5454 4.62633 32.0285 4.11259 32.0285 3.47886C32.0285 2.45808 32.0405 2.34128 32.1371 2.42149C32.1969 2.4711 32.7013 2.97381 33.2581 3.53872ZM7.98662 18.6655C7.99804 19.0324 8.29875 19.3238 8.6658 19.3238H20H31.3342C31.7013 19.3238 32.002 19.0324 32.0134 18.6655C32.0246 18.3052 31.7356 18.0071 31.3751 18.0071H20H8.62487C8.26444 18.0071 7.97544 18.3052 7.98662 18.6655ZM7.98662 22.0107C7.99804 22.3775 8.29875 22.669 8.6658 22.669H20H31.3342C31.7013 22.669 32.002 22.3775 32.0134 22.0107C32.0246 21.6504 31.7356 21.3523 31.3751 21.3523H20H8.62487C8.26444 21.3523 7.97544 21.6504 7.98662 22.0107ZM37.4817 24.9003C38.0708 25.0496 38.5765 25.2539 38.5765 25.3425C38.5765 25.428 37.9221 25.6742 37.331 25.8112C36.5347 25.9956 34.0822 25.9981 33.3452 25.8153C32.7653 25.6714 32.0996 25.4167 32.0996 25.3386C32.0996 25.2004 33.1994 24.8649 34.0569 24.7414C34.1744 24.7245 34.863 24.7204 35.5872 24.7322C36.6284 24.7493 37.0248 24.7845 37.4817 24.9003ZM8.50975 27.0996C8.48363 27.3248 8.44434 27.613 8.42249 27.7402C8.3995 27.8739 8.2836 27.9715 8.14799 27.9715H7.17843C5.91018 27.9715 5.56164 28.0375 5.4247 28.3036C5.38769 28.3754 5.23402 28.9386 5.0832 29.5552C4.92217 30.2133 4.33234 30.6762 3.65483 30.6762H3.16114H1.89767C1.70176 30.6762 1.55738 30.493 1.60313 30.3025C1.65246 30.097 1.87644 29.2001 2.10085 28.3096C2.34072 27.3576 3.19689 26.6904 4.17864 26.6904H5.5331H8.14529C8.36471 26.6904 8.53507 26.8817 8.50975 27.0996ZM11.4151 26.8149C11.4354 26.8834 11.4735 27.1698 11.4999 27.4512C11.5258 27.728 11.3119 27.9689 11.0339 27.976L10.6779 27.985C10.1995 27.9972 9.79587 27.9872 9.78092 27.9628C9.76591 27.9384 9.78932 27.6421 9.83295 27.3044C9.8783 26.9533 10.1773 26.6904 10.5314 26.6904H10.6453C11.2819 26.6904 11.3831 26.7068 11.4151 26.8149ZM18.9732 27.3488C19.0527 27.6649 18.8136 27.9715 18.4876 27.9715H16.0144H13.3821C13.1078 27.9715 12.8779 27.764 12.8499 27.4911C12.8228 27.2269 12.7834 26.9383 12.7625 26.8498C12.7431 26.7678 12.8056 26.6893 12.8898 26.6898L15.7705 26.7074L18.1745 26.7221C18.5525 26.7244 18.881 26.9822 18.9732 27.3488ZM32.7861 27.0475C34.3589 27.454 36.727 27.4251 38.1464 26.982C38.3991 26.9031 38.622 26.8545 38.6416 26.8741C38.7164 26.949 38.6399 28.0036 38.5557 28.0578C38.1176 28.3401 37.011 28.588 35.8818 28.6565C35.1404 28.7016 35.0826 28.6945 34.5112 28.4886C33.9284 28.2787 33.3532 28.1556 32.4911 28.0562C32.2456 28.0278 32.0577 27.8243 32.0491 27.5773L32.0433 27.411C32.0241 26.8626 32.0326 26.8192 32.15 26.8656C32.2201 26.8934 32.5064 26.9752 32.7861 27.0475ZM12.5278 29.484C12.5283 29.5721 12.4266 30.4688 12.3017 31.4769C12.172 32.5236 11.2826 33.3096 10.2278 33.3096H8.8131C6.62598 33.3096 5.5516 33.2855 5.5516 33.2364C5.5516 33.133 6.47658 29.4531 6.52036 29.3822C6.54021 29.3501 7.89971 29.3238 9.54156 29.3238H12.3665C12.4552 29.3238 12.5272 29.3954 12.5278 29.484ZM15.6359 31.1744C15.7621 32.1726 15.8668 33.0599 15.8686 33.1461C15.8718 33.3009 15.8559 33.3033 14.6797 33.3241C14.0241 33.3357 13.4732 33.3362 13.4557 33.3252C13.424 33.3053 13.8642 29.5843 13.9189 29.4103C13.9404 29.3418 14.131 29.3239 14.6771 29.3391C15.0968 29.3508 15.4454 29.6668 15.4981 30.0834L15.6359 31.1744ZM23.2856 31.21C23.5464 32.2278 23.7626 33.1166 23.766 33.1851C23.7719 33.3019 23.5719 33.3096 20.5107 33.3096H19.096C18.0413 33.3096 17.1518 32.5236 17.0221 31.4769C16.8972 30.4688 16.7955 29.5717 16.7961 29.4832C16.7967 29.3943 16.8692 29.3227 16.9581 29.3233L19.8043 29.3409L20.9011 29.3476C22.0267 29.3546 23.0062 30.1196 23.2856 31.21ZM33.274 29.5294C33.6263 29.6022 34.0708 29.7353 34.2618 29.8252C34.5829 29.9764 34.599 29.9959 34.4766 30.0854C34.2313 30.2647 33.2727 30.5217 32.5234 30.609C31.6317 30.7129 30.2321 30.6629 29.4306 30.4985C28.7944 30.368 28.0811 30.0749 28.1456 29.9706C28.2539 29.7954 29.4832 29.471 30.427 29.3686C30.9977 29.3066 32.6465 29.3998 33.274 29.5294ZM38.6566 29.9288C38.6615 30.1441 38.6655 30.3683 38.6655 30.427C38.6655 30.4858 38.6615 30.5652 38.6566 30.6036C38.6307 30.8068 37.4248 31.1817 36.4591 31.2868C36.2216 31.3126 36.0142 31.1265 36.0142 30.8876V30.6603V30.5743C36.0142 30.242 36.2701 29.9657 36.6014 29.9401C36.9244 29.9152 37.4769 29.8189 37.8292 29.7261C37.8861 29.7111 37.9391 29.697 37.9884 29.6839C38.3902 29.5771 38.5482 29.5351 38.6114 29.5943C38.6524 29.6327 38.6535 29.7137 38.6552 29.8473C38.6556 29.8726 38.6559 29.8997 38.6566 29.9288ZM28.3762 31.6076C28.7583 31.7553 29.933 31.9473 30.7473 31.9953C31.7469 32.0542 33.0167 31.9378 33.9463 31.7019C34.3185 31.6075 34.6318 31.5302 34.6425 31.5302C34.6532 31.5302 34.6619 31.7883 34.6619 32.1036V32.266C34.6619 32.5164 34.5159 32.7437 34.2883 32.8479C33.5012 33.208 33.0454 33.2726 31.3167 33.2689C29.897 33.2658 29.6518 33.2478 29.1555 33.1104C28.8476 33.0251 28.4651 32.8829 28.3053 32.7944C28.1267 32.6954 28.0176 32.5057 28.0216 32.3015L28.0256 32.0996C28.0315 31.8061 28.0377 31.5578 28.0395 31.548C28.0465 31.5094 28.1855 31.534 28.3762 31.6076ZM4.30747 32.6512C4.21528 33.0184 3.88759 33.2776 3.50906 33.2828L2.73388 33.2934L1.95921 33.304C1.60961 33.3087 1.32714 33.02 1.33957 32.6706C1.35232 32.3123 1.64646 32.0285 2.00496 32.0285H2.9131H3.82168C4.14771 32.0285 4.38684 32.335 4.30747 32.6512ZM38.6577 32.5801C38.6732 33.2105 38.659 33.3296 38.5608 33.3928C38.2335 33.6032 37.1599 33.8815 36.3167 33.9744C36.1553 33.9923 36.0142 33.8659 36.0142 33.7035V33.3436V33.0911C36.0142 32.8566 36.1905 32.6597 36.4235 32.6338C37.0794 32.5609 37.9665 32.3915 38.265 32.282C38.4168 32.2263 38.5649 32.1786 38.5943 32.1758C38.6237 32.1731 38.6522 32.3549 38.6577 32.5801ZM28.7358 34.3772C29.6441 34.6151 30.4147 34.6824 31.7791 34.6428C32.8398 34.6122 33.1769 34.5749 33.7367 34.427C34.1085 34.3287 34.4689 34.2258 34.5374 34.1984C34.6501 34.1532 34.6619 34.2057 34.6619 34.7523V34.9893C34.6619 35.2116 34.5287 35.4123 34.3238 35.4986C33.7831 35.7266 33.5315 35.7928 32.7758 35.9064C31.2279 36.1391 29.2446 35.9548 28.341 35.4944C28.1521 35.3981 28.0312 35.206 28.026 34.994L28.02 34.7498C28.0083 34.2698 28.0241 34.1686 28.1056 34.1999C28.1606 34.2211 28.4442 34.3008 28.7358 34.3772ZM3.98577 35.3381C3.98577 35.7115 3.68304 36.0142 3.30961 36.0142H2.63972C1.39623 36.0142 1.29552 36.0048 1.31758 35.8897C1.33068 35.8212 1.34384 35.5169 1.34683 35.2135C1.34987 34.908 1.5984 34.6619 1.90394 34.6619H2.66904H3.30961C3.68304 34.6619 3.98577 34.9646 3.98577 35.3381ZM11.9706 34.8932C11.9828 35.0205 11.9821 35.3248 11.969 35.5694C11.9556 35.8188 11.7495 36.0142 11.4996 36.0142H8.64164H6.01423C5.6408 36.0142 5.33808 35.7115 5.33808 35.3381C5.33808 34.9646 5.6408 34.6619 6.01424 34.6619H8.6432H11.7159C11.8477 34.6619 11.9579 34.762 11.9706 34.8932ZM16.0142 36.6517V37.3593C16.0142 38.0708 15.4436 38.6508 14.7322 38.6623C14.0272 38.6739 13.4186 38.6726 13.3799 38.6596C13.3359 38.6447 13.3096 37.8941 13.3096 36.6489V36.0142C13.3096 35.2674 13.9151 34.6619 14.6619 34.6619C15.4088 34.6619 16.0142 35.2674 16.0142 36.0142V36.6517ZM23.9858 35.3381C23.9858 35.7115 23.683 36.0142 23.3096 36.0142H20.6762H17.6335C17.4851 36.0142 17.3639 35.8957 17.3606 35.7473C17.3524 35.3795 17.3521 34.7799 17.36 34.7153C17.3636 34.6859 18.8559 34.6619 20.6762 34.6619H23.3096C23.683 34.6619 23.9858 34.9646 23.9858 35.3381ZM38.6477 35.4434V35.6922C38.6477 35.888 38.5379 36.0674 38.3634 36.1564C38.0322 36.3253 37.0967 36.5554 36.4591 36.6248C36.2216 36.6506 36.0142 36.4646 36.0142 36.2257V35.9878V35.5694C36.0142 35.4219 36.1337 35.3024 36.2811 35.3022C36.6401 35.3018 37.7527 35.1164 38.1495 34.9909C38.1639 34.9863 38.178 34.9818 38.1917 34.9775C38.4092 34.9085 38.523 34.8723 38.5826 34.9139C38.648 34.9596 38.6479 35.0991 38.6477 35.3918C38.6477 35.4085 38.6477 35.4257 38.6477 35.4434ZM28.7917 37.0485C30.335 37.4403 32.3744 37.4388 33.9275 37.0448C34.3101 36.9478 34.6318 36.8683 34.6425 36.8683C34.6532 36.8683 34.6619 37.1263 34.6619 37.4416V37.6041C34.6619 37.8545 34.5159 38.0818 34.2883 38.186C33.5109 38.5416 33.0411 38.6095 31.3523 38.6095C30.1012 38.6095 29.689 38.5846 29.3012 38.4861C28.6427 38.3188 28.1105 38.0814 28.0539 37.9298C28.0147 37.8246 28.0275 36.8683 28.0682 36.8683C28.0755 36.8683 28.4011 36.9495 28.7917 37.0485ZM11.97 38.007C11.9573 38.3645 11.6638 38.6477 11.3061 38.6477H8.64263H5.97865C5.62487 38.6477 5.33808 38.3609 5.33808 38.0071C5.33808 37.6533 5.62487 37.3665 5.97865 37.3665L8.66548 37.3664L11.3517 37.3662C11.702 37.3662 11.9825 37.6568 11.97 38.007ZM23.9707 38.0249C23.9594 38.387 23.9262 38.6753 23.8968 38.6655C23.8674 38.6557 22.3883 38.6477 20.6097 38.6477H17.573C17.4608 38.6477 17.3663 38.5635 17.3535 38.452C17.3411 38.3443 17.3417 38.0561 17.3548 37.8114C17.3682 37.5619 17.5744 37.3665 17.8242 37.3665H20.6849H23.3324C23.6929 37.3665 23.9819 37.6647 23.9707 38.0249Z" fill="white"/>
<path fill-rule="evenodd" clip-rule="evenodd" d="M18.9656 2.73153C17.5397 2.96534 16.321 3.59167 15.2944 4.61822C14.3909 5.52171 13.8254 6.53253 13.5088 7.80968C13.2809 8.72925 13.2957 10.0332 13.5446 10.9759C14.1878 13.4121 16.019 15.2052 18.4858 15.8144C19.3564 16.0295 20.6436 16.0295 21.5142 15.8144C23.9808 15.2053 25.8102 13.4141 26.456 10.9759C26.6095 10.3964 26.6391 10.1294 26.6391 9.32384C26.6391 8.51829 26.6095 8.25125 26.456 7.67174C25.8046 5.21246 23.8456 3.32335 21.413 2.80854C20.6791 2.65324 19.6423 2.62064 18.9656 2.73153ZM25.3154 9.62292C25.467 7.13274 23.7936 4.82192 21.3603 4.16135C20.9634 4.05359 19.5962 3.96235 19.3238 4.02541C19.2456 4.04349 19.0053 4.09359 18.79 4.13673C17.2362 4.44783 15.6806 5.77374 15.0507 7.32391C14.1058 9.64939 14.9731 12.4038 17.0819 13.7741C18.0603 14.4099 18.8087 14.6244 20.0356 14.6207C20.8809 14.6182 21.0165 14.5989 21.6049 14.397C22.4698 14.1002 23.0628 13.7419 23.6893 13.1372C24.6673 12.1934 25.2332 10.9702 25.3154 9.62292Z" fill="black"/>
<path d="M19.3594 5.71189C19.3594 6.08313 19.3572 6.08683 19.0338 6.25843C18.4128 6.58783 18.0071 7.26107 18.0071 7.96214C18.0071 8.16781 18.0886 8.36512 18.2336 8.51093L19.3288 9.6116L20.444 10.7325C20.5551 10.8441 20.547 11.0269 20.4265 11.1283C20.2991 11.2355 20.1153 11.3167 20 11.3167C19.7567 11.3167 19.3594 11.0038 19.3594 10.8122C19.3594 10.6878 19.3015 10.6762 18.6833 10.6762C18.0233 10.6762 18.0071 10.6801 18.0071 10.8414C18.0071 11.3867 18.4757 12.0932 19.0338 12.3893C19.3572 12.5609 19.3594 12.5646 19.3594 12.9358C19.3594 13.1422 19.5268 13.3096 19.7332 13.3096H20H20.2668C20.4732 13.3096 20.6406 13.1422 20.6406 12.9358C20.6406 12.5646 20.6428 12.5609 20.9662 12.3893C21.5872 12.0599 21.9929 11.3866 21.9929 10.6856C21.9929 10.4799 21.9114 10.2826 21.7664 10.1368L20.6712 9.03609L19.556 7.9152C19.4449 7.80354 19.453 7.62077 19.5735 7.51936C19.7009 7.41217 19.8847 7.33096 20 7.33096C20.2433 7.33096 20.6406 7.64391 20.6406 7.83552C20.6406 7.95986 20.6985 7.97153 21.3167 7.97153C21.9767 7.97153 21.9929 7.96755 21.9929 7.80626C21.9929 7.261 21.5243 6.55445 20.9662 6.25843C20.6428 6.08683 20.6406 6.08313 20.6406 5.71189C20.6406 5.50544 20.4732 5.33808 20.2668 5.33808H20H19.7332C19.5268 5.33808 19.3594 5.50544 19.3594 5.71189Z" fill="black"/>
</svg>
