<svg width="44" height="40" viewBox="0 0 44 40" fill="none" xmlns="http://www.w3.org/2000/svg">
<path fill-rule="evenodd" clip-rule="evenodd" d="M19.2671 16.2185C19.145 16.2821 18.9734 16.4801 18.8857 16.6585C18.7416 16.9518 18.7387 17.0129 18.856 17.2926C19.0369 17.7246 19.2652 17.8169 20.3325 17.8898C21.8892 17.9961 22.6817 18.4314 23.1412 19.4322C23.2562 19.6827 23.8295 21.8367 24.4152 24.2191C26.0653 30.9298 26.1741 31.3356 26.5083 32.0208C27.0032 33.0355 27.7103 33.5096 29.0527 33.7268C29.3901 33.7814 31.8519 33.8174 35.2756 33.8178C41.4816 33.8185 41.3269 33.8314 41.5488 33.2973C41.6941 32.9477 41.595 32.5362 41.3122 32.3144C41.0902 32.1403 40.9605 32.1363 35.5256 32.1345C29.9272 32.1327 28.9703 32.0887 28.499 31.8112C28.2875 31.6865 27.8796 31.1202 27.8796 30.9511C27.8796 30.9212 30.6901 30.8968 34.1252 30.8968H39.9362C40.2216 30.8968 40.5027 30.8272 40.7551 30.6941V30.6941C41.5152 30.2933 41.5228 30.2746 42.841 25.5404C44.1293 20.9138 44.1683 20.6949 43.7953 20.196C43.6994 20.0676 43.4853 19.8829 43.3194 19.7855C43.0247 19.6125 42.8167 19.6075 34.0235 19.5642L25.5759 19.5226C25.245 19.521 24.9477 19.32 24.8228 19.0136V19.0136C24.0716 17.1705 22.7299 16.3111 20.3666 16.1594C19.7236 16.1181 19.4297 16.1339 19.2671 16.2185ZM35.8758 24.3689C35.8788 24.3315 35.9505 23.6335 36.0353 22.8179V22.8179C36.1178 22.0249 35.4958 21.3349 34.6986 21.3349H33.8471H32.1543C31.8058 21.3349 31.5329 21.6347 31.5655 21.9817V21.9817C31.5989 22.3374 31.6722 23.0247 31.7285 23.5089V23.5089C31.7869 24.0123 32.2102 24.3939 32.717 24.3998L33.8506 24.4132C34.9615 24.4263 35.8729 24.4064 35.8758 24.3689ZM41.8716 22.6031C42.0381 22.0102 42.1745 21.4822 42.1745 21.43C42.1745 21.3649 41.5026 21.3349 40.0436 21.3349C38.3985 21.3349 37.9125 21.3601 37.9118 21.4456C37.9113 21.5065 37.8521 22.0742 37.7804 22.7072C37.7085 23.3402 37.6489 23.9876 37.6481 24.1459V24.1459C37.6471 24.3046 37.7754 24.4337 37.934 24.4337H39.5074H40.9792C41.2088 24.4337 41.4096 24.2792 41.4685 24.0574V24.0574C41.5235 23.8505 41.7049 23.196 41.8716 22.6031ZM35.4796 28.285C35.5332 27.798 35.6056 27.1108 35.6404 26.7577V26.7577C35.6743 26.4139 35.4042 26.1158 35.0587 26.1158H33.836H32.2151C32.0858 26.1158 31.9875 26.2318 32.0086 26.3593V26.3593C32.0307 26.4932 32.0901 27.041 32.1406 27.5767C32.191 28.1123 32.2555 28.7009 32.2838 28.8846V28.8846C32.3133 29.0761 32.4796 29.2164 32.6733 29.2133L33.8588 29.1945L34.4916 29.1845C35.0005 29.1764 35.4239 28.7909 35.4796 28.285V28.285ZM40.5397 27.384C40.7063 26.7911 40.8427 26.2632 40.8427 26.2109C40.8427 26.0648 37.4746 26.0802 37.4277 26.2265C37.4082 26.2874 37.348 26.8153 37.294 27.3996C37.24 27.984 37.1727 28.6314 37.1445 28.8383V28.8383C37.1175 29.0374 37.2722 29.2146 37.4731 29.2146H38.5651H39.6474C39.8769 29.2146 40.0778 29.0602 40.1367 28.8383V28.8383C40.1917 28.6314 40.3731 27.977 40.5397 27.384Z" fill="black"/>
<path d="M26.4146 34.6931C25.2054 35.0117 24.3772 36.0778 24.3772 37.3156C24.3772 38.3643 24.9153 39.2281 25.8818 39.7311C26.4812 40.043 27.5377 40.066 28.1592 39.7806C28.6872 39.5382 29.2655 38.9613 29.5076 38.4355C29.7732 37.8586 29.7732 36.7726 29.5076 36.1957C29.2641 35.6669 28.683 35.089 28.1646 34.8604C27.7224 34.6654 26.84 34.581 26.4146 34.6931Z" fill="black"/>
<path fill-rule="evenodd" clip-rule="evenodd" d="M13.7373 1.03127C15.0764 0.587704 16.7831 0.213464 17.9989 0.0966851C25.0247 -0.5784 31.794 2.31247 36.0521 7.80638C38.0575 10.3938 39.458 13.644 39.9838 16.9303V16.9303C40.0489 17.3367 39.7349 17.7049 39.3232 17.7049H38.7942C38.69 17.7049 38.5938 17.7052 38.505 17.7055C37.8511 17.7075 37.5957 17.7083 37.4785 17.5817C37.4034 17.5006 37.3852 17.3671 37.3553 17.1479L37.3553 17.1475C37.349 17.1011 37.3421 17.051 37.3341 16.9967C37.2283 16.2791 36.8393 14.844 36.5182 13.9864C36.0081 12.6244 34.7549 10.2679 34.5405 10.2679C34.5014 10.2679 34.0955 10.3445 33.6384 10.4381C32.955 10.578 29.9867 11.0648 29.8167 11.0648C29.7902 11.0648 29.8434 11.3736 29.9348 11.7509C30.1834 12.7763 30.5155 14.7834 30.6271 15.9342C30.6814 16.4942 30.7439 17.1217 30.766 17.3287V17.3287C30.7875 17.5297 30.6299 17.7049 30.4278 17.7049H29.4894H29.3235C28.6716 17.7049 28.1271 17.208 28.0676 16.5588V16.5588C27.9388 15.1528 27.6911 13.6125 27.383 12.3024L27.2354 11.6748C27.1872 11.47 26.9908 11.3356 26.7824 11.365V11.365C24.4364 11.696 16.1402 11.6976 13.4831 11.3676V11.3676C13.2483 11.3384 13.0292 11.4904 12.9742 11.7205L12.8417 12.2751C12.4566 13.8879 12.1929 15.7604 12.0367 17.9927V17.9927C12.0108 18.3636 12.3047 18.6788 12.6766 18.6788H14.4242C16.685 18.6788 16.8808 18.6913 17.1551 18.8526C17.6535 19.1459 18.202 19.2999 19.0653 19.3893C20.388 19.526 20.9067 19.8441 21.4073 20.8258V20.8258C21.5261 21.0587 21.3569 21.3349 21.0955 21.3349H16.8203H12.441C12.1911 21.3349 11.9961 21.5512 12.022 21.7997V21.7997C12.0485 22.0553 12.0939 22.6231 12.1227 23.0614C12.2009 24.2499 12.4934 26.1906 12.7886 27.48C12.9326 28.1085 13.0631 28.6355 13.0787 28.6511C13.0943 28.6667 13.5441 28.6413 14.0784 28.5948C15.9352 28.4328 19.9437 28.321 21.7232 28.3815L22.9549 28.4233C23.2861 28.4345 23.5704 28.6625 23.6532 28.9833V28.9833C23.7301 29.281 23.8894 29.8685 24.0073 30.289V30.289C24.1143 30.6703 23.8237 31.047 23.4278 31.0404L21.4115 31.007C18.7273 30.9625 14.3001 31.1022 14.0535 31.2391C13.9115 31.3179 14.7258 33.0118 15.413 34.0667C16.3775 35.5471 17.3535 36.4747 18.5328 37.0317C19.0906 37.2952 19.2011 37.3156 20.0662 37.3156C20.8987 37.3156 21.0545 37.2894 21.5221 37.0711C21.8101 36.9365 22.2337 36.6919 22.4633 36.5274L22.5403 36.4722C22.6624 36.3848 22.8285 36.4919 22.7992 36.6391V36.6391C22.6404 37.4382 22.8967 38.7956 23.3327 39.4654C23.405 39.5765 23.4431 39.6885 23.4171 39.7142C23.3167 39.8145 22.1791 39.9332 20.8209 39.9852C12.9809 40.2857 5.65822 35.9749 2.1406 28.9884C0.69912 26.1253 0 23.192 0 20.0069C0 13.2488 3.38346 7.01744 9.10081 3.24608C10.2454 2.49105 12.3161 1.50184 13.7373 1.03127ZM25.7966 7.72369C24.6319 5.31552 23.2454 3.71302 21.7023 2.99136C21.1643 2.73974 20.9816 2.7007 20.2438 2.67981C19.3036 2.65316 18.9837 2.73009 18.1095 3.19269C17.3462 3.59659 16.2331 4.70568 15.5363 5.7566C14.9157 6.69251 13.9089 8.68103 14.0084 8.77425C14.1139 8.87288 17.7358 9.02844 19.9332 9.02871C22.1759 9.02897 26.111 8.86996 26.2121 8.77505C26.2473 8.74203 26.0603 8.26889 25.7966 7.72369ZM13.1519 4.63751C13.3899 4.27389 13.5846 3.95773 13.5846 3.93489C13.5846 3.84803 13.4253 3.90842 12.5636 4.32232C10.8966 5.12295 8.98761 6.4486 7.91487 7.55042L7.70893 7.76194C7.63035 7.84266 7.6715 7.97832 7.78168 8.00178V8.00178C8.23619 8.09855 10.8716 8.49678 11.0589 8.49696C11.2042 8.49714 11.3012 8.34911 11.5368 7.76681C11.9386 6.77397 12.6291 5.43601 13.1519 4.63751ZM31.3423 6.68543C30.3295 5.83894 29.0642 5.01768 27.8622 4.42679C26.8065 3.90771 26.6365 3.8406 26.6365 3.9425C26.6365 3.96951 26.7963 4.22635 26.9918 4.5132C27.4658 5.20927 28.2243 6.6694 28.6361 7.67827C28.8838 8.28509 29.0118 8.49723 29.1304 8.49723C29.3288 8.49723 31.4817 8.18177 32.1313 8.05747C32.3944 8.00718 32.6322 7.96601 32.6598 7.96601C32.7536 7.96601 32.0116 7.2448 31.3423 6.68543ZM10.0478 11.016C9.16589 10.8939 6.5105 10.4355 6.21519 10.3543C5.68956 10.2099 5.62572 10.2424 5.23994 10.8516C3.94212 12.9006 2.9808 15.6619 2.7076 18.1255V18.1255C2.67487 18.4207 2.90597 18.6788 3.20299 18.6788H6.01559H8.29864C8.90825 18.6788 9.41182 18.2029 9.4462 17.5943V17.5943C9.5515 15.7283 10.0179 12.6146 10.3804 11.3568V11.3568C10.4235 11.2073 10.3241 11.0542 10.1699 11.0329L10.0478 11.016ZM10.2847 28.2628C9.87815 26.6018 9.41157 23.1521 9.41157 21.8076V21.8076C9.41157 21.5465 9.19994 21.3349 8.93888 21.3349H6.02891H3.20299C2.90597 21.3349 2.67487 21.5931 2.7076 21.8883V21.8883C2.91714 23.778 3.58226 26.0316 4.42282 27.7003C5.04522 28.9358 5.55709 29.7458 5.7154 29.7458C5.77942 29.7458 6.21457 29.6661 6.68239 29.5687C7.38125 29.4232 10.2037 28.9532 10.3982 28.9499C10.4281 28.9494 10.3771 28.6402 10.2847 28.2628ZM13.2253 35.5049C12.7442 34.7827 11.904 33.1629 11.5352 32.2469C11.2544 31.5492 11.2291 31.517 10.9701 31.5267C10.6611 31.5382 9.57574 31.7013 8.35978 31.9187L8.01293 31.9808C7.80713 32.0176 7.72594 32.2693 7.87145 32.4194V32.4194C8.43312 32.9989 9.50675 33.8629 10.4416 34.4876C11.3195 35.0744 13.4596 36.186 13.5458 36.1C13.571 36.0751 13.4267 35.8072 13.2253 35.5049Z" fill="white"/>
<path d="M38.9337 34.6931C37.7237 35.0119 36.9018 36.0728 36.9018 37.3156C36.9018 38.3694 37.4349 39.2284 38.401 39.7311C39.0032 40.0445 40.0566 40.0661 40.6846 39.7779C41.6035 39.3563 42.2633 38.3271 42.2633 37.3156C42.2633 36.3036 41.5955 35.2626 40.69 34.8632C40.2425 34.6657 39.3614 34.5805 38.9337 34.6931Z" fill="black"/>
</svg>
