<svg width="31" height="40" viewBox="0 0 31 40" fill="none" xmlns="http://www.w3.org/2000/svg">
<path fill-rule="evenodd" clip-rule="evenodd" d="M17.0564 0.00877004C13.5964 0.26084 11.6829 0.692652 10.5084 1.4864C9.97475 1.8471 9.59337 2.33421 9.37528 2.93388C9.1062 3.67376 9.21339 4.75457 9.60836 5.28375C9.66599 5.36098 9.69864 5.44707 9.68585 5.4882C9.6737 5.52724 9.43863 5.78887 9.16343 6.06957C8.84163 6.39776 8.40837 6.59321 7.94936 6.61725L7.83952 6.623L7.29682 6.65145C7.11665 6.6609 6.94717 6.73988 6.82405 6.87177C6.58551 7.12731 6.51621 7.3456 6.58155 7.63582C6.64441 7.91529 6.76375 8.06469 7.02164 8.18701C7.21031 8.27645 7.31502 8.2954 7.69469 8.30867L7.84254 8.31386C8.01165 8.31979 8.14648 8.45714 8.14928 8.62634C8.15204 8.79239 8.1588 8.94661 8.16427 8.96907C8.16975 8.99154 8.1765 9.10258 8.17926 9.21587C8.18377 9.40199 8.20244 9.44168 8.37285 9.62784C8.47656 9.74117 8.61343 9.86137 8.67702 9.89498C8.92988 10.0286 9.39782 9.91511 9.58226 9.6755C9.71354 9.50495 9.7456 9.31034 9.7691 8.54024C9.78357 8.06724 9.97397 7.61665 10.3031 7.27658L10.3567 7.22116C10.6675 6.89995 10.9773 6.60169 11.0452 6.55827C11.1632 6.4828 11.1814 6.48218 11.4648 6.54394C11.8543 6.62884 12.6158 6.60022 12.9633 6.48766C13.5181 6.30796 14.1358 5.77564 15.2835 4.48821C16.1847 3.47723 16.5537 3.09173 16.9632 2.73356C17.9955 1.83052 18.8509 1.55632 20.3135 1.65948C23.0478 1.85237 25.2451 2.7318 26.8769 4.28629C27.4516 4.83376 28.0417 5.65369 28.4247 6.43693C29.2433 8.11068 29.5007 9.78467 29.282 12.0117C29.0879 13.988 28.0248 16.4225 26.3839 18.6484C24.6894 20.9471 22.3793 22.9723 20.1537 24.1105C19.2599 24.5676 18.543 24.7982 17.5802 24.9385C16.8833 25.0401 16.7527 25.0775 16.6018 25.2185C16.2463 25.5506 16.2604 26.0858 16.6343 26.449C16.7286 26.5406 16.8551 26.5916 16.9866 26.5911L17.4285 26.5892C18.1313 26.5861 18.5221 26.5224 19.2572 26.2909C20.8952 25.7752 22.8402 24.6377 24.333 23.3225C25.2094 22.5504 26.6496 21.0473 27.2622 20.2655C28.8063 18.2946 30.111 15.7382 30.6447 13.6377C31.1539 11.6338 31.1138 9.28539 30.5372 7.33543C29.6742 4.41649 27.6024 2.15423 24.6897 0.950358C23.4517 0.438662 22.2047 0.141054 20.9885 0.0670501C20.2703 0.0233094 17.4335 -0.0187159 17.0564 0.00877004ZM14.1393 3.29218C14.3866 3.0114 14.7865 2.56574 15.0279 2.30179C15.4653 1.82362 15.4663 1.8219 15.3325 1.82725C14.7937 1.84866 13.502 2.09693 12.6882 2.33544C11.4829 2.68875 10.8597 3.20882 10.8566 3.86395C10.8541 4.39378 11.2404 4.78974 11.8957 4.92888C12.4732 5.05153 12.7987 4.81404 14.1393 3.29218Z" fill="white"/>
<path fill-rule="evenodd" clip-rule="evenodd" d="M1.41023 11.6635C0.880061 11.6795 0.497918 11.7085 0.447642 11.7365C0.294258 11.8217 0.0762102 12.1073 0.0287721 12.2851C-0.0458421 12.5647 0.0298113 13.5948 0.196224 14.5643C0.917308 18.7662 3.56253 22.2005 7.4009 23.9183C8.01636 24.1938 8.9931 24.5375 9.36321 24.609C9.4951 24.6344 9.64225 24.6637 9.69025 24.6741C9.74121 24.6851 9.77767 24.7301 9.77799 24.7822L9.79128 26.9698C9.80426 29.1128 9.8097 29.2598 9.88387 29.4703C9.98015 29.7435 10.1075 29.8402 10.5589 29.9828C11.2316 30.1955 13.0201 30.6289 13.8193 30.773C14.0856 30.8209 14.2834 30.747 14.4935 30.5211C14.5802 30.4278 14.6292 30.3057 14.631 30.1783L14.6682 27.5651C14.6953 25.6655 14.722 24.7452 14.7507 24.7266C14.7742 24.7115 14.9442 24.6604 15.1286 24.6131C18.1312 23.8436 20.7136 21.9798 22.4314 19.3427C23.0459 18.3993 23.4476 17.5697 23.8128 16.4894C24.2196 15.2862 24.3752 14.44 24.4505 13.0222L24.4758 12.5441C24.4877 12.32 24.4124 12.0999 24.2656 11.9302C24.1203 11.7621 23.9093 11.6651 23.6871 11.6644L20.9163 11.6549C14.4196 11.6326 2.25417 11.6379 1.41023 11.6635ZM22.7844 13.7373C22.516 15.7899 21.6797 17.7756 20.4527 19.2735C19.7666 20.111 18.9159 20.9083 18.1155 21.4638C16.9229 22.2915 15.7763 22.7685 14.0791 23.1432C13.6037 23.2481 13.4551 23.3206 13.2323 23.5561C13.1247 23.6698 13.0644 23.8202 13.0637 23.9767L13.0524 26.2925C13.0456 27.7001 13.0287 28.8634 13.0149 28.8774C13.0012 28.8914 12.6461 28.8148 12.2258 28.7072C11.7762 28.592 11.4615 28.1869 11.4612 27.7227L11.4605 26.7553C11.4588 24.5533 11.4224 23.861 11.2941 23.5968C11.2378 23.4809 11.1561 23.3843 11.0855 23.35C11.0217 23.3191 10.5901 23.1976 10.1263 23.0801C8.88124 22.7645 8.20012 22.5117 7.31086 22.0353C5.40283 21.0131 3.75301 19.3054 2.79569 17.3619C2.25449 16.2631 1.91015 15.136 1.71333 13.8189C1.67555 13.5662 1.87129 13.3391 2.1268 13.3391H12.2391H22.4349C22.6478 13.3391 22.812 13.5262 22.7844 13.7373ZM10.3725 33.3919C10.2171 33.4397 9.95161 33.6643 9.8776 33.8106C9.83184 33.901 9.80642 34.1323 9.78356 34.6658C9.76638 35.0681 9.74568 35.4024 9.7376 35.4088C9.72949 35.4151 8.9226 35.9685 7.94447 36.6383C5.99347 37.9744 5.29584 38.4634 5.15305 38.5947C4.88996 38.8364 4.84484 39.202 5.03076 39.5853C5.03927 39.6028 5.04684 39.6196 5.05408 39.6357C5.06973 39.6703 5.08384 39.7016 5.10253 39.7298C5.27404 39.9885 5.83127 39.9884 11.5032 39.9878C11.7891 39.9878 12.088 39.9878 12.4005 39.9878C17.5128 39.9878 18.7997 39.9773 18.9839 39.934C19.1688 39.8906 19.239 39.849 19.3488 39.7179C19.5868 39.4338 19.6394 38.989 19.4639 38.7457C19.3538 38.5931 18.6017 38.0548 16.5081 36.6299L14.9142 35.5451C14.7557 35.4372 14.6604 35.2582 14.6595 35.0664C14.6573 34.5814 14.5066 34.385 13.9911 34.1954C13.4667 34.0024 10.7695 33.3434 10.5504 33.3546C10.5129 33.3566 10.4329 33.3733 10.3725 33.3919ZM12.2416 35.4372C12.5928 35.5288 12.9181 35.6287 12.9645 35.6591C13.0233 35.6976 13.0552 35.771 13.0695 35.9007C13.11 36.2678 13.2681 36.4081 14.9166 37.5395L15.0373 37.6223C15.3551 37.8404 15.2021 38.3381 14.8167 38.34C13.0948 38.3485 8.49054 38.3336 8.47664 38.3194C8.47044 38.3131 8.95461 37.9691 9.55261 37.555C11.3341 36.3215 11.4134 36.2405 11.4515 35.6166C11.4688 35.3326 11.4843 35.2706 11.5379 35.2706C11.5738 35.2706 11.8905 35.3456 12.2416 35.4372Z" fill="black"/>
<path d="M6.71179 26.7387C6.06856 26.9152 5.67539 27.2135 5.43756 27.7056C5.28893 28.013 5.28685 28.0241 5.28881 28.4891C5.29057 28.9028 5.30416 28.9954 5.39939 29.2431C5.76643 30.1977 6.792 31.1618 8.16347 31.8414C9.62015 32.5633 11.0241 32.9301 13.952 33.3536C16.1981 33.6784 17.0823 33.926 18.3448 34.5832C19.6436 35.2593 20.4878 36.1819 20.9077 37.384C21.0496 37.7902 21.1131 38.0881 21.21 38.8024C21.3081 39.526 21.3913 39.7372 21.6324 39.8748C22.0034 40.0866 22.2899 40.0335 22.6506 39.6863C22.8016 39.541 22.8798 39.3359 22.864 39.1269L22.8503 38.9463C22.7964 38.2368 22.7448 37.8964 22.6094 37.3595C21.8762 34.4511 19.3318 32.5448 15.2747 31.8646C14.9432 31.809 14.3138 31.7153 13.8759 31.6565C11.5768 31.3473 10.1052 30.9605 8.87624 30.3423C8.1303 29.967 7.43835 29.4428 7.10349 28.9993C6.79176 28.5864 6.82154 28.3994 7.20632 28.3532C7.96565 28.262 8.36961 27.6449 8.02915 27.0963C7.7653 26.6711 7.3595 26.5609 6.71179 26.7387Z" fill="white"/>
</svg>
