<svg width="30" height="30" viewBox="0 0 30 30" fill="none" xmlns="http://www.w3.org/2000/svg">
<path d="M24.9576 8.61407L19.8991 7.88261L17.6369 3.32125C16.7631 1.55932 14.2365 1.55986 13.363 3.3212L11.1008 7.88255L6.04235 8.61407C4.08831 8.89658 3.30832 11.2878 4.72168 12.6589L8.38202 16.2095L7.51795 21.2228C7.18421 23.1594 9.22838 24.6365 10.9756 23.7227L15.5 21.3556L20.0245 23.7227C21.7693 24.6355 23.8158 23.1591 23.4821 21.2228L22.6181 16.2094L26.2785 12.6589C27.6921 11.2873 26.9108 8.89652 24.9576 8.61407ZM24.8525 11.2034L20.8077 15.1269C20.567 15.3604 20.4572 15.6968 20.5139 16.0264L21.4688 21.5665C21.5167 21.8447 21.2258 22.0548 20.9749 21.9236L15.9752 19.308C15.6777 19.1524 15.3222 19.1524 15.0247 19.308L10.025 21.9236C9.77391 22.0549 9.48313 21.8447 9.53106 21.5665L10.4859 16.0264C10.5427 15.6968 10.4329 15.3604 10.1922 15.1269L6.14738 11.2034C5.94421 11.0064 6.05534 10.6662 6.33606 10.6255L11.9259 9.81724C12.2585 9.76912 12.5461 9.56129 12.6948 9.26133L15.1947 4.22077C15.3202 3.9678 15.6797 3.96762 15.8052 4.22083L18.3051 9.26133C18.4539 9.56129 18.7415 9.76918 19.0741 9.81724L24.6639 10.6255C24.9445 10.6662 25.0556 11.0064 24.8525 11.2034Z" fill="#6667AB"/>
<path d="M7.82064 3.25809L6.69805 1.45225C6.39325 0.962175 5.80629 0.853411 5.38698 1.20966C4.96761 1.56577 4.87461 2.25184 5.17936 2.74198L6.30195 4.54776C6.60686 5.03809 7.19382 5.14641 7.61302 4.79035C8.03239 4.4343 8.1254 3.74823 7.82064 3.25809Z" fill="#6667AB"/>
<path d="M3.95046 17.7849C3.77882 17.1886 3.21111 16.862 2.68244 17.056L0.695581 17.7844C0.167026 17.9782 -0.122194 18.6187 0.0495102 19.2151C0.221509 19.8125 0.790159 20.1377 1.31753 19.9441L3.30439 19.2157C3.83301 19.0219 4.12222 18.3813 3.95046 17.7849Z" fill="#6667AB"/>
<path d="M24.613 1.20962C24.1937 0.8535 23.6067 0.962072 23.302 1.45222L22.1794 3.25803C21.8746 3.74818 21.9676 4.43432 22.387 4.79038C22.8065 5.14663 23.3935 5.03773 23.6981 4.54778L24.8207 2.74197C25.1254 2.25182 25.0324 1.56568 24.613 1.20962Z" fill="#6667AB"/>
<path d="M29.3044 17.7844L27.3176 17.056C26.789 16.8619 26.2213 17.1886 26.0495 17.785C25.8778 18.3813 26.167 19.022 26.6956 19.2157L28.6824 19.9441C29.2099 20.1377 29.7785 19.8125 29.9505 19.2152C30.1222 18.6188 29.833 17.9782 29.3044 17.7844Z" fill="#6667AB"/>
<path d="M15 25C14.4477 25 14 25.4444 14 25.9926V28.0074C14 28.5556 14.4477 29 15 29C15.5523 29 16 28.5556 16 28.0074V25.9926C16.0001 25.4444 15.5523 25 15 25Z" fill="#6667AB"/>
</svg>
