<svg width="30" height="30" viewBox="0 0 30 30" fill="none" xmlns="http://www.w3.org/2000/svg">
<g clip-path="url(#clip0_2860_1765)">
<path d="M29.3423 13.5698C29.1375 13.2984 28.9256 13.0177 28.8919 12.7997C28.8553 12.5677 28.9725 12.2269 29.0859 11.8978C29.2509 11.4206 29.437 10.8797 29.2697 10.3641C29.0995 9.83859 28.6252 9.50719 28.2066 9.21469C27.9253 9.01828 27.6352 8.81531 27.5325 8.61469C27.4275 8.40938 27.4336 8.05125 27.4392 7.70531C27.4477 7.19812 27.457 6.62391 27.1359 6.18234C26.8134 5.73891 26.2622 5.57062 25.7761 5.4225C25.4466 5.32219 25.1053 5.21766 24.9445 5.05688C24.7833 4.89563 24.6792 4.55437 24.5789 4.22484C24.4308 3.73875 24.2625 3.1875 23.8186 2.865C23.3775 2.54391 22.8028 2.55281 22.2961 2.56172C21.9502 2.56828 21.5916 2.57344 21.3867 2.46844C21.1861 2.36625 20.9831 2.07562 20.7867 1.79438C20.4947 1.37578 20.1633 0.901875 19.6378 0.73125C19.1217 0.563906 18.5798 0.75 18.1022 0.914062C17.7731 1.0275 17.4314 1.14422 17.2003 1.10859C16.9823 1.07438 16.7016 0.8625 16.4297 0.658125C16.0209 0.349688 15.5569 0 15 0C14.4431 0 13.9791 0.349688 13.5698 0.658125C13.2984 0.862969 13.0177 1.07438 12.7997 1.10859C12.5686 1.14562 12.2273 1.0275 11.8978 0.914062C11.4202 0.749531 10.8792 0.563437 10.3641 0.730312C9.83859 0.900937 9.50719 1.37484 9.21469 1.79344C9.01828 2.07422 8.81531 2.36484 8.61469 2.46703C8.40938 2.57203 8.05078 2.56547 7.70531 2.56031C7.19812 2.55047 6.62391 2.54203 6.18234 2.86359C5.73891 3.18609 5.57062 3.73734 5.4225 4.22344C5.32219 4.55344 5.21766 4.89422 5.05688 5.05547C4.89563 5.21672 4.55438 5.32078 4.22438 5.42156C3.73828 5.56969 3.1875 5.73797 2.86453 6.18141C2.54344 6.6225 2.55281 7.19719 2.56125 7.70438C2.56688 8.05078 2.5725 8.40844 2.46797 8.61422C2.36578 8.81437 2.07516 9.01734 1.79438 9.21375C1.37578 9.50625 0.901875 9.83766 0.730781 10.3631C0.563438 10.8792 0.75 11.4202 0.914531 11.8978C1.02797 12.2273 1.14562 12.5677 1.10906 12.7997C1.07484 13.0177 0.863437 13.2984 0.658594 13.5698C0.349687 13.9791 0 14.4431 0 15C0 15.5569 0.349688 16.0209 0.658125 16.4302C0.862969 16.7016 1.07438 16.9828 1.10859 17.2008L2.03484 17.055C1.96453 16.6055 1.68094 16.2295 1.40672 15.8658C1.17609 15.5597 0.9375 15.2433 0.9375 15C0.9375 14.7567 1.17609 14.4403 1.40672 14.1342C1.68094 13.7705 1.96406 13.3945 2.03484 12.945C2.1075 12.4828 1.95141 12.03 1.80047 11.5922C1.67813 11.2373 1.55156 10.8698 1.62234 10.6528C1.69594 10.4264 2.01891 10.2009 2.33109 9.9825C2.70609 9.72047 3.09422 9.44953 3.30281 9.04078C3.51375 8.62734 3.50625 8.15062 3.49828 7.68937C3.49219 7.31156 3.48609 6.92156 3.6225 6.73359C3.76078 6.54375 4.13531 6.42937 4.49813 6.31875C4.93781 6.18422 5.39297 6.04547 5.71969 5.71875C6.04641 5.39203 6.18516 4.93734 6.31922 4.49766C6.42984 4.13531 6.54375 3.76031 6.73406 3.62203C6.92203 3.48516 7.3125 3.49125 7.68984 3.49781C8.15109 3.50531 8.62734 3.51328 9.04125 3.30234C9.45 3.09375 9.72094 2.70609 9.98344 2.33063C10.2014 2.01844 10.4273 1.69594 10.6538 1.62234C10.8703 1.55109 11.2378 1.67859 11.5927 1.80047C12.0309 1.95141 12.4833 2.10703 12.9455 2.03484C13.3945 1.96453 13.7709 1.68094 14.1347 1.40672C14.4403 1.17609 14.7567 0.9375 15 0.9375C15.2433 0.9375 15.5597 1.17609 15.8658 1.40672C16.2295 1.68094 16.6055 1.96406 17.055 2.03484C17.5162 2.10609 17.97 1.95141 18.4078 1.80047C18.7631 1.67813 19.1297 1.55109 19.3477 1.62234C19.5736 1.69594 19.7995 2.01844 20.018 2.33063C20.28 2.70563 20.5514 3.09375 20.9597 3.30234C21.3731 3.51328 21.8517 3.50672 22.3111 3.49781C22.6889 3.49219 23.0794 3.48516 23.2673 3.62203C23.4572 3.76031 23.5711 4.13484 23.6822 4.49766C23.8162 4.93734 23.955 5.3925 24.2817 5.71922C24.608 6.04594 25.0631 6.18469 25.5028 6.31875C25.8647 6.42937 26.2397 6.54375 26.378 6.73359C26.5148 6.92156 26.5083 7.31156 26.5022 7.68937C26.4947 8.15062 26.4872 8.62734 26.6981 9.04078C26.9067 9.44953 27.2944 9.72047 27.6694 9.9825C27.9816 10.2009 28.3041 10.4264 28.3781 10.6533C28.4484 10.8703 28.3223 11.2373 28.2 11.5922C28.0491 12.03 27.8934 12.4828 27.9656 12.945C28.0364 13.3941 28.32 13.7705 28.5938 14.1337C28.8239 14.4403 29.0625 14.7567 29.0625 15C29.0625 15.2433 28.8239 15.5597 28.5933 15.8663C28.3195 16.2295 28.0364 16.6055 27.9652 17.055L28.8919 17.2008C28.9256 16.9828 29.1375 16.702 29.3423 16.4302C29.6503 16.0209 30 15.5569 30 15C30 14.4431 29.6503 13.9791 29.3423 13.5698ZM25.5019 23.6817C25.0622 23.8158 24.607 23.9545 24.2808 24.2812C23.9541 24.6075 23.8153 25.0627 23.6808 25.5023C23.5706 25.8647 23.4562 26.2392 23.2659 26.3775C23.0784 26.5139 22.6856 26.5073 22.3106 26.5017C21.8494 26.4942 21.3731 26.4867 20.9588 26.6977C20.5505 26.9062 20.2795 27.2939 20.0175 27.6689C19.7991 27.9811 19.5736 28.3036 19.3467 28.3777C19.1292 28.4489 18.7627 28.3223 18.4073 28.1995C17.9695 28.0491 17.5163 27.8958 17.0545 27.9652C16.605 28.0359 16.2291 28.3195 15.8658 28.5933C15.5597 28.8239 15.2433 29.0625 15 29.0625C14.7567 29.0625 14.4403 28.8239 14.1337 28.5933C13.7705 28.3195 13.3941 28.0364 12.945 27.9652C12.4842 27.8958 12.03 28.0491 11.5922 28.1995C11.2373 28.3219 10.8708 28.4489 10.6528 28.3777C10.4264 28.3041 10.2005 27.9811 9.9825 27.6689C9.72 27.2934 9.44906 26.9058 9.04078 26.6972C8.62734 26.4862 8.15016 26.4937 7.68984 26.5017C7.31203 26.5064 6.92156 26.5144 6.73359 26.377C6.54375 26.2388 6.42937 25.8642 6.31875 25.5019C6.18422 25.0622 6.04547 24.607 5.71875 24.2808C5.39203 23.9541 4.93734 23.8153 4.49719 23.6808C4.13484 23.5706 3.75984 23.4562 3.62203 23.2659L2.86406 23.8181C3.18656 24.2611 3.73781 24.4294 4.22344 24.5775C4.55344 24.6783 4.89469 24.7823 5.05594 24.9436C5.21719 25.1048 5.32125 25.4456 5.42203 25.7756C5.57016 26.2617 5.73844 26.8125 6.18187 27.135C6.62297 27.457 7.19766 27.4462 7.70531 27.4383C8.05078 27.4345 8.40938 27.427 8.61469 27.5316C8.81484 27.6338 9.01781 27.9244 9.21422 28.2056C9.50672 28.6242 9.83812 29.0981 10.3636 29.2692C10.8787 29.4352 11.4202 29.2505 11.8978 29.0855C12.2273 28.9725 12.5686 28.8516 12.7997 28.8914C13.0177 28.9252 13.2984 29.137 13.5698 29.3419C13.9791 29.6503 14.4431 30 15 30C15.5569 30 16.0209 29.6503 16.4302 29.3423C16.7016 29.1375 16.9828 28.9256 17.2008 28.8919C17.4295 28.8516 17.7731 28.9725 18.1027 29.0859C18.5808 29.2509 19.1222 29.4375 19.6364 29.2697C20.1619 29.0995 20.4933 28.6247 20.7858 28.2061C20.9822 27.9253 21.1856 27.6347 21.3853 27.5325C21.5906 27.427 21.9478 27.4327 22.2947 27.4392C22.7986 27.4472 23.3756 27.457 23.8177 27.1359C24.2606 26.8134 24.4289 26.2627 24.577 25.7766C24.6778 25.447 24.7819 25.1053 24.9431 24.9445C25.1044 24.7833 25.4452 24.6792 25.7747 24.5789C26.2608 24.4308 26.812 24.262 27.1345 23.8186L26.3766 23.2673C26.2392 23.4567 25.8642 23.5706 25.5019 23.6817Z" fill="#6667AB"/>
<path d="M4.01922 21.45V20.55C4.01922 20.3012 3.80866 20.1 3.54922 20.1H2.60922V21H3.07922V21.45C3.07922 21.6984 2.86819 21.9 2.60922 21.9C2.35025 21.9 2.13922 21.6984 2.13922 21.45V18.75C2.13922 18.5016 2.35025 18.3 2.60922 18.3C2.86819 18.3 3.07922 18.5016 3.07922 18.75V19.2H4.01922V18.75C4.01922 18.0057 3.3866 17.4 2.60922 17.4C1.83184 17.4 1.19922 18.0057 1.19922 18.75V21.45C1.19922 22.1943 1.83184 22.8 2.60922 22.8C3.3866 22.8 4.01922 22.1943 4.01922 21.45ZM4.48922 17.4V21.45C4.48922 22.1943 5.12184 22.8 5.89922 22.8C6.6766 22.8 7.30922 22.1943 7.30922 21.45V17.4H6.36922V21.45C6.36922 21.6984 6.15819 21.9 5.89922 21.9C5.64025 21.9 5.42922 21.6984 5.42922 21.45V17.4H4.48922ZM7.77922 18.75V22.8H8.71922V21.9H9.65922V22.8H10.5992V18.75C10.5992 18.0057 9.9666 17.4 9.18922 17.4C8.41184 17.4 7.77922 18.0057 7.77922 18.75ZM9.65922 18.75V21H8.71922V18.75C8.71922 18.5016 8.93025 18.3 9.18922 18.3C9.44819 18.3 9.65922 18.5016 9.65922 18.75ZM14.3592 18.75V22.8H15.2992V21.9H16.2392V22.8H17.1792V18.75C17.1792 18.0057 16.5466 17.4 15.7692 17.4C14.9918 17.4 14.3592 18.0057 14.3592 18.75ZM15.7692 18.3C16.0287 18.3 16.2392 18.5016 16.2392 18.75V21H15.2992V18.75C15.2992 18.5016 15.5102 18.3 15.7692 18.3ZM11.0692 17.85V20.0982C11.0692 20.0996 11.0692 20.1005 11.0692 20.1014V22.8H12.0092V21.383L13.0521 22.6313C13.1414 22.7379 13.2763 22.8 13.4192 22.8H13.8892V21.9H13.6448L12.5008 20.5307C13.2867 20.4123 13.8892 19.7598 13.8892 18.975C13.8892 18.1065 13.1513 17.4 12.2442 17.4H11.5392C11.2798 17.4 11.0692 17.6012 11.0692 17.85ZM12.0092 18.3H12.2442C12.6329 18.3 12.9492 18.6029 12.9492 18.975C12.9492 19.3472 12.6329 19.65 12.2442 19.65H12.0092V18.3ZM19.5292 20.0136L18.5558 17.6831C18.4717 17.4819 18.248 17.3699 18.0304 17.4081C17.809 17.4486 17.6492 17.6345 17.6492 17.85V22.8H18.5892V20.1864L19.5626 22.517C19.6354 22.6907 19.8103 22.8 19.9987 22.8C20.0284 22.8 20.0584 22.7973 20.088 22.7919C20.3094 22.7514 20.4692 22.5656 20.4692 22.35V17.4H19.5292V20.0136ZM22.8192 18.3H23.7592V17.4H20.9392V18.3H21.8792V22.8H22.8192V18.3ZM26.5792 18.3V17.4H24.6992C24.4393 17.4 24.2292 17.6012 24.2292 17.85V22.35C24.2292 22.5989 24.4393 22.8 24.6992 22.8H26.5792V21.9H25.1692V20.55H26.5792V19.65H25.1692V18.3H26.5792ZM27.0492 17.85V22.35C27.0492 22.5989 27.2593 22.8 27.5192 22.8H29.3992V21.9H27.9892V20.55H29.3992V19.65H27.9892V18.3H29.3992V17.4H27.5192C27.2593 17.4 27.0492 17.6012 27.0492 17.85Z" fill="#6667AB"/>
<path d="M26.4 14.7C26.4 8.24862 21.1514 3 14.7 3C8.24862 3 3 8.24862 3 14.7C3 15.1713 3.03182 15.6631 3.09407 16.162L4.02258 16.046C3.96502 15.5855 3.936 15.1324 3.936 14.7C3.936 8.76482 8.76482 3.936 14.7 3.936C20.6356 3.936 25.464 8.76482 25.464 14.7C25.464 15.1324 25.435 15.5855 25.377 16.046L26.3055 16.162C26.3686 15.6631 26.4 15.1713 26.4 14.7ZM21.845 23.9622L21.2726 23.2218C19.373 24.6885 17.1008 25.464 14.7 25.464C12.2996 25.464 10.027 24.6885 8.12788 23.2218L7.55551 23.9622C9.62033 25.5571 12.0904 26.4 14.7 26.4C17.3096 26.4 19.7801 25.5571 21.845 23.9622Z" fill="#6667AB"/>
<path d="M10.547 9.59998H9.59961V10.5H10.0733V15H11.0207V10.05C11.0207 9.80158 10.8085 9.59998 10.547 9.59998ZM13.1522 9.59998C12.238 9.59998 11.4943 10.3065 11.4943 11.175V13.425C11.4943 14.2935 12.238 15 13.1522 15C14.0665 15 14.8101 14.2935 14.8101 13.425V11.175C14.8101 10.3065 14.0665 9.59998 13.1522 9.59998ZM13.8628 13.425C13.8628 13.7971 13.544 14.1 13.1522 14.1C12.7605 14.1 12.4417 13.7971 12.4417 13.425V11.175C12.4417 10.8028 12.7605 10.5 13.1522 10.5C13.544 10.5 13.8628 10.8028 13.8628 11.175V13.425ZM16.9417 9.59998C16.0275 9.59998 15.2838 10.3065 15.2838 11.175V13.425C15.2838 14.2935 16.0275 15 16.9417 15C17.8559 15 18.5996 14.2935 18.5996 13.425V11.175C18.5996 10.3065 17.8559 9.59998 16.9417 9.59998ZM17.6522 13.425C17.6522 13.7971 17.3335 14.1 16.9417 14.1C16.55 14.1 16.2312 13.7971 16.2312 13.425V11.175C16.2312 10.8028 16.55 10.5 16.9417 10.5C17.3335 10.5 17.6522 10.8028 17.6522 11.175V13.425Z" fill="#6667AB"/>
<path d="M19.8008 14.5779L21.8737 10.8L22.8008 11.2222L20.7279 15L19.8008 14.5779Z" fill="#6667AB"/>
<path d="M20.3992 12H19.1992V13.2H20.3992V12Z" fill="#6667AB"/>
<path d="M23.3992 13.8H22.1992V15H23.3992V13.8Z" fill="#6667AB"/>
</g>
<defs>
<clipPath id="clip0_2860_1765">
<rect width="30" height="30" fill="white"/>
</clipPath>
</defs>
</svg>
