<svg width="26" height="40" viewBox="0 0 26 40" fill="none" xmlns="http://www.w3.org/2000/svg">
<path d="M9.17953 36.1276C9.02119 35.6625 8.96136 35.1694 9.00363 34.6779C9.04508 34.2118 9.18601 33.7578 9.41734 33.345C9.65856 32.92 9.98428 32.5453 10.375 32.2435C10.8186 31.9015 11.3213 31.6407 11.8582 31.4742C12.3944 31.293 12.9581 31.2072 13.5222 31.2209C14.0196 31.2322 14.5078 31.3426 14.9568 31.5451C15.3866 31.7433 15.7678 32.0276 16.076 32.3799C16.3992 32.7529 16.641 33.1867 16.7873 33.6557C16.9446 34.1171 17.0032 34.6066 16.9595 35.0942C16.9138 35.5564 16.7717 36.0062 16.5422 36.4158C16.298 36.8432 15.9682 37.2193 15.5729 37.5211C15.1246 37.8633 14.6183 38.1252 14.0781 38.2941C13.5458 38.4745 12.9858 38.5591 12.4257 38.5436C11.9321 38.5288 11.4482 38.4172 11.0027 38.2156C10.5757 38.0197 10.1959 37.7394 9.88715 37.3921C9.56439 37.0238 9.32356 36.5934 9.17953 36.1276ZM13.7344 27.617L8.07986 29.4543L1.16722 10.9457L8.42789 8.58653L13.7344 27.617Z" fill="white"/>
<path d="M18.271 21.2645C18.1497 20.9079 18.1023 20.5303 18.1317 20.1545C18.1605 19.7981 18.2642 19.4514 18.436 19.1368C18.6153 18.8128 18.8582 18.5277 19.1504 18.2987C19.4822 18.0392 19.8587 17.8422 20.2614 17.7174C20.6635 17.5814 21.0868 17.5185 21.5108 17.5318C21.8847 17.5429 22.2522 17.6297 22.5906 17.7869C22.9147 17.9406 23.2026 18.16 23.4359 18.431C23.6806 18.7179 23.8646 19.0511 23.9768 19.4106C24.0973 19.7644 24.1437 20.1391 24.1133 20.512C24.0812 20.8654 23.9766 21.2088 23.8061 21.521C23.6247 21.8469 23.3787 22.133 23.083 22.3619C22.7477 22.6216 22.3685 22.8194 21.9633 22.946C21.5641 23.0814 21.1437 23.1434 20.7227 23.1288C20.3516 23.115 19.9873 23.0273 19.6515 22.8709C19.3296 22.7189 19.0428 22.5026 18.809 22.2354C18.5646 21.952 18.3815 21.6216 18.271 21.2645ZM21.6526 14.7756L17.4117 16.1535L12.1254 1.95925L17.5709 0.189899L21.6526 14.7756Z" fill="white"/>
</svg>
