<svg width="165" height="166" viewBox="0 0 165 166" fill="none" xmlns="http://www.w3.org/2000/svg">
<g clip-path="url(#clip0_2573_3594)">
<path d="M158.083 112.872C141.367 151.815 97.2444 168.541 62.6738 165.689C53.2344 164.911 34.2426 163.344 19.4136 149.366C-9.06476 122.523 -4.67901 66.413 22.5826 33.3788C26.093 29.1242 50.3943 0.621787 88.2624 1.0038C115.988 1.28272 135.448 16.8936 137.814 18.8383C140.804 21.2949 147.397 27.133 153.338 36.395C167.3 58.1576 168.527 88.5373 158.083 112.872Z" fill="#D1D1E6"/>
<path d="M0.0378116 39.9105C-0.191188 39.2819 0.669637 38.7439 1.28366 39.1298C7.50106 43.0476 22.7639 55.1779 22.2217 79.5954C21.5412 110.231 30.134 120.365 40 126C40 126 27.1701 124.32 18.0083 114.09C-4.487 88.9722 4.11412 51.0944 0.0378116 39.9105Z" fill="#6667AB"/>
<g style="mix-blend-mode:soft-light">
<path d="M6.00612 49.237C7.10822 52.5206 8.1348 55.8237 9.02038 59.1619C9.92503 62.4901 10.7117 65.8443 11.3803 69.2248C12.0293 72.6034 12.6111 75.9945 13.0229 79.4076C13.4524 82.8178 13.7132 86.2422 13.961 89.6892C14.2306 93.1278 14.4801 96.5938 15.1374 100.036C15.7946 103.478 16.9257 106.881 18.7481 109.985C19.2036 110.758 19.6768 111.531 20.1983 112.263C20.7045 113.008 21.2491 113.732 21.8084 114.447C22.9485 115.887 24.1931 117.239 25.5318 118.493C28.2458 121.025 31.4158 123.179 34.8319 124.912C35.1912 125.095 35.6626 124.983 35.8844 124.662C36.1062 124.341 35.9977 123.949 35.6537 123.761C34.8372 123.319 34.0283 122.87 33.246 122.386C32.8501 122.151 32.4678 121.9 32.0801 121.656C31.7037 121.4 31.3132 121.156 30.9485 120.889C29.4758 119.858 28.08 118.719 26.772 117.483C24.1796 115.046 22.0043 112.247 20.2573 109.282C19.4069 107.801 18.6833 106.25 18.0944 104.646C17.518 103.049 17.0644 101.409 16.7375 99.7413C16.0696 96.4036 15.7905 92.9757 15.4926 89.5394C15.1946 86.1031 14.856 82.6567 14.3616 79.2299C14.1189 77.5155 13.8416 75.8063 13.5297 74.1022C13.3792 73.2494 13.2093 72.4001 13.0418 71.5509C12.8648 70.7026 12.6813 69.8561 12.4913 69.0114C11.7227 65.6326 10.8344 62.2821 9.8263 58.9599C8.79913 55.6442 7.67048 52.3571 6.39728 49.1175C6.37459 49.0707 6.33533 49.034 6.2872 49.0148C6.23906 48.9955 6.18553 48.9951 6.1371 49.0135C6.11382 49.0194 6.09192 49.0298 6.07269 49.0442C6.05346 49.0586 6.03727 49.0768 6.02507 49.0976C6.01288 49.1184 6.00493 49.1414 6.00167 49.1654C5.99842 49.1893 5.99993 49.2137 6.00612 49.237Z" fill="white"/>
</g>
<path d="M37.6228 94.5973C37.1274 96.007 35.3392 96.4583 34.2103 95.4692C27.9809 90.0107 11.7766 72.9991 12.9778 44.5835C13.9926 20.5877 12.2405 7.48039 11.0291 1.58499C10.7726 0.338376 12.2719 -0.506642 13.2258 0.344352C23.7467 9.74771 55.5605 43.4946 37.6228 94.5973Z" fill="#8889D6"/>
<g style="mix-blend-mode:soft-light">
<path d="M35.7416 93.8989C35.7098 93.9199 35.676 93.9381 35.6407 93.953C35.4954 94.0136 35.3313 94.0157 35.1845 93.9587C35.0376 93.9017 34.92 93.7903 34.8575 93.649C34.7101 93.3146 20.1147 59.8824 20.0004 26.6013C19.9975 26.5235 20.0108 26.446 20.0394 26.3733C20.0679 26.3006 20.1112 26.2343 20.1666 26.1782C20.2221 26.1221 20.2885 26.0774 20.362 26.0468C20.4355 26.0162 20.5146 26.0003 20.5946 26C20.6745 25.9997 20.7538 26.0151 20.8275 26.0452C20.9012 26.0753 20.968 26.1195 21.0238 26.1752C21.0797 26.2309 21.1235 26.2969 21.1526 26.3694C21.1816 26.4419 21.1955 26.5193 21.1932 26.5971C21.3051 59.6366 35.8058 92.8588 35.9513 93.1902C36.0059 93.3137 36.0149 93.4519 35.9767 93.5811C35.9384 93.7103 35.8554 93.8226 35.7416 93.8989Z" fill="white"/>
</g>
<path d="M23.0006 29.0535C23.0006 26.3871 24.0721 23.83 25.9794 21.9446C27.8868 20.0592 30.4736 19 33.171 19H119.659C121.956 19 124.166 19.8723 125.831 21.4369C127.497 23.0014 128.491 25.1385 128.607 27.4067L134.991 151.357C135.036 152.232 134.903 153.106 134.599 153.929C134.295 154.752 133.827 155.506 133.222 156.146C132.617 156.786 131.889 157.3 131.079 157.656C130.27 158.012 129.396 158.204 128.51 158.219L29.386 159.999C28.5529 160.014 27.7251 159.865 26.951 159.56C26.1769 159.255 25.472 158.801 24.8775 158.223C24.283 157.646 23.8108 156.958 23.4884 156.198C23.1661 155.439 23 154.623 23 153.8L23.0006 29.0535Z" fill="#37474F"/>
<path d="M43.7957 158H43.7921L32.7163 157.856C29.0128 157.808 26.0003 154.745 26.0003 151.028V134.249C25.9987 134.217 26.0036 134.185 26.0148 134.155C26.0259 134.125 26.0431 134.097 26.0652 134.074C26.0873 134.051 26.1139 134.032 26.1434 134.019C26.1729 134.007 26.2046 134 26.2367 134C26.2688 134 26.3006 134.007 26.33 134.019C26.3595 134.032 26.3861 134.051 26.4083 134.074C26.4304 134.097 26.4475 134.125 26.4587 134.155C26.4698 134.185 26.4747 134.217 26.4731 134.249V151.028C26.4731 154.487 29.2765 157.337 32.7229 157.381L43.7981 157.525C43.8544 157.534 43.9057 157.563 43.9427 157.606C43.9797 157.65 44 157.705 44 157.762C44 157.82 43.9797 157.875 43.9427 157.919C43.9057 157.962 43.8544 157.991 43.7981 158H43.7957Z" fill="#BDD0FB"/>
<path d="M26.2359 130C26.2049 130 26.1742 129.994 26.1456 129.983C26.117 129.972 26.091 129.955 26.0691 129.935C26.0472 129.914 26.0299 129.89 26.0181 129.863C26.0063 129.836 26.0002 129.807 26.0003 129.778V127.234C25.9987 127.203 26.0036 127.173 26.0147 127.145C26.0259 127.117 26.043 127.091 26.065 127.069C26.0871 127.047 26.1136 127.03 26.1431 127.018C26.1725 127.006 26.2042 127 26.2362 127C26.2682 127 26.2999 127.006 26.3293 127.018C26.3587 127.03 26.3853 127.047 26.4073 127.069C26.4294 127.091 26.4465 127.117 26.4576 127.145C26.4688 127.173 26.4737 127.203 26.4721 127.234V129.778C26.4713 129.836 26.4462 129.893 26.402 129.934C26.3579 129.976 26.2983 129.999 26.2359 130Z" fill="#BDD0FB"/>
<path d="M30.0001 20.9413C29.9973 20.5227 30.0855 20.1085 30.2586 19.7266C30.4317 19.3448 30.6857 19.0041 31.0034 18.7278C31.3211 18.4514 31.6951 18.2458 32.1001 18.1248C32.505 18.0038 32.9316 17.9703 33.3508 18.0265C45.1619 19.6106 85.7785 24.5122 119.359 21.9614C119.723 21.9334 120.088 21.9775 120.433 22.0911C120.779 22.2048 121.098 22.3857 121.372 22.6232C121.646 22.8607 121.87 23.15 122.029 23.4741C122.188 23.7982 122.28 24.1505 122.3 24.5104L128.996 149.125C129.04 149.945 128.754 150.75 128.201 151.363C127.647 151.976 126.871 152.347 126.042 152.396C111.919 153.222 53.7533 156.419 33.0069 154.269C32.3971 154.205 31.8326 153.921 31.4214 153.471C31.0102 153.021 30.7813 152.437 30.7785 151.831L30.0001 20.9413Z" fill="#6667AB"/>
<path d="M31.0001 23.8351C30.9972 23.4317 31.0817 23.0325 31.2477 22.6643C31.4137 22.2962 31.6575 21.9678 31.9624 21.7014C32.2673 21.435 32.6262 21.2368 33.015 21.1202C33.4037 21.0036 33.8131 20.9713 34.2155 21.0256C45.5513 22.5534 84.5246 27.2753 116.749 24.8183C117.097 24.791 117.448 24.8333 117.78 24.9427C118.112 25.052 118.418 25.2263 118.681 25.4551C118.944 25.684 119.158 25.9628 119.311 26.2752C119.464 26.5876 119.553 26.9273 119.571 27.2741L125.996 147.34C126.038 148.13 125.764 148.905 125.233 149.496C124.702 150.086 123.957 150.444 123.161 150.49C109.608 151.288 53.7937 154.367 33.8858 152.296C33.3007 152.234 32.759 151.961 32.3643 151.527C31.9697 151.094 31.7499 150.531 31.7469 149.946L31.0001 23.8351Z" fill="#D1D1E6"/>
<g opacity="0.6">
<path d="M45.0543 34.5101C45.2423 35.3939 45.891 36.009 46.6292 35.9999L106.79 35.3645C107.471 35.357 108.015 34.6621 108 33.819C107.985 33 107.446 32.3437 106.785 32.3399L46.6226 32C45.5606 31.9941 44.7834 33.2382 45.0543 34.5101Z" fill="white"/>
</g>
<g opacity="0.6">
<path d="M52.0227 43.8832C52.1002 44.5462 52.368 45.0064 52.6724 44.9999L77.5003 44.5233C77.7813 44.518 78.0059 43.9943 77.9999 43.3642C77.9939 42.75 77.7717 42.258 77.4985 42.2551L52.67 42C52.2317 41.9959 51.9099 42.9293 52.0227 43.8832Z" fill="white"/>
</g>
<g opacity="0.6">
<path d="M52.0398 51.883C52.1767 52.5467 52.6506 53.0064 53.1894 52.9999L97.1163 52.5238C97.6128 52.5179 98.0094 51.9947 97.9998 51.3645C97.9891 50.7496 97.5956 50.2575 97.1127 50.2552L53.1847 50C52.4095 49.9959 51.8415 50.9289 52.0398 51.883Z" fill="white"/>
</g>
<g opacity="0.6">
<path d="M51.0455 59.8832C51.2042 60.5462 51.7497 61.0064 52.373 60.9999L102.982 60.5233C103.554 60.518 104.012 59.9943 104 59.3648C103.988 58.75 103.535 58.258 102.978 58.2551L52.3676 58C51.4721 57.9965 50.818 58.9293 51.0455 59.8832Z" fill="white"/>
</g>
<path d="M46.3894 55H46.3727L40.2294 54.9432C39.3513 54.9346 38.6268 54.3605 38.5437 53.6074L38.0057 48.7059C37.9904 48.5623 38.006 48.4173 38.0514 48.2796C38.0968 48.142 38.1711 48.0145 38.2699 47.905C38.3877 47.7755 38.5316 47.6697 38.6931 47.594C38.8546 47.5182 39.0304 47.474 39.2102 47.4639C39.7279 47.4303 40.4565 47.3712 41.2283 47.3087C42.853 47.1768 44.8747 47.0137 46.0104 47C46.836 46.996 47.5365 47.4604 47.7308 48.1443C48.0506 49.2692 48.0225 51.399 47.9616 53.6682C47.9436 54.4066 47.2401 55 46.3894 55ZM39.2407 47.9123C39.124 47.9185 39.0097 47.9468 38.9047 47.9956C38.7996 48.0444 38.706 48.1127 38.6292 48.1966C38.5713 48.26 38.5277 48.3341 38.5009 48.4141C38.474 48.4941 38.4646 48.5785 38.4731 48.6621L39.0111 53.563C39.0709 54.09 39.594 54.4913 40.2318 54.4969L46.3751 54.5538H46.3876C46.9854 54.5538 47.4756 54.1559 47.4893 53.6602C47.5491 51.4252 47.5778 49.3317 47.2741 48.2642C47.1384 47.7862 46.6166 47.4536 46.0152 47.4519C44.8944 47.465 42.8817 47.6281 41.2647 47.7589C40.4912 47.822 39.7601 47.8811 39.2389 47.9146L39.2407 47.9123Z" fill="white"/>
<path opacity="0.6" d="M39.8305 48.3681C41.1861 48.285 44.1327 48.0154 45.5297 48.0001C46.1218 47.9933 46.6411 48.3155 46.7798 48.7773C47.0498 49.6749 47.014 51.4644 46.9682 53.1159C46.9544 53.6105 46.4496 54.005 45.8336 54L40.6769 53.9553C40.0427 53.9496 39.5166 53.5596 39.4576 53.0509L39.0042 49.156C38.9559 48.7558 39.3282 48.3992 39.8305 48.3681Z" fill="white"/>
<path d="M39.4766 49.1401C39.5821 49.0801 39.6989 49.0411 39.8201 49.0254C39.9414 49.0098 40.0646 49.0177 40.1826 49.0488C40.3006 49.0799 40.411 49.1336 40.5074 49.2066C40.6037 49.2796 40.684 49.3706 40.7436 49.4741L41.9237 51.5235C41.9505 51.5692 41.9898 51.6069 42.0373 51.6323C42.0847 51.6578 42.1385 51.67 42.1927 51.6677C42.2469 51.6655 42.2994 51.6488 42.3444 51.6194C42.3894 51.5901 42.4251 51.5493 42.4477 51.5015L45.3752 45.1873C45.406 45.1206 45.4597 45.0662 45.5271 45.0335C45.5946 45.0008 45.6716 44.9917 45.7452 45.0078C45.8188 45.0238 45.8844 45.0641 45.9308 45.1217C45.9773 45.1793 46.0017 45.2508 45.9999 45.3238C45.9702 47.2554 45.441 50.9267 42.2562 54C42.2562 54 40.5008 53.3389 39.0871 50.3332C38.9879 50.1229 38.9729 49.8845 39.0448 49.664C39.1168 49.4436 39.2707 49.2569 39.4766 49.1401Z" fill="#6667AB"/>
<g opacity="0.6">
<path d="M52.0578 71.8823C52.2582 72.5458 52.9475 73.0064 53.733 72.9999L117.713 72.5229C118.436 72.5176 119.015 71.9935 119 71.3635C118.984 70.7482 118.411 70.2559 117.707 70.253L53.7258 70C52.5963 69.9947 51.7694 70.9282 52.0578 71.8823Z" fill="white"/>
</g>
<g opacity="0.6">
<path d="M52.0258 79.883C52.1153 80.5461 52.4245 81.0064 52.776 80.9999L81.424 80.5232C81.7478 80.5179 82.0075 79.9941 81.9998 79.3639C81.9934 78.7495 81.7366 78.2575 81.4216 78.2546L52.773 78C52.2667 77.9959 51.8969 78.9289 52.0258 79.883Z" fill="white"/>
</g>
<g opacity="0.6">
<path d="M52.0455 88.8828C52.2042 89.5466 52.7497 90.0064 53.3731 89.9999L103.982 89.5237C104.554 89.5178 105.012 88.9945 105 88.3642C104.988 87.7491 104.535 87.257 103.978 87.254L53.3646 87C52.4716 86.9953 51.8181 87.9285 52.0455 88.8828Z" fill="white"/>
</g>
<path d="M46.3894 84H46.3721L40.2288 83.9432C39.3513 83.9352 38.6268 83.3605 38.5437 82.6074L38.0057 77.7059C37.9904 77.5623 38.006 77.4173 38.0514 77.2796C38.0968 77.142 38.1711 77.0145 38.2699 76.9049C38.3878 76.7756 38.5317 76.6699 38.6932 76.5941C38.8547 76.5184 39.0305 76.4741 39.2102 76.4639C39.7279 76.4303 40.4565 76.3712 41.2283 76.3087C42.853 76.1774 44.8747 76.0137 46.0104 76C46.836 75.996 47.536 76.4604 47.7308 77.1443C48.0506 78.2692 48.0225 80.399 47.9616 82.6682C47.9424 83.406 47.2383 84 46.3894 84ZM39.2407 76.9123C39.124 76.9186 39.0098 76.9469 38.9047 76.9957C38.7997 77.0445 38.706 77.1128 38.6292 77.1966C38.5713 77.26 38.5277 77.3341 38.5009 77.4141C38.474 77.4941 38.4646 77.5785 38.4731 77.6621L39.0111 82.5636C39.0709 83.09 39.594 83.4913 40.2318 83.4975L46.3751 83.5544H46.3876C46.9854 83.5544 47.4756 83.1565 47.4893 82.6608C47.5491 80.4263 47.5778 78.3323 47.2741 77.2653C47.1384 76.7873 46.6166 76.4542 46.0152 76.4525C44.8944 76.4661 42.8817 76.6287 41.2647 76.76C40.4876 76.8225 39.7601 76.8816 39.2389 76.9158L39.2407 76.9123Z" fill="white"/>
<path opacity="0.6" d="M39.8305 77.3686C41.1861 77.285 44.1327 77.0159 45.5297 77.0001C46.1218 76.9933 46.6411 77.3155 46.7798 77.7779C47.0498 78.6754 47.014 80.4644 46.9682 82.1159C46.9544 82.6105 46.4496 83.0056 45.8336 82.9999L40.6769 82.9553C40.0427 82.9502 39.5166 82.5596 39.4575 82.0538L39.0042 78.1588C38.9559 77.7564 39.3282 77.3992 39.8305 77.3686Z" fill="white"/>
<path d="M40.4766 78.1401C40.5821 78.0801 40.6989 78.0411 40.8201 78.0254C40.9414 78.0097 41.0646 78.0177 41.1826 78.0488C41.3006 78.0799 41.4111 78.1335 41.5074 78.2066C41.6037 78.2796 41.684 78.3705 41.7436 78.474L42.9238 80.5241C42.9506 80.5697 42.9899 80.6074 43.0374 80.6328C43.0849 80.6582 43.1387 80.6704 43.1929 80.668C43.2471 80.6657 43.2995 80.6489 43.3445 80.6195C43.3895 80.5901 43.4252 80.5493 43.4478 80.5015L46.3752 74.1873C46.5208 73.8725 47.0052 73.9791 47 74.3243C46.9697 76.2553 46.441 79.9267 43.2562 83C43.2562 83 41.5008 82.3388 40.0871 79.3332C39.9879 79.1229 39.9729 78.8844 40.0448 78.664C40.1168 78.4436 40.2707 78.2568 40.4766 78.1401Z" fill="#6667AB"/>
<g opacity="0.6">
<path d="M52.0578 100.883C52.2576 101.546 52.9474 102.006 53.733 102L117.713 101.524C118.437 101.518 119.016 100.995 119 100.365C118.985 99.7502 118.412 99.2581 117.708 99.2552L53.7288 99C52.5963 98.9959 51.7694 99.9289 52.0578 100.883Z" fill="white"/>
</g>
<g opacity="0.6">
<path d="M52.0394 108.883C52.1769 109.546 52.6503 110.006 53.1897 110L97.1163 109.523C97.6134 109.518 98.0094 108.994 97.9998 108.364C97.9897 107.75 97.5962 107.258 97.1127 107.255L53.1867 107C52.4127 106.996 51.8418 107.929 52.0394 108.883Z" fill="white"/>
</g>
<g opacity="0.6">
<path d="M51.0245 116.883C51.1053 117.547 51.3838 118.006 51.6994 118L77.4813 117.524C77.7729 117.518 78.0059 116.995 77.9999 116.364C77.9933 115.75 77.7603 115.257 77.4789 115.255L51.697 115C51.2401 114.996 50.9047 115.929 51.0245 116.883Z" fill="white"/>
</g>
<path d="M46.3888 112H46.3721L40.2288 111.943C39.3513 111.935 38.6268 111.361 38.5437 110.607L38.0057 105.706C37.9904 105.562 38.006 105.417 38.0514 105.28C38.0968 105.142 38.1711 105.014 38.2699 104.905C38.3878 104.776 38.5317 104.67 38.6932 104.594C38.8547 104.518 39.0305 104.474 39.2102 104.464C39.7273 104.43 40.4566 104.371 41.2283 104.309C42.853 104.177 44.8747 104.014 46.0104 104C46.836 103.996 47.536 104.46 47.7308 105.144C48.0506 106.269 48.0225 108.399 47.9616 110.668C47.9424 111.406 47.2383 112 46.3888 112ZM39.2407 104.912C39.124 104.919 39.0097 104.947 38.9047 104.996C38.7997 105.044 38.706 105.113 38.6292 105.197C38.5713 105.26 38.5277 105.334 38.5007 105.414C38.4738 105.494 38.4642 105.578 38.4725 105.662L39.0105 110.564C39.0703 111.09 39.5934 111.491 40.2312 111.498L46.3745 111.554H46.387C46.9848 111.554 47.475 111.156 47.4881 110.661C47.5479 108.426 47.5772 106.332 47.2735 105.265C47.1372 104.787 46.616 104.454 46.0146 104.452C44.8938 104.466 42.8811 104.629 41.2641 104.76C40.487 104.823 39.7595 104.882 39.2383 104.916L39.2407 104.912Z" fill="white"/>
<path opacity="0.6" d="M39.8305 105.369C41.1861 105.285 44.1321 105.016 45.5297 105C46.1218 104.993 46.6411 105.315 46.7798 105.778C47.0498 106.675 47.014 108.464 46.9682 110.116C46.9544 110.61 46.4496 111.006 45.8336 111L40.6769 110.955C40.0427 110.95 39.5166 110.56 39.4576 110.054L39.0042 106.159C38.9559 105.755 39.3282 105.399 39.8305 105.369Z" fill="white"/>
<path d="M39.4771 106.136C39.5825 106.076 39.6992 106.037 39.8203 106.021C39.9415 106.006 40.0647 106.014 40.1826 106.045C40.3006 106.076 40.4109 106.13 40.5072 106.203C40.6034 106.276 40.6836 106.367 40.7431 106.47L41.9218 108.522C41.9488 108.568 41.9882 108.605 42.0356 108.631C42.0831 108.656 42.1368 108.668 42.1909 108.666C42.245 108.663 42.2974 108.647 42.3423 108.617C42.3873 108.588 42.423 108.547 42.4457 108.5L45.3754 102.187C45.5209 101.872 46.0052 101.979 46 102.324C45.9697 104.255 45.4411 107.927 42.2565 111C42.2565 111 40.5021 110.339 39.0888 107.333C38.9884 107.123 38.9725 106.883 39.0443 106.662C39.1161 106.441 39.2704 106.253 39.4771 106.136Z" fill="#6667AB"/>
<g opacity="0.6">
<path d="M52.0576 130.883C52.2581 131.546 52.9473 132.006 53.7328 132L117.713 131.524C118.437 131.518 119.015 130.994 119 130.365C118.984 129.75 118.411 129.258 117.707 129.255L53.728 129C52.5961 128.995 51.7699 129.928 52.0576 130.883Z" fill="white"/>
</g>
<g opacity="0.6">
<path d="M52.0395 138.883C52.177 139.546 52.6503 140.006 53.1891 140L97.1163 139.523C97.6129 139.518 98.0094 138.994 97.9998 138.364C97.9891 137.75 97.5956 137.257 97.1127 137.255L53.1861 137C52.4121 136.996 51.8418 137.929 52.0395 138.883Z" fill="white"/>
</g>
<g opacity="0.6">
<path d="M51.0361 146.883C51.1612 147.546 51.5937 148.006 52.0857 148L92.1932 147.524C92.6471 147.518 93.0099 146.995 92.9998 146.364C92.9903 145.75 92.6311 145.257 92.1903 145.255L52.0816 145C51.3739 144.997 50.8557 145.929 51.0361 146.883Z" fill="white"/>
</g>
<path d="M46.389 142H46.3722L40.2293 141.943C39.3512 141.935 38.6268 141.361 38.5437 140.607L38.0057 135.706C37.9904 135.563 38.006 135.418 38.0515 135.28C38.097 135.142 38.1715 135.014 38.2705 134.905C38.3883 134.776 38.5321 134.67 38.6934 134.594C38.8548 134.518 39.0305 134.474 39.2102 134.464C39.7278 134.43 40.4564 134.371 41.2281 134.309C42.8528 134.177 44.8743 134.014 46.01 134C46.8355 133.996 47.536 134.461 47.7303 135.144C48.0507 136.27 48.0226 138.4 47.9616 140.668C47.9425 141.406 47.2383 142 46.389 142ZM39.2406 134.912C39.124 134.919 39.0099 134.947 38.905 134.996C38.8 135.044 38.7065 135.113 38.6298 135.197C38.5717 135.26 38.5279 135.334 38.5009 135.414C38.474 135.494 38.4646 135.578 38.4731 135.662L39.0111 140.564C39.0709 141.09 39.5939 141.492 40.2317 141.498L46.3746 141.554H46.3872C46.9849 141.554 47.4756 141.156 47.4888 140.66C47.5486 138.426 47.5772 136.332 47.2736 135.265C47.1379 134.787 46.6161 134.454 46.0148 134.452C44.894 134.466 42.8814 134.629 41.2646 134.759C40.4911 134.822 39.7601 134.881 39.2389 134.915L39.2406 134.912Z" fill="white"/>
<path opacity="0.6" d="M39.8304 135.369C41.186 135.285 44.1326 135.016 45.5296 135C46.1216 134.993 46.6409 135.315 46.7803 135.778C47.0496 136.675 47.0138 138.465 46.9686 140.116C46.9542 140.611 46.45 141.006 45.8334 141L40.6774 140.955C40.0432 140.95 39.5165 140.56 39.4575 140.051L39.0041 136.157C38.9564 135.756 39.3281 135.4 39.8304 135.369Z" fill="white"/>
<path d="M39.4765 136.14C39.582 136.08 39.6987 136.041 39.82 136.026C39.9412 136.01 40.0644 136.018 40.1824 136.049C40.3004 136.08 40.4108 136.134 40.5072 136.207C40.6035 136.28 40.6838 136.371 40.7434 136.474L41.9236 138.524C41.9504 138.57 41.9897 138.607 42.0372 138.633C42.0846 138.658 42.1384 138.671 42.1926 138.668C42.2468 138.666 42.2993 138.649 42.3443 138.62C42.3893 138.591 42.425 138.55 42.4476 138.502L45.3752 132.187C45.406 132.121 45.4597 132.066 45.5272 132.033C45.5947 132.001 45.6719 131.992 45.7455 132.008C45.8191 132.024 45.8847 132.064 45.9311 132.122C45.9775 132.18 46.0018 132.251 45.9999 132.324C45.9702 134.256 45.4409 137.927 42.2561 141C42.2561 141 40.5006 140.339 39.087 137.333C38.9879 137.123 38.9729 136.884 39.0449 136.664C39.1168 136.444 39.2706 136.257 39.4765 136.14Z" fill="#6667AB"/>
<path d="M81.281 1.86602C78.2156 -0.274961 75.5507 -0.232389 73.6741 0.323402C72.8444 0.571592 72.126 1.10098 71.6413 1.82138C71.1567 2.54178 70.9358 3.40863 71.0162 4.27425L71.8252 13.1433L81.4576 14C81.4576 14 87.294 6.06579 81.281 1.86602ZM77.0468 9.02035C76.5719 9.02047 76.1076 8.87915 75.7126 8.61428C75.3177 8.34941 75.0098 7.97287 74.828 7.53229C74.6462 7.09172 74.5985 6.60689 74.6911 6.13912C74.7837 5.67136 75.0123 5.24167 75.3481 4.9044C75.6839 4.56713 76.1118 4.33743 76.5776 4.24435C77.0434 4.15126 77.5262 4.19898 77.965 4.38146C78.4038 4.56394 78.7788 4.87299 79.0427 5.26952C79.3066 5.66605 79.4474 6.13225 79.4474 6.60916C79.4477 7.24839 79.1952 7.86157 78.7453 8.31385C78.2955 8.76613 77.6852 9.02047 77.0486 9.02094L77.0468 9.02035Z" fill="#37474F"/>
<path d="M58 19.3433V14.7833C57.9998 14.4098 58.0744 14.04 58.2194 13.6961C58.3645 13.3522 58.5769 13.0412 58.8441 12.7816C59.1113 12.522 59.4278 12.3192 59.7747 12.1852C60.1216 12.0512 60.4918 11.9888 60.8632 12.0017L92.1428 13.0792C92.8123 13.1021 93.4492 13.375 93.9292 13.8446C94.4092 14.3143 94.6976 14.9469 94.7383 15.619L95 20L58 19.3433Z" fill="#37474F"/>
<path d="M69.7293 13.47H68.2707C68.2358 13.4716 68.2009 13.4667 68.1682 13.4556C68.1354 13.4445 68.1055 13.4275 68.0801 13.4055C68.0548 13.3836 68.0347 13.3571 68.0209 13.3279C68.0071 13.2986 68 13.267 68 13.2351C68 13.2033 68.0071 13.1717 68.0209 13.1424C68.0347 13.1131 68.0548 13.0867 68.0801 13.0647C68.1055 13.0428 68.1354 13.0257 68.1682 13.0147C68.2009 13.0036 68.2358 12.9987 68.2707 13.0003H69.7293C69.7642 12.9987 69.7991 13.0036 69.8318 13.0147C69.8646 13.0257 69.8945 13.0428 69.9199 13.0647C69.9452 13.0867 69.9653 13.1131 69.9791 13.1424C69.9929 13.1717 70 13.2033 70 13.2351C70 13.267 69.9929 13.2986 69.9791 13.3279C69.9653 13.3571 69.9452 13.3836 69.9199 13.4055C69.8945 13.4275 69.8646 13.4445 69.8318 13.4556C69.7991 13.4667 69.7642 13.4716 69.7293 13.47Z" fill="#37474F"/>
<path d="M46.1213 19.9212C46.1572 19.1338 46.4789 18.3912 47.0196 17.8473C47.5603 17.3035 48.2785 17.0001 49.0254 17H102.975C103.914 16.9999 104.824 17.35 105.543 17.9886C106.262 18.6272 106.744 19.5133 106.904 20.4905L106.95 20.7692C107.035 21.2883 107.012 21.8207 106.881 22.3293C106.751 22.8378 106.517 23.3101 106.195 23.7131C105.874 24.1162 105.473 24.4402 105.02 24.6625C104.568 24.8848 104.075 25 103.576 25H48.2261C47.9247 25 47.6265 24.9355 47.3494 24.8102C47.0724 24.685 46.8224 24.5017 46.6145 24.2714C46.4066 24.0411 46.2451 23.7687 46.14 23.4706C46.0348 23.1725 45.9881 22.855 46.0026 22.5373L46.1213 19.9212Z" fill="url(#paint0_linear_2573_3594)"/>
<path d="M97.4696 160C97.4696 160 97.8221 162.1 97.995 164.179C98.0107 164.371 97.9892 164.565 97.9318 164.749C97.8743 164.933 97.7821 165.102 97.6608 165.248C97.5394 165.393 97.3913 165.511 97.2255 165.594C97.0597 165.677 96.8796 165.724 96.696 165.732C94.0658 165.848 88.4401 166.072 86.4214 165.977C86.3509 165.974 86.2822 165.952 86.2211 165.915C86.16 165.878 86.1082 165.826 86.0701 165.764C86.032 165.701 86.0086 165.63 86.002 165.556C85.9953 165.482 86.0056 165.407 86.0319 165.338C86.1258 165.089 86.3073 164.888 86.5385 164.776L95.8314 160.28L97.4696 160Z" fill="#6667AB"/>
<path d="M97 159.36L96.7188 161.696C96.7188 161.696 95.1032 162.438 94 161.603L94.669 159L97 159.36Z" fill="url(#paint1_linear_2573_3594)"/>
<path d="M96.963 115.001C97.0787 115.638 97.39 146.795 94.2841 160.746C94.2337 160.974 93.9121 161.421 94.0232 161.617C94.2927 162.095 96.2793 161.959 97.3963 162C97.7434 162.012 97.9291 161.591 98.0269 161.235C98.9148 157.998 103.169 141.781 103.724 126.29C104.345 108.979 103.724 125.7 103.724 125.7L103.361 115L96.963 115.001Z" fill="#1D262C"/>
<path d="M107.843 161C107.843 161 108.422 162.035 108.982 164.785C109.007 164.902 109.006 165.023 108.98 165.139C108.955 165.256 108.905 165.366 108.834 165.462C108.764 165.558 108.673 165.639 108.569 165.698C108.466 165.757 108.35 165.794 108.231 165.806C107.335 165.894 105.956 166.007 104.851 166C104.731 165.999 104.612 165.974 104.502 165.924C104.393 165.875 104.295 165.803 104.215 165.714C104.135 165.624 104.075 165.519 104.039 165.404C104.003 165.29 103.992 165.17 104.006 165.051C104.128 164.047 104.507 162.4 105.687 161.116L107.843 161Z" fill="#6667AB"/>
<path d="M108 158.14L107.24 161.739C107.24 161.739 106.488 162.223 105 161.872L105.363 158L108 158.14Z" fill="url(#paint2_linear_2573_3594)"/>
<path d="M109.988 115.734C112.617 132.268 109.418 156.597 108.339 161.359C108.31 161.499 108.239 161.627 108.137 161.728C108.035 161.828 107.905 161.896 107.764 161.923C107.285 162.006 106.489 162.074 105.708 161.837C105.574 161.794 105.457 161.711 105.373 161.598C105.289 161.486 105.242 161.351 105.238 161.21C105.094 157.361 105.354 133.726 102.904 124.386C102.783 123.918 102.506 123.505 102.118 123.216L97.3645 119.694L97 114L109.988 115.734Z" fill="#27353D"/>
<path d="M93.3317 86.27C101.181 86.1416 109.842 88.3146 109.842 88.3146C112.182 101.859 110.251 117.483 110.251 117.483C104.174 119.064 97.3193 116.516 97.3193 116.516C96.3094 110.855 91.5965 94.9213 91.5965 94.9213C87.7616 94.4479 84.6019 93.3513 82 91.9032C83.9845 89.6207 84.9228 86.7168 85.3267 85C88.0998 85.8528 90.9105 86.3096 93.3317 86.27Z" fill="#6667AB"/>
<path d="M70 74.6007C70.7621 73.6602 71.7263 74.1052 71.7263 74.1052C72.8673 79.0305 78.8517 83.0243 85 84.9763C84.5986 86.7225 83.6739 89.6776 81.7131 92C71.51 86.139 70 74.6007 70 74.6007Z" fill="#F1F1F1"/>
<path d="M69.469 74.7005C69.3894 74.9666 70.307 75.3721 70.8468 74.2833C70.8656 73.7615 71.166 71.5263 70.8708 71.1011C69.3004 68.8374 66.2549 66 66.2549 66C65.7402 66.5367 66.1642 67.064 66.1642 67.064L67.6415 68.6907C67.3323 69.2813 66.9558 69.7795 66.779 70.4932C66.65 71.0378 66.724 71.6141 66.9857 72.1026C67.2445 72.5978 67.5988 73.2384 67.9331 73.741C68.5661 74.693 69.469 74.7005 69.469 74.7005Z" fill="#F1F1F1"/>
<path d="M68.2874 70L69.5908 71.265L70 72.5241L68.8382 74C68.8382 74 68.4478 71.5012 68.1582 70.9606C67.8686 70.4199 68.0154 70.1577 68.2874 70Z" fill="#E2E2E2"/>
<path d="M107 95.5973L110.128 88C110.128 88 117.747 92.9794 119 99.2925C117.561 99.3944 114.941 99.7546 112.377 101C111.815 98.019 107 95.5973 107 95.5973Z" fill="#6667AB"/>
<path d="M100.077 102.523C100.077 102.523 108.218 107.266 110.965 103.215C111.536 102.374 111.673 101.539 111.531 100.742C113.971 99.4713 116.465 99.104 117.835 99C118.194 100.941 118.004 103.006 116.898 105.093C112.086 114.167 99 104.592 99 104.592L100.077 102.523Z" fill="#F1F1F1"/>
<path d="M101.983 109.307L97.3982 93.3279C97.3732 93.2392 97.3223 93.1601 97.2521 93.1003C97.1819 93.0406 97.0954 93.0031 97.0038 92.9925C96.173 92.8953 93.7664 92.6237 90.9873 92.3892C87.6398 92.1067 83.7535 91.8776 81.4315 92.0726C81.3552 92.0785 81.2816 92.103 81.217 92.1439C81.1524 92.1848 81.0988 92.2409 81.061 92.3073C81.0232 92.3737 81.0023 92.4484 81.0002 92.5247C80.998 92.6011 81.0147 92.6768 81.0487 92.7452C82.3695 95.413 87.8047 106.263 90.5235 109.818C90.5682 109.875 90.6255 109.921 90.6911 109.953C90.7567 109.985 90.8287 110.001 90.9015 110L101.537 109.901C101.609 109.9 101.68 109.883 101.744 109.85C101.808 109.818 101.863 109.771 101.907 109.713C101.95 109.656 101.979 109.589 101.992 109.519C102.005 109.448 102.002 109.376 101.983 109.307Z" fill="#37474F"/>
<path d="M89.5973 90.5864L86.2776 90.0034C86.2372 89.9963 86.1956 90.0003 86.1571 90.015C86.1185 90.0298 86.0842 90.0548 86.0575 90.0875C86.0308 90.1203 86.0125 90.1598 86.0046 90.2022C85.9966 90.2446 85.9991 90.2885 86.0119 90.3295L86.3408 91.3789C86.3548 91.4238 86.3804 91.4635 86.4148 91.4937C86.4492 91.5238 86.491 91.5431 86.5354 91.5494L89.7305 91.9978C89.7687 92.0032 89.8076 91.9986 89.8438 91.9846C89.88 91.9706 89.9124 91.9476 89.9383 91.9175C89.9642 91.8874 89.9828 91.8511 89.9924 91.8117C90.0021 91.7724 90.0025 91.7312 89.9937 91.6916L89.79 90.7754C89.7792 90.7274 89.7551 90.6839 89.7208 90.6503C89.6865 90.6166 89.6435 90.5944 89.5973 90.5864Z" fill="#263238"/>
<path d="M92.9939 93.5752L92.7073 92.0288C92.6934 91.9533 92.6563 91.8844 92.6016 91.8324C92.5469 91.7804 92.4774 91.7482 92.4035 91.7404L85.3802 91.0019C85.3254 90.996 85.27 91.0038 85.2187 91.0247C85.1673 91.0456 85.1216 91.0789 85.0853 91.1219C85.049 91.1649 85.0231 91.2163 85.01 91.2718C84.9968 91.3273 84.9967 91.3853 85.0096 91.4408L85.4554 93.3679C85.4728 93.443 85.5132 93.5103 85.5706 93.5595C85.6281 93.6088 85.6993 93.6374 85.7738 93.6412L92.6373 93.9995C92.6895 94.0023 92.7416 93.9927 92.7898 93.9715C92.8379 93.9503 92.8808 93.9181 92.9151 93.8772C92.9495 93.8363 92.9744 93.7879 92.9881 93.7356C93.0017 93.6833 93.0037 93.6284 92.9939 93.5752Z" fill="#263238"/>
<path d="M99.565 104.973C99.565 104.973 100.193 102.581 99.9399 101.732C99.687 100.883 99.1961 99.7912 97.5619 100.035C95.9278 100.278 94 100.916 94 100.916C94 100.916 94.0975 102.021 95.3394 101.664L94.5692 102.219C94.5692 102.219 94.6793 103.106 95.7281 102.631L95.0105 103.364C95.0105 103.364 95.4614 104.091 96.2333 103.624C97.0053 103.158 97.376 105.261 99.565 104.973Z" fill="#F1F1F1"/>
<path d="M101.354 80L103.984 87.0522C104.006 87.1088 104.005 87.1706 103.982 87.2267C103.959 87.2828 103.915 87.3295 103.859 87.3586C103.142 87.7261 100.559 88.7885 97.446 86.9584C97.2854 86.8652 97.1489 86.7403 97.0462 86.5926C96.9435 86.4449 96.8772 86.2781 96.8518 86.104L96 80H101.354Z" fill="#E2E2E2"/>
<path d="M95.4703 73C95.4703 73 92.6718 78.288 93.032 80.4246C93.3922 82.5611 96.8574 82.4072 99.8847 80.6689L102 74.9594L95.4703 73Z" fill="#F1F1F1"/>
<path d="M100.442 78.02C100.412 78.0076 100.385 77.9893 100.364 77.9661C100.342 77.9429 100.326 77.9156 100.316 77.8859C100.307 77.8562 100.305 77.825 100.309 77.7943C100.314 77.7637 100.326 77.7344 100.344 77.7085C100.576 77.3726 101.011 76.6877 101.15 76.0881C101.15 76.0881 101.671 75.772 99.8263 75.3537C98.8179 75.1258 97.0379 74.9361 96.2544 74.253C95.3776 73.487 96.9944 72.0402 97.6739 71.6518C98.5714 71.1387 99.6631 70.8356 100.675 71.094C101.163 71.2187 101.605 71.4657 102.04 71.7097C102.781 72.1273 103.548 72.5646 104.019 73.2471C104.324 73.6892 104.483 74.2017 104.629 74.7142C104.84 75.4456 105.032 76.1949 104.996 76.952C104.898 78.9703 102.4 80.7781 100.39 80.9988C100.353 81.0026 100.314 80.9973 100.279 80.9833C100.244 80.9694 100.213 80.9472 100.189 80.919C100.166 80.8907 100.15 80.8572 100.143 80.8216C100.137 80.786 100.14 80.7495 100.153 80.7154L100.972 78.4555C100.99 78.4048 100.988 78.3496 100.965 78.3006C100.943 78.2515 100.902 78.2123 100.85 78.1906L100.442 78.02Z" fill="#6667AB"/>
<path d="M99.6701 77.7318C99.6701 77.7318 101.834 76.2537 101.992 77.4989C102.15 78.7441 100.043 79.3022 99 78.8375L99.6701 77.7318Z" fill="#F1F1F1"/>
<path d="M95 72.95C98.705 66.2247 108.306 72.3342 103.838 78C100.516 75.8767 96.763 72.7203 95 72.95Z" fill="url(#paint3_linear_2573_3594)"/>
<path d="M95.4533 72.0364C87.8947 71.6466 94.1165 74.485 101 76C99.2862 74.156 97.5737 72.7828 95.4533 72.0364Z" fill="#263238"/>
<path d="M102 96C102.529 96.0499 107 96.2174 107 96.2174L106.819 101.475L104.503 103L102 101.475V96Z" fill="#41428A"/>
<path d="M101.183 96L106.772 96.2118L107 98.1776L104.092 99L101 97.5003L101.183 96Z" fill="#5658A3"/>
<path d="M97 116C100.253 117.346 104.831 117.346 110 116.748L109.955 118.55C104.488 119.21 99.7331 119.304 97.1 117.724L97 116Z" fill="#9596CB"/>
<path d="M104.232 115.988L109.532 115.71C109.654 115.704 109.773 115.747 109.864 115.83C109.955 115.913 110.01 116.029 110.016 116.153L110.138 118.446C110.141 118.509 110.12 118.57 110.079 118.616C110.038 118.663 109.98 118.691 109.918 118.694L104.39 118.984C104.329 118.987 104.269 118.965 104.223 118.923C104.177 118.881 104.149 118.823 104.146 118.761L104.013 116.238C104.009 116.175 104.031 116.114 104.072 116.068C104.113 116.021 104.171 115.993 104.232 115.99L104.232 115.988Z" fill="#9596CB"/>
</g>
<defs>
<linearGradient id="paint0_linear_2573_3594" x1="85.4342" y1="-17.5097" x2="54.5355" y2="102.098" gradientUnits="userSpaceOnUse">
<stop stop-color="#6667AB"/>
<stop offset="1" stop-color="#4042E2"/>
</linearGradient>
<linearGradient id="paint1_linear_2573_3594" x1="97" y1="160.5" x2="94.0006" y2="160.5" gradientUnits="userSpaceOnUse">
<stop stop-color="#FEBBBA"/>
<stop offset="1" stop-color="#FF928E"/>
</linearGradient>
<linearGradient id="paint2_linear_2573_3594" x1="108.001" y1="160" x2="105.001" y2="160" gradientUnits="userSpaceOnUse">
<stop stop-color="#FEBBBA"/>
<stop offset="1" stop-color="#FF928E"/>
</linearGradient>
<linearGradient id="paint3_linear_2573_3594" x1="106.149" y1="68.1581" x2="78.6723" y2="99.789" gradientUnits="userSpaceOnUse">
<stop stop-color="#37474F"/>
<stop offset="1" stop-color="#1A0F91"/>
</linearGradient>
<clipPath id="clip0_2573_3594">
<rect width="165" height="166" fill="white"/>
</clipPath>
</defs>
</svg>
