<svg width="172" height="175" viewBox="0 0 172 175" fill="none" xmlns="http://www.w3.org/2000/svg">
<g clip-path="url(#clip0_2573_4170)">
<path d="M152.179 147.806C148.668 151.507 145.345 153.894 142.721 155.78C111.864 177.945 75.3571 171.484 67.5944 169.906C56.1358 167.576 33.9869 163.072 17.9736 144.219C-6.25294 115.696 -2.48284 70.7575 16.311 41.0935C19.7483 35.6657 37.9053 5.55123 74.8094 0.721711C97.1434 -2.2012 123.178 3.69391 142.031 19.5076C181.605 52.7022 178.788 119.761 152.179 147.806Z" fill="#D1D1E6"/>
<path d="M2.1566 11.9872C1.96836 11.2 3.08586 10.6783 3.76916 11.2268C10.7044 16.8125 27.3678 33.5396 23.2146 62.7749C18.0068 99.4526 26.9122 112.837 38 121C38 121 22.7729 117.161 13.1923 103.58C-10.3298 70.2372 5.46831 25.9906 2.1566 11.9872Z" fill="#8787BD"/>
<g style="mix-blend-mode:soft-light">
<path d="M7.00234 23.256C7.88177 27.3384 8.66518 31.4339 9.27054 35.5475C9.90219 39.6572 10.384 43.7791 10.7159 47.9133C11.0281 52.045 11.2488 56.1816 11.2615 60.3195C11.2958 64.4575 11.1203 68.5916 10.927 72.7426C10.7611 76.8911 10.5658 81.0702 10.8762 85.2791C11.1807 89.4787 12.0843 93.7157 13.8731 97.6872C14.3182 98.6768 14.7913 99.664 15.3255 100.616C15.8392 101.578 16.4065 102.522 16.9883 103.456C18.1799 105.342 19.5124 107.138 20.9747 108.831C23.9449 112.244 27.5243 115.271 31.4725 117.834C31.8878 118.104 32.4829 118.038 32.8015 117.686C33.1201 117.335 33.0451 116.849 32.6489 116.576C31.7097 115.93 30.7807 115.275 29.8898 114.588C29.437 114.25 29.0034 113.896 28.5627 113.55C28.1373 113.189 27.6954 112.842 27.2839 112.471C25.6243 111.027 24.0748 109.466 22.6477 107.801C19.8148 104.519 17.5447 100.864 15.8265 97.0697C14.9955 95.1792 14.33 93.2228 13.8375 91.2218C13.3615 89.2298 13.0426 87.2049 12.8836 85.1651C12.546 81.0801 12.6986 76.9422 12.829 72.7925C12.9593 68.6427 13.0445 64.4699 12.9326 60.3008C12.8839 58.2169 12.7906 56.1343 12.6528 54.0528C12.5892 53.0121 12.5053 51.9727 12.422 50.937C12.327 49.8983 12.2242 48.8597 12.1136 47.8211C11.6549 43.6736 11.0468 39.5411 10.2892 35.4235C9.50709 31.3174 8.59587 27.2237 7.50024 23.1693C7.47964 23.1097 7.43679 23.0599 7.38029 23.03C7.32379 23.0001 7.25783 22.9922 7.19564 23.0079C7.16619 23.0115 7.13775 23.0207 7.112 23.0352C7.08625 23.0496 7.0637 23.0689 7.04569 23.0921C7.02768 23.1152 7.01457 23.1416 7.00712 23.1697C6.99968 23.1979 6.99805 23.2272 7.00234 23.256Z" fill="white"/>
</g>
<path d="M20.2242 100.455C19.3899 101.359 17.9236 101.099 17.4221 99.9669C14.6532 93.7221 8.39065 75.3423 18.7352 54.1674C27.4725 36.2862 30.5447 25.7447 31.6154 20.8569C31.8418 19.8237 33.2275 19.6866 33.6459 20.655C38.2588 31.3418 50.44 67.6914 20.2242 100.455Z" fill="#9494C4"/>
<g style="mix-blend-mode:soft-light">
<path d="M18.579 99.9924C18.5476 99.9975 18.5159 100 18.484 100C18.3536 99.9978 18.2293 99.9446 18.1386 99.852C18.0478 99.7593 17.998 99.6349 18.0001 99.5059C18.0045 99.2022 18.6039 68.7818 30.0515 43.3039C30.0762 43.2434 30.1131 43.1885 30.1598 43.1423C30.2065 43.0962 30.2622 43.0598 30.3234 43.0354C30.3846 43.011 30.4502 42.9989 30.5163 43.0001C30.5823 43.0012 30.6474 43.0155 30.7078 43.042C30.7681 43.0685 30.8224 43.1067 30.8675 43.1544C30.9126 43.2021 30.9475 43.2583 30.9701 43.3196C30.9928 43.3809 31.0027 43.4461 30.9994 43.5113C30.996 43.5765 30.9794 43.6403 30.9505 43.699C19.5859 68.991 18.9878 99.2173 18.9833 99.5211C18.9815 99.6337 18.9402 99.7423 18.8665 99.8282C18.7928 99.9142 18.6912 99.9722 18.579 99.9924Z" fill="white"/>
</g>
<path d="M158.956 160.581C156.715 137.888 151.106 81.5213 149.883 73.2826C148.345 62.928 135.707 65.2146 135.707 65.2146L133 170H150.622C151.8 169.997 152.964 169.744 154.036 169.258C155.108 168.771 156.064 168.062 156.839 167.178C157.627 166.282 158.221 165.234 158.585 164.099C158.95 162.964 159.076 161.767 158.956 160.581Z" fill="#37474F"/>
<path d="M16.6874 172.371C11.2227 172.253 6.88627 167.689 7.00227 162.174L8.78725 77.2668C8.8858 72.585 12.6048 68.7977 17.2463 68.6591L139.379 65.0029C143.011 64.8937 146.011 67.8414 146 71.5075L145.707 168.86C145.697 172.305 142.888 175.072 139.474 174.999L16.6874 172.371Z" fill="#455A64"/>
<path d="M8.8272 165.998C7.0846 165.971 5.76459 164.382 6.03531 162.629C7.83392 151.005 13.4793 111.02 11.6682 77.8212C11.5861 76.3073 12.7399 75.0194 14.2305 74.9711L136.652 71.0013C137.462 70.9779 138.247 71.2788 138.837 71.8381C139.427 72.3973 139.774 73.1695 139.801 73.9857C140.322 87.943 142.26 145.42 139.723 165.852C139.65 166.45 139.361 167 138.911 167.396C138.461 167.792 137.882 168.007 137.284 168L8.8272 165.998Z" fill="#6667AB"/>
<path d="M11.7226 164.081C10.0411 164.054 8.77319 162.531 9.03413 160.851C10.766 149.707 16.2027 111.37 14.4583 79.5406C14.3792 78.0886 15.4902 76.8518 16.9257 76.808L134.814 73.0012C135.593 72.9788 136.35 73.2672 136.918 73.8035C137.486 74.3397 137.82 75.08 137.846 75.8626C138.348 89.2439 140.212 144.351 137.772 163.941C137.702 164.514 137.423 165.041 136.99 165.422C136.557 165.802 135.999 166.007 135.423 166L11.7226 164.081Z" fill="#D1D1E6"/>
<path opacity="0.72" d="M85.1836 96.7434L85.0007 105.503C84.9928 105.82 85.0485 106.134 85.1645 106.429C85.2806 106.724 85.4548 106.993 85.6769 107.221C85.8989 107.448 86.1645 107.63 86.4582 107.755C86.7519 107.88 87.0677 107.946 87.3874 107.949L96.3923 108C97.025 108.001 97.6328 107.756 98.0844 107.317C98.536 106.879 98.7952 106.282 98.806 105.656L98.9992 96.4458C99.0076 96.1194 98.9482 95.7949 98.8247 95.4922C98.7012 95.1895 98.5163 94.9151 98.2813 94.686C98.0464 94.4569 97.7664 94.278 97.4588 94.1603C97.1511 94.0427 96.8223 93.9888 96.4928 94.0019L87.4769 94.4003C86.8656 94.43 86.2886 94.6886 85.8628 95.1236C85.437 95.5587 85.1942 96.1378 85.1836 96.7434Z" fill="white"/>
<path opacity="0.72" d="M54.3941 106.952L63.4144 107C64.0482 107.001 64.6569 106.768 65.1093 106.351C65.5617 105.934 65.8213 105.367 65.8321 104.771L65.9992 97.3249C66.0076 97.0163 65.9487 96.7093 65.8263 96.4228C65.7038 96.1363 65.5204 95.8763 65.2872 95.6587C65.054 95.4411 64.776 95.2706 64.4701 95.1575C64.1643 95.0445 63.8371 94.9913 63.5085 95.0012L54.4773 95.3078C53.8613 95.331 53.2781 95.5747 52.8472 95.9888C52.4162 96.403 52.1702 96.9562 52.1595 97.5352L52.0008 104.625C51.9925 104.926 52.0481 105.225 52.1644 105.506C52.2807 105.787 52.4553 106.043 52.6781 106.259C52.9009 106.476 53.1673 106.649 53.462 106.768C53.7566 106.886 54.0735 106.949 54.3941 106.952Z" fill="white"/>
<path opacity="0.72" d="M62.3975 146.079L53.8198 146C53.1265 145.996 52.4595 146.251 51.9636 146.709C51.4677 147.167 51.1829 147.791 51.1711 148.446L51.0008 156.101C50.9837 156.753 51.2375 157.385 51.7077 157.862C52.178 158.339 52.8272 158.622 53.5161 158.652L62.0892 158.998C62.4395 159.011 62.789 158.957 63.1171 158.841C63.4453 158.724 63.7454 158.547 64.0001 158.319C64.2547 158.091 64.4587 157.818 64.6 157.514C64.7413 157.211 64.8172 156.884 64.8231 156.553L64.9992 148.632C65.0078 148.302 64.9472 147.974 64.8207 147.667C64.6943 147.36 64.5045 147.079 64.2625 146.842C64.0205 146.604 63.731 146.415 63.4109 146.284C63.0907 146.153 62.7463 146.083 62.3975 146.079Z" fill="white"/>
<path opacity="0.72" d="M48.8326 156.495L48.9992 148.698C49.0078 148.361 48.9484 148.025 48.8243 147.711C48.7003 147.396 48.514 147.109 48.2764 146.866C48.0387 146.623 47.7544 146.429 47.4399 146.294C47.1254 146.16 46.787 146.089 46.4442 146.084L37.7669 146C37.0849 145.996 36.4288 146.257 35.9411 146.726C35.4534 147.195 35.1732 147.835 35.1615 148.505L35.0008 156.023C34.984 156.689 35.2333 157.336 35.6951 157.824C36.157 158.312 36.7948 158.603 37.4719 158.634L46.1427 158.998C46.4873 159.011 46.8312 158.957 47.154 158.837C47.4769 158.718 47.7723 158.537 48.0229 158.303C48.2735 158.07 48.4742 157.79 48.6132 157.48C48.7523 157.169 48.8269 156.835 48.8326 156.495Z" fill="white"/>
<path opacity="0.72" d="M48.862 121.284L48.9991 114.834C49.0084 114.466 48.9433 114.099 48.8075 113.756C48.6716 113.414 48.4679 113.101 48.2082 112.837C47.9486 112.573 47.6382 112.363 47.2953 112.219C46.9525 112.075 46.584 112.001 46.2116 112L37.908 112.015C37.1781 112.019 36.4788 112.306 35.9597 112.814C35.4406 113.321 35.1429 114.01 35.1303 114.732L35.0009 120.895C34.9823 121.622 35.2545 122.328 35.7585 122.858C36.2624 123.388 36.9574 123.701 37.6926 123.728L45.9898 123.999C46.3591 124.009 46.7269 123.947 47.0718 123.816C47.4167 123.685 47.7318 123.487 47.9989 123.235C48.2661 122.982 48.4799 122.68 48.6281 122.345C48.7762 122.01 48.8557 121.649 48.862 121.284Z" fill="white"/>
<path opacity="0.72" d="M48.7908 139.526L48.9992 129.854C49.0161 129.191 48.7645 128.549 48.2991 128.065C47.8336 127.582 47.1917 127.298 46.5125 127.273L38.069 127.001C37.7016 126.991 37.3357 127.052 36.9926 127.18C36.6495 127.309 36.336 127.502 36.0701 127.75C35.8043 127.998 35.5915 128.294 35.4441 128.623C35.2966 128.951 35.2175 129.305 35.2111 129.663L35.0008 139.418C34.9922 139.753 35.0524 140.087 35.1777 140.399C35.303 140.711 35.491 140.996 35.7307 141.236C35.9703 141.477 36.2568 141.668 36.5732 141.799C36.8897 141.931 37.2298 141.999 37.5737 142H46.2211C46.8959 141.997 47.5427 141.736 48.023 141.274C48.5033 140.812 48.7789 140.184 48.7908 139.526Z" fill="white"/>
<path opacity="0.72" d="M70.391 107.951L79.4028 108C80.0359 108.001 80.6441 107.762 81.096 107.334C81.5479 106.906 81.8073 106.323 81.8181 105.712L81.9992 97.3865C82.0076 97.0697 81.9489 96.7546 81.8267 96.4605C81.7044 96.1664 81.5212 95.8995 81.2883 95.6762C81.0554 95.4528 80.7777 95.2778 80.4722 95.1617C80.1667 95.0456 79.8398 94.991 79.5117 95.0012L70.4896 95.3165C69.8743 95.3403 69.2916 95.5903 68.8611 96.0152C68.4306 96.4402 68.1848 97.0081 68.1741 97.6023L68.0008 105.564C67.9926 105.873 68.0483 106.18 68.1645 106.468C68.2807 106.756 68.4551 107.019 68.6776 107.241C68.9001 107.463 69.1661 107.64 69.4603 107.762C69.7545 107.884 70.0709 107.948 70.391 107.951Z" fill="white"/>
<path opacity="0.72" d="M64.806 139.563L64.9992 130.808C65.0166 130.156 64.7605 129.523 64.2863 129.048C63.8122 128.572 63.1583 128.292 62.4665 128.268L53.9019 128.001C53.5541 127.992 53.2079 128.047 52.8831 128.165C52.5584 128.282 52.2616 128.46 52.01 128.686C51.7585 128.913 51.5571 129.184 51.4176 129.484C51.278 129.785 51.2032 130.108 51.1972 130.436L51.0008 139.457C50.992 139.787 51.0531 140.116 51.1806 140.423C51.3081 140.73 51.4993 141.011 51.7432 141.247C51.987 141.484 52.2786 141.673 52.6007 141.802C52.9228 141.931 53.2691 141.999 53.6192 142H62.1838C62.8722 141.998 63.5324 141.742 64.0227 141.286C64.513 140.831 64.7942 140.212 64.806 139.563Z" fill="white"/>
<path opacity="0.72" d="M80.0106 112L70.1718 112.017C69.6506 112.02 69.1513 112.223 68.7806 112.582C68.41 112.941 68.1973 113.427 68.1881 113.937L68.0006 122.681C67.9875 123.196 68.1819 123.694 68.5417 124.069C68.9014 124.444 69.3975 124.665 69.9225 124.684L79.7542 124.999C80.018 125.006 80.2806 124.962 80.5269 124.869C80.7732 124.777 80.9982 124.637 81.189 124.459C81.3798 124.28 81.5326 124.066 81.6385 123.83C81.7445 123.593 81.8015 123.338 81.8062 123.08L81.9995 113.998C82.0053 113.738 81.9583 113.48 81.861 113.239C81.7638 112.997 81.6183 112.777 81.4332 112.591C81.248 112.405 81.0269 112.257 80.7826 112.155C80.5384 112.054 80.2759 112.001 80.0106 112Z" fill="white"/>
<path opacity="0.72" d="M84.1799 114.332L84.0007 122.314C83.985 122.933 84.2298 123.533 84.6822 123.985C85.1346 124.436 85.7583 124.703 86.4184 124.726L95.2348 124.999C95.5665 125.008 95.8967 124.955 96.2063 124.843C96.5159 124.731 96.7989 124.563 97.0387 124.348C97.2785 124.133 97.4705 123.875 97.6035 123.59C97.7365 123.305 97.808 122.998 97.8136 122.687L97.9993 114.414C98.0072 114.1 97.9483 113.789 97.8261 113.497C97.704 113.205 97.5209 112.939 97.2878 112.714C97.0546 112.489 96.776 112.31 96.4682 112.188C96.1604 112.065 95.8296 112.001 95.4952 112L86.6717 112.015C86.016 112.019 85.3881 112.264 84.9224 112.697C84.4567 113.13 84.1902 113.717 84.1799 114.332Z" fill="white"/>
<path opacity="0.72" d="M53.9246 123.695L63.7628 123.999C64.0268 124.006 64.2897 123.964 64.5362 123.874C64.7827 123.785 65.008 123.65 65.199 123.477C65.3901 123.305 65.543 123.099 65.6491 122.87C65.7551 122.642 65.8122 122.396 65.8169 122.146L65.9994 113.934C66.0059 113.683 65.9593 113.433 65.8621 113.199C65.765 112.965 65.6194 112.751 65.4339 112.571C65.2483 112.391 65.0265 112.248 64.7815 112.15C64.5365 112.052 64.2732 112.001 64.0071 112L54.1612 112.017C53.6397 112.02 53.1401 112.216 52.7692 112.562C52.3983 112.909 52.1855 113.378 52.1761 113.871L52.0007 121.759C51.9869 122.256 52.1812 122.738 52.5414 123.1C52.9016 123.463 53.3987 123.676 53.9246 123.695Z" fill="white"/>
<path opacity="0.72" d="M79.4695 128.278L70.8978 128.001C70.5498 127.991 70.2032 128.049 69.8782 128.171C69.5532 128.294 69.2562 128.478 69.0044 128.713C68.7526 128.948 68.5511 129.23 68.4114 129.542C68.2718 129.854 68.1969 130.19 68.191 130.531L68.0008 139.359C67.9921 139.702 68.0533 140.043 68.181 140.362C68.3086 140.681 68.5001 140.973 68.7442 141.218C68.9883 141.464 69.2801 141.66 69.6026 141.794C69.925 141.929 70.2716 141.999 70.622 142H79.1937C79.8822 141.997 80.5423 141.731 81.0324 141.258C81.5226 140.785 81.8037 140.142 81.8155 139.469L81.9991 130.919C82.0168 130.242 81.7613 129.585 81.2879 129.091C80.8145 128.597 80.1613 128.305 79.4695 128.278Z" fill="white"/>
<path opacity="0.72" d="M95.7587 129.287L86.5913 129.001C86.2831 128.992 85.9762 129.042 85.6883 129.146C85.4005 129.251 85.1375 129.408 84.9145 129.609C84.6915 129.811 84.513 130.052 84.3894 130.319C84.2657 130.585 84.1993 130.873 84.1941 131.164L84.0008 139.742C83.9929 140.035 84.0469 140.326 84.1599 140.599C84.2728 140.872 84.4422 141.121 84.6583 141.332C84.8744 141.542 85.1327 141.709 85.4181 141.824C85.7036 141.939 86.0104 141.999 86.3206 142H95.4945C96.1039 141.997 96.688 141.769 97.1216 141.365C97.5553 140.96 97.8039 140.411 97.8144 139.836L97.9993 131.542C98.0142 130.963 97.7875 130.403 97.3682 129.981C96.949 129.559 96.3708 129.31 95.7587 129.287Z" fill="white"/>
<path opacity="0.72" d="M39.3768 107.961L45.76 108C46.5797 108.002 47.3674 107.66 47.9527 107.046C48.5379 106.433 48.8737 105.598 48.8875 104.721L48.9994 99.0471C49.033 97.3327 47.7219 95.9403 46.1311 96.002L39.0274 96.2765C38.2479 96.3098 37.5098 96.6606 36.9646 97.2569C36.4193 97.8533 36.1081 98.6499 36.0947 99.4836L36.0009 104.223C35.9576 106.268 37.4781 107.952 39.3768 107.961Z" fill="white"/>
<path opacity="0.72" d="M31.9991 148.75C32.0084 148.398 31.9445 148.049 31.8111 147.722C31.6777 147.394 31.4776 147.095 31.2222 146.842C30.9668 146.589 30.6613 146.387 30.3233 146.247C29.9853 146.107 29.6216 146.033 29.2533 146.028L26.2735 146C24.0085 145.979 22.1566 147.418 22.1167 149.23L22.0006 154.474C21.9613 156.271 23.7197 157.777 25.9634 157.868L29.163 157.998C29.5071 158.011 29.8504 157.958 30.1727 157.842C30.495 157.727 30.7899 157.551 31.04 157.326C31.2901 157.1 31.4905 156.829 31.6293 156.529C31.7681 156.228 31.8425 155.905 31.8483 155.576L31.9991 148.75Z" fill="white"/>
<path opacity="0.72" d="M124.146 147.054L118.675 147C118.028 146.996 117.405 147.251 116.942 147.71C116.479 148.169 116.213 148.794 116.202 149.451L116.001 159.205C115.985 159.858 116.221 160.49 116.66 160.968C117.099 161.446 117.704 161.73 118.347 161.76L123.794 161.996C125.966 162.09 127.788 160.642 127.826 158.793L127.999 150.428C128.035 148.594 126.302 147.076 124.146 147.054Z" fill="white"/>
<path opacity="0.72" d="M26.1451 142H29.0347C29.758 141.997 30.4513 141.723 30.9659 141.237C31.4806 140.751 31.7756 140.092 31.7879 139.4L31.9992 129.805C32.0172 129.109 31.7476 128.434 31.249 127.927C30.7503 127.419 30.0626 127.12 29.335 127.094L26.4269 127.003C24.1334 126.93 22.2241 128.377 22.1838 130.218L22.0007 138.614C21.9597 140.47 23.8325 142 26.1451 142Z" fill="white"/>
<path opacity="0.72" d="M27.0141 122.884L30.6785 122.999C30.9572 123.007 31.2347 122.962 31.4949 122.867C31.7552 122.771 31.993 122.628 32.1946 122.444C32.3962 122.26 32.5576 122.04 32.6694 121.797C32.7812 121.553 32.8411 121.291 32.8458 121.025L32.9993 114.061C33.0065 113.793 32.9574 113.527 32.855 113.277C32.7526 113.028 32.599 112.8 32.4032 112.608C32.2073 112.416 31.9732 112.264 31.7146 112.159C31.4559 112.055 31.178 112.001 30.8972 112L27.1966 112.006C24.9525 112.01 23.1329 113.443 23.0942 115.24L23.0007 119.485C22.9607 121.298 24.7487 122.813 27.0141 122.884Z" fill="white"/>
<path opacity="0.72" d="M124.938 93.0033L119.451 93.2096C118.853 93.2344 118.287 93.4959 117.869 93.9404C117.45 94.3848 117.212 94.9787 117.202 95.6001L117.001 105.471C116.993 105.794 117.047 106.115 117.16 106.416C117.272 106.717 117.442 106.991 117.657 107.223C117.873 107.456 118.131 107.641 118.417 107.769C118.702 107.896 119.009 107.964 119.32 107.967L124.97 108C127.076 108.012 128.795 106.552 128.832 104.715L128.999 96.4565C129.04 94.5036 127.175 92.9177 124.938 93.0033Z" fill="white"/>
<path opacity="0.72" d="M78.4068 146.082L69.8362 146C69.1435 145.996 68.4772 146.26 67.9819 146.734C67.4866 147.209 67.2021 147.855 67.1903 148.533L67.0008 156.999C66.9837 157.674 67.2373 158.328 67.7072 158.822C68.177 159.315 68.8256 159.609 69.514 159.64L78.08 159.998C78.4301 160.011 78.7792 159.956 79.1071 159.835C79.4349 159.714 79.7349 159.531 79.9893 159.295C80.2437 159.059 80.4475 158.776 80.5887 158.462C80.73 158.148 80.8057 157.81 80.8117 157.467L80.9992 148.724C81.0078 148.384 80.9475 148.045 80.8215 147.727C80.6956 147.41 80.5067 147.119 80.2656 146.874C80.0246 146.628 79.7362 146.432 79.4171 146.296C79.098 146.16 78.7546 146.087 78.4068 146.082Z" fill="white"/>
<path opacity="0.72" d="M125.091 112L119.523 112.01C118.91 112.014 118.323 112.258 117.887 112.69C117.451 113.122 117.202 113.708 117.191 114.322L117.001 123.401C116.986 124.02 117.215 124.62 117.637 125.071C118.06 125.522 118.643 125.788 119.26 125.812L124.85 125.997C127.008 126.069 128.804 124.641 128.843 122.824L128.999 115.342C129.038 113.508 127.27 111.994 125.091 112Z" fill="white"/>
<path opacity="0.72" d="M125.238 130.195L119.407 130.001C119.118 129.992 118.83 130.042 118.56 130.147C118.29 130.252 118.043 130.41 117.834 130.612C117.625 130.814 117.457 131.055 117.341 131.323C117.225 131.591 117.163 131.879 117.158 132.172L117.001 139.733C116.993 140.027 117.044 140.32 117.15 140.594C117.256 140.868 117.415 141.118 117.618 141.329C117.82 141.54 118.063 141.708 118.331 141.823C118.598 141.939 118.886 141.999 119.177 142H125.037C127.144 142 128.854 140.575 128.891 138.788L128.999 133.573C129.037 131.771 127.362 130.267 125.238 130.195Z" fill="white"/>
<path opacity="0.72" d="M100.181 131.256L100.001 139.648C99.993 139.953 100.047 140.256 100.16 140.541C100.273 140.825 100.443 141.084 100.659 141.303C100.875 141.522 101.134 141.697 101.419 141.816C101.705 141.936 102.012 141.998 102.323 142H111.504C112.114 141.997 112.699 141.76 113.133 141.338C113.567 140.917 113.816 140.345 113.826 139.745L113.999 131.65C114.014 131.046 113.787 130.461 113.367 130.021C112.946 129.581 112.366 129.321 111.752 129.299L102.579 129.001C102.271 128.992 101.963 129.044 101.675 129.153C101.387 129.261 101.124 129.425 100.901 129.635C100.677 129.845 100.499 130.096 100.375 130.374C100.252 130.653 100.186 130.952 100.181 131.256Z" fill="white"/>
<path opacity="0.72" d="M111.407 146.082L102.85 146C102.158 145.996 101.492 146.259 100.997 146.731C100.502 147.202 100.217 147.846 100.205 148.521L100.001 158.014C99.9837 158.685 100.237 159.336 100.706 159.827C101.175 160.319 101.823 160.611 102.51 160.642L111.059 160.998C111.408 161.011 111.757 160.956 112.085 160.836C112.413 160.716 112.712 160.533 112.967 160.298C113.221 160.064 113.425 159.782 113.566 159.47C113.707 159.157 113.783 158.821 113.789 158.479L113.999 148.712C114.008 148.372 113.948 148.035 113.822 147.719C113.696 147.403 113.507 147.114 113.266 146.869C113.025 146.625 112.737 146.429 112.418 146.294C112.099 146.159 111.755 146.087 111.407 146.082Z" fill="white"/>
<path opacity="0.72" d="M27.1502 107.98L30.7388 108C31.2919 108.001 31.8232 107.791 32.218 107.416C32.6128 107.042 32.8394 106.532 32.8491 105.997L32.9993 99.0892C33.0065 98.8118 32.9551 98.536 32.8482 98.2786C32.7413 98.0212 32.5812 97.7875 32.3777 97.5921C32.1743 97.3966 31.9317 97.2433 31.6648 97.1417C31.398 97.0401 31.1125 96.9922 30.8258 97.001L27.0245 97.1339C24.849 97.21 23.1309 98.6418 23.0902 100.41L23.0006 104.528C22.9619 106.412 24.8316 107.967 27.1502 107.98Z" fill="white"/>
<path opacity="0.72" d="M95.4053 146.078L86.9875 146C86.2561 145.996 85.5526 146.264 85.0296 146.747C84.5066 147.229 84.2064 147.887 84.194 148.577L84.0008 157.109C83.9837 157.759 84.2371 158.389 84.7065 158.865C85.1759 159.34 85.8242 159.624 86.5122 159.654L95.0679 159.998C95.4179 160.011 95.7671 159.958 96.095 159.841C96.4229 159.725 96.7229 159.548 96.9774 159.321C97.2318 159.094 97.4356 158.821 97.5768 158.518C97.718 158.216 97.7937 157.89 97.7995 157.559L97.9992 148.624C98.0079 148.296 97.9475 147.969 97.8216 147.663C97.6956 147.357 97.5065 147.077 97.2653 146.84C97.0241 146.604 96.7355 146.414 96.4163 146.283C96.097 146.152 95.7534 146.083 95.4053 146.078Z" fill="white"/>
<path opacity="0.72" d="M101.2 96.6183L101.001 105.532C100.993 105.845 101.051 106.156 101.172 106.448C101.293 106.739 101.473 107.006 101.704 107.231C101.935 107.456 102.211 107.636 102.516 107.76C102.821 107.884 103.149 107.949 103.481 107.953L112.284 108C112.941 108.001 113.573 107.759 114.042 107.325C114.512 106.89 114.781 106.3 114.793 105.68L114.999 96.4201C115.008 96.0988 114.947 95.7792 114.82 95.481C114.693 95.1827 114.503 94.9121 114.261 94.6856C114.019 94.4591 113.73 94.2816 113.413 94.1639C113.096 94.0462 112.756 93.9909 112.416 94.0012L103.602 94.3044C102.964 94.329 102.36 94.5822 101.914 95.0123C101.467 95.4423 101.212 96.0168 101.2 96.6183Z" fill="white"/>
<path opacity="0.72" d="M101.194 114.406L101.001 123.224C100.985 123.864 101.23 124.485 101.682 124.951C102.134 125.418 102.757 125.693 103.416 125.717L112.225 125.999C112.556 126.008 112.886 125.953 113.195 125.838C113.505 125.722 113.787 125.549 114.027 125.326C114.267 125.104 114.459 124.838 114.591 124.543C114.724 124.249 114.795 123.931 114.801 123.61L114.999 114.494C115.007 114.17 114.948 113.848 114.826 113.546C114.704 113.245 114.521 112.97 114.288 112.737C114.056 112.505 113.777 112.32 113.47 112.194C113.162 112.067 112.832 112.001 112.498 112L103.683 112.016C103.028 112.02 102.402 112.273 101.937 112.719C101.472 113.166 101.205 113.771 101.194 114.406Z" fill="white"/>
<path d="M26.0171 89.3021L26.3762 92.2982C26.43 92.7609 26.6284 93.1866 26.9356 93.4986C27.2428 93.8106 27.6386 93.9883 28.0516 93.9997H28.1759C28.4039 94.0044 28.6305 93.9584 28.8427 93.8641C29.0549 93.7699 29.2486 93.6293 29.4127 93.4504C29.5768 93.2715 29.708 93.0578 29.7989 92.8215C29.8898 92.5853 29.9386 92.3311 29.9425 92.0735L29.9995 89.0067C30.0056 88.728 29.9589 88.4511 29.8627 88.1945C29.7664 87.9378 29.6228 87.7073 29.4414 87.5184C29.26 87.3295 29.0449 87.1865 28.8107 87.099C28.5764 87.0115 28.3283 86.9815 28.083 87.011L27.5427 87.0754C27.3118 87.105 27.0885 87.1865 26.886 87.3153C26.6835 87.444 26.5059 87.6173 26.3637 87.8249C26.2215 88.0324 26.1175 88.2701 26.058 88.5239C25.9985 88.7776 25.9846 89.0422 26.0171 89.3021Z" fill="white"/>
<path d="M40.0171 88.3021L40.3761 91.2982C40.4299 91.7609 40.6284 92.1866 40.9356 92.4986C41.2428 92.8106 41.6386 92.9883 42.0516 92.9996H42.1758C42.4039 93.0046 42.6305 92.9586 42.8429 92.8645C43.0552 92.7703 43.2489 92.6297 43.413 92.4508C43.5772 92.2718 43.7084 92.0581 43.7993 91.8217C43.8901 91.5854 43.9388 91.3311 43.9425 91.0735L43.9995 88.0066C44.0055 87.728 43.9588 87.4511 43.8625 87.1944C43.7662 86.9378 43.6225 86.7073 43.441 86.5184C43.2595 86.3295 43.0445 86.1865 42.8102 86.099C42.5759 86.0115 42.3278 85.9815 42.0824 86.011L41.5421 86.0754C41.3113 86.1051 41.0881 86.1868 40.8857 86.3156C40.6833 86.4444 40.5058 86.6177 40.3636 86.8252C40.2215 87.0328 40.1176 87.2704 40.0581 87.5241C39.9985 87.7777 39.9846 88.0423 40.0171 88.3021Z" fill="white"/>
<path d="M56.017 88.3021L56.376 91.2982C56.43 91.7609 56.6286 92.1866 56.9358 92.4985C57.2431 92.8105 57.6389 92.9882 58.0518 92.9997H58.176C58.404 93.0044 58.6306 92.9584 58.8428 92.8641C59.055 92.7699 59.2487 92.6293 59.4128 92.4504C59.5768 92.2715 59.7081 92.0578 59.799 91.8215C59.8899 91.5853 59.9386 91.3311 59.9425 91.0735L59.9995 88.0067C60.0056 87.728 59.9589 87.4511 59.8627 87.1945C59.7665 86.9378 59.6229 86.7073 59.4415 86.5184C59.2601 86.3295 59.045 86.1865 58.8108 86.099C58.5766 86.0115 58.3285 85.9815 58.0832 86.011L57.5424 86.0754C57.3116 86.1051 57.0884 86.1868 56.886 86.3156C56.6836 86.4444 56.5061 86.6177 56.3639 86.8252C56.2217 87.0327 56.1178 87.2704 56.0582 87.524C55.9986 87.7777 55.9846 88.0423 56.017 88.3021Z" fill="white"/>
<path d="M72.0169 88.3011L72.3759 91.2974C72.4298 91.7601 72.6282 92.1859 72.9354 92.498C73.2425 92.8101 73.6382 92.988 74.0512 92.9997H74.176C74.404 93.0045 74.6305 92.9585 74.8427 92.8643C75.055 92.7702 75.2486 92.6296 75.4127 92.4507C75.5768 92.2719 75.708 92.0582 75.799 91.822C75.8899 91.5857 75.9386 91.3316 75.9425 91.074L75.9995 88.0068C76.0056 87.7282 75.9589 87.4512 75.8627 87.1946C75.7665 86.9379 75.6228 86.7074 75.4414 86.5185C75.26 86.3295 75.045 86.1865 74.8108 86.099C74.5765 86.0115 74.3285 85.9815 74.0831 86.011L73.5423 86.0754C73.3116 86.1051 73.0885 86.1867 72.8861 86.3153C72.6838 86.444 72.5062 86.6172 72.3641 86.8246C72.2219 87.0321 72.1179 87.2696 72.0583 87.5232C71.9987 87.7767 71.9846 88.0412 72.0169 88.3011Z" fill="white"/>
<path d="M89.0168 86.3011L89.3758 89.2974C89.4298 89.7602 89.6283 90.1861 89.9356 90.4982C90.2428 90.8103 90.6387 90.9882 91.0518 90.9997H91.176C91.404 91.0044 91.6306 90.9584 91.8428 90.8641C92.055 90.7699 92.2487 90.6292 92.4128 90.4503C92.5768 90.2714 92.7081 90.0577 92.799 89.8214C92.8899 89.5852 92.9386 89.3309 92.9425 89.0734L92.9995 86.0068C93.0055 85.7281 92.9588 85.4512 92.8625 85.1945C92.7662 84.9379 92.6225 84.7074 92.4411 84.5184C92.2596 84.3295 92.0446 84.1865 91.8103 84.099C91.576 84.0115 91.3279 83.9815 91.0825 84.011L90.5423 84.0754C90.3116 84.1051 90.0885 84.1868 89.8862 84.3155C89.6839 84.4442 89.5064 84.6174 89.3642 84.8248C89.222 85.0322 89.1181 85.2697 89.0584 85.5233C88.9987 85.7768 88.9846 86.0413 89.0168 86.3011Z" fill="white"/>
<path d="M106.017 86.3021L106.376 89.2982C106.43 89.7608 106.629 90.1863 106.936 90.4983C107.243 90.8102 107.639 90.988 108.052 90.9997H108.176C108.404 91.0045 108.631 90.9585 108.843 90.8643C109.055 90.7701 109.249 90.6295 109.413 90.4506C109.577 90.2717 109.708 90.0579 109.799 89.8216C109.89 89.5853 109.939 89.3311 109.942 89.0735L109.999 86.0066C110.005 85.728 109.959 85.4511 109.862 85.1944C109.766 84.9378 109.622 84.7073 109.441 84.5184C109.26 84.3295 109.044 84.1865 108.81 84.099C108.576 84.0115 108.328 83.9815 108.082 84.011L107.542 84.0754C107.311 84.105 107.088 84.1867 106.886 84.3154C106.683 84.4442 106.506 84.6175 106.363 84.8251C106.221 85.0326 106.117 85.2703 106.058 85.524C105.998 85.7777 105.985 86.0423 106.017 86.3021Z" fill="white"/>
<path d="M121.017 86.3021L121.376 89.2982C121.43 89.7609 121.629 90.1866 121.936 90.4985C122.243 90.8105 122.639 90.9882 123.052 90.9997H123.176C123.404 91.0044 123.631 90.9584 123.843 90.8641C124.055 90.7699 124.249 90.6293 124.413 90.4504C124.577 90.2715 124.708 90.0578 124.799 89.8215C124.89 89.5853 124.939 89.3311 124.942 89.0735L124.999 86.0067C125.006 85.728 124.959 85.4511 124.863 85.1945C124.766 84.9378 124.623 84.7073 124.441 84.5184C124.26 84.3295 124.045 84.1865 123.811 84.099C123.577 84.0115 123.328 83.9815 123.083 84.011L122.542 84.0754C122.312 84.1051 122.088 84.1868 121.886 84.3156C121.684 84.4444 121.506 84.6177 121.364 84.8252C121.222 85.0327 121.118 85.2704 121.058 85.524C120.999 85.7777 120.985 86.0423 121.017 86.3021Z" fill="white"/>
<path d="M97.992 118.704C97.9562 118.065 97.3119 117.791 96.8371 118.178C95.4968 119.273 94.9515 120.975 94.2912 122.557C93.5215 124.405 92.7833 126.266 92.1274 128.16C91.4304 130.153 90.8523 132.189 90.3963 134.254C89.5066 131.788 88.4729 129.387 87.1616 127.108C86.8135 126.503 85.8305 126.854 86.0253 127.575C87.1591 131.753 88.5545 135.845 89.6228 140.043C89.9994 141.525 91.9543 141.175 92.1002 139.752C92.4977 135.863 93.404 132.144 94.69 128.471C95.3014 126.726 95.984 125.007 96.6912 123.301C97.3206 121.79 98.0866 120.38 97.992 118.704Z" fill="#6667AB"/>
<path d="M100.263 122.381C99.0938 122.16 98.6678 123.676 99.7405 124.154C106.837 127.317 107.765 136.23 102.638 141.627C100.267 144.123 97.1195 146.061 94.1432 147.726C91.1216 149.415 87.7484 150.705 84.2419 150.349C76.114 149.522 75.0091 141.141 77.4391 134.675C79.7762 128.455 84.782 123.653 90.9108 121.351C91.702 121.054 91.3957 119.749 90.584 120.043C84.7952 122.149 79.9454 126.263 76.9083 131.645C74.118 136.604 72.4438 143.601 76.0973 148.579C79.8748 153.732 87.0446 153.824 92.4467 151.676C98.3894 149.313 105.788 144.93 108.154 138.57C110.631 131.907 107.572 123.767 100.263 122.381Z" fill="#6667AB"/>
<path d="M29.5 85C31.433 85 33 83.433 33 81.5C33 79.567 31.433 78 29.5 78C27.567 78 26 79.567 26 81.5C26 83.433 27.567 85 29.5 85Z" fill="#D1D1E6"/>
<path d="M56.5 85C58.433 85 60 83.433 60 81.5C60 79.567 58.433 78 56.5 78C54.567 78 53 79.567 53 81.5C53 83.433 54.567 85 56.5 85Z" fill="#D1D1E6"/>
<path d="M84.5 84C86.433 84 88 82.433 88 80.5C88 78.567 86.433 77 84.5 77C82.567 77 81 78.567 81 80.5C81 82.433 82.567 84 84.5 84Z" fill="#91B3FA"/>
<path d="M111.5 82C113.433 82 115 80.433 115 78.5C115 76.567 113.433 75 111.5 75C109.567 75 108 76.567 108 78.5C108 80.433 109.567 82 111.5 82Z" fill="#D1D1E6"/>
<path d="M121 65.8146C119.87 63.2933 117.677 60.38 113.693 61.1158C108.31 62.1102 108.817 74.1017 109.251 78.9705C109.352 80.116 110.48 80.9999 111.836 80.9999C112.199 81.0045 112.55 80.8706 112.824 80.6235C112.943 80.5175 113.036 80.3826 113.094 80.2306C113.152 80.0785 113.173 79.914 113.156 79.7515C112.69 76.0715 111.701 65.4752 115.664 64.9081C115.664 64.9081 116.671 64.7575 117.588 65.6188C118.728 65.6044 119.863 65.7286 121 65.8146Z" fill="#5B5C96"/>
<path d="M95 66.2936C93.8716 63.6841 91.5165 60.3321 86.9976 61.116C81.2643 62.11 81.8054 74.102 82.2669 78.9692C82.3754 80.1144 83.5757 80.9999 85.0206 80.9999C85.4064 81.0044 85.7805 80.8706 86.072 80.6236C86.1995 80.5177 86.2983 80.3828 86.3599 80.2308C86.4214 80.0788 86.4438 79.9143 86.4251 79.7519C85.9302 76.0737 84.8762 65.4721 89.0966 64.9058C89.0966 64.9058 90.6801 64.7327 91.7489 66.3613C92.8317 66.3801 93.921 66.3482 95 66.2936Z" fill="#5B5C96"/>
<path d="M68 67.5705C66.9313 64.9307 64.5936 61.3058 59.9524 62.1153C54.2712 63.1092 54.8074 75.1018 55.2642 79.9682C55.3717 81.1132 56.5612 81.9998 57.9931 81.9998C58.375 82.0056 58.7458 81.8731 59.0351 81.6274C59.1615 81.5216 59.2596 81.3869 59.3207 81.235C59.3818 81.0832 59.4041 80.9188 59.3856 80.7564C58.8945 77.0789 57.85 66.4732 62.0331 65.907C62.0331 65.907 63.6508 65.7634 64.71 67.5028C65.7977 67.5893 66.9103 67.6351 68 67.5705Z" fill="#5B5C96"/>
<path d="M31.9738 63.116C26.2678 64.1094 26.8063 76.1024 27.2657 80.9655C27.3736 82.1099 28.5682 82.9998 30.0062 82.9998C30.3896 83.0059 30.7619 82.8739 31.0526 82.6288C31.1794 82.5233 31.2777 82.3888 31.339 82.2372C31.4003 82.0857 31.4226 81.9216 31.404 81.7596C30.9114 78.0834 29.8625 67.4709 34.0628 66.9069C34.0628 66.9069 35.5678 66.7339 36.6296 68.2405C37.7533 68.2806 38.8769 68.4285 40 68.4241C38.9025 65.802 36.5555 62.3183 31.9738 63.116Z" fill="#5B5C96"/>
<path d="M159.303 81.723C159.277 81.7136 145.507 57.7746 143.646 55.524C143.492 55.3378 143.294 55.1931 143.069 55.1033C142.844 55.0135 142.6 54.9815 142.359 55.0102L138.515 55.465L134 65.1606L141.52 60.812C140.775 65.922 150.438 73.5158 153.753 76.287C153.833 76.3532 153.898 76.4351 153.945 76.5274C153.991 76.6197 154.019 76.7206 154.024 76.8237C154.03 76.9268 154.015 77.0301 153.979 77.127C153.943 77.224 153.887 77.3126 153.816 77.3874L152.493 78.7621C154.665 80.9479 157.171 82.3512 160 83L159.303 81.723Z" fill="#E7E7E7"/>
<path d="M153.209 78C153.209 78 152.344 78.2779 152.052 79.0444C151.912 79.411 152.063 79.8269 152.385 80.0549C153.811 81.0705 158.516 84.3486 160.687 84.9906C160.728 85.0022 160.771 85.0031 160.812 84.9931C160.854 84.9831 160.892 84.9626 160.923 84.9337C160.954 84.9047 160.977 84.8682 160.989 84.8278C161.002 84.7874 161.003 84.7444 160.994 84.7031C160.883 84.2024 160.522 83.2014 159.361 81.7361L159.466 81.9456C159.495 82.003 159.504 82.0682 159.493 82.1315C159.482 82.1948 159.451 82.2529 159.404 82.2973C159.357 82.3416 159.297 82.3698 159.233 82.3776C159.169 82.3855 159.104 82.3727 159.048 82.341C157.593 81.5234 154.635 79.7406 153.209 78Z" fill="#455A64"/>
<path d="M154.574 87.6199C154.551 87.6051 152.468 82.7091 152.445 82.695C150.535 71.3534 145.875 61.6355 144.503 59.0793C144.389 58.8679 144.223 58.6879 144.019 58.5559C143.816 58.4239 143.581 58.3442 143.337 58.3242L139.45 58L133 66.5105L141.319 63.7879C139.535 68.5957 147.513 77.8915 150.215 81.2403C150.28 81.3207 150.327 81.4132 150.354 81.5121C150.381 81.611 150.387 81.7143 150.371 81.8155C150.356 81.9167 150.319 82.0137 150.263 82.1005C150.208 82.1873 150.135 82.2621 150.048 82.3202L148.46 83.3909C150.154 85.9439 152.341 87.8048 155 89L154.574 87.6199Z" fill="#F1F1F1"/>
<path d="M149.528 83C149.528 83 148.592 83.0939 148.131 83.7545C147.912 84.0705 147.978 84.4865 148.254 84.7634C149.486 85.987 153.563 89.956 155.628 90.9735C155.667 90.9922 155.711 91.0013 155.755 90.9999C155.799 90.9985 155.842 90.9866 155.879 90.9654C155.917 90.9443 155.947 90.9146 155.969 90.8792C155.99 90.8438 156.001 90.804 156 90.7636C155.993 90.2757 155.838 89.268 154.97 87.6754L155.032 87.8907C155.048 87.9496 155.043 88.0115 155.018 88.0677C154.994 88.1239 154.95 88.1715 154.894 88.2035C154.837 88.2355 154.772 88.2503 154.706 88.2458C154.64 88.2414 154.577 88.2178 154.527 88.1786C153.227 87.1417 150.606 84.9049 149.528 83Z" fill="#455A64"/>
<path d="M120.766 56.1485C120.766 56.1485 117.322 61.1757 117.039 63.4695C116.756 65.7633 117.992 66.5556 121.597 66.8483C132.325 67.7183 137.615 64.5629 137.615 64.5629C138.348 59.9711 138.87 58.8029 145 56.3057C145 56.3057 137.247 56.9092 135.687 56.3154C134.126 55.7216 120.766 56.1485 120.766 56.1485Z" fill="#9494C4"/>
<path d="M135 27.108C135 27.108 132.541 24.2236 129.926 27.7625C129.453 28.4031 127.634 27.8744 126.968 29.216C126.807 29.554 126.538 29.83 126.203 30.0016C125.868 30.1731 125.485 30.2307 125.114 30.1653C123.206 29.8164 120.088 29.7881 118.548 32.751C117.373 35.0143 118.28 36.3345 119.455 37.0889C120.318 37.6434 120.626 38.7687 120.104 39.647C119.604 40.4894 119.51 41.6298 120.802 43.0029C123.697 46.0796 129.427 41.054 129.427 41.054L133.978 30.3928L135 27.108Z" fill="#5B5C96"/>
<path d="M130.854 56C130.854 56 134.881 52.0926 136.863 49.5043C137.39 48.8141 137.748 48.0055 137.907 47.1458C138.066 46.2861 138.021 45.4002 137.775 44.5619C136.87 41.4552 135.262 38.2371 135.116 37.7357C134.891 36.9679 130.376 37.0002 130.376 37.0002C130.376 37.0002 121.491 42.8756 118 52.8313L121.921 54.0751C121.921 54.0751 124.24 50.1088 126.532 47.5869C126.532 47.5869 122.566 52.9268 122.426 55.1125L130.854 56Z" fill="#9494C4"/>
<path d="M139 56.6714L135.895 53.3445L132.308 54.2955C132.308 54.2955 128.126 54.9333 125.733 54.2955L123.339 53.6578L117.931 52L117.081 54.3633C116.978 54.6549 116.973 54.9718 117.068 55.2662C117.163 55.5606 117.353 55.8165 117.609 55.9953C118.077 56.323 118.629 56.6858 118.975 56.8333C119.688 57.1396 135.383 56.93 135.383 56.93L139 56.6714Z" fill="#F1F1F1"/>
<path d="M133.196 31.4311L130 36.9956C130.211 38.2101 133.478 38.2444 133.983 37.5192C134.032 37.444 134.066 37.361 134.083 37.2742L135.996 33.5564C136.077 33.1939 135.014 31.9719 134.667 31.798L133.396 31.1647C132.907 30.9203 134.948 30.9013 133.196 31.4311Z" fill="#E7E7E7"/>
<path d="M138.968 30.4242C138.968 30.4242 139.295 32.4008 137.866 34.9144C136.437 37.4281 135.016 37.3141 134.293 36.4176C133.57 35.5211 132.704 34.0282 133.099 31.5229C133.493 29.0177 138.475 27.9028 138.968 30.4242Z" fill="#F1F1F1"/>
<path d="M135.361 31.4033C135.361 31.4033 137.863 27.9516 139.784 30.9607L139.752 32C139.752 32 142.25 31.8776 141.98 29.4591C141.709 27.0407 139.668 25.3892 136.841 26.2153C134.014 27.0414 132.362 27.9825 132.042 30.0437C131.723 32.1049 133.323 31.7686 133.323 31.7686C133.323 31.7686 133.936 30.3465 134.675 30.2489C135.414 30.1514 135.148 31.2775 135.148 31.2775L135.361 31.4033Z" fill="#5B5C96"/>
<path d="M135.229 30.7039C135.229 30.7039 136.861 29.3205 135.375 29.0334C133.89 28.7463 133.945 30.3889 134.042 31L135.229 30.7039Z" fill="#F1F1F1"/>
<path d="M128.598 58H128.63L142.384 57.9882C142.548 57.9882 142.704 57.9361 142.82 57.8435C142.935 57.7508 143 57.6251 143 57.4941C143 57.363 142.935 57.2374 142.82 57.1447C142.704 57.0521 142.548 57 142.384 57L128.629 57.0123C128.466 57.0091 128.309 57.0579 128.191 57.1481C128.073 57.2382 128.004 57.3622 128 57.4929C127.996 57.6235 128.057 57.7501 128.169 57.8447C128.282 57.9394 128.436 57.9943 128.599 57.9975L128.598 58Z" fill="#455A64"/>
<path d="M155.07 46H143.403C142.982 46.0001 142.569 46.1227 142.213 46.3537C141.857 46.5846 141.573 46.9143 141.393 47.3043L136 59H150.496C150.767 59 151.032 58.9167 151.256 58.7608C151.48 58.6049 151.653 58.3837 151.753 58.126L155.935 47.3031C155.991 47.1587 156.011 47.0025 155.994 46.8481C155.978 46.6938 155.924 46.5459 155.839 46.4175C155.754 46.289 155.639 46.1838 155.505 46.111C155.371 46.0383 155.221 46.0002 155.07 46Z" fill="#455A64"/>
<path d="M147.112 51.2083C146.859 52.0212 147.049 52.8101 147.536 52.9711C148.022 53.1321 148.63 52.6038 148.886 51.791C149.142 50.9781 148.953 50.1898 148.463 50.0288C147.973 49.8678 147.369 50.3981 147.112 51.2083Z" fill="#D1D1E6"/>
<path d="M96.3235 86.7892C100.619 82.4935 100.622 75.5262 96.329 71.2273C92.0363 66.9285 85.0739 66.9261 80.7782 71.2218C76.4824 75.5176 76.4799 82.4849 80.7726 86.7837C85.0654 91.0825 92.0277 91.085 96.3235 86.7892Z" fill="#595A9A"/>
<path d="M96.2633 86.4352C100.364 82.3347 100.366 75.6841 96.2686 71.5807C92.171 67.4772 85.5251 67.4749 81.4246 71.5754C77.3241 75.6759 77.3218 82.3265 81.4193 86.4299C85.5169 90.5333 92.1628 90.5357 96.2633 86.4352Z" fill="#6667AB"/>
<path opacity="0.58" d="M80.3563 75C80.3017 75.0006 80.2476 74.989 80.1983 74.966C80.1569 74.9467 80.1197 74.9196 80.0891 74.8863C80.0584 74.853 80.0348 74.8141 80.0196 74.7719C80.0044 74.7298 79.998 74.6851 80.0006 74.6405C80.0032 74.5958 80.0148 74.5522 80.0348 74.5119C80.8359 72.8843 82.0884 71.5063 83.6515 70.5328C85.2146 69.5593 87.0262 69.029 88.8825 69.0016C89.4885 68.991 90.0942 69.0332 90.6924 69.1278C90.7392 69.1334 90.7844 69.1481 90.8253 69.1711C90.8661 69.1941 90.9017 69.2248 90.93 69.2616C90.9583 69.2983 90.9787 69.3401 90.9899 69.3847C91.0012 69.4292 91.003 69.4755 90.9954 69.5208C90.9877 69.566 90.9708 69.6093 90.9455 69.6481C90.9202 69.6868 90.8871 69.7202 90.8483 69.7462C90.8094 69.7722 90.7655 69.7903 90.7192 69.7994C90.673 69.8085 90.6253 69.8084 90.5791 69.7992C90.0226 69.7109 89.4592 69.671 88.8954 69.6801C87.1688 69.7058 85.4838 70.1991 84.0299 71.1045C82.576 72.0099 81.4109 73.2916 80.6656 74.8053C80.6377 74.8625 80.594 74.9109 80.5394 74.9453C80.4848 74.9796 80.4214 74.9986 80.3563 75Z" fill="white"/>
<path opacity="0.78" d="M95.0828 85.373C98.5976 81.8583 98.5996 76.1578 95.0874 72.6406C91.5751 69.1233 85.8787 69.1213 82.364 72.636C78.8492 76.1508 78.8472 81.8513 82.3594 85.3685C85.8717 88.8857 91.5681 88.8877 95.0828 85.373Z" fill="#D1D1E6"/>
<path d="M88.1833 86.426L88.166 85.4213C87.1562 85.3983 86.1531 85.1698 85.4384 84.8608C85.3152 84.806 85.215 84.7071 85.156 84.5821C85.0971 84.4571 85.0834 84.3143 85.1174 84.1797L85.3468 83.2394C85.3667 83.1583 85.4031 83.0825 85.4535 83.0173C85.504 82.952 85.5673 82.8987 85.6393 82.8609C85.7113 82.8232 85.7902 82.8019 85.8707 82.7985C85.9513 82.795 86.0316 82.8095 86.1063 82.841C86.9057 83.1785 87.7613 83.349 88.6242 83.3428C89.5966 83.3243 90.3155 82.9687 90.3032 82.2678C90.2922 81.6345 89.7257 81.2687 88.3678 80.9183C86.4304 80.4076 85.0313 79.5605 85.0005 77.7986C84.9728 76.2085 86.0725 74.9733 88.0141 74.6119L87.9969 73.6065C87.9944 73.4514 88.0513 73.3015 88.155 73.1898C88.2588 73.078 88.4009 73.0135 88.5504 73.0103L89.1193 73.0001C89.2688 72.9974 89.4132 73.0563 89.5208 73.1641C89.6284 73.2718 89.6904 73.4195 89.6931 73.5746L89.7091 74.4766C90.644 74.4977 91.3267 74.6509 91.8691 74.8379C92.0032 74.885 92.1151 74.9829 92.1825 75.1121C92.2499 75.2413 92.2678 75.3921 92.2326 75.5344L92.021 76.4045C92.002 76.4839 91.9672 76.5583 91.9187 76.6229C91.8702 76.6875 91.8092 76.7407 91.7396 76.7793C91.67 76.8178 91.5934 76.8407 91.5148 76.8465C91.4361 76.8523 91.3571 76.8409 91.283 76.813C90.604 76.5592 89.8857 76.4376 89.1642 76.4542C88.0104 76.476 87.6882 76.9783 87.6974 77.4226C87.7072 77.9697 88.4053 78.3336 89.9115 78.7843C92.0641 79.4111 92.9712 80.3163 92.9995 81.9761C93.026 83.4985 91.9626 84.887 89.8592 85.2687L89.8789 86.3935C89.8815 86.5486 89.8247 86.6985 89.7209 86.8102C89.6171 86.9219 89.4748 86.9862 89.3254 86.9891L88.7565 86.9999C88.6072 87.0023 88.4632 86.9433 88.3558 86.8358C88.2484 86.7282 88.1863 86.5809 88.1833 86.426Z" fill="#6667AB"/>
<path d="M98.5 47C107.613 47 115 39.6127 115 30.5C115 21.3873 107.613 14 98.5 14C89.3873 14 82 21.3873 82 30.5C82 39.6127 89.3873 47 98.5 47Z" fill="#595A9A"/>
<path d="M109.925 41.3298C116.173 35.0814 116.177 24.9472 109.933 18.6943C103.689 12.4415 93.5621 12.4379 87.3137 18.6863C81.0653 24.9347 81.0617 35.0689 87.3057 41.3217C93.5496 47.5746 103.677 47.5782 109.925 41.3298Z" fill="#6667AB"/>
<path opacity="0.58" d="M85.3057 24C85.2545 24.0006 85.2039 23.988 85.1588 23.9631C85.1136 23.9383 85.0754 23.9021 85.0478 23.858C85.0201 23.8139 85.0039 23.7633 85.0006 23.711C84.9974 23.6587 85.0072 23.6064 85.0291 23.559C86.4163 20.6174 88.6967 18.2138 91.5298 16.707C94.3628 15.2002 97.5965 14.6712 100.748 15.1989C100.827 15.2121 100.897 15.2568 100.943 15.323C100.99 15.3893 101.009 15.4718 100.996 15.5523C100.983 15.6328 100.939 15.7048 100.875 15.7524C100.81 15.8001 100.729 15.8194 100.65 15.8062C99.8042 15.6649 98.9473 15.6017 98.0899 15.6172C95.4635 15.6579 92.9004 16.4474 90.6888 17.8969C88.4773 19.3464 86.7051 21.3983 85.5718 23.8217C85.5481 23.8738 85.5106 23.9181 85.4636 23.9496C85.4166 23.9811 85.3619 23.9985 85.3057 24Z" fill="white"/>
<path opacity="0.78" d="M108.624 40.5595C113.896 35.2874 113.899 26.7367 108.631 21.4608C103.363 16.185 94.818 16.182 89.5459 21.4541C84.2739 26.7261 84.2708 35.2769 89.5392 40.5527C94.8075 45.8285 103.352 45.8316 108.624 40.5595Z" fill="#D1D1E6"/>
<path d="M97.7735 40.1802L97.7469 38.7444C96.2326 38.7113 94.7288 38.3848 93.6575 37.9438C93.4727 37.8656 93.3223 37.7243 93.2339 37.5458C93.1454 37.3673 93.1247 37.1633 93.1755 36.971L93.52 35.627C93.5499 35.5112 93.6046 35.4031 93.6803 35.3099C93.7561 35.2167 93.8511 35.1406 93.959 35.0868C94.067 35.0329 94.1853 35.0025 94.3061 34.9977C94.427 34.9928 94.5474 35.0136 94.6594 35.0586C95.722 35.4769 97.0306 35.7998 98.4353 35.7747C99.8932 35.7489 100.972 35.2405 100.953 34.2389C100.937 33.3354 100.086 32.8129 98.0505 32.3112C95.1452 31.581 93.0466 30.3718 93.0008 27.8554C92.9593 25.5834 94.608 23.8186 97.5158 23.3028L97.4898 21.8669C97.4877 21.7571 97.5076 21.6479 97.5482 21.5456C97.5889 21.4433 97.6495 21.35 97.7267 21.2709C97.8039 21.1918 97.896 21.1286 97.9979 21.0847C98.0999 21.0409 98.2095 21.0174 98.3206 21.0154L99.1732 21.0001C99.3973 20.9962 99.6138 21.0803 99.7752 21.2339C99.9367 21.3876 100.03 21.5982 100.034 21.8197L100.058 23.1061C101.46 23.1368 102.484 23.3555 103.298 23.6219C103.499 23.6894 103.667 23.8295 103.767 24.0141C103.868 24.1987 103.895 24.4142 103.842 24.6173L103.525 25.8627C103.497 25.9758 103.444 26.0817 103.372 26.1736C103.299 26.2655 103.208 26.3413 103.104 26.3963C103 26.4512 102.886 26.484 102.768 26.4926C102.651 26.5011 102.533 26.4852 102.422 26.4459C101.403 26.0836 100.326 25.9099 99.2438 25.9338C97.5139 25.9644 97.0331 26.6817 97.0443 27.3169C97.0585 28.0992 98.1062 28.618 100.368 29.2618C103.598 30.1574 104.953 31.453 104.999 33.823C105.039 35.9976 103.443 37.9811 100.29 38.5263L100.319 40.1325C100.323 40.3543 100.238 40.5687 100.082 40.7285C99.9266 40.8883 99.713 40.9804 99.4886 40.9845L98.6354 40.9999C98.4112 41.004 98.1946 40.92 98.033 40.7663C97.8714 40.6126 97.7781 40.4019 97.7735 40.1802Z" fill="#6667AB"/>
<path d="M75.2032 102.081C79.1084 98.1759 79.1106 91.842 75.2082 87.934C71.3057 84.0259 64.9763 84.0237 61.0711 87.9289C57.1658 91.8342 57.1636 98.1681 61.066 102.076C64.9685 105.984 71.2979 105.986 75.2032 102.081Z" fill="#595A9A"/>
<path d="M74.143 101.727C77.853 98.0171 77.8551 91.9999 74.1478 88.2873C70.4404 84.5746 64.4275 84.5725 60.7175 88.2825C57.0075 91.9925 57.0054 98.0097 60.7127 101.722C64.4201 105.435 70.433 105.437 74.143 101.727Z" fill="#6667AB"/>
<path opacity="0.58" d="M60.1863 91C60.1578 91.0006 60.1295 90.995 60.1038 90.9837C60.0821 90.9742 60.0627 90.9609 60.0467 90.9446C60.0306 90.9283 60.0183 90.9093 60.0103 90.8887C60.0023 90.868 59.9989 90.8461 60.0003 90.8243C60.0016 90.8024 60.0077 90.781 60.0181 90.7613C60.7569 89.3554 61.9119 88.165 63.3534 87.3241C64.7948 86.4832 66.4655 86.0252 68.1773 86.0014C68.7361 85.9921 69.2947 86.0285 69.8464 86.1103C69.8701 86.1138 69.8928 86.1215 69.9133 86.1331C69.9337 86.1446 69.9515 86.1596 69.9655 86.1774C69.9796 86.1951 69.9896 86.2153 69.9951 86.2365C70.0006 86.2578 70.0015 86.2799 69.9976 86.3015C69.9938 86.3231 69.9853 86.3438 69.9726 86.3624C69.96 86.381 69.9434 86.3972 69.9239 86.4099C69.9044 86.4227 69.8823 86.4319 69.8589 86.4369C69.8355 86.4419 69.8113 86.4427 69.7876 86.4392C69.2577 86.3608 68.7211 86.3257 68.1844 86.3344C66.5403 86.3572 64.9358 86.7971 63.5514 87.6047C62.167 88.4123 61.0576 89.5555 60.3481 90.9057C60.3334 90.9335 60.3105 90.957 60.2819 90.9737C60.2533 90.9904 60.2202 90.9994 60.1863 91Z" fill="white"/>
<path opacity="0.78" d="M75.3884 96.809C76.3823 92.504 73.6984 88.2073 69.3936 87.2121C65.0889 86.2169 60.7935 88.9 59.7996 93.205C58.8057 97.5101 61.4897 101.807 65.7944 102.802C70.0991 103.797 74.3945 101.114 75.3884 96.809Z" fill="#D1D1E6"/>
<path d="M67.7845 100.51L67.7695 99.6487C66.8855 99.6292 66.0086 99.4335 65.3837 99.1688C65.2757 99.1221 65.1879 99.0374 65.1362 98.9303C65.0846 98.8232 65.0726 98.7007 65.1024 98.5853L65.3033 97.7792C65.3208 97.7098 65.3527 97.645 65.3969 97.5891C65.4411 97.5333 65.4965 97.4877 65.5595 97.4554C65.6224 97.4231 65.6914 97.4049 65.7618 97.4019C65.8323 97.399 65.9025 97.4114 65.9679 97.4384C66.6672 97.7266 67.4156 97.8716 68.1702 97.8652C69.0206 97.85 69.6497 97.5451 69.6395 96.9439C69.63 96.4018 69.1339 96.0902 67.9458 95.7854C66.2515 95.347 65.0268 94.622 65.0005 93.1122C64.9759 91.7494 65.9379 90.6909 67.634 90.3812L67.619 89.5202C67.6177 89.4543 67.6292 89.3887 67.6529 89.3274C67.6766 89.266 67.712 89.2099 67.757 89.1625C67.802 89.115 67.8558 89.077 67.9153 89.0508C67.9747 89.0245 68.0387 89.0103 68.1036 89.0092L68.6008 89.0001C68.6656 88.9989 68.73 89.0107 68.7904 89.0348C68.8507 89.0589 68.9058 89.0948 68.9525 89.1406C68.9991 89.1863 69.0365 89.241 69.0624 89.3014C69.0883 89.3618 69.1022 89.4269 69.1034 89.4928L69.1172 90.2659C69.7589 90.2708 70.3962 90.3752 71.007 90.5757C71.1242 90.6161 71.2221 90.7001 71.281 90.8108C71.3399 90.9215 71.3556 91.0507 71.3248 91.1726L71.1401 91.9183C71.1234 91.9862 71.0929 92.0497 71.0505 92.1048C71.0082 92.1599 70.955 92.2054 70.8943 92.2383C70.8336 92.2712 70.7668 92.2908 70.6982 92.2959C70.6296 92.301 70.5607 92.2914 70.496 92.2677C69.9018 92.0516 69.2737 91.9482 68.6428 91.9629C67.6334 91.9811 67.3527 92.4116 67.3593 92.7927C67.3677 93.2616 67.9788 93.5726 69.2977 93.9592C71.1821 94.4964 71.9744 95.2732 71.9996 96.6951C72.023 97.9994 71.0921 99.189 69.2521 99.5158L69.2695 100.48C69.2707 100.546 69.2591 100.611 69.2354 100.673C69.2117 100.734 69.1763 100.79 69.1313 100.837C69.0863 100.885 69.0326 100.923 68.9731 100.949C68.9137 100.975 68.8497 100.99 68.7849 100.991L68.2871 101C68.1567 101.002 68.0308 100.952 67.9366 100.86C67.8425 100.769 67.7878 100.643 67.7845 100.51Z" fill="#6667AB"/>
<path d="M70 65C77.1797 65 83 59.1797 83 52C83 44.8203 77.1797 39 70 39C62.8203 39 57 44.8203 57 52C57 59.1797 62.8203 65 70 65Z" fill="#595A9A"/>
<path d="M78.5039 61.8514C83.3855 56.9698 83.3883 49.0525 78.5102 44.1674C73.6321 39.2824 65.7204 39.2796 60.8388 44.1612C55.9573 49.0427 55.9545 56.9601 60.8326 61.8451C65.7106 66.7301 73.6224 66.7329 78.5039 61.8514Z" fill="#6667AB"/>
<path opacity="0.58" d="M59.3257 47.9999C59.2757 48.001 59.2263 47.9904 59.1813 47.9693C59.1434 47.9516 59.1094 47.9268 59.0814 47.8964C59.0533 47.866 59.0318 47.8305 59.0179 47.792C59.004 47.7534 58.9981 47.7126 59.0005 47.6719C59.0029 47.6311 59.0136 47.5912 59.032 47.5545C59.9856 45.6196 61.4769 43.9812 63.338 42.8236C65.1992 41.666 67.3564 41.0351 69.567 41.0019C70.2886 40.9892 71.01 41.0395 71.7224 41.1522C71.7648 41.1577 71.8057 41.1715 71.8426 41.1926C71.8795 41.2138 71.9116 41.2419 71.9371 41.2753C71.9626 41.3087 71.9809 41.3467 71.991 41.3871C72.0011 41.4275 72.0027 41.4694 71.9958 41.5104C71.9889 41.5515 71.9735 41.5907 71.9507 41.6259C71.9279 41.661 71.898 41.6914 71.8629 41.7152C71.8277 41.7389 71.788 41.7556 71.7461 41.7643C71.7042 41.7729 71.6609 41.7733 71.6189 41.7654C70.9444 41.6591 70.2614 41.6116 69.5782 41.6235C67.4861 41.6546 65.4444 42.2512 63.6828 43.3464C61.9212 44.4415 60.5095 45.9917 59.6064 47.8226C59.5811 47.8744 59.5415 47.9185 59.4919 47.9498C59.4424 47.9811 59.3848 47.9984 59.3257 47.9999Z" fill="white"/>
<path opacity="0.78" d="M77.2633 60.4352C81.3638 56.3347 81.3662 49.6841 77.2686 45.5807C73.171 41.4772 66.5251 41.4749 62.4246 45.5754C58.3241 49.6759 58.3218 56.3265 62.4193 60.4299C66.5169 64.5333 73.1628 64.5357 77.2633 60.4352Z" fill="#D1D1E6"/>
<path d="M69.9784 60.3406L69.9564 59.1928C68.6945 59.1664 67.4418 58.9052 66.5483 58.5519C66.3944 58.4893 66.2693 58.3763 66.1957 58.2336C66.122 58.0909 66.1047 57.9278 66.1469 57.774L66.4338 56.6993C66.4588 56.6068 66.5044 56.5204 66.5675 56.4459C66.6306 56.3714 66.7097 56.3106 66.7996 56.2676C66.8895 56.2245 66.988 56.2002 67.0886 56.1962C67.1892 56.1923 67.2895 56.2088 67.3829 56.2446C68.2685 56.5795 69.3595 56.8376 70.5293 56.8179C71.7439 56.797 72.6425 56.3878 72.627 55.589C72.6134 54.8664 71.9051 54.4486 70.2089 54.0473C67.7882 53.4636 66.0401 52.4964 66.0006 50.4835C65.9663 48.6659 67.3401 47.2545 69.7628 46.8422L69.7408 45.6938C69.7391 45.6059 69.7556 45.5186 69.7895 45.4368C69.8233 45.355 69.8738 45.2803 69.9381 45.217C70.0024 45.1537 70.0791 45.1031 70.164 45.068C70.2489 45.0329 70.3403 45.014 70.4329 45.0124L71.145 45.0001C71.332 44.9971 71.5125 45.0647 71.647 45.188C71.7815 45.3112 71.859 45.4801 71.8624 45.6576L71.8824 46.688C73.0478 46.7126 73.903 46.8877 74.5815 47.1009C74.7496 47.1548 74.8899 47.2673 74.974 47.4155C75.0581 47.5638 75.0798 47.7368 75.0347 47.8997L74.7712 48.8939C74.7475 48.9844 74.7041 49.0691 74.6437 49.1427C74.5833 49.2162 74.5073 49.2769 74.4207 49.3209C74.3341 49.3648 74.2387 49.391 74.1407 49.3978C74.0427 49.4046 73.9443 49.3918 73.8519 49.3603C73.0032 49.0707 72.1056 48.932 71.2039 48.951C69.7628 48.9756 69.362 49.5489 69.3718 50.0571C69.3834 50.6826 70.2561 51.0973 72.1401 51.6129C74.8314 52.3287 75.9599 53.3653 75.9994 55.2603C76.0324 56.9998 74.7046 58.5863 72.0754 59.022L72.0993 60.3068C72.1011 60.3947 72.0847 60.4821 72.0508 60.5639C72.017 60.6458 71.9665 60.7205 71.9022 60.7838C71.8379 60.847 71.7611 60.8977 71.6762 60.9328C71.5912 60.9679 71.4999 60.9867 71.4072 60.9882L70.6951 60.9999C70.6024 61.0014 70.5102 60.9856 70.424 60.9533C70.3377 60.9209 70.259 60.8728 70.1925 60.8115C70.1259 60.7502 70.0727 60.6771 70.0359 60.5963C69.9992 60.5155 69.9796 60.4286 69.9784 60.3406Z" fill="#6667AB"/>
</g>
<defs>
<clipPath id="clip0_2573_4170">
<rect width="172" height="175" fill="white"/>
</clipPath>
</defs>
</svg>
