<svg width="30" height="30" viewBox="0 0 30 30" fill="none" xmlns="http://www.w3.org/2000/svg">
<g clip-path="url(#clip0_2497_4961)">
<path d="M29.227 9.44104C28.1989 8.41295 26.526 8.41301 25.4976 9.44127C25.1813 9.75785 23.1617 11.7789 22.8532 12.0877V5.12262C22.8532 4.41832 22.5789 3.75621 22.0808 3.25822L19.5948 0.772266C19.0968 0.274219 18.4345 0 17.7302 0H2.6369C1.18292 0 0 1.18283 0 2.63672V27.3633C0 28.8172 1.18292 30 2.6369 30H20.2163C21.6703 30 22.8532 28.8172 22.8532 27.3633V19.5487L29.227 13.1699C30.2575 12.1395 30.2578 10.4716 29.227 9.44104ZM17.5794 1.75781C17.7455 1.75781 18.0655 1.72904 18.3517 2.01521L20.8378 4.50117C21.1167 4.78014 21.0953 5.08582 21.0953 5.27344H17.5794V1.75781ZM21.0952 27.3633C21.0952 27.8479 20.701 28.2422 20.2163 28.2422H2.6369C2.15224 28.2422 1.75794 27.8479 1.75794 27.3633V2.63672C1.75794 2.15209 2.15224 1.75781 2.6369 1.75781H15.8214V6.15234C15.8214 6.63773 16.215 7.03125 16.7004 7.03125H21.0952V13.8471C21.0952 13.8471 18.502 16.4423 18.5019 16.4423L17.2595 17.6848C17.163 17.7812 17.0902 17.8989 17.0471 18.0283L15.804 21.7572C15.6987 22.073 15.7809 22.4212 16.0164 22.6566C16.2521 22.8923 16.6005 22.9741 16.9159 22.869L20.645 21.626C20.7745 21.5829 20.8921 21.5102 20.9886 21.4137L21.0952 21.307V27.3633ZM19.124 18.3063L20.367 19.5492L19.8922 20.024L18.0277 20.6454L18.6492 18.781L19.124 18.3063ZM21.6098 18.306L20.3668 17.063C21.0287 16.4006 23.9685 13.4585 24.592 12.8346L25.835 14.0775L21.6098 18.306ZM27.9837 11.9272L27.0776 12.834L25.8346 11.5911L26.741 10.684C27.0839 10.3413 27.6414 10.3413 27.9841 10.684C28.3267 11.0268 28.3285 11.5824 27.9837 11.9272Z" fill="#6667AB"/>
<path d="M17.125 9H4.875C4.39177 9 4 9.44773 4 10C4 10.5523 4.39177 11 4.875 11H17.125C17.6082 11 18 10.5523 18 10C18 9.44773 17.6082 9 17.125 9Z" fill="#6667AB"/>
<path d="M14.0833 12H4.91667C4.41042 12 4 12.4477 4 13C4 13.5523 4.41042 14 4.91667 14H14.0833C14.5896 14 15 13.5523 15 13C15 12.4477 14.5896 12 14.0833 12Z" fill="#6667AB"/>
<path d="M14.0833 16H4.91667C4.41042 16 4 16.4477 4 17C4 17.5523 4.41042 18 4.91667 18H14.0833C14.5896 18 15 17.5523 15 17C15 16.4477 14.5896 16 14.0833 16Z" fill="#6667AB"/>
<path d="M14.0833 19H4.91667C4.41042 19 4 19.4477 4 20C4 20.5523 4.41042 21 4.91667 21H14.0833C14.5896 21 15 20.5523 15 20C15 19.4477 14.5896 19 14.0833 19Z" fill="#6667AB"/>
<path d="M17.125 25H11.875C11.3918 25 11 25.4477 11 26C11 26.5523 11.3918 27 11.875 27H17.125C17.6082 27 18 26.5523 18 26C18 25.4477 17.6082 25 17.125 25Z" fill="#6667AB"/>
</g>
<defs>
<clipPath id="clip0_2497_4961">
<rect width="30" height="30" fill="white"/>
</clipPath>
</defs>
</svg>
