<svg width="169" height="168" viewBox="0 0 169 168" fill="none" xmlns="http://www.w3.org/2000/svg">
<path d="M147.874 143.651C144.486 147.223 141.28 149.526 138.747 151.346C108.974 172.737 73.7444 166.502 66.2569 164.979C55.1999 162.73 33.8285 158.384 18.3769 140.187C-4.99911 112.659 -1.3593 69.29 16.773 40.6591C20.0896 35.424 37.6096 6.35983 73.2192 1.69633C94.7697 -1.12403 119.89 4.56483 138.082 19.8268C176.268 51.8677 173.55 116.586 147.874 143.651Z" fill="#D1D1E6"/>
<path d="M2 162H74V148H2C3.54243 148 3.54243 162 2 162Z" fill="#D1D1E6"/>
<path d="M74.113 159.112V152.494C74.113 150.161 72.6917 148.27 70.9385 148.27H2.49651C1.8344 148.27 1.1994 148.006 0.731212 147.535C0.263025 147.065 1.56423e-07 146.427 1.56423e-07 145.762C1.56423e-07 145.56 0.0799005 145.366 0.222123 145.223C0.364346 145.08 0.55724 145 0.758373 145H75.5602C77.2755 145 80 147.712 80 151.051V160.294C80 163.446 77.3559 166 75.7402 166H1.15196C1.00066 166 0.850828 165.97 0.711031 165.912C0.571233 165.854 0.44421 165.769 0.337225 165.661C0.23024 165.554 0.14539 165.426 0.087527 165.286C0.0296635 165.145 -7.87071e-05 164.995 1.56423e-07 164.843C-4.10539e-07 164.283 0.221146 163.746 0.614872 163.35C1.0086 162.954 1.54272 162.731 2.09993 162.73H71.3933C72.8951 162.73 74.113 161.111 74.113 159.112Z" fill="#6667AB"/>
<path d="M71.8036 151.407H4.19344C4.14119 151.405 4.09202 151.382 4.05603 151.344C4.02005 151.306 4 151.256 4 151.204C4 151.152 4.02005 151.101 4.05603 151.063C4.09202 151.026 4.14119 151.003 4.19344 151H71.8066C71.8588 151.003 71.908 151.026 71.944 151.063C71.9799 151.101 72 151.152 72 151.204C72 151.256 71.9799 151.306 71.944 151.344C71.908 151.382 71.8588 151.405 71.8066 151.407H71.8036Z" fill="url(#paint0_linear_2573_3957)"/>
<path d="M71.8036 153.407H4.19344C4.14119 153.405 4.09202 153.382 4.05603 153.344C4.02005 153.306 4 153.256 4 153.204C4 153.152 4.02005 153.101 4.05603 153.063C4.09202 153.026 4.14119 153.003 4.19344 153H71.8066C71.8588 153.003 71.908 153.026 71.944 153.063C71.9799 153.101 72 153.152 72 153.204C72 153.256 71.9799 153.306 71.944 153.344C71.908 153.382 71.8588 153.405 71.8066 153.407H71.8036Z" fill="url(#paint1_linear_2573_3957)"/>
<path d="M71.8036 155.407H4.19344C4.14119 155.405 4.09202 155.382 4.05603 155.344C4.02005 155.306 4 155.256 4 155.204C4 155.151 4.02005 155.101 4.05603 155.063C4.09202 155.026 4.14119 155.003 4.19344 155H71.8066C71.8588 155.003 71.908 155.026 71.944 155.063C71.9799 155.101 72 155.151 72 155.204C72 155.256 71.9799 155.306 71.944 155.344C71.908 155.382 71.8588 155.405 71.8066 155.407H71.8036Z" fill="url(#paint2_linear_2573_3957)"/>
<path d="M71.8036 157.407H4.19344C4.14119 157.405 4.09202 157.382 4.05603 157.344C4.02005 157.306 4 157.256 4 157.204C4 157.152 4.02005 157.101 4.05603 157.063C4.09202 157.026 4.14119 157.003 4.19344 157H71.8066C71.8588 157.003 71.908 157.026 71.944 157.063C71.9799 157.101 72 157.152 72 157.204C72 157.256 71.9799 157.306 71.944 157.344C71.908 157.382 71.8588 157.405 71.8066 157.407H71.8036Z" fill="url(#paint3_linear_2573_3957)"/>
<path d="M71.7931 159.407H4.20386C4.14979 159.407 4.09794 159.385 4.05971 159.347C4.02148 159.309 4 159.257 4 159.203C4 159.149 4.02148 159.098 4.05971 159.06C4.09794 159.021 4.14979 159 4.20386 159H71.7961C71.8502 159 71.9021 159.021 71.9403 159.06C71.9785 159.098 72 159.149 72 159.203C72 159.257 71.9785 159.309 71.9403 159.347C71.9021 159.385 71.8502 159.407 71.7961 159.407H71.7931Z" fill="url(#paint4_linear_2573_3957)"/>
<path d="M69.9186 129H12.0814C9.82732 129 8 130.835 8 133.099V140.901C8 143.165 9.82732 145 12.0814 145H69.9186C72.1727 145 74 143.165 74 140.901V133.099C74 130.835 72.1727 129 69.9186 129Z" fill="#9494C4"/>
<path d="M59.4469 143H66.5531C66.7999 143 67 142.81 67 142.576V131.424C67 131.19 66.7999 131 66.5531 131H59.4469C59.2001 131 59 131.19 59 131.424V142.576C59 142.81 59.2001 143 59.4469 143Z" fill="url(#paint5_linear_2573_3957)"/>
<path d="M55.2264 143H57.7736C57.8986 143 58 142.904 58 142.785V131.215C58 131.096 57.8986 131 57.7736 131H55.2264C55.1014 131 55 131.096 55 131.215V142.785C55 142.904 55.1014 143 55.2264 143Z" fill="url(#paint6_linear_2573_3957)"/>
<path d="M69 89C69 89 52.6123 32.1413 22.7079 2.07504C20.6972 0.0537648 17.23 1.02626 16.6006 3.79417C12.3949 22.3118 5.26671 78.2257 69 89Z" fill="#8889D6"/>
<path d="M62.9497 84.7295C62.9786 84.7561 62.9964 84.7925 62.9995 84.8315C63.0026 84.8704 62.9909 84.9091 62.9667 84.9399C62.9425 84.9708 62.9075 84.9914 62.8687 84.9979C62.8298 85.0043 62.79 84.996 62.757 84.9747C56.7372 80.9416 33.2552 60.8464 23.0048 19.1408C22.9963 19.1132 22.9991 19.0834 23.0128 19.0579C23.0264 19.0324 23.0496 19.0133 23.0774 19.0048C23.1052 18.9963 23.1353 18.9991 23.161 19.0127C23.1867 19.0262 23.2059 19.0493 23.2145 19.0769C26.4903 28.7032 39.7015 64.1488 62.9497 84.7295Z" fill="white"/>
<path d="M82 130.992C82 130.992 50.1205 66.3862 7.99954 36.8048C5.16827 34.8161 1.25512 36.7285 1.11079 40.1831C0.142574 63.2848 3.84524 131.836 82 130.992Z" fill="#6667AB"/>
<path d="M73.9057 128.644C73.9479 128.669 73.9791 128.709 73.9926 128.756C74.0061 128.804 74.001 128.854 73.9783 128.898C73.9556 128.941 73.9171 128.974 73.8707 128.99C73.8244 129.006 73.7738 129.003 73.7296 128.982C65.6779 125.425 33.319 106.286 12.0128 58.1905C11.9445 58.0358 12.1674 57.9195 12.2488 58.0701C18.2501 68.9709 41.7193 108.866 73.9057 128.644Z" fill="white"/>
<path d="M26.0002 11.2182C25.9949 10.7626 26.0881 10.3112 26.2735 9.89455C26.459 9.47789 26.7323 9.10567 27.075 8.80307C27.4177 8.50047 27.8218 8.27456 28.26 8.14061C28.6982 8.00666 29.1602 7.9678 29.6148 8.02667C42.4215 9.6849 86.4574 14.7918 122.828 11.8281C123.222 11.7953 123.618 11.841 123.993 11.9626C124.369 12.0842 124.716 12.2792 125.014 12.5362C125.312 12.7931 125.556 13.1068 125.731 13.4588C125.905 13.8107 126.007 14.1938 126.03 14.5855L133.994 150.176C134.047 151.069 133.742 151.947 133.145 152.617C132.549 153.287 131.71 153.695 130.812 153.753C115.514 154.732 52.5095 158.537 30.0186 156.314C29.3575 156.248 28.7442 155.942 28.2959 155.454C27.8477 154.967 27.5961 154.332 27.5894 153.672L26.0002 11.2182Z" fill="#6667AB"/>
<path d="M28.0002 15.1106C27.9951 14.6704 28.0848 14.2341 28.2633 13.8314C28.4418 13.4288 28.7049 13.069 29.0349 12.7765C29.3649 12.484 29.754 12.2656 30.1759 12.1361C30.5978 12.0065 31.0427 11.9689 31.4804 12.0257C43.813 13.6285 86.2178 18.5643 121.242 15.6998C121.621 15.668 122.002 15.7122 122.364 15.8298C122.725 15.9473 123.059 16.1358 123.347 16.3842C123.634 16.6325 123.869 16.9357 124.037 17.2759C124.205 17.6161 124.303 17.9864 124.325 18.365L131.994 149.405C132.045 150.268 131.751 151.116 131.177 151.764C130.603 152.412 129.796 152.806 128.931 152.862C114.199 153.808 53.5282 157.486 31.8694 155.336C31.2329 155.272 30.6424 154.977 30.2109 154.506C29.7794 154.035 29.5372 153.421 29.5308 152.783L28.0002 15.1106Z" fill="#D1D1E6"/>
<path opacity="0.78" d="M39.0026 24.9984L40.4623 53.1032C40.4854 53.5535 40.6787 53.9784 41.0035 54.2929C41.3283 54.6073 41.7607 54.7879 42.2138 54.7986C47.4482 54.9187 63.7596 55.2299 72.9661 54.7048C73.4681 54.6758 73.9409 54.4605 74.291 54.1014C74.641 53.7423 74.8428 53.2656 74.8565 52.7656C75.0045 47.4928 75.3082 32.1461 74.0671 25.7379C73.9688 25.2357 73.7016 24.7818 73.3094 24.4508C72.9172 24.1199 72.4234 23.9316 71.9092 23.917L40.9672 23.0009C40.7034 22.993 40.4407 23.0395 40.1958 23.1377C39.951 23.2359 39.7293 23.3834 39.5446 23.5712C39.36 23.7589 39.2165 23.9826 39.1232 24.2282C39.0299 24.4739 38.9889 24.7361 39.0026 24.9984Z" fill="white"/>
<path d="M63.3896 34.8481C63.6207 31.5425 61.1283 28.6761 57.8226 28.446C54.5169 28.2158 51.6497 30.709 51.4185 34.0146C51.1874 37.3203 53.6798 40.1866 56.9855 40.4167C60.2912 40.6469 63.1584 38.1537 63.3896 34.8481Z" fill="url(#paint7_linear_2573_3957)"/>
<path d="M47.5466 52L66.5372 51.9056C67.7016 51.8999 68.3925 50.6702 67.7602 49.7377C66.1342 47.3387 62.74 43.8191 56.8961 44.0072C51.2667 44.1892 47.9418 47.3981 46.2761 49.6993C45.5686 50.6753 46.3028 52.0073 47.5466 52Z" fill="url(#paint8_linear_2573_3957)"/>
<g opacity="0.6">
<path d="M117.062 27.7928C117.187 27.794 117.311 27.7653 117.426 27.7084C117.542 27.6515 117.646 27.5676 117.734 27.4617C117.821 27.3557 117.89 27.2299 117.936 27.0918C117.981 26.9536 118.003 26.806 118 26.6576C117.985 26.3517 117.874 26.0638 117.687 25.8517C117.501 25.6396 117.254 25.5191 116.997 25.5145L82.6967 25.0001C82.1631 24.9922 81.8735 25.4742 82.0534 26.0706L82.3103 26.9209C82.492 27.5173 83.0735 28 83.6072 28L117.062 27.7928Z" fill="white"/>
</g>
<g opacity="0.6">
<path d="M82.6968 30.0001C82.1631 29.9922 81.8735 30.4736 82.0534 31.0708L82.3097 31.9206C82.4914 32.5179 83.0735 33 83.6072 33L117.062 32.7935C117.187 32.7947 117.311 32.766 117.426 32.7091C117.542 32.6522 117.646 32.5682 117.734 32.4623C117.821 32.3563 117.89 32.2305 117.936 32.0923C117.981 31.9541 118.003 31.8064 118 31.658C117.985 31.352 117.874 31.0639 117.687 30.8516C117.501 30.6393 117.254 30.5187 116.996 30.5139L82.6968 30.0001Z" fill="white"/>
</g>
<g opacity="0.6">
<path d="M82.6968 35.0001C82.1631 34.9922 81.8735 35.4742 82.0534 36.0706L82.3097 36.9209C82.4914 37.5173 83.0735 38 83.6072 38L117.062 37.7935C117.187 37.7947 117.311 37.7661 117.426 37.7092C117.542 37.6523 117.646 37.5683 117.734 37.4624C117.821 37.3564 117.89 37.2306 117.936 37.0925C117.981 36.9543 118.003 36.8067 118 36.6583C117.985 36.3525 117.874 36.0646 117.688 35.8524C117.502 35.6402 117.255 35.5194 116.997 35.5145L82.6968 35.0001Z" fill="white"/>
</g>
<g opacity="0.6">
<path d="M120.101 63.5178C120.224 63.5203 120.346 63.4922 120.459 63.4353C120.572 63.3784 120.674 63.294 120.759 63.1873C120.843 63.0807 120.908 62.9543 120.949 62.8161C120.99 62.6779 121.007 62.5309 120.998 62.3847C120.961 61.7645 120.497 61.2558 119.967 61.2537L40.5326 61C40.0026 61 39.8408 61.4002 40.1717 61.8932L40.991 63.1097C41.3231 63.6026 42.0287 64.0036 42.5587 64L120.101 63.5178Z" fill="white"/>
</g>
<g opacity="0.6">
<path d="M40.5326 66C40.0026 66 39.8408 66.4001 40.1717 66.8937L40.991 68.1092C41.3237 68.602 42.0287 69.0029 42.5587 69L120.101 68.5179C120.224 68.5202 120.346 68.492 120.459 68.435C120.572 68.378 120.674 68.2935 120.759 68.1868C120.843 68.0802 120.908 67.9538 120.949 67.8156C120.99 67.6775 121.007 67.5306 120.998 67.3843C120.96 66.7644 120.497 66.2557 119.967 66.2543L40.5326 66Z" fill="white"/>
</g>
<path opacity="0.6" d="M40.1377 75.2777C42.0012 75.1233 45.493 75.0391 47.4149 75.0004C47.8101 74.9922 48.1963 75.1203 48.5101 75.3636C48.8239 75.607 49.0466 75.9511 49.1416 76.3395C49.5206 77.8946 50.0462 80.5943 49.9967 83.4587C49.9904 83.8707 49.8238 84.2636 49.5331 84.5522C49.2424 84.8407 48.851 85.0016 48.4438 85L41.35 84.96C40.9288 84.9576 40.5234 84.7974 40.2121 84.5102C39.9008 84.223 39.7057 83.8292 39.6645 83.405L39.0062 76.6544C38.9898 76.4886 39.0061 76.3211 39.0543 76.1617C39.1025 76.0023 39.1815 75.8542 39.2869 75.726C39.3922 75.5979 39.5217 75.4922 39.6678 75.4153C39.8138 75.3383 39.9736 75.2916 40.1377 75.2777Z" fill="white"/>
<g opacity="0.6">
<path d="M53.8204 78.0006C53.2943 77.9831 52.9306 78.3586 53.0112 78.8354L53.2322 80.1383C53.2802 80.3763 53.4162 80.5918 53.6172 80.7487C53.8181 80.9056 54.0719 80.9944 54.3358 81L72.0604 80.9157C72.1855 80.9151 72.3091 80.8917 72.4242 80.8469C72.5393 80.8021 72.6436 80.7369 72.731 80.6549C72.8184 80.5729 72.8871 80.4758 72.9333 80.3693C72.9794 80.2628 73.0021 80.1489 72.9999 80.0343L72.9897 79.5197C72.9819 79.2839 72.8774 79.0594 72.6971 78.891C72.5168 78.7225 72.2739 78.6226 72.0168 78.611L53.8204 78.0006Z" fill="white"/>
</g>
<path opacity="0.6" d="M80.138 74.2778C82.002 74.1233 85.4932 74.0392 87.4149 74.0004C87.8102 73.9921 88.1965 74.1201 88.5103 74.3635C88.8241 74.6069 89.0467 74.9511 89.1416 75.3395C89.5206 76.8946 90.0462 79.5943 89.9967 82.4587C89.9904 82.8707 89.8238 83.2636 89.5331 83.5522C89.2424 83.8407 88.851 84.0016 88.4439 84L81.3502 83.96C80.9291 83.9575 80.5238 83.7972 80.2125 83.51C79.9013 83.2229 79.7061 82.8292 79.6648 82.405L79.0065 75.6545C78.9896 75.4885 79.0057 75.3209 79.0537 75.1613C79.1017 75.0017 79.1808 74.8535 79.2862 74.7252C79.3916 74.597 79.5212 74.4914 79.6675 74.4145C79.8138 74.3377 79.9737 74.2912 80.138 74.2778Z" fill="white"/>
<g opacity="0.6">
<path d="M92.8204 77.0006C92.2949 76.9831 91.9306 77.3586 92.0112 77.8349L92.2322 79.1378C92.2802 79.3758 92.4161 79.5914 92.6171 79.7484C92.8181 79.9054 93.0719 79.9942 93.3358 80L111.06 79.9151C111.185 79.9146 111.309 79.8913 111.424 79.8466C111.539 79.8019 111.644 79.7366 111.731 79.6547C111.818 79.5728 111.887 79.4757 111.933 79.3692C111.979 79.2627 112.002 79.1489 112 79.0343L111.99 78.5197C111.982 78.284 111.878 78.0596 111.697 77.8912C111.517 77.7229 111.274 77.6228 111.017 77.611L92.8204 77.0006Z" fill="white"/>
</g>
<path d="M51.2488 102H51.2306L44.4871 101.971C43.5235 101.967 42.7264 101.325 42.6292 100.478L42.0069 94.9648C41.9893 94.8032 42.0055 94.6398 42.0547 94.4845C42.1038 94.3292 42.1849 94.1853 42.2929 94.0615C42.4217 93.9147 42.5794 93.7948 42.7567 93.7086C42.934 93.6225 43.1273 93.572 43.325 93.5601C43.8927 93.5193 44.6923 93.4488 45.5392 93.3742C47.3218 93.2168 49.5403 93.0191 50.7892 93.0001C51.695 92.9912 52.4667 93.5098 52.6841 94.2781C53.0423 95.5425 53.024 97.9399 52.9706 100.494C52.9506 101.323 52.1813 101.995 51.2488 102ZM43.3596 94.0638C43.232 94.0711 43.1071 94.1033 42.9924 94.1584C42.8777 94.2135 42.7755 94.2904 42.6918 94.3847C42.6285 94.4563 42.5809 94.5398 42.5517 94.6299C42.5226 94.7201 42.5126 94.8151 42.5224 94.9091L43.1447 100.422C43.2115 101.014 43.7901 101.463 44.4901 101.467L51.2336 101.495H51.247C51.9002 101.492 52.4394 101.04 52.4509 100.483C52.5031 97.9683 52.5219 95.6112 52.1826 94.4125C52.0302 93.875 51.454 93.5033 50.7959 93.5044C49.5658 93.5258 47.3576 93.7205 45.5836 93.8768C44.7336 93.952 43.9327 94.0224 43.3602 94.0638H43.3596Z" fill="white"/>
<path opacity="0.6" d="M43.8261 94.4611C45.1791 94.3561 48.1177 94.0259 49.513 94.0002C50.104 93.9892 50.6242 94.3622 50.7651 94.9005C51.04 95.9467 51.0145 98.0348 50.9774 99.9624C50.9664 100.54 50.4647 101.003 49.8494 101L44.7024 100.976C44.0691 100.976 43.5425 100.521 43.4793 99.9306L43.0043 95.3876C42.9556 94.9176 43.325 94.4995 43.8261 94.4611Z" fill="white"/>
<g opacity="0.6">
<path d="M56.0575 97.9033C56.1539 98.2213 56.3665 98.5017 56.6617 98.7002C56.957 98.8988 57.3182 99.0042 57.6882 98.9999L119.75 98.2414C120.084 98.2393 120.403 98.1192 120.638 97.9075C120.872 97.6958 121.002 97.4099 121 97.1127C120.998 96.8154 120.863 96.5312 120.625 96.3226C120.387 96.1139 120.066 95.9979 119.732 96L57.664 96.0355C57.4085 96.0357 57.1564 96.0882 56.9273 96.1889C56.6982 96.2897 56.4983 96.4361 56.3429 96.6167C56.1876 96.7973 56.081 97.0072 56.0315 97.2304C55.982 97.4535 55.9909 97.6838 56.0575 97.9033Z" fill="white"/>
</g>
<path d="M51.2488 116H51.2306L44.4871 115.971C43.5235 115.967 42.7264 115.325 42.6292 114.478L42.0069 108.965C41.9893 108.803 42.0055 108.64 42.0547 108.485C42.1038 108.329 42.1849 108.186 42.2929 108.062C42.4217 107.915 42.5794 107.795 42.7567 107.709C42.934 107.623 43.1273 107.572 43.325 107.56C43.8927 107.52 44.6923 107.449 45.5392 107.374C47.3218 107.217 49.5403 107.019 50.7892 107H50.8159C51.7029 106.995 52.4685 107.518 52.6841 108.278C53.0423 109.543 53.024 111.94 52.9706 114.493C52.9506 115.323 52.1813 115.995 51.2488 116ZM43.3596 108.064C43.232 108.071 43.1072 108.103 42.9925 108.158C42.8778 108.213 42.7756 108.29 42.6918 108.384C42.6287 108.456 42.5812 108.54 42.5522 108.63C42.5231 108.72 42.5132 108.815 42.523 108.91L43.1453 114.422C43.2121 115.014 43.7907 115.463 44.4907 115.466L51.2342 115.495H51.2476C51.9008 115.492 52.44 115.04 52.4515 114.483C52.5037 111.968 52.5226 109.612 52.1832 108.412C52.0308 107.875 51.4461 107.491 50.7965 107.505C49.5664 107.526 47.3582 107.721 45.5836 107.877C44.7336 107.952 43.9334 108.023 43.3608 108.064H43.3596Z" fill="white"/>
<path opacity="0.6" d="M43.8261 108.462C45.1786 108.357 48.1178 108.026 49.5131 108C50.1041 107.989 50.6243 108.362 50.7653 108.901C51.0396 109.947 51.0146 112.035 50.9775 113.962C50.9659 114.54 50.4648 115.003 49.8495 115L44.7018 114.976C44.0691 114.973 43.5419 114.522 43.4793 113.931L43.0043 109.389C42.9556 108.921 43.325 108.502 43.8261 108.462Z" fill="white"/>
<g opacity="0.6">
<path d="M57.0573 111.903C57.1535 112.221 57.3662 112.502 57.6616 112.7C57.957 112.899 58.3184 113.004 58.6887 113L120.775 112.242C121.104 112.233 121.417 112.111 121.646 111.9C121.875 111.689 122.002 111.406 122 111.113C121.998 110.82 121.866 110.539 121.634 110.331C121.401 110.123 121.086 110.004 120.757 110L58.6645 110.035C58.4089 110.036 58.1568 110.088 57.9277 110.189C57.6985 110.29 57.4985 110.436 57.3432 110.617C57.1878 110.797 57.0812 111.007 57.0316 111.23C56.9821 111.453 56.9908 111.683 57.0573 111.903Z" fill="white"/>
</g>
<path d="M51.247 130H51.2287L44.4871 129.972C43.5235 129.967 42.7264 129.325 42.6292 128.478L42.0069 122.965C41.9893 122.803 42.0055 122.64 42.0547 122.484C42.1038 122.329 42.1849 122.185 42.2929 122.061C42.4217 121.915 42.5794 121.795 42.7567 121.709C42.934 121.622 43.1273 121.572 43.325 121.56C43.8927 121.519 44.6923 121.449 45.5386 121.374C47.3218 121.217 49.5403 121.019 50.7892 121H50.8159C51.7029 120.996 52.4685 121.518 52.6841 122.279C53.0423 123.543 53.024 125.94 52.9706 128.494C52.9488 129.323 52.1795 129.995 51.247 130ZM43.3578 122.064C43.2301 122.071 43.1053 122.103 42.9906 122.158C42.8759 122.213 42.7737 122.29 42.6899 122.385C42.6267 122.456 42.5791 122.54 42.5501 122.63C42.5211 122.72 42.5112 122.816 42.5211 122.91L43.1435 128.422C43.2102 129.014 43.7889 129.464 44.4889 129.467L51.2324 129.495H51.2457C51.899 129.492 52.4376 129.04 52.4497 128.483C52.5019 125.968 52.5207 123.612 52.1813 122.412C52.0289 121.875 51.4443 121.49 50.7946 121.505C49.5646 121.526 47.3564 121.72 45.5817 121.877C44.7317 121.952 43.9309 122.022 43.359 122.064H43.3578Z" fill="white"/>
<path opacity="0.6" d="M43.8262 122.461C45.1787 122.357 48.1179 122.026 49.5133 122C50.1043 121.989 50.6245 122.362 50.7654 122.901C51.0398 123.947 51.0148 126.035 50.9771 127.962C50.9661 128.54 50.465 129 49.8497 129L44.702 128.976C44.0692 128.976 43.542 128.521 43.4794 127.931L43.0044 123.388C42.9551 122.918 43.3246 122.5 43.8262 122.461Z" fill="white"/>
<g opacity="0.6">
<path d="M57.0575 126.903C57.1538 127.221 57.3664 127.502 57.6616 127.7C57.9569 127.899 58.3181 128.004 58.6882 128L120.75 127.241C121.084 127.239 121.403 127.119 121.638 126.907C121.872 126.696 122.002 126.41 122 126.113C121.998 125.815 121.863 125.531 121.625 125.323C121.387 125.114 121.066 124.998 120.732 125L58.664 125.035C58.4085 125.036 58.1564 125.088 57.9273 125.189C57.6982 125.29 57.4983 125.436 57.3429 125.617C57.1876 125.797 57.081 126.007 57.0315 126.23C56.982 126.453 56.9909 126.684 57.0575 126.903Z" fill="white"/>
</g>
<path d="M51.2519 145H51.2337L44.4879 144.971C43.524 144.967 42.7266 144.325 42.6294 143.478L42.0069 137.967C41.9893 137.805 42.0055 137.642 42.0547 137.486C42.1039 137.331 42.1849 137.187 42.293 137.063C42.4212 136.917 42.5782 136.797 42.7548 136.71C42.9314 136.624 43.124 136.573 43.3212 136.56C43.8897 136.52 44.6895 136.449 45.5362 136.375C47.3194 136.217 49.5392 136.02 50.7879 136H50.8153C51.7026 135.995 52.4685 136.518 52.6841 137.278C53.0418 138.542 53.0242 140.939 52.9707 143.492C52.9543 144.323 52.1848 144.995 51.2519 145ZM43.3601 137.065C43.2324 137.073 43.1075 137.105 42.9928 137.16C42.878 137.215 42.7758 137.292 42.692 137.386C42.6287 137.458 42.5812 137.541 42.5521 137.632C42.5231 137.722 42.5132 137.817 42.5231 137.911L43.1457 143.422C43.2125 144.014 43.7907 144.463 44.4916 144.466L51.2374 144.495H51.2507C51.9042 144.492 52.4429 144.04 52.4545 143.483C52.5073 140.969 52.5261 138.613 52.1866 137.414C52.0342 136.877 51.4493 136.489 50.7989 136.507C49.569 136.528 47.3601 136.723 45.5848 136.879C44.7345 136.953 43.9334 137.024 43.3613 137.065H43.3601Z" fill="white"/>
<path opacity="0.6" d="M43.8287 137.462C45.1813 137.357 48.1208 137.026 49.5128 137C50.1039 136.989 50.6241 137.362 50.7657 137.901C51.04 138.947 51.0145 141.035 50.9774 142.962C50.9664 143.54 50.4652 144.003 49.8498 144L44.7016 143.976C44.0688 143.976 43.5416 143.522 43.479 142.931L43.0039 138.389C42.9575 137.919 43.3276 137.5 43.8287 137.462Z" fill="white"/>
<g opacity="0.6">
<path d="M57.0575 140.903C57.1539 141.221 57.3665 141.502 57.6617 141.7C57.957 141.899 58.3182 142.004 58.6882 142L120.75 141.241C121.084 141.239 121.403 141.119 121.638 140.908C121.872 140.696 122.002 140.41 122 140.113C121.998 139.815 121.863 139.531 121.625 139.323C121.387 139.114 121.066 138.998 120.732 139L58.664 139.036C58.4085 139.036 58.1564 139.088 57.9273 139.189C57.6982 139.29 57.4982 139.436 57.3429 139.617C57.1876 139.797 57.081 140.007 57.0315 140.23C56.982 140.453 56.9909 140.684 57.0575 140.903Z" fill="white"/>
</g>
<path d="M44.5383 137.624C44.6591 137.557 44.7929 137.513 44.932 137.495C45.0711 137.477 45.2126 137.485 45.3483 137.519C45.4839 137.553 45.6109 137.612 45.7218 137.693C45.8327 137.774 45.9253 137.874 45.9941 137.989L47.3602 140.256C47.391 140.307 47.4364 140.349 47.4914 140.378C47.5463 140.406 47.6086 140.42 47.6712 140.417C47.7339 140.414 47.7944 140.395 47.8461 140.361C47.8978 140.328 47.9386 140.282 47.9639 140.228L51.2826 133.21C51.4482 132.859 52.0037 132.975 52 133.357C51.9771 135.499 51.3932 139.574 47.7594 143C47.7594 143 45.742 142.277 44.1027 138.948C43.9877 138.716 43.9685 138.452 44.049 138.207C44.1295 137.963 44.3038 137.755 44.5383 137.624Z" fill="url(#paint9_linear_2573_3957)"/>
<path d="M34.0002 20.2402C33.9948 19.7816 34.088 19.3272 34.2733 18.9077C34.4587 18.4882 34.7319 18.1135 35.0746 17.8088C35.4173 17.5041 35.8213 17.2766 36.2595 17.1417C36.6976 17.0068 37.1596 16.9676 37.6142 17.0268C50.421 18.6967 94.4571 23.8395 130.828 20.8536C131.222 20.8206 131.618 20.8666 131.993 20.9891C132.369 21.1115 132.716 21.3079 133.014 21.5666C133.313 21.8253 133.556 22.1412 133.731 22.4956C133.906 22.8499 134.007 23.2357 134.031 23.63L141.994 160.131C142.047 161.03 141.742 161.913 141.146 162.588C140.55 163.262 139.711 163.674 138.813 163.731C123.514 164.717 60.5096 168.547 38.018 166.309C37.3569 166.243 36.7436 165.934 36.2955 165.444C35.8474 164.953 35.596 164.314 35.5894 163.649L34.0002 20.2402Z" fill="#6667AB"/>
<path d="M36.0002 23.1101C35.995 22.6699 36.0848 22.2337 36.2633 21.831C36.4418 21.4283 36.7049 21.0686 37.0349 20.7762C37.3649 20.4837 37.754 20.2654 38.1759 20.1359C38.5979 20.0064 39.0427 19.9689 39.4805 20.0258C51.8125 21.6286 94.2181 26.5638 129.242 23.6993C129.621 23.6676 130.003 23.7119 130.364 23.8294C130.726 23.947 131.06 24.1355 131.347 24.3839C131.634 24.6322 131.869 24.9354 132.037 25.2755C132.205 25.6157 132.303 25.9859 132.326 26.3644L139.994 157.405C140.045 158.268 139.751 159.116 139.177 159.763C138.603 160.411 137.796 160.806 136.931 160.862C122.199 161.808 61.5277 165.486 39.8688 163.336C39.2323 163.272 38.6417 162.977 38.2102 162.505C37.7787 162.034 37.5366 161.421 37.5302 160.783L36.0002 23.1101Z" fill="#D1D1E6"/>
<g opacity="0.6">
<path d="M48.0707 100.903C48.1894 101.221 48.451 101.502 48.8145 101.7C49.1779 101.899 49.6223 102.004 50.0778 102L126.461 101.241C126.872 101.239 127.265 101.119 127.554 100.908C127.842 100.696 128.003 100.41 128 100.113C127.997 99.8155 127.831 99.5312 127.538 99.3226C127.245 99.1139 126.85 98.9979 126.439 99L50.048 99.0355C49.7335 99.0357 49.4233 99.0882 49.1413 99.1889C48.8593 99.2897 48.6132 99.4361 48.422 99.6167C48.2309 99.7973 48.0997 100.007 48.0388 100.23C47.9779 100.454 47.9888 100.684 48.0707 100.903Z" fill="white"/>
</g>
<g opacity="0.6">
<path d="M48.0705 116.903C48.1889 117.221 48.4505 117.501 48.814 117.7C49.1774 117.899 49.622 118.004 50.0776 118L126.461 117.241C126.665 117.24 126.866 117.21 127.053 117.153C127.241 117.096 127.411 117.012 127.554 116.907C127.697 116.803 127.81 116.679 127.886 116.542C127.963 116.406 128.001 116.26 128 116.113C127.998 115.966 127.957 115.82 127.878 115.684C127.798 115.549 127.683 115.426 127.538 115.323C127.393 115.219 127.221 115.138 127.033 115.082C126.844 115.027 126.642 114.999 126.439 115L50.0478 115.036C49.7334 115.036 49.4232 115.088 49.1413 115.189C48.8594 115.29 48.6134 115.436 48.4222 115.617C48.2311 115.797 48.0999 116.007 48.0389 116.23C47.9779 116.453 47.9887 116.683 48.0705 116.903Z" fill="white"/>
</g>
<g opacity="0.6">
<path d="M48.0707 134.903C48.1894 135.221 48.451 135.502 48.8145 135.7C49.1779 135.899 49.6223 136.004 50.0778 136L126.461 135.241C126.872 135.239 127.265 135.119 127.554 134.908C127.842 134.696 128.003 134.41 128 134.113C127.997 133.815 127.831 133.531 127.538 133.323C127.245 133.114 126.85 132.998 126.439 133L50.048 133.036C49.7335 133.036 49.4233 133.088 49.1413 133.189C48.8593 133.29 48.6132 133.436 48.422 133.617C48.2309 133.797 48.0997 134.007 48.0388 134.23C47.9779 134.454 47.9888 134.684 48.0707 134.903Z" fill="white"/>
</g>
<g opacity="0.6">
<path d="M49.0707 151.903C49.1894 152.221 49.451 152.502 49.8145 152.7C50.1779 152.899 50.6223 153.004 51.0778 153L127.461 152.241C127.872 152.239 128.265 152.119 128.554 151.908C128.842 151.696 129.003 151.41 129 151.113C128.997 150.816 128.831 150.531 128.538 150.323C128.246 150.114 127.85 149.998 127.439 150L51.048 150.035C50.7335 150.036 50.4232 150.088 50.1413 150.189C49.8593 150.29 49.6132 150.436 49.422 150.617C49.2309 150.797 49.0997 151.007 49.0388 151.23C48.9779 151.453 48.9888 151.684 49.0707 151.903Z" fill="white"/>
</g>
<g opacity="0.6">
<path d="M46.0705 49.9033C46.1889 50.2215 46.4506 50.502 46.8142 50.7006C47.1778 50.8992 47.6227 51.0045 48.0784 50.9999L124.492 50.242C124.898 50.2338 125.283 50.111 125.565 49.9C125.847 49.6889 126.003 49.4064 126 49.1131C125.997 48.8197 125.835 48.5389 125.549 48.3308C125.263 48.1227 124.875 48.004 124.47 48L48.0486 48.0355C47.734 48.0357 47.4237 48.0883 47.1417 48.1891C46.8597 48.2899 46.6136 48.4363 46.4224 48.6168C46.2311 48.7974 46.0999 49.0074 46.0389 49.2304C45.9779 49.4535 45.9887 49.6838 46.0705 49.9033Z" fill="white"/>
</g>
<g opacity="0.6">
<path d="M43.0542 35.1184C43.2605 36.2259 44.0101 37.0006 44.8773 37L115.551 36.9559C116.351 36.9559 117.003 36.0938 117 35.0399C117 34.0157 116.376 33.1893 115.599 33.1762L44.9405 32.0002C43.6931 31.9805 42.7613 33.5251 43.0542 35.1184Z" fill="white"/>
</g>
<g opacity="0.6">
<path d="M47.0713 66.9038C47.1898 67.2216 47.4515 67.5019 47.815 67.7004C48.1786 67.8989 48.6234 68.0043 49.0791 67.9999L125.492 67.24C125.898 67.2318 126.283 67.1091 126.565 66.8983C126.847 66.6874 127.003 66.4052 127 66.1121C126.997 65.819 126.835 65.5384 126.549 65.3305C126.263 65.1226 125.876 65.004 125.47 65L49.0501 65.0354C48.7351 65.0355 48.4244 65.088 48.1421 65.1888C47.8597 65.2896 47.6133 65.4361 47.4219 65.6167C47.2305 65.7974 47.0994 66.0075 47.0386 66.2307C46.9778 66.4539 46.989 66.6842 47.0713 66.9038Z" fill="white"/>
</g>
<g opacity="0.6">
<path d="M47.0705 83.9034C47.1892 84.2213 47.4508 84.5017 47.8142 84.7002C48.1776 84.8988 48.6221 85.0042 49.0775 84.9999L125.461 84.2414C125.872 84.2394 126.265 84.1193 126.554 83.9077C126.842 83.696 127.003 83.4102 127 83.1129C126.997 82.8157 126.831 82.5315 126.538 82.3228C126.246 82.1141 125.85 81.998 125.439 82L49.0478 82.0355C48.7333 82.0358 48.4232 82.0883 48.1413 82.1891C47.8594 82.29 47.6134 82.4363 47.4222 82.6169C47.2311 82.7974 47.0999 83.0074 47.0389 83.2305C46.9779 83.4535 46.9887 83.6838 47.0705 83.9034Z" fill="white"/>
</g>
<path d="M131.225 167C132.596 167.151 134.974 167.402 136.85 167.509C137.977 167.574 138.626 167.434 139 167.237C139 167.291 138.999 167.342 138.997 167.387C138.991 167.511 138.951 167.629 138.883 167.716C138.814 167.804 138.724 167.856 138.628 167.862C136.175 168.043 133.716 168.046 131.263 167.871C131.215 167.868 131.169 167.85 131.129 167.817C131.089 167.784 131.056 167.739 131.033 167.685C131.011 167.631 130.999 167.571 131 167.509C131.001 167.448 131.014 167.388 131.037 167.335C131.094 167.217 131.156 167.106 131.225 167Z" fill="#2C2C2C"/>
<path d="M136.788 166.989C134.858 166.911 132.41 166.728 131 166.617C132.386 165.053 136.788 164 136.788 164H138.03C138.885 165.132 139.009 166.21 139 166.789C138.616 166.931 137.948 167.035 136.788 166.989Z" fill="#37474F"/>
<path d="M138 162.001L137.9 164.45C137.895 164.579 137.853 164.702 137.783 164.798C137.712 164.894 137.617 164.957 137.513 164.976C137.243 165.026 136.967 164.998 136.708 164.894C136.616 164.857 136.534 164.79 136.47 164.7C136.406 164.611 136.364 164.501 136.346 164.384L136 162L138 162.001Z" fill="#CACACA"/>
<path d="M154.026 167.645C154.607 167.571 154.87 167.295 154.98 167C154.98 167 154.98 167.005 154.98 167.008C155.066 167.32 154.867 167.642 154.471 167.795C153.991 167.98 153.468 168.012 153.06 167.997C152.624 167.98 152.223 167.815 152.003 167.551L152 167.547C152.44 167.745 153.057 167.769 154.026 167.645Z" fill="#2C2C2C"/>
<path d="M151.801 162H152.909C154.595 161.971 155.653 165.038 156 166.227C155.875 166.543 155.576 166.841 154.916 166.919C153.816 167.051 153.116 167.026 152.619 166.814C151.708 165.779 151.257 164.265 151.039 163.381C150.79 162.376 151.801 162 151.801 162Z" fill="#37474F"/>
<path d="M152.365 160L152.981 162.087C153.017 162.212 153.002 162.343 152.939 162.46C152.876 162.576 152.769 162.671 152.634 162.729C152.29 162.88 151.804 163.038 151.359 162.992C151.256 162.981 151.159 162.945 151.079 162.889C150.999 162.834 150.938 162.76 150.905 162.677L150 160.481L152.365 160Z" fill="#CACACA"/>
<path d="M153 161.578C152.288 162.214 149.972 162.298 149.972 162.298C141.63 142.144 138.217 139.281 138.217 139.281C139.422 146.888 138.411 163.728 138.411 163.728C137.034 164.34 135.26 163.728 135.26 163.728C135.158 152.965 133.727 142.257 131 131.85C136.638 131.722 139.637 129.78 140.615 129C145.316 136.63 153 161.578 153 161.578Z" fill="url(#paint10_linear_2573_3957)"/>
<path d="M140.011 106.134C141.096 111.342 140.707 120.664 140.452 124.917C140.38 126.112 141.248 127.769 141.947 128.899C141.973 128.941 141.99 128.987 141.997 129.035C142.003 129.084 142 129.133 141.986 129.179C141.972 129.226 141.948 129.27 141.916 129.307C141.883 129.345 141.843 129.376 141.798 129.397C140.626 129.977 136.651 131.776 132.046 131.999C131.896 132.005 131.749 131.962 131.629 131.876C131.509 131.79 131.422 131.667 131.384 131.528C127.968 119.251 124 111.405 124 111.405C128.381 104.673 140.011 106.134 140.011 106.134Z" fill="#8889D6"/>
<path d="M137.716 138C137.767 137.999 137.816 137.988 137.859 137.966C137.903 137.944 137.938 137.913 137.963 137.876C137.988 137.839 138.001 137.797 138 137.754C137.999 137.712 137.986 137.67 137.96 137.633C137.912 137.566 136.754 135.981 134.412 135.024C134.378 135.01 134.341 135.002 134.303 135C134.266 134.999 134.228 135.003 134.192 135.014C134.157 135.024 134.124 135.04 134.096 135.062C134.068 135.083 134.045 135.109 134.029 135.137C134.012 135.166 134.003 135.197 134 135.229C133.998 135.261 134.004 135.293 134.016 135.323C134.028 135.353 134.048 135.381 134.073 135.405C134.098 135.429 134.128 135.448 134.162 135.462C136.346 136.355 137.458 137.87 137.47 137.887C137.496 137.922 137.533 137.951 137.576 137.97C137.619 137.99 137.667 138 137.716 138Z" fill="url(#paint11_linear_2573_3957)"/>
<path d="M146 120.351C145.67 122.705 144.694 125.273 142.742 128L142 127.404C142 127.404 142.857 123.98 142.369 120.094C143.573 119.863 144.996 120.101 146 120.351Z" fill="white"/>
<path d="M138 112.446L139.189 106C139.189 106 147.13 111.977 145.863 121C144.824 120.742 143.352 120.495 142.106 120.734C141.743 117.838 140.658 114.693 138 112.446Z" fill="#8889D6"/>
<path d="M123.924 111L127 117.616C126.502 121.61 124.352 123.334 122.034 124C121.92 122.518 121.571 121.064 121 119.691C123.964 116.639 123.924 111 123.924 111Z" fill="#8889D6"/>
<path d="M120.943 120C121.526 121.374 121.883 122.83 122 124.313C115.674 126.711 114 122.061 114 122.061L115.172 121.86C117.807 122.132 119.653 121.3 120.943 120Z" fill="white"/>
<path d="M127 102.527L128.538 108.188C128.579 108.338 128.651 108.477 128.749 108.597C128.847 108.717 128.97 108.815 129.109 108.885C129.248 108.954 129.4 108.993 129.555 108.999C129.71 109.005 129.865 108.979 130.009 108.921C130.765 108.623 131.505 108.285 132.225 107.907C132.407 107.808 132.565 107.673 132.691 107.509C132.818 107.345 132.908 107.157 132.957 106.956C133.007 106.755 133.013 106.546 132.977 106.343C132.941 106.139 132.863 105.945 132.747 105.774L129.55 101L127 102.527Z" fill="#EBEBEB"/>
<path d="M123 98.8631C122.986 98.9557 124.31 105 124.31 105L128 104.222L127.659 98.3198C127.659 98.3198 123.24 97.3169 123 98.8631Z" fill="white"/>
<path d="M126.92 99.6437L127.317 102.725C127.323 102.764 127.323 102.804 127.317 102.843C127.284 103.085 127.109 103.907 126.303 103.671C125.57 103.458 124.899 103.274 124.436 103.42C124.336 103.452 124.251 103.521 124.198 103.614C124.145 103.706 124.127 103.816 124.148 103.922C124.257 104.468 124.524 105.695 124.914 106.726C124.953 106.827 125.027 106.909 125.121 106.956C125.216 107.004 125.324 107.013 125.425 106.982C126.057 106.793 127.375 106.356 128.356 105.748C128.421 105.708 128.474 105.65 128.511 105.582C128.547 105.513 128.564 105.435 128.561 105.357C128.529 104.58 128.441 102.215 128.515 101.553C128.585 100.93 129.327 100.558 129.65 100.424C129.702 100.403 129.749 100.371 129.788 100.33C129.828 100.289 129.859 100.241 129.879 100.188C130.029 99.8028 130.235 98.9118 129.144 98.5471C129.09 98.5291 129.04 98.5002 128.997 98.4619C128.954 98.4237 128.919 98.3769 128.894 98.3245C128.869 98.272 128.855 98.2149 128.852 98.1565C128.849 98.0982 128.857 98.0398 128.876 97.9848C129.038 97.5219 129.106 96.8155 128.262 96.4265C127.404 96.031 126.763 96.5015 126.417 96.8835C126.35 96.9576 126.258 97.0048 126.16 97.0168C126.062 97.0288 125.962 97.0048 125.88 96.9491C125.781 96.8846 125.653 96.864 125.5 96.9621C125.45 96.9927 125.395 97.0122 125.337 97.0195C125.28 97.0268 125.221 97.0216 125.166 97.0044C125.11 96.9871 125.059 96.9582 125.015 96.9193C124.971 96.8805 124.936 96.8326 124.911 96.7788C124.706 96.3449 124.287 95.8802 123.447 96.028C121.957 96.2905 121.788 97.9896 122.183 98.984C122.578 99.9784 124.176 99.6 124.979 99.0981C125.589 98.7167 126.381 99.1164 126.725 99.3304C126.779 99.3643 126.824 99.4101 126.857 99.4643C126.891 99.5186 126.912 99.5799 126.92 99.6437Z" fill="#6667AB"/>
<path d="M128.32 101.949C128.32 101.949 127.586 100.515 128.341 100.163C129.095 99.8122 130.212 99.9942 129.965 101.033C129.663 102.326 128.32 101.949 128.32 101.949Z" fill="white"/>
<path d="M114.601 122.932C114.267 123.192 113.124 122.648 112.425 122.27C112.26 122.181 112.13 122.037 112.06 121.863C111.989 121.688 111.981 121.495 112.037 121.315C112.206 120.782 112.486 120.094 112.831 120.007C113.403 119.864 115.976 121.854 114.601 122.932Z" fill="url(#paint12_linear_2573_3957)"/>
<path d="M166.835 137.984L85.3127 109L81 120.977L162.494 150.771C163.332 151.076 164.251 151.076 165.089 150.773C165.928 150.469 166.633 149.881 167.082 149.11C168.034 147.475 168.945 144.919 169 141.092C169.008 140.413 168.804 139.748 168.416 139.191C168.028 138.634 167.475 138.212 166.835 137.984Z" fill="#37474F"/>
<path d="M60.642 106.005L72 107.341C71.9878 108.838 71.4764 110.777 69.7435 113L60.2584 107.004C59.7548 106.686 60.0434 105.934 60.642 106.005Z" fill="#37474F"/>
<path d="M85.9619 108.752C86.4706 116.428 81.7118 121 81.7118 121L70 112.986C71.6932 110.634 72.1929 108.584 72.2048 107L85.9619 108.752Z" fill="white"/>
<path d="M165.77 141C165.825 140.998 165.877 140.977 165.918 140.94C165.96 140.904 165.987 140.854 165.997 140.8C166.006 140.745 165.996 140.689 165.969 140.641C165.943 140.593 165.9 140.556 165.849 140.535L88.2899 113.005C88.2329 112.993 88.1735 113.002 88.1226 113.031C88.0718 113.059 88.0331 113.106 88.0137 113.161C87.9943 113.216 87.9955 113.277 88.0172 113.331C88.0389 113.385 88.0795 113.43 88.1315 113.456L165.691 140.986C165.716 140.995 165.743 141 165.77 141Z" fill="#5E5E5E"/>
<path d="M164.769 146C164.824 145.998 164.877 145.977 164.918 145.94C164.96 145.904 164.987 145.854 164.997 145.8C165.006 145.746 164.996 145.69 164.97 145.641C164.943 145.593 164.9 145.556 164.849 145.535L87.2899 118.005C87.2329 117.993 87.1735 118.002 87.1226 118.031C87.0718 118.059 87.0331 118.106 87.0137 118.161C86.9943 118.216 86.9955 118.277 87.0172 118.331C87.0389 118.385 87.0795 118.43 87.1315 118.456L164.691 145.987C164.716 145.995 164.743 146 164.769 146Z" fill="#5E5E5E"/>
<path d="M142.277 128.336L138.595 128L137 129.647C137 129.647 137.378 130.232 138.557 129.896C139.737 129.56 141.352 129.478 141.352 129.478C141.352 129.478 142.98 130.3 143 128.761L142.277 128.336Z" fill="white"/>
<path d="M78 49.0003C78 69.4346 95.0264 86 116.03 86C137.033 86 155 68.711 155 48.2761C155 27.8411 137.033 12 116.032 12C95.0311 12 78 28.5654 78 49.0003Z" fill="#37474F"/>
<path d="M152.746 40C152.768 40.0002 152.79 39.9973 152.812 39.9913C152.843 39.9833 152.873 39.9686 152.9 39.9481C152.926 39.9276 152.948 39.9016 152.965 39.8718C152.982 39.842 152.993 39.8089 152.997 39.7744C153.002 39.74 153 39.7049 152.992 39.6712C152.592 38.1307 152.09 36.6229 151.488 35.1594C151.459 35.0952 151.409 35.0449 151.347 35.0191C151.285 34.9932 151.216 34.9937 151.154 35.0204C151.124 35.033 151.096 35.052 151.073 35.0762C151.05 35.1004 151.031 35.1294 151.019 35.1614C151.006 35.1934 151 35.2277 151 35.2624C151 35.2971 151.007 35.3315 151.019 35.3634C151.612 36.8037 152.107 38.2877 152.499 39.8041C152.514 39.8612 152.547 39.9114 152.592 39.9468C152.636 39.9822 152.691 40.0009 152.746 40Z" fill="#BDD0FB"/>
<path d="M145.739 29C145.796 28.9999 145.851 28.9819 145.896 28.9484C145.924 28.9287 145.946 28.9036 145.964 28.8745C145.981 28.8455 145.993 28.8132 145.997 28.7796C146.002 28.7459 146 28.7116 145.992 28.6788C145.983 28.6459 145.968 28.6152 145.948 28.5884C138.942 19.4534 127.657 14 115.761 14C110.68 14 105.768 15.0131 101.155 17.0096C101.124 17.0224 101.096 17.0415 101.072 17.0656C101.049 17.0897 101.03 17.1185 101.018 17.1501C101.005 17.1817 100.999 17.2155 101 17.2496C101.001 17.2836 101.008 17.3172 101.022 17.3483C101.051 17.4113 101.104 17.4601 101.168 17.4847C101.232 17.5092 101.303 17.5076 101.366 17.48C105.909 15.5115 110.753 14.5135 115.76 14.5135C127.493 14.5135 138.622 19.8905 145.53 28.8998C145.555 28.9317 145.587 28.9573 145.623 28.9747C145.66 28.9921 145.699 29.0007 145.739 29Z" fill="#BDD0FB"/>
<path d="M83 49.0003C83 66.6734 97.8151 81 116.091 81C134.367 81 150 66.047 150 48.3738C150 30.7007 134.365 17 116.091 17C97.8175 17 83 31.3266 83 49.0003Z" fill="#D1D1E6"/>
<path opacity="0.78" d="M142.004 47.6454C142.085 49.0233 143.267 50.0759 144.645 49.9957C146.024 49.9155 147.076 48.733 146.996 47.3546C146.915 45.9761 145.733 44.9241 144.355 45.0043C142.976 45.0845 141.924 46.267 142.004 47.6454Z" fill="white"/>
<path opacity="0.78" d="M87.0042 50.6454C87.0839 52.0233 88.2666 53.0759 89.6451 52.9957C91.0237 52.9155 92.076 51.733 91.9957 50.3546C91.9154 48.9761 90.7334 47.9241 89.3548 48.0043C87.9762 48.0845 86.9246 49.267 87.0042 50.6454Z" fill="white"/>
<path opacity="0.78" d="M121.051 72.0411C119.694 72.2861 118.793 73.591 119.041 74.9492C119.289 76.3074 120.591 77.2069 121.949 76.9589C123.307 76.7109 124.207 75.409 123.959 74.0508C123.71 72.6926 122.409 71.7931 121.051 72.0411Z" fill="white"/>
<path opacity="0.78" d="M111.051 20.0411C109.694 20.2891 108.793 21.591 109.041 22.9492C109.289 24.3073 110.591 25.2069 111.949 24.9589C113.308 24.7109 114.207 23.409 113.959 22.0508C113.711 20.6926 112.408 19.7931 111.051 20.0411Z" fill="white"/>
<path opacity="0.78" d="M103.206 73.8464C102.87 74.3925 102.954 74.9036 103.393 74.9881C103.831 75.0726 104.459 74.6986 104.794 74.1536C105.13 73.6086 105.046 73.0964 104.607 73.0119C104.169 72.9274 103.541 73.3004 103.206 73.8464Z" fill="white"/>
<path opacity="0.78" d="M125.206 23.8464C124.87 24.3925 124.954 24.9036 125.393 24.9881C125.831 25.0726 126.459 24.6991 126.794 24.1536C127.13 23.6081 127.046 23.0964 126.607 23.0119C126.169 22.9274 125.54 23.3009 125.206 23.8464Z" fill="white"/>
<path opacity="0.78" d="M91.6109 64.4734C91.1021 64.9429 90.8641 65.559 91.0792 65.85C91.2943 66.1411 91.881 65.9953 92.3892 65.5265C92.8974 65.0577 93.1359 64.4402 92.9209 64.1498C92.7058 63.8594 92.1196 64.0039 91.6109 64.4734Z" fill="white"/>
<path opacity="0.78" d="M137.611 33.4747C137.103 33.9441 136.864 34.5599 137.079 34.8502C137.294 35.1406 137.881 34.9961 138.389 34.5267C138.897 34.0574 139.136 33.4415 138.921 33.1505C138.706 32.8595 138.12 33.0026 137.611 33.4747Z" fill="white"/>
<path opacity="0.78" d="M90.1911 36.2611C89.6495 35.8889 89.1239 35.9181 89.0186 36.3264C88.9133 36.7347 89.2662 37.3668 89.8083 37.7389C90.3504 38.1111 90.8754 38.0819 90.9813 37.6736C91.0871 37.2653 90.7331 36.6332 90.1911 36.2611Z" fill="white"/>
<path opacity="0.78" d="M140.192 61.2611C139.65 60.8889 139.125 60.9181 139.019 61.3264C138.913 61.7347 139.267 62.3667 139.809 62.7389C140.351 63.111 140.876 63.0818 140.981 62.6743C141.087 62.2668 140.732 61.6332 140.192 61.2611Z" fill="white"/>
<path opacity="0.78" d="M100.585 25.6511C100.138 25.1339 99.5147 24.8706 99.1897 25.063C98.8646 25.2553 98.9686 25.8325 99.4157 26.3492C99.8627 26.8659 100.486 27.1297 100.811 26.9368C101.135 26.7439 101.032 26.1684 100.585 25.6511Z" fill="white"/>
<path opacity="0.78" d="M130.584 71.6509C130.137 71.1336 129.514 70.8703 129.189 71.0633C128.865 71.2562 128.968 71.8328 129.415 72.349C129.862 72.8652 130.485 73.1296 130.81 72.9372C131.135 72.7448 131.031 72.1709 130.584 71.6509Z" fill="white"/>
<path d="M115.498 49.499L134.101 36.182C134.461 35.924 134.426 35.3717 134.037 35.1737L131.719 33.9966C131.268 33.7677 131.309 33.0991 131.788 32.9167L150.125 25.9648C150.687 25.7501 151.148 26.4328 150.757 26.896L138.136 41.8733C138.071 41.9548 137.985 42.0165 137.887 42.0514C137.788 42.0864 137.682 42.0932 137.579 42.0712C137.476 42.0493 137.38 41.9993 137.303 41.9269C137.226 41.8545 137.17 41.7626 137.142 41.6613L136.304 38.6391C136.281 38.5527 136.237 38.4727 136.177 38.4059C136.116 38.3391 136.041 38.2873 135.957 38.2548C135.874 38.2223 135.784 38.21 135.695 38.2191C135.606 38.2281 135.521 38.2581 135.447 38.3067L116.127 50.4794C116.065 50.52 115.995 50.5478 115.921 50.5609C115.848 50.5741 115.772 50.5724 115.699 50.556C115.625 50.5396 115.555 50.5088 115.494 50.4654C115.432 50.422 115.379 50.3669 115.339 50.3033C115.258 50.1721 115.23 50.0164 115.26 49.8673C115.289 49.7182 115.374 49.5867 115.498 49.499Z" fill="#6667AB"/>
<path d="M148.941 27.7728C148.985 27.6879 149.003 27.5898 148.993 27.4896C148.983 27.3893 148.945 27.2911 148.883 27.2061C148.811 27.1046 148.708 27.0282 148.592 26.9902C148.475 26.9522 148.353 26.9551 148.247 26.9984L144.22 28.5227C144.153 28.5485 144.1 28.6003 144.074 28.6672C144.048 28.7341 144.05 28.8112 144.08 28.8824C144.094 28.9169 144.116 28.9488 144.142 28.9762C144.169 29.0035 144.2 29.0258 144.234 29.0416C144.268 29.0574 144.305 29.0664 144.341 29.068C144.378 29.0697 144.413 29.0639 144.446 29.0512L148.473 27.5269C145.533 30.9523 138.744 39.0323 138.626 39.2131C138.587 39.2715 138.574 39.3454 138.59 39.4189C138.606 39.4923 138.651 39.5594 138.713 39.6057C138.776 39.649 138.851 39.6674 138.922 39.6571C138.993 39.6468 139.054 39.6086 139.092 39.5507C139.279 39.2992 144.476 33.1044 148.877 27.8688C148.902 27.8395 148.923 27.8074 148.941 27.7728Z" fill="white"/>
<path d="M114.973 46.4505L115.014 27.4591C115.007 27.0386 114.536 26.7774 114.15 26.9817L111.865 28.1995C111.421 28.4364 110.895 28.052 111.018 27.5794L115.742 9.42192C115.886 8.86633 116.708 8.85685 116.867 9.40889L121.979 27.2465C122.099 27.6729 121.681 28.0591 121.239 27.9217L118.283 27.0024C117.917 26.8887 117.539 27.1393 117.522 27.5065L116.135 46.4665C116.126 46.6146 116.058 46.7532 115.948 46.8527C115.837 46.9523 115.691 47.005 115.542 46.9996C115.394 46.9992 115.252 46.9418 115.146 46.8393C115.04 46.7369 114.978 46.5975 114.973 46.4505Z" fill="#6667AB"/>
<path d="M120.727 26C120.761 26.0001 120.795 25.994 120.827 25.9821C120.86 25.9705 120.89 25.9526 120.915 25.9295C120.941 25.9063 120.961 25.8784 120.976 25.8473C120.99 25.8162 120.998 25.7825 121 25.7482C121.001 25.7139 120.996 25.6797 120.984 25.6476C120.885 25.3608 118.744 17.782 116.939 11.3698C116.905 11.2606 116.836 11.1654 116.743 11.0987C116.65 11.032 116.537 10.9974 116.422 11.0002C116.307 11.003 116.196 11.043 116.106 11.1142C116.016 11.1854 115.952 11.2838 115.924 11.3945L115.005 15.4624C114.998 15.4964 114.998 15.5315 115.005 15.5655C115.012 15.5995 115.025 15.6319 115.045 15.6606C115.064 15.6894 115.09 15.714 115.119 15.7331C115.148 15.7521 115.181 15.7652 115.215 15.7715C115.285 15.7869 115.358 15.7746 115.418 15.7373C115.479 15.7 115.522 15.6406 115.54 15.5719L116.458 11.504C117.606 15.748 120.393 25.6377 120.473 25.8325C120.493 25.8824 120.529 25.925 120.574 25.9548C120.619 25.9847 120.673 26.0004 120.727 26Z" fill="white"/>
<path d="M116.5 51C117.881 51 119 49.8807 119 48.5C119 47.1193 117.881 46 116.5 46C115.119 46 114 47.1193 114 48.5C114 49.8807 115.119 51 116.5 51Z" fill="url(#paint13_linear_2573_3957)"/>
<defs>
<linearGradient id="paint0_linear_2573_3957" x1="3.98951" y1="151.203" x2="72.0075" y2="151.203" gradientUnits="userSpaceOnUse">
<stop stop-color="#DAE3FE"/>
<stop offset="1" stop-color="#E9EFFD"/>
</linearGradient>
<linearGradient id="paint1_linear_2573_3957" x1="3.98951" y1="153.203" x2="72.0075" y2="153.203" gradientUnits="userSpaceOnUse">
<stop stop-color="#DAE3FE"/>
<stop offset="1" stop-color="#E9EFFD"/>
</linearGradient>
<linearGradient id="paint2_linear_2573_3957" x1="3.98951" y1="155.204" x2="72.0075" y2="155.204" gradientUnits="userSpaceOnUse">
<stop stop-color="#DAE3FE"/>
<stop offset="1" stop-color="#E9EFFD"/>
</linearGradient>
<linearGradient id="paint3_linear_2573_3957" x1="3.98951" y1="157.204" x2="72.0075" y2="157.204" gradientUnits="userSpaceOnUse">
<stop stop-color="#DAE3FE"/>
<stop offset="1" stop-color="#E9EFFD"/>
</linearGradient>
<linearGradient id="paint4_linear_2573_3957" x1="4" y1="159.203" x2="71.997" y2="159.203" gradientUnits="userSpaceOnUse">
<stop stop-color="#DAE3FE"/>
<stop offset="1" stop-color="#E9EFFD"/>
</linearGradient>
<linearGradient id="paint5_linear_2573_3957" x1="95.4914" y1="95.6121" x2="38.6094" y2="176.247" gradientUnits="userSpaceOnUse">
<stop stop-color="#53D8FF"/>
<stop offset="1" stop-color="#3840F7"/>
</linearGradient>
<linearGradient id="paint6_linear_2573_3957" x1="91.0851" y1="92.9193" x2="34.7221" y2="172.768" gradientUnits="userSpaceOnUse">
<stop stop-color="#53D8FF"/>
<stop offset="1" stop-color="#3840F7"/>
</linearGradient>
<linearGradient id="paint7_linear_2573_3957" x1="48.9051" y1="20.4533" x2="98.899" y2="105.522" gradientUnits="userSpaceOnUse">
<stop stop-color="#CE1567"/>
<stop offset="1" stop-color="#7A1DBC"/>
</linearGradient>
<linearGradient id="paint8_linear_2573_3957" x1="41.8528" y1="25.6647" x2="87.8316" y2="108.625" gradientUnits="userSpaceOnUse">
<stop stop-color="#CE1567"/>
<stop offset="1" stop-color="#7A1DBC"/>
</linearGradient>
<linearGradient id="paint9_linear_2573_3957" x1="83.6186" y1="79.9924" x2="52.1707" y2="137.977" gradientUnits="userSpaceOnUse">
<stop stop-color="#A737D5"/>
<stop offset="1" stop-color="#EF497A"/>
</linearGradient>
<linearGradient id="paint10_linear_2573_3957" x1="131.364" y1="136.722" x2="162.481" y2="181.776" gradientUnits="userSpaceOnUse">
<stop stop-color="#6667AB"/>
<stop offset="1" stop-color="#4042E2"/>
</linearGradient>
<linearGradient id="paint11_linear_2573_3957" x1="144.014" y1="150.071" x2="142.926" y2="147.5" gradientUnits="userSpaceOnUse">
<stop stop-color="#53D8FF"/>
<stop offset="1" stop-color="#3840F7"/>
</linearGradient>
<linearGradient id="paint12_linear_2573_3957" x1="115" y1="121.501" x2="111.998" y2="121.501" gradientUnits="userSpaceOnUse">
<stop stop-color="#FEBBBA"/>
<stop offset="1" stop-color="#FF928E"/>
</linearGradient>
<linearGradient id="paint13_linear_2573_3957" x1="168.959" y1="190.243" x2="144.891" y2="129.867" gradientUnits="userSpaceOnUse">
<stop stop-color="#09005D"/>
<stop offset="1" stop-color="#1A0F91"/>
</linearGradient>
</defs>
</svg>
