<svg width="20" height="14" viewBox="0 0 20 14" fill="none" xmlns="http://www.w3.org/2000/svg">
<path d="M0 3V10L5 6.75003L0 3Z" fill="white"/>
<path d="M20 10V3L15 6.75003L20 10Z" fill="white"/>
<path d="M11.2344 9.76321C10.5097 10.3317 9.49035 10.3317 8.7656 9.76321L7.66791 8.90214C6.98292 8.36482 6.02903 8.33232 5.30907 8.82179L0.449087 12.1258C0.168162 12.3168 0 12.6345 0 12.9742C0 13.5407 0.459281 14 1.02583 14H18.9742C19.5407 14 20 13.5407 20 12.9742C20 12.6345 19.8318 12.3168 19.5509 12.1258L14.6909 8.82178C13.971 8.33232 13.0171 8.36482 12.3321 8.90214L11.2344 9.76321Z" fill="white"/>
<path d="M0 1C0 1.31476 0.148194 1.61115 0.4 1.8L8.8 8.1C9.51111 8.63333 10.4889 8.63333 11.2 8.1L19.6 1.8C19.8518 1.61115 20 1.31476 20 1C20 0.447715 19.5523 0 19 0H1C0.447716 0 0 0.447715 0 1Z" fill="white"/>
</svg>
