<svg width="42" height="67" viewBox="0 0 42 67" fill="none" xmlns="http://www.w3.org/2000/svg">
<path d="M23.2556 51L15.0938 55.6928L18.3489 62.9512C18.4101 63.0999 18.5204 63.2235 18.6615 63.3018L21.4677 64.8953C21.5656 64.9534 21.6756 64.9883 21.7892 64.9976C21.9029 65.0068 22.0172 64.9899 22.1232 64.9484C22.2293 64.9068 22.3244 64.8417 22.4012 64.7579C22.4779 64.6741 22.5344 64.5739 22.5661 64.465L26.0938 52.5855L23.2556 51Z" fill="#6667AB"/>
<path opacity="0.15" d="M23.2556 51L15.0938 55.6928L18.3489 62.9512C18.4101 63.0999 18.5204 63.2235 18.6615 63.3018L21.4677 64.8953C21.5656 64.9534 21.6756 64.9883 21.7892 64.9976C21.9029 65.0068 22.0172 64.9899 22.1232 64.9484C22.2293 64.9068 22.3244 64.8417 22.4012 64.7579C22.4779 64.6741 22.5344 64.5739 22.5661 64.465L26.0938 52.5855L23.2556 51Z" fill="black"/>
<path d="M18.0938 57.9296L21.2465 65.5284C21.3059 65.676 21.407 65.8004 21.536 65.8846C21.665 65.9687 21.8155 66.0085 21.9668 65.9985C22.118 65.9884 22.2626 65.929 22.3806 65.8284C22.4986 65.7278 22.5843 65.5909 22.6258 65.4367L26.0938 53L18.0938 57.9296Z" fill="#6667AB"/>
<path d="M35.9223 0.192913L1.90053 19.964C1.6676 20.1101 1.47281 20.3103 1.33245 20.5477C1.19209 20.7851 1.11023 21.0529 1.09375 21.3287V63.8358C1.10951 64.1107 1.19112 64.3777 1.33161 64.6139C1.4721 64.8501 1.6673 65.0486 1.90053 65.1923L4.70004 66.8169C4.94357 66.9374 5.21129 67 5.48262 67C5.75395 67 6.02166 66.9374 6.26519 66.8169L40.287 47.0377C40.5199 46.8916 40.7147 46.6915 40.8551 46.454C40.9954 46.2166 41.0773 45.9488 41.0938 45.673V3.11716C41.078 2.84228 40.9964 2.57532 40.8559 2.3391C40.7154 2.10287 40.5202 1.9044 40.287 1.76063L37.4875 0.184792C37.2444 0.0619212 36.9759 -0.00138849 36.7039 2.3097e-05C36.4319 0.00143468 36.1641 0.0675262 35.9223 0.192913Z" fill="#6667AB"/>
<path opacity="0.5" d="M41.3438 2.96398C41.2787 2.57446 40.9617 2.42839 40.5309 2.65561L6.28584 22.4157C6.05544 22.5611 5.86538 22.7621 5.73311 23L1.34375 20.5006C1.47696 20.2725 1.6639 20.0803 1.88835 19.9406L36.1659 0.188642C36.4102 0.0646351 36.6804 0 36.9544 0C37.2284 0 37.4986 0.0646351 37.7428 0.188642L40.5634 1.76296C40.7712 1.89667 40.9481 2.07286 41.0826 2.27989C41.2172 2.48692 41.3062 2.72009 41.3438 2.96398Z" fill="white"/>
<path d="M5.46875 66.4448V24.1391C5.48861 23.8666 5.5727 23.6024 5.71426 23.368C5.85582 23.1336 6.05089 22.9353 6.28378 22.7893L40.6537 3.10754C41.0938 2.85697 41.4688 3.05904 41.4688 3.56018V45.8578C41.4521 46.1322 41.3694 46.3987 41.2276 46.6349C41.0858 46.8712 40.889 47.0703 40.6537 47.2157L6.28378 66.8974C5.82736 67.1399 5.46875 66.9379 5.46875 66.4448Z" fill="#6667AB"/>
<path opacity="0.15" d="M5.53125 66.8222C5.29515 66.9392 5.03656 67 4.77462 67C4.51268 67 4.25409 66.9392 4.01799 66.8222L1.31128 65.2127C1.0877 65.0701 0.900311 64.8745 0.764655 64.6421C0.628998 64.4098 0.548982 64.1475 0.53125 63.8769V21.8047C0.541162 21.5191 0.624635 21.2413 0.77307 21L5.00863 23.4867C4.86245 23.7281 4.78414 24.0067 4.78243 24.2914V66.3635C4.77463 66.8222 5.08663 67.0878 5.53125 66.8222Z" fill="black"/>
<path d="M23.0117 32.3462C23.4854 31.4476 23.8587 30.4956 24.1244 29.5089C24.3994 28.5072 24.5245 27.4675 24.4953 26.4262C24.593 25.363 24.3307 24.2976 23.7535 23.4137C23.2477 22.7832 22.4385 22.7832 21.3258 23.4137C20.7779 23.7467 20.2878 24.173 19.876 24.6748C19.4686 25.199 19.1286 25.776 18.8644 26.3912C18.5808 27.0059 18.3659 27.6524 18.2238 28.3179C18.0552 29.0185 17.9203 29.719 17.8192 30.3846C17.7813 30.6755 17.7017 30.9589 17.5831 31.2253C17.4846 31.4081 17.346 31.5641 17.1785 31.6807L16.0658 32.3462C16.0102 32.3979 15.9382 32.4265 15.8635 32.4265C15.7889 32.4265 15.7169 32.3979 15.6613 32.3462C15.599 32.1771 15.599 31.99 15.6613 31.8208C15.6736 30.7453 15.8094 29.6752 16.0658 28.6331C16.3244 27.4257 16.7087 26.2511 17.2122 25.1302C17.6815 24.0182 18.2818 22.971 18.9993 22.0125C19.6847 21.119 20.5183 20.3598 21.4607 19.7707C22.1686 19.2753 23.0011 19.0073 23.8546 19C24.5016 19.0188 25.1171 19.2946 25.5743 19.7707C26.0871 20.3553 26.447 21.0669 26.6195 21.8374C26.8759 22.831 27.0007 23.8563 26.9904 24.885C26.9904 25.7257 26.9904 26.4963 26.9904 27.232C26.9208 27.9789 26.7854 28.7176 26.5858 29.4388C26.3787 30.1998 26.1311 30.9483 25.844 31.6807C25.5284 32.5068 25.1682 33.3138 24.765 34.0977L19.269 45.5874L26.8218 41.0686C26.8848 41.0044 26.9695 40.9685 27.0578 40.9685C27.1461 40.9685 27.2308 41.0044 27.2939 41.0686C27.368 41.146 27.4246 41.2397 27.4596 41.3427C27.4946 41.4457 27.5071 41.5555 27.4962 41.6641V43.1003C27.4938 43.4045 27.4246 43.704 27.2939 43.9761C27.1917 44.2156 27.0285 44.4215 26.8218 44.5716L16.2007 50.9119C16.1343 50.9689 16.0508 51 15.9647 51C15.8786 51 15.7951 50.9689 15.7286 50.9119C15.6555 50.8266 15.5998 50.7267 15.565 50.6183C15.5302 50.5099 15.5171 50.3953 15.5264 50.2814V49.0554C15.4912 48.788 15.4912 48.517 15.5264 48.2497C15.6407 47.8972 15.7875 47.557 15.9647 47.2338L23.0117 32.3462Z" fill="white"/>
</svg>
