<svg width="42" height="67" viewBox="0 0 42 67" fill="none" xmlns="http://www.w3.org/2000/svg">
<path d="M23.2556 51L15.0938 55.6928L18.3489 62.9512C18.4101 63.0999 18.5204 63.2235 18.6615 63.3018L21.4677 64.8953C21.5656 64.9534 21.6756 64.9883 21.7892 64.9976C21.9029 65.0068 22.0172 64.9899 22.1232 64.9484C22.2293 64.9068 22.3244 64.8417 22.4012 64.7579C22.4779 64.6741 22.5344 64.5739 22.5661 64.465L26.0938 52.5855L23.2556 51Z" fill="#6667AB"/>
<path opacity="0.15" d="M23.2556 51L15.0938 55.6928L18.3489 62.9512C18.4101 63.0999 18.5204 63.2235 18.6615 63.3018L21.4677 64.8953C21.5656 64.9534 21.6756 64.9883 21.7892 64.9976C21.9029 65.0068 22.0172 64.9899 22.1232 64.9484C22.2293 64.9068 22.3244 64.8417 22.4012 64.7579C22.4779 64.6741 22.5344 64.5739 22.5661 64.465L26.0938 52.5855L23.2556 51Z" fill="black"/>
<path d="M18.0938 57.9296L21.2465 65.5284C21.3059 65.676 21.407 65.8004 21.536 65.8846C21.665 65.9687 21.8155 66.0085 21.9668 65.9985C22.118 65.9884 22.2626 65.929 22.3806 65.8284C22.4986 65.7278 22.5843 65.5909 22.6258 65.4367L26.0938 53L18.0938 57.9296Z" fill="#6667AB"/>
<path d="M35.9223 0.192913L1.90053 19.964C1.6676 20.1101 1.47281 20.3103 1.33245 20.5477C1.19209 20.7851 1.11023 21.0529 1.09375 21.3287V63.8358C1.10951 64.1107 1.19112 64.3777 1.33161 64.6139C1.4721 64.8501 1.6673 65.0486 1.90053 65.1923L4.70004 66.8169C4.94357 66.9374 5.21129 67 5.48262 67C5.75395 67 6.02166 66.9374 6.26519 66.8169L40.287 47.0377C40.5199 46.8916 40.7147 46.6915 40.8551 46.454C40.9954 46.2166 41.0773 45.9488 41.0938 45.673V3.11716C41.078 2.84228 40.9964 2.57532 40.8559 2.3391C40.7154 2.10287 40.5202 1.9044 40.287 1.76063L37.4875 0.184792C37.2444 0.0619212 36.9759 -0.00138849 36.7039 2.3097e-05C36.4319 0.00143468 36.1641 0.0675262 35.9223 0.192913Z" fill="#6667AB"/>
<path opacity="0.5" d="M41.3438 2.96398C41.2787 2.57446 40.9617 2.42839 40.5309 2.65561L6.28584 22.4157C6.05544 22.5611 5.86538 22.7621 5.73311 23L1.34375 20.5006C1.47696 20.2725 1.6639 20.0803 1.88835 19.9406L36.1659 0.188642C36.4102 0.0646351 36.6804 0 36.9544 0C37.2284 0 37.4986 0.0646351 37.7428 0.188642L40.5634 1.76296C40.7712 1.89667 40.9481 2.07286 41.0826 2.27989C41.2172 2.48692 41.3062 2.72009 41.3438 2.96398Z" fill="white"/>
<path d="M5.46875 66.4448V24.1391C5.48861 23.8666 5.5727 23.6024 5.71426 23.368C5.85582 23.1336 6.05089 22.9353 6.28378 22.7893L40.6537 3.10754C41.0938 2.85697 41.4688 3.05904 41.4688 3.56018V45.8578C41.4521 46.1322 41.3694 46.3987 41.2276 46.6349C41.0858 46.8712 40.889 47.0703 40.6537 47.2157L6.28378 66.8974C5.82736 67.1399 5.46875 66.9379 5.46875 66.4448Z" fill="#6667AB"/>
<path opacity="0.15" d="M5.53125 66.8222C5.29515 66.9392 5.03656 67 4.77462 67C4.51268 67 4.25409 66.9392 4.01799 66.8222L1.31128 65.2127C1.0877 65.0701 0.900311 64.8745 0.764655 64.6421C0.628998 64.4098 0.548982 64.1475 0.53125 63.8769V21.8047C0.541162 21.5191 0.624635 21.2413 0.77307 21L5.00863 23.4867C4.86245 23.7281 4.78414 24.0067 4.78243 24.2914V66.3635C4.77463 66.8222 5.08663 67.0878 5.53125 66.8222Z" fill="black"/>
<path d="M23.3634 44.8467C23.3648 45.1494 23.296 45.4479 23.1628 45.7169C23.0615 45.955 22.8997 46.1596 22.6947 46.3087L21.6916 46.9005C21.6291 46.9642 21.5451 47 21.4576 47C21.37 47 21.286 46.9642 21.2235 46.9005C21.1473 46.8182 21.0897 46.7193 21.055 46.6109C21.0203 46.5025 21.0094 46.3873 21.0229 46.2739V24.7267L17.0775 31.8975C17.038 32.0228 16.9726 32.1375 16.886 32.2337C16.7993 32.3299 16.6936 32.4053 16.576 32.4545C16.51 32.4942 16.435 32.5151 16.3587 32.5151C16.2824 32.5151 16.2074 32.4942 16.1414 32.4545L15.573 31.5842C15.5249 31.475 15.5 31.3563 15.5 31.2361C15.5 31.116 15.5249 30.9973 15.573 30.8881C15.5787 30.5929 15.6595 30.3047 15.807 30.0526L21.0564 20.48C21.1342 20.2761 21.2608 20.0964 21.4242 19.9578L21.8254 19.6793L22.8284 19.0875C22.8943 19.0309 22.9771 19 23.0625 19C23.1479 19 23.2306 19.0309 23.2965 19.0875C23.3691 19.1723 23.4243 19.2716 23.4588 19.3793C23.4933 19.4871 23.5063 19.601 23.4971 19.7141L23.3634 44.8467Z" fill="white"/>
</svg>
