<svg width="446" height="466" viewBox="0 0 446 466" fill="none" xmlns="http://www.w3.org/2000/svg">
<path d="M261.343 381.612H103.983C61.5682 381.612 23.4952 353.885 9.91863 312.247C9.61432 311.298 9.31002 310.35 9.01742 309.39C-2.78017 271.346 -9.11201 227.051 29.9207 167.802C68.9534 108.553 42.1865 53.0516 92.3731 32.7946C142.56 12.5377 183.313 37.7945 240.428 13.2285C297.544 -11.3374 411.903 -9.88547 418.867 89.7951C425.831 189.476 397.964 185.143 409.117 218.362C420.271 251.581 457.9 390.265 261.343 381.612Z" fill="#DEDCEB"/>
<path d="M114 466C172.542 466 220 453.24 220 437.5C220 421.76 172.542 409 114 409C55.4578 409 8 421.76 8 437.5C8 453.24 55.4578 466 114 466Z" fill="#DEDCEB"/>
<path d="M7 382H438" stroke="#1C004F" stroke-miterlimit="10" stroke-linecap="round"/>
<path d="M152.88 449H65L64.9997 357H158L158 443.88C158 445.238 157.461 446.54 156.5 447.5C155.54 448.461 154.238 449 152.88 449Z" fill="#6667AB"/>
<path d="M64.5715 355.895L158 356L128.576 332.598C126.532 330.971 123.993 330.088 121.379 330.094L43.1662 330C42.7376 329.998 42.3181 330.124 41.9613 330.361C41.6045 330.598 41.3266 330.936 41.1631 331.332C40.9996 331.727 40.9578 332.162 41.0432 332.582C41.1285 333.001 41.3371 333.385 41.6423 333.686L64.5715 355.895Z" fill="#6667AB"/>
<path d="M38.2872 417.466L38 337.115C38 330.996 41.8948 330 41.8948 330L41.194 331.5C40.8493 332.286 41.5731 333.188 42.1706 333.786L64 355.553L63.8966 448L41.1365 424.405C39.326 422.566 38.3017 420.072 38.2872 417.466Z" fill="#6667AB"/>
<path d="M91 356H68.9018C67.869 356 66.8783 356.406 66.1469 357.13C65.4156 357.853 65.0031 358.834 65 359.859V383" stroke="white" stroke-miterlimit="10"/>
<path d="M65.0468 398L65 445" stroke="white" stroke-miterlimit="10"/>
<path d="M51 343L65 356" stroke="white" stroke-miterlimit="10"/>
<path d="M42.7713 330L42.0879 331.52C41.7518 332.316 42.4464 333.23 43.0401 333.836L49 340" stroke="white" stroke-miterlimit="10"/>
<path d="M283.17 74H160.83C149.878 74 141 82.9046 141 93.8889V363.111C141 374.095 149.878 383 160.83 383H283.17C294.122 383 303 374.095 303 363.111V93.8889C303 82.9046 294.122 74 283.17 74Z" fill="#37474F"/>
<path d="M284.367 81H159.633C153.208 81 148 86.2099 148 92.6366V362.363C148 368.79 153.208 374 159.633 374H284.367C290.792 374 296 368.79 296 362.363V92.6366C296 86.2099 290.792 81 284.367 81Z" fill="white"/>
<path d="M186.583 78H257V88.2193C257 91.0785 255.844 93.8206 253.786 95.8424C251.728 97.8642 248.936 99 246.026 99H196.974C194.064 99 191.272 97.8642 189.214 95.8424C187.156 93.8206 186 91.0785 186 88.2193V78.5728C186 78.4209 186.061 78.2752 186.171 78.1678C186.28 78.0604 186.428 78 186.583 78Z" fill="#37474F"/>
<path d="M183.999 64.3002C184.038 71.3212 182.024 78.1964 178.211 84.0561C174.397 89.9159 168.956 94.4972 162.576 97.2206C156.196 99.944 149.162 100.687 142.366 99.3564C135.569 98.0255 129.314 94.6802 124.391 89.7436C119.469 84.807 116.1 78.5007 114.712 71.6223C113.323 64.7439 113.976 57.6022 116.589 51.1004C119.202 44.5986 123.657 39.0287 129.391 35.095C135.125 31.1612 141.88 29.0404 148.802 29.0006C153.399 28.9727 157.956 29.8638 162.213 31.6229C166.47 33.382 170.343 35.9748 173.612 39.253C176.881 42.5312 179.481 46.4305 181.263 50.7282C183.045 55.026 183.975 59.6378 183.999 64.3002Z" fill="#6667AB"/>
<path d="M176 63.847C176.03 69.1879 174.475 74.4179 171.533 78.8753C168.59 83.3327 164.392 86.8172 159.468 88.888C154.545 90.9588 149.118 91.5229 143.874 90.509C138.63 89.495 133.805 86.9486 130.009 83.1917C126.212 79.4349 123.615 74.6365 122.546 69.4034C121.477 64.1704 121.984 58.738 124.004 53.7932C126.023 48.8485 129.463 44.6137 133.889 41.6245C138.315 38.6353 143.529 37.0261 148.87 37.0003C156.027 36.9658 162.904 39.7742 167.991 44.8082C173.079 49.8423 175.959 56.6902 176 63.847Z" fill="#6667AB"/>
<path d="M177 64.3831C177.023 69.6227 175.492 74.7516 172.601 79.1215C169.71 83.4914 165.589 86.9062 160.757 88.9343C155.926 90.9625 150.602 91.5128 145.458 90.5159C140.314 89.519 135.581 87.0195 131.857 83.3335C128.133 79.6474 125.586 74.9401 124.537 69.8065C123.488 64.673 123.984 59.3436 125.963 54.492C127.941 49.6403 131.314 45.4842 135.654 42.5489C139.995 39.6135 145.108 38.0307 150.347 38.0005C153.831 37.9789 157.284 38.6445 160.51 39.9594C163.736 41.2743 166.67 43.2125 169.146 45.6631C171.622 48.1138 173.59 51.0286 174.938 54.2409C176.285 57.4531 176.986 60.8997 177 64.3831Z" fill="#BCBCBC"/>
<path d="M177 64.3831C177.023 69.6227 175.492 74.7516 172.601 79.1215C169.71 83.4914 165.589 86.9062 160.757 88.9343C155.926 90.9625 150.602 91.5128 145.458 90.5159C140.314 89.519 135.581 87.0195 131.857 83.3335C128.133 79.6474 125.586 74.9401 124.537 69.8065C123.488 64.673 123.984 59.3436 125.963 54.492C127.941 49.6403 131.314 45.4842 135.654 42.5489C139.995 39.6135 145.108 38.0307 150.347 38.0005C153.831 37.9789 157.284 38.6445 160.51 39.9594C163.736 41.2743 166.67 43.2125 169.146 45.6631C171.622 48.1138 173.59 51.0286 174.938 54.2409C176.285 57.4531 176.986 60.8997 177 64.3831Z" fill="#DEDCEB"/>
<path d="M151.149 61.8439V55.1618C152.409 55.3049 153.643 55.6121 154.818 56.0751C155.421 56.3718 155.995 56.72 156.533 57.1156L156.629 56.9075L157.677 54.4913L157.915 53.9364L156.724 52.6994L156.14 52.9538C154.588 52.1774 152.891 51.7134 151.149 51.5896V47.9133L149.958 47V47.9249H148.267V51.6705C142.954 52.1907 140.441 55.1387 140.465 58.526C140.465 63.1503 144.562 64.3064 148.35 65.1734V71.7861C145.874 71.6128 143.501 70.7542 141.513 69.3121L140 72.6647C142.438 74.3553 145.343 75.2976 148.338 75.3699V78.1329H147.016L148.35 79H151.137V75.289C156.486 74.7341 159.023 71.8208 158.999 68.4335C159.071 63.8555 154.937 62.7225 151.149 61.8439ZM148.35 61.1618C146.361 60.6185 144.896 59.8902 144.884 58.3064C144.872 56.7225 145.896 55.659 148.314 55.2775L148.35 61.1618ZM151.209 71.7052V65.8555C153.258 66.3988 154.782 67.1503 154.782 68.7803C154.747 70.2023 153.698 71.3353 151.209 71.7052Z" fill="#6667AB"/>
<path d="M150.11 75.1828V79H147.318V75.2304C144.329 75.1589 141.431 74.1894 139 72.4478L140.509 68.9993C142.493 70.4826 144.86 71.3657 147.33 71.544V64.7421C143.551 63.8384 139.499 62.6373 139.463 57.9045C139.463 54.4322 141.947 51.388 147.258 50.8528V47H150.039V50.7815C152.478 50.8689 154.856 51.5681 156.954 52.8149L155.588 56.2635C153.893 55.2803 152.01 54.6645 150.063 54.456V61.3292C153.853 62.233 157.976 63.3984 158 68.1312C157.988 71.6154 155.445 74.6239 150.11 75.1828ZM147.235 60.6276V54.5749C144.858 54.9554 143.812 56.1921 143.824 57.6904C143.836 59.1888 145.262 60.0806 147.235 60.6395V60.6276ZM153.615 68.4641C153.615 66.7874 152.094 66.0145 150.051 65.4556V71.4727C152.57 71.104 153.615 69.9387 153.615 68.476V68.4641Z" fill="white"/>
<path d="M245 31.406C245.018 35.855 243.718 40.2096 241.262 43.9195C238.806 47.6294 235.306 50.5279 231.203 52.2488C227.1 53.9696 222.579 54.4355 218.212 53.5875C213.844 52.7396 209.826 50.6158 206.665 47.4847C203.505 44.3536 201.343 40.3558 200.454 35.9965C199.565 31.6372 199.988 27.1121 201.67 22.9933C203.352 18.8745 206.218 15.3468 209.904 12.8561C213.591 10.3655 217.933 9.02367 222.382 9.00031C225.339 8.98479 228.269 9.55219 231.007 10.6701C233.744 11.788 236.234 13.4344 238.335 15.5153C240.435 17.5961 242.105 20.0706 243.249 22.7973C244.392 25.5239 244.987 28.4492 245 31.406Z" fill="#6667AB"/>
<path d="M225.092 47.9248C234.365 46.4561 240.696 37.7474 239.232 28.4733C237.768 19.1993 229.064 12.8719 219.791 14.3406C210.517 15.8094 204.187 24.5181 205.651 33.7921C207.114 43.0661 215.818 49.3936 225.092 47.9248Z" fill="#6667AB"/>
<path d="M239 31.9052C239.018 35.2674 238.068 38.5597 236.27 41.3657C234.472 44.1717 231.907 46.3654 228.899 47.6694C225.891 48.9734 222.576 49.3291 219.371 48.6916C216.167 48.0541 213.219 46.452 210.898 44.0878C208.578 41.7237 206.99 38.7037 206.335 35.4098C205.681 32.1158 205.989 28.6959 207.221 25.5824C208.453 22.4689 210.553 19.8018 213.256 17.9181C215.96 16.0345 219.144 15.0191 222.408 15.0003C224.574 14.9878 226.722 15.4151 228.729 16.2579C230.735 17.1007 232.561 18.3424 234.102 19.9122C235.643 21.482 236.868 23.349 237.709 25.4068C238.549 27.4646 238.988 29.6727 239 31.9052Z" fill="#BCBCBC"/>
<path d="M239 31.9052C239.018 35.2674 238.068 38.5597 236.27 41.3657C234.472 44.1717 231.907 46.3654 228.899 47.6694C225.891 48.9734 222.576 49.3291 219.371 48.6916C216.167 48.0541 213.219 46.452 210.898 44.0878C208.578 41.7237 206.99 38.7037 206.335 35.4098C205.681 32.1158 205.989 28.6959 207.221 25.5824C208.453 22.4689 210.553 19.8018 213.256 17.9181C215.96 16.0345 219.144 15.0191 222.408 15.0003C224.574 14.9878 226.722 15.4151 228.729 16.2579C230.735 17.1007 232.561 18.3424 234.102 19.9122C235.643 21.482 236.868 23.349 237.709 25.4068C238.549 27.4646 238.988 29.6727 239 31.9052Z" fill="#DEDCEB"/>
<path d="M224.019 29.7273V25.3428C224.807 25.4319 225.579 25.6294 226.315 25.9298C226.69 26.1265 227.049 26.3549 227.387 26.6127V26.4809L228.046 24.8996L228.199 24.5282L227.422 23.7136L227.057 23.8933C226.085 23.3769 225.018 23.071 223.924 22.9949V20.599L223.182 20V20.6109H222.17V23.0667C218.849 23.4141 217.271 25.3548 217.283 27.571C217.283 30.5898 219.85 31.3565 222.229 31.9315V36.2801C220.677 36.1594 219.191 35.5946 217.942 34.6509L217 36.8551C218.559 37.9728 220.415 38.5827 222.323 38.6041V40.425H221.487L222.323 41H224.077V38.6041C227.422 38.2327 229.012 36.316 229 34.0998C228.988 31.0451 226.397 30.3023 224.019 29.7273ZM222.323 29.2721C221.145 28.9127 220.168 28.4455 220.156 27.4033C220.144 26.3611 220.792 25.6543 222.311 25.4147L222.323 29.2721ZM224.066 36.1603V32.3149C225.349 32.6743 226.291 33.1774 226.291 34.2316C226.291 35.2858 225.62 35.9447 224.066 36.1962V36.1603Z" fill="#6667AB"/>
<path d="M223.03 37.6526V40H221.266V37.6526C219.375 37.6083 217.541 37.0033 216 35.9155L216.947 33.7676C218.203 34.688 219.697 35.2373 221.254 35.3521V31.0915C218.888 30.5399 216.308 29.7887 216.296 26.831C216.296 24.6479 217.858 22.7465 221.207 22.4061V20H222.97V22.3474C224.51 22.4015 226.011 22.8373 227.337 23.615L226.473 25.7746C225.41 25.1444 224.224 24.7444 222.994 24.6009V28.8967C225.361 29.4601 227.976 30.1878 228 33.1455C228 35.4108 226.391 37.3005 223.03 37.6526ZM221.219 28.5563V24.7653C219.692 25.0117 219.053 25.7746 219.065 26.7136C219.077 27.6526 219.964 28.2042 221.219 28.5563ZM225.231 33.4507C225.231 32.4061 224.284 31.9249 222.994 31.5728V35.3404C224.58 35.0939 225.243 34.3662 225.231 33.4507Z" fill="white"/>
<path d="M387.733 249H441.267C443.881 249 446 246.873 446 244.249V188.751C446 186.127 443.881 184 441.267 184H387.733C385.119 184 383 186.127 383 188.751V244.249C383 246.873 385.119 249 387.733 249Z" fill="#7F80CA"/>
<path d="M446 202H383V187.821C383 186.543 383.499 185.316 384.387 184.412C385.276 183.508 386.48 183 387.737 183H441.263C442.52 183 443.724 183.508 444.613 184.412C445.501 185.316 446 186.543 446 187.821V202Z" fill="#6667AB"/>
<path d="M428.899 219H437.101C437.598 219 438 218.598 438 218.101V209.899C438 209.402 437.598 209 437.101 209H428.899C428.402 209 428 209.402 428 209.899V218.101C428 218.598 428.402 219 428.899 219Z" fill="#DEDCEB"/>
<path d="M416.899 219H425.101C425.598 219 426 218.598 426 218.101V209.899C426 209.402 425.598 209 425.101 209H416.899C416.402 209 416 209.402 416 209.899V218.101C416 218.598 416.402 219 416.899 219Z" fill="white"/>
<path d="M399 189C398.47 189 397.961 188.772 397.586 188.365C397.211 187.959 397 187.408 397 186.833V179.166C397 178.592 397.211 178.041 397.586 177.635C397.961 177.228 398.47 177 399 177C399.53 177 400.039 177.228 400.414 177.635C400.789 178.041 401 178.592 401 179.166V186.833C401.001 187.118 400.951 187.401 400.851 187.664C400.751 187.928 400.603 188.167 400.417 188.369C400.231 188.57 400.01 188.73 399.767 188.838C399.524 188.947 399.263 189.002 399 189Z" fill="#37474F"/>
<path d="M410 189C409.737 189.002 409.476 188.947 409.233 188.838C408.99 188.73 408.769 188.57 408.583 188.369C408.397 188.167 408.249 187.928 408.149 187.664C408.049 187.401 407.999 187.118 408 186.833V179.166C408 178.592 408.211 178.041 408.586 177.635C408.961 177.228 409.47 177 410 177C410.53 177 411.039 177.228 411.414 177.635C411.789 178.041 412 178.592 412 179.166V186.833C412 187.408 411.789 187.959 411.414 188.365C411.039 188.772 410.53 189 410 189Z" fill="#37474F"/>
<path d="M420 189C419.47 188.997 418.963 188.768 418.589 188.363C418.215 187.957 418.003 187.409 418 186.836V179.164C418 178.59 418.211 178.04 418.586 177.634C418.961 177.228 419.47 177 420 177C420.53 177 421.039 177.228 421.414 177.634C421.789 178.04 422 178.59 422 179.164V186.836C422 187.41 421.789 187.96 421.414 188.366C421.039 188.772 420.53 189 420 189Z" fill="#37474F"/>
<path d="M404.899 219H413.101C413.598 219 414 218.598 414 218.101V209.899C414 209.402 413.598 209 413.101 209H404.899C404.402 209 404 209.402 404 209.899V218.101C404 218.598 404.402 219 404.899 219Z" fill="#DEDCEB"/>
<path d="M392.899 219H401.101C401.598 219 402 218.598 402 218.101V209.899C402 209.402 401.598 209 401.101 209H392.899C392.402 209 392 209.402 392 209.899V218.101C392 218.598 392.402 219 392.899 219Z" fill="#DEDCEB"/>
<path d="M428.899 230H437.101C437.598 230 438 229.598 438 229.101V220.899C438 220.402 437.598 220 437.101 220H428.899C428.402 220 428 220.402 428 220.899V229.101C428 229.598 428.402 230 428.899 230Z" fill="#DEDCEB"/>
<path d="M416.899 230H425.101C425.598 230 426 229.598 426 229.101V220.899C426 220.402 425.598 220 425.101 220H416.899C416.402 220 416 220.402 416 220.899V229.101C416 229.598 416.402 230 416.899 230Z" fill="white"/>
<path d="M404.899 230H413.101C413.598 230 414 229.598 414 229.101V220.899C414 220.402 413.598 220 413.101 220H404.899C404.402 220 404 220.402 404 220.899V229.101C404 229.598 404.402 230 404.899 230Z" fill="#DEDCEB"/>
<path d="M392.899 230H401.101C401.598 230 402 229.598 402 229.101V220.899C402 220.402 401.598 220 401.101 220H392.899C392.402 220 392 220.402 392 220.899V229.101C392 229.598 392.402 230 392.899 230Z" fill="#DEDCEB"/>
<path d="M428.899 242H437.101C437.598 242 438 241.598 438 241.101V232.899C438 232.402 437.598 232 437.101 232H428.899C428.402 232 428 232.402 428 232.899V241.101C428 241.598 428.402 242 428.899 242Z" fill="#DEDCEB"/>
<path d="M416.899 242H425.101C425.598 242 426 241.598 426 241.101V232.899C426 232.402 425.598 232 425.101 232H416.899C416.402 232 416 232.402 416 232.899V241.101C416 241.598 416.402 242 416.899 242Z" fill="white"/>
<path d="M404.899 242H413.101C413.598 242 414 241.598 414 241.101V232.899C414 232.402 413.598 232 413.101 232H404.899C404.402 232 404 232.402 404 232.899V241.101C404 241.598 404.402 242 404.899 242Z" fill="#DEDCEB"/>
<path d="M392.899 242H401.101C401.598 242 402 241.598 402 241.101V232.899C402 232.402 401.598 232 401.101 232H392.899C392.402 232 392 232.402 392 232.899V241.101C392 241.598 392.402 242 392.899 242Z" fill="#DEDCEB"/>
<path d="M430.006 189C429.476 189 428.967 188.769 428.591 188.359C428.216 187.948 428.003 187.391 428 186.808V179.04C428.038 178.486 428.265 177.967 428.636 177.589C429.006 177.21 429.494 177 430 177C430.506 177 430.994 177.21 431.364 177.589C431.735 177.967 431.962 178.486 432 179.04V186.808C431.997 187.389 431.786 187.944 431.413 188.355C431.039 188.765 430.534 188.997 430.006 189Z" fill="#37474F"/>
<path opacity="0.35" d="M340.948 138H187.052C184.651 138 182.349 138.962 180.651 140.673C178.954 142.385 178 144.707 178 147.127V227.873C178 230.293 178.954 232.615 180.651 234.327C182.349 236.038 184.651 237 187.052 237H340.948C343.349 237 345.651 236.038 347.349 234.327C349.046 232.615 350 230.293 350 227.873V147.127C350 144.707 349.046 142.385 347.349 140.673C345.651 138.962 343.349 138 340.948 138Z" fill="#C0BFC7"/>
<path d="M336.946 134H183.054C178.054 134 174 138.087 174 143.128V223.872C174 228.913 178.054 233 183.054 233H336.946C341.946 233 346 228.913 346 223.872V143.128C346 138.087 341.946 134 336.946 134Z" fill="#7879CD"/>
<path d="M346 143.043C346 140.645 345.046 138.345 343.348 136.649C341.65 134.953 339.347 134 336.946 134H183.054C180.653 134 178.35 134.953 176.652 136.649C174.954 138.345 174 140.645 174 143.043V144.455C192.832 145.307 229.34 151.456 254.807 184.128C284.107 221.748 323.5 218.038 346 208.913V143.043Z" fill="#6667AB"/>
<path d="M212.599 171H191.401C189.522 171 188 172.531 188 174.419V185.581C188 187.469 189.522 189 191.401 189H212.599C214.478 189 216 187.469 216 185.581V174.419C216 172.531 214.478 171 212.599 171Z" fill="white"/>
<path d="M334.573 143H303.427C302.639 143 302 143.649 302 144.45V150.55C302 151.351 302.639 152 303.427 152H334.573C335.361 152 336 151.351 336 150.55V144.45C336 143.649 335.361 143 334.573 143Z" fill="#37474F"/>
<path d="M216.953 205H190.035C189.229 204.997 188.457 204.68 187.888 204.117C187.319 203.555 187 202.794 187 202C186.998 201.607 187.076 201.217 187.228 200.853C187.38 200.489 187.603 200.158 187.885 199.879C188.167 199.601 188.502 199.379 188.871 199.229C189.24 199.078 189.636 199 190.035 199H216.953C217.761 199 218.536 199.316 219.107 199.879C219.679 200.441 220 201.204 220 202C219.997 202.795 219.675 203.556 219.104 204.118C218.533 204.68 217.76 204.997 216.953 205Z" fill="white"/>
<path d="M254.953 205H228.035C227.229 204.997 226.457 204.68 225.888 204.117C225.319 203.555 225 202.794 225 202C224.998 201.607 225.076 201.217 225.228 200.853C225.38 200.489 225.603 200.158 225.885 199.879C226.167 199.601 226.502 199.379 226.871 199.229C227.24 199.078 227.636 199 228.035 199H254.953C255.761 199 256.536 199.316 257.108 199.879C257.679 200.441 258 201.204 258 202C257.997 202.795 257.675 203.556 257.104 204.118C256.533 204.68 255.76 204.997 254.953 205Z" fill="white"/>
<path d="M292.953 205H266.035C265.229 204.997 264.457 204.68 263.888 204.117C263.319 203.555 263 202.794 263 202C262.998 201.607 263.076 201.217 263.228 200.853C263.38 200.489 263.603 200.158 263.885 199.879C264.167 199.601 264.502 199.379 264.871 199.229C265.24 199.078 265.636 199 266.035 199H292.953C293.761 199 294.536 199.316 295.108 199.879C295.679 200.441 296 201.204 296 202C295.997 202.795 295.675 203.556 295.104 204.118C294.533 204.68 293.76 204.997 292.953 205Z" fill="white"/>
<path d="M329.953 205H303.035C302.229 204.997 301.457 204.68 300.888 204.117C300.319 203.555 300 202.794 300 202C299.998 201.607 300.076 201.217 300.228 200.853C300.38 200.489 300.603 200.158 300.885 199.879C301.167 199.601 301.502 199.379 301.871 199.229C302.24 199.078 302.636 199 303.035 199H329.953C330.761 199 331.536 199.316 332.107 199.879C332.679 200.441 333 201.204 333 202C332.997 202.795 332.675 203.556 332.104 204.118C331.533 204.68 330.76 204.997 329.953 205Z" fill="white"/>
<path d="M224.203 225H189.821C189.338 225 188.875 224.792 188.534 224.422C188.192 224.051 188.001 223.549 188.001 223.025C187.994 222.762 188.037 222.499 188.126 222.254C188.214 222.009 188.347 221.785 188.517 221.596C188.687 221.407 188.889 221.257 189.113 221.155C189.337 221.053 189.578 221 189.821 221H224.179C224.661 221.003 225.122 221.212 225.463 221.582C225.804 221.952 225.996 222.452 225.999 222.975C226.006 223.236 225.964 223.496 225.877 223.74C225.789 223.984 225.658 224.207 225.491 224.395C225.324 224.583 225.124 224.734 224.903 224.838C224.682 224.942 224.444 224.997 224.203 225Z" fill="#37474F"/>
<path d="M330.144 225H312.845C312.601 225 312.361 224.948 312.136 224.848C311.911 224.747 311.708 224.599 311.536 224.413C311.365 224.228 311.229 224.007 311.137 223.764C311.045 223.522 310.998 223.262 311 223C311 222.472 311.194 221.965 311.54 221.59C311.885 221.216 312.354 221.003 312.845 221H330.144C330.636 221 331.108 221.211 331.456 221.586C331.804 221.961 332 222.47 332 223C332 223.53 331.804 224.039 331.456 224.414C331.108 224.789 330.636 225 330.144 225Z" fill="#37474F"/>
<path d="M193.345 171C196.003 174.237 200.2 181.556 193 190" stroke="#37474F" stroke-miterlimit="10" stroke-linecap="round"/>
<path d="M186 180H196" stroke="#37474F" stroke-miterlimit="10"/>
<path d="M210.643 171C207.998 174.237 203.802 181.556 211 190" stroke="#37474F" stroke-miterlimit="10" stroke-linecap="round"/>
<path d="M217 180H207" stroke="#37474F" stroke-miterlimit="10"/>
<path d="M365.959 70.2456C358.176 62.1843 357.61 59.3768 369.756 47.5643C381.903 35.7518 380.004 19.4427 380.004 19.4427L356.666 19H355.334L331.996 19.4427C331.996 19.4427 330.097 35.7518 342.244 47.5643C354.39 59.3768 353.824 62.1843 346.041 70.2456C338.258 78.307 327.632 86.182 328.01 101H383.99C384.368 86.182 373.742 78.307 365.959 70.2456Z" fill="white"/>
<path d="M383.884 105H327.128C326.301 105 325.507 104.685 324.92 104.124C324.334 103.562 324.003 102.801 324 102.006C324 101.209 324.33 100.444 324.916 99.8803C325.503 99.3167 326.299 99 327.128 99H383.872C384.701 99 385.497 99.3167 386.084 99.8803C386.67 100.444 387 101.209 387 102.006C386.997 102.799 386.668 103.559 386.084 104.12C385.5 104.681 384.709 104.997 383.884 105Z" fill="#6667AB"/>
<path d="M383.872 22H327.117C326.704 21.9985 326.295 21.9186 325.915 21.7647C325.534 21.6109 325.189 21.3863 324.9 21.1037C324.61 20.8212 324.381 20.4863 324.227 20.1185C324.073 19.7506 323.996 19.3571 324 18.9605C324.013 18.1731 324.346 17.4219 324.929 16.8683C325.511 16.3147 326.297 16.0029 327.117 16H383.86C384.683 15.997 385.475 16.3061 386.063 16.8603C386.651 17.4146 386.987 18.1692 387 18.9605C387.004 19.358 386.927 19.7525 386.772 20.1211C386.617 20.4897 386.387 20.825 386.096 21.1077C385.805 21.3904 385.459 21.6148 385.077 21.768C384.695 21.9212 384.285 22 383.872 22Z" fill="#6667AB"/>
<path d="M344.683 43.0063H366.788C366.949 42.9985 367.108 43.0371 367.247 43.1172C367.386 43.1974 367.498 43.3157 367.569 43.4577C367.641 43.5996 367.669 43.759 367.649 43.9163C367.63 44.0736 367.565 44.2219 367.461 44.3431L357.412 55.5135C357.277 55.6551 357.201 55.842 357.2 56.0366V89.827C357.203 89.9369 357.228 90.0452 357.273 90.1456C357.319 90.2459 357.384 90.3365 357.465 90.4121C357.547 90.4876 357.642 90.5467 357.746 90.5859C357.851 90.6252 357.962 90.6437 358.074 90.6406H376.872C377.055 90.6391 377.233 90.693 377.383 90.7949C377.533 90.8968 377.647 91.0419 377.711 91.2102L378.962 94.9298C379.002 95.0554 379.01 95.1884 378.987 95.3179C378.964 95.4473 378.91 95.5694 378.829 95.6741C378.748 95.7787 378.643 95.8628 378.522 95.9193C378.402 95.9759 378.269 96.0033 378.136 95.9992H332.875C332.745 96.0048 332.615 95.9804 332.496 95.928C332.377 95.8756 332.272 95.7966 332.19 95.6973C332.107 95.598 332.049 95.4812 332.02 95.356C331.992 95.2309 331.993 95.1009 332.025 94.9763L333.076 91.2218C333.128 91.044 333.238 90.8882 333.39 90.7789C333.542 90.6695 333.726 90.6127 333.914 90.6174L353.327 90.5477C353.438 90.5508 353.55 90.5322 353.654 90.4929C353.758 90.4537 353.854 90.3946 353.935 90.3191C354.016 90.2435 354.081 90.153 354.127 90.0526C354.172 89.9522 354.197 89.8439 354.2 89.734V56.2342C354.198 56.042 354.127 55.8567 354 55.7111L343.963 44.3547C343.851 44.231 343.78 44.0767 343.76 43.9124C343.739 43.7481 343.77 43.5815 343.849 43.435C343.927 43.2884 344.049 43.1689 344.198 43.0923C344.347 43.0157 344.516 42.9857 344.683 43.0063Z" fill="#7F80CA"/>
<path d="M350 338.312C350 338.312 350.198 312.297 366.045 310.429C381.892 308.56 387.357 313.35 389.524 314.225C391.691 315.1 386.029 316.294 381.146 321.095C376.264 325.896 376.357 331.879 365.462 333.842C362.385 334.312 359.448 335.466 356.862 337.222C354.275 338.978 352.103 341.293 350.501 344L350 338.312Z" fill="white"/>
<path d="M351 344C351 344 356.151 317.097 381 316" stroke="#4D4D4D" stroke-miterlimit="10" stroke-linecap="round"/>
<path d="M350.847 328.309C350.847 328.309 353.156 306.356 339.844 303.271C326.533 300.186 321.372 303.618 319.444 304.149C317.516 304.681 322.273 306.241 325.932 310.758C329.592 315.276 328.969 320.302 338.078 323.029C340.666 323.71 343.072 324.958 345.12 326.683C347.168 328.407 348.809 330.565 349.923 333L350.847 328.309Z" fill="white"/>
<path d="M350 333C350 333 348.226 310.301 327 307" stroke="#4D4D4D" stroke-miterlimit="10" stroke-linecap="round"/>
<path d="M352.738 278C352.738 278 352.738 278.082 352.795 278.247L352.932 279.012L353.138 280.247C353.138 280.752 353.263 281.317 353.332 281.952C353.698 285.582 353.774 289.236 353.56 292.879C353.343 297.49 352.68 302.947 351.926 308.993C351.056 315.549 350.541 322.15 350.384 328.765C350.166 340.774 351.223 352.772 353.538 364.545C354.406 369.073 355.354 372.672 355.972 375.13C356.303 376.365 356.566 377.318 356.749 377.988L356.943 378.741C356.968 378.826 356.987 378.912 357 379C355.49 374.269 354.253 369.45 353.298 364.568C350.898 352.787 349.802 340.764 350.029 328.729C350.175 322.11 350.69 315.504 351.572 308.946C352.338 302.9 353.035 297.466 353.275 292.867C353.51 289.235 353.472 285.59 353.16 281.964C353.107 281.329 353.05 280.764 352.989 280.27C352.932 279.776 352.875 279.364 352.818 279.023C352.76 278.682 352.749 278.447 352.726 278.259C352.717 278.172 352.721 278.085 352.738 278Z" fill="#1C004F"/>
<path d="M367.683 349H337.317C336.59 349 336 349.563 336 350.258V353.742C336 354.437 336.59 355 337.317 355H367.683C368.41 355 369 354.437 369 353.742V350.258C369 349.563 368.41 349 367.683 349Z" fill="#6667AB"/>
<path d="M361.055 382H345.087C344.464 382.001 343.862 381.783 343.385 381.384C342.909 380.985 342.589 380.432 342.483 379.822L338 354H367L363.683 379.691C363.604 380.33 363.293 380.917 362.809 381.342C362.325 381.768 361.701 382.002 361.055 382Z" fill="#6667AB"/>
<path d="M352.104 302.224C352.104 302.224 354.248 284.952 364.721 285C375.194 285.048 378.38 288.668 379.724 289.435C381.068 290.202 377.256 290.514 373.734 293.307C370.212 296.099 369.784 300.091 362.531 300.498C360.493 300.56 358.493 301.085 356.674 302.036C354.854 302.987 353.258 304.34 352 306L352.104 302.224Z" fill="white"/>
<path d="M352 306C352 306 357.258 288.793 373 290.067" stroke="#4D4D4D" stroke-miterlimit="10" stroke-linecap="round"/>
<path d="M355.225 288.46C355.225 288.46 359.187 271.843 349.199 268.138C339.211 264.434 334.908 266.61 333.375 266.88C331.842 267.15 335.356 268.762 337.738 272.595C340.119 276.429 339.153 280.228 345.909 283.18C347.829 283.966 349.552 285.163 350.956 286.688C352.36 288.212 353.411 290.026 354.034 292L355.225 288.46Z" fill="white"/>
<path d="M353.991 292C353.991 292 354.882 274.511 339 270" stroke="#4D4D4D" stroke-miterlimit="10" stroke-linecap="round"/>
<path d="M100 105.964C100.002 105.444 99.9008 104.929 99.7037 104.448C99.5065 103.967 99.2168 103.53 98.851 103.162C98.4853 102.793 98.0508 102.501 97.5723 102.302C97.0939 102.103 96.581 102 96.063 102H37.937C37.419 102 36.9061 102.103 36.4277 102.302C35.9492 102.501 35.5147 102.793 35.149 103.162C34.7832 103.53 34.4935 103.967 34.2963 104.448C34.0992 104.929 33.9985 105.444 34 105.964V137.545C34 138.593 34.4148 139.598 35.1531 140.339C35.8915 141.08 36.8928 141.497 37.937 141.497H85.8387L90.3515 147.667C90.6188 148.104 91.0008 148.459 91.4556 148.693C91.9105 148.926 92.4207 149.03 92.9304 148.992C93.44 148.955 93.9295 148.777 94.3452 148.478C94.761 148.18 95.0869 147.773 95.2874 147.301L99.1891 139.916C99.7116 139.241 99.9967 138.411 100 137.556V105.964Z" fill="#6667AB"/>
<path d="M88.7424 116H44.2576C43.924 116 43.6042 115.842 43.3683 115.561C43.1325 115.279 43 114.898 43 114.5C43 114.102 43.1325 113.721 43.3683 113.439C43.6042 113.158 43.924 113 44.2576 113H88.7424C89.076 113 89.3958 113.158 89.6317 113.439C89.8675 113.721 90 114.102 90 114.5C90 114.898 89.8675 115.279 89.6317 115.561C89.3958 115.842 89.076 116 88.7424 116Z" fill="white"/>
<path d="M74.7606 122H44.2394C43.9107 122 43.5954 121.842 43.363 121.561C43.1306 121.279 43 120.898 43 120.5C43 120.102 43.1306 119.721 43.363 119.439C43.5954 119.158 43.9107 119 44.2394 119H74.7606C75.0893 119 75.4046 119.158 75.637 119.439C75.8694 119.721 76 120.102 76 120.5C76 120.898 75.8694 121.279 75.637 121.561C75.4046 121.842 75.0893 122 74.7606 122Z" fill="white"/>
<path d="M82.7423 128H44.2577C43.9242 128 43.6043 127.842 43.3684 127.561C43.1325 127.279 43 126.898 43 126.5C43 126.102 43.1325 125.721 43.3684 125.439C43.6043 125.158 43.9242 125 44.2577 125H82.7423C83.0758 125 83.3957 125.158 83.6316 125.439C83.8675 125.721 84 126.102 84 126.5C84 126.898 83.8675 127.279 83.6316 127.561C83.3957 127.842 83.0758 128 82.7423 128Z" fill="white"/>
<g opacity="0.35">
<path d="M261.162 308.929C261.827 289.887 246.929 273.911 227.887 273.246C208.845 272.581 192.869 287.479 192.204 306.521C191.539 325.563 206.437 341.539 225.479 342.204C244.521 342.869 260.497 327.971 261.162 308.929Z" fill="#7F80CA"/>
</g>
<path d="M258.735 307.725C259.747 288.422 244.918 271.95 225.615 270.935C206.312 269.919 189.843 284.744 188.832 304.048C187.82 323.351 202.648 339.823 221.952 340.839C241.255 341.854 257.723 327.029 258.735 307.725Z" fill="#6667AB"/>
<path d="M228.903 331.34C243.218 328.297 252.365 314.223 249.333 299.906C246.3 285.588 232.237 276.447 217.921 279.49C203.605 282.533 194.458 296.607 197.491 310.925C200.523 325.243 214.587 334.383 228.903 331.34Z" fill="#6667AB"/>
<path d="M250 306.347C250.029 311.588 248.533 316.721 245.701 321.096C242.868 325.471 238.826 328.891 234.086 330.925C229.346 332.958 224.121 333.513 219.071 332.519C214.022 331.526 209.375 329.028 205.718 325.343C202.061 321.657 199.559 316.949 198.528 311.814C197.497 306.678 197.983 301.347 199.925 296.493C201.867 291.64 205.178 287.482 209.438 284.546C213.699 281.611 218.718 280.029 223.86 280C227.274 279.98 230.658 280.646 233.82 281.959C236.981 283.272 239.858 285.207 242.285 287.654C244.713 290.101 246.643 293.011 247.967 296.218C249.291 299.425 249.981 302.867 250 306.347Z" fill="#BCBCBC"/>
<path d="M250 306.347C250.029 311.588 248.533 316.721 245.701 321.096C242.868 325.471 238.826 328.891 234.086 330.925C229.346 332.958 224.121 333.513 219.071 332.519C214.022 331.526 209.375 329.028 205.718 325.343C202.061 321.657 199.559 316.949 198.528 311.814C197.497 306.678 197.983 301.347 199.925 296.493C201.867 291.64 205.178 287.482 209.438 284.546C213.699 281.611 218.718 280.029 223.86 280C227.274 279.98 230.658 280.646 233.82 281.959C236.981 283.272 239.858 285.207 242.285 287.654C244.713 290.101 246.643 293.011 247.967 296.218C249.291 299.425 249.981 302.867 250 306.347Z" fill="#DEDCEB"/>
<path d="M225.065 303.841V297.166C226.317 297.297 227.544 297.598 228.71 298.063C229.31 298.359 229.882 298.706 230.419 299.1L230.514 298.902L231.554 296.49L231.793 295.931L230.598 294.685L230.013 294.953C228.47 294.168 226.778 293.7 225.041 293.578V289.909L223.847 289V289.92H222.245V293.66C216.952 294.184 214.454 297.154 214.478 300.521C214.478 305.122 218.553 306.287 222.317 307.161V313.778C219.854 313.595 217.493 312.739 215.506 311.308L214 314.651C216.446 316.352 219.361 317.293 222.365 317.354V320.126H221.038L222.365 321H225.161V317.296C230.491 316.736 233.012 313.801 233 310.434C232.94 305.845 228.83 304.715 225.065 303.841ZM222.269 303.154C220.297 302.606 218.84 301.884 218.828 300.3C218.816 298.715 219.831 297.644 222.233 297.271L222.269 303.154ZM225.113 313.696V307.872C227.145 308.431 228.698 309.176 228.698 310.795C228.638 312.193 227.551 313.323 225.161 313.696H225.113Z" fill="#6667AB"/>
<path d="M224.141 316.296V320H221.386V316.343C218.375 316.283 215.452 315.344 213 313.649L214.509 310.305C216.5 311.735 218.867 312.593 221.338 312.778V306.184C217.564 305.313 213.503 304.14 213.479 299.566C213.479 296.198 215.959 293.249 221.266 292.727V289H224.057V292.669C226.496 292.752 228.874 293.431 230.969 294.643L229.604 297.975C227.902 297.031 226.018 296.434 224.069 296.222V302.886C227.855 303.757 231.976 304.895 232 309.469C232.036 312.825 229.496 315.739 224.141 316.296ZM221.266 302.201V296.326C218.87 296.709 217.828 297.905 217.84 299.357C217.852 300.808 219.349 301.655 221.278 302.201H221.266ZM227.651 309.783C227.651 308.169 226.13 307.461 224.057 306.869V312.674C226.621 312.325 227.663 311.199 227.663 309.783H227.651Z" fill="white"/>
<path d="M250 295C257.732 295 264 288.508 264 280.5C264 272.492 257.732 266 250 266C242.268 266 236 272.492 236 280.5C236 288.508 242.268 295 250 295Z" fill="#DEDCEB"/>
<path d="M245 280.31L246.88 284.606C246.925 284.707 246.994 284.795 247.08 284.863C247.167 284.93 247.268 284.974 247.376 284.992C247.483 285.009 247.593 284.999 247.696 284.963C247.799 284.926 247.891 284.864 247.964 284.783L255 277" stroke="#6667AB" stroke-width="2" stroke-miterlimit="10" stroke-linecap="round"/>
<path d="M250 293C256.627 293 262 287.627 262 281C262 274.373 256.627 269 250 269C243.373 269 238 274.373 238 281C238 287.627 243.373 293 250 293Z" stroke="white" stroke-miterlimit="10"/>
<path d="M62.1095 171.065C62.1095 171.065 66.4401 159.131 84.6896 164.297C96.8598 167.734 103.937 177.354 103.127 191.486C102.282 206.413 111.753 201.831 106.237 223.397C102.505 237.986 120.226 249.99 104.113 272.901C91.0622 291.452 17.2661 280.768 18.0055 248.763C18.3576 233.649 31.0325 240.721 31.7953 216.349C32.1122 206.004 51.8991 209.452 49.2468 193.766C47.9206 185.945 54.1994 170.072 62.1095 171.065Z" fill="#6667AB"/>
<path d="M101 279H124L116.947 271L101.869 273.37L101 279Z" fill="#EDEDED"/>
<path d="M169 418L168.965 431.897L156.045 432L154 420.674L169 418Z" fill="#D9D9D9"/>
<path d="M130 423L128.694 438.693L114.351 440L112 428.191L130 423Z" fill="#D9D9D9"/>
<path d="M71.7069 317.625C86.6727 325.679 117.851 341.625 135.533 344.835C136.242 344.957 136.894 345.301 137.396 345.817C137.899 346.332 138.225 346.994 138.33 347.706L149.112 421.247C149.204 421.888 149.478 422.49 149.901 422.981C150.325 423.471 150.88 423.83 151.501 424.013C155.592 425.18 164.87 426.78 172.05 419.099C172.376 418.752 172.628 418.342 172.79 417.895C172.952 417.447 173.022 416.971 172.994 416.496C172.248 405.663 167.306 335.601 163.763 326.415C160.22 317.228 109.623 307.224 103.468 306.057C103.064 305.981 102.649 305.981 102.245 306.057L72.7093 311.333C72.0338 311.474 71.417 311.817 70.9408 312.317C70.4645 312.817 70.1512 313.451 70.0425 314.133C69.9338 314.815 70.0348 315.515 70.332 316.138C70.6293 316.762 71.1088 317.28 71.7069 317.625Z" fill="#37474F"/>
<path d="M49.9438 322.646C50.0136 322.646 37.8709 345.72 98.7237 351.131C99.3778 351.219 99.9817 351.531 100.433 352.016C100.885 352.5 101.156 353.127 101.201 353.79L108.761 428.176C108.824 428.749 109.047 429.293 109.406 429.743C109.764 430.193 110.243 430.531 110.785 430.717C114.319 432.008 118.129 432.332 121.828 431.655C125.527 430.978 128.98 429.325 131.837 426.864C132.202 426.563 132.496 426.184 132.698 425.755C132.899 425.325 133.002 424.856 133 424.381C132.698 413.512 130.674 343.038 127.499 333.68C124.451 324.661 79.6374 313.487 69.6 311.086C69.0202 310.943 68.4113 310.979 67.8516 311.187C67.292 311.396 66.8071 311.769 66.4596 312.257L49.9438 322.646Z" fill="#37474F"/>
<path d="M46.4245 227.676C65.5528 222.008 88.7456 226.93 92.5408 228.061C96.8748 229.356 102.298 234.534 108.143 246.186L114 257.849L102.286 261.348V305.761C91.8312 314.59 79.2626 320.58 65.7988 323.15L49.9855 325.961C49.6267 326.026 49.2581 326.01 48.9064 325.914C48.5547 325.818 48.2289 325.646 47.9528 325.409C47.6766 325.172 47.4571 324.877 47.3102 324.544C47.1634 324.212 47.0929 323.851 47.1039 323.489L48.9195 266.911L29.0065 267.949C29.0065 267.949 28.1397 233.088 46.4245 227.676Z" fill="#C5C3D2"/>
<path d="M86.1405 268.842L50.5982 278.597L49.2092 267L32.6929 267.746C32.6929 267.746 28.9694 296.407 38.7858 296.966C53.6564 297.899 92 279.098 92 279.098L86.1405 268.842Z" fill="#EDEDED"/>
<path d="M80.1118 179.335C81.1827 178.968 82.3322 178.901 83.4379 179.141C84.5435 179.382 85.5641 179.92 86.3909 180.7C90.3731 184.865 95.3479 192.168 93.6627 201.478C91.712 212.246 89.1842 218.977 83.2744 218.849C81.3699 218.849 80.5388 220.33 80.4811 222.139L80.1233 227.773C78.3804 237.619 64.1254 239.043 60.0509 229.78L59.3814 228.263C59.1301 227.715 59 227.118 59 226.513C59 225.909 59.1301 225.312 59.3814 224.763C61.1012 221.124 65.2796 214.929 60.6049 201.186C60.2817 200.253 58.8504 197.033 59.7623 194.77C59.973 194.336 60.2818 193.958 60.6638 193.667C61.0458 193.376 61.4903 193.18 61.9612 193.094C62.4321 193.009 62.9163 193.037 63.3745 193.176C63.8327 193.315 64.252 193.562 64.5986 193.895C64.9449 194.198 65.4181 194.245 66.2954 193.626C69.458 191.503 69.7004 183.582 80.1118 179.335Z" fill="#EDEDED"/>
<path d="M81.9083 178.894C81.9083 178.894 82.0703 182.512 88.0744 185.618C95.3974 189.422 90.8856 193.97 94.2868 199.356C97.85 205.021 94.7496 194.226 94.7496 194.226L93.7084 181.919C91.6376 173.927 88.6066 168.692 80.9828 170.286C76.8875 171.147 72.8847 172.694 70.814 175.451C65.2263 182.721 64 199.298 64 199.298C64 199.298 70.143 199.414 73.3822 191.655C77.0263 182.838 76.5983 181.43 81.9083 178.894Z" fill="#6667AB"/>
<path d="M116.94 244H103.06C101.922 244 101 244.943 101 246.107V276.893C101 278.057 101.922 279 103.06 279H116.94C118.078 279 119 278.057 119 276.893V246.107C119 244.943 118.078 244 116.94 244Z" fill="#1C004F"/>
<path d="M129.338 267.978C125.455 262.497 120.039 252.225 118.198 252.011C117.207 251.891 116.888 252.773 117.325 254.859C118.623 261.031 120.723 262.235 114.965 261.245L107.636 259.816C107.251 259.736 106.85 259.762 106.478 259.892C106.106 260.022 105.775 260.25 105.52 260.554C105.266 260.857 105.097 261.224 105.031 261.616C104.965 262.009 105.005 262.411 105.146 262.783C105.389 263.306 105.716 263.785 106.114 264.201C106.114 264.201 104.757 268.038 108.38 268.967C108.38 268.967 108.805 273.34 111.519 273.531C114.409 275.207 117.419 276.665 120.523 277.892C121.861 278.796 123.485 279.166 125.079 278.931C126.672 278.695 128.123 277.871 129.149 276.617L129.609 276.057C130.553 274.911 131.047 273.455 130.997 271.965C130.946 270.476 130.356 269.057 129.338 267.978Z" fill="#EDEDED"/>
<path d="M107 264C109.249 264.561 111.607 264.898 114 265" stroke="#A4A4A4" stroke-miterlimit="10" stroke-linecap="round"/>
<path d="M109 269C110.916 269.632 112.947 269.971 115 270" stroke="#A4A4A4" stroke-miterlimit="10" stroke-linecap="round"/>
<path d="M86 268.806L90.284 265.712C93.3837 259.582 99.0956 248.477 100.129 249.019C101.162 249.562 101.568 250.843 100.802 253.279C98.9563 259.109 99.8619 261.972 103.194 261.718C104.355 261.637 114.165 261.579 114.165 261.579C114.165 261.579 116.487 263.669 113.387 266.047C113.387 266.047 114.049 269.938 110.38 270.238C110.38 270.238 109.219 274.325 106.572 274.059C103.486 275.16 100.324 276.04 97.1104 276.691L91.828 279L86 268.806Z" fill="#EDEDED"/>
<path d="M113 266C110.69 266.418 108.333 266.5 106 266.246" stroke="#A4A4A4" stroke-miterlimit="10" stroke-linecap="round"/>
<path d="M110 271C108.021 271.391 105.991 271.427 104 271.105" stroke="#A4A4A4" stroke-miterlimit="10" stroke-linecap="round"/>
<path d="M100.037 249C101.205 249.596 101.486 250.846 100.715 253.31C98.8573 259.209 99.7684 262.106 103.121 261.849C104.289 261.768 114.16 261.709 114.16 261.709C114.16 261.709 116.496 263.824 113.377 266.23C113.377 266.23 114.043 270.166 110.352 270.47C110.352 270.47 109.184 274.605 106.52 274.337C103.415 275.451 100.233 276.341 97 277" stroke="#A4A4A4" stroke-miterlimit="10" stroke-linecap="round"/>
<path d="M112 273C113.427 273.645 118.641 276.104 121 277" stroke="#A4A4A4" stroke-miterlimit="10" stroke-linecap="round"/>
<path d="M169.769 430C169.769 430 165.565 433.324 153.719 431.547C153.719 431.547 152.886 438.792 149.657 442.574C146.428 446.357 155.786 450.931 162.795 448.81C169.804 446.69 175.04 451.733 181.979 450.908C188.918 450.082 198.909 442.723 195.199 440.534C191.489 438.345 178.316 438.414 175.04 433.393C174.442 432.509 173.667 431.752 172.761 431.169C171.855 430.585 170.837 430.188 169.769 430Z" fill="#57608E"/>
<path d="M179 448.679C185.142 450.637 192 443 192 443" stroke="white" stroke-miterlimit="10" stroke-linecap="round"/>
<path d="M153 444C153 444 155.518 446.753 161.292 446.151C167.27 445.668 173.293 446.297 179 448" stroke="white" stroke-miterlimit="10" stroke-linecap="round"/>
<path d="M130.331 435C130.331 435 123.732 439.632 112.021 437.188C112.021 437.188 112.185 444.136 108.751 447.783C105.316 451.431 114.377 456.549 121.493 454.8C128.608 453.052 133.531 458.425 140.494 457.973C147.457 457.521 157.855 450.667 154.268 448.235C150.681 445.803 136.263 444.194 133.274 438.972C132.557 437.475 131.559 436.127 130.331 435Z" fill="#57608E"/>
<path d="M137 455.566C143.354 457.746 151 451 151 451" stroke="white" stroke-miterlimit="10" stroke-linecap="round"/>
<path d="M111 450C111 450 113.364 453.216 119.273 452.94C125.325 452.736 131.355 453.777 137 456" stroke="white" stroke-miterlimit="10" stroke-linecap="round"/>
<path d="M129 348C128.418 341.101 127.766 335.926 127.067 333.821C125.321 328.563 109.811 322.592 95 318" stroke="white" stroke-miterlimit="10" stroke-linecap="round"/>
<path d="M129 384C128.451 373.458 127.789 362.359 127 353" stroke="white" stroke-miterlimit="10" stroke-linecap="round"/>
<path d="M117 430C121.736 429.777 126.253 427.959 129.803 424.847C130.182 424.549 130.487 424.169 130.694 423.735C130.902 423.302 131.006 422.828 131 422.348C130.904 418.795 130.617 408.987 130.174 397" stroke="white" stroke-miterlimit="10" stroke-linecap="round"/>
<path d="M112 333C112 333 112.396 342.615 124 346" stroke="white" stroke-miterlimit="10"/>
<path d="M151 325C152.969 331.056 157.285 336.091 163 339" stroke="white" stroke-miterlimit="10"/>
<path d="M154 421C159.744 420.964 165.335 419.217 170 416" stroke="white" stroke-miterlimit="10"/>
<path d="M57 230C57 230 59.0069 241.492 74 238.504" stroke="#FCFCFC" stroke-miterlimit="10" stroke-linecap="round"/>
<path d="M81.9996 231C81.9996 231 82.1228 234.348 78 237" stroke="#FCFCFC" stroke-miterlimit="10" stroke-linecap="round"/>
<path d="M32 266.105L44 266" stroke="#FCFCFC" stroke-miterlimit="10" stroke-linecap="round"/>
<path d="M49 267L50 259" stroke="#FCFCFC" stroke-miterlimit="10" stroke-linecap="round"/>
<path d="M68 318C62.7487 319.38 57.4011 320.383 52 321" stroke="#FCFCFC" stroke-miterlimit="10" stroke-linecap="round"/>
<path d="M98 304C98 304 90.7457 310.657 76 316" stroke="#FCFCFC" stroke-miterlimit="10" stroke-linecap="round"/>
<path d="M79 309C75.8093 310.159 72.4312 310.835 69 311" stroke="#FCFCFC" stroke-miterlimit="10" stroke-linecap="round"/>
<path d="M98 297C93.9854 300.442 89.629 303.458 85 306" stroke="#FCFCFC" stroke-miterlimit="10" stroke-linecap="round"/>
<path d="M70.764 327C70.764 327 74.9161 335.657 68 342" stroke="white" stroke-miterlimit="10"/>
</svg>
