<svg width="27" height="30" viewBox="0 0 27 30" fill="none" xmlns="http://www.w3.org/2000/svg">
<path d="M9.38363 19.38H8.69657V22.458H9.38363C9.72114 22.458 9.99235 22.344 10.1912 22.116C10.3901 21.888 10.4926 21.594 10.4926 21.24V20.598C10.4926 20.244 10.3901 19.956 10.1912 19.728C9.99235 19.494 9.72114 19.38 9.38363 19.38Z" fill="#313155"/>
<path d="M20.1055 16.794H0.5V24.828H17.1523L20.1055 16.794ZM6.74386 21.072C6.47867 21.312 6.11706 21.426 5.65299 21.426H4.74293V23.016H4.03778V18.816H5.65299C6.11706 18.816 6.4847 18.936 6.74386 19.176C7.00904 19.416 7.14163 19.728 7.14163 20.118C7.14163 20.52 7.00904 20.832 6.74386 21.072ZM11.1917 21.24C11.1917 21.768 11.0229 22.194 10.6915 22.524C10.354 22.854 9.92003 23.022 9.38363 23.022H7.99142V18.822H9.38363C9.92003 18.822 10.354 18.99 10.6915 19.32C11.029 19.65 11.1917 20.082 11.1917 20.604V21.24ZM14.844 19.38H12.8491V20.664H14.5487V21.228H12.8491V23.022H12.144V18.822H14.844V19.38Z" fill="#313155"/>
<path d="M5.65299 19.38H4.74293V20.862H5.65299C5.91215 20.862 6.11103 20.79 6.24363 20.652C6.37622 20.514 6.44251 20.34 6.44251 20.124C6.44251 19.908 6.37622 19.734 6.24363 19.59C6.11103 19.452 5.91215 19.38 5.65299 19.38Z" fill="#313155"/>
<path d="M19.3401 0H4.54404C4.10408 0 3.74247 0.36 3.74247 0.798V16.206H5.34562V1.596H19.3401V7.128H24.8968V28.404H5.34562V25.416H3.74247V29.202C3.74247 29.64 4.10408 30 4.54404 30H25.6984C26.1384 30 26.5 29.64 26.5 29.202V7.128L19.3401 0Z" fill="#313155"/>
<path d="M22.7573 9.924H7.48516V11.1H22.7573V9.924Z" fill="#313155"/>
<path d="M20.3405 12.21H7.48516V13.386H20.3405V12.21Z" fill="#313155"/>
</svg>
