<svg width="17" height="18" viewBox="0 0 17 18" fill="none" xmlns="http://www.w3.org/2000/svg">
<path d="M16.9235 14.0508L16.8389 13.7958C16.6385 13.2 15.9816 12.5786 15.3782 12.4149L13.1447 11.8047C12.5391 11.6399 11.6751 11.8615 11.2319 12.3047L10.4236 13.1132C7.48601 12.3192 5.18246 10.0152 4.38974 7.0776L5.1981 6.26909C5.64124 5.82587 5.86277 4.96288 5.698 4.3571L5.08898 2.12215C4.9242 1.51747 4.30182 0.86048 3.70729 0.662246L3.45234 0.57651C2.85668 0.378276 2.00717 0.578755 1.56407 1.02194L0.354936 2.2324C0.138925 2.44731 0.000867608 3.062 0.000867608 3.06425C-0.0414225 6.90384 1.46385 10.6031 4.17933 13.3191C6.88814 16.0284 10.5729 17.5318 14.4006 17.4995C14.4206 17.4995 15.053 17.3636 15.269 17.1487L16.4782 15.9393C16.9213 15.4962 17.1217 14.6465 16.9235 14.0508Z" fill="white"/>
</svg>
