<svg width="40" height="40" viewBox="0 0 40 40" fill="none" xmlns="http://www.w3.org/2000/svg">
<g clip-path="url(#clip0_2875_1241)">
<path d="M26.1787 12.02L26.1361 12.0129C25.6015 11.9251 25.0983 12.2955 25.0125 12.8391C24.9269 13.3824 25.2908 13.8937 25.8255 13.9809L25.8598 13.9865C25.9139 13.9956 25.9675 14 26.0205 14C26.4919 14 26.9077 13.6535 26.9868 13.1653C27.0749 12.6223 26.713 12.1095 26.1787 12.02Z" fill="#6667AB"/>
<path d="M39.2042 22.3044C38.2944 21.3982 36.8143 21.3982 35.9046 22.3044C35.5995 22.6083 35.5995 23.1011 35.9046 23.4051C36.2097 23.709 36.7044 23.709 37.0095 23.4051C37.31 23.1057 37.7989 23.1057 38.0994 23.4051C38.5512 23.855 38.5512 24.5872 38.0994 25.0373C37.789 25.3465 37.3763 25.5168 36.9372 25.5168C36.4982 25.5168 36.0854 25.3465 35.775 25.0373C35.7746 25.0368 35.774 25.0363 35.7735 25.0359C35.7789 24.8863 35.7825 24.7365 35.7825 24.586C35.7825 19.7676 32.9345 15.369 28.5269 13.3801C28.1339 13.2028 27.6709 13.3764 27.4929 13.7678C27.3148 14.1593 27.4891 14.6205 27.8821 14.7978C31.7322 16.5351 34.2199 20.3772 34.2199 24.586C34.2199 28.2556 32.3678 31.634 29.2656 33.6232C29.0422 33.7665 28.9072 34.0129 28.9072 34.2776V37.9766C28.9072 38.2341 28.697 38.4435 28.4385 38.4435H24.6884C24.4298 38.4435 24.2196 38.2341 24.2196 37.9766V36.4436C24.2196 35.8272 23.7161 35.3257 23.0974 35.3257H15.029C14.4101 35.3257 13.9067 35.8272 13.9067 36.4436V37.9766C13.9067 38.2341 13.6964 38.4435 13.4379 38.4435H9.68781C9.42928 38.4435 9.21904 38.2341 9.21904 37.9766V34.2776C9.21904 34.013 9.08404 33.7665 8.86067 33.6233C6.62521 32.1898 5.00477 30.0009 4.29795 27.4597C4.19365 27.0846 3.82715 26.8437 3.4398 26.8963C3.40042 26.9016 3.36206 26.9099 3.32487 26.9207H2.57578C2.01709 26.9207 1.56255 26.4679 1.56255 25.9114V23.2605C1.56255 22.7039 2.01709 22.2512 2.57578 22.2512H3.33479C3.36886 22.2607 3.40386 22.2678 3.43972 22.2727C3.82707 22.3256 4.19349 22.0846 4.29787 21.7095C5.51275 17.3451 9.37483 14.1962 13.9083 13.8738C14.3387 13.8432 14.6626 13.4708 14.6319 13.0421C14.6012 12.6134 14.2269 12.2914 13.797 12.3212C13.0517 12.3742 12.3228 12.4952 11.6159 12.6762C11.1639 10.578 9.28834 9 7.04897 9H6.75185C6.32035 9 5.97058 9.34842 5.97058 9.77824V15.8835C4.63335 17.2111 3.59324 18.8473 2.97556 20.6948H2.57578C1.15551 20.6948 0 21.8459 0 23.2606V25.9115C0 27.3263 1.15551 28.4773 2.57578 28.4773H2.97634C3.81817 30.9953 5.45666 33.1734 7.65649 34.6935V37.9766C7.65649 39.0923 8.56777 40 9.68781 40H13.4379C14.558 40 15.4692 39.0923 15.4692 37.9766V36.8821H22.657V37.9766C22.657 39.0923 23.5682 40 24.6883 40H28.4384C29.5584 40 30.4697 39.0923 30.4697 37.9766V34.6934C33.1937 32.8125 35.0117 29.9679 35.5864 26.7774C36.0042 26.9709 36.4626 27.0732 36.9371 27.0732C37.7935 27.0732 38.5986 26.741 39.2043 26.1378C40.2653 25.0809 40.2653 23.3613 39.2042 22.3044ZM7.53313 10.5941C8.85793 10.8014 9.90703 11.8453 10.1182 13.1639C9.19935 13.5294 8.3319 14.002 7.53313 14.5685V10.5941Z" fill="#6667AB"/>
<path d="M9.707 19.293C9.521 19.106 9.263 19 9 19C8.736 19 8.479 19.106 8.293 19.293C8.107 19.479 8 19.736 8 20C8 20.263 8.107 20.521 8.293 20.707C8.479 20.893 8.737 21 9 21C9.263 21 9.521 20.893 9.707 20.707C9.893 20.52 10 20.263 10 20C10 19.737 9.893 19.479 9.707 19.293Z" fill="#6667AB"/>
<path d="M23.2513 17H14.7487C14.3352 17 14 17.4477 14 18C14 18.5523 14.3352 19 14.7487 19H23.2513C23.6648 19 24 18.5523 24 18C24 17.4477 23.6648 17 23.2513 17Z" fill="#6667AB"/>
<path d="M19 7C16.7944 7 15 8.79441 15 11C15 13.2056 16.7944 15 19 15C21.2056 15 23 13.2056 23 11C23 8.79441 21.2056 7 19 7ZM19 13.4906C17.6267 13.4906 16.5094 12.3733 16.5094 11C16.5094 9.62672 17.6267 8.50943 19 8.50943C20.3733 8.50943 21.4906 9.62672 21.4906 11C21.4906 12.3733 20.3733 13.4906 19 13.4906Z" fill="#6667AB"/>
<path d="M20 0C19.4477 0 19 0.354535 19 0.791904V4.2081C19 4.64546 19.4478 5 20 5C20.5523 5 21 4.64546 21 4.2081V0.791904C21 0.354535 20.5523 0 20 0Z" fill="#6667AB"/>
<path d="M26.7472 3.25283C26.4101 2.91572 25.8634 2.91572 25.5262 3.25283L23.2528 5.52624C22.9157 5.86334 22.9157 6.40996 23.2528 6.74715C23.4214 6.91575 23.6424 7 23.8633 7C24.0842 7 24.3052 6.91575 24.4738 6.74715L26.7472 4.47374C27.0843 4.13664 27.0843 3.59002 26.7472 3.25283Z" fill="#6667AB"/>
<path d="M15.7472 5.52623L13.4738 3.25283C13.1366 2.91572 12.59 2.91572 12.2528 3.25283C11.9157 3.58993 11.9157 4.13655 12.2528 4.47374L14.5263 6.74715C14.6949 6.91575 14.9158 7 15.1368 7C15.3577 7 15.5787 6.91575 15.7472 6.74715C16.0843 6.41005 16.0843 5.86343 15.7472 5.52623Z" fill="#6667AB"/>
<path d="M13.27 24H10.73C10.3268 24 10 24.3733 10 24.8338C10 25.2943 10.3268 25.6676 10.73 25.6676H11.27V30.1662C11.27 30.6267 11.5968 31 12 31C12.4032 31 12.73 30.6267 12.73 30.1662V25.6676H13.27C13.6732 25.6676 14 25.2943 14 24.8338C14 24.3733 13.6732 24 13.27 24Z" fill="#6667AB"/>
<path d="M20.9365 29.8387L18.7596 24.516C18.6319 24.2035 18.3322 24 18 24C17.6678 24 17.3681 24.2035 17.2404 24.516L15.0635 29.8387C14.8887 30.2661 15.0871 30.7571 15.5067 30.9352C15.9262 31.1135 16.4081 30.9112 16.5829 30.4837L16.7089 30.1758H19.2911L19.4171 30.4837C19.5488 30.8058 19.8547 31 20.1771 30.9999C20.2826 30.9999 20.3898 30.9791 20.4933 30.9352C20.9129 30.7571 21.1113 30.2661 20.9365 29.8387ZM17.3948 28.4987L18 27.0187L18.6052 28.4987H17.3948Z" fill="#6667AB"/>
<path d="M26.4679 27.5L27.8687 25.2877C28.113 24.9019 28.0065 24.3858 27.6308 24.1349C27.2551 23.8839 26.7525 23.9934 26.5082 24.3792L25.5 25.9715L24.4918 24.3792C24.2474 23.9934 23.7449 23.8839 23.3692 24.1349C22.9935 24.3858 22.887 24.9019 23.1313 25.2877L24.5321 27.5L23.1313 29.7123C22.887 30.0981 22.9935 30.6143 23.3692 30.8652C23.5058 30.9564 23.6592 31 23.8107 31C24.0762 31 24.3363 30.8664 24.4918 30.6209L25.5 29.0286L26.5082 30.6209C26.6638 30.8665 26.9239 31 27.1893 31C27.3409 31 27.4943 30.9564 27.6308 30.8652C28.0065 30.6143 28.113 30.0981 27.8687 29.7123L26.4679 27.5Z" fill="#6667AB"/>
</g>
<defs>
<clipPath id="clip0_2875_1241">
<rect width="40" height="40" fill="white"/>
</clipPath>
</defs>
</svg>
