<svg width="471" height="339" viewBox="0 0 471 339" fill="none" xmlns="http://www.w3.org/2000/svg">
<g clip-path="url(#clip0_2338_3239)">
<path d="M450.678 338C420.968 338 19.294 337.134 19.294 337.086C19.1296 336.685 -31.6961 274.425 32.3037 209.319C64.0149 177.051 3.1828 135.264 32.3037 99.3811C82.1851 37.9125 131.545 72.5249 172.659 55.2428C179.925 52.1924 187.215 47.2801 194.513 39.7424C198.577 35.5563 203.081 31.8196 207.945 28.5971C208.686 28.104 209.432 27.6237 210.185 27.1561C213.077 25.368 216.068 23.7454 219.145 22.2959C221.215 21.3192 223.325 20.4166 225.474 19.5882C228.907 18.2664 232.407 17.1291 235.961 16.1811C241.1 14.8101 246.324 13.7856 251.6 13.1147C253.925 12.8114 256.27 12.5722 258.633 12.3972C304.577 8.94397 356.27 28.3646 382.961 56.7499C388.332 62.4659 412.76 92.0397 393.505 132.691C381.347 158.356 432.277 182.868 450.377 212.175C496.391 286.681 451.095 337.024 450.678 338Z" fill="#DEDCEB"/>
<g opacity="0.8">
<path d="M346.466 165.493C345.261 168.814 343.759 172.02 341.979 175.071C335.06 186.879 324.222 195.888 311.349 200.531C298.475 205.173 284.382 205.156 271.521 200.482C249.084 192.323 234.675 171.866 233.139 149.48C232.932 146.508 232.956 143.525 233.213 140.557C234.021 131.219 237.044 122.209 242.033 114.275L242.107 114.156C249.804 102.06 261.665 93.2028 275.448 89.2578C276.875 88.8562 278.325 88.4928 279.783 88.1956C290.361 86.0173 301.338 86.8266 311.483 90.5328C312.88 91.0428 314.246 91.5984 315.581 92.1994C325.096 96.4801 333.284 103.242 339.286 111.777C343.786 118.159 346.966 125.375 348.64 133.003C348.999 134.64 349.289 136.292 349.51 137.96C350.722 147.249 349.678 156.693 346.464 165.491L346.466 165.493Z" fill="#9494C4"/>
<path d="M281.984 113.604C278.507 116.249 279.429 123.326 273.411 119.338C267.393 115.35 263.612 113.187 261.909 116.66C260.206 120.132 265.545 122.049 264.131 125.84C262.717 129.632 259.871 130.035 256.859 126.92C253.847 123.805 253.758 120.807 248.882 120.906C244.006 121.005 241.923 119.035 242.16 115.439C242.202 114.878 242.148 114.314 242 113.771L242.075 113.654C249.819 101.701 261.752 92.948 275.619 89.0496C277.055 88.6528 278.513 88.2937 279.98 88C281.681 88.6766 283.505 90.0556 284.472 92.8176C286.595 98.8952 290.038 97.4646 287.115 102.556C284.192 107.647 285.392 108.905 288.585 109.83C291.779 110.755 295.453 112.08 294.954 114.56C294.455 117.041 285.462 110.959 281.984 113.604Z" fill="white"/>
<path d="M346.63 165.371C345.414 168.705 343.897 171.924 342.099 174.988C337.933 182.079 332.31 188.217 325.598 193C323.972 192.971 322.412 192.359 321.204 191.276C315.288 186.02 323.128 180.438 327.256 177.72C331.384 175.002 323.718 174.105 319.854 168.81C315.99 163.516 325.038 156.346 319.223 155.959C313.409 155.571 306.337 155.196 305.153 149C303.969 142.804 310.086 144.083 309.005 138.862C307.924 133.642 312.995 132.668 318.406 134.156C323.818 135.644 324.489 131.678 331.191 133.479C337.894 135.279 334.741 143.492 342.14 145.542C349.538 147.593 348.611 149.129 348.611 149.129C349.134 149.305 349.61 149.598 350 149.986C349.576 155.242 348.443 160.416 346.63 165.371Z" fill="white"/>
<path d="M350 137.956C343.017 138.693 343.489 129.882 337.559 130.404C331.583 130.93 334.143 126.637 331.181 122.199C328.219 117.761 318.242 120.167 320.27 115.677C322.297 111.186 327.87 114.7 330.48 111.474C333.09 108.249 338.612 111.322 338.612 111.322C339.002 111.317 339.39 111.366 339.766 111.468C344.269 117.924 347.452 125.224 349.128 132.939C349.49 134.597 349.78 136.269 350 137.956Z" fill="white"/>
<path d="M305.766 104.242C305.766 104.242 310.594 100.885 306.055 97.7642C301.515 94.6437 300.967 96.409 297.209 94.6035C293.451 92.7979 290.812 95.2207 292.543 99.5194C294.273 103.818 294.343 110.9 298.226 108.525C302.108 106.15 302.528 103.448 305.766 104.242Z" fill="white"/>
</g>
<path d="M33.022 338H53.6697C54.7773 337.058 52.9035 334.918 50.9485 334.775C50.099 334.71 49.024 334.89 47.7965 335.149C47.512 331.361 45.8902 314.344 39.7752 315.02C32.9001 315.786 39.7752 322.517 41.718 326.503C43.1589 329.456 44.677 333.688 45.3761 335.681C44.8172 335.803 44.2401 335.922 43.6487 336.03C42.7382 333.223 39.3464 323.776 35.0339 324.326C29.9716 324.971 32.0079 328.758 35.5948 331.006C38.2368 332.66 41.462 335.01 42.9983 336.144C41.6652 336.377 40.3134 336.486 38.9603 336.47C35.418 336.391 33.6927 337.437 33.022 338Z" fill="#A3A2CC"/>
<path d="M357.065 338H338.3C337.294 337.14 338.996 335.193 340.774 335.055C341.546 334.997 342.522 335.159 343.638 335.398C343.896 331.939 345.37 316.393 350.928 317.018C357.178 317.718 350.928 323.863 349.162 327.504C347.854 330.199 346.473 334.064 345.841 335.889C346.35 335.999 346.875 336.107 347.41 336.208C348.239 333.643 351.322 325.018 355.242 325.521C359.843 326.109 357.994 329.567 354.732 331.62C352.346 333.13 349.401 335.275 348.005 336.312C349.216 336.524 350.444 336.623 351.674 336.609C354.89 336.53 356.459 337.487 357.065 338Z" fill="#A3A2CC"/>
<path d="M370.963 213.478C370.963 213.478 371.444 208.846 368.942 209.004C366.44 209.162 365.781 210.275 366.059 211.164C366.338 212.054 368.771 215 368.771 215L370.963 213.478Z" fill="#F0F0F0"/>
<path d="M406 222.878C406 222.878 403.428 225.985 397.901 229.567C397.378 229.909 396.829 230.25 396.253 230.589C393.818 232.043 391.288 233.324 388.681 234.421C388.361 234.555 387.986 234.705 387.562 234.86C384.251 236.086 378.156 237.833 374.379 237.991C374.05 238.003 373.739 238.003 373.449 237.991C367.7 237.752 367 214.81 367 214.81C367 214.81 367.64 212.515 370.593 213.093C370.593 213.093 375.077 226.05 376.685 227.104C378.114 228.045 386.318 215.252 393.38 214.358C398.138 213.766 406 222.878 406 222.878Z" fill="#56567B"/>
<path d="M390.914 331.816C390.914 331.816 391.339 336.512 390.301 337L377 336.975C377 336.975 377 335.508 379.135 335.183C381.27 334.858 385.024 333.663 385.661 331.003C386.298 328.343 390.914 331.816 390.914 331.816Z" fill="#37474F"/>
<path d="M381.041 272.471C381.107 275.699 381.26 279.028 381.564 282.021C383.004 296.223 383.511 313.39 383.718 316.69C384.077 322.433 385.208 331.608 385.208 331.608C385.208 331.608 387.457 333.743 391.836 332.725C391.836 332.725 395.464 319.51 396.274 305.598L396.31 304.91C396.404 303.07 396.51 300.966 396.604 298.698C397.272 283.514 398 260.936 398 260.936L381.264 257C381.264 257 380.875 264.423 381.041 272.471Z" fill="#8686B4"/>
<path d="M381.041 272.582C385.283 279.964 393.367 293.562 396.603 299C397.272 283.705 398 260.965 398 260.965L381.263 257C381.263 257 380.876 264.476 381.041 272.582Z" fill="#7B7BA5"/>
<path d="M388.423 234.817C385.051 236.064 378.845 237.84 375 238C375.587 237.886 379.869 237.015 381.453 235.052C383.153 232.944 386.019 227.212 388.295 229.551C389.368 230.648 389.054 232.823 388.423 234.817Z" fill="#4B4B6E"/>
<path d="M417.042 270.243C417.042 270.243 418.165 274.293 417.979 275.201C417.794 276.11 416.702 279.151 416.019 279.906C415.336 280.662 415.308 276.62 414.853 275.985C414.398 275.35 414.637 277.494 414.28 277.669C413.922 277.843 413.31 276.044 413.039 275.406C412.767 274.767 414.01 272.548 414.116 270.955C414.222 269.362 417.042 270.243 417.042 270.243Z" fill="#F0F0F0"/>
<path d="M424.949 327.018C424.949 327.018 427.419 329.168 426.938 330.697C426.456 332.227 424.226 333.245 423.925 335.113C423.624 336.982 422.42 338 421.334 338H416.164C416.164 338 415.365 336.686 417.294 336.29C419.222 335.894 419.949 333.697 419.829 331.66C419.708 329.624 420.009 326.905 420.009 326.905L424.106 326L424.949 327.018Z" fill="#37474F"/>
<path d="M384 261.078C384 261.078 399.606 294.535 407.911 309.22C416.216 323.906 418.811 328 418.811 328C418.811 328 423.569 326.122 424 324.842C424 324.842 420.82 296.497 415.256 289.592C412.112 285.687 408.422 273.971 408.249 269.877C408.076 265.782 404.429 256 404.429 256L384 261.078Z" fill="#8686B4"/>
<path d="M381.024 259.144C381.024 259.144 386.13 264.669 394.802 266.337C398.61 267.069 406.34 267.776 408.257 265.052C408.707 264.412 408.711 263.464 408.611 261.985C408.353 258.141 407.391 250.708 411.734 235.771C412.118 234.465 412.398 233.13 412.568 231.778C413.517 224.139 413.415 218.369 406.819 215.288C396.937 210.671 392.881 214.469 392.881 214.469C392.881 214.469 387.626 216.938 385.225 224.132C380.425 238.525 381.024 259.144 381.024 259.144Z" fill="#56567B"/>
<path d="M401.792 213.756C400.681 214.477 399.39 214.901 398.053 214.985C396.715 215.068 395.378 214.809 394.179 214.234C393.956 214.127 393.983 212.669 394.039 211.236C394.094 209.804 394.232 208.452 394.232 208.452L397.856 206.171L401.312 204C400.907 211.475 402.565 213.226 401.792 213.756Z" fill="#F0F0F0"/>
<path d="M400 206.914C400 206.914 397.883 210.251 394 211C394.05 209.615 394.185 208.082 394.185 208.082L397.43 206L400 206.914Z" fill="#C0C0C0"/>
<path d="M390.945 208.03C390.945 208.03 399.763 211.262 401.725 205.926C403.688 200.59 406.147 197.415 400.599 195.126C395.052 192.837 393.205 194.487 392.102 196.112C390.999 197.736 388.709 207.056 390.945 208.03Z" fill="#F0F0F0"/>
<path d="M406.304 196.034C406.4 195.96 406.593 195.923 407 195.981C406.797 195.806 406.554 195.683 406.292 195.622C406.318 195.049 406.216 194.005 405.305 193.578C405.442 193.699 405.551 193.85 405.622 194.019C405.693 194.188 405.725 194.37 405.715 194.553C404.83 193.188 402.612 191.896 395.911 191.116C387.083 190.088 388.849 196.205 389.85 197.089C390.851 197.973 394.038 196.717 396.107 197.296C398.176 197.875 397.972 200.977 398.602 201.533C399.232 202.089 399.097 201.299 400.145 201.055C401.193 200.811 400.97 202.42 400.487 203.396C400.004 204.371 401.056 206 401.056 206L402.677 204.83C404.298 203.659 406.761 197.823 406.409 196.406C406.372 196.287 406.335 196.161 406.304 196.034Z" fill="#42436F"/>
<path d="M409.141 262C408.89 258.217 407.951 250.901 412.186 236.201C412.561 234.916 412.833 233.602 413 232.272C409.853 231.219 404.119 233.562 404.119 233.562C404.119 233.562 402.772 252.994 409.141 262Z" fill="#4B4B6E"/>
<path d="M409.281 216C409.281 216 413.282 217.456 415.837 228.057C417.524 235.062 420.627 245.357 420.978 248.597C421.328 251.837 417.429 270.775 417.429 270.775C417.429 270.775 416.877 271.178 415.531 270.906C414.785 270.771 414.113 270.369 413.641 269.776C413.641 269.776 412.707 257.15 412.948 251.189C413.049 248.712 401.488 233.051 395.248 231.033C392.799 230.237 409.281 216 409.281 216Z" fill="#56567B"/>
<path d="M353 202.889C353 202.889 364.634 202.562 378.061 205L379.462 201.514L381 197.694C381 197.694 367.522 191.971 359.421 184L353 202.889Z" fill="#8686B4"/>
<path d="M360 184.124L353.28 204C353.047 203.931 352.831 203.815 352.644 203.659C352.458 203.503 352.305 203.311 352.195 203.094C352.085 202.877 352.02 202.64 352.004 202.398C351.988 202.155 352.022 201.911 352.103 201.682L358.008 184.983C358.076 184.792 358.183 184.617 358.321 184.468C358.46 184.32 358.627 184.202 358.814 184.121C359 184.041 359.2 183.999 359.403 184C359.606 184.001 359.806 184.043 359.992 184.124H360Z" fill="#56567B"/>
<path d="M365.903 216.955C366.519 217.077 367.159 216.95 367.682 216.603C368.204 216.256 368.568 215.717 368.692 215.103L370.954 203.822C371.077 203.209 370.95 202.571 370.602 202.051C370.253 201.53 369.712 201.168 369.096 201.044C368.48 200.924 367.841 201.051 367.319 201.398C366.797 201.745 366.433 202.283 366.308 202.896L364.045 214.177C363.923 214.79 364.051 215.427 364.399 215.947C364.747 216.468 365.288 216.83 365.903 216.955Z" fill="#56567B"/>
<path d="M353 203.056C353 203.056 364.431 202.755 377.624 205L379 201.789C366.605 199.45 353 203.056 353 203.056Z" fill="#7B7BA5"/>
<path d="M374 204.328L377.4 204.94C377.347 204.94 380.55 205.58 381.6 202.668C381.695 202.469 381.763 202.258 381.8 202.04C382.616 198.412 380.667 197.744 380.667 197.744L376.3 196L374.914 201.037V201.054L374 204.328Z" fill="#56567B"/>
<path d="M374 204.323L377.579 204.94C377.523 204.94 380.895 205.585 382 202.649C379.98 201.205 374.97 201 374.97 201V201.018L374 204.323Z" fill="#4B4B6E"/>
<path d="M366.545 206.101C366.545 206.101 368.279 206.805 367.961 207.584C367.643 208.363 365.437 209.431 365.089 208.818C364.741 208.204 365.452 205.443 366.545 206.101Z" fill="#F0F0F0"/>
<path d="M370.571 213C370.749 212.164 370.877 211.32 370.954 210.471C370.976 209.675 371.082 209.025 370.871 209.002C370.66 208.979 370.505 209.128 370.418 209.388C370.331 209.648 370 211.231 370 211.231L370.168 212.761L370.571 213Z" fill="#F0F0F0"/>
<path d="M196.006 211.117L186.082 329.784C186.082 329.784 185.043 336.978 190.363 336.99C199.11 337.012 233.906 336.99 233.906 336.99C233.906 336.99 227.326 335.492 227.4 332.124C227.495 328.154 239 210 239 210L196.006 211.117Z" fill="#C7C7F1"/>
<path d="M237.283 334.983C235.564 334.983 201.899 335.045 193.386 334.934C189.676 334.888 189.024 331.618 189.002 329.499C188.99 328.908 189.028 328.318 189.114 327.733L189.373 324.651L190.03 316.794L190.61 309.852L191.355 300.931L191.985 293.403L199.031 209.122L242 208C242 208 237.15 257.426 233.734 293.413C233.352 297.422 232.987 301.264 232.652 304.853C232.543 305.998 232.438 307.117 232.335 308.208C232.019 311.615 231.738 314.738 231.475 317.498C231.341 318.953 231.219 320.304 231.108 321.542C230.671 326.395 230.414 329.493 230.41 330.082C230.408 330.404 230.436 330.726 230.494 331.042C231.19 334.812 236.638 334.983 237.283 334.983Z" fill="#9494C4"/>
<path d="M91 147L115.278 244.334L118.603 257.665L129.912 303H340L298.319 147H91Z" fill="#9494C4"/>
<path d="M91.3443 147L88 148.124L125.555 307L130 303.601L91.3443 147Z" fill="#C7C7F1"/>
<path d="M126 307H335.223L341 304H130.483L126 307Z" fill="#BDBDEF"/>
<path d="M199 338H244V336H199V338Z" fill="#BDBDEF"/>
<path d="M233 307L232.766 308.607L190 317L190.586 310.222L190.866 307H233Z" fill="#8E8EBD"/>
<path opacity="0.4" d="M238 334.983C236.255 334.983 202.089 335.043 193.449 334.937C189.684 334.892 189.022 331.735 189 329.69L231.731 322C231.288 326.684 231.027 329.675 231.023 330.243C231.02 330.554 231.048 330.864 231.108 331.17C231.816 334.819 237.345 334.983 238 334.983Z" fill="#8686B3"/>
<path d="M91 147H298.355L332 273H122.279L91 147Z" fill="#ABABE0"/>
<path d="M323 268H128.528L121.58 240.233L118.892 229.489L117.794 225.108L110.652 196.572L110.282 195.085L106.507 180.002L104.817 173.253L103.377 167.495L100 154H291.667L295.377 167.495L296.958 173.253L298.814 180.002L311.034 224.464V224.466L312.069 228.233L312.551 229.982L320.988 260.679L323 268Z" fill="#F4F4F4"/>
<path d="M295 167H103.37L100 154H291.297L295 167Z" fill="#9494C4"/>
<path d="M108.045 159.499C107.845 158.671 108.334 158 109.138 158C109.555 158.021 109.955 158.177 110.282 158.446C110.608 158.715 110.843 159.084 110.955 159.499C111.156 160.327 110.667 161 109.863 161C109.446 160.978 109.045 160.822 108.719 160.552C108.392 160.283 108.156 159.915 108.045 159.499Z" fill="#E9F3FE"/>
<path d="M113.045 159.499C112.845 158.671 113.334 158 114.138 158C114.556 158.021 114.956 158.177 115.282 158.446C115.608 158.715 115.844 159.084 115.955 159.499C116.155 160.327 115.667 161 114.864 161C114.446 160.978 114.045 160.822 113.719 160.552C113.392 160.283 113.156 159.915 113.045 159.499Z" fill="#E9F3FE"/>
<path d="M119.045 159.499C118.844 158.671 119.333 158 120.137 158C120.554 158.021 120.955 158.177 121.281 158.446C121.608 158.716 121.844 159.084 121.955 159.499C122.155 160.327 121.666 161 120.862 161C120.445 160.979 120.044 160.822 119.718 160.553C119.392 160.283 119.156 159.914 119.045 159.499Z" fill="#E9F3FE"/>
<path d="M253.303 75.4853C261.117 66.2769 273.166 47.7802 281.278 38.3076C281.652 37.8711 281.892 37.3361 281.971 36.7664C282.05 36.1966 281.965 35.616 281.725 35.0937C281.485 34.5714 281.1 34.1292 280.617 33.82C280.133 33.5107 279.572 33.3472 278.999 33.3491H264.239L278.163 1.75048C278.761 0.40126 276.926 -0.673715 276.047 0.507354L242.371 45.7343C242.152 46.0279 242.024 46.3796 242.003 46.7455C241.982 47.1114 242.069 47.4755 242.252 47.7925C242.435 48.1094 242.708 48.3653 243.035 48.5282C243.362 48.6912 243.729 48.7541 244.092 48.709L260.802 46.6431L250.859 74.0539C250.319 75.5633 252.266 76.7064 253.303 75.4853Z" fill="#37474F"/>
<path d="M183.259 132.116C185.006 123.076 186.108 106.281 187.956 96.9531C188.041 96.5232 188.002 96.0778 187.843 95.6697C187.684 95.2617 187.413 94.9082 187.061 94.6514C186.708 94.3945 186.291 94.2452 185.857 94.221C185.423 94.1968 184.991 94.2989 184.613 94.515L174.859 100.053L172.345 73.8522C172.236 72.7341 170.629 72.7081 170.485 73.8222L165.012 116.462C164.976 116.739 165.022 117.02 165.143 117.271C165.265 117.522 165.457 117.732 165.695 117.873C165.934 118.015 166.209 118.083 166.485 118.069C166.762 118.054 167.028 117.958 167.251 117.792L177.52 110.152L181.111 132.073C181.317 133.287 183.027 133.317 183.259 132.116Z" fill="#9494C4"/>
<path d="M331.475 269.697L162.368 283.937C149.527 285.018 140.235 271.943 145.502 260.189L217.137 100.008C222.579 87.8614 239.28 86.4574 246.673 97.523L344.135 243.462C351.281 254.17 344.315 268.615 331.475 269.697Z" fill="#E6EFFF"/>
<path d="M330.688 276.664L162.212 290.917C158.182 291.259 154.132 290.539 150.464 288.829C146.795 287.12 143.634 284.48 141.293 281.17C138.951 277.86 137.511 273.994 137.113 269.955C136.715 265.915 137.374 261.841 139.024 258.135L210.401 97.8235C213.907 89.9461 221.117 84.809 229.684 84.0863C238.252 83.3636 246.215 87.2139 250.986 94.3907L348.091 240.443C350.335 243.82 351.663 247.727 351.944 251.776C352.225 255.826 351.448 259.879 349.691 263.536C347.933 267.192 345.257 270.325 341.924 272.626C338.592 274.927 334.719 276.316 330.688 276.656V276.664ZM230.766 96.8679C228.897 97.0118 227.102 97.6631 225.573 98.7523C224.044 99.8414 222.839 101.327 222.087 103.051L150.708 263.365C149.966 265.033 149.67 266.866 149.849 268.685C150.028 270.503 150.677 272.242 151.731 273.732C152.785 275.222 154.207 276.41 155.858 277.179C157.509 277.949 159.332 278.273 161.146 278.12L329.622 263.867C331.436 263.713 333.178 263.087 334.678 262.051C336.177 261.015 337.382 259.605 338.172 257.959C338.963 256.313 339.313 254.489 339.186 252.667C339.06 250.844 338.463 249.086 337.453 247.566L240.354 101.507C239.325 99.9344 237.889 98.6719 236.201 97.8547C234.512 97.0375 232.633 96.6964 230.766 96.8679Z" fill="#37474F"/>
<path d="M227.559 246.216C227.367 244.144 227.588 242.053 228.209 240.069C228.803 238.191 229.776 236.459 231.066 234.983C232.411 233.467 234.043 232.241 235.864 231.378C237.772 230.452 239.962 229.882 242.435 229.668C244.72 229.441 247.026 229.634 249.243 230.236C251.2 230.768 253.029 231.699 254.618 232.971C256.135 234.208 257.38 235.751 258.276 237.503C259.216 239.353 259.778 241.376 259.932 243.451C260.126 245.507 259.904 247.582 259.278 249.548C258.674 251.408 257.7 253.122 256.417 254.586C255.06 256.114 253.41 257.345 251.567 258.203C249.48 259.172 247.239 259.753 244.949 259.917C242.475 260.128 240.221 259.937 238.188 259.346C236.25 258.805 234.439 257.873 232.865 256.605C231.356 255.382 230.112 253.857 229.211 252.124C228.268 250.29 227.706 248.279 227.559 246.216ZM253.385 215.591L229.332 217.645L219 134.637L249.868 132L253.385 215.591Z" fill="#37474F"/>
<path d="M123 219.462C123 219.462 123.557 218.331 123.918 217.797C124.279 217.262 125.818 215.703 126.083 216.05C126.349 216.396 127.396 218.794 126.839 219.462C126.282 220.129 126.875 221.296 124.095 222L123 219.462Z" fill="#F0F0F0"/>
<path d="M93 213C93 213 106.628 224.392 111.943 223.343C116.1 222.518 122.669 220.431 122.669 220.431C122.669 220.431 124.403 222.084 123.913 224.063C123.913 224.063 115.543 231.948 109.58 231.999C100.262 232.078 95.8622 227.375 95.8622 227.375L93 213Z" fill="#2B3940"/>
<path d="M70 330.921C70 330.921 70.4134 336.896 71.6641 336.989C71.8315 337 78.0558 337 78.0558 337L86 336.958C86 336.958 85.9483 335.2 83.6269 334.831C81.3054 334.461 77.4253 332.961 76.0093 330.145C74.5292 327.175 70 330.921 70 330.921Z" fill="#37474F"/>
<path d="M69.0001 332.214C69.0001 332.214 71.3309 333 73.1493 333C74.4584 332.983 75.7598 332.796 77.0214 332.443C77.0214 332.443 77.46 328.167 79.8746 318.743C81.1387 313.803 82.9471 307.451 85.5172 299.56C92.6253 277.749 94.7867 264.99 94.9841 263.782C94.996 263.719 95 263.687 95 263.687L94.9761 263.677L73.1234 254C73.1234 254 75.8231 284.06 72.3777 295.599C71.8548 297.415 71.4374 299.261 71.1275 301.126C68.9502 313.658 69.0001 332.214 69.0001 332.214Z" fill="#8686B4"/>
<path d="M80.6366 319C81.9219 314.04 83.7607 307.664 86.374 299.741C93.6016 277.843 95.7993 265.034 96 263.82C96 263.784 96 263.75 96 263.715L73.78 254C73.78 254 76.525 284.18 73.0217 295.764C72.5271 297.383 80.6366 319 80.6366 319Z" fill="#7B7BA5"/>
<path d="M87 330.921C87 330.921 87.4134 336.896 88.6641 336.989C88.8315 337 95.0558 337 95.0558 337L103 336.958C103 336.958 102.948 335.2 100.625 334.831C98.3013 334.461 94.4232 332.961 93.0093 330.145C91.5292 327.175 87 330.921 87 330.921Z" fill="#37474F"/>
<path d="M98.9941 254C98.9941 254 99.2743 273.399 95.968 297.216C92.6617 321.032 93.7822 331.143 93.7822 331.143C93.7822 331.143 91.5096 331.89 90.5923 331.966C88.2566 332.166 85.8577 331.412 85.8577 331.412C85.8577 331.412 81.1232 307.585 82.4824 295.664C83.8416 283.743 76 254.757 76 254.757L98.9941 254Z" fill="#8686B4"/>
<path d="M84 208.287L88.2365 211L92.0966 209.932C92.8017 208.948 92.9898 207.048 92.9997 205.405C93.0042 204.398 92.9539 203.391 92.8492 202.39L87.1313 199.921L84.9982 199C84.9982 199.033 85.1646 200.715 85.1963 200.959C85.5845 205.324 84 208.287 84 208.287Z" fill="#F0F0F0"/>
<path d="M98.9123 259.583C93.607 264.747 73.5296 263.879 72.2904 258.189C71.0513 252.498 73.6411 209.749 82.7037 207.064C84.5843 206.507 94.637 209.783 94.637 209.783C95.7458 212.864 96.6196 216.026 97.2508 219.242C97.45 220.274 98.0377 231.197 98.476 241.417C98.6752 246.197 98.8525 250.823 98.9421 254.212C99.0218 257.385 99.0258 259.47 98.9123 259.583Z" fill="#37474F"/>
<path d="M85.1725 201.222C86.4025 203.321 90.7139 205.158 92.9997 206C93.0044 204.898 92.9512 203.797 92.8402 202.702L86.7804 200.001C85.4412 199.982 84.6247 200.285 85.1725 201.222Z" fill="#CBCBCB"/>
<path d="M94.8458 202.278C94.8458 202.278 85.6334 205.174 83.932 199.366C82.2305 193.559 79.8972 190.02 85.7146 187.925C91.5321 185.829 93.3207 187.705 94.3566 189.505C95.3925 191.305 97.199 201.376 94.8458 202.278Z" fill="#F0F0F0"/>
<path d="M94.1267 189.053C94.1267 189.053 93.5276 195.727 92.1298 195.438C90.732 195.148 89.1924 194.529 89.3961 196.542C89.5998 198.554 88.0422 202 86.0254 202C81.7002 201.982 77.0016 191.026 78.1857 188.95C81.6023 182.95 99.0649 181.739 94.1267 189.053Z" fill="#404750"/>
<path d="M92.5239 207.636C92.4037 207.59 85.5863 204.771 84.789 205.015C83.9917 205.259 83 207.499 83 207.499L95 210C95 210 94.0564 208.23 92.5239 207.636Z" fill="#2B3940"/>
<path d="M135.185 240.616L96.6059 276.288C95.8493 276.987 94.8966 277.21 94.488 276.783L93.1853 275.424C92.7807 274.997 93.0599 274.078 93.8164 273.378L132.396 237.712C133.152 237.013 134.105 236.79 134.514 237.217L135.817 238.574C136.217 239.001 135.942 239.922 135.185 240.616Z" fill="#37474F"/>
<path d="M113 260.869L96.5119 276.298C95.7751 276.988 94.8472 277.207 94.4492 276.786L93.1805 275.447C92.7864 275.026 93.0583 274.119 93.7951 273.43L110.283 258L113 260.869Z" fill="#9494C4"/>
<path d="M126.304 226.751C127.637 231.122 129.951 235.13 133.069 238.471C136.187 241.811 140.026 244.395 144.295 246.025C148.564 247.656 153.148 248.289 157.699 247.878C162.25 247.467 166.647 246.022 170.554 243.653C174.461 241.284 177.776 238.053 180.244 234.208C182.713 230.363 184.271 226.005 184.799 221.467C185.327 216.928 184.811 212.328 183.291 208.019C181.771 203.71 179.287 199.805 176.028 196.603C175.873 196.448 175.717 196.298 175.556 196.149C170.739 191.618 164.56 188.805 157.979 188.148C151.399 187.492 144.785 189.028 139.168 192.518C133.551 196.008 129.244 201.256 126.917 207.447C124.591 213.638 124.375 220.424 126.304 226.749V226.751ZM134.877 199.057C138.622 195.077 143.463 192.296 148.789 191.067C154.114 189.838 159.684 190.216 164.795 192.152C169.905 194.089 174.327 197.498 177.5 201.947C180.673 206.397 182.456 211.687 182.622 217.15C182.789 222.613 181.331 228.002 178.435 232.636C175.538 237.271 171.333 240.942 166.349 243.187C161.366 245.431 155.83 246.147 150.439 245.244C145.049 244.342 140.048 241.861 136.067 238.116C133.422 235.632 131.293 232.65 129.801 229.342C128.31 226.034 127.485 222.464 127.375 218.837C127.264 215.21 127.87 211.597 129.157 208.204C130.445 204.811 132.388 201.706 134.877 199.065V199.057Z" fill="#37474F"/>
<g opacity="0.5">
<path d="M174.499 237.341C170.775 241.303 165.96 244.071 160.664 245.295C155.368 246.519 149.828 246.143 144.745 244.216C139.662 242.289 135.265 238.897 132.108 234.469C128.952 230.041 127.179 224.776 127.013 219.339C126.847 213.902 128.296 208.538 131.177 203.926C134.057 199.313 138.24 195.659 143.196 193.426C148.152 191.192 153.659 190.479 159.02 191.378C164.381 192.276 169.355 194.745 173.313 198.472C175.952 200.94 178.077 203.906 179.565 207.199C181.054 210.492 181.877 214.047 181.987 217.66C182.097 221.273 181.493 224.871 180.207 228.249C178.922 231.627 176.982 234.717 174.499 237.341Z" fill="#DEDCEB"/>
</g>
<path d="M99 254C78.3147 239.008 80.035 219 80.035 219C87.5954 223.337 95.0968 232.927 98.5374 241.246C98.7402 246.011 98.9114 250.622 99 254Z" fill="#2B3940"/>
<path d="M120.648 247.653C122.206 247.312 123.251 246.195 123.47 246C123.47 246 124.135 246.042 123.361 247.396C123.296 247.509 123.15 247.795 123.043 247.994C123.034 248.013 123.029 248.035 123.03 248.056C123.031 248.077 123.038 248.098 123.049 248.117C123.06 248.135 123.076 248.151 123.095 248.162C123.115 248.173 123.136 248.18 123.159 248.181C124.059 248.247 124.963 247.91 126.696 248.251C126.934 248.299 127.005 248.849 126.995 249.073C127.032 249.588 126.866 250.098 126.53 250.504C126.25 250.853 125.479 251.23 123.737 251.89C123.077 252.143 121.186 251.954 119.415 251.376L118 250.756L118.44 248.261L118.795 248.333C119.359 248.443 120.063 247.789 120.648 247.653Z" fill="#F0F0F0"/>
<path d="M86.9766 210C86.9766 210 68.0493 213.599 92.5453 240.935C96.4642 245.308 117.631 251 117.631 251C117.631 251 119.777 249.179 118.695 247.703C118.695 247.703 104.122 237.146 100.914 235.469C99.4711 234.713 95.3156 218.619 92.9643 214.745C90.6129 210.87 86.9766 210 86.9766 210Z" fill="#37474F"/>
<path d="M123 220.834C123 220.834 123.724 219.594 123.865 218.943C124.005 218.291 124.917 216.379 125.294 216.043C125.444 215.909 125.938 216.083 125.997 216.661C126.023 216.913 125.884 217.371 125.641 217.921C125.247 218.808 125.31 220.012 125.172 220.413C124.83 221.411 123 220.834 123 220.834Z" fill="#F0F0F0"/>
<path d="M130.306 173.309C130.153 173.473 130.053 173.676 130.016 173.893C129.979 174.111 130.007 174.334 130.098 174.537C130.401 175.355 131.412 176.268 132.593 177.181C132.743 177.298 132.878 177.405 132.992 177.503C133.024 177.53 133.055 177.556 133.082 177.582L133.152 177.642C134.244 178.62 133.832 178.852 135.797 180.827C138.035 183.086 139.578 183.127 140.016 182.921C140.389 182.746 139.634 181.548 138.8 180.202L138.677 180.001L138.345 179.46C137.367 177.848 137.619 177.078 137.852 174.668C138.041 172.707 141 163.72 141 163.72L136.708 163C136.708 163 135.415 170.159 133.988 171.263C133.227 171.852 132.375 171.868 131.643 172.293C131.591 172.324 131.541 172.356 131.491 172.388C131.055 172.642 130.656 172.952 130.306 173.309Z" fill="#F0F0F0"/>
<path d="M130.303 173.955C130.152 174.124 130.052 174.335 130.015 174.56C129.979 174.786 130.007 175.017 130.097 175.227C130.465 176.073 131.438 177.018 132.565 177.96C132.713 178.083 132.841 178.198 132.956 178.302C132.987 178.33 133.017 178.357 133.044 178.384L133.114 178.447C134.194 179.46 133.787 179.7 135.73 181.747C137.943 184.089 139.47 184.131 139.904 183.918C140.272 183.736 139.525 182.495 138.7 181.1C137.15 180.485 135.788 179.464 134.751 178.142C133.466 176.47 132.594 174.352 131.72 173.046L131.471 173C131.041 173.263 130.648 173.584 130.303 173.955Z" fill="#233862"/>
<path d="M164.363 171.031C164.622 172.325 166.476 172.11 168.545 171.608C170.613 171.107 170.123 171.704 173.068 171.379C176.014 171.054 176.907 169.957 176.997 169.526C177.078 169.139 175.622 169.003 174.062 168.822C173.858 168.801 173.668 168.777 173.47 168.753C171.708 168.531 170.411 167.398 168.818 166.468C167.3 165.587 165.038 162 165.038 162L161 162.317C161 162.317 163.117 165.524 163.937 166.919C164.418 167.731 164.394 168.822 164.333 169.659C164.282 170.115 164.292 170.577 164.363 171.031Z" fill="#F0F0F0"/>
<path d="M168.01 171.63C169.966 171.155 169.502 171.72 172.285 171.414C175.068 171.107 175.912 170.072 175.997 169.665C176.074 169.299 174.698 169.171 173.223 169L173.21 169.029C172.017 169.79 170.639 170.215 169.222 170.259C167.334 170.305 165.335 169.767 164.03 169.786C163.982 170.219 163.992 170.656 164.059 171.086C164.304 172.307 166.056 172.104 168.01 171.63Z" fill="#233862"/>
<path d="M149 145.273L145.191 155.12L140.206 167.979C139.316 168.042 138.422 167.963 137.56 167.746C136.366 167.416 135 166.56 135 166.56C135 166.56 136.387 152.753 138.971 144.828C139.633 142.792 140.375 141.147 141.193 140.222C145.191 135.677 149 145.273 149 145.273Z" fill="#7B7BA5"/>
<path d="M145.005 130.019C142.886 129.332 137.366 130.007 131.361 131.093C130.552 131.239 129.717 131.136 128.967 130.796C128.217 130.456 127.588 129.896 127.162 129.189L112.074 128C112.074 128 107.09 139.081 109.814 146.146C110.216 147.186 111.095 147.834 112.452 147.856C112.452 147.856 121.57 147.872 124.485 147.872C131.989 147.872 140.365 142.698 141.453 142.48C143.226 142.125 143.935 145.688 145.706 149.428C147.477 153.169 162.375 166 162.375 166C162.375 166 164.664 166.024 165.611 165.669C166.628 165.285 167 164.788 167 164.788C167 164.788 150.494 131.801 145.005 130.019Z" fill="#8686B4"/>
<path d="M125.567 84.8905C124.698 84.3743 123.699 84.1153 122.687 84.1437C122.222 84.1548 121.756 84.1266 121.295 84.0596C115.54 83.2167 112.069 91.5456 111.866 94.0702C111.49 98.6911 109.037 99.3959 105.583 102.279C98.6539 108.085 100.681 114.824 104.469 117.331C106.74 118.836 110.745 117.331 110.745 117.331C110.803 117.371 121.701 111.266 127.074 108.321C135.132 107.19 128.808 86.8106 125.567 84.8905Z" fill="#7575A9"/>
<path d="M122.31 105.537C122.334 105.554 119.679 106.474 117.909 105.673C116.241 104.924 114.976 102.136 115 102.134C115.76 102.097 116.601 101.425 117.239 97L117.563 97.1198L123 99.1079C123 99.1079 122.6 100.879 122.35 102.56C122.128 103.982 122.012 105.338 122.31 105.537Z" fill="#F0F0F0"/>
<path d="M123 99.1027C123 99.1027 122.799 100.112 122.509 102C119.635 101.396 118.403 98.8127 118 97L123 99.1027Z" fill="#CCCCCC"/>
<path d="M124.037 100.998C124.037 100.998 116.328 100.005 117.047 95.4122C117.767 90.8194 117.255 87.5994 122.211 88.0404C127.167 88.4814 127.843 90.3705 127.992 91.9597C128.142 93.5488 126.063 101.137 124.037 100.998Z" fill="#F0F0F0"/>
<path d="M127 88.755C127 88.755 122.413 92.6298 119.298 92.9395C116.182 93.2492 115 92.2692 115 92.2692C116.245 91.1778 117.247 89.8466 117.944 88.3585C118.103 88.0084 118.355 87.7063 118.673 87.4836C118.992 87.2608 119.365 87.1254 119.754 87.0914C121.976 86.9045 126.197 86.8195 127 88.755Z" fill="#7575A9"/>
<path d="M125 88.8511C125 88.8511 126.664 90.3268 127.178 91.4197C127.681 92.4743 127.831 94.999 127.43 96C127.43 96 130.013 91.3833 128.553 89.1382C127.003 86.7571 125 88.8511 125 88.8511Z" fill="#7575A9"/>
<path d="M128.998 116.727C128.768 132.021 128.932 128.824 127.282 130.276C126.881 130.625 125.767 130.833 124.296 130.93C119.671 131.241 111.539 130.465 111.23 129.598C110.164 126.599 110.918 125.667 110.028 121.066C109.936 120.576 109.828 120.05 109.686 119.473C108.944 116.319 108.223 115.246 110.858 110.182C113.248 105.593 115.728 101.869 115.952 102.004C122.249 105.798 122.764 102.613 122.764 102.613C122.764 102.613 129.113 109.266 128.998 116.727Z" fill="#37474F"/>
<path d="M145 155.659L140.108 168.978C139.235 169.044 138.358 168.962 137.512 168.737C136.341 168.395 135 167.508 135 167.508C135 167.508 136.361 153.208 138.897 145L145 155.659Z" fill="#8686B4"/>
<path d="M123 103C123 103 129.788 104.124 130.586 106.972C131.383 109.819 134 127.105 134 127.105C134 127.105 132.084 128.926 130.491 127.373C128.899 125.819 125.478 111.199 125.478 111.199L123 103Z" fill="#37474F"/>
<path d="M124 130.931C119.461 131.237 111.482 130.474 111.179 129.622C110.134 126.676 110.873 125.759 110 121.238L112.184 115C112.184 115 111.82 121.969 113.845 123.803C115.87 125.638 122.131 127.344 123.113 128.877C123.542 129.495 123.843 130.193 124 130.931Z" fill="#2B3940"/>
<path d="M119 127.749C119 127.749 123.519 126.663 124.247 127.106C124.976 127.55 126.757 129.116 126.981 129.664C127.205 130.213 125.358 129.249 124.757 129.073C124.361 128.962 123.345 129.345 122.837 129.527C120.704 130.294 119.399 129.898 119.399 129.898L119 127.749Z" fill="#F0F0F0"/>
<path d="M116.129 102C116.129 102 109.86 102.377 107.69 105.332C104.634 109.494 98.5701 127.234 102.042 129.601C105.95 132.266 119.839 130.304 119.839 130.304C119.839 130.304 120.302 128.193 119.658 127.172C119.015 126.15 108.567 124.498 108.085 124.025C107.604 123.553 114.117 114.839 114.117 113.425C114.117 112.011 116.129 102 116.129 102Z" fill="#37474F"/>
<path d="M124 128C124 128 125.071 128.825 125.423 128.925C125.6 128.981 125.8 129.007 126 128.998L125.279 128.221L124 128Z" fill="#F0F0F0"/>
<path d="M124 127L127 128.76C126.941 128.848 126.865 128.915 126.778 128.956C126.691 128.997 126.597 129.01 126.505 128.993C126.062 128.898 125.627 128.753 125.207 128.559L124 127Z" fill="#F0F0F0"/>
<path d="M148 130.015L119 130V130.985L147.742 131L148 130.015Z" fill="#233862"/>
<path d="M126 129.992L148.29 130L155 114.008L132.744 114L126 129.992Z" fill="#5A5A7A"/>
<path d="M141.961 122.999C142.113 122.448 141.806 122 141.275 122C140.996 122.016 140.728 122.12 140.507 122.298C140.286 122.477 140.123 122.721 140.039 122.999C139.887 123.552 140.194 124 140.723 124C141.003 123.984 141.271 123.879 141.492 123.701C141.713 123.522 141.877 123.277 141.961 122.999Z" fill="white"/>
<path d="M291.795 192.381C288.786 191.393 286.706 192.639 286.706 192.639C278.039 192.991 277.718 201.773 278.735 205.042C280.161 209.632 275.108 213.251 280.714 215.104C287.229 217.259 292.681 214.702 292.318 215.812C312.88 217.42 298.641 194.627 291.795 192.381Z" fill="#56567B"/>
<path d="M283 235.029C282.327 236.24 281.54 237.388 280.648 238.459C278.818 240.667 269.225 235.428 270.05 235.029C270.875 234.631 275.699 221.239 276.846 219.557C277.994 217.875 281.907 217 281.907 217L283 235.029Z" fill="#37474F"/>
<path d="M312.95 326.102C312.95 326.102 315.42 328.434 314.938 330.089C314.456 331.743 312.227 332.849 311.926 334.873C311.625 336.896 310.418 338 309.335 338H304.164C304.164 338 303.366 336.577 305.294 336.146C307.222 335.716 307.948 333.34 307.829 331.131C307.709 328.923 308.008 325.981 308.008 325.981L312.105 325L312.95 326.102Z" fill="#37474F"/>
<path d="M291.643 327C291.643 327 292.567 336.47 291.442 337L277 336.971C277 336.971 277 335.382 279.319 335.031C281.637 334.679 285.711 333.382 286.401 330.499C287.091 327.616 291.643 327 291.643 327Z" fill="#37474F"/>
<path d="M302.903 228.154C303.032 230.363 303.032 232.577 302.903 234.786C302.762 237.178 300.338 240.395 299.995 241.188C299.131 243.182 298.158 243.506 298.158 243.506L290.631 245.352L287.984 246L279.636 243.506C279.636 243.506 275.836 232.886 277.361 226.909C278.887 220.931 281.22 216.781 281.22 216.781C281.22 216.781 286.892 215.505 296.9 216.215L302.903 228.154Z" fill="#37474F"/>
<path d="M303 235.503C302.862 237.898 299.797 241.036 299.463 241.83C298.62 243.826 297.671 244.152 297.671 244.152L290.327 246L289 242.096C289 242.096 299.731 239.202 298.006 229L303 235.503Z" fill="#2B3940"/>
<path d="M280.345 246.008C280.345 246.008 276.269 259.03 276.006 263.462C275.743 267.895 283.798 326.438 284.122 328.48C284.428 330.407 286.757 331.633 286.757 331.633C287.567 332.039 288.498 332.111 289.358 331.834C291.479 331.23 292.151 330.484 292.151 330.484C292.151 330.484 295.322 288.732 293.358 273.817C292.164 264.593 291.501 255.304 291.373 246L280.345 246.008Z" fill="#7B7BA5"/>
<path d="M297.115 245C297.115 245 303.406 253.53 303.992 259.296C304.578 265.062 304.912 285.318 306.162 290.939C307.412 296.561 312 307.378 312 324.913C312 324.913 311.523 325.917 310.051 326.452C309.488 326.644 308.916 326.804 308.336 326.932C307.745 327.068 307.127 326.999 306.58 326.737C306.032 326.475 305.588 326.034 305.319 325.485C302.216 319.169 292.33 298.802 291.823 294.575C291.465 291.582 288.344 271.78 281.536 260.159C279.901 257.37 282.529 246.275 282.529 246.275L297.115 245Z" fill="#8686B4"/>
<path d="M279.23 244C279.23 244 280.863 245.207 284.108 245.269C287.985 245.341 297.59 244.354 297.59 244.354C297.854 245.092 297.992 245.865 298 246.643C298 246.643 286.269 249.407 279.471 247.046C279.471 247.039 278.597 245.498 279.23 244Z" fill="#233862"/>
<path d="M284 248C282.889 248 282 247.103 282 246C282 244.897 282.9 244 284 244C285.1 244 286 244.897 286 246C286 247.103 285.107 248 284 248ZM284 244.586C283.262 244.586 282.667 245.22 282.667 246C282.667 246.78 283.269 247.414 284 247.414C284.731 247.414 285.333 246.78 285.333 246C285.333 245.22 284.74 244.586 284 244.586Z" fill="white"/>
<path d="M292 251.832L273.905 252L265 231.168L283.095 231L292 251.832Z" fill="#56567B"/>
<path d="M290 243.366L288.713 241.709C288.713 241.709 287.842 240.891 287.209 240.758C286.577 240.625 285.243 239.813 285.114 240.04C284.985 240.267 286.139 241.881 286.139 241.881H286.198C284.872 242.924 281.524 242.003 281.12 242.429C280.618 242.944 281.81 244.065 282.448 244.679C283.087 245.292 284.913 246.35 286.336 245.885C287.375 245.546 289.014 245.2 289.014 245.2L290 243.366Z" fill="#F0F0F0"/>
<path d="M266.104 234.947C266.104 234.947 267.117 233.491 267.763 234.19C268.409 234.888 267.595 238.324 266.979 237.975C266.364 237.626 265.75 235.373 266.104 234.947Z" fill="#F0F0F0"/>
<path d="M296.98 217C296.98 217 302.043 217.57 305.679 224.31C308.543 229.626 313.443 239.424 311.594 242.183C310.781 243.398 303.003 247.722 288 245.249C288 245.249 288.236 243.316 289.446 242.418C289.446 242.418 302.073 238.281 302.051 237.458C302.01 235.899 300.346 234.554 293.292 227.352C291.374 225.402 296.98 217 296.98 217Z" fill="#37474F"/>
<path d="M292.936 216.86C293.118 216.622 292.885 215.861 292.595 214.463C292.334 213.189 291.891 211.217 291.901 209L291.513 209.064L285 210.137C285 210.137 285.147 211.84 285.151 213.444C285.152 213.458 285.152 213.471 285.151 213.484C285.151 214.883 284.765 216.986 285.247 217.262C287.715 218.68 292.242 217.779 292.936 216.86Z" fill="#F0F0F0"/>
<path d="M285 210.056C285 210.056 285.118 212.415 285.122 214C288.482 213.915 290.272 210.508 291 209L285 210.056Z" fill="#CCCCCC"/>
<path d="M284.388 212.997C284.388 212.997 292.766 211.777 291.943 206.503C291.12 201.229 291.647 197.505 286.263 198.054C280.88 198.603 280.155 200.786 280.007 202.618C279.858 204.45 282.196 213.176 284.388 212.997Z" fill="#F0F0F0"/>
<path d="M283 198.521C283 198.521 286.275 204.573 289.948 204.934C293.621 205.295 295 204.05 295 204.05C293.016 202.737 291.528 200.741 290.791 198.405C290.791 198.405 284.268 195.168 283 198.521Z" fill="#56567B"/>
<path d="M284 198.779C284 198.779 282.321 199.683 281.805 201.033C281.162 202.615 281.027 204.345 281.419 206C281.419 206 278.919 202.119 280.556 199.459C282.294 196.636 284 198.779 284 198.779Z" fill="#56567B"/>
<path d="M468.419 338H3.58146C3.26033 338 3 338.174 3 338.388V338.612C3 338.826 3.26033 339 3.58146 339H468.419C468.74 339 469 338.826 469 338.612V338.388C469 338.174 468.74 338 468.419 338Z" fill="#303030"/>
</g>
<defs>
<clipPath id="clip0_2338_3239">
<rect width="471" height="339" fill="white"/>
</clipPath>
</defs>
</svg>
