<svg width="226" height="158" viewBox="0 0 226 158" fill="none" xmlns="http://www.w3.org/2000/svg">
<path d="M141.364 53.6276C145.713 53.2014 149.824 52.803 153.331 53.0949C160.953 53.7434 167.98 59.7654 169.679 67.1122C171.076 73.1991 168.375 78.7624 162.229 82.3988C153.154 87.7584 147.538 99.4781 150.215 107.483C152.413 114.047 159.761 117.002 170.899 115.821C178.769 114.978 185.376 116.678 190.619 120.87C192.309 118.373 193.469 115.353 193.487 110.823C193.534 101.947 187.173 96.7914 184.142 90.6999C183.105 88.7312 182.571 86.539 182.587 84.3166C182.75 74.8111 191.015 53.4423 177.241 41.9866C167.281 33.7133 147.766 40.1337 136.982 43.154C130.114 45.081 123.423 47.7214 116.568 49.8476C122.119 55.499 131.86 54.554 141.364 53.6276Z" fill="#E8E8F2"/>
<path d="M112.603 153.26H61.8334C61.8334 153.26 41.4976 149.658 25.8103 97.5648C24.8321 94.307 24.0558 91.2555 23.4814 88.4103C15.7728 49.5349 44.7348 47.2963 62.0337 49.6094C65.1917 54.659 67.8746 62.7897 64.3626 74.0897C62.1036 81.3221 57.6089 85.5946 52.844 88.8571C51.0647 90.0811 49.2435 91.1608 47.4875 92.2033C38.7728 97.3554 31.3204 101.809 37.981 117.81C44.9304 134.472 63.133 135.072 79.2349 135.602C89.8034 135.956 98.9372 136.254 102.826 141.09L112.603 153.26Z" fill="#E8E8F2"/>
<path d="M191.109 121.817C190.426 122.718 189.694 123.582 188.916 124.404C188.345 125.013 187.756 125.618 187.167 126.265L187.116 126.316C186.952 126.479 186.793 126.651 186.648 126.823C186.026 127.475 185.404 128.149 184.777 128.875C184.689 128.978 184.6 129.08 184.516 129.187L184.254 129.503C184.165 129.61 184.076 129.722 183.996 129.829C183.917 129.936 183.819 130.052 183.735 130.159C183.477 130.49 183.225 130.839 182.972 131.197C182.888 131.318 182.809 131.434 182.729 131.56C182.397 132.025 182.075 132.56 181.766 133.095C176.8 141.717 184.516 153.26 184.516 153.26H114.095V153.139L103.948 140.577C99.7998 135.459 90.4472 135.128 79.6309 134.775C63.7783 134.221 45.7511 133.626 38.9939 117.471C32.5733 102.155 39.4615 98.079 48.1781 92.9238C49.9879 91.8583 51.8631 90.7463 53.7008 89.4901C58.5689 86.1588 63.1657 81.7806 65.4991 74.3363C68.997 63.1698 66.5607 55.0136 63.4509 49.77C64.779 49.9654 66.0322 50.1841 67.192 50.4121C77.5079 52.4732 88.9133 54.1854 99.608 53.427C100.752 53.3495 101.887 53.2394 103.012 53.0967C107.543 52.4792 112.011 51.4735 116.368 50.091C122.223 56.3955 132.707 55.3812 142.228 54.4553C146.563 54.0365 150.645 53.6364 154.096 53.9249C161.274 54.5251 168.153 60.4387 169.757 67.3433C170.529 70.7118 170.646 77.0627 162.687 81.7666C153.255 87.3499 147.442 99.5725 150.248 107.961C151.604 112.018 156.229 118.579 171.913 116.899C177.038 116.35 181.599 116.899 185.596 118.546C187.579 119.372 189.436 120.474 191.109 121.817Z" fill="#E8E8F2"/>
<path d="M103.562 141.15L113.396 153.26H62.3526C62.3526 153.26 41.9025 149.676 26.1305 97.8389C25.1471 94.5971 24.3666 91.5606 23.7891 88.7295C32.1948 85.1033 45.6581 81.2409 53.2912 89.1926C51.5024 90.4106 49.6714 91.485 47.9059 92.5224C39.163 97.6305 31.6704 102.063 38.3669 117.985C45.3538 134.564 63.6545 135.161 79.8432 135.689C90.4687 136.041 99.6518 136.338 103.562 141.15Z" fill="#E8E8F2"/>
<path d="M194.281 110.894C194.281 111.081 194.281 111.263 194.281 111.445C194.281 111.553 194.281 111.66 194.281 111.772C194.281 111.884 194.281 112.02 194.257 112.141C194.234 112.263 194.257 112.244 194.257 112.295C194.257 112.478 194.257 112.655 194.22 112.833C194.183 113.01 194.183 113.276 194.159 113.496C194.159 113.608 194.127 113.729 194.117 113.841C194.047 114.36 193.963 114.859 193.856 115.336C193.8 115.588 193.744 115.836 193.678 116.078C193.613 116.321 193.562 116.517 193.496 116.728C193.37 117.143 193.23 117.536 193.076 117.914C193.006 118.105 192.926 118.292 192.842 118.479C192.758 118.666 192.67 118.867 192.576 119.054C192.483 119.24 192.413 119.371 192.333 119.521C192.335 119.531 192.335 119.542 192.333 119.553C192.245 119.721 192.156 119.885 192.062 120.02C192.039 120.067 192.006 120.118 191.978 120.165C191.81 120.45 191.628 120.726 191.446 121.001C191.264 121.277 191.119 121.468 190.951 121.697L190.918 121.734C190.797 121.903 190.666 122.066 190.54 122.229C190.484 122.304 190.428 122.374 190.367 122.444C190.227 122.626 190.077 122.804 189.928 122.977L189.821 123.108C189.475 123.509 189.125 123.902 188.76 124.294C188.195 124.91 187.607 125.517 187.014 126.162L186.962 126.213C186.799 126.377 186.64 126.55 186.495 126.722C185.874 127.376 185.253 128.054 184.627 128.782L184.366 129.095C184.282 129.202 184.188 129.31 184.104 129.413C184.02 129.515 183.931 129.632 183.847 129.74C183.763 129.847 183.67 129.959 183.586 130.071C183.329 130.403 183.077 130.753 182.824 131.113C182.745 131.234 182.661 131.351 182.581 131.477C182.25 131.944 181.928 132.481 181.619 133.018C176.659 141.673 184.366 153.26 184.366 153.26H113.997V153.139L103.862 140.528C99.7196 135.391 90.3789 135.059 79.5763 134.704C63.7437 134.172 45.7394 133.574 38.9907 117.358C32.5783 101.983 39.4578 97.8917 48.1633 92.7168C49.9708 91.6473 51.8436 90.531 53.6791 89.27C55.3978 91.3063 56.7802 94.0246 57.6769 97.5834C64.4816 124.565 84.2981 141.392 104.175 130.515C124.052 119.637 143.486 112.132 153.298 127.063C155.272 130.071 157.296 133.046 159.37 135.989C160.771 137.992 161.532 140.846 163.573 142.373C168.243 145.904 172.447 137.044 174.721 134.335C178.953 129.333 183.483 124.705 185.421 118.432C185.505 118.161 185.585 117.886 185.655 117.606C185.813 117.017 185.949 116.415 186.056 115.798C186.813 111.464 184.464 107.349 183.52 103.253C182.661 99.2584 183.05 95.0957 184.636 91.3297C184.735 91.0915 184.842 90.8626 184.949 90.6058C187.948 96.7474 194.327 101.946 194.281 110.894Z" fill="#E8E8F2"/>
<path d="M53.1 119.752C58.5423 117.451 61.0841 111.189 58.7772 105.765C56.4702 100.342 50.1882 97.8114 44.7458 100.113C39.3035 102.414 36.7617 108.676 39.0687 114.1C41.3756 119.523 47.6576 122.054 53.1 119.752Z" fill="white"/>
<path d="M45.5969 79C51.5092 79 56.3021 74.2252 56.3021 68.335C56.3021 62.4449 51.5092 57.67 45.5969 57.67C39.6845 57.67 34.8916 62.4449 34.8916 68.335C34.8916 74.2252 39.6845 79 45.5969 79Z" fill="white"/>
<path d="M170.095 66.36C176.007 66.36 180.8 61.5851 180.8 55.695C180.8 49.8049 176.007 45.03 170.095 45.03C164.183 45.03 159.39 49.8049 159.39 55.695C159.39 61.5851 164.183 66.36 170.095 66.36Z" fill="white"/>
<path d="M185.161 107.44C191.074 107.44 195.867 102.665 195.867 96.775C195.867 90.8849 191.074 86.11 185.161 86.11C179.249 86.11 174.456 90.8849 174.456 96.775C174.456 102.665 179.249 107.44 185.161 107.44Z" fill="white"/>
<path d="M153.046 60.83C154.36 60.83 155.425 59.7689 155.425 58.46C155.425 57.1511 154.36 56.09 153.046 56.09C151.732 56.09 150.667 57.1511 150.667 58.46C150.667 59.7689 151.732 60.83 153.046 60.83Z" fill="white"/>
<path d="M64.2315 74.2557C64.2324 74.7248 64.0935 75.1836 63.8324 75.574C63.5713 75.9644 63.1999 76.2689 62.765 76.4488C62.3301 76.6287 61.8514 76.676 61.3895 76.5847C60.9277 76.4934 60.5034 76.2676 60.1704 75.9359C59.8374 75.6041 59.6108 75.1815 59.5191 74.7213C59.4275 74.2612 59.475 73.7843 59.6556 73.351C59.8362 72.9178 60.1418 72.5477 60.5336 72.2876C60.9255 72.0275 61.3861 71.8892 61.857 71.89C62.4864 71.8912 63.0897 72.1408 63.5348 72.5842C63.9798 73.0276 64.2304 73.6286 64.2315 74.2557Z" fill="white"/>
<path d="M64.2315 120.08C65.5453 120.08 66.6104 119.019 66.6104 117.71C66.6104 116.401 65.5453 115.34 64.2315 115.34C62.9176 115.34 61.8525 116.401 61.8525 117.71C61.8525 119.019 62.9176 120.08 64.2315 120.08Z" fill="white"/>
<path d="M170.491 96.38C171.805 96.38 172.87 95.3189 172.87 94.01C172.87 92.7011 171.805 91.64 170.491 91.64C169.177 91.64 168.112 92.7011 168.112 94.01C168.112 95.3189 169.177 96.38 170.491 96.38Z" fill="white"/>
<path d="M74.5399 153.26H61.9727C61.5379 152.165 60.9258 151.15 60.1614 150.257C58.8836 148.753 55.1579 148.324 52.1764 147.287C50.5663 146.726 49.6676 144.671 48.9 142.833C48.2401 141.258 47.6738 139.839 46.8453 139.651C45.0339 139.231 41.5189 138.349 40.1335 135.776C38.748 133.202 35.0223 135.776 30.7724 132.829C26.5225 129.883 27.2574 125.155 29.9206 126.654C32.5838 128.153 35.6682 125.263 38.7574 125.645C41.8465 126.027 41.4206 129.445 44.0838 130.359C46.747 131.274 50.0468 131.033 52.284 135.328C53.4635 137.586 54.6711 138.628 56.2204 139.358C57.6245 140.009 59.2814 140.414 61.4438 141.244C66.0213 142.95 74.5399 153.26 74.5399 153.26Z" fill="#6667AB"/>
<path opacity="0.39" d="M68.9898 153.26C68.9898 153.26 60.334 145.218 54.8463 142.494C49.3587 139.77 49.0387 136.554 45.9771 134.537C42.9156 132.52 38.0635 131.93 38.0635 131.93C38.0635 131.93 44.1495 132.618 46.8214 134.467C49.4933 136.316 51.0472 140.028 56.674 142.607C62.3008 145.186 68.7347 152.511 68.7347 152.511L68.9898 153.26Z" fill="#203A51"/>
<path d="M200.911 112.18C202.097 112.121 202.776 109.505 202.916 108.785C203.015 108.326 203.031 107.852 202.962 107.387C202.951 107.257 202.913 107.132 202.849 107.018C202.785 106.905 202.696 106.807 202.591 106.731C202.418 106.656 202.227 106.632 202.042 106.663C201.856 106.695 201.683 106.779 201.545 106.906C201.159 107.227 200.849 107.629 200.64 108.084C200.277 108.808 200.021 109.58 199.88 110.377C199.816 110.682 199.816 110.998 199.88 111.303C199.913 111.464 199.981 111.616 200.079 111.748C200.178 111.88 200.304 111.989 200.45 112.067C200.591 112.144 200.75 112.183 200.911 112.18Z" fill="#37474F"/>
<path d="M199.595 116.827C200.665 117.337 202.512 115.6 202.998 115.105C203.304 114.796 203.547 114.432 203.713 114.032C203.768 113.924 203.797 113.806 203.797 113.685C203.797 113.565 203.768 113.446 203.713 113.339C203.591 113.198 203.434 113.092 203.257 113.03C203.081 112.969 202.891 112.954 202.707 112.988C202.223 113.059 201.76 113.233 201.35 113.498C200.688 113.887 200.09 114.374 199.576 114.941C199.363 115.142 199.197 115.387 199.09 115.658C199.041 115.802 199.027 115.956 199.05 116.107C199.073 116.257 199.131 116.4 199.221 116.524C199.318 116.655 199.447 116.759 199.595 116.827Z" fill="#37474F"/>
<path d="M202.052 119.714C201.381 118.88 198.86 119.497 198.189 119.714C197.763 119.831 197.364 120.019 197.009 120.269C196.909 120.328 196.825 120.408 196.765 120.502C196.704 120.597 196.668 120.704 196.659 120.815C196.659 121.134 197.023 121.383 197.358 121.498C197.824 121.639 198.316 121.689 198.803 121.644C199.585 121.605 200.357 121.465 201.098 121.227C201.382 121.152 201.647 121.024 201.877 120.85C201.99 120.76 202.078 120.647 202.136 120.519C202.193 120.391 202.218 120.252 202.208 120.113C202.2 119.968 202.146 119.829 202.052 119.714Z" fill="#37474F"/>
<path d="M197.265 119.016C197.265 119.016 198.8 114.822 198.028 113.97C197.256 113.117 195.705 115.024 195.88 116.784C195.945 117.352 196.086 117.904 196.297 118.42C196.414 118.735 196.985 119.78 197.265 119.016Z" fill="#37474F"/>
<path d="M192.848 124.721L192.898 124.65C193.062 124.38 193.187 124.086 193.269 123.777C193.486 123 193.542 122.183 193.433 121.381C193.405 121.085 193.318 120.8 193.176 120.544C192.692 119.76 191.863 120.06 191.492 120.772C191.144 121.409 191.028 122.159 191.164 122.881C191.321 123.6 191.715 124.236 192.275 124.672C192.339 124.737 192.418 124.783 192.503 124.805C192.589 124.827 192.679 124.825 192.763 124.797C192.795 124.777 192.824 124.752 192.848 124.721Z" fill="#37474F"/>
<path d="M191.902 127.024C191.912 126.87 191.982 126.724 192.1 126.614C192.394 126.306 192.755 126.057 193.161 125.885C193.567 125.712 194.008 125.619 194.456 125.612C195.201 125.587 196.587 125.842 196.659 126.642C196.654 126.812 196.601 126.977 196.503 127.121C196.406 127.265 196.268 127.383 196.104 127.464C195.54 127.792 194.886 127.97 194.216 127.98C193.547 127.989 192.888 127.829 192.312 127.517C192.124 127.434 191.979 127.286 191.911 127.106C191.904 127.079 191.901 127.052 191.902 127.024Z" fill="#37474F"/>
<path d="M187.82 130.349C187.907 130.356 187.993 130.332 188.065 130.28C188.553 129.905 188.947 129.41 189.211 128.838C189.535 128.133 189.609 127.33 189.421 126.574C189.385 126.362 189.298 126.164 189.168 125.999C189.038 125.834 188.87 125.708 188.679 125.632C188.547 125.601 188.409 125.603 188.277 125.636C188.145 125.67 188.021 125.734 187.916 125.825C187.724 126.002 187.574 126.226 187.48 126.477C187.213 127.103 187.102 127.791 187.158 128.475C187.184 128.764 187.31 130.28 187.82 130.349Z" fill="#37474F"/>
<path d="M179.366 139.035C179.399 139.042 179.433 139.041 179.465 139.033C179.498 139.024 179.527 139.007 179.552 138.984C179.594 138.938 183.978 134.35 185.908 132.565C186.564 131.947 187.213 131.329 187.857 130.711C188.97 129.65 190.126 128.551 191.295 127.504C192.813 126.21 194.211 124.781 195.47 123.235C196.574 121.71 197.551 120.098 198.393 118.415L198.695 117.849C199.706 115.824 200.612 113.748 201.409 111.629C201.416 111.606 201.419 111.582 201.417 111.559C201.414 111.535 201.407 111.512 201.396 111.491C201.385 111.469 201.37 111.451 201.351 111.436C201.333 111.42 201.311 111.409 201.288 111.402C201.243 111.385 201.192 111.386 201.147 111.405C201.103 111.424 201.067 111.459 201.047 111.504C200.259 113.618 199.364 115.691 198.366 117.715L198.064 118.28C197.232 119.949 196.264 121.545 195.169 123.054C193.918 124.587 192.528 126 191.016 127.277C189.847 128.324 188.697 129.427 187.574 130.489C186.929 131.105 186.284 131.722 185.63 132.343C183.69 134.159 179.301 138.734 179.26 138.78C179.243 138.797 179.231 138.818 179.223 138.84C179.215 138.862 179.212 138.885 179.215 138.909C179.217 138.932 179.224 138.955 179.236 138.975C179.248 138.995 179.264 139.013 179.283 139.026C179.31 139.034 179.338 139.037 179.366 139.035Z" fill="#334763"/>
<path d="M187.889 146.73C187.781 147.101 187.653 147.466 187.504 147.824C185.503 152.622 182.713 153.26 182.713 153.26H170.032L168.905 153.148C168.905 153.148 169.041 152.781 169.304 152.18C170.14 150.253 172.249 145.929 175.095 143.718C175.293 143.565 175.49 143.42 175.697 143.29C179.764 140.67 182.84 139.971 184.7 138.44C186.56 136.909 188.058 132.994 188.274 133.567C188.49 134.139 189.368 141.787 187.889 146.73Z" fill="#4D4E74"/>
<path d="M186.862 142.941C186.378 143.23 185.852 143.435 185.305 143.548C184.575 143.745 183.827 143.861 183.074 143.896C183.529 143.355 183.984 142.8 184.412 142.241C185.406 141.003 186.318 139.698 187.144 138.335L186.962 138.25C186.195 139.504 185.355 140.71 184.449 141.86C184.499 141.431 184.484 140.996 184.403 140.572C184.248 139.82 184.107 139.66 184.08 139.632C184.06 139.615 184.035 139.605 184.009 139.605C183.984 139.605 183.959 139.615 183.939 139.632C183.93 139.64 183.923 139.65 183.918 139.661C183.914 139.672 183.911 139.684 183.911 139.696C183.911 139.708 183.914 139.719 183.918 139.73C183.923 139.741 183.93 139.751 183.939 139.759C184.085 140.019 184.179 140.307 184.217 140.605C184.306 141.105 184.306 141.619 184.217 142.119C184.212 142.134 184.212 142.15 184.217 142.166C183.159 143.557 182.006 144.867 180.766 146.086C180.615 145.224 180.536 144.349 180.529 143.473C180.539 142.897 180.583 142.322 180.661 141.752C180.663 141.739 180.662 141.726 180.659 141.713C180.655 141.7 180.649 141.688 180.641 141.678C180.633 141.668 180.623 141.66 180.611 141.654C180.6 141.648 180.587 141.645 180.575 141.644C180.549 141.641 180.523 141.647 180.501 141.662C180.479 141.676 180.464 141.698 180.456 141.724C180.374 142.302 180.33 142.884 180.324 143.468C180.331 144.405 180.419 145.34 180.588 146.26C179.889 146.909 179.148 147.509 178.371 148.056L178.33 148.089C177.962 147.195 177.757 146.239 177.725 145.268C177.727 144.512 177.779 143.757 177.88 143.007C177.881 142.995 177.879 142.982 177.876 142.97C177.872 142.957 177.866 142.946 177.858 142.936C177.85 142.927 177.84 142.919 177.829 142.913C177.818 142.908 177.805 142.904 177.793 142.904C177.768 142.898 177.741 142.903 177.719 142.917C177.697 142.931 177.681 142.953 177.675 142.979C177.568 143.736 177.515 144.499 177.515 145.264C177.549 146.274 177.767 147.27 178.157 148.197C177.337 148.833 176.613 149.592 176.008 150.449C175.767 149.549 175.576 148.635 175.435 147.713C175.244 146.303 175.239 146.054 175.239 146.044C175.236 146.018 175.223 145.994 175.204 145.977C175.185 145.959 175.16 145.95 175.134 145.95C175.109 145.949 175.083 145.958 175.064 145.975C175.044 145.993 175.032 146.018 175.03 146.044C175.03 146.044 175.03 146.312 175.23 147.736C175.378 148.726 175.588 149.704 175.858 150.665C175.305 151.456 174.835 152.305 174.456 153.199L174.652 153.26C174.839 152.816 175.05 152.382 175.285 151.963H175.316C176.152 152.06 176.993 152.11 177.834 152.113C178.311 152.117 178.789 152.092 179.263 152.038C179.945 151.987 180.622 151.875 181.285 151.704C181.296 151.7 181.307 151.693 181.316 151.685C181.324 151.676 181.331 151.666 181.336 151.654C181.341 151.643 181.343 151.63 181.343 151.618C181.343 151.605 181.34 151.593 181.335 151.582C181.322 151.557 181.301 151.539 181.276 151.53C181.25 151.521 181.223 151.523 181.198 151.535C180.554 151.696 179.897 151.802 179.236 151.854C177.953 151.958 176.663 151.934 175.385 151.784C175.798 151.053 176.278 150.365 176.819 149.73C176.842 149.739 176.868 149.739 176.892 149.73C177.785 149.697 178.679 149.744 179.564 149.871C180.195 149.963 180.83 150.015 181.467 150.026C181.708 150.026 181.817 150.026 181.826 150.026C181.839 150.025 181.851 150.022 181.863 150.016C181.874 150.011 181.884 150.003 181.893 149.994C181.901 149.984 181.908 149.973 181.912 149.961C181.916 149.948 181.918 149.935 181.918 149.922C181.911 149.896 181.895 149.873 181.873 149.859C181.851 149.844 181.825 149.838 181.799 149.842C181.06 149.873 180.321 149.826 179.591 149.701C178.724 149.581 177.849 149.531 176.974 149.551C177.377 149.094 177.824 148.679 178.307 148.315C178.333 148.305 178.354 148.287 178.367 148.263C178.403 148.232 178.441 148.204 178.48 148.178C178.968 147.83 179.418 147.483 179.846 147.135C179.86 147.149 179.877 147.158 179.896 147.163C180.648 147.295 181.41 147.364 182.172 147.37C182.576 147.373 182.979 147.348 183.379 147.295C183.998 147.245 184.609 147.12 185.2 146.923C185.209 146.915 185.217 146.904 185.222 146.893C185.228 146.881 185.23 146.868 185.23 146.855C185.23 146.842 185.228 146.829 185.222 146.817C185.217 146.806 185.209 146.795 185.2 146.787C185.181 146.769 185.155 146.759 185.129 146.759C185.103 146.759 185.078 146.769 185.059 146.787C184.504 146.958 183.933 147.067 183.356 147.111C182.24 147.235 181.112 147.197 180.006 146.998C181.052 146.098 182.023 145.109 182.91 144.042C182.928 144.056 182.951 144.064 182.974 144.065C183.773 144.031 184.566 143.91 185.341 143.703C185.918 143.587 186.47 143.369 186.975 143.059C186.984 143.051 186.991 143.04 186.996 143.029C187.001 143.018 187.003 143.006 187.003 142.993C187.003 142.981 187.001 142.969 186.996 142.957C186.991 142.946 186.984 142.936 186.975 142.927C186.957 142.92 186.937 142.917 186.917 142.919C186.897 142.922 186.878 142.929 186.862 142.941Z" fill="#6E6E6E"/>
<path opacity="0.39" d="M187.144 146.772C187.038 147.141 186.912 147.504 186.766 147.859C184.8 152.626 182.059 153.26 182.059 153.26L170.026 153.158C169.633 152.85 169.259 152.526 168.905 152.187C169.727 150.273 171.798 145.977 174.594 143.78C174.127 145.588 174.29 147.502 175.056 149.204C177.09 153.514 183.767 152.025 186.152 148.502C186.522 147.949 186.853 147.371 187.144 146.772Z" fill="#203A51"/>
<path d="M183.906 138.366C183.679 139.236 183.444 140.074 183.148 140.861C179.224 151.806 173.752 153.26 173.752 153.26H148.916L146.702 153.001C146.702 153.001 146.975 152.163 147.488 150.797C149.133 146.399 153.26 136.537 158.848 131.5C159.222 131.156 159.614 130.832 160.022 130.528C168.003 124.555 174.03 122.958 177.676 119.472C181.322 115.985 184.271 107.05 184.692 108.36C185.098 109.573 186.799 127.102 183.906 138.366Z" fill="#6667AB"/>
<path d="M183.365 129.888C183.365 129.888 182.63 130.508 180.158 131.249C178.664 131.692 177.121 131.959 175.563 132.046C176.505 130.819 177.404 129.573 178.322 128.308C180.387 125.484 182.274 122.537 183.972 119.485L183.591 119.29C182.024 122.101 180.295 124.821 178.412 127.437C178.518 126.47 178.488 125.493 178.322 124.533C177.997 122.843 177.705 122.472 177.649 122.417C177.61 122.38 177.557 122.359 177.503 122.359C177.449 122.359 177.396 122.38 177.357 122.417C177.317 122.454 177.292 122.506 177.287 122.56C177.283 122.615 177.3 122.669 177.334 122.713C177.334 122.713 177.602 123.051 177.903 124.617C178.084 125.749 178.084 126.903 177.903 128.035C177.894 128.07 177.894 128.107 177.903 128.142C175.681 131.203 173.529 134.163 170.798 137.002C170.488 135.05 170.33 133.077 170.328 131.101C170.341 129.8 170.432 128.501 170.601 127.211C170.609 127.155 170.595 127.098 170.562 127.052C170.528 127.006 170.478 126.975 170.422 126.965C170.366 126.958 170.309 126.973 170.264 127.005C170.218 127.038 170.187 127.087 170.177 127.141C170.005 128.45 169.913 129.768 169.899 131.087C169.916 133.193 170.097 135.294 170.441 137.373C169.014 138.826 167.488 140.182 165.874 141.43L165.789 141.5C165.459 140.601 164.513 137.794 164.541 135.168C164.543 133.465 164.65 131.763 164.861 130.073C164.866 130.046 164.865 130.018 164.859 129.991C164.852 129.965 164.84 129.939 164.823 129.917C164.807 129.895 164.785 129.877 164.761 129.863C164.737 129.849 164.71 129.84 164.682 129.837C164.655 129.832 164.626 129.833 164.599 129.839C164.571 129.846 164.545 129.858 164.522 129.874C164.5 129.89 164.48 129.911 164.466 129.935C164.451 129.959 164.442 129.985 164.438 130.013C164.223 131.723 164.115 133.445 164.113 135.168C164.176 137.431 164.623 139.669 165.436 141.787C163.716 143.264 162.225 144.98 161.01 146.882C160.505 144.844 160.109 142.782 159.824 140.703C159.428 137.544 159.419 136.956 159.419 136.933C159.415 136.878 159.391 136.826 159.351 136.788C159.311 136.749 159.258 136.727 159.202 136.724C159.146 136.724 159.092 136.746 159.052 136.785C159.013 136.824 158.99 136.877 158.99 136.933C158.99 136.956 158.99 137.535 159.4 140.754C159.706 142.982 160.137 145.192 160.69 147.373C159.539 149.192 158.572 151.117 157.804 153.121L158.209 153.26C158.589 152.259 159.026 151.281 159.518 150.328L159.583 150.351C161.302 150.564 163.031 150.675 164.762 150.685C165.746 150.691 166.729 150.635 167.705 150.518C171.161 150.055 171.844 149.777 171.872 149.763C171.898 149.752 171.921 149.736 171.94 149.716C171.959 149.696 171.975 149.672 171.985 149.646C171.995 149.62 171.999 149.593 171.999 149.565C171.998 149.538 171.992 149.51 171.98 149.485C171.969 149.46 171.952 149.437 171.932 149.418C171.912 149.399 171.888 149.384 171.861 149.374C171.835 149.364 171.807 149.36 171.779 149.36C171.751 149.361 171.723 149.367 171.698 149.379C171.669 149.379 170.992 149.656 167.649 150.101C164.485 150.513 160.309 150.018 159.706 149.944C160.553 148.316 161.546 146.766 162.672 145.312C162.692 145.329 162.715 145.341 162.74 145.349C162.766 145.356 162.792 145.357 162.818 145.353C164.659 145.281 166.503 145.39 168.322 145.678C169.621 145.886 170.933 146.002 172.249 146.025C172.497 146.03 172.746 146.02 172.993 145.993C173.02 145.989 173.047 145.98 173.071 145.967C173.095 145.953 173.117 145.934 173.133 145.912C173.15 145.89 173.162 145.865 173.169 145.838C173.175 145.811 173.176 145.784 173.171 145.756C173.163 145.701 173.134 145.652 173.089 145.618C173.044 145.584 172.987 145.569 172.931 145.576C172.931 145.576 171.655 145.738 168.388 145.261C166.601 144.984 164.791 144.871 162.983 144.923C163.806 143.911 164.727 142.98 165.732 142.144H165.775C165.802 142.132 165.826 142.116 165.846 142.095C165.866 142.075 165.882 142.05 165.892 142.023L166.128 141.833C167.135 141.055 168.063 140.268 168.953 139.476C168.981 139.509 169.019 139.533 169.061 139.545C170.612 139.845 172.189 140 173.769 140.008C174.6 140.014 175.43 139.955 176.251 139.832C178.426 139.49 179.787 139.188 179.975 138.999C180.016 138.958 180.039 138.903 180.039 138.846C180.039 138.789 180.016 138.734 179.975 138.693C179.956 138.674 179.933 138.658 179.908 138.648C179.883 138.637 179.856 138.632 179.829 138.632C179.802 138.632 179.775 138.637 179.75 138.648C179.724 138.658 179.702 138.674 179.683 138.693C179.683 138.693 179.236 138.948 176.166 139.429C173.242 139.893 169.96 139.304 169.264 139.17C171.443 137.111 173.446 134.879 175.252 132.495C175.289 132.524 175.333 132.54 175.38 132.542C177.036 132.474 178.677 132.199 180.262 131.722C182.847 130.948 183.595 130.3 183.628 130.272C183.668 130.232 183.689 130.179 183.689 130.124C183.689 130.069 183.668 130.015 183.628 129.976C183.601 129.934 183.56 129.902 183.512 129.886C183.464 129.87 183.412 129.87 183.365 129.888Z" fill="#7274A9"/>
<path opacity="0.27" d="M183.972 138.91C183.746 139.794 183.51 140.646 183.213 141.446C179.284 152.572 173.805 154.05 173.805 154.05L149.74 153.815C148.953 153.09 148.203 152.327 147.495 151.546C149.143 147.075 153.275 137.05 158.871 131.93C158.13 135.657 157.973 140.199 159.75 144.59C163.827 154.643 177.165 151.179 181.941 142.943C182.699 141.642 183.377 140.295 183.972 138.91Z" fill="#6667AB"/>
<path d="M153.838 154.05H142.087C142.087 154.05 138.796 124.537 138.237 124.753C137.677 124.968 136.596 154.05 136.596 154.05H124.845C124.497 154.017 124.469 149.661 124.516 146.498C124.539 145.178 124.572 144.069 124.6 143.564L125.446 128.44C125.503 127.453 126.598 113.021 126.311 112.97C126.311 112.97 132.497 114.07 136.136 114.346C136.781 114.406 137.43 114.42 138.077 114.388C138.589 114.346 139.262 114.266 140.009 114.159C143.003 113.742 147.201 112.97 147.201 112.97L152.602 146.432L153.838 154.05Z" fill="#6E6FBC"/>
<path d="M156.317 144.656C155.699 145.048 154.021 145.623 152.064 146.17C148.452 147.174 143.859 148.081 143.129 147.595C142 146.852 142.139 146.142 141.93 144.015C141.8 142.679 140.656 127.72 139.782 116.169C139.722 115.407 139.666 114.664 139.61 113.94C139.174 108.117 138.834 103.552 138.778 102.757C138.723 101.963 139.011 97.5607 139.411 92.2054C140.15 82.4948 141.247 69.4523 141.293 67.8074C141.293 67.0971 141.293 66.3634 141.247 65.6812C141.149 63.8961 140.907 62.41 140.907 62.41C141.766 62.8659 142.48 63.5559 142.967 64.4007C143.552 65.6251 143.924 66.4756 143.924 66.4756C143.924 66.4756 153.495 70.1392 154.234 71.6159C154.973 73.0926 151.589 82.392 151.027 86.9295C150.595 90.3875 150.204 92.5699 150.39 96.355C150.39 96.8223 150.441 97.3504 150.483 97.8924C150.548 98.6775 150.632 99.5327 150.743 100.467C151.501 107.01 153.216 107.813 154.606 119.524C154.634 119.758 154.662 119.991 154.69 120.248C156.103 132.674 158.074 143.52 156.317 144.656Z" fill="#C6C6E6"/>
<path d="M137.083 102.363C136.95 103.439 136.608 107.929 136.205 113.718C136.111 115.035 136.011 116.422 135.902 117.841C135.428 124.334 134.844 131.663 134.28 137.321C133.806 141.927 133.365 145.434 132.971 146.5C132.9 146.69 132.834 146.802 132.767 146.834C132.698 146.865 132.624 146.886 132.549 146.899C131.411 147.113 127.731 146.463 124.487 145.591C124.051 145.48 123.629 145.355 123.216 145.234C120.803 144.52 118.896 143.731 118.948 143.179C118.982 142.859 119.223 140.795 119.589 137.725C119.759 136.231 119.968 134.478 120.196 132.623C120.703 128.448 121.3 123.481 121.907 118.667C122.927 110.522 123.942 102.776 124.464 99.8448C124.53 99.4506 124.596 99.0424 124.649 98.625C124.843 97.0551 124.939 95.4753 124.938 93.894V93.8476C124.938 91.3337 124.772 88.7874 124.563 86.4636C124.293 83.5323 123.956 80.972 123.838 79.2977C123.553 75.2207 124.995 68.5324 124.995 68.5324C126.282 67.9688 127.601 67.4764 128.945 67.0575C130.316 66.705 131.25 66.3571 131.25 66.3571C131.25 66.3571 132.113 63.8896 132.905 63.1892C133.341 62.7806 133.893 62.5092 134.489 62.41C134.489 62.41 134.522 63.6252 134.607 65.6568C134.759 69.4137 135.081 75.9674 135.636 82.818C136.006 87.3449 136.405 90.9441 136.703 93.8476C137.106 97.7066 137.329 100.35 137.083 102.363Z" fill="#C6C6E6"/>
<path opacity="0.68" d="M150.667 82.4075L143.53 82.95L144.491 80.9972L150.403 80.58C150.46 81.2309 150.552 81.8359 150.667 82.4075Z" fill="white"/>
<path d="M140.119 111.839C140.156 112.383 140.198 112.945 140.241 113.516C139.496 113.623 138.835 113.701 138.315 113.743C137.67 113.775 137.024 113.761 136.381 113.701C136.802 107.93 137.116 103.412 137.247 102.334C137.491 100.319 137.247 97.6911 136.877 93.7953C136.582 90.8885 136.189 87.2945 135.823 82.7533C135.27 75.8904 134.957 69.3293 134.807 65.5728C135.4 65.9518 135.928 66.422 136.371 66.9658C136.559 67.1988 136.728 67.4456 136.877 67.7041C137.183 68.2049 137.46 68.7227 137.706 69.255C137.706 69.255 140.517 65.2431 141.889 65.5914C141.936 66.2693 141.955 66.9844 141.936 67.7041C141.889 69.3386 140.784 82.2983 140.039 91.9472C139.636 97.2685 139.341 101.578 139.402 102.432C139.454 103.119 139.739 106.866 140.119 111.839Z" fill="#484984"/>
<path d="M151.926 112.97H147.03C146.411 112.97 145.909 113.457 145.909 114.057V114.253C145.909 114.853 146.411 115.34 147.03 115.34H151.926C152.544 115.34 153.046 114.853 153.046 114.253V114.057C153.046 113.457 152.544 112.97 151.926 112.97Z" fill="#ACACCE"/>
<path d="M124.803 112.97H128.948C129.24 112.97 129.52 113.09 129.727 113.304C129.933 113.517 130.049 113.807 130.049 114.109V114.201C130.049 114.352 130.02 114.502 129.963 114.642C129.906 114.782 129.823 114.908 129.719 115.014C129.614 115.12 129.49 115.204 129.354 115.26C129.218 115.316 129.073 115.343 128.926 115.34L124.785 115.253C124.629 115.249 124.476 115.211 124.336 115.142C124.195 115.073 124.07 114.974 123.969 114.851C123.868 114.729 123.793 114.585 123.749 114.43C123.706 114.276 123.694 114.113 123.715 113.954C123.752 113.682 123.883 113.433 124.082 113.252C124.282 113.072 124.538 112.972 124.803 112.97Z" fill="#ACACCE"/>
<path d="M128.463 112.97H123.276C123.04 112.644 122.912 112.25 122.912 111.845C122.912 111.44 123.04 111.045 123.276 110.719C124.172 110.287 125.122 109.981 126.099 109.81C126.441 109.911 126.765 110.064 127.06 110.265L127.225 110.583L128.356 112.806L128.463 112.97Z" fill="white"/>
<path d="M152.648 112.97H147.495L147.645 112.635L148.562 110.645L148.835 110.047C148.835 110.047 148.945 109.949 149.135 109.81C150.464 109.975 151.774 110.301 153.045 110.784C153.06 111.539 152.924 112.288 152.648 112.97Z" fill="white"/>
<path d="M149.874 86.11C149.874 86.5787 149.735 87.0369 149.473 87.4267C149.212 87.8164 148.84 88.1202 148.406 88.2996C147.971 88.479 147.493 88.5259 147.031 88.4345C146.57 88.343 146.146 88.1173 145.813 87.7858C145.48 87.4544 145.254 87.0321 145.162 86.5724C145.07 86.1126 145.117 85.6361 145.297 85.203C145.477 84.77 145.782 84.3998 146.173 84.1394C146.565 83.879 147.025 83.74 147.495 83.74C148.126 83.7412 148.73 83.9913 149.176 84.4355C149.622 84.8797 149.873 85.4818 149.874 86.11Z" fill="#374877"/>
<path d="M148.288 86.505C148.288 86.7395 148.218 86.9688 148.087 87.1638C147.956 87.3588 147.77 87.5107 147.553 87.6002C147.335 87.6897 147.096 87.7129 146.865 87.6668C146.634 87.6207 146.422 87.5074 146.256 87.3412C146.09 87.175 145.977 86.9634 145.931 86.7332C145.886 86.503 145.91 86.2646 146.001 86.0482C146.092 85.8317 146.245 85.647 146.441 85.5173C146.638 85.3877 146.868 85.319 147.103 85.32C147.259 85.32 147.414 85.3506 147.558 85.4102C147.702 85.4699 147.833 85.5572 147.943 85.6673C148.053 85.7774 148.14 85.9081 148.199 86.0518C148.259 86.1956 148.289 86.3496 148.288 86.505Z" fill="#1B223A"/>
<path d="M124.686 68.73C124.686 68.73 120.84 70.0704 119.896 73.3404C118.952 76.6104 113.189 90.7571 114.341 96.7729C115.492 102.789 121.886 111.787 122.517 112.144C123.148 112.501 127.51 110.108 127.667 108.842C127.823 107.575 122.724 97.7933 122.6 93.6421C122.475 89.4908 124.696 84.2218 125.184 77.4082C125.672 70.5946 124.686 68.73 124.686 68.73Z" fill="#C6C6E6"/>
<path d="M145.594 66.0941L141.611 62.8112C140.68 62.0415 139.51 61.6204 138.302 61.62H137.095C135.949 61.623 134.837 62.0019 133.926 62.6987L130.828 65.0764C129.867 65.8119 129.192 66.86 128.918 68.0404V68.0733C128.77 68.6822 128.494 69.2524 128.108 69.7457C127.722 70.2391 127.236 70.6442 126.681 70.9341C126.562 70.9874 126.45 71.0568 126.349 71.1404C124.706 72.6787 124.35 75.5817 124.547 77.6031L125.394 77.5233C125.202 75.5489 125.605 73.0023 126.915 71.7783C126.967 71.7459 127.02 71.7161 127.074 71.6891C127.544 71.4437 127.973 71.1273 128.347 70.7512C129.045 71.014 129.682 71.416 130.22 71.933C131.263 72.9648 131.156 74.3811 131.048 75.8819L131.02 76.2477L131.872 76.3087V75.9475C131.989 74.3952 132.12 72.6365 130.8 71.3233C130.255 70.7984 129.621 70.3745 128.928 70.0711C129.321 69.5186 129.603 68.8939 129.756 68.2327V68.1999C129.992 67.2267 130.551 66.3631 131.343 65.7518L134.446 63.374C135.207 62.7912 136.137 62.4749 137.095 62.4735H138.302C139.313 62.4754 140.293 62.8284 141.073 63.4725L145.051 66.7554C145.55 67.1637 145.951 67.6782 146.227 68.2615C146.502 68.8448 146.644 69.4822 146.643 70.1274V84.53H147.495V70.1274C147.496 69.3561 147.326 68.5941 146.997 67.8965C146.669 67.199 146.189 66.5833 145.594 66.0941Z" fill="#1B2656"/>
<path d="M129.426 88.4778C129.369 88.4807 129.313 88.4807 129.256 88.4778L129.332 88.0691C129.388 88.0691 130.718 88.2599 131.641 85.8622C132.616 83.3237 131.319 75.9081 131.305 75.84L131.688 76.2441C131.745 76.5348 133.06 83.3646 132.043 86.0029C131.168 88.2599 129.89 88.4778 129.426 88.4778Z" fill="#374877"/>
<path d="M130.049 88.5386C130.049 88.5386 129.255 87.5605 128.938 87.7044C128.82 87.7671 128.716 87.8572 128.637 87.9676C128.557 88.078 128.503 88.2059 128.478 88.3414C128.453 88.4769 128.459 88.6165 128.494 88.7494C128.53 88.8823 128.594 89.0051 128.683 89.1082C129.132 89.6836 130.049 88.5386 130.049 88.5386Z" fill="#1B223A"/>
<path d="M126.877 88.4094C126.877 88.4094 127.469 87.2617 127.626 87.8655C127.783 88.4692 127.486 89.6223 127.251 89.1654C127.017 88.7085 126.877 88.4094 126.877 88.4094Z" fill="#1B223A"/>
<path d="M127.628 88.48C127.581 88.48 126.469 88.384 125.121 86.7243C123.772 85.0647 125.026 77.7309 125.079 77.42L125.551 77.4795C125.194 79.5598 124.502 85.2521 125.509 86.4866C126.71 87.9588 127.659 88.064 127.67 88.064L127.628 88.48Z" fill="#374877"/>
<path d="M141.943 65.2282C140.527 64.8954 137.728 68.73 137.728 68.73C137.48 68.2212 137.201 67.7262 136.893 67.2476C136.375 66.4303 135.661 65.7386 134.807 65.2282V60.83H141.599L141.764 62.9603L141.943 65.2282Z" fill="white"/>
<path d="M141.943 63.1115C140.975 64.0242 139.832 64.78 138.796 64.78C137.683 64.78 136.167 63.7485 134.807 62.5744V60.83H141.774L141.943 63.1115Z" fill="#EDEDED"/>
<path d="M146.61 51.8067C146.236 50.8736 144.991 52.0027 144.991 52.0027C145.003 51.5638 144.992 51.1247 144.958 50.6869C144.64 47.1317 144.799 45.4334 140.543 44.0524C136.286 42.6713 133.409 43.8377 132.59 45.802C132.052 47.1873 131.604 48.6054 131.248 50.0478C131.248 50.0478 131.322 50.7103 131.505 51.7321C131.505 51.7321 130.195 50.9902 130.064 52.1986C129.933 53.407 130.672 55.0914 131.248 55.0914C131.427 55.0783 131.6 55.0206 131.751 54.9236C131.902 54.8266 132.027 54.6934 132.113 54.5361C133.049 58.1894 134.873 62.8084 138.129 63.1723C142.021 63.6062 143.995 58.8472 144.678 54.8021C144.765 54.931 144.89 55.0293 145.036 55.083C145.182 55.1366 145.342 55.1428 145.492 55.1007C146.156 54.8581 146.979 52.7352 146.61 51.8067Z" fill="white"/>
<path d="M130.712 50.2123C131.361 49.3377 131.905 48.3907 132.335 47.3906L132.867 45.9937C132.867 45.9937 138.632 45.0624 140.506 45.7097C142.381 46.3569 142.372 46.3476 142.666 47.3347C142.96 48.3219 144.401 50.5476 144.401 50.5476V52.14C144.806 51.5797 145.052 50.9197 145.11 50.2309C145.185 49.1367 144.476 47.5815 144.723 46.6642C144.97 45.7469 144.933 45.3558 144.191 44.4012C143.45 43.4467 141.962 41.3653 138.706 40.7646C137.392 40.4837 136.053 40.3278 134.709 40.299C134.038 40.2668 133.365 40.3216 132.708 40.462C132.452 40.503 132.211 40.6106 132.009 40.7741C131.808 40.9376 131.653 41.1511 131.561 41.3932C131.328 42.3054 131.268 43.2529 131.384 44.187C131.384 44.2755 130.959 44.7411 130.917 44.8343C130.406 45.6507 130.111 46.5831 130.059 47.5442C129.952 49.6256 130.735 50.7199 130.735 50.7199L130.712 50.2123Z" fill="#263238"/>
<path d="M136.393 94.01C136.266 93.6508 129.95 75.9289 129.344 74.2495C128.738 72.5702 131.463 71.8051 131.463 71.8051L129.964 70.8722L129.428 70.2331C128.897 69.5986 130.998 66.3799 130.998 66.3799C130.998 66.3799 131.853 63.8981 132.638 63.1937C133.071 62.7828 133.617 62.5098 134.208 62.41C134.208 62.41 134.489 72.3229 135.345 82.9356C135.702 87.4699 136.097 91.0898 136.393 94.01Z" fill="#ACACCE"/>
<path d="M146.682 74.7006C146.579 75.0443 145.442 77.9027 144.044 81.3733L143.148 83.5771C141.849 86.7981 140.46 90.1697 139.564 92.43C140.277 82.6447 141.334 69.5018 141.379 67.8442C141.393 66.0253 141.269 64.2081 141.007 62.41C141.834 62.8695 142.522 63.5647 142.991 64.4161C143.556 65.6498 143.914 66.5069 143.914 66.5069C143.914 66.5069 146.338 70.2741 146.154 70.8439C145.97 71.4137 144.255 72.2566 144.255 72.2566C144.255 72.2566 146.951 73.7823 146.682 74.7006Z" fill="#ACACCE"/>
<path d="M161.741 95.895L161.282 98.6551C161.282 98.6551 153.76 112.932 152.975 112.97C152.191 113.007 147.546 110.56 147.496 109.392C147.445 108.225 151.883 99.7713 152.663 94.9142C153.297 90.9865 151.071 88.2497 150.19 83.0237C150.079 82.3839 149.992 81.7067 149.933 80.9828C149.882 80.3476 149.845 79.6844 149.841 78.9746C149.795 70.895 153.512 71.1005 153.512 71.1005C153.512 71.1005 155.041 71.5675 155.807 75.0889C156.573 78.6103 162.209 93.1302 161.741 95.895Z" fill="#C6C6E6"/>
<path d="M101.501 135.196L101.224 138.853L100.12 153.26H77.5582L76.9189 138.678C76.9189 138.678 81.4829 134.565 89.6426 133.703C89.8964 133.679 90.1549 133.651 90.4134 133.632H90.4839C99.1466 132.973 101.501 135.196 101.501 135.196Z" fill="#6E6FBC"/>
<path d="M90.8255 147.941C92.0391 153.133 100.166 153.26 100.166 153.26H89.6074L89.8847 139.828L90.0119 133.692C90.2301 133.692 90.4665 133.645 90.671 133.631H90.7574H90.8255C99.225 132.975 101.502 135.203 101.502 135.203L101.234 138.865C99.9769 139.108 98.6989 139.214 97.4206 139.181C93.0209 139.162 89.612 142.735 90.8255 147.941Z" fill="#6667AB"/>
<path d="M89.6067 134.3L89.4751 140.245C89.4751 140.245 84.306 141.292 81.5993 140.981C78.8926 140.67 77.5909 144.983 78.7798 149.881C79.0962 151.247 79.9216 152.451 81.0965 153.26H77.5486L76.9189 139.129C76.9189 139.129 81.4583 135.137 89.6067 134.3Z" fill="#6667AB"/>
<path d="M84.3318 68.5022C83.4778 69.3663 82.2385 70.1937 80.9992 70.2994C79.3329 70.4465 78.1262 69.0354 77.5274 67.6519C77.0633 66.6316 76.3438 64.0577 77.7131 63.4142C78.4883 63.0423 79.3395 62.8521 80.2009 62.8581C80.2009 62.8581 78.7203 55.118 87.1956 53.9321C95.671 52.7463 95.8798 56.7221 95.9494 61.1115C96.0191 65.5009 92.7004 66.5534 92.7004 66.5534L84.3318 68.5022Z" fill="#263238"/>
<path d="M96.1095 92.0104C92.1949 100.185 84.1603 80.8135 83.3664 78.3223C83.0909 77.4737 83.0113 76.5725 83.1338 75.688C83.2066 75.1065 83.3844 74.5436 83.6584 74.0271C83.6584 74.0271 83.7178 72.9753 83.6813 71.7573C83.6813 71.4021 83.6539 71.033 83.6219 70.6731C83.6047 69.9205 83.45 69.1775 83.1657 68.4817C82.4448 67.1208 81.4593 67.1715 81.7194 65.4922C81.9794 63.8129 83.0881 64.6018 83.7041 64.5465C84.32 64.4911 85.8211 59.3517 87.6461 58.8765C89.4711 58.4013 91.1181 57.6724 91.7979 57.1418L93.1439 56.09C93.1439 56.09 95.5346 59.873 95.3749 63.7622C95.2153 67.6513 93.2488 72.4678 93.2488 72.4678C93.2877 73.1471 93.3669 73.8234 93.4861 74.4931C93.5499 74.939 93.7053 75.3664 93.9423 75.7479L94.4944 76.4307C96.3128 79.0706 97.3639 82.1726 97.5284 85.3855C97.6058 87.6786 97.1182 89.9552 96.1095 92.0104Z" fill="white"/>
<path d="M112.296 104.171C110.798 104.503 106.086 104.171 106.086 104.171L106.053 104.209C105.761 104.61 103.426 107.901 103.228 111.089C103.177 111.999 103.153 113.049 103.167 114.24C103.196 117.507 103.464 121.811 103.817 127.309C104.288 134.815 102.734 137.719 101.232 137.719C99.7306 137.719 94.731 137.224 94.232 137.719C93.733 138.213 94.5192 139.488 86.7326 139.772C78.946 140.057 74.3795 139.278 74.3795 137.649C74.3795 136.019 74.3042 125.54 75.8766 120.476C76.2549 119.245 76.4887 117.974 76.5733 116.69C76.7446 114.029 76.4125 111.36 75.5941 108.82C75.4764 108.461 75.3493 108.143 75.2363 107.887C74.2948 105.786 73.6639 105.343 73.6639 105.343C73.2855 105.115 72.8486 105 72.406 105.012C71.9633 105.025 71.5337 105.164 71.1688 105.413C69.8836 106.29 68.7397 107.42 68.3819 105.931C68.1344 104.646 68.1344 103.327 68.3819 102.043C68.3926 101.989 68.4145 101.939 68.4461 101.895C68.4777 101.85 68.5183 101.813 68.5654 101.786C68.6124 101.758 68.6648 101.74 68.7192 101.734C68.7735 101.727 68.8286 101.733 68.8809 101.749C68.8809 101.749 68.6643 87.8713 71.8797 84.6178C75.0951 81.3644 81.0221 79.3059 81.6624 78.0829C82.3026 76.86 83.9456 74.26 83.9456 74.26C84.0113 75.4479 84.3323 76.608 84.8872 77.6628C85.8287 79.5019 94.957 93.3792 94.957 93.3792C94.957 93.3792 96.2563 80.9863 95.8138 78.6057C95.423 76.5099 94.5003 76.0291 94.2885 75.9404C96.5823 76.5311 98.8448 77.2352 101.068 78.0502C104.151 79.1985 107.23 80.6782 107.738 82.1766C108.68 84.9446 111.538 95.9185 112.183 98.4018C112.263 98.7239 112.31 98.9012 112.31 98.9012C112.31 98.9012 112.686 98.5745 112.969 98.7099C113.091 98.7659 113.199 98.9199 113.242 99.2327C113.369 100.255 113.797 103.844 112.296 104.171Z" fill="#C6C6E6"/>
<path d="M95.1575 93.0558L95.0141 94.8C95.0141 94.8 88.6464 87.7682 87.476 85.9598C86.3057 84.1513 87.328 83.8025 87.476 83.1278C87.476 83.013 87.3518 82.7927 87.0891 82.5036C86.415 81.8172 85.697 81.1718 84.9395 80.5712C83.3774 79.286 81.6768 78.0192 81.6768 78.0192C82.3312 76.8396 83.9936 74.26 83.9936 74.26C84.0602 75.428 84.386 76.5689 84.949 77.6061C85.8805 79.4099 95.1575 93.0558 95.1575 93.0558Z" fill="#ACACCE"/>
<path d="M99.0791 84.6375C98.6782 86.0466 94.1978 96.38 94.1978 96.38L94.0657 95.1728L94.1978 93.388C94.1978 93.388 95.4137 80.9174 94.9996 78.522C94.634 76.413 93.7705 75.9292 93.5723 75.84C95.7188 76.4343 97.8361 77.1429 99.9161 77.963C99.9161 77.963 96.3918 81.1664 97.1363 82.1152C97.8808 83.064 99.48 83.2518 99.0791 84.6375Z" fill="#ACACCE"/>
<path d="M73.7472 104.608C73.363 104.391 72.9194 104.281 72.47 104.293C72.0206 104.305 71.5845 104.438 71.2141 104.675C70.3108 105.254 69.4792 105.949 68.9295 105.851C68.681 105.806 68.4946 105.61 68.3847 105.169C68.1335 103.944 68.1335 102.685 68.3847 101.459C68.3956 101.409 68.4178 101.361 68.4499 101.318C68.482 101.276 68.5233 101.241 68.571 101.214C68.6188 101.188 68.672 101.171 68.7271 101.165C68.7823 101.159 68.8382 101.164 68.8913 101.179C68.8913 101.179 71.4292 100.978 71.8259 101.317C72.2225 101.655 73.6516 104.434 73.7376 104.595L73.7472 104.608Z" fill="#ACACCE"/>
<path d="M95.2795 108.23C95.2465 108.301 95.2059 108.369 95.1582 108.431L95.2795 108.23Z" stroke="black" stroke-miterlimit="10"/>
<path d="M92.0878 112.18C92.0434 112.271 92.012 112.369 91.9944 112.469C91.9524 112.213 92.0878 112.18 92.0878 112.18Z" fill="#F9AC8A"/>
<path d="M94.3785 96.174C94.3785 96.174 96.0175 114.487 95.1158 122.12C94.2141 129.753 93.5723 137.46 93.5723 137.46L96.5479 137.26C96.5479 137.26 94.5376 136.384 94.6596 133.317C94.7816 130.251 95.9008 124.142 95.9008 117.665C95.9008 111.188 94.9461 98.4154 95.4712 95.764C95.7125 94.3507 96.1397 92.9668 96.7442 91.64L94.3785 96.174Z" fill="white"/>
<path opacity="0.46" d="M106.26 103.785C106.227 104.457 103.65 107.44 103.65 107.44C103.65 107.44 103.42 107.259 103.096 106.948C102.397 106.28 101.218 105.037 100.923 103.785C100.674 102.815 100.632 99.8832 100.852 97.355C100.852 97.0813 100.904 96.8169 100.937 96.5525C101.157 94.6598 101.552 93.1614 102.148 93.2217C103.589 93.3609 105.218 95.1237 105.218 95.1237C105.218 95.1237 105.349 96.0979 105.514 97.3967C105.823 99.8136 106.26 103.353 106.26 103.785Z" fill="white"/>
<path d="M81.0124 78.21C81.0124 78.21 81.7239 78.3663 81.6743 78.9586C81.6248 79.5509 80.6522 79.7641 80.4946 81.8679C80.337 83.9717 80.1388 84.7582 79.6255 84.4739C79.1122 84.1896 79.3508 82.6213 79.3688 80.9534C79.3868 79.2855 81.0124 78.21 81.0124 78.21Z" fill="#1B2656"/>
<path d="M87.8789 95.5872C86.165 95.564 82.386 92.2222 80.719 88.6995C78.9723 84.9915 79.272 84.6855 79.4031 84.528C79.4425 84.4868 79.4931 84.4578 79.5489 84.4447C79.6046 84.4315 79.663 84.4347 79.7169 84.4538L79.5623 84.8478C79.5985 84.8617 79.6386 84.8617 79.6747 84.8478C79.6992 84.836 79.719 84.8164 79.7309 84.7922C79.7309 84.8385 79.6092 85.3437 81.103 88.5002C82.7981 92.0785 86.474 95.1283 87.8835 95.1469C87.9691 95.1568 88.0556 95.1414 88.1323 95.1026C88.209 95.0638 88.2723 95.0034 88.3144 94.929C88.8294 93.9047 86.9657 87.7586 85.5843 83.879L85.987 83.74C86.3429 84.7458 89.4569 93.608 88.6937 95.1191C88.6224 95.2702 88.5062 95.396 88.3605 95.4797C88.2148 95.5634 88.0467 95.601 87.8789 95.5872Z" fill="#374877"/>
<path d="M87.2286 82.4878C87.2286 82.4878 87.2286 84.2416 86.0232 83.5981C84.8179 82.9546 84.913 80.6253 84.8496 80.58C85.688 81.173 86.4825 81.8102 87.2286 82.4878Z" fill="#1B2656"/>
<path d="M95.0728 113.76H79.8424C79.5418 113.759 79.247 113.676 78.989 113.521C78.7311 113.365 78.5196 113.143 78.3767 112.877L66.0408 90.2886C65.9959 90.2142 65.9602 90.1346 65.9344 90.0515C65.834 89.7915 65.7974 89.511 65.8277 89.2338C65.8581 88.9566 65.9545 88.6909 66.1088 88.4591C66.2631 88.2273 66.4707 88.0364 66.714 87.9025C66.9573 87.7686 67.2292 87.6957 67.5065 87.6899H85.4093C85.7389 87.6917 86.0606 87.7909 86.3344 87.9753C86.6082 88.1596 86.8219 88.4209 86.949 88.7266L91.508 99.3396L96.594 111.315C96.7093 111.575 96.7593 111.86 96.7395 112.144C96.7197 112.428 96.6308 112.703 96.4805 112.944C96.3303 113.186 96.1234 113.386 95.8779 113.529C95.6324 113.671 95.356 113.75 95.0728 113.76Z" fill="#244477"/>
<path d="M95.0445 113.76H79.7653C79.5369 113.761 79.3108 113.713 79.102 113.621C78.7579 113.47 78.4739 113.208 78.2949 112.877L74.3058 105.586L65.9241 90.2971C65.879 90.2227 65.8432 90.1431 65.8174 90.0601C68.7721 95.1718 73.1091 100.827 77.7662 100.711C83.7962 100.553 88.328 99.4285 91.459 99.3449L92.5954 102.003L95.9119 109.722L96.5938 111.316C96.7101 111.578 96.76 111.864 96.739 112.15C96.718 112.436 96.6268 112.712 96.4734 112.954C96.32 113.196 96.1093 113.396 95.86 113.537C95.6107 113.677 95.3306 113.754 95.0445 113.76Z" fill="#203B63"/>
<path opacity="0.68" d="M68.2376 89.9929C67.971 90.5345 69.0661 91.4098 69.4756 91.8837C70.0086 92.4992 70.5863 93.0731 71.204 93.6005C73.6231 95.6389 76.5196 97.0082 79.6128 97.5757C87.6788 99.0603 88.8739 95.9798 87.5693 92.8461C86.2646 89.7124 85.36 89.4899 81.7507 89.3255C78.2796 89.1659 74.7894 89.3835 71.3183 89.5625C70.485 89.6012 69.5851 89.4222 68.7614 89.6544C68.6559 89.6714 68.555 89.7103 68.465 89.7685C68.3749 89.8267 68.2975 89.9031 68.2376 89.9929Z" fill="#2E5793"/>
<path d="M95.9506 109.786C95.8218 111.109 95.4908 112.115 94.8426 112.337C92.8886 113.02 82.7971 112.65 79.2938 113.76C78.9528 113.606 78.6713 113.339 78.4939 113.001L74.54 105.566C75.8917 106.078 78.2686 106.467 82.2592 105.832C87.7762 104.954 90.8427 102.887 92.6679 101.91L95.9506 109.786Z" fill="#1A3049"/>
<path d="M111.018 103.601C110.803 104.31 109.478 108.516 107.884 109.735C107.368 110.116 106.806 110.428 106.211 110.661C104.621 111.315 102.811 111.56 101.908 111.38C100.653 111.134 98.8657 113.557 96.7991 113.719C94.7325 113.881 93.619 113.524 93.619 113.297V113.066C93.619 113.066 93.4999 113.006 93.3441 112.904C93.1274 112.779 92.9373 112.612 92.7851 112.413C92.762 112.382 92.7449 112.348 92.7347 112.311C92.733 112.283 92.733 112.255 92.7347 112.227C92.6888 111.973 92.8263 111.94 92.8263 111.94C92.6006 111.86 92.3988 111.722 92.2398 111.542C92.064 111.337 91.9737 111.071 91.9878 110.8C92.0244 109.939 93.7794 105.862 95.9148 106.07H95.9606C98.0913 106.288 100.877 106.96 102.257 106.65C103.384 106.39 105.006 104.481 105.574 103.763L105.79 103.49C107.529 103.621 109.274 103.658 111.018 103.601Z" fill="white"/>
<path d="M94.4283 112.712C93.9083 112.828 93.3814 112.914 92.8505 112.97C92.8261 112.94 92.8079 112.905 92.7971 112.869C92.7049 112.537 92.8748 112.5 92.8748 112.5C92.6204 112.423 92.3979 112.272 92.2385 112.068C92.0791 111.865 91.9909 111.619 91.9863 111.365C92.0252 110.508 93.8846 106.45 96.147 106.658H96.1955C96.2361 106.963 96.3435 107.257 96.5107 107.521C96.6779 107.784 96.9013 108.012 97.1665 108.189C98.3802 108.903 96.3897 112.292 94.4283 112.712Z" fill="#DDDDDD"/>
<path d="M94.6854 112.643C93.9876 112.831 93.278 112.941 92.565 112.97C92.3424 112.87 92.1433 112.7 91.9863 112.476C92.1852 112.556 92.3895 112.612 92.5967 112.643C93.953 112.861 95.8156 111.493 95.9512 111.39C95.5897 111.898 95.1613 112.322 94.6854 112.643Z" fill="#CECECE"/>
<path d="M95.9512 112.97C95.7149 113.31 95.3854 113.537 95.0224 113.609C94.3706 113.705 93.7146 113.755 93.0579 113.76C93.0579 113.76 92.9372 113.687 92.7793 113.564C93.8492 113.481 94.9107 113.282 95.9512 112.97Z" fill="#CECECE"/>
<path d="M94.8146 110.66C93.6081 111.279 91.4621 111.489 89.3668 111.075C88.4135 110.888 87.2807 111.147 86.3412 111.279C84.6696 111.516 83.0118 111.821 81.3539 112.14C79.6961 112.458 77.9692 112.813 76.2883 113.168C74.3772 113.573 73.0648 114.17 71.1905 113.35C70.0991 112.895 69.3853 108.867 69.1136 107.051C69.0307 106.505 68.9893 106.141 68.9893 106.141C69.5188 106.241 70.3201 105.531 71.1905 104.939C71.5474 104.696 71.9676 104.561 72.4006 104.549C72.8337 104.537 73.261 104.648 73.6312 104.871C73.8965 105.158 74.1427 105.462 74.368 105.781C74.5633 106.029 74.7186 106.305 74.8285 106.6C75.9331 106.98 77.078 107.233 78.2409 107.356C80.3684 107.615 84.4808 106.446 85.3419 106.218C86.2031 105.99 86.682 103.787 89.3253 103.087C91.9687 102.386 94.3311 102.722 94.6442 103.423C94.6918 103.503 94.7184 103.592 94.7218 103.685C94.7251 103.777 94.705 103.868 94.6633 103.951C94.6216 104.033 94.5596 104.104 94.4831 104.156C94.4065 104.209 94.3178 104.242 94.2251 104.252L94.2988 104.561C94.3032 104.585 94.3032 104.61 94.2988 104.634C94.296 104.893 94.2412 105.148 94.1377 105.385C94.2002 105.375 94.2643 105.381 94.3244 105.4C94.3845 105.42 94.4389 105.454 94.483 105.499C94.5006 105.51 94.5161 105.524 94.5291 105.54C94.7317 105.736 94.3817 106.45 94.3495 106.514C94.4609 106.479 94.5781 106.465 94.6949 106.473C94.8144 106.475 94.9309 106.51 95.0311 106.574C95.1313 106.639 95.2111 106.73 95.2613 106.837C95.3274 106.981 95.3577 107.139 95.3497 107.298C95.3417 107.456 95.2956 107.61 95.2152 107.747C95.1827 107.817 95.1425 107.882 95.0955 107.943C95.2037 107.936 95.3124 107.946 95.4179 107.97C95.5266 107.987 95.628 108.035 95.7098 108.108C95.7916 108.18 95.8502 108.275 95.8784 108.38C96.0035 108.823 95.9653 109.296 95.7704 109.713C95.5755 110.131 95.2368 110.467 94.8146 110.66Z" fill="white"/>
<path d="M94.3653 104.671C93.2647 104.462 90.4004 104.62 90.4004 104.62L91.2385 104.517C92.0766 104.41 94.2778 104.28 94.2778 104.28L94.3515 104.596C94.3605 104.62 94.3652 104.645 94.3653 104.671Z" fill="#D7D7D7"/>
<path d="M93.8642 106.929C93.0196 107.276 92.1103 107.45 91.1934 107.44C91.8852 107.384 92.5678 107.249 93.2269 107.038C93.8587 106.809 94.4046 106.4 94.7934 105.865C94.8595 105.855 94.9272 105.86 94.9906 105.881C95.0541 105.901 95.1116 105.936 95.1583 105.983C94.8323 106.415 94.382 106.744 93.8642 106.929Z" fill="#D7D7D7"/>
<path d="M94.7958 106.71C94.544 107.237 94.1976 107.714 93.7736 108.118L93.6807 108.215C93.2439 108.615 92.8629 108.946 92.7793 109.02C93.0995 108.777 93.3994 108.51 93.676 108.219C94.192 107.787 94.6593 107.302 95.07 106.77C95.0959 106.728 95.1254 106.688 95.1582 106.651C95.0346 106.646 94.9114 106.667 94.7958 106.71Z" fill="#D7D7D7"/>
<path d="M95.9512 108.256C95.2096 108.818 94.4145 109.338 93.5723 109.81C93.6096 109.782 93.7483 109.68 94.3244 109.273C94.775 108.95 95.1939 108.602 95.5778 108.232C95.7032 108.226 95.829 108.234 95.9512 108.256Z" fill="#D7D7D7"/>
<path d="M111.531 104.15C111.272 104.202 111.009 104.236 110.745 104.251C109.007 104.311 107.267 104.277 105.532 104.15C105.767 103.264 105.767 102.332 105.532 101.446C105.114 100.192 106.774 100.876 108.325 100.403C109.437 100.031 110.511 99.5513 111.531 98.9706C111.531 98.9706 112.291 98.3002 112.441 99.2966C112.591 100.293 112.982 103.829 111.531 104.15Z" fill="#ACACCE"/>
<path d="M106.26 102.305C106.26 102.96 105.71 103.49 105.073 103.49C104.436 103.49 103.881 102.96 103.881 102.305C103.881 101.65 104.43 101.12 105.073 101.12C105.716 101.12 106.26 101.646 106.26 102.305Z" fill="#1B2656"/>
<path d="M107.053 102.305C107.053 102.96 106.502 103.49 105.863 103.49C105.225 103.49 104.674 102.96 104.674 102.305C104.674 101.65 105.225 101.12 105.863 101.12C106.502 101.12 107.053 101.646 107.053 102.305Z" fill="#244477"/>
<path d="M99.7376 78.21C99.7376 78.21 103.291 88.758 104.413 93.2739C105.077 95.8354 105.431 98.4704 105.467 101.12H104.728C104.575 97.3468 103.975 93.6065 102.94 89.9815C101.313 84.7287 99.123 78.8335 99.123 78.8335L99.7376 78.21Z" fill="#1B2656"/>
<path d="M94.116 72.0701C94.116 72.0701 91.8135 74.5145 89.597 73.5723C87.3805 72.6301 84.0557 70.3101 84.0557 70.3101V70.3412L84.0843 70.6967C85.5174 72.2701 89.2722 76.1367 91.3979 76.6301C91.5103 76.6267 91.6215 76.6073 91.7275 76.5723C92.9982 76.1634 93.8581 74.9945 94.3644 74.0212C94.2397 73.376 94.1567 72.7245 94.116 72.0701Z" fill="#E6E6E6"/>
<path d="M95.1378 52.2461C94.9275 53.209 93.1193 55.1768 93.1193 55.1768C90.7487 55.6641 88.4207 56.3394 86.1573 57.1961C84.9142 57.732 83.6236 58.1498 82.3024 58.4442C82.1489 58.4743 81.9899 58.4614 81.8432 58.407C81.6964 58.3526 81.5676 58.2587 81.4707 58.1357C80.9054 57.4298 79.8307 55.9154 80.1484 54.9618C80.3982 54.3547 80.7834 53.8127 81.2745 53.3772C82.5641 52.1339 84.9518 50.7877 88.5916 50.6054C91.7876 50.4465 93.5725 50.7222 94.451 51.171C95.0444 51.4748 95.2219 51.8581 95.1378 52.2461Z" fill="#C6C6E6"/>
<path opacity="0.63" d="M95.1575 51.1658C94.7709 51.7678 93.3535 52.3134 92.3513 52.6285C90.4663 53.2306 83.0357 55.0132 82.1576 54.3735C81.9969 54.266 81.8681 54.1183 81.7843 53.9456C81.7004 53.7729 81.6646 53.5813 81.6804 53.3905C82.9976 52.1394 85.4362 50.7848 89.1539 50.6013C92.4372 50.4508 94.2603 50.7283 95.1575 51.1658Z" fill="#898CC7"/>
<path d="M78.5053 153.26H69.1124L68.619 151.689L67.8649 148.906C67.8169 148.732 67.753 148.564 67.6741 148.403C66.3289 145.737 60.3478 142.736 59.0864 140.987C57.7459 139.135 58.0251 134.874 55.9073 132.429C53.7895 129.984 52.8027 125.724 53.2263 122.903C53.6498 120.081 56.4007 122.729 57.3223 124.313C58.2439 125.898 58.8025 126.862 61.7721 128.207C64.7417 129.551 65.9333 130.436 66.7804 134.287C67.182 136.241 68.0018 138.084 69.1822 139.685C70.2459 141.076 71.4799 142.326 72.8547 143.404C76.1734 146.099 78.5053 153.26 78.5053 153.26Z" fill="#4D4E74"/>
<path opacity="0.52" d="M74.362 153.26C72.4865 149.287 70.1927 145.54 67.5222 142.088C63.1585 136.505 58.6807 130.35 58.6807 130.35C58.6807 130.35 61.029 132.851 62.3286 134.569C63.6281 136.288 69.4511 143.372 71.804 147.28C74.1568 151.188 75.3333 153.26 75.3333 153.26H74.362Z" fill="#6667AB"/>
<path d="M53.3361 107.44H44.2012C43.4391 107.44 42.8213 108.04 42.8213 108.78V113.21C42.8213 113.95 43.4391 114.55 44.2012 114.55H53.3361C54.0982 114.55 54.716 113.95 54.716 113.21V108.78C54.716 108.04 54.0982 107.44 53.3361 107.44Z" fill="#6667AB"/>
<path d="M51.544 109.72H50.0448V108.23H48.2808V109.72H46.7861V111.479H48.2808V112.97H50.0448V111.479H51.544V109.72Z" fill="white"/>
<path d="M46.4435 107.426H45.9932C45.9932 107.394 46.182 104.283 49.2716 104.283C49.6662 104.266 50.0604 104.326 50.4295 104.461C50.7986 104.596 51.1347 104.803 51.4169 105.068C52.0128 105.726 52.3397 106.569 52.337 107.44H51.8866C51.8825 106.685 51.6013 105.955 51.0925 105.379C50.8512 105.157 50.5652 104.985 50.2521 104.873C49.939 104.761 49.6053 104.712 49.2716 104.729C46.6082 104.701 46.4484 107.315 46.4435 107.426Z" fill="#619093"/>
<path d="M47.4128 64.78H41.4018C40.8719 64.78 40.4424 65.208 40.4424 65.7359V71.7242C40.4424 72.2521 40.8719 72.68 41.4018 72.68H47.4128C47.9426 72.68 48.3722 72.2521 48.3722 71.7242V65.7359C48.3722 65.208 47.9426 64.78 47.4128 64.78Z" fill="#6667AB"/>
<path d="M46.7862 68.3937H45.5393V67.15H44.0682V68.3937H42.8213V69.861H44.0682V71.1H45.5393V69.861H46.7862V68.3937Z" fill="white"/>
<path d="M45.9932 61.62H42.0283V64.78H45.9932V61.62Z" fill="#8787BD"/>
<path d="M45.9932 64.4321V64.78H42.0283V63.99C42.6511 64.2558 43.3624 64.3822 44.0779 64.3541C44.7178 64.3534 45.3572 64.3794 45.9932 64.4321Z" fill="#5C5D96"/>
<path d="M47.1061 70.3101L48.3721 72.7454L46.303 74.0691C46.0141 74.2565 45.6702 74.3085 45.3469 74.2138C45.0236 74.1191 44.7473 73.8853 44.5787 73.5639C44.4306 73.2783 44.3761 72.9444 44.4244 72.619C44.4291 72.5759 44.4383 72.5336 44.4516 72.4927C44.4934 72.3136 44.5672 72.1457 44.6686 71.999C44.7699 71.8523 44.8967 71.7298 45.0415 71.6389L47.1061 70.3101Z" fill="#8787BD"/>
<path d="M50.863 69.7676C50.8344 69.6814 50.7968 69.5984 50.751 69.52C50.7977 69.598 50.8353 69.681 50.863 69.7676Z" fill="#EA3453"/>
<path d="M50.7102 70.4961C50.6206 70.8554 50.4088 71.1618 50.1198 71.3504L48.0533 72.68L46.7861 70.2433L48.8526 68.9138C49.07 68.7768 49.3188 68.7141 49.5679 68.7334C49.8171 68.7528 50.0556 68.8534 50.2538 69.0227C50.4519 69.192 50.6008 69.4225 50.682 69.6854C50.7632 69.9483 50.773 70.2321 50.7102 70.5012V70.4961Z" fill="white"/>
<path opacity="0.13" d="M51.5005 70.3101C51.5752 70.5773 51.5534 70.86 51.4383 71.1146C51.3232 71.3692 51.1213 71.5817 50.8635 71.7193L46.4434 74.0906C46.2208 74.2102 45.9663 74.2686 45.7093 74.259C45.4524 74.2494 45.2037 74.1722 44.9922 74.0363C44.7807 73.9005 44.6152 73.7116 44.5148 73.4917C44.4145 73.2718 44.3835 73.0299 44.4254 72.7943C45.3396 73.0653 46.7303 73.124 48.5538 72.1981C49.617 71.6855 50.607 71.0512 51.5005 70.3101Z" fill="black"/>
<path d="M173.663 56.9802C173.663 57.8077 173.405 58.6144 172.924 59.2863C172.77 59.4989 172.597 59.6965 172.406 59.8767L172.36 59.9228C172.349 59.9362 172.337 59.9486 172.323 59.9597V61.6201H167.151V60.0289C166.708 59.6538 166.351 59.1858 166.106 58.6576C165.861 58.1294 165.734 57.5537 165.733 56.971C165.732 56.6713 165.766 56.3725 165.834 56.0808C165.912 55.7304 166.041 55.3932 166.215 55.08C166.694 54.1805 167.499 53.5014 168.464 53.1844V50.5601H170.8V53.1475L170.869 53.1706H170.891C171.697 53.4254 172.401 53.9325 172.9 54.618C173.398 55.3034 173.666 56.1311 173.663 56.9802Z" fill="#E8E8F2"/>
<path d="M170.711 53.7843L170.491 53.7236C170.541 53.7188 170.591 53.7188 170.641 53.7236V53.7516L170.711 53.7843Z" fill="#7DD8D5"/>
<path d="M170.692 50.5601H168.704C168.377 50.5601 168.112 50.9138 168.112 51.3501C168.112 51.7864 168.377 52.1401 168.704 52.1401H170.692C171.019 52.1401 171.284 51.7864 171.284 51.3501C171.284 50.9138 171.019 50.5601 170.692 50.5601Z" fill="#DCDCEF"/>
<path d="M188.622 96.3375L181.657 103.341C181.522 103.45 181.347 103.503 181.171 103.487C180.995 103.472 180.833 103.39 180.719 103.26L178.684 101.386C178.543 101.282 178.451 101.129 178.427 100.959C178.403 100.79 178.45 100.619 178.557 100.483L185.517 93.4792C185.594 93.4031 185.695 93.3538 185.804 93.3392L186.249 93.276L187.722 93.0638C187.832 93.0532 187.935 93.0052 188.013 92.9283L189.936 90.9957C189.991 90.9406 190.06 90.8991 190.136 90.8748C190.212 90.8504 190.293 90.8439 190.372 90.8557C190.549 90.8796 190.714 90.9589 190.841 91.0815C190.911 91.1322 190.971 91.1959 191.016 91.2688C191.061 91.3418 191.09 91.4226 191.102 91.5066C191.114 91.5906 191.109 91.6761 191.087 91.7582C191.064 91.8402 191.025 91.9172 190.972 91.9846L189.049 93.9217C188.973 93.9974 188.926 94.0964 188.918 94.2017L188.716 96.0575C188.718 96.1583 188.685 96.2569 188.622 96.3375Z" fill="#E8E8F2"/>
<path d="M187.533 95.8338L187.329 96.0384L186.717 95.4824L184.245 97.96L183.972 97.7109L187.668 94.01L187.937 94.2591L186.926 95.2733L187.533 95.8338Z" fill="white"/>
<path d="M184.347 97.4886L181.593 100.33L181.865 100.592L184.619 97.7505L184.347 97.4886Z" fill="#6667AB"/>
<path d="M181.459 101.518C181.378 101.66 181.255 101.772 181.107 101.84C180.959 101.907 180.795 101.927 180.636 101.895C180.477 101.863 180.331 101.782 180.22 101.663C180.109 101.544 180.037 101.392 180.014 101.23C179.992 101.067 180.02 100.901 180.095 100.755C180.169 100.61 180.287 100.491 180.431 100.417C180.576 100.342 180.739 100.314 180.9 100.338C181.06 100.362 181.209 100.436 181.326 100.55C181.468 100.662 181.561 100.826 181.586 101.006C181.611 101.187 181.566 101.37 181.459 101.518Z" fill="#6667AB"/>
<path d="M182.175 102.85L181.699 103.34C181.562 103.45 181.385 103.503 181.207 103.487C181.028 103.472 180.864 103.39 180.749 103.258L178.687 101.374C178.545 101.27 178.451 101.116 178.427 100.946C178.403 100.775 178.45 100.603 178.559 100.466L185.61 93.4243C185.687 93.3478 185.789 93.2982 185.899 93.2835L186.351 93.22C183.025 96.0031 178.692 100.148 180.355 101.669C180.871 102.177 181.49 102.579 182.175 102.85Z" fill="#6667AB"/>
<path d="M190.986 92.0118L190.58 92.43L189.522 91.4198L189.924 91.0016C189.98 90.9442 190.049 90.9011 190.126 90.8758C190.202 90.8504 190.284 90.8436 190.363 90.8559C190.542 90.8808 190.708 90.9633 190.835 91.0909C190.977 91.1943 191.071 91.3485 191.1 91.5207C191.128 91.6928 191.087 91.8691 190.986 92.0118Z" fill="#6667AB"/>
<path d="M164.94 77.025C164.94 77.2593 164.871 77.4884 164.74 77.6833C164.609 77.8782 164.424 78.0301 164.206 78.1198C163.989 78.2095 163.75 78.2329 163.519 78.1872C163.288 78.1415 163.076 78.0286 162.91 77.8629C162.744 77.6972 162.63 77.486 162.584 77.2561C162.538 77.0263 162.562 76.788 162.652 76.5715C162.742 76.355 162.895 76.1699 163.09 76.0397C163.286 75.9095 163.516 75.84 163.751 75.84C164.066 75.84 164.369 75.9648 164.592 76.187C164.815 76.4093 164.94 76.7107 164.94 77.025Z" fill="white"/>
<path d="M164.148 85.715C164.148 85.9494 164.078 86.1785 163.947 86.3734C163.816 86.5683 163.631 86.7201 163.413 86.8098C163.196 86.8995 162.957 86.923 162.726 86.8773C162.495 86.8315 162.283 86.7187 162.117 86.5529C161.951 86.3872 161.837 86.1761 161.791 85.9462C161.746 85.7163 161.769 85.4781 161.859 85.2616C161.949 85.045 162.102 84.8599 162.297 84.7297C162.493 84.5995 162.723 84.53 162.958 84.53C163.274 84.53 163.576 84.6549 163.799 84.8771C164.022 85.0993 164.148 85.4007 164.148 85.715Z" fill="white"/>
<path d="M173.663 76.235C173.663 76.4694 173.593 76.6985 173.463 76.8934C173.332 77.0883 173.146 77.2402 172.929 77.3298C172.711 77.4195 172.472 77.443 172.242 77.3973C172.011 77.3516 171.799 77.2387 171.633 77.073C171.466 76.9072 171.353 76.6961 171.307 76.4662C171.261 76.2364 171.285 75.9981 171.375 75.7816C171.465 75.565 171.617 75.38 171.813 75.2498C172.008 75.1195 172.238 75.05 172.474 75.05C172.789 75.0512 173.091 75.1764 173.313 75.3984C173.536 75.6204 173.662 75.9211 173.663 76.235Z" fill="white"/>
<path d="M106.26 150.495C106.26 150.729 106.19 150.959 106.059 151.153C105.929 151.348 105.743 151.5 105.526 151.59C105.308 151.68 105.069 151.703 104.838 151.657C104.608 151.612 104.396 151.499 104.229 151.333C104.063 151.167 103.95 150.956 103.904 150.726C103.858 150.496 103.881 150.258 103.971 150.042C104.061 149.825 104.214 149.64 104.409 149.51C104.605 149.38 104.835 149.31 105.07 149.31C105.386 149.31 105.688 149.435 105.911 149.657C106.134 149.879 106.26 150.181 106.26 150.495Z" fill="white"/>
<path d="M106.656 137.46C107.313 137.46 107.846 136.929 107.846 136.275C107.846 135.621 107.313 135.09 106.656 135.09C105.999 135.09 105.467 135.621 105.467 136.275C105.467 136.929 105.999 137.46 106.656 137.46Z" fill="white"/>
<path d="M113.397 144.57C113.397 144.726 113.35 144.879 113.263 145.009C113.176 145.139 113.052 145.24 112.907 145.3C112.762 145.36 112.603 145.375 112.449 145.345C112.295 145.314 112.154 145.239 112.043 145.129C111.932 145.018 111.856 144.877 111.826 144.724C111.795 144.571 111.811 144.412 111.871 144.268C111.931 144.123 112.033 144 112.163 143.913C112.293 143.826 112.447 143.78 112.604 143.78C112.814 143.78 113.016 143.863 113.164 144.011C113.313 144.16 113.397 144.361 113.397 144.57Z" fill="white"/>
<path d="M53.1299 86.5007C53.1308 86.7352 53.0617 86.9647 52.9315 87.1602C52.8014 87.3556 52.6159 87.5082 52.3986 87.5985C52.1813 87.6889 51.942 87.7129 51.711 87.6677C51.48 87.6225 51.2677 87.5099 51.1009 87.3444C50.9341 87.1788 50.8204 86.9677 50.7741 86.7377C50.7279 86.5077 50.7512 86.2692 50.8411 86.0525C50.931 85.8357 51.0835 85.6504 51.2792 85.52C51.4749 85.3896 51.705 85.3199 51.9404 85.3199C52.2552 85.3199 52.5571 85.4442 52.78 85.6655C53.003 85.8868 53.1288 86.1871 53.1299 86.5007Z" fill="white"/>
<path d="M70.5752 67.94C70.5752 68.0963 70.5287 68.249 70.4416 68.3789C70.3544 68.5088 70.2306 68.6101 70.0857 68.6699C69.9408 68.7297 69.7814 68.7453 69.6275 68.7148C69.4737 68.6844 69.3324 68.6091 69.2215 68.4986C69.1106 68.3882 69.0351 68.2474 69.0045 68.0941C68.9739 67.9409 68.9896 67.7821 69.0496 67.6377C69.1096 67.4934 69.2113 67.37 69.3417 67.2832C69.4721 67.1964 69.6254 67.15 69.7822 67.15C69.9926 67.15 70.1943 67.2333 70.343 67.3814C70.4917 67.5296 70.5752 67.7305 70.5752 67.94Z" fill="white"/>
<path opacity="0.58" d="M172.87 61.62C172.841 61.6495 172.807 61.6706 172.778 61.6958V61.7169C171.894 62.0253 170.953 62.1895 170 62.2014C168.207 62.1762 168.754 62.568 169.617 62.6733C170.67 62.7263 171.725 62.7263 172.778 62.6733V63.2H167.319V61.7675C167.785 61.9186 168.277 61.9985 168.774 62.0034C170.154 62.0567 171.535 61.9274 172.87 61.62Z" fill="#DCDCEF"/>
<path d="M90.4004 53.7547H89.5752V52.9301H88.8467V53.7547H88.0215V54.4794H88.8467V55.3001H89.5752V54.4794H90.4004V53.7547Z" fill="white"/>
</svg>
