<svg width="226" height="158" viewBox="0 0 226 158" fill="none" xmlns="http://www.w3.org/2000/svg">
<path d="M207.487 91.828C202.312 84.6168 191.346 80.7529 191.061 69.9466C190.876 62.9245 194.069 59.1184 188.958 53.1242C176.602 38.6344 157.572 36.9366 141.32 42.9895C125.068 49.0423 112.089 61.1698 94.0259 60.4387C84.1903 60.0447 75.0513 55.3823 65.3139 54.5076C62.3143 54.2388 59.511 54.4691 56.89 55.1398C47.0649 57.6518 38.3886 67.0861 35.1218 77.5676C32.471 86.0632 35.857 94.4547 31.699 102.773C27.2675 111.64 18.5378 117.799 16.34 128.037C13.7006 140.325 23.7886 151.011 34.617 151.345C41.5109 151.558 54.2909 150.459 60.1481 146.212C67.2803 141.042 74.2898 140.702 82.6042 140.899C98.4276 141.277 114.249 144.831 129.868 147.361C143.252 149.53 156.443 152.741 170.003 153.149C179.964 153.448 188.418 153.586 193.808 142.783C200.254 129.874 218.339 106.954 207.487 91.828Z" fill="#E8E8F2"/>
<path d="M20.8621 144.278C25.2024 141.58 51.3325 126.993 74.8031 150.63C74.8031 150.63 61.0437 164.947 21.0112 145.069C20.6595 144.895 20.5779 144.454 20.8621 144.278Z" fill="#AFB6E5"/>
<path d="M26.3701 145.212C26.3701 145.212 29.0191 144.871 33.0073 144.52C34.004 144.434 35.0852 144.347 36.2292 144.261C37.3732 144.174 38.5834 144.096 39.8294 144.024C41.0754 143.952 42.3703 143.891 43.6834 143.838C44.9966 143.786 46.3315 143.752 47.6674 143.728C48.3353 143.717 49.0032 143.708 49.6685 143.708C50.3338 143.708 50.9964 143.709 51.6539 143.713C52.9688 143.722 54.2628 143.756 55.5157 143.799C56.1418 143.82 56.7574 143.858 57.3599 143.886C57.9624 143.914 58.551 143.964 59.1247 144.001C59.6985 144.038 60.2583 144.096 60.7936 144.141C61.329 144.186 61.8522 144.252 62.3518 144.304C62.8514 144.356 63.3275 144.427 63.7818 144.483C64.0085 144.514 64.2308 144.54 64.4453 144.569L65.0688 144.669C65.8771 144.788 66.5772 144.928 67.1536 145.038C67.4431 145.089 67.6986 145.149 67.9218 145.2L68.4868 145.328L68.9585 145.435C69.0029 145.443 69.0451 145.459 69.0827 145.484C69.1203 145.508 69.1525 145.54 69.1774 145.578C69.2022 145.615 69.2192 145.657 69.2272 145.701C69.2353 145.745 69.2342 145.79 69.2242 145.834C69.2142 145.877 69.1953 145.918 69.1688 145.954C69.1423 145.99 69.1087 146.021 69.07 146.044C69.0313 146.067 68.9884 146.082 68.9437 146.087C68.8991 146.093 68.8537 146.09 68.8103 146.078H68.7981L68.3351 145.969L67.7797 145.839C67.5608 145.787 67.3105 145.725 67.0254 145.673C66.4569 145.559 65.7689 145.413 64.9702 145.289L64.3538 145.185C64.1419 145.151 63.9178 145.124 63.6981 145.091C63.2482 145.031 62.7782 144.953 62.282 144.901C61.7859 144.849 61.2732 144.777 60.7387 144.728C60.2042 144.678 59.6505 144.62 59.082 144.574C58.5135 144.527 57.9267 144.482 57.3285 144.445C56.7304 144.408 56.1174 144.369 55.4974 144.341C54.2514 144.284 52.9627 144.238 51.653 144.217C50.9973 144.205 50.3373 144.195 49.6737 144.195C49.0102 144.195 48.3449 144.195 47.6796 144.195C46.3472 144.203 45.0158 144.233 43.7052 144.268C42.3947 144.304 41.1042 144.355 39.8573 144.421C38.6105 144.486 37.4037 144.549 36.2606 144.624C35.1174 144.698 34.038 144.777 33.0422 144.855C29.0565 145.17 26.4102 145.487 26.4102 145.487C26.3743 145.489 26.339 145.477 26.3114 145.454C26.2839 145.431 26.2661 145.399 26.2618 145.364C26.2574 145.328 26.2669 145.292 26.2881 145.264C26.3094 145.235 26.3409 145.215 26.3762 145.209L26.3701 145.212Z" fill="#6667AB"/>
<path d="M44.9127 68.3753C52.983 72.7709 98.9103 100.311 81.0626 148.472C81.0626 148.472 46.2055 138.204 43.7679 69.0883C43.764 68.9507 43.7959 68.8145 43.8606 68.6933C43.9253 68.5722 44.0205 68.4704 44.1365 68.3981C44.2525 68.3258 44.3853 68.2857 44.5216 68.2817C44.6578 68.2777 44.7927 68.31 44.9127 68.3753Z" fill="#AFB6E5"/>
<path d="M48.7885 77.0625C48.7885 77.0625 51.5536 80.5248 55.492 85.8785C56.477 87.2167 57.5344 88.673 58.6415 90.2218C59.7486 91.7706 60.9079 93.4119 62.0848 95.1227C63.2616 96.8336 64.4698 98.6106 65.6797 100.426L67.4876 103.181C68.0821 104.112 68.6897 105.04 69.2781 105.979C69.8665 106.918 70.4637 107.854 71.0364 108.798L71.9011 110.208C72.1835 110.678 72.4648 111.148 72.7449 111.617L73.58 113.018L74.389 114.416C74.9303 115.341 75.4437 116.266 75.9511 117.174C76.9649 118.991 77.9098 120.769 78.7772 122.47C79.6445 124.172 80.4334 125.798 81.1238 127.316C81.4821 128.07 81.7942 128.806 82.0958 129.505L82.5369 130.524C82.6763 130.857 82.7984 131.184 82.9283 131.499C83.1767 132.131 83.4225 132.717 83.6256 133.269L84.1748 134.788C84.2567 135.018 84.3346 135.235 84.4084 135.44C84.4822 135.645 84.5438 135.839 84.5932 136.023L84.8861 136.941L85.1293 137.705C85.1438 137.747 85.1498 137.792 85.1469 137.837C85.1441 137.881 85.1325 137.925 85.1127 137.965C85.093 138.005 85.0656 138.041 85.032 138.07C84.9985 138.099 84.9596 138.121 84.9175 138.135C84.8754 138.148 84.8311 138.153 84.787 138.15C84.743 138.146 84.7001 138.133 84.661 138.112C84.6219 138.091 84.5872 138.063 84.5591 138.029C84.531 137.994 84.51 137.954 84.4973 137.911L84.493 137.897C84.493 137.897 84.411 137.633 84.2559 137.141C84.1792 136.893 84.0844 136.589 83.9717 136.231L83.7913 135.654L83.5637 135.008L83.0285 133.499C82.8306 132.951 82.5926 132.367 82.3468 131.737C82.2222 131.423 82.0993 131.098 81.9633 130.767L81.5274 129.751C81.231 129.056 80.9251 128.322 80.5729 127.57C79.8938 126.056 79.1163 124.435 78.2629 122.735C77.4095 121.034 76.4758 119.259 75.4734 117.441C74.9756 116.534 74.4692 115.608 73.9296 114.685C73.6646 114.222 73.3981 113.755 73.1302 113.286L72.3056 111.884L71.4705 110.474L70.6153 109.064C70.0487 108.118 69.4577 107.182 68.8719 106.24C68.2861 105.298 67.6881 104.37 67.0997 103.437C66.5113 102.505 65.902 101.587 65.3092 100.676C64.1097 98.8564 62.9207 97.0715 61.7474 95.3597C60.5741 93.648 59.4365 91.9979 58.3408 90.4403C57.245 88.8827 56.1937 87.4255 55.2174 86.0838C51.3113 80.7098 48.5689 77.2404 48.5689 77.2404C48.5476 77.2109 48.5384 77.1741 48.5433 77.1378C48.5482 77.1016 48.5667 77.0686 48.5951 77.0459C48.6235 77.0231 48.6594 77.0123 48.6955 77.0158C48.7315 77.0192 48.7649 77.0366 48.7885 77.0642V77.0625Z" fill="#6667AB"/>
<path d="M23.027 98.4588C30.6764 99.5434 74.9365 107.685 74.8021 150.842C74.8021 150.842 44.2924 153.028 22.3295 99.3581C22.2862 99.2509 22.2716 99.1342 22.2875 99.0196C22.3033 98.905 22.3489 98.7966 22.4196 98.7054C22.4903 98.6142 22.5837 98.5434 22.6904 98.5001C22.797 98.4568 22.9131 98.4425 23.027 98.4588Z" fill="#6667AB"/>
<path d="M28.8699 104.036C28.8699 104.036 32.0828 105.933 36.7838 108.964C37.9591 109.721 39.2268 110.549 40.5615 111.436C41.8962 112.323 43.2979 113.265 44.7356 114.258C46.1734 115.25 47.6535 116.286 49.1476 117.35L51.3933 118.974C52.1386 119.528 52.8909 120.075 53.6363 120.636C54.3816 121.198 55.1287 121.755 55.8608 122.325C56.5929 122.895 57.3285 123.457 58.0456 124.03C58.4062 124.314 58.7645 124.598 59.1204 124.881L60.1732 125.737C60.878 126.3 61.5537 126.874 62.2233 127.434C63.5624 128.558 64.8345 129.672 66.023 130.748C67.2114 131.825 68.3136 132.864 69.3091 133.85C69.8148 134.334 70.2782 134.819 70.7187 135.276L71.3688 135.945C71.5767 136.165 71.7723 136.382 71.9653 136.592C72.3476 137.014 72.715 137.4 73.0383 137.772L73.9193 138.801L74.2955 139.238L74.6144 139.639L75.1157 140.272L75.5341 140.796C75.5852 140.866 75.6069 140.953 75.5949 141.039C75.5829 141.124 75.538 141.202 75.4697 141.255C75.4014 141.308 75.3149 141.333 75.2283 141.325C75.1418 141.316 75.062 141.275 75.0056 141.209L74.9967 141.198L74.588 140.673L74.0973 140.045L73.7854 139.647L73.4163 139.21L72.5502 138.188C72.2331 137.817 71.8719 137.432 71.493 137.011C71.3028 136.803 71.1098 136.585 70.9054 136.366L70.2649 135.698C69.8245 135.241 69.369 134.757 68.8703 134.273C67.888 133.287 66.7965 132.246 65.6221 131.167C64.4478 130.088 63.1862 128.972 61.8603 127.844C61.196 127.28 60.523 126.707 59.827 126.138L58.783 125.278L57.717 124.422C57.0061 123.847 56.2792 123.278 55.5489 122.709C54.8186 122.14 54.0785 121.572 53.3403 121.009C52.602 120.445 51.8523 119.892 51.1122 119.336L48.8816 117.7C47.3962 116.627 45.9285 115.579 44.496 114.583C43.0635 113.587 41.6707 112.634 40.3448 111.738C39.0189 110.842 37.7573 110.008 36.5874 109.244C31.9119 106.183 28.7166 104.272 28.7166 104.272C28.6842 104.253 28.6609 104.222 28.6517 104.186C28.6426 104.149 28.6483 104.111 28.6677 104.079C28.6871 104.047 28.7185 104.023 28.7551 104.014C28.7917 104.005 28.8305 104.011 28.8628 104.03L28.8699 104.036Z" fill="#8586C1"/>
<path d="M205.934 144.278C201.594 141.58 175.464 126.993 151.993 150.63C151.993 150.63 165.752 164.947 205.785 145.069C206.137 144.895 206.218 144.454 205.934 144.278Z" fill="#AFB6E5"/>
<path d="M200.435 145.217C200.435 145.217 197.784 144.875 193.793 144.522C192.795 144.436 191.713 144.349 190.564 144.262C189.415 144.175 188.208 144.097 186.961 144.025C185.715 143.953 184.419 143.892 183.105 143.839C181.791 143.786 180.454 143.752 179.118 143.728C178.45 143.717 177.781 143.708 177.111 143.708C176.441 143.708 175.782 143.709 175.124 143.713C173.808 143.722 172.513 143.756 171.26 143.8C170.633 143.82 170.017 143.859 169.414 143.886C168.811 143.914 168.222 143.964 167.648 144.002C167.074 144.039 166.514 144.097 165.978 144.142C165.442 144.187 164.919 144.253 164.419 144.305C163.919 144.358 163.443 144.43 162.988 144.485C162.761 144.516 162.539 144.542 162.324 144.572L161.7 144.672C160.89 144.791 160.19 144.932 159.614 145.042C159.324 145.093 159.068 145.153 158.845 145.204L158.28 145.333L157.808 145.44C157.725 145.462 157.654 145.516 157.61 145.589C157.567 145.662 157.553 145.75 157.572 145.833C157.591 145.916 157.642 145.988 157.713 146.035C157.785 146.082 157.872 146.1 157.956 146.085H157.968L158.431 145.976L158.987 145.845C159.205 145.793 159.457 145.731 159.742 145.678C160.311 145.565 160.999 145.418 161.799 145.294L162.416 145.19C162.628 145.155 162.852 145.128 163.072 145.095C163.522 145.035 163.992 144.956 164.489 144.904C164.985 144.852 165.498 144.78 166.033 144.731C166.568 144.681 167.122 144.623 167.691 144.576C168.26 144.529 168.847 144.484 169.446 144.447C170.044 144.41 170.658 144.371 171.278 144.343C172.525 144.286 173.814 144.24 175.125 144.219C175.781 144.207 176.442 144.196 177.106 144.196C177.77 144.196 178.436 144.196 179.101 144.196C180.435 144.204 181.767 144.234 183.079 144.27C184.39 144.305 185.681 144.357 186.929 144.423C188.177 144.489 189.385 144.552 190.528 144.627C191.672 144.701 192.753 144.78 193.749 144.858C197.738 145.174 200.386 145.492 200.386 145.492C200.422 145.494 200.457 145.482 200.485 145.459C200.512 145.436 200.53 145.404 200.534 145.368C200.539 145.333 200.529 145.297 200.508 145.268C200.487 145.239 200.455 145.22 200.42 145.213L200.435 145.217Z" fill="#6667AB"/>
<path d="M178.741 67.5916C171.741 71.9113 132.026 98.7166 150.465 140.533C150.465 140.533 181.149 129.619 179.802 68.1672C179.799 68.0446 179.764 67.925 179.7 67.8204C179.636 67.7158 179.546 67.6299 179.438 67.5715C179.33 67.5131 179.209 67.4842 179.087 67.4877C178.964 67.4912 178.845 67.5271 178.741 67.5916Z" fill="#AFB6E5"/>
<path d="M175.845 75.6386C175.845 75.6386 173.591 78.8288 170.4 83.7445C169.601 84.9735 168.742 86.3107 167.851 87.7308C166.96 89.1508 166.019 90.6547 165.074 92.2223C164.129 93.7899 163.155 95.4134 162.186 97.0735L160.738 99.589C160.264 100.438 159.779 101.285 159.309 102.142C158.839 102.999 158.364 103.851 157.914 104.711C157.463 105.571 156.998 106.422 156.559 107.277C156.338 107.703 156.117 108.127 155.899 108.55C155.68 108.973 155.467 109.397 155.26 109.82C154.833 110.659 154.431 111.497 154.032 112.321C153.237 113.969 152.501 115.577 151.829 117.112C151.158 118.647 150.552 120.112 150.027 121.476C149.753 122.153 149.52 122.813 149.292 123.439L148.961 124.353C148.857 124.651 148.764 124.942 148.67 125.226C148.487 125.79 148.302 126.313 148.155 126.805L147.757 128.157L147.588 128.735C147.541 128.919 147.498 129.091 147.458 129.251L147.252 130.064C147.14 130.505 147.078 130.74 147.078 130.74V130.754C147.056 130.84 147.001 130.913 146.925 130.958C146.849 131.003 146.759 131.016 146.673 130.995C146.588 130.973 146.515 130.918 146.47 130.842C146.424 130.766 146.411 130.676 146.433 130.59L146.608 129.906C146.665 129.682 146.737 129.407 146.82 129.084C146.862 128.922 146.908 128.748 146.956 128.56C147.005 128.372 147.063 128.177 147.131 127.976L147.541 126.613C147.693 126.117 147.882 125.59 148.07 125.022C148.167 124.74 148.262 124.445 148.368 124.15C148.475 123.854 148.592 123.546 148.709 123.231C148.941 122.603 149.18 121.94 149.46 121.26C149.998 119.89 150.616 118.423 151.299 116.884C151.982 115.345 152.732 113.736 153.54 112.088C153.944 111.264 154.353 110.425 154.787 109.586L155.435 108.318C155.656 107.895 155.88 107.471 156.105 107.045C156.549 106.19 157.012 105.337 157.478 104.481C157.945 103.626 158.421 102.77 158.896 101.915C159.37 101.06 159.863 100.215 160.343 99.3673L161.809 96.8562C162.791 95.1978 163.767 93.5752 164.73 92.0155C165.694 90.4557 166.636 88.9545 167.538 87.537C168.44 86.1195 169.308 84.7876 170.113 83.5621C173.34 78.6603 175.616 75.4788 175.616 75.4788C175.639 75.4511 175.671 75.4331 175.707 75.4283C175.742 75.4236 175.778 75.4326 175.807 75.4535C175.837 75.4744 175.857 75.5055 175.864 75.5407C175.871 75.5759 175.864 75.6124 175.845 75.6429V75.6386Z" fill="#6667AB"/>
<path d="M196.886 108.774C191.034 109 156.894 111.913 150.401 149.121C150.401 149.121 172.743 153.834 197.266 109.614C197.481 109.225 197.27 108.757 196.886 108.774Z" fill="#6667AB"/>
<path d="M191.713 113.004C191.713 113.004 189.042 114.426 185.123 116.724C184.144 117.299 183.086 117.927 181.973 118.602C180.861 119.276 179.691 119.995 178.489 120.751C177.287 121.507 176.053 122.3 174.805 123.115C173.557 123.93 172.298 124.775 171.052 125.636C170.428 126.065 169.805 126.496 169.19 126.934C168.575 127.371 167.963 127.807 167.361 128.245C166.153 129.12 164.98 130.003 163.856 130.871C163.293 131.303 162.75 131.743 162.213 132.165C161.675 132.588 161.17 133.021 160.662 133.433C160.153 133.844 159.684 134.264 159.216 134.66C158.749 135.057 158.315 135.455 157.889 135.834C157.464 136.213 157.073 136.589 156.693 136.94C156.504 137.117 156.318 137.287 156.142 137.458L155.634 137.959C155.309 138.286 154.992 138.577 154.721 138.872L153.965 139.667C153.733 139.904 153.539 140.125 153.368 140.318C153.198 140.511 153.052 140.671 152.934 140.806L152.573 141.212L152.564 141.222C152.505 141.285 152.423 141.323 152.337 141.326C152.25 141.33 152.166 141.299 152.102 141.24C152.038 141.181 151.999 141.099 151.994 141.011C151.988 140.923 152.017 140.837 152.074 140.77L152.443 140.361L152.887 139.87C153.06 139.677 153.26 139.453 153.494 139.215L154.266 138.42C154.543 138.126 154.865 137.832 155.196 137.504L155.717 137.003C155.896 136.831 156.085 136.662 156.276 136.484C156.662 136.131 157.058 135.752 157.492 135.379C157.926 135.007 158.366 134.605 158.837 134.208C159.308 133.812 159.792 133.399 160.301 132.985C160.81 132.571 161.33 132.148 161.869 131.724C162.409 131.3 162.961 130.866 163.531 130.437C164.667 129.575 165.849 128.697 167.068 127.83C167.676 127.395 168.291 126.957 168.914 126.529C169.538 126.101 170.161 125.667 170.791 125.243C172.047 124.39 173.317 123.559 174.571 122.747C175.825 121.936 177.07 121.158 178.281 120.409C179.492 119.66 180.666 118.95 181.787 118.284C182.907 117.618 183.97 116.997 184.955 116.429C188.897 114.159 191.584 112.756 191.584 112.756C191.617 112.741 191.654 112.74 191.688 112.752C191.722 112.764 191.75 112.789 191.766 112.821C191.783 112.853 191.786 112.891 191.777 112.926C191.767 112.961 191.744 112.991 191.714 113.009L191.713 113.004Z" fill="#8586C1"/>
<path d="M89.1711 73.0453L87.5352 72.9782C87.5551 72.4883 88.0967 60.9099 95.1517 53.99L96.2887 55.186C89.7005 61.6478 89.1755 72.9323 89.1711 73.0453Z" fill="#6667AB"/>
<path d="M137.624 73.0453L139.26 72.9782C139.24 72.4883 138.699 60.9099 131.644 53.99L130.507 55.186C137.092 61.6478 137.617 72.9323 137.624 73.0453Z" fill="#6667AB"/>
<path d="M133.321 57.5499C132.743 58.1987 131.767 58.0509 131.105 57.2923C121.17 45.8736 105.629 45.8736 95.6896 57.2923C95.0273 58.0509 94.0521 58.1987 93.4743 57.5499C92.8974 56.9028 93.0028 55.6149 93.7514 54.7563C104.779 42.0895 122.016 42.0895 133.043 54.7563C133.793 55.6149 133.898 56.9028 133.321 57.5499Z" fill="#6667AB"/>
<path d="M139.585 64.3357C139.855 64.2601 140.075 64.3656 140.225 64.5994L142.702 68.2993C143.423 69.4104 143.879 70.6999 143.879 72.0158V75.3807C143.879 75.3807 147.218 77.9106 147.218 81.5894C147.218 85.2681 144.905 90.232 141.982 91.0583C141.824 91.3976 141.668 91.6798 141.558 91.9145C141.238 92.6028 140.596 92.9957 139.832 92.8717L139.261 92.7601V64.9238C139.261 64.6521 139.318 64.4139 139.585 64.3357Z" fill="#515285"/>
<path d="M136.142 69.0754H136.013C134.291 69.0754 132.895 70.4325 132.895 72.1065V93.0394C132.895 94.7134 134.291 96.0704 136.013 96.0704H136.142C137.864 96.0704 139.261 94.7134 139.261 93.0394V72.1065C139.261 70.4325 137.864 69.0754 136.142 69.0754Z" fill="#6667AB"/>
<path d="M108.976 104.804C108.511 104.793 97.4636 104.48 87.6951 100.496C83.4712 98.7757 80.4528 95.1089 78.9676 89.9064C77.8636 86.038 77.9877 82.7126 77.993 82.5729L79.6381 82.6418L78.8155 82.6069L79.6381 82.641C79.6198 84.9593 79.9324 87.2685 80.5664 89.4987C81.931 94.2428 84.5403 97.4303 88.3218 98.973C97.8028 102.841 108.91 103.157 109.022 103.164L108.976 104.804Z" fill="#515285"/>
<path d="M117.193 102.422H110.399C109.199 102.422 108.226 103.428 108.226 104.668V104.94C108.226 106.18 109.199 107.186 110.399 107.186H117.193C118.393 107.186 119.366 106.18 119.366 104.94V104.668C119.366 103.428 118.393 102.422 117.193 102.422Z" fill="#6667AB"/>
<path d="M81.5503 80.9849H78.4007C77.2927 80.9849 76.3945 81.9805 76.3945 83.2088V83.5248C76.3945 84.753 77.2927 85.7487 78.4007 85.7487H81.5503C82.6583 85.7487 83.5565 84.753 83.5565 83.5248V83.2088C83.5565 81.9805 82.6583 80.9849 81.5503 80.9849Z" fill="#41435D"/>
<path d="M87.1453 65.1296C87.0204 65.0927 86.8864 65.0982 86.7651 65.1453C86.6437 65.1923 86.542 65.2781 86.4761 65.3889L84.0728 69.0889C83.3511 70.1989 82.9648 71.4878 82.9587 72.8056V76.1706C82.9587 76.1706 79.5771 78.7005 79.5771 82.3794C79.5771 86.0583 81.8357 91.025 84.7331 91.8522C84.8894 92.1915 85.0279 92.4737 85.136 92.7084C85.4541 93.3967 86.1518 93.7896 86.9094 93.6657L87.5348 93.5541V65.7159C87.5384 65.4443 87.4097 65.2034 87.1453 65.1296Z" fill="#515285"/>
<path d="M90.7824 69.8694H90.6541C88.9316 69.8694 87.5352 71.2264 87.5352 72.9004V93.8333C87.5352 95.5073 88.9316 96.8644 90.6541 96.8644H90.7824C92.5049 96.8644 93.9014 95.5073 93.9014 93.8333V72.9004C93.9014 71.2264 92.5049 69.8694 90.7824 69.8694Z" fill="#6667AB"/>
<path d="M74.0075 134.246L63.5139 135.284L58.5953 135.769L53.4383 119.954C53.2873 119.49 53.2775 118.993 53.4101 118.523C53.5427 118.054 53.8119 117.632 54.1846 117.311L54.9326 116.666C55.1165 116.51 55.3217 116.379 55.5425 116.279C55.722 116.196 55.9112 116.136 56.1057 116.1L56.1312 116.094C56.1374 116.094 56.1426 116.027 56.1497 116.025C56.2993 115.997 56.4507 115.92 56.6056 115.92H66.8141C67.9493 115.92 68.9473 116.725 69.2588 117.798L74.0075 134.246Z" fill="#606060"/>
<path d="M63.6625 135.28L58.6722 135.769L53.44 119.82C53.2869 119.352 53.2769 118.851 53.4114 118.377C53.546 117.904 53.8191 117.479 54.1972 117.155L54.9561 116.505C55.1427 116.347 55.3509 116.215 55.5749 116.114C55.8677 116.016 56.0776 115.955 56.1463 115.933L56.1722 115.927H56.191C58.8954 115.518 62.9366 132.191 63.6625 135.28Z" fill="url(#paint0_linear_2968_13790)"/>
<path d="M115.387 134.246L104.893 135.284L99.9759 135.769L94.8182 119.954C94.6672 119.49 94.6574 118.993 94.79 118.523C94.9226 118.054 95.1917 117.632 95.5644 117.311L96.3124 116.666C96.4966 116.51 96.7018 116.38 96.9222 116.279C97.102 116.196 97.2915 116.136 97.4863 116.1L97.511 116.094C97.518 116.094 97.5224 116.027 97.5294 116.025C97.679 115.997 97.8313 115.92 97.9862 115.92H108.194C109.329 115.92 110.327 116.725 110.64 117.798L115.387 134.246Z" fill="#606060"/>
<path d="M105.042 135.28L100.053 135.769L94.8199 119.82C94.6668 119.352 94.6568 118.851 94.7913 118.377C94.9258 117.904 95.1989 117.479 95.5771 117.155L96.336 116.505C96.5228 116.347 96.7311 116.216 96.9548 116.114C97.2476 116.016 97.4574 115.955 97.5271 115.933L97.5521 115.927H97.5708C100.278 115.518 104.319 132.191 105.042 135.28Z" fill="#474747"/>
<path d="M151.993 134.246L141.499 135.284L136.582 135.769L131.424 119.954C131.273 119.49 131.263 118.993 131.395 118.523C131.528 118.054 131.797 117.632 132.17 117.311L132.918 116.666C133.102 116.51 133.307 116.379 133.528 116.279C133.707 116.196 133.897 116.136 134.091 116.1L134.117 116.094C134.123 116.094 134.128 116.027 134.135 116.025C134.285 115.997 134.436 115.92 134.592 115.92H144.8C145.936 115.92 146.934 116.725 147.245 117.798L151.993 134.246Z" fill="#606060"/>
<path d="M141.648 135.28L136.658 135.769L131.425 119.82C131.272 119.352 131.262 118.851 131.397 118.377C131.531 117.904 131.804 117.479 132.183 117.155L132.941 116.505C133.128 116.347 133.336 116.215 133.56 116.114C133.853 116.016 134.063 115.955 134.132 115.933L134.158 115.927H134.176C136.882 115.518 140.925 132.191 141.648 135.28Z" fill="#474747"/>
<path d="M117.552 154.824L117.006 156.952C116.964 157.108 116.97 157.276 117.024 157.428C117.077 157.579 117.176 157.707 117.302 157.789C117.473 157.889 117.659 157.957 117.85 157.988C118.015 158.019 118.185 157.99 118.333 157.904C118.481 157.818 118.599 157.68 118.67 157.512L119.366 155.838L117.552 154.824Z" fill="url(#paint1_linear_2968_13790)"/>
<path d="M110.592 137.357C110.592 137.357 119.118 138.349 122.926 141.48C126.734 144.611 120.375 155.618 120.375 155.618C120.375 155.618 119.236 155.674 117.792 154.573C117.792 154.573 121.468 146.355 117.792 144.221C113.655 141.82 109.021 141.484 109.021 141.484L110.527 137.618L110.592 137.357Z" fill="url(#paint2_linear_2968_13790)"/>
<path d="M101.694 134.975C101.694 134.975 100.054 140.137 102.064 141.571C104.075 143.004 108.763 144.487 109.961 147.495C111.159 150.504 112.325 154.924 114.773 156.906C114.773 156.906 117.198 157.58 117.775 156.906C117.775 156.906 116.058 148.614 115.055 146.376C114.187 144.443 112.911 141.652 110.682 140.178C110.044 139.755 110.11 139.027 110.354 138.309L110.798 137L101.694 134.975Z" fill="url(#paint3_linear_2968_13790)"/>
<path d="M121.537 130.507C118.415 130.881 119.114 125.657 119.16 125.447L114.592 129.187C114.592 129.187 114.992 131.937 119.021 133.162C119.909 133.444 120.856 133.461 121.754 133.211C121.412 132.354 121.336 131.41 121.537 130.507Z" fill="#6667AB"/>
<path d="M127.372 128.129C126.094 127.381 124.747 128.267 124.747 128.267C123.161 129.376 121.968 129.874 121.073 129.972C120.862 130.847 120.942 131.763 121.302 132.593C123.121 132.12 124.37 130.78 124.905 130.103C124.997 129.985 125.134 129.906 125.287 129.882C125.439 129.857 125.596 129.891 125.723 129.974C125.991 130.153 126.254 130.406 126.225 130.683C126.169 131.233 126.846 131.373 126.885 131.171C126.924 130.969 126.577 129.811 126.577 129.811C126.577 129.811 127.986 131.019 128.535 131.478C129.084 131.936 129.712 131.416 129.712 131.416C129.712 131.416 128.651 128.878 127.372 128.129Z" fill="white"/>
<path d="M106.116 117.824C106.116 117.824 110.684 115.73 119.775 122.318C119.775 122.318 120.584 123.756 119.863 125.116C119.142 126.476 111.956 133.298 111.119 136.91C111.119 136.91 106.7 138.592 101.859 135.432C101.862 135.434 101.717 125.517 106.116 117.824Z" fill="#6667AB"/>
<path d="M115.358 115.92L113.183 119.001C113.076 119.151 113.013 119.329 113.002 119.516C112.99 119.702 113.031 119.887 113.118 120.05C113.477 120.72 114.299 121.678 115.995 121.44C116.243 121.406 116.478 121.304 116.677 121.146C116.875 120.987 117.031 120.777 117.127 120.537L118.57 116.931L115.358 115.92Z" fill="white"/>
<path d="M102.842 130.483C102.173 128.297 107.43 123.052 107.43 123.052L105.819 118.302C105.819 118.302 94.3152 126.883 97.7125 133.087C98.1992 133.974 98.814 134.585 99.5099 134.975C100.328 132.343 101.796 131.075 102.842 130.483Z" fill="#6667AB"/>
<path d="M102.846 130.211C102.818 130.213 102.79 130.205 102.766 130.188C102.743 130.172 102.726 130.147 102.717 130.119C102.052 127.812 107.001 122.535 107.212 122.311C107.224 122.299 107.238 122.289 107.253 122.282C107.269 122.275 107.285 122.271 107.302 122.271C107.319 122.271 107.335 122.275 107.351 122.282C107.366 122.288 107.38 122.298 107.392 122.311C107.404 122.323 107.414 122.338 107.42 122.354C107.427 122.371 107.43 122.388 107.43 122.406C107.43 122.424 107.427 122.441 107.42 122.458C107.414 122.474 107.405 122.489 107.393 122.502C107.342 122.556 102.339 127.887 102.961 130.041C102.966 130.058 102.967 130.076 102.965 130.094C102.964 130.111 102.958 130.128 102.95 130.144C102.942 130.16 102.932 130.173 102.918 130.184C102.905 130.196 102.89 130.204 102.874 130.209C102.865 130.211 102.855 130.212 102.846 130.211Z" fill="#595AA4"/>
<path d="M111.206 129.573C111.206 129.573 104.77 132.307 103.058 130.589C102.944 130.475 102.861 130.338 102.814 130.188C101.765 130.746 100.293 131.945 99.4717 134.426C103.053 136.32 108.776 132.788 110.319 131.754C110.572 131.584 110.885 131.513 111.193 131.557C111.818 131.64 112.889 131.766 113.463 131.653C114.296 131.486 115.668 134.205 116.979 133.277C116.979 133.277 115.527 128.506 111.206 129.573Z" fill="white"/>
<path d="M119.364 111.798C119.39 111.891 119.183 118.301 119.183 118.301L115.982 118.089L115.388 111.985C115.388 111.985 118.933 110.251 119.364 111.798Z" fill="white"/>
<path d="M116.167 112.922L116.269 116.019C116.271 116.059 116.277 116.098 116.289 116.136C116.363 116.367 116.677 117.147 117.462 116.78C118.174 116.447 118.828 116.154 119.325 116.22C119.433 116.233 119.531 116.286 119.601 116.368C119.671 116.45 119.708 116.554 119.705 116.661C119.683 117.217 119.616 118.47 119.385 119.548C119.362 119.654 119.3 119.747 119.212 119.809C119.123 119.872 119.014 119.899 118.906 119.886C118.231 119.806 116.811 119.597 115.71 119.165C115.636 119.136 115.571 119.088 115.523 119.026C115.475 118.964 115.444 118.89 115.435 118.811C115.34 118.041 115.041 115.7 114.855 115.061C114.677 114.46 113.863 114.218 113.512 114.142C113.455 114.129 113.401 114.105 113.354 114.071C113.307 114.038 113.267 113.995 113.237 113.946C113.021 113.592 112.664 112.751 113.718 112.208C113.77 112.181 113.816 112.144 113.853 112.1C113.89 112.055 113.918 112.003 113.935 111.947C113.951 111.891 113.956 111.833 113.95 111.775C113.943 111.717 113.925 111.661 113.896 111.611C113.654 111.182 113.468 110.499 114.266 109.974C115.065 109.45 115.808 109.797 116.226 110.114C116.308 110.175 116.408 110.206 116.511 110.202C116.613 110.197 116.71 110.157 116.786 110.088C116.838 110.041 116.903 110.012 116.973 110.002C117.042 109.993 117.113 110.005 117.176 110.037C117.232 110.059 117.291 110.069 117.351 110.066C117.411 110.064 117.47 110.049 117.524 110.022C117.577 109.996 117.625 109.959 117.663 109.913C117.702 109.868 117.73 109.815 117.747 109.758C117.885 109.297 118.236 108.769 119.118 108.774C120.682 108.782 121.135 110.425 120.899 111.47C120.664 112.516 118.966 112.412 118.064 112.052C117.378 111.779 116.639 112.306 116.32 112.574C116.269 112.617 116.229 112.67 116.203 112.73C116.176 112.791 116.164 112.856 116.167 112.922Z" fill="#2D2D2D"/>
<path d="M115.317 115.785C115.317 115.785 115.618 113.962 114.977 113.645C114.336 113.328 113.514 113.703 113.891 114.916C114.361 116.424 115.317 115.785 115.317 115.785Z" fill="url(#paint4_linear_2968_13790)"/>
<path d="M150.401 127.261C150.401 127.261 151.724 134.181 152.202 134.181C152.68 134.181 161.542 133.091 161.542 133.091V131.118L154.533 131.383L152.836 126.241L150.401 127.261Z" fill="#EDEDED"/>
<path d="M149.1 134.181H137.669L138.361 125.938C138.361 125.938 137.506 119.724 141.405 119.036C143.702 118.403 143.702 118.4 143.702 118.4C143.702 118.4 146.642 117.933 149.097 119.033C151.552 120.134 153.584 126.742 153.584 126.742L150.645 127.933L149.897 125.504L149.1 134.181Z" fill="#6667AB"/>
<path d="M144.591 114.332L142.443 118.614C142.443 118.614 144.627 120.347 146.923 119.773L147.218 115.226L144.591 114.332Z" fill="#F2F2F2"/>
<path d="M139.996 128.62C139.986 128.62 139.976 128.617 139.967 128.613C139.958 128.608 139.95 128.601 139.944 128.592L138.471 126.332C138.464 126.319 138.463 126.303 138.467 126.289C138.471 126.274 138.479 126.261 138.491 126.253C138.503 126.244 138.517 126.24 138.532 126.241C138.546 126.243 138.56 126.249 138.57 126.26L140.044 128.52C140.051 128.529 140.055 128.541 140.056 128.553C140.057 128.565 140.055 128.577 140.05 128.588C140.044 128.598 140.036 128.607 140.026 128.614C140.017 128.62 140.005 128.623 139.994 128.623L139.996 128.62Z" fill="#595AA4"/>
<path d="M142.698 127.035C142.687 127.035 142.676 127.032 142.667 127.025C142.658 127.018 142.652 127.009 142.648 126.998C142.645 126.987 142.645 126.976 142.648 126.965C142.652 126.954 142.658 126.944 142.667 126.938L143.125 126.581L141.653 122.349C141.649 122.342 141.648 122.335 141.647 122.327C141.647 122.319 141.649 122.312 141.651 122.305C141.654 122.298 141.658 122.292 141.663 122.286C141.669 122.281 141.675 122.277 141.682 122.275C141.689 122.272 141.696 122.271 141.703 122.271C141.71 122.272 141.717 122.274 141.724 122.278C141.73 122.281 141.736 122.286 141.74 122.292C141.745 122.298 141.748 122.305 141.75 122.312L143.236 126.581C143.24 126.592 143.24 126.604 143.237 126.615C143.234 126.626 143.227 126.635 143.218 126.642L142.729 127.023C142.72 127.031 142.709 127.035 142.698 127.035Z" fill="#595AA4"/>
<path d="M140.055 134.18C140.055 134.623 139.95 134.975 139.821 134.975H123.577C123.449 134.975 123.345 134.623 123.345 134.18C123.345 133.739 123.449 133.387 123.577 133.387H139.822C139.951 133.387 140.056 133.739 140.056 134.18H140.055Z" fill="url(#paint5_linear_2968_13790)"/>
<path d="M168.073 132.593H153.275C152.954 132.593 152.789 132.761 152.789 133.022V133.387H168.705V133.022C168.705 132.761 168.394 132.593 168.073 132.593Z" fill="#343434"/>
<path d="M171.879 117.76L170.002 130.266C169.965 130.47 169.857 130.656 169.695 130.79C169.533 130.925 169.327 131.001 169.114 131.005H155.061C154.611 131.005 154.312 130.666 154.393 130.246L156.856 117.404C156.931 117.013 157.34 116.705 157.77 116.714L171.243 117.05C171.335 117.048 171.427 117.066 171.511 117.102C171.596 117.139 171.671 117.192 171.732 117.26C171.792 117.328 171.837 117.408 171.862 117.494C171.888 117.58 171.894 117.671 171.879 117.76Z" fill="#455A64"/>
<path d="M158.356 116.948L155.588 130.694C155.554 130.866 155.333 131.005 155.139 131.005C154.66 131.005 154.307 130.66 154.393 130.241L157.018 117.403C157.098 117.011 157.534 116.702 157.992 116.714L158.243 116.72C158.284 116.744 158.317 116.778 158.337 116.819C158.357 116.859 158.363 116.904 158.356 116.948Z" fill="#343434"/>
<path d="M169.516 126.241C169.503 126.241 169.49 126.238 169.478 126.232C169.466 126.226 169.456 126.218 169.448 126.209C169.44 126.199 169.435 126.187 169.432 126.175C169.429 126.163 169.429 126.15 169.433 126.138L170.88 118.368C170.946 118.015 170.651 117.789 170.327 117.774L168.789 117.699C168.776 117.699 168.763 117.696 168.752 117.69C168.74 117.685 168.73 117.677 168.722 117.667C168.714 117.657 168.709 117.646 168.706 117.634C168.703 117.622 168.703 117.61 168.706 117.598C168.712 117.572 168.726 117.549 168.748 117.532C168.77 117.516 168.797 117.507 168.825 117.508L170.364 117.583C170.842 117.605 171.158 117.955 171.079 118.378L169.636 126.145C169.631 126.172 169.616 126.196 169.594 126.214C169.572 126.231 169.545 126.241 169.516 126.241Z" fill="#AFB6E5"/>
<path d="M159.05 130.211H157.283C156.921 130.211 156.706 129.841 156.783 129.351L157.259 126.344C157.264 126.316 157.277 126.29 157.296 126.272C157.315 126.253 157.339 126.242 157.364 126.241C157.375 126.241 157.386 126.244 157.396 126.249C157.406 126.255 157.415 126.263 157.422 126.273C157.429 126.283 157.434 126.295 157.437 126.307C157.439 126.32 157.439 126.333 157.436 126.346L156.96 129.352C156.902 129.721 157.055 130 157.315 130L159.08 130.006C159.091 130.006 159.102 130.008 159.113 130.014C159.123 130.019 159.132 130.027 159.139 130.037C159.146 130.048 159.151 130.059 159.153 130.072C159.156 130.085 159.155 130.098 159.153 130.11C159.148 130.138 159.135 130.162 159.116 130.181C159.098 130.199 159.074 130.21 159.05 130.211Z" fill="#AFB6E5"/>
<path d="M167.909 133.202V133.323L164.431 133.387H159.376C159.316 133.385 159.26 133.367 159.218 133.336C159.177 133.305 159.155 133.265 159.155 133.223C159.155 132.89 159.489 132.593 159.965 132.593H167.101C167.164 132.592 167.227 132.595 167.289 132.602C167.664 132.66 167.909 132.911 167.909 133.202Z" fill="#455A64"/>
<path d="M168.705 133.196C168.704 133.116 168.682 133.038 168.639 132.964C168.596 132.891 168.533 132.824 168.454 132.768C168.374 132.712 168.281 132.668 168.177 132.638C168.074 132.608 167.964 132.592 167.852 132.593H167.135L164.323 132.603L160.797 132.617C160.329 132.617 159.95 132.919 159.951 133.253C159.951 133.286 159.968 133.319 159.999 133.343C160.03 133.368 160.073 133.384 160.12 133.387H168.532C168.579 133.382 168.621 133.364 168.651 133.338C168.683 133.312 168.701 133.279 168.7 133.245L168.705 133.196Z" fill="#455A64"/>
<path d="M161.995 123.065C161.699 123.065 161.542 123.389 161.542 123.712V132.593H165.521V123.065H161.995Z" fill="#343434"/>
<path d="M165.833 123.065H162.897C162.611 123.065 162.338 123.389 162.338 123.712V132.593H166.317V123.712C166.318 123.388 166.12 123.065 165.833 123.065Z" fill="#343434"/>
<path d="M150.412 133.387H154.38C154.38 133.387 153.479 131.719 151.831 131.802C150.182 131.884 150.412 133.387 150.412 133.387Z" fill="#6667AB"/>
<path d="M140.057 128.216L142.706 127.035L145.047 131.025C145.047 131.025 151.671 130.027 152.849 131.239C154.026 132.451 153.474 132.434 153.327 132.434C153.179 132.434 152.498 131.72 152.498 131.72C152.498 131.72 153.095 132.59 152.774 132.629C152.454 132.668 151.671 131.845 151.671 131.845C151.671 131.845 152.314 132.932 151.928 132.808C151.542 132.683 151.229 132.094 151.229 132.094C151.229 132.094 151.744 132.792 151.395 132.818C151.046 132.844 150.511 132.243 150.511 132.243C150.511 132.243 149.693 132.603 149.224 132.603C148.755 132.603 144.027 133.747 143.171 133.271C142.315 132.795 140.057 128.216 140.057 128.216Z" fill="white"/>
<path d="M137.661 117.76L135.783 130.266C135.747 130.469 135.639 130.654 135.478 130.789C135.317 130.924 135.113 131 134.901 131.005H120.842C120.393 131.005 120.095 130.666 120.175 130.246L122.638 117.404C122.713 117.013 123.122 116.705 123.552 116.714L137.025 117.05C137.117 117.048 137.209 117.066 137.293 117.102C137.378 117.139 137.453 117.192 137.514 117.26C137.575 117.328 137.619 117.408 137.645 117.494C137.67 117.58 137.676 117.671 137.661 117.76Z" fill="#455A64"/>
<path d="M124.138 116.948L121.372 130.694C121.337 130.866 121.116 131.005 120.922 131.005C120.443 131.005 120.088 130.66 120.175 130.241L122.803 117.403C122.882 117.011 123.319 116.702 123.777 116.714L124.029 116.72C124.069 116.744 124.101 116.779 124.12 116.819C124.139 116.86 124.145 116.904 124.138 116.948Z" fill="#343434"/>
<path d="M135.297 126.241C135.284 126.241 135.271 126.238 135.259 126.232C135.248 126.226 135.237 126.218 135.229 126.209C135.221 126.199 135.216 126.187 135.213 126.175C135.211 126.163 135.211 126.15 135.214 126.138L136.662 118.368C136.728 118.015 136.433 117.789 136.11 117.774L134.57 117.699C134.557 117.699 134.545 117.696 134.533 117.69C134.522 117.685 134.512 117.677 134.504 117.667C134.496 117.657 134.491 117.646 134.488 117.634C134.486 117.622 134.486 117.61 134.489 117.598C134.494 117.572 134.509 117.549 134.53 117.532C134.552 117.516 134.579 117.507 134.607 117.508L136.146 117.583C136.624 117.605 136.94 117.955 136.862 118.378L135.418 126.145C135.413 126.172 135.398 126.196 135.376 126.214C135.354 126.231 135.326 126.241 135.297 126.241Z" fill="#767676"/>
<path d="M124.831 130.211H123.065C122.702 130.211 122.487 129.841 122.564 129.351L123.04 126.344C123.045 126.316 123.058 126.29 123.077 126.271C123.096 126.253 123.12 126.242 123.145 126.241C123.157 126.241 123.168 126.244 123.178 126.249C123.188 126.255 123.197 126.263 123.204 126.273C123.211 126.283 123.215 126.295 123.218 126.308C123.22 126.32 123.22 126.333 123.217 126.346L122.741 129.352C122.683 129.721 122.836 130 123.096 130L124.862 130.006C124.873 130.006 124.884 130.009 124.894 130.014C124.904 130.02 124.913 130.028 124.92 130.038C124.927 130.048 124.932 130.06 124.934 130.072C124.937 130.085 124.937 130.098 124.934 130.11C124.929 130.138 124.916 130.162 124.897 130.181C124.879 130.199 124.855 130.21 124.831 130.211Z" fill="#767676"/>
<path d="M133.69 133.202V133.323L130.213 133.387H125.157C125.097 133.385 125.041 133.367 125 133.336C124.959 133.305 124.936 133.265 124.937 133.223C124.937 132.89 125.27 132.593 125.746 132.593H132.883C132.945 132.592 133.008 132.595 133.07 132.602C133.443 132.66 133.69 132.912 133.69 133.202Z" fill="#455A64"/>
<path d="M134.486 133.196C134.486 133.116 134.463 133.038 134.42 132.964C134.377 132.891 134.314 132.824 134.235 132.768C134.156 132.712 134.062 132.668 133.959 132.638C133.856 132.608 133.746 132.593 133.634 132.593H132.917L130.104 132.603L126.579 132.617C126.111 132.617 125.732 132.919 125.732 133.253C125.732 133.286 125.749 133.319 125.78 133.343C125.811 133.368 125.855 133.384 125.901 133.387H134.314C134.361 133.381 134.403 133.364 134.433 133.338C134.465 133.312 134.482 133.279 134.481 133.245L134.486 133.196Z" fill="#455A64"/>
<path d="M127.776 123.065C127.481 123.065 127.324 123.389 127.324 123.712V132.593H131.303V123.065H127.776Z" fill="#343434"/>
<path d="M131.612 123.065H128.679C128.392 123.065 128.12 123.389 128.12 123.712V132.593H132.099V123.712C132.099 123.388 131.899 123.065 131.612 123.065Z" fill="#343434"/>
<path d="M112.215 133.387H116.183C116.183 133.387 115.282 131.719 113.634 131.802C111.985 131.884 112.215 133.387 112.215 133.387Z" fill="#56578E"/>
<path d="M76.3945 127.261C76.3945 127.261 77.7171 134.181 78.1949 134.181C78.6727 134.181 87.5354 133.091 87.5354 133.091V131.118L80.5258 131.383L78.829 126.241L76.3945 127.261Z" fill="#F0F0F0"/>
<path d="M74.2977 134.181H62.8662L63.5579 125.938C63.5579 125.938 62.7037 119.724 66.6032 119.036C68.8997 118.403 68.8997 118.4 68.8997 118.4C68.8997 118.4 71.8395 117.933 74.2951 119.033C76.7507 120.134 78.7817 126.742 78.7817 126.742L75.8419 127.933L75.094 125.504L74.2977 134.181Z" fill="#C2C2DD"/>
<path d="M69.6715 114.332L68.4365 118.555C68.4365 118.555 71.0185 119.665 73.2112 118.704L72.5188 114.609L69.6715 114.332Z" fill="#E5E5E5"/>
<path d="M74.7676 110.71C74.7676 110.71 74.9437 113.844 74.5087 115.29C74.0736 116.736 74.0408 117.769 72.3326 117.449C70.6243 117.13 69.5666 115.805 69.3437 114.118C69.3437 114.118 68.9824 111.51 69.5617 110.716C70.1409 109.923 74.7676 110.71 74.7676 110.71Z" fill="white"/>
<path d="M70.8322 113.695L70.9474 113.688C70.9823 113.686 71.0165 113.677 71.0477 113.661C71.0789 113.646 71.1066 113.624 71.129 113.598C71.1515 113.572 71.1681 113.541 71.1781 113.508C71.188 113.476 71.1909 113.441 71.1867 113.407C71.1162 112.852 71.0376 111.611 71.7528 111.586C72.6744 111.553 76.0854 112.065 77.1846 111.211C78.2409 110.391 78.1731 108.816 77.4435 108.112C77.4206 108.088 77.3891 108.074 77.3557 108.073C77.3223 108.072 77.2897 108.083 77.265 108.105L77.1408 108.214C77.1219 108.231 77.0985 108.241 77.0735 108.244C77.0485 108.247 77.0232 108.243 77.0005 108.233C76.9779 108.222 76.9591 108.205 76.9464 108.183C76.9337 108.162 76.9277 108.138 76.9292 108.113C76.9312 108.089 76.9261 108.065 76.9145 108.044C76.9028 108.023 76.8852 108.006 76.8637 107.995C76.8422 107.983 76.8178 107.978 76.7934 107.98C76.7691 107.982 76.7458 107.991 76.7265 108.006C76.3926 108.259 75.6228 108.588 74.0013 108.315C71.6957 107.925 69.9464 108.265 69.358 109.711C69.3498 109.732 69.3362 109.75 69.3184 109.764C69.3007 109.778 69.2795 109.786 69.2571 109.789C69.2347 109.792 69.2118 109.79 69.191 109.781C69.1701 109.773 69.1519 109.759 69.1383 109.741C69.0151 109.588 68.7767 109.452 68.3302 109.609C67.5534 109.882 67.3194 111.234 68.2266 112.742C68.2369 112.759 68.243 112.777 68.2446 112.796C68.2463 112.816 68.2433 112.835 68.2359 112.853C68.2285 112.871 68.217 112.887 68.2022 112.899C68.1874 112.912 68.1698 112.921 68.1507 112.926C67.8578 112.992 67.3721 113.221 68.1034 114.025C68.8588 114.856 69.5768 115.073 69.8643 115.123C69.8812 115.127 69.8985 115.126 69.9153 115.123C69.932 115.119 69.9479 115.112 69.9617 115.102C69.9756 115.092 69.9873 115.08 69.996 115.065C70.0048 115.051 70.0104 115.035 70.0125 115.018L70.2072 113.633C70.2097 113.614 70.2165 113.597 70.2269 113.581C70.2374 113.566 70.2513 113.553 70.2676 113.543C70.2839 113.533 70.3021 113.528 70.321 113.526C70.34 113.524 70.359 113.527 70.3768 113.533L70.8322 113.695Z" fill="#505184"/>
<path d="M70.8049 113.651C70.8049 113.651 71.0419 111.767 69.8437 111.964C68.6455 112.162 69.4509 114.039 70.2038 114.332L70.8049 113.651Z" fill="url(#paint6_linear_2968_13790)"/>
<path d="M73.2002 115.92C70.9416 115.739 70.0423 113.607 70.0283 113.586L70.1916 113.538C70.2 113.558 71.0657 115.602 73.2114 115.775L73.2002 115.92Z" fill="#6667AB"/>
<path d="M74.0067 116.316C74.0068 116.368 74.0025 116.42 73.994 116.468C73.9854 116.516 73.9729 116.56 73.9571 116.597C73.9413 116.634 73.9225 116.663 73.9018 116.683C73.8811 116.703 73.8589 116.714 73.8364 116.714H73.3812C73.3588 116.714 73.3366 116.703 73.3159 116.683C73.2952 116.663 73.2764 116.634 73.2605 116.597C73.2447 116.56 73.2322 116.516 73.2237 116.468C73.2152 116.42 73.2108 116.368 73.2109 116.316C73.2109 116.211 73.2289 116.11 73.2608 116.036C73.2927 115.961 73.336 115.92 73.3812 115.92H73.8364C73.8816 115.92 73.9249 115.961 73.9568 116.036C73.9888 116.11 74.0067 116.211 74.0067 116.316Z" fill="#6667AB"/>
<path d="M70.5642 111.073C70.5642 111.073 71.8827 108.169 74.0072 108.182C73.8293 108.083 73.631 108.019 73.4246 107.993C73.2183 107.967 73.0083 107.98 72.8077 108.031C72.1433 108.211 70.301 109.452 70.0283 111.073C70.4261 111.26 70.5642 111.073 70.5642 111.073Z" fill="#6667AB"/>
<path d="M69.9364 111.156C68.6749 111.195 68.5598 112.788 68.5598 112.788C68.2813 113.91 68.5115 114.53 68.8847 114.872C69.0102 114.986 69.1627 115.066 69.3274 115.102C69.492 115.139 69.6632 115.132 69.8244 115.082C69.9856 115.032 70.1313 114.94 70.2474 114.816C70.3635 114.692 70.446 114.539 70.4869 114.373C70.5612 114.067 70.6373 113.778 70.6772 113.677C70.7747 113.434 71.198 111.118 69.9364 111.156Z" fill="#6667AB"/>
<path d="M70.5074 111.19C70.3795 111.146 70.2393 111.144 70.11 111.185C69.9808 111.225 69.8702 111.305 69.7965 111.412C68.6983 112.977 69.4611 114.23 69.9293 114.328C70.4226 114.432 70.8229 112.201 70.8229 111.613C70.8298 111.519 70.8023 111.427 70.745 111.35C70.6876 111.273 70.6038 111.217 70.5074 111.19Z" fill="#7E7FC5"/>
<path d="M65.1945 128.623C65.1845 128.623 65.1746 128.62 65.1658 128.616C65.157 128.611 65.1494 128.604 65.1437 128.595L63.6678 126.332C63.6617 126.319 63.6605 126.303 63.6642 126.289C63.668 126.274 63.6766 126.261 63.6884 126.253C63.7003 126.244 63.7147 126.24 63.7291 126.241C63.7436 126.243 63.7571 126.249 63.7673 126.26L65.2432 128.523C65.2523 128.537 65.2557 128.554 65.2525 128.571C65.2493 128.588 65.2399 128.602 65.2263 128.612C65.217 128.619 65.2059 128.623 65.1945 128.623Z" fill="#979797"/>
<path d="M67.8953 127.035C67.8873 127.035 67.8794 127.033 67.8723 127.029C67.8651 127.026 67.8589 127.02 67.8542 127.013C67.8501 127.008 67.847 127.001 67.8453 126.994C67.8436 126.988 67.8432 126.98 67.8441 126.973C67.845 126.966 67.8473 126.96 67.8508 126.953C67.8542 126.947 67.8588 126.942 67.8643 126.938L68.3224 126.581L66.8499 122.349C66.8467 122.342 66.845 122.335 66.8448 122.327C66.8445 122.319 66.8458 122.312 66.8486 122.305C66.8513 122.298 66.8555 122.292 66.8607 122.286C66.866 122.281 66.8722 122.277 66.879 122.275C66.8859 122.272 66.8932 122.271 66.9004 122.271C66.9077 122.272 66.9147 122.274 66.9212 122.278C66.9276 122.281 66.9332 122.286 66.9377 122.292C66.9422 122.298 66.9454 122.305 66.9472 122.312L68.4332 126.581C68.437 126.592 68.4373 126.604 68.4341 126.615C68.4309 126.626 68.4244 126.635 68.4155 126.642L67.9264 127.023C67.9177 127.031 67.9067 127.035 67.8953 127.035Z" fill="#979797"/>
<path d="M142.728 134.975H50.1338C51.5205 142.515 52.9091 149.787 54.2958 157.197C54.3781 157.63 54.8027 158 55.1879 158H171.638C172.024 158 172.418 157.63 172.5 157.197C173.887 149.787 175.274 142.515 176.662 134.975H142.728Z" fill="#D1D2E5"/>
<path d="M68.4366 134.975C67.8903 142.515 67.3441 150.325 66.7943 158H55.1237C54.7434 158 54.3242 157.63 54.243 157.197C52.8738 149.787 51.5029 142.515 50.1338 134.975H68.4366Z" fill="#D1D2E5"/>
<path d="M177.506 133.387H94.1509V133.194C94.1509 132.829 93.846 132.593 93.5305 132.593H79.0359C78.7204 132.593 78.5596 132.829 78.5596 133.194V133.387H50.8816C50.4686 133.387 50.1338 133.739 50.1338 134.18C50.1338 134.622 50.4686 134.975 50.8816 134.975H177.506C177.919 134.975 178.254 134.623 178.254 134.18C178.254 133.738 177.919 133.387 177.506 133.387Z" fill="#ACACAC"/>
<path d="M97.0763 117.76L95.1978 130.266C95.1615 130.469 95.0537 130.654 94.8927 130.789C94.7318 130.924 94.5278 131 94.3154 131.005H80.2577C79.8085 131.005 79.5102 130.666 79.5901 130.246L82.0536 117.404C82.1291 117.013 82.5374 116.705 82.968 116.714L96.4424 117.05C96.5346 117.049 96.626 117.067 96.7102 117.103C96.7944 117.14 96.8693 117.193 96.9297 117.261C96.9902 117.329 97.0346 117.408 97.0599 117.495C97.0853 117.581 97.0908 117.671 97.0763 117.76Z" fill="#455A64"/>
<path d="M83.5528 116.948L80.7866 130.694C80.7526 130.866 80.5312 131.005 80.3363 131.005C79.8633 131.005 79.5039 130.66 79.5899 130.241L82.217 117.403C82.2974 117.011 82.7335 116.702 83.1923 116.714L83.444 116.72C83.4842 116.744 83.5158 116.779 83.5351 116.819C83.5544 116.86 83.5605 116.904 83.5528 116.948Z" fill="#343434"/>
<path d="M94.713 126.241C94.6998 126.241 94.6869 126.238 94.6752 126.232C94.6635 126.226 94.6532 126.218 94.6452 126.209C94.6372 126.199 94.6317 126.187 94.629 126.175C94.6264 126.163 94.6266 126.15 94.6297 126.138L96.0775 118.368C96.1435 118.015 95.8488 117.789 95.5254 117.774L93.9858 117.699C93.9729 117.699 93.9603 117.696 93.9489 117.69C93.9374 117.685 93.9274 117.677 93.9196 117.667C93.9117 117.657 93.9062 117.646 93.9034 117.634C93.9007 117.622 93.9007 117.61 93.9035 117.598C93.9091 117.572 93.9239 117.549 93.9456 117.533C93.9673 117.516 93.9943 117.507 94.0221 117.508L95.5608 117.583C96.0392 117.605 96.3559 117.955 96.2765 118.378L94.8336 126.145C94.8284 126.172 94.8136 126.196 94.7916 126.214C94.7696 126.231 94.7418 126.241 94.713 126.241Z" fill="#767676"/>
<path d="M84.247 130.211H82.48C82.1186 130.211 81.903 129.841 81.9806 129.351L82.4563 126.344C82.4611 126.316 82.474 126.29 82.493 126.272C82.512 126.253 82.5359 126.242 82.5609 126.241C82.5722 126.241 82.5833 126.244 82.5935 126.249C82.6037 126.255 82.6126 126.263 82.6196 126.273C82.6266 126.283 82.6315 126.295 82.6338 126.307C82.6361 126.32 82.6359 126.333 82.633 126.346L82.1574 129.352C82.0995 129.721 82.2517 130 82.5118 130L84.2771 130.006C84.2884 130.006 84.2996 130.008 84.3098 130.014C84.32 130.019 84.329 130.027 84.336 130.037C84.3431 130.048 84.348 130.059 84.3504 130.072C84.3529 130.085 84.3527 130.098 84.3501 130.11C84.3449 130.138 84.332 130.162 84.3134 130.181C84.2948 130.199 84.2715 130.21 84.247 130.211Z" fill="#767676"/>
<path d="M93.901 133.202V133.323L90.4237 133.387H85.3679C85.3081 133.385 85.2517 133.367 85.2106 133.336C85.1696 133.305 85.1469 133.265 85.1475 133.223C85.1475 132.89 85.4813 132.593 85.9567 132.593H93.0927C93.1555 132.592 93.2185 132.595 93.2805 132.602C93.656 132.66 93.901 132.912 93.901 133.202Z" fill="#455A64"/>
<path d="M94.6969 133.196C94.6965 133.116 94.6742 133.038 94.6311 132.964C94.588 132.891 94.525 132.824 94.4457 132.768C94.3665 132.712 94.2726 132.668 94.1693 132.638C94.066 132.608 93.9555 132.592 93.844 132.593H93.132L90.317 132.603L86.7899 132.617C86.3209 132.617 85.9425 132.919 85.9434 133.253C85.9429 133.286 85.96 133.319 85.9912 133.343C86.0224 133.368 86.0655 133.384 86.112 133.387H94.5283C94.5752 133.382 94.6177 133.364 94.6475 133.338C94.6797 133.312 94.6974 133.279 94.6969 133.245V133.196Z" fill="#455A64"/>
<path d="M87.9871 123.065C87.691 123.065 87.5352 123.389 87.5352 123.712V132.593H91.514V123.065H87.9871Z" fill="#151515"/>
<path d="M91.0292 123.065H88.0942C87.8075 123.065 87.5352 123.389 87.5352 123.712V132.593H91.514V123.712C91.514 123.388 91.316 123.065 91.0292 123.065Z" fill="#343434"/>
<path d="M75.6096 133.387H79.5775C79.5775 133.387 78.6765 131.719 77.0281 131.802C75.3797 131.884 75.6096 133.387 75.6096 133.387Z" fill="#56578E"/>
<path d="M65.2539 128.215L67.9029 127.035L70.2454 131.026C70.2454 131.026 76.8683 130.027 78.0459 131.24C79.2234 132.452 78.6712 132.435 78.5238 132.435C78.3764 132.435 77.6965 131.721 77.6965 131.721C77.6965 131.721 78.2933 132.592 77.9717 132.631C77.6501 132.67 76.8683 131.846 76.8683 131.846C76.8683 131.846 77.5125 132.934 77.1256 132.809C76.7388 132.684 76.427 132.096 76.427 132.096C76.427 132.096 76.9416 132.794 76.5923 132.82C76.2429 132.846 75.7096 132.245 75.7096 132.245C75.7096 132.245 74.8903 132.604 74.4213 132.604C73.9522 132.604 69.2216 133.747 68.3684 133.271C67.5151 132.794 65.2539 128.215 65.2539 128.215Z" fill="white"/>
<path d="M117.775 118.3C115.701 118.36 114.602 116.017 114.592 115.993L114.733 115.92C114.744 115.942 115.799 118.188 117.771 118.132L117.775 118.3Z" fill="#6667AB"/>
<path d="M118.404 117.419L117.933 117.485C117.845 117.498 117.795 117.655 117.821 117.837L117.839 117.965C117.864 118.147 117.956 118.284 118.043 118.272L118.515 118.206C118.602 118.193 118.652 118.036 118.627 117.854L118.609 117.726C118.583 117.544 118.492 117.407 118.404 117.419Z" fill="#6667AB"/>
<path d="M114.381 113.414C114.381 113.414 115.413 109.962 117.775 109.708C117.562 109.619 117.333 109.571 117.099 109.568C116.866 109.565 116.635 109.606 116.42 109.689C115.709 109.976 113.847 111.613 113.796 113.479C114.256 113.642 114.381 113.414 114.381 113.414Z" fill="#6667AB"/>
<path d="M114.261 112.755C112.958 112.942 113.037 114.529 113.037 114.529C112.888 115.664 113.205 116.246 113.635 116.536C113.779 116.633 113.947 116.693 114.122 116.709C114.297 116.725 114.474 116.698 114.635 116.628C114.796 116.559 114.935 116.451 115.04 116.315C115.145 116.178 115.211 116.018 115.232 115.85C115.272 115.541 115.313 115.247 115.343 115.143C115.413 114.893 115.563 112.559 114.261 112.755Z" fill="#6667AB"/>
<path d="M114.954 113.552C114.807 113.524 114.653 113.538 114.517 113.592C114.38 113.647 114.271 113.738 114.205 113.852C113.226 115.513 114.243 116.667 114.772 116.713C115.325 116.76 115.449 114.516 115.363 113.935C115.357 113.842 115.313 113.754 115.239 113.684C115.165 113.614 115.064 113.568 114.954 113.552Z" fill="#7E7FC5"/>
<path d="M151.197 112.856C151.197 112.856 150.665 116.639 149.225 117.802C147.785 118.966 144.982 118.09 144.035 115.238L145.922 110.362L151.197 112.856Z" fill="white"/>
<path d="M145.274 113.177C145.298 113.186 145.325 113.189 145.35 113.186C145.376 113.184 145.401 113.175 145.423 113.161C145.445 113.148 145.464 113.129 145.478 113.107C145.492 113.085 145.501 113.061 145.505 113.035C145.554 112.702 145.679 112.044 145.929 111.595C145.929 111.595 145.798 111.123 147.118 111.837C148.438 112.55 150.425 113.6 151.587 112.974C152.726 112.361 153.879 109.301 150.871 109.868C150.844 109.874 150.817 109.874 150.79 109.867C150.763 109.86 150.739 109.847 150.718 109.829C150.697 109.811 150.681 109.788 150.671 109.762C150.661 109.736 150.657 109.709 150.66 109.681C150.697 109.177 150.647 108.02 149.48 107.647C148.387 107.297 148.973 107.863 148.727 108.162C148.655 108.25 148.814 107.862 147.266 108.09C146.733 108.167 146.048 106.745 144.742 107.325C143.664 107.803 143.496 108.47 143.514 108.885C143.517 108.916 143.511 108.947 143.497 108.975C143.484 109.003 143.463 109.027 143.438 109.044C143.412 109.062 143.382 109.072 143.351 109.074C143.32 109.076 143.29 109.069 143.262 109.055C142.932 108.903 142.401 108.823 141.892 109.463C141.189 110.348 142.194 111.116 142.495 111.318C142.52 111.334 142.54 111.356 142.554 111.381C142.569 111.407 142.576 111.436 142.576 111.465C142.576 111.925 142.65 113.934 143.652 115.066C143.672 115.089 143.698 115.106 143.726 115.116C143.755 115.126 143.785 115.128 143.815 115.123C143.845 115.118 143.872 115.105 143.896 115.086C143.92 115.067 143.938 115.043 143.949 115.015L144.72 113.169C144.738 113.127 144.77 113.094 144.81 113.075C144.851 113.056 144.897 113.053 144.94 113.067L145.274 113.177Z" fill="#6B6CC8"/>
<path d="M147.984 116.714C145.611 116.331 144.839 113.613 144.831 113.586L145.008 113.538C145.015 113.564 145.759 116.17 148.014 116.535L147.984 116.714Z" fill="#6667AB"/>
<path d="M145.346 111.082C145.346 111.082 146.748 108.145 148.81 108.299C148.67 108.166 148.499 108.071 148.312 108.02C148.126 107.97 147.93 107.967 147.741 108.01C147.083 108.157 145.207 109.352 144.831 111.047C145.199 111.269 145.346 111.082 145.346 111.082Z" fill="#6667AB"/>
<path d="M144.854 110.363C143.637 110.316 143.421 111.91 143.421 111.91C143.081 113.019 143.263 113.659 143.6 114.029C143.714 114.153 143.855 114.243 144.011 114.292C144.168 114.34 144.333 114.345 144.491 114.305C144.65 114.266 144.796 114.183 144.915 114.066C145.035 113.949 145.124 113.801 145.173 113.636C145.263 113.334 145.352 113.048 145.401 112.95C145.515 112.711 146.071 110.41 144.854 110.363Z" fill="#6667AB"/>
<path d="M145.356 111.203C145.239 111.152 145.108 111.142 144.984 111.175C144.861 111.207 144.752 111.281 144.675 111.383C143.543 112.889 144.171 114.195 144.602 114.326C145.058 114.461 145.584 112.24 145.623 111.648C145.635 111.554 145.616 111.46 145.567 111.379C145.519 111.298 145.444 111.236 145.356 111.203Z" fill="#7E7FC5"/>
<path d="M69.99 85.7488H58.1302C54.593 85.7488 51.7256 88.5736 51.7256 92.0583V92.1428C51.7256 95.6274 54.593 98.4523 58.1302 98.4523H69.99C73.5272 98.4523 76.3946 95.6274 76.3946 92.1428V92.0583C76.3946 88.5736 73.5272 85.7488 69.99 85.7488Z" fill="white"/>
<path d="M61.4799 96.8643L56.5 97.2579L64.2968 105.569C64.3108 105.584 64.3297 105.593 64.3505 105.597C64.3712 105.6 64.3926 105.597 64.4109 105.587C64.4294 105.577 64.4437 105.562 64.4515 105.543C64.4592 105.524 64.4598 105.504 64.4532 105.485L61.4799 96.8643Z" fill="white"/>
<g opacity="0.9">
<path opacity="0.84" d="M57.6937 93.6884C58.3529 93.6884 58.8873 93.1552 58.8873 92.4975C58.8873 91.8397 58.3529 91.3065 57.6937 91.3065C57.0344 91.3065 56.5 91.8397 56.5 92.4975C56.5 93.1552 57.0344 93.6884 57.6937 93.6884Z" fill="#AFB6E5"/>
<path opacity="0.84" d="M65.2535 92.4975C65.2535 92.733 65.1835 92.9633 65.0524 93.1591C64.9212 93.355 64.7348 93.5076 64.5167 93.5978C64.2986 93.6879 64.0585 93.7115 63.827 93.6655C63.5955 93.6196 63.3828 93.5062 63.2158 93.3396C63.0489 93.173 62.9352 92.9608 62.8891 92.7298C62.8431 92.4988 62.8667 92.2593 62.9571 92.0417C63.0474 91.8241 63.2004 91.6381 63.3967 91.5072C63.593 91.3764 63.8238 91.3065 64.0599 91.3065C64.2167 91.3064 64.3719 91.3371 64.5168 91.397C64.6617 91.4568 64.7933 91.5445 64.9042 91.6551C65.015 91.7657 65.1029 91.897 65.1629 92.0416C65.2228 92.1861 65.2536 92.341 65.2535 92.4975Z" fill="#AFB6E5"/>
<path opacity="0.84" d="M70.4261 93.6884C71.0853 93.6884 71.6197 93.1552 71.6197 92.4975C71.6197 91.8397 71.0853 91.3065 70.4261 91.3065C69.7668 91.3065 69.2324 91.8397 69.2324 92.4975C69.2324 93.1552 69.7668 93.6884 70.4261 93.6884Z" fill="#AFB6E5"/>
</g>
<path d="M155.933 84.1608H144.074C140.536 84.1608 137.669 86.9856 137.669 90.4703V90.5548C137.669 94.0394 140.536 96.8643 144.074 96.8643H155.933C159.471 96.8643 162.338 94.0394 162.338 90.5548V90.4703C162.338 86.9856 159.471 84.1608 155.933 84.1608Z" fill="#D1D2E5"/>
<path d="M147.423 95.2764L142.443 95.67L150.24 103.981C150.254 103.996 150.274 104.006 150.295 104.009C150.316 104.012 150.338 104.008 150.356 103.998C150.374 103.988 150.388 103.972 150.396 103.953C150.403 103.934 150.403 103.914 150.396 103.895L147.423 95.2764Z" fill="#D1D2E5"/>
<g opacity="0.9">
<path opacity="0.84" d="M144.035 90.9088C144.035 91.1444 143.965 91.3747 143.834 91.5706C143.703 91.7666 143.517 91.9194 143.298 92.0096C143.08 92.0999 142.84 92.1236 142.609 92.0778C142.377 92.0319 142.164 91.9185 141.997 91.752C141.83 91.5855 141.717 91.3733 141.67 91.1422C141.624 90.9112 141.648 90.6717 141.738 90.454C141.829 90.2363 141.982 90.0503 142.178 89.9194C142.374 89.7885 142.605 89.7186 142.841 89.7186C142.998 89.7185 143.153 89.7492 143.298 89.809C143.443 89.8687 143.574 89.9564 143.685 90.0669C143.796 90.1774 143.884 90.3087 143.944 90.4531C144.004 90.5976 144.035 90.7524 144.035 90.9088Z" fill="white"/>
<path opacity="0.84" d="M150.401 90.9088C150.401 91.1444 150.331 91.3747 150.2 91.5706C150.069 91.7666 149.883 91.9194 149.665 92.0096C149.447 92.0999 149.207 92.1236 148.975 92.0778C148.743 92.0319 148.531 91.9185 148.364 91.752C148.197 91.5855 148.083 91.3733 148.037 91.1422C147.991 90.9112 148.014 90.6717 148.104 90.454C148.195 90.2363 148.348 90.0503 148.544 89.9194C148.74 89.7885 148.971 89.7186 149.207 89.7186C149.364 89.7185 149.519 89.7492 149.664 89.809C149.809 89.8687 149.94 89.9564 150.051 90.0669C150.162 90.1774 150.25 90.3087 150.31 90.4531C150.37 90.5976 150.401 90.7524 150.401 90.9088Z" fill="white"/>
<path opacity="0.84" d="M156.767 90.9088C156.767 91.1444 156.698 91.3747 156.566 91.5706C156.435 91.7666 156.249 91.9194 156.031 92.0096C155.813 92.0999 155.573 92.1236 155.341 92.0778C155.11 92.0319 154.897 91.9185 154.73 91.752C154.563 91.5855 154.449 91.3733 154.403 91.1422C154.357 90.9112 154.38 90.6717 154.471 90.454C154.561 90.2363 154.714 90.0503 154.91 89.9194C155.107 89.7885 155.337 89.7186 155.574 89.7186C155.73 89.7185 155.885 89.7492 156.03 89.809C156.175 89.8687 156.307 89.9564 156.418 90.0669C156.528 90.1774 156.616 90.3087 156.676 90.4531C156.736 90.5976 156.767 90.7524 156.767 90.9088Z" fill="white"/>
</g>
<path d="M89.8845 91.3065H78.0247C74.4876 91.3065 71.6201 94.1314 71.6201 97.616V97.7005C71.6201 101.185 74.4876 104.01 78.0247 104.01H89.8845C93.4217 104.01 96.2891 101.185 96.2891 97.7005V97.616C96.2891 94.1314 93.4217 91.3065 89.8845 91.3065Z" fill="#D1D2E5"/>
<path d="M86.5355 102.422L91.5144 102.816L83.7191 111.125C83.7051 111.141 83.6857 111.151 83.6642 111.155C83.6428 111.158 83.6207 111.154 83.602 111.144C83.5832 111.134 83.569 111.117 83.5618 111.098C83.5546 111.079 83.5549 111.058 83.5627 111.039L86.5355 102.422Z" fill="#D1D2E5"/>
<path opacity="0.84" d="M88.3311 98.0585C88.3317 98.2939 88.4023 98.5239 88.5339 98.7193C88.6655 98.9148 88.8522 99.0669 89.0704 99.1565C89.2886 99.2461 89.5285 99.2692 89.7599 99.2228C89.9912 99.1764 90.2036 99.0627 90.3702 98.8959C90.5368 98.7291 90.6501 98.5168 90.6958 98.2859C90.7415 98.0549 90.7175 97.8156 90.627 97.5981C90.5364 97.3807 90.3833 97.195 90.1869 97.0644C89.9906 96.9337 89.7599 96.8641 89.5239 96.8643C89.3669 96.8643 89.2115 96.8952 89.0665 96.9552C88.9215 97.0153 88.7898 97.1033 88.679 97.2143C88.5682 97.3252 88.4804 97.4569 88.4207 97.6018C88.361 97.7466 88.3305 97.9018 88.3311 98.0585Z" fill="white"/>
<path opacity="0.84" d="M81.9649 98.0585C81.9655 98.2939 82.0361 98.5238 82.1676 98.7192C82.2992 98.9147 82.4858 99.0668 82.704 99.1564C82.9222 99.2461 83.1621 99.2692 83.3934 99.2229C83.6247 99.1766 83.8371 99.0629 84.0037 98.8962C84.1703 98.7295 84.2837 98.5173 84.3295 98.2864C84.3753 98.0554 84.3514 97.8161 84.261 97.5987C84.1706 97.3813 84.0176 97.1955 83.8213 97.0647C83.6251 96.934 83.3945 96.8643 83.1585 96.8643C83.0014 96.8641 82.8459 96.895 82.7008 96.955C82.5557 97.015 82.424 97.103 82.3131 97.214C82.2022 97.325 82.1143 97.4567 82.0546 97.6016C81.9948 97.7465 81.9643 97.9018 81.9649 98.0585Z" fill="white"/>
<path opacity="0.84" d="M75.5986 98.0585C75.5993 98.2941 75.6699 98.5242 75.8017 98.7197C75.9334 98.9152 76.1203 99.0673 76.3387 99.1568C76.5571 99.2464 76.7972 99.2692 77.0287 99.2226C77.2601 99.1759 77.4725 99.0618 77.6389 98.8947C77.8054 98.7276 77.9184 98.5151 77.9638 98.2839C78.0091 98.0527 77.9847 97.8132 77.8936 97.5959C77.8025 97.3785 77.6489 97.193 77.4521 97.0628C77.2554 96.9325 77.0243 96.8635 76.7882 96.8643C76.6315 96.8647 76.4764 96.8959 76.3318 96.9562C76.1872 97.0164 76.0559 97.1045 75.9454 97.2154C75.8349 97.3264 75.7475 97.4579 75.688 97.6025C75.6284 97.7472 75.5981 97.9021 75.5986 98.0585Z" fill="white"/>
<path d="M179.845 98.8498C179.845 95.5371 176.878 92.8945 173.219 92.8945H161.004C157.345 92.8945 154.38 95.5371 154.38 98.8498C154.38 102.162 157.345 104.804 161.004 104.804H173.219C176.878 104.804 179.845 102.162 179.845 98.8498Z" fill="white"/>
<path d="M169.294 103.216L174.274 103.574L166.477 111.129C166.462 111.143 166.443 111.152 166.422 111.155C166.402 111.158 166.381 111.155 166.363 111.146C166.345 111.138 166.331 111.124 166.323 111.107C166.315 111.09 166.314 111.071 166.32 111.054L169.294 103.216Z" fill="white"/>
<path opacity="0.84" d="M173.081 100.04C173.741 100.04 174.275 99.507 174.275 98.8493C174.275 98.1915 173.741 97.6583 173.081 97.6583C172.422 97.6583 171.888 98.1915 171.888 98.8493C171.888 99.507 172.422 100.04 173.081 100.04Z" fill="#CDD1EE"/>
<path opacity="0.84" d="M166.715 100.04C167.374 100.04 167.909 99.507 167.909 98.8493C167.909 98.1915 167.374 97.6583 166.715 97.6583C166.056 97.6583 165.521 98.1915 165.521 98.8493C165.521 99.507 166.056 100.04 166.715 100.04Z" fill="#CDD1EE"/>
<path opacity="0.84" d="M160.349 100.04C161.008 100.04 161.543 99.507 161.543 98.8493C161.543 98.1915 161.008 97.6583 160.349 97.6583C159.69 97.6583 159.155 98.1915 159.155 98.8493C159.155 99.507 159.69 100.04 160.349 100.04Z" fill="#CDD1EE"/>
<path d="M109.215 98.4522C109.103 98.4521 108.993 98.4191 108.9 98.3572C108.807 98.2953 108.734 98.2073 108.69 98.1042L107.871 96.1515C106.883 95.9676 105.925 95.6434 105.029 95.1888L103.18 96.2398C103.077 96.2988 102.958 96.3242 102.84 96.3125C102.722 96.3007 102.61 96.2525 102.521 96.1745L100.416 94.333C100.327 94.2552 100.264 94.1515 100.237 94.0363C100.21 93.9212 100.219 93.8004 100.264 93.6909L101.068 91.7258C100.499 90.8991 100.052 89.9952 99.74 89.0418L97.689 88.4836C97.5746 88.4523 97.4728 88.3863 97.3978 88.2946C97.3228 88.203 97.2782 88.0903 97.2703 87.9723L97.0862 85.1849C97.0785 85.067 97.1078 84.9497 97.1699 84.8492C97.2321 84.7487 97.3241 84.67 97.4331 84.6241L99.3938 83.8018C99.5778 82.8157 99.9024 81.861 100.358 80.9668L99.3027 79.1236C99.2439 79.0209 99.2187 78.9025 99.2306 78.7849C99.2425 78.6672 99.2909 78.5562 99.3691 78.4673L101.211 76.368C101.289 76.2791 101.393 76.2168 101.509 76.1897C101.624 76.1626 101.745 76.1722 101.855 76.217L103.824 77.0189C104.653 76.4515 105.559 76.0053 106.515 75.6941L107.075 73.6478C107.106 73.5338 107.172 73.4323 107.264 73.3575C107.355 73.2826 107.468 73.2381 107.586 73.23L110.38 73.0463C110.498 73.0388 110.616 73.0682 110.717 73.1304C110.818 73.1925 110.897 73.2845 110.943 73.3934L111.766 75.3488C112.755 75.5325 113.711 75.8567 114.608 76.3115L116.458 75.2543C116.561 75.1957 116.679 75.1705 116.797 75.1823C116.915 75.194 117.027 75.242 117.116 75.3197L119.218 77.1629C119.308 77.2409 119.37 77.3446 119.397 77.4597C119.425 77.5747 119.415 77.6954 119.371 77.805L118.567 79.7701C119.135 80.5974 119.583 81.5015 119.895 82.455L121.946 83.0122C122.06 83.0435 122.162 83.1096 122.237 83.2012C122.312 83.2929 122.357 83.4056 122.364 83.5236L122.549 86.311C122.556 86.4289 122.527 86.5463 122.464 86.6468C122.402 86.7473 122.31 86.826 122.201 86.8718L120.241 87.694C120.057 88.6802 119.732 89.6349 119.276 90.5291L120.332 92.3723C120.391 92.4752 120.416 92.5937 120.404 92.7114C120.392 92.8292 120.344 92.9403 120.266 93.0294L118.421 95.1296C118.343 95.2185 118.238 95.2808 118.123 95.3078C118.007 95.3349 117.886 95.3254 117.777 95.2807L115.808 94.4734C114.979 95.0409 114.073 95.487 113.118 95.7982L112.563 97.8499C112.531 97.9639 112.465 98.0653 112.374 98.1401C112.282 98.215 112.169 98.2595 112.051 98.2676L109.253 98.4478L109.215 98.4522ZM105.01 94.3259L105.194 94.424C106.133 94.9249 107.147 95.2697 108.197 95.4449L108.402 95.4794L109.335 97.6935L111.863 97.5275L112.497 95.21L112.697 95.1491C113.715 94.8397 114.675 94.3663 115.54 93.7474L115.71 93.6264L117.94 94.5352L119.611 92.6337L118.415 90.5468L118.513 90.3631C119.014 89.4264 119.358 88.4145 119.532 87.3673L119.566 87.1615L121.786 86.2306L121.62 83.7082L119.296 83.0758L119.235 82.8771C118.925 81.8616 118.451 80.9034 117.831 80.0403L117.709 79.8707L118.62 77.6451L116.715 75.9794L114.623 77.1717L114.438 77.0746C113.5 76.5746 112.486 76.231 111.436 76.0571L111.23 76.0227L110.297 73.8067L107.769 73.9728L107.136 76.2903L106.936 76.3512C105.918 76.6609 104.957 77.1344 104.092 77.7528L103.923 77.8694L101.693 76.9606L100.022 78.8621L101.218 80.9491L101.12 81.1328C100.619 82.0697 100.274 83.0819 100.1 84.1295L100.067 84.3344L97.8465 85.2653L98.013 87.7877L100.337 88.42L100.397 88.6188C100.707 89.6343 101.182 90.5924 101.802 91.4556L101.923 91.6251L101.013 93.8552L102.914 95.5182L105.01 94.3259ZM109.846 92.8157C109.497 92.8156 109.149 92.7902 108.803 92.7397C108.754 92.7325 108.707 92.7156 108.664 92.6902C108.622 92.6647 108.585 92.6312 108.555 92.5914C108.526 92.5516 108.504 92.5064 108.492 92.4584C108.48 92.4103 108.477 92.3604 108.485 92.3114C108.492 92.2624 108.509 92.2153 108.534 92.1728C108.56 92.1303 108.594 92.0932 108.633 92.0637C108.673 92.0342 108.719 92.0128 108.767 92.0007C108.815 91.9886 108.865 91.9862 108.914 91.9934C110.218 92.1865 111.55 91.9713 112.726 91.3776C113.903 90.7839 114.865 89.8409 115.482 88.6785C116.099 87.516 116.339 86.1913 116.17 84.8869C116.001 83.5825 115.43 82.3626 114.537 81.3952C113.644 80.4277 112.472 79.7604 111.183 79.4851C109.894 79.2099 108.551 79.3402 107.34 79.8582C106.128 80.3761 105.107 81.2562 104.417 82.3773C103.728 83.4983 103.404 84.8051 103.49 86.1176C103.564 87.2654 103.95 88.3714 104.606 89.3174C104.657 89.3994 104.674 89.4978 104.654 89.5923C104.635 89.6867 104.58 89.7701 104.5 89.8252C104.421 89.8803 104.323 89.9029 104.228 89.8885C104.132 89.874 104.046 89.8236 103.986 89.7475C103.09 88.4552 102.648 86.9033 102.729 85.334C102.809 83.7646 103.408 82.2661 104.432 81.072C105.456 79.878 106.847 79.0556 108.389 78.7332C109.93 78.4107 111.535 78.6064 112.953 79.2896C114.372 79.9729 115.523 81.1053 116.229 82.5101C116.935 83.915 117.154 85.5134 116.854 87.056C116.554 88.5985 115.75 89.9985 114.568 91.0375C113.387 92.0765 111.894 92.6962 110.322 92.7998C110.163 92.8104 110.005 92.8157 109.846 92.8157Z" fill="#AFB6E5"/>
<path d="M109.421 88.9246C108.72 88.9252 108.045 88.662 107.53 88.1877C107.015 87.7134 106.698 87.0628 106.643 86.3657C106.587 85.6685 106.797 84.9762 107.231 84.4267C107.664 83.8773 108.289 83.5111 108.982 83.4013C109.674 83.2915 110.382 83.4461 110.965 83.8343C111.548 84.2225 111.963 84.8157 112.127 85.4956C112.291 86.1755 112.192 86.8921 111.85 87.5024C111.508 88.1127 110.947 88.5719 110.281 88.7882C110.003 88.8782 109.713 88.9242 109.421 88.9246ZM109.426 84.1053C109.103 84.1055 108.785 84.1817 108.497 84.3279C108.21 84.4741 107.961 84.686 107.771 84.9465C107.581 85.2069 107.455 85.5085 107.404 85.8266C107.353 86.1447 107.378 86.4703 107.477 86.777C107.559 87.0323 107.692 87.2688 107.866 87.473C108.041 87.6772 108.254 87.8451 108.493 87.9671C108.733 88.0892 108.994 88.1629 109.262 88.1842C109.53 88.2054 109.8 88.1737 110.056 88.0909C110.519 87.9405 110.913 87.6304 111.167 87.2162C111.422 86.802 111.52 86.3108 111.445 85.8308C111.369 85.3508 111.124 84.9135 110.754 84.5972C110.385 84.281 109.914 84.1066 109.427 84.1053H109.426Z" fill="#AFB6E5"/>
<path d="M122.759 73.8392C122.705 73.8392 122.651 73.8272 122.602 73.8042C122.553 73.7812 122.509 73.7477 122.474 73.7061L121.864 72.9733C121.417 73.0176 120.966 73.003 120.522 72.9298L119.867 73.626C119.814 73.682 119.745 73.7201 119.669 73.7349C119.593 73.7497 119.515 73.7406 119.445 73.7087L118.237 73.1639C118.167 73.1321 118.109 73.0794 118.07 73.0129C118.031 72.9465 118.014 72.8697 118.021 72.7932L118.108 71.8446C117.76 71.561 117.451 71.2323 117.189 70.8673L116.236 70.8943C116.16 70.8958 116.084 70.8738 116.02 70.8311C115.956 70.7885 115.907 70.7273 115.879 70.6558L115.412 69.4166C115.384 69.3448 115.38 69.2662 115.4 69.1919C115.42 69.1176 115.462 69.0513 115.522 69.0024L116.256 68.3932C116.21 67.9468 116.225 67.4964 116.299 67.0539L115.602 66.4003C115.545 66.348 115.506 66.2793 115.49 66.2037C115.475 66.1281 115.483 66.0496 115.515 65.9791L116.061 64.7729C116.093 64.7032 116.146 64.6451 116.212 64.6066C116.279 64.5681 116.355 64.5511 116.432 64.558L117.382 64.645C117.667 64.2975 117.996 63.989 118.362 63.7278L118.334 62.7766C118.332 62.6997 118.354 62.6242 118.397 62.5604C118.44 62.4966 118.502 62.4477 118.574 62.4206L119.814 61.9533C119.887 61.9262 119.965 61.9223 120.04 61.9421C120.115 61.962 120.181 62.0045 120.23 62.0638L120.84 62.7957C121.288 62.751 121.739 62.7656 122.182 62.8392L122.838 62.1474C122.891 62.0915 122.96 62.0534 123.035 62.0386C123.111 62.0238 123.189 62.0329 123.259 62.0647L124.467 62.6095C124.537 62.6413 124.596 62.6941 124.635 62.7605C124.673 62.8269 124.69 62.9037 124.683 62.9802L124.596 63.9288C124.947 64.2103 125.259 64.5372 125.523 64.9009L126.476 64.8739C126.553 64.8715 126.629 64.8933 126.693 64.9363C126.757 64.9792 126.806 65.0411 126.833 65.1132L127.301 66.3516C127.328 66.4237 127.332 66.5024 127.312 66.5768C127.292 66.6512 127.249 66.7176 127.19 66.7667L126.457 67.3759C126.502 67.8225 126.487 68.2732 126.413 68.7161L127.111 69.3696C127.167 69.4221 127.206 69.4908 127.222 69.5663C127.237 69.6418 127.229 69.7203 127.198 69.7908L126.643 70.9926C126.612 71.0629 126.559 71.1216 126.492 71.1603C126.426 71.199 126.349 71.2159 126.272 71.2085L125.322 71.1214C125.037 71.4689 124.708 71.7774 124.343 72.0387L124.37 72.989C124.372 73.0659 124.35 73.1417 124.307 73.2056C124.265 73.2696 124.203 73.3186 124.131 73.3458L122.89 73.8123C122.849 73.8293 122.804 73.8384 122.759 73.8392ZM122.1 72.385L122.819 73.2492L123.808 72.8767L123.776 71.755L123.904 71.668C124.313 71.3936 124.675 71.0548 124.976 70.6645L125.07 70.5418L126.19 70.6463L126.626 69.6846L125.807 68.9136L125.838 68.7622C125.933 68.2792 125.95 67.7839 125.886 67.2958L125.866 67.1435L126.73 66.4264L126.357 65.4396L125.234 65.4718L125.146 65.3438C124.872 64.9346 124.533 64.5731 124.141 64.2734L124.019 64.1803L124.123 63.0611L123.164 62.626L122.391 63.4423L122.241 63.4127C121.757 63.3169 121.261 63.3007 120.772 63.3649L120.619 63.3849L119.901 62.5207L118.911 62.8932L118.943 64.0149L118.815 64.102C118.406 64.3761 118.044 64.715 117.744 65.1054L117.65 65.2281L116.529 65.1236L116.093 66.0809L116.911 66.852L116.882 67.0025C116.786 67.4855 116.77 67.9808 116.834 68.4689L116.854 68.6221L115.989 69.3383L116.361 70.326L117.486 70.2938L117.573 70.4217C117.847 70.831 118.187 71.1925 118.579 71.4922L118.701 71.5853L118.596 72.7035L119.555 73.1387L120.329 72.3224L120.48 72.352C120.963 72.4474 121.46 72.4636 121.949 72.3998L122.1 72.385ZM121.836 71.2998C121.765 71.3006 121.697 71.2743 121.644 71.2264C121.592 71.1785 121.56 71.1125 121.555 71.0419C121.55 70.9712 121.572 70.9013 121.616 70.8462C121.661 70.7911 121.725 70.7551 121.795 70.7455C122.001 70.7144 122.203 70.6619 122.398 70.5888C123.001 70.3617 123.512 69.9417 123.851 69.3944C124.189 68.847 124.337 68.2031 124.271 67.563C124.205 66.9229 123.929 66.3227 123.485 65.8559C123.041 65.3891 122.455 65.082 121.818 64.9825C121.182 64.883 120.53 64.9967 119.964 65.3059C119.399 65.615 118.952 66.1022 118.693 66.6915C118.434 67.2809 118.378 67.9391 118.533 68.5637C118.688 69.1882 119.046 69.7439 119.551 70.1441C119.609 70.1903 119.646 70.2575 119.654 70.3309C119.662 70.4044 119.641 70.4781 119.595 70.5358C119.548 70.5935 119.481 70.6305 119.408 70.6386C119.334 70.6468 119.26 70.6254 119.202 70.5793C118.6 70.1026 118.174 69.4404 117.988 68.6961C117.803 67.9518 117.87 67.1673 118.178 66.4648C118.486 65.7624 119.019 65.1815 119.693 64.8129C120.366 64.4443 121.143 64.3086 121.903 64.4271C122.662 64.5456 123.36 64.9115 123.889 65.4678C124.418 66.024 124.747 66.7394 124.826 67.5023C124.905 68.2652 124.729 69.0326 124.325 69.685C123.921 70.3373 123.312 70.8378 122.593 71.1084C122.361 71.196 122.121 71.2584 121.876 71.2946C121.863 71.2961 121.849 71.2964 121.836 71.2955V71.2998Z" fill="#AFB6E5"/>
<path d="M131.303 153.236V151.884L132.692 150.604C135.453 148.047 136.754 146.639 136.77 145.092C136.77 144.047 136.211 143.128 134.677 143.128C133.648 143.128 132.764 143.651 132.168 144.101L131.518 142.533C132.367 141.849 133.648 141.327 135.129 141.327C137.729 141.327 138.991 142.966 138.991 144.876C138.991 146.93 137.512 148.587 135.471 150.479L134.443 151.362V151.398H139.26V153.235L131.303 153.236Z" fill="white"/>
<path d="M145.264 152.439V149.618H140.057V148.25L144.753 141.327H147.322V148.032H148.81V149.621H147.322V152.442L145.264 152.439ZM145.264 148.031V145.006C145.264 144.374 145.282 143.724 145.335 143.076H145.264C144.91 143.776 144.609 144.34 144.255 144.956L142.147 147.997L142.129 148.032L145.264 148.031Z" fill="white"/>
<path d="M148.81 154.03L152.928 141.327H154.38L150.261 154.03H148.81Z" fill="white"/>
<path d="M163.929 141.327V142.678L158.917 152.442H156.547L161.547 143.105V143.071H155.972V141.327H163.929Z" fill="white"/>
<path d="M120.958 154.03C119.699 154.03 118.468 153.658 117.421 152.96C116.374 152.262 115.558 151.27 115.076 150.109C114.595 148.949 114.468 147.671 114.714 146.439C114.96 145.207 115.566 144.075 116.456 143.187C117.347 142.299 118.481 141.694 119.716 141.449C120.951 141.204 122.231 141.329 123.394 141.81C124.557 142.291 125.552 143.105 126.251 144.15C126.951 145.194 127.324 146.422 127.324 147.678C127.322 149.362 126.651 150.977 125.458 152.168C124.264 153.359 122.646 154.028 120.958 154.03ZM120.958 141.887C119.81 141.887 118.688 142.227 117.733 142.863C116.779 143.5 116.035 144.404 115.595 145.462C115.156 146.52 115.041 147.685 115.265 148.808C115.489 149.932 116.042 150.964 116.854 151.773C117.665 152.583 118.7 153.135 119.826 153.358C120.952 153.582 122.119 153.467 123.179 153.029C124.24 152.59 125.146 151.848 125.784 150.896C126.422 149.943 126.762 148.824 126.762 147.678C126.761 146.143 126.149 144.671 125.061 143.585C123.972 142.5 122.497 141.889 120.958 141.887Z" fill="white"/>
<path d="M123.878 150.854C123.844 150.854 123.81 150.847 123.778 150.832C123.746 150.818 123.717 150.797 123.692 150.77L121.033 147.836C120.985 147.783 120.958 147.711 120.958 147.636V143.199C120.958 143.124 120.986 143.051 121.034 142.998C121.083 142.945 121.15 142.915 121.219 142.915C121.288 142.915 121.355 142.945 121.404 142.998C121.453 143.051 121.48 143.124 121.48 143.199V147.52L124.064 150.369C124.089 150.395 124.108 150.427 124.121 150.461C124.134 150.496 124.141 150.533 124.141 150.57C124.141 150.608 124.134 150.645 124.121 150.679C124.108 150.714 124.089 150.745 124.064 150.772C124.04 150.798 124.011 150.819 123.979 150.834C123.947 150.848 123.913 150.855 123.878 150.854Z" fill="white"/>
<path d="M167.113 61.1356L165.816 65.1055L163.93 62.4323L167.113 61.1356Z" fill="#ACB2D7"/>
<path d="M151.993 53.99L158.613 66.1883C158.676 66.3036 158.761 66.4049 158.863 66.486C158.965 66.5671 159.082 66.6264 159.207 66.6603C159.332 66.6943 159.463 66.7023 159.591 66.6838C159.719 66.6653 159.842 66.6206 159.953 66.5526L171.707 59.3096C171.771 59.2685 171.822 59.209 171.853 59.1386C171.884 59.0681 171.895 58.9898 171.883 58.9134C171.871 58.837 171.837 58.766 171.785 58.7091C171.734 58.6523 171.667 58.6121 171.594 58.5937L151.993 53.99Z" fill="#AFB6E5"/>
<path d="M167.113 62.0827L151.993 53.99L165.249 63.2714L164.94 64.3116L167.113 62.0827Z" fill="#ACB2D7"/>
<path d="M164.726 63.3845L166.317 65.1055L165.76 62.7236L164.726 63.3845Z" fill="#ACB2D7"/>
<path d="M147.855 115.931L147.378 115.922C147.29 115.921 147.216 116.068 147.213 116.252L147.211 116.381C147.208 116.565 147.276 116.715 147.365 116.716L147.841 116.724C147.929 116.726 148.003 116.579 148.006 116.395L148.009 116.266C148.012 116.082 147.943 115.932 147.855 115.931Z" fill="#6667AB"/>
<defs>
<linearGradient id="paint0_linear_2968_13790" x1="59.9133" y1="130.167" x2="69.1316" y2="152.135" gradientUnits="userSpaceOnUse">
<stop stop-color="#464646"/>
<stop offset="1" stop-color="#1A0F91"/>
</linearGradient>
<linearGradient id="paint1_linear_2968_13790" x1="116.929" y1="156.468" x2="119.376" y2="156.346" gradientUnits="userSpaceOnUse">
<stop stop-color="#F9B776"/>
<stop offset="1" stop-color="#F47960"/>
</linearGradient>
<linearGradient id="paint2_linear_2968_13790" x1="113.586" y1="149.456" x2="123.446" y2="133.812" gradientUnits="userSpaceOnUse">
<stop stop-color="#2B3582"/>
<stop offset="0.23" stop-color="#252A70"/>
<stop offset="0.73" stop-color="#19164F"/>
<stop offset="1" stop-color="#150E42"/>
</linearGradient>
<linearGradient id="paint3_linear_2968_13790" x1="109.621" y1="156.091" x2="109.13" y2="136.672" gradientUnits="userSpaceOnUse">
<stop stop-color="#2B3582"/>
<stop offset="1" stop-color="#150E42"/>
</linearGradient>
<linearGradient id="paint4_linear_2968_13790" x1="111.152" y1="122.114" x2="114.929" y2="115.264" gradientUnits="userSpaceOnUse">
<stop stop-color="#F9B776"/>
<stop offset="1" stop-color="#F47960"/>
</linearGradient>
<linearGradient id="paint5_linear_2968_13790" x1="138.614" y1="134.092" x2="113.551" y2="134.338" gradientUnits="userSpaceOnUse">
<stop stop-color="#53D8FF"/>
<stop offset="1" stop-color="#3840F7"/>
</linearGradient>
<linearGradient id="paint6_linear_2968_13790" x1="75.3333" y1="111.855" x2="65.0223" y2="115.881" gradientUnits="userSpaceOnUse">
<stop stop-color="#F9B776"/>
<stop offset="1" stop-color="#F47960"/>
</linearGradient>
</defs>
</svg>
