<svg width="50" height="50" viewBox="0 0 50 50" fill="none" xmlns="http://www.w3.org/2000/svg">
<g clip-path="url(#clip0_2866_1291)">
<path d="M20.6683 9.98465L9.31076 27.9054C9.11972 28.2011 9.01265 28.5435 9.00105 28.8956C8.98946 29.2477 9.07378 29.5964 9.24495 29.9041C9.43442 30.2404 9.71047 30.5195 10.0443 30.7123C10.3781 30.905 10.7574 31.0044 11.1425 30.9999H33.8575C34.2431 31.0039 34.6226 30.904 34.9565 30.7105C35.2903 30.5169 35.5661 30.237 35.755 29.8998C35.9262 29.5922 36.0105 29.2435 35.9989 28.8914C35.9874 28.5392 35.8803 28.1969 35.6892 27.9012L24.3317 9.98465C24.131 9.68183 23.8587 9.43347 23.5391 9.26168C23.2196 9.08989 22.8626 9 22.5 9C22.1374 9 21.7804 9.08989 21.4609 9.26168C21.1413 9.43347 20.869 9.68183 20.6683 9.98465ZM22.9075 10.8917L34.265 28.8125C34.2932 28.8525 34.3092 28.8999 34.3112 28.9488C34.3131 28.9978 34.3009 29.0462 34.276 29.0884C34.233 29.1607 34.1707 29.2195 34.0962 29.2583C34.0217 29.297 33.9378 29.314 33.8541 29.3075H11.1425C11.0588 29.314 10.975 29.297 10.9004 29.2583C10.8259 29.2195 10.7636 29.1607 10.7206 29.0884C10.6957 29.0462 10.6835 28.9978 10.6855 28.9488C10.6874 28.8999 10.7034 28.8525 10.7316 28.8125L22.0925 10.8917C22.1408 10.8295 22.2026 10.7792 22.2732 10.7445C22.3438 10.7099 22.4214 10.6919 22.5 10.6919C22.5786 10.6919 22.6562 10.7099 22.7268 10.7445C22.7974 10.7792 22.8592 10.8295 22.9075 10.8917Z" fill="#6667AB"/>
<path d="M40.5918 35.8866C43.9694 31.3209 45.4959 25.6469 44.8649 20.0028C44.234 14.3587 41.4923 9.16187 37.1898 5.45485C32.8874 1.74783 27.3424 -0.195206 21.6672 0.0155074C15.9921 0.226221 10.6064 2.5751 6.59073 6.59097C2.57501 10.6068 0.226213 15.9926 0.0155069 21.668C-0.195199 27.3434 1.74777 32.8886 5.45465 37.1912C9.16154 41.4938 14.3582 44.2356 20.0021 44.8665C25.646 45.4975 31.3198 43.971 35.8853 40.5933L44.555 49.2624C44.7864 49.4965 45.062 49.6822 45.3658 49.8089C45.6696 49.9355 45.9956 50.0004 46.3247 50H46.3355C46.6625 49.9998 46.9861 49.9345 47.2875 49.8079C47.589 49.6812 47.8621 49.4958 48.0911 49.2624L49.2607 48.097C49.4949 47.8659 49.6808 47.5905 49.8077 47.2869C49.9346 46.9833 50 46.6575 50 46.3285C50 45.9994 49.9346 45.6736 49.8077 45.37C49.6808 45.0664 49.4949 44.7911 49.2607 44.5599L40.5918 35.8866ZM1.71756 22.529C1.71756 18.4129 2.93808 14.3892 5.22478 10.9668C7.51148 7.5444 10.7617 4.87695 14.5643 3.30179C18.3669 1.72663 22.5513 1.31449 26.5881 2.1175C30.625 2.92051 34.3331 4.90261 37.2435 7.81313C40.1539 10.7236 42.1359 14.4319 42.9389 18.4689C43.7419 22.5059 43.3298 26.6904 41.7547 30.4932C40.1796 34.2959 37.5122 37.5462 34.0899 39.833C30.6677 42.1198 26.6441 43.3404 22.5282 43.3404C17.0108 43.3342 11.7211 41.1396 7.81966 37.238C3.91825 33.3365 1.72373 28.0466 1.71756 22.529ZM48.0836 46.9124L46.9066 48.0854C46.8313 48.1641 46.7409 48.2269 46.6408 48.2698C46.5406 48.3127 46.4328 48.3349 46.3239 48.3351C46.2135 48.3349 46.1042 48.3126 46.0024 48.2698C45.9007 48.2269 45.8085 48.1642 45.7312 48.0854L37.1897 39.5427C38.0303 38.8177 38.8163 38.0317 39.5413 37.191L48.0836 45.7378C48.1621 45.8142 48.2245 45.9055 48.2672 46.0063C48.3098 46.1072 48.3317 46.2156 48.3317 46.3251C48.3317 46.4346 48.3098 46.543 48.2672 46.6439C48.2245 46.7448 48.1621 46.8361 48.0836 46.9124Z" fill="#6667AB"/>
<path d="M26.3124 3.49587C26.206 3.46895 26.0953 3.4635 25.9868 3.47983C25.8782 3.49616 25.774 3.53395 25.6802 3.59099C25.5865 3.64803 25.505 3.72319 25.4406 3.81206C25.3762 3.90093 25.3301 4.00174 25.3051 4.10861C25.28 4.21548 25.2765 4.32627 25.2948 4.4345C25.313 4.54274 25.3527 4.64625 25.4114 4.739C25.4701 4.83175 25.5466 4.91188 25.6366 4.97472C25.7266 5.03755 25.8283 5.08182 25.9356 5.10496C30.253 6.1099 34.0225 8.7281 36.4716 12.4229C38.9206 16.1178 39.8638 20.6094 39.1076 24.9773C38.3515 29.3451 35.9534 33.2584 32.4049 35.915C28.8563 38.5716 24.426 39.7703 20.022 39.2655C15.6181 38.7607 11.5739 36.5906 8.71854 33.1999C5.86315 29.8092 4.41275 25.4548 4.6646 21.0292C4.91646 16.6035 6.8515 12.4418 10.0731 9.39697C13.2947 6.35214 17.5589 4.65482 21.9918 4.65289C22.2109 4.65289 22.4212 4.56582 22.5761 4.41083C22.7311 4.25584 22.8182 4.04563 22.8182 3.82645C22.8182 3.60726 22.7311 3.39705 22.5761 3.24206C22.4212 3.08707 22.2109 3 21.9918 3C17.1412 3.0021 12.4751 4.85928 8.94972 8.19094C5.42436 11.5226 3.30672 16.0764 3.03079 20.9191C2.75486 25.7619 4.34153 30.5267 7.46564 34.2373C10.5897 37.9478 15.0147 40.323 19.8336 40.876C24.6526 41.4291 29.5006 40.1181 33.3841 37.2118C37.2676 34.3056 39.8925 30.024 40.7208 25.2447C41.5492 20.4654 40.5183 15.5502 37.8394 11.5065C35.1604 7.4628 31.0364 4.59681 26.3124 3.49587Z" fill="#6667AB"/>
<path d="M22 15.8V22.2C22 22.4122 22.1054 22.6157 22.2929 22.7657C22.4804 22.9157 22.7348 23 23 23C23.2652 23 23.5196 22.9157 23.7071 22.7657C23.8946 22.6157 24 22.4122 24 22.2V15.8C24 15.5878 23.8946 15.3843 23.7071 15.2343C23.5196 15.0843 23.2652 15 23 15C22.7348 15 22.4804 15.0843 22.2929 15.2343C22.1054 15.3843 22 15.5878 22 15.8Z" fill="#6667AB"/>
<path d="M23 25C22.7348 25 22.4804 25.1003 22.2929 25.2789C22.1054 25.4576 22 25.6998 22 25.9524V26.0476C22 26.3002 22.1054 26.5424 22.2929 26.7211C22.4804 26.8997 22.7348 27 23 27C23.2652 27 23.5196 26.8997 23.7071 26.7211C23.8946 26.5424 24 26.3002 24 26.0476V25.9524C24 25.6998 23.8946 25.4576 23.7071 25.2789C23.5196 25.1003 23.2652 25 23 25Z" fill="#6667AB"/>
</g>
<defs>
<clipPath id="clip0_2866_1291">
<rect width="50" height="50" fill="white"/>
</clipPath>
</defs>
</svg>
