<svg width="30" height="30" viewBox="0 0 30 30" fill="none" xmlns="http://www.w3.org/2000/svg">
<path d="M29.1266 5.46689C29.1248 5.46689 29.1229 5.46667 29.1211 5.46667H21.1523V4.6C21.1523 3.16639 19.9695 2 18.5156 2H11.4844C10.0305 2 8.84766 3.16639 8.84766 4.6V5.46667H0.878906C0.389557 5.46667 0 5.86208 0 6.33333V25.4C0 26.8336 1.18286 28 2.63672 28H27.3633C28.8171 28 30 26.8336 30 25.4V6.35161C30 6.35049 30 6.34936 30 6.34823C29.9664 5.77903 29.6114 5.47005 29.1266 5.46689ZM10.6055 4.6C10.6055 4.1222 10.9998 3.73333 11.4844 3.73333H18.5156C19.0002 3.73333 19.3945 4.1222 19.3945 4.6V5.46667H10.6055V4.6ZM27.9016 7.2L25.1722 15.274C25.0525 15.6286 24.7174 15.8667 24.3386 15.8667H19.3945V15C19.3945 14.5213 19.0011 14.1333 18.5156 14.1333H11.4844C10.9989 14.1333 10.6055 14.5213 10.6055 15V15.8667H5.66139C5.28259 15.8667 4.94751 15.6286 4.8278 15.274L2.09839 7.2H27.9016ZM17.6367 15.8667V17.6H12.3633V15.8667H17.6367ZM28.2422 25.4C28.2422 25.8778 27.8478 26.2667 27.3633 26.2667H2.63672C2.15218 26.2667 1.75781 25.8778 1.75781 25.4V11.6739L3.16017 15.8222C3.51952 16.8857 4.52477 17.6 5.66139 17.6H10.6055V18.4667C10.6055 18.9454 10.9989 19.3333 11.4844 19.3333H18.5156C19.0011 19.3333 19.3945 18.9454 19.3945 18.4667V17.6H24.3386C25.4752 17.6 26.4805 16.8857 26.8398 15.8222L28.2422 11.6739V25.4Z" fill="#6667AB"/>
</svg>
