<svg width="30" height="30" viewBox="0 0 30 30" fill="none" xmlns="http://www.w3.org/2000/svg">
<path d="M26.0769 14.12H19.6154C17.5902 14.12 15.9231 15.7815 15.9231 17.8C15.9231 19.8185 17.5902 21.48 19.6154 21.48H23.3077V24.24C23.3077 24.7451 22.8914 25.16 22.3846 25.16H7.61538C6.096 25.16 4.84615 23.9143 4.84615 22.4V8.6C4.84615 7.08568 6.096 5.84 7.61538 5.84H9.46154C9.96831 5.84 10.3846 5.42508 10.3846 4.92C10.3846 4.41492 9.96831 4 9.46154 4H7.61538C5.08338 4 3 6.07644 3 8.6V22.4C3 24.9236 5.08338 27 7.61538 27H22.3846C23.904 27 25.1538 25.7543 25.1538 24.24V21.48H26.0769C26.5837 21.48 27 21.0651 27 20.56V15.04C27 14.5349 26.5837 14.12 26.0769 14.12ZM25.1538 19.64H19.6154C18.6028 19.64 17.7692 18.8092 17.7692 17.8C17.7692 16.7908 18.6028 15.96 19.6154 15.96H25.1538V19.64Z" fill="#6667AB"/>
<path d="M7.607 7.56169C6.60438 8.00012 6.93589 9.29921 7.93042 9.29921H22.3048C22.798 9.29921 23.2032 9.70522 23.2032 10.1995V11.0997C23.2032 11.594 23.6084 12 24.1016 12C24.5948 12 25 11.594 25 11.0997V10.1995C24.9991 9.48376 24.7152 8.79686 24.2094 8.29091C23.7045 7.78406 23.019 7.49958 22.3048 7.49868H22.0173L20.4451 3.56452C20.2627 3.10989 19.7417 2.88302 19.2862 3.06037L7.607 7.56169ZM20.0768 7.49868H12.7728L19.1065 5.05896L20.0768 7.49868Z" fill="#6667AB"/>
</svg>
