<svg width="30" height="30" viewBox="0 0 30 30" fill="none" xmlns="http://www.w3.org/2000/svg">
<path d="M25.6055 4.39453C22.7754 1.55859 19.0078 0 15 0C10.9922 0 7.22461 1.55859 4.39453 4.39453C1.56445 7.23047 0 10.9922 0 15C0 19.0078 1.55859 22.7754 4.39453 25.6055C7.23047 28.4355 10.9922 30 15 30C19.0078 30 22.7754 28.4414 25.6055 25.6055C28.4355 22.7695 30 19.0078 30 15C30 10.9922 28.4414 7.22461 25.6055 4.39453ZM15 27.6562C8.02148 27.6562 2.34375 21.9785 2.34375 15C2.34375 8.02148 8.02148 2.34375 15 2.34375C21.9785 2.34375 27.6562 8.02148 27.6562 15C27.6562 21.9785 21.9785 27.6562 15 27.6562ZM20.2734 13.8281C20.9206 13.8281 21.4453 14.3528 21.4453 15V15C21.4453 15.6472 20.9206 16.1719 20.2734 16.1719H9.72656C9.07935 16.1719 8.55469 15.6472 8.55469 15V15C8.55469 14.3528 9.07935 13.8281 9.72656 13.8281H20.2734Z" fill="#C2C2DD"/>
</svg>
