<svg width="70" height="70" viewBox="0 0 70 70" fill="none" xmlns="http://www.w3.org/2000/svg">
<g clip-path="url(#clip0_2876_1821)">
<path d="M69.058 32.2159C69.0007 31.767 68.799 31.3489 68.4833 31.0248C68.1675 30.7007 67.7549 30.488 67.3077 30.419L65.2576 30.0829C64.4884 25.7492 62.7807 21.6362 60.2541 18.0322L61.47 16.3333C61.7388 15.9678 61.882 15.5251 61.8783 15.0714C61.8745 14.6177 61.7239 14.1774 61.449 13.8165C60.781 12.9938 60.0665 12.2099 59.309 11.4689C58.5628 10.7181 57.7793 10.0054 56.9613 9.3336C56.6003 9.05873 56.16 8.90813 55.7063 8.90435C55.2526 8.90056 54.8099 9.04379 54.4444 9.3126L52.7443 10.5284C49.1407 8.00172 45.0278 6.29403 40.6943 5.52515L40.3582 3.47507C40.2892 3.02787 40.0765 2.61526 39.7524 2.29954C39.4282 1.98381 39.0101 1.7821 38.5613 1.72485C36.4522 1.49927 34.325 1.49927 32.2159 1.72485C31.7671 1.7821 31.349 1.98381 31.0248 2.29954C30.7007 2.61526 30.488 3.02787 30.419 3.47507L30.0829 5.52515C25.7494 6.29403 21.6366 8.00172 18.0329 10.5284L16.3328 9.3126C15.9673 9.04379 15.5246 8.90056 15.0709 8.90435C14.6172 8.90813 14.1769 9.05873 13.8159 9.3336C12.9979 10.0054 12.2144 10.7181 11.4682 11.4689C10.7123 12.2101 9.99936 12.9939 9.3329 13.8165C9.05801 14.1774 8.90741 14.6177 8.90362 15.0714C8.89984 15.5251 9.04307 15.9678 9.31189 16.3333L10.5277 18.0322C8.00117 21.6362 6.29346 25.7492 5.52431 30.0829L3.47415 30.419C3.02694 30.488 2.61432 30.7007 2.29859 31.0248C1.98285 31.3489 1.78113 31.767 1.72388 32.2159C1.49829 34.3249 1.49829 36.4519 1.72388 38.561C1.78473 39.0084 1.98764 39.4245 2.30273 39.748C2.61782 40.0715 3.02844 40.2852 3.47415 40.3578L5.52431 40.6939C6.29346 45.0276 8.00117 49.1406 10.5277 52.7447L9.31189 54.4435C9.04227 54.8085 8.89852 55.2511 8.90231 55.7049C8.9061 56.1586 9.05721 56.5988 9.3329 56.9592C10.0044 57.7778 10.7171 58.5617 11.4682 59.308C12.229 60.0699 13.012 60.7676 13.8148 61.4444C14.1757 61.7193 14.616 61.8699 15.0697 61.8736C15.5234 61.8774 15.9661 61.7342 16.3316 61.4654L18.0306 60.2496C21.6348 62.7761 25.7479 64.4837 30.0818 65.2528L30.4178 67.3029C30.4869 67.7501 30.6995 68.1627 31.0237 68.4785C31.3478 68.7942 31.7659 68.9959 32.2148 69.0531C34.3239 69.2787 36.451 69.2787 38.5601 69.0531C39.009 68.9959 39.427 68.7942 39.7512 68.4785C40.0754 68.1627 40.288 67.7501 40.357 67.3029L40.6931 65.2528C45.0269 64.4837 49.1401 62.7761 52.7443 60.2496L54.4432 61.4654C54.8087 61.7342 55.2515 61.8774 55.7052 61.8736C56.1589 61.8699 56.5991 61.7193 56.9601 61.4444C57.7629 60.7676 58.5459 60.0699 59.3066 59.308C60.0581 58.5621 60.7712 57.7786 61.4431 56.9603C61.7188 56.6 61.8699 56.1598 61.8737 55.706C61.8775 55.2523 61.7338 54.8097 61.4641 54.4447L60.2483 52.7458C62.7749 49.1418 64.4826 45.0287 65.2517 40.695L67.3019 40.359C67.7476 40.2864 68.1582 40.0726 68.4733 39.7492C68.7884 39.4257 68.9913 39.0096 69.0522 38.5621C69.2777 36.4531 69.2777 34.326 69.0522 32.217L69.058 32.2159Z" fill="#C6D8FB"/>
<path d="M69.0515 31.8318C68.9934 31.3836 68.7888 30.9662 68.4684 30.6426C68.1481 30.3189 67.7295 30.1066 67.2758 30.0377L65.1958 29.7021C64.4154 25.375 62.6829 21.2682 60.1195 17.6697L61.3531 15.9734C61.6258 15.6084 61.7711 15.1664 61.7673 14.7134C61.7634 14.2604 61.6106 13.8208 61.3317 13.4604C60.6541 12.6389 59.9292 11.8563 59.1606 11.1164C58.4036 10.3667 57.6086 9.65511 56.7787 8.98434C56.4125 8.70989 55.9658 8.55952 55.5055 8.55574C55.0452 8.55196 54.596 8.69497 54.2252 8.96337L53.6653 9.35715C54.3258 9.91171 54.9758 10.4954 55.6079 11.1175C56.3752 11.8572 57.0989 12.6394 57.7755 13.4604C58.0544 13.8208 58.2072 14.2604 58.211 14.7134C58.2149 15.1664 58.0696 15.6084 57.7968 15.9734L56.5633 17.6697C59.1266 21.2682 60.8592 25.375 61.6395 29.7021L63.7195 30.0377C64.1733 30.1066 64.5919 30.3189 64.9122 30.6426C65.2325 30.9662 65.4372 31.3836 65.4953 31.8318C65.7242 33.9376 65.7242 36.0614 65.4953 38.1673C65.4335 38.614 65.2277 39.0295 64.908 39.3525C64.5883 39.6755 64.1717 39.8889 63.7195 39.9614L61.6395 40.2969C60.8592 44.624 59.1266 48.7308 56.5633 52.3294L57.7968 54.0257C58.0704 54.3901 58.2162 54.8321 58.2124 55.2851C58.2085 55.7381 58.0552 56.1777 57.7755 56.5375C57.0942 57.3549 56.3712 58.1376 55.6091 58.8827C54.9769 59.506 54.3258 60.0804 53.6641 60.6419L54.2264 61.0368C54.5972 61.3053 55.0464 61.4483 55.5067 61.4445C55.967 61.4407 56.4137 61.2903 56.7799 61.0159C57.5944 60.3402 58.3887 59.6435 59.1606 58.8827C59.923 58.138 60.6465 57.3557 61.3282 56.5387C61.6079 56.1788 61.7612 55.7393 61.765 55.2863C61.7689 54.8332 61.6231 54.3912 61.3495 54.0268L60.1159 52.3306C62.6793 48.732 64.4119 44.6252 65.1922 40.2981L67.2722 39.9626C67.7244 39.8901 68.141 39.6766 68.4607 39.3536C68.7804 39.0306 68.9862 38.6152 69.048 38.1684C69.2768 36.0626 69.2768 33.9388 69.048 31.833L69.0515 31.8318Z" fill="#D0D1F7"/>
<path d="M34.9987 60.6668C49.174 60.6668 60.6654 49.1755 60.6654 35.0002C60.6654 20.8249 49.174 9.3335 34.9987 9.3335C20.8234 9.3335 9.33203 20.8249 9.33203 35.0002C9.33203 49.1755 20.8234 60.6668 34.9987 60.6668Z" fill="white"/>
<path d="M35.1829 9.3335C34.6037 9.3335 34.0245 9.36033 33.4453 9.4C39.8873 9.8426 45.9221 12.7321 50.3297 17.4844C54.7373 22.2366 57.189 28.4971 57.189 35.0002C57.189 41.5032 54.7373 47.7637 50.3297 52.516C45.9221 57.2682 39.8873 60.1577 33.4453 60.6003C34.0245 60.64 34.6037 60.6668 35.1829 60.6668C41.9418 60.6668 48.424 57.9627 53.2033 53.1492C57.9826 48.3358 60.6675 41.8074 60.6675 35.0002C60.6675 28.1929 57.9826 21.6645 53.2033 16.8511C48.424 12.0377 41.9418 9.3335 35.1829 9.3335Z" fill="#CAD9FC"/>
<path d="M9.44597 56.5385C10.8158 58.1683 12.3386 59.6674 13.9943 61.0159C14.3606 61.2903 14.8073 61.4407 15.2676 61.4445C15.7279 61.4483 16.1771 61.3052 16.5479 61.0368L17.1102 60.6407C15.6198 59.3946 14.2436 58.0219 12.9975 56.5385C12.7178 56.1787 12.5645 55.7392 12.5607 55.2861C12.5568 54.8331 12.7027 54.3911 12.9762 54.0267L14.2098 52.3304C11.6464 48.7317 9.91379 44.6248 9.13343 40.2976L7.0534 39.9621C6.60119 39.8896 6.18458 39.6761 5.8649 39.3531C5.54522 39.0302 5.33935 38.6147 5.27762 38.1679C5.04913 36.062 5.04913 33.9382 5.27762 31.8323C5.3357 31.3841 5.54036 30.9667 5.8607 30.643C6.18103 30.3194 6.59967 30.1071 7.0534 30.0381L9.13343 29.7026C9.91379 25.3754 11.6464 21.2685 14.2098 17.6699L12.9762 15.9735C12.7035 15.6086 12.5582 15.1665 12.562 14.7135C12.5658 14.2605 12.7186 13.8209 12.9975 13.4605C14.2431 11.9771 15.6181 10.6037 17.1067 9.35601L16.5479 8.96338C16.1771 8.69497 15.7279 8.55196 15.2676 8.55574C14.8073 8.55952 14.3606 8.70989 13.9943 8.98435C12.3364 10.33 10.8133 11.8289 9.44597 13.4605C9.16708 13.8209 9.01428 14.2605 9.01044 14.7135C9.0066 15.1665 9.15192 15.6086 9.42466 15.9735L10.6582 17.6699C8.09483 21.2685 6.36223 25.3754 5.58187 29.7026L3.50183 30.0381C3.0481 30.1071 2.62947 30.3194 2.30913 30.643C1.98879 30.9667 1.78414 31.3841 1.72605 31.8323C1.49757 33.9382 1.49757 36.062 1.72605 38.1679C1.78779 38.6147 1.99365 39.0302 2.31334 39.3531C2.63302 39.6761 3.04963 39.8896 3.50183 39.9621L5.58187 40.2976C6.36223 44.6248 8.09483 48.7317 10.6582 52.3304L9.42466 54.0267C9.1511 54.3911 9.00526 54.8331 9.00911 55.2861C9.01295 55.7392 9.16627 56.1787 9.44597 56.5385Z" fill="white"/>
<path d="M6.91117 26.4444L4.66406 25.7522C5.63633 22.6704 7.0848 19.7556 8.95817 17.1111L10.8863 18.4466C9.15295 20.8946 7.81214 23.5923 6.91117 26.4444Z" fill="white"/>
<path d="M35.388 62.2223C40.6951 62.2223 45.8831 60.6486 50.2958 57.7001C54.7085 54.7516 58.1478 50.5608 60.1788 45.6577C62.2097 40.7545 62.7411 35.3592 61.7057 30.1541C60.6704 24.9489 58.1148 20.1677 54.362 16.415C50.6093 12.6623 45.8281 10.1066 40.6229 9.07127C35.4178 8.0359 30.0225 8.56729 25.1193 10.5982C20.2162 12.6292 16.0254 16.0685 13.0769 20.4812C10.1284 24.8939 8.55469 30.0819 8.55469 35.389C8.56241 42.5033 11.392 49.324 16.4225 54.3545C21.4531 59.3851 28.2737 62.2146 35.388 62.2223ZM35.388 10.889C40.2337 10.889 44.9705 12.3259 48.9995 15.018C53.0285 17.7101 56.1687 21.5365 58.0231 26.0133C59.8774 30.49 60.3626 35.4162 59.4173 40.1687C58.4719 44.9212 56.1385 49.2867 52.7121 52.7131C49.2857 56.1395 44.9203 58.4729 40.1677 59.4182C35.4152 60.3636 30.4891 59.8784 26.0123 58.024C21.5355 56.1697 17.7091 53.0295 15.017 49.0005C12.3249 44.9715 10.888 40.2346 10.888 35.389C10.8954 28.8935 13.4791 22.6661 18.0721 18.0731C22.6651 13.48 28.8925 10.8964 35.388 10.889Z" fill="#6667AB"/>
<path d="M8.16958 22.5555C7.86094 22.557 7.56432 22.4356 7.34498 22.2179C7.12565 22.0002 7.00156 21.7041 7.00001 21.3947C6.99847 21.0852 7.1196 20.7879 7.33675 20.568C7.55391 20.3481 7.8493 20.2237 8.15795 20.2222H8.16958C8.47823 20.2222 8.77423 20.3451 8.99248 20.5639C9.21072 20.7827 9.33333 21.0794 9.33333 21.3888C9.33333 21.6982 9.21072 21.995 8.99248 22.2138C8.77423 22.4326 8.47823 22.5555 8.16958 22.5555Z" fill="#6667AB"/>
<path d="M67.0884 28.8802L65.8438 28.6772C65.0445 24.746 63.4917 21.0068 61.2711 17.6658L62.0095 16.6334C62.428 16.0591 62.6479 15.364 62.6356 14.6535C62.6234 13.9429 62.3799 13.2558 61.9419 12.6962C61.2499 11.8436 60.5099 11.0312 59.7255 10.2627C58.9472 9.47678 58.1296 8.73077 57.2759 8.02752C56.7178 7.59612 56.0344 7.35831 55.3291 7.3501C54.6238 7.34189 53.935 7.56373 53.367 7.98203L52.3312 8.72397C48.9906 6.50302 45.2516 4.95009 41.3206 4.15096L41.1177 2.90622C41.006 2.20529 40.669 1.55982 40.1577 1.0675C39.6465 0.575169 38.9888 0.262771 38.2843 0.177574C36.0934 -0.0591914 33.8833 -0.0591914 31.6924 0.177574C30.9911 0.265951 30.3374 0.579475 29.8294 1.07107C29.3215 1.56266 28.9867 2.20579 28.8753 2.90388L28.6724 4.14863C24.7414 4.94775 21.0024 6.50068 17.6618 8.72164L16.6295 7.98319C16.0568 7.56208 15.362 7.34014 14.6512 7.35131C13.9405 7.36247 13.2529 7.60613 12.6938 8.04502C11.8496 8.73832 11.0413 9.47422 10.2721 10.2499C9.47988 11.0261 8.73287 11.8471 8.03479 12.709C7.60139 13.2678 7.36153 13.9524 7.35143 14.6595C7.34133 15.3666 7.56154 16.0578 7.9788 16.6288L9.19429 18.3273C9.28344 18.4519 9.39627 18.5578 9.52632 18.6388C9.65638 18.7198 9.80112 18.7744 9.95228 18.7995C10.1034 18.8246 10.2581 18.8196 10.4073 18.785C10.5566 18.7503 10.6975 18.6865 10.8221 18.5974C10.9467 18.5082 11.0526 18.3954 11.1336 18.2653C11.2146 18.1352 11.2692 17.9905 11.2943 17.8393C11.3194 17.6881 11.3144 17.5335 11.2797 17.3842C11.2451 17.235 11.1813 17.094 11.0922 16.9694L9.87319 15.2662C9.75502 15.1095 9.68927 14.9195 9.6853 14.7232C9.68132 14.527 9.73931 14.3345 9.85102 14.1731C10.4927 13.3801 11.1802 12.6252 11.9099 11.9122C12.6196 11.196 13.3652 10.5162 14.1437 9.87539C14.3057 9.75313 14.503 9.68698 14.706 9.68698C14.9089 9.68698 15.1063 9.75313 15.2682 9.87539L16.9666 11.091C17.1629 11.2314 17.3979 11.3074 17.6392 11.3087C17.8805 11.3099 18.1162 11.2363 18.3139 11.098C21.7744 8.66324 25.7289 7.02102 29.896 6.28815C30.134 6.24583 30.353 6.1306 30.5227 5.9584C30.6924 5.78619 30.8044 5.56551 30.8432 5.32688L31.1792 3.27836C31.2047 3.08299 31.2929 2.90115 31.4304 2.76005C31.5679 2.61895 31.7474 2.52616 31.942 2.49558C33.9671 2.27859 36.0096 2.27859 38.0346 2.49558C38.2321 2.52399 38.4148 2.61602 38.5552 2.7577C38.6957 2.89939 38.786 3.083 38.8127 3.28069L39.1486 5.32921C39.1874 5.56785 39.2994 5.78852 39.4691 5.96073C39.6388 6.13294 39.8578 6.24816 40.0958 6.29048C44.2627 7.02422 48.2168 8.66723 51.6768 11.1026C51.8745 11.241 52.1102 11.3146 52.3515 11.3133C52.5928 11.3121 52.8278 11.236 53.0241 11.0956L54.726 9.87656C54.8826 9.75657 55.0735 9.6898 55.2708 9.68603C55.468 9.68225 55.6614 9.74165 55.8225 9.85556C56.6136 10.5066 57.3713 11.1973 58.0925 11.9251C58.813 12.6303 59.4923 13.3767 60.1268 14.1603C60.2436 14.3226 60.3051 14.5181 60.3024 14.7181C60.2997 14.918 60.2328 15.1118 60.1116 15.2708L58.8962 16.9694C58.7558 17.1657 58.6797 17.4007 58.6785 17.642C58.6772 17.8833 58.7508 18.1191 58.8892 18.3168C61.3234 21.7782 62.9655 25.7333 63.6986 29.901C63.7409 30.139 63.8561 30.358 64.0283 30.5277C64.2005 30.6974 64.4212 30.8094 64.6598 30.8483L66.7082 31.1842C66.9035 31.2098 67.0853 31.298 67.2264 31.4355C67.3675 31.573 67.4603 31.7525 67.4909 31.9472C67.7071 33.9717 67.7071 36.0134 67.4909 38.0379C67.4587 38.234 67.3655 38.415 67.2246 38.5551C67.0837 38.6953 66.9021 38.7874 66.7058 38.8184L64.6575 39.1543C64.4189 39.1932 64.1982 39.3052 64.026 39.4749C63.8538 39.6446 63.7386 39.8636 63.6963 40.1016C62.9631 44.2693 61.3211 48.2244 58.8868 51.6858C58.7485 51.8835 58.6749 52.1193 58.6762 52.3606C58.6774 52.6019 58.7535 52.8369 58.8938 53.0332L60.1233 54.7492C60.2385 54.9052 60.3017 55.0936 60.3037 55.2875C60.3058 55.4814 60.2468 55.6711 60.135 55.8295C59.4872 56.6173 58.8001 57.3719 58.0761 58.0903C57.4206 58.7483 56.6973 59.4062 55.8423 60.1272C55.6803 60.2495 55.483 60.3156 55.28 60.3156C55.0771 60.3156 54.8797 60.2495 54.7178 60.1272L53.0205 58.9116C52.8243 58.7712 52.5893 58.6952 52.348 58.6939C52.1067 58.6927 51.871 58.7663 51.6733 58.9046C48.2122 61.3391 44.2574 62.9812 40.09 63.7144C39.852 63.7568 39.633 63.872 39.4633 64.0442C39.2936 64.2164 39.1816 64.4371 39.1428 64.6757L38.8068 66.7242C38.7813 66.9196 38.6931 67.1014 38.5556 67.2425C38.4181 67.3836 38.2386 67.4764 38.044 67.507C36.0189 67.724 33.9764 67.724 31.9514 67.507C31.7539 67.4786 31.5712 67.3866 31.4308 67.2449C31.2903 67.1032 31.2 66.9196 31.1733 66.7219L30.8374 64.6734C30.7986 64.4347 30.6866 64.2141 30.5169 64.0419C30.3472 63.8697 30.1282 63.7544 29.8902 63.7121C25.7228 62.9789 21.768 61.3367 18.3069 58.9023C18.1092 58.7639 17.8735 58.6903 17.6322 58.6916C17.3909 58.6928 17.1559 58.7689 16.9596 58.9093L15.2589 60.1284C15.1049 60.2472 14.9173 60.3144 14.7229 60.3202C14.5285 60.3261 14.3372 60.2704 14.1764 60.161C13.2828 59.4086 12.5596 58.7506 11.9029 58.0915C11.187 57.3814 10.5073 56.6358 9.86619 55.8575C9.74421 55.6956 9.67823 55.4985 9.67823 55.2958C9.67823 55.0931 9.74421 54.8959 9.86619 54.7341L11.0817 53.0355C11.2246 52.8399 11.3031 52.6046 11.3063 52.3623C11.3094 52.12 11.237 51.8827 11.0992 51.6835C8.66491 48.2221 7.02286 44.267 6.28972 40.0993C6.24741 39.8612 6.13219 39.6422 5.96 39.4725C5.78781 39.3028 5.56715 39.1908 5.32853 39.152L3.28017 38.816C3.08647 38.7863 2.90691 38.6968 2.76657 38.56C2.62623 38.4232 2.53215 38.246 2.49746 38.0531C2.28125 36.0278 2.28125 33.9853 2.49746 31.96C2.52587 31.7626 2.61789 31.5798 2.75956 31.4393C2.90123 31.2989 3.08483 31.2085 3.28251 31.1819L5.33087 30.8459C5.56839 30.806 5.78754 30.6929 5.95775 30.5225C6.12796 30.3521 6.24075 30.1327 6.28039 29.8952H6.29205C6.50794 28.6915 6.79817 27.5025 7.16109 26.3347C7.24543 26.0437 7.21534 25.7314 7.07699 25.4619C6.93864 25.1923 6.70248 24.9858 6.41687 24.8847C6.27 24.8333 6.11421 24.8124 5.95898 24.8231C5.80376 24.8339 5.65235 24.8761 5.51398 24.9473C5.37561 25.0185 5.25316 25.117 5.1541 25.237C5.05503 25.357 4.98143 25.4959 4.93776 25.6453C4.62747 26.6404 4.38134 27.653 4.17137 28.6784L2.90923 28.8849C2.20816 28.9952 1.56208 29.3308 1.06874 29.841C0.575401 30.3512 0.261655 31.0083 0.174972 31.7127C-0.0583241 33.9051 -0.0583241 36.1161 0.174972 38.3086C0.264047 39.0093 0.577859 39.6623 1.06936 40.1696C1.56085 40.6769 2.20354 41.0112 2.90106 41.1224L4.14571 41.3254C4.94519 45.2569 6.49796 48.9965 8.71836 52.3379L7.99047 53.3563C7.56773 53.9309 7.3447 54.6281 7.35544 55.3414C7.36618 56.0547 7.61011 56.7448 8.04996 57.3064C8.70436 58.1078 9.44975 58.9268 10.2663 59.7399C10.972 60.4468 11.7419 61.1468 12.7253 61.9751C13.2837 62.4056 13.967 62.6428 14.6721 62.651C15.3772 62.6592 16.0658 62.4379 16.6342 62.0206L17.67 61.2786C21.0107 63.4994 24.7496 65.0523 28.6805 65.8516L28.8835 67.0964C28.9952 67.7971 29.332 68.4425 29.843 68.9348C30.354 69.4271 31.0114 69.7396 31.7157 69.825C33.9068 70.0583 36.1165 70.0583 38.3076 69.825C39.0089 69.7366 39.6626 69.4231 40.1706 68.9315C40.6785 68.4399 41.0133 67.7968 41.1247 67.0987L41.3276 65.854C45.2585 65.0546 48.9975 63.5017 52.3382 61.2809L53.3705 62.0194C53.9467 62.4405 54.6448 62.6612 55.3583 62.648C56.0718 62.6347 56.7613 62.3881 57.3214 61.9459C58.2663 61.1491 59.0361 60.4492 59.7407 59.7434C60.5549 58.9291 61.2999 58.1094 61.9757 57.2842C62.4055 56.7257 62.6424 56.0426 62.6506 55.3378C62.6588 54.633 62.4379 53.9446 62.0212 53.3762L61.2793 52.3391C63.4999 48.9982 65.0527 45.2589 65.852 41.3277L67.0966 41.1247C67.7973 41.013 68.4426 40.6762 68.9349 40.1652C69.4271 39.6541 69.7396 38.9967 69.825 38.2922C70.0583 36.101 70.0583 33.8911 69.825 31.6999C69.7366 30.9966 69.4217 30.3411 68.9281 29.8325C68.4344 29.3239 67.7887 28.9896 67.0884 28.8802Z" fill="#6667AB"/>
<path d="M12.7911 37.0694C13.0107 37.2919 13.3085 37.4169 13.619 37.4169C13.9295 37.4169 14.2274 37.2919 14.447 37.0694L14.8697 36.641C15.231 41.2863 17.1684 45.6614 20.3526 49.0226C23.5368 52.3839 27.7713 54.5238 32.3362 55.0786C36.9011 55.6334 41.5147 54.5688 45.3928 52.0659C49.2709 49.563 52.174 45.7762 53.6087 41.3492C53.6568 41.2011 53.6757 41.0449 53.6643 40.8894C53.6529 40.734 53.6113 40.5823 53.5421 40.4431C53.4728 40.3039 53.3771 40.1799 53.2606 40.0782C53.144 39.9765 53.0089 39.899 52.8628 39.8502C52.7167 39.8014 52.5625 39.7823 52.4091 39.7939C52.2557 39.8055 52.1061 39.8476 51.9688 39.9178C51.8314 39.988 51.7091 40.0849 51.6087 40.203C51.5083 40.3211 51.4319 40.4582 51.3837 40.6062C50.1259 44.484 47.5913 47.8058 44.2048 50.0153C40.8182 52.2248 36.7854 53.1877 32.7818 52.7427C28.7782 52.2976 25.0472 50.4717 22.2136 47.5708C19.3801 44.6699 17.6163 40.8702 17.2176 36.8083L17.4729 37.0659C17.6938 37.2821 17.9896 37.4017 18.2966 37.399C18.6037 37.3963 18.8974 37.2715 19.1145 37.0514C19.3316 36.8314 19.4548 36.5337 19.4574 36.2225C19.4601 35.9113 19.3421 35.6115 19.1288 35.3877L16.7867 33.014C16.5671 32.7915 16.2693 32.6665 15.9588 32.6665C15.6482 32.6665 15.3504 32.7915 15.1308 33.014L12.7888 35.3877C12.6797 35.4981 12.5932 35.6293 12.5343 35.7737C12.4753 35.918 12.4451 36.0728 12.4453 36.229C12.4455 36.3853 12.4762 36.54 12.5355 36.6842C12.5949 36.8284 12.6817 36.9593 12.7911 37.0694Z" fill="#6667AB"/>
<path d="M17.1376 30.9252C17.2837 30.975 17.438 30.995 17.5917 30.984C17.7454 30.9729 17.8955 30.9311 18.0331 30.8608C18.1707 30.7906 18.2932 30.6934 18.3935 30.5749C18.4938 30.4563 18.5699 30.3188 18.6173 30.1702C19.8757 26.2919 22.4114 22.9695 25.7994 20.7597C29.1875 18.5498 33.2221 17.5868 37.2275 18.0319C41.2328 18.477 44.9655 20.3032 47.8003 23.2046C50.635 26.1059 52.3996 29.9062 52.7985 33.9687L52.5431 33.7112C52.3221 33.4949 52.0262 33.3753 51.719 33.378C51.4118 33.3807 51.118 33.5055 50.9008 33.7256C50.6836 33.9457 50.5604 34.2434 50.5577 34.5547C50.555 34.8659 50.6731 35.1657 50.8865 35.3896L53.2296 37.7637C53.4493 37.9862 53.7472 38.1112 54.0579 38.1112C54.3686 38.1112 54.6665 37.9862 54.8862 37.7637L57.2293 35.3896C57.4427 35.1657 57.5608 34.8659 57.5581 34.5547C57.5554 34.2434 57.4322 33.9457 57.215 33.7256C56.9978 33.5055 56.704 33.3807 56.3968 33.378C56.0896 33.3753 55.7937 33.4949 55.5727 33.7112L55.1498 34.1397C54.7883 29.4937 52.8501 25.1178 49.6645 21.7561C46.4789 18.3943 42.2425 16.2541 37.6756 15.6992C33.1087 15.1443 28.493 16.209 24.6132 18.7123C20.7335 21.2156 17.8291 25.003 16.3937 29.4307C16.2977 29.7289 16.3221 30.0534 16.4615 30.3334C16.6008 30.6134 16.8439 30.8262 17.1376 30.9252Z" fill="#6667AB"/>
<path d="M25.2773 39.6668C25.5868 39.6668 25.8835 39.5439 26.1023 39.3251C26.3211 39.1063 26.444 38.8096 26.444 38.5002V32.6668H27.6107C27.9201 32.6668 28.2168 32.5439 28.4356 32.3251C28.6544 32.1063 28.7773 31.8096 28.7773 31.5002C28.7773 31.1907 28.6544 30.894 28.4356 30.6752C28.2168 30.4564 27.9201 30.3335 27.6107 30.3335H22.944C22.6346 30.3335 22.3378 30.4564 22.1191 30.6752C21.9003 30.894 21.7773 31.1907 21.7773 31.5002C21.7773 31.8096 21.9003 32.1063 22.1191 32.3251C22.3378 32.5439 22.6346 32.6668 22.944 32.6668H24.1107V38.5002C24.1107 38.8096 24.2336 39.1063 24.4524 39.3251C24.6712 39.5439 24.9679 39.6668 25.2773 39.6668Z" fill="#6667AB"/>
<path d="M36.9427 39.6668C37.2521 39.6668 37.5489 39.5439 37.7677 39.3251C37.9865 39.1063 38.1094 38.8096 38.1094 38.5002V33.8335C38.1094 32.9052 37.7406 32.015 37.0842 31.3586C36.4279 30.7022 35.5376 30.3335 34.6094 30.3335C33.6811 30.3335 32.7909 30.7022 32.1345 31.3586C31.4781 32.015 31.1094 32.9052 31.1094 33.8335V38.5002C31.1094 38.8096 31.2323 39.1063 31.4511 39.3251C31.6699 39.5439 31.9666 39.6668 32.276 39.6668C32.5855 39.6668 32.8822 39.5439 33.101 39.3251C33.3198 39.1063 33.4427 38.8096 33.4427 38.5002V37.3335H35.776V38.5002C35.776 38.8096 35.899 39.1063 36.1177 39.3251C36.3365 39.5439 36.6333 39.6668 36.9427 39.6668ZM33.4427 35.0002V33.8335C33.4427 33.5241 33.5656 33.2273 33.7844 33.0085C34.0032 32.7897 34.3 32.6668 34.6094 32.6668C34.9188 32.6668 35.2155 32.7897 35.4343 33.0085C35.6531 33.2273 35.776 33.5241 35.776 33.8335V35.0002H33.4427Z" fill="#6667AB"/>
<path d="M46.9253 30.5297C46.7979 30.4446 46.6549 30.3855 46.5046 30.3558C46.3544 30.326 46.1997 30.3261 46.0494 30.3561C45.8992 30.3861 45.7563 30.4454 45.629 30.5306C45.5017 30.6159 45.3924 30.7254 45.3074 30.8528L43.9449 32.9002L42.5825 30.8563C42.4975 30.7289 42.3882 30.6194 42.2608 30.5342C42.1335 30.449 41.9907 30.3897 41.8404 30.3596C41.6902 30.3296 41.5355 30.3295 41.3852 30.3593C41.2349 30.3891 41.092 30.4482 40.9645 30.5332C40.8371 30.6182 40.7276 30.7275 40.6424 30.8548C40.5572 30.9822 40.4979 31.125 40.4679 31.2753C40.4379 31.4255 40.4378 31.5802 40.4676 31.7305C40.4973 31.8808 40.5564 32.0238 40.6414 32.1512L42.5451 35L40.6438 37.8523C40.4721 38.1098 40.4096 38.4248 40.4702 38.7283C40.5308 39.0317 40.7095 39.2987 40.9669 39.4704C41.2243 39.6421 41.5393 39.7045 41.8428 39.6439C42.1462 39.5833 42.4131 39.4047 42.5848 39.1472L43.9449 37.0999L45.3074 39.1437C45.4791 39.4012 45.746 39.5798 46.0494 39.6404C46.3529 39.701 46.6679 39.6386 46.9253 39.4669C47.1827 39.2952 47.3614 39.0282 47.422 38.7248C47.4826 38.4213 47.4201 38.1063 47.2484 37.8488L45.3447 35L47.2461 32.1477C47.4181 31.8906 47.4809 31.5757 47.4207 31.2723C47.3606 30.9689 47.1824 30.7017 46.9253 30.5297Z" fill="#6667AB"/>
</g>
<defs>
<clipPath id="clip0_2876_1821">
<rect width="70" height="70" fill="white"/>
</clipPath>
</defs>
</svg>
