<svg width="441" height="445" viewBox="0 0 441 445" fill="none" xmlns="http://www.w3.org/2000/svg">
<path d="M422.516 301.282C379.73 401.538 265.756 457.703 166.918 442.552C150.837 440.087 106.745 432.744 67.7072 398.099C-7.4413 331.407 -23.5132 199.352 37.1035 106.281C81.2245 38.5457 160.316 0.148011 235.467 2.06878C251.656 2.48256 313.693 5.03285 368.214 49.7708C376.222 56.3429 393.885 71.957 409.803 96.7306C447.187 154.901 450.4 235.944 422.516 301.282Z" fill="#DEDCEB"/>
<path d="M51.7888 4.7828C51.288 2.63139 53.8826 1.11606 55.5302 2.58147C72.3299 17.4626 112.958 62.309 105.495 142.955C96.1308 244.136 118.202 280.317 145 302C145 302 108.785 292.488 85.1113 255.811C26.9862 165.76 60.7146 43.0509 51.7888 4.7828Z" fill="#D3D1E5"/>
<g style="mix-blend-mode:soft-light">
<path d="M65.0157 35.7251C67.3859 46.8664 69.5355 58.0495 71.2712 69.2953C73.066 80.5282 74.5152 91.8045 75.6187 103.124C76.6734 114.439 77.5155 125.773 77.873 137.125C78.2836 148.475 78.2047 159.83 78.0855 171.23C78.0308 182.625 77.91 194.104 78.9663 205.63C80.0225 217.155 82.4459 228.695 86.927 239.471C88.0541 242.157 89.2199 244.832 90.5386 247.411C91.8106 250.018 93.2002 252.567 94.6333 255.091C97.5236 260.138 100.766 264.976 104.336 269.569C111.518 278.729 120.09 286.799 129.474 293.564C129.944 293.913 130.533 294.061 131.113 293.977C131.692 293.892 132.214 293.581 132.563 293.112C132.913 292.643 133.062 292.055 132.977 291.477C132.892 290.899 132.58 290.378 132.11 290.029C129.875 288.319 127.661 286.585 125.533 284.76C124.454 283.864 123.417 282.921 122.364 282C121.346 281.036 120.29 280.117 119.304 279.125C115.289 275.233 111.56 271.055 108.148 266.626C101.296 257.812 95.7282 247.93 91.4307 237.644C89.3363 232.476 87.6349 227.158 86.3409 221.735C85.0688 216.284 84.1624 210.754 83.6277 205.183C82.5167 193.998 82.5409 182.637 82.5151 171.241C82.4893 159.846 82.3541 148.393 81.7615 136.964C81.4803 131.25 81.0971 125.542 80.6119 119.84C80.3848 116.989 80.1031 114.143 79.8261 111.297C79.5234 108.454 79.2014 105.615 78.86 102.78C77.4645 91.4241 75.7234 80.1286 73.6366 68.8935C71.4805 57.6654 69.0395 46.5033 66.167 35.4552C66.1311 35.3028 66.036 35.1709 65.9027 35.0885C65.7694 35.006 65.6087 34.9798 65.4561 35.0156C65.3034 35.0514 65.1712 35.1463 65.0886 35.2794C65.0061 35.4124 64.9798 35.5728 65.0157 35.7251Z" fill="white"/>
</g>
<path d="M105.107 331.761C104.064 335.693 99.3388 337.286 96.0843 334.83C78.1636 321.28 30.9685 278.397 28.3149 200.972C26.0738 135.59 18.6336 100.35 14.1466 84.5863C13.1976 81.2521 17.0627 78.6465 19.8097 80.7663C50.1201 104.149 142.851 189.285 105.107 331.761Z" fill="#9494C4"/>
<g style="mix-blend-mode:soft-light">
<path d="M100.398 331.651C100.318 331.716 100.231 331.772 100.14 331.82C99.762 332.014 99.3215 332.053 98.9149 331.927C98.5084 331.802 98.1692 331.522 97.9718 331.149C97.5067 330.272 51.2988 242.246 44.0051 151.71C43.9712 151.291 44.1073 150.876 44.3835 150.556C44.6597 150.237 45.0532 150.038 45.4776 150.005C45.6878 149.988 45.8992 150.013 46.0997 150.077C46.3003 150.141 46.4861 150.243 46.6466 150.378C46.9706 150.651 47.1717 151.039 47.2055 151.458C54.4504 241.336 100.354 328.809 100.818 329.681C100.99 330.007 101.042 330.381 100.966 330.741C100.889 331.1 100.689 331.422 100.398 331.651Z" fill="white"/>
</g>
<path d="M67 79.7342C67 72.3786 69.937 65.3243 75.1649 60.1232C80.3928 54.922 87.4833 52 94.8767 52H331.954C338.251 51.9998 344.308 54.4067 348.872 58.7231C353.436 63.0395 356.159 68.9355 356.477 75.1925L373.977 417.151C374.1 419.564 373.734 421.977 372.902 424.246C372.069 426.515 370.786 428.595 369.129 430.362C367.473 432.128 365.476 433.545 363.258 434.528C361.039 435.511 358.645 436.04 356.217 436.084L84.4995 440.997C82.2163 441.038 79.9479 440.626 77.8266 439.784C75.7054 438.943 73.7738 437.69 72.1448 436.098C70.5157 434.506 69.2217 432.607 68.3384 430.512C67.455 428.417 67.0001 426.168 67 423.896V79.7342Z" fill="#6A6BAD"/>
<path d="M86.0002 57.1167C85.9927 55.9618 86.2349 54.8188 86.7105 53.765C87.1861 52.7111 87.884 51.7711 88.7569 51.0084C89.6299 50.2458 90.6575 49.6783 91.7703 49.3444C92.8831 49.0105 94.0551 48.918 95.207 49.073C127.657 53.4456 239.25 66.9685 331.512 59.9303C332.51 59.8525 333.514 59.9739 334.464 60.2872C335.414 60.6006 336.292 61.0996 337.045 61.755C337.798 62.4104 338.412 63.2088 338.85 64.1034C339.288 64.9979 339.541 65.9704 339.595 66.9637L357.988 410.79C358.109 413.054 357.324 415.274 355.804 416.965C354.284 418.656 352.152 419.68 349.874 419.815C311.07 422.096 151.262 430.915 94.2614 424.983C92.5862 424.808 91.0353 424.024 89.9056 422.783C88.7759 421.541 88.147 419.929 88.1391 418.256L86.0002 57.1167Z" fill="#F3F3F3"/>
<path opacity="0.6" d="M90.0002 65.8162C89.9928 64.7042 90.2261 63.6036 90.6841 62.5888C91.1421 61.5741 91.8141 60.6689 92.6549 59.9345C93.4956 59.2001 94.4853 58.6535 95.5571 58.3319C96.6289 58.0103 97.7577 57.921 98.8673 58.0702C130.126 62.2812 237.619 75.2942 326.491 68.5334C327.452 68.4592 328.418 68.5767 329.333 68.8789C330.247 69.1811 331.092 69.6619 331.817 70.293C332.541 70.9241 333.132 71.6928 333.553 72.5539C333.975 73.415 334.218 74.3511 334.27 75.3071L351.988 406.388C352.106 408.569 351.35 410.707 349.885 412.336C348.42 413.964 346.366 414.951 344.171 415.08C306.792 417.278 152.857 425.771 97.9515 420.058C96.3379 419.888 94.8439 419.133 93.7556 417.938C92.6674 416.742 92.0614 415.19 92.0537 413.578L90.0002 65.8162Z" fill="#DEDCEB"/>
<path opacity="0.58" d="M320.316 86H210.684C209.754 86 209 86.7507 209 87.6768V119.323C209 120.249 209.754 121 210.684 121H320.316C321.246 121 322 120.249 322 119.323V87.6768C322 86.7507 321.246 86 320.316 86Z" fill="white"/>
<path opacity="0.58" d="M325.051 234H110.949C110.425 234 110 234.417 110 234.93V247.07C110 247.583 110.425 248 110.949 248H325.051C325.575 248 326 247.583 326 247.07V234.93C326 234.417 325.575 234 325.051 234Z" fill="white"/>
<path opacity="0.58" d="M325.307 255H110.693C110.31 255 110 255.304 110 255.68V268.32C110 268.696 110.31 269 110.693 269H325.307C325.69 269 326 268.696 326 268.32V255.68C326 255.304 325.69 255 325.307 255Z" fill="white"/>
<path opacity="0.58" d="M329.167 380H110.833C110.373 380 110 380.367 110 380.819V393.181C110 393.633 110.373 394 110.833 394H329.167C329.627 394 330 393.633 330 393.181V380.819C330 380.367 329.627 380 329.167 380Z" fill="white"/>
<path opacity="0.25" d="M320.823 219H115.186C113.811 219 112.492 218.456 111.519 217.487C110.546 216.519 110 215.205 110 213.836V137.164C110 135.795 110.546 134.481 111.519 133.513C112.492 132.544 113.811 132 115.186 132H317.336C318.671 131.999 319.956 132.51 320.922 133.428C321.888 134.346 322.461 135.6 322.522 136.929L325.995 213.605C326.026 214.301 325.916 214.996 325.67 215.649C325.424 216.301 325.049 216.897 324.565 217.402C324.082 217.906 323.502 218.307 322.859 218.582C322.215 218.856 321.523 218.999 320.823 219Z" fill="white"/>
<path d="M321.024 219H115.979C114.393 219 112.873 218.375 111.751 217.263C110.63 216.151 110 214.643 110 213.07V136.93C110 135.357 110.63 133.849 111.751 132.737C112.873 131.625 114.393 131 115.979 131H317.547C319.086 130.997 320.566 131.585 321.679 132.639C322.791 133.694 323.45 135.134 323.516 136.659L326.994 212.802C327.03 213.602 326.902 214.401 326.619 215.151C326.335 215.9 325.901 216.585 325.343 217.164C324.785 217.743 324.115 218.204 323.373 218.519C322.631 218.834 321.832 218.996 321.024 218.997V219ZM115.979 132.603C114.822 132.603 113.712 133.059 112.894 133.87C112.076 134.682 111.616 135.782 111.616 136.93V213.073C111.616 214.221 112.076 215.322 112.894 216.133C113.712 216.945 114.822 217.401 115.979 217.401H321.024C321.614 217.401 322.198 217.283 322.741 217.053C323.284 216.824 323.774 216.488 324.182 216.065C324.589 215.642 324.907 215.142 325.114 214.594C325.321 214.046 325.414 213.462 325.388 212.878L321.912 136.734C321.861 135.621 321.379 134.57 320.566 133.8C319.753 133.031 318.672 132.602 317.548 132.603H115.979Z" fill="white"/>
<path opacity="0.25" d="M323.44 372H116.56C114.82 372 113.152 371.31 111.921 370.082C110.691 368.854 110 367.189 110 365.453V291.547C110 289.811 110.691 288.146 111.921 286.918C113.152 285.69 114.82 285 116.56 285H320.57C322.266 285 323.896 285.655 325.118 286.829C326.34 288.002 327.059 289.603 327.125 291.294L329.995 365.199C330.029 366.08 329.885 366.958 329.571 367.782C329.257 368.605 328.78 369.357 328.168 369.992C327.556 370.627 326.822 371.133 326.009 371.478C325.197 371.823 324.323 372 323.44 372Z" fill="white"/>
<path d="M324.62 372H117.38C115.423 371.998 113.547 371.228 112.164 369.859C110.78 368.49 110.002 366.634 110 364.698V291.302C110.002 289.366 110.78 287.51 112.164 286.141C113.547 284.772 115.423 284.002 117.38 284H321.745C323.654 283.995 325.491 284.724 326.867 286.033C328.243 287.343 329.05 289.13 329.119 291.018L331.994 364.416C332.033 365.398 331.871 366.378 331.518 367.296C331.164 368.215 330.627 369.053 329.939 369.761C329.25 370.469 328.424 371.033 327.51 371.418C326.596 371.802 325.613 372 324.62 372ZM117.38 285.6C115.852 285.601 114.387 286.203 113.306 287.272C112.226 288.341 111.618 289.79 111.616 291.302V364.698C111.618 366.21 112.226 367.659 113.306 368.728C114.387 369.797 115.852 370.399 117.38 370.4H324.62C325.396 370.401 326.164 370.246 326.878 369.945C327.593 369.644 328.238 369.203 328.776 368.649C329.314 368.095 329.733 367.44 330.008 366.722C330.283 366.004 330.409 365.238 330.378 364.47L327.503 291.075C327.45 289.6 326.819 288.204 325.744 287.181C324.67 286.158 323.236 285.589 321.745 285.593L117.38 285.6Z" fill="white"/>
<path d="M175 131.965L173 132L174.535 218.986L176.535 218.952L175 131.965Z" fill="white"/>
<path d="M253.999 131.93L252 132L255.064 218.946L257.063 218.876L253.999 131.93Z" fill="white"/>
<path d="M111 160V162L325 161.991V159.991L111 160Z" fill="white"/>
<path d="M325 191H111V193H325V191Z" fill="white"/>
<path d="M174.518 285.013L173 372L175 372.035L176.518 285.048L174.518 285.013Z" fill="white"/>
<path d="M329 305H111V307H329V305Z" fill="white"/>
<path d="M329 325H111V327H329V325Z" fill="white"/>
<path d="M110.035 346L110 348L329.967 351.807L330.002 349.808L110.035 346Z" fill="white"/>
<path d="M227.475 5.20035C218.988 -0.765628 211.605 -0.64754 206.41 0.900572C204.113 1.59096 202.123 3.0644 200.78 5.07004C199.437 7.07569 198.823 9.48957 199.044 11.9007L201.286 36.6091L227.951 39C227.951 39 244.124 16.8994 227.475 5.20035ZM215.749 25.1333C214.434 25.1333 213.148 24.7394 212.055 24.0014C210.962 23.2633 210.11 22.2143 209.606 20.9871C209.103 19.7598 208.971 18.4093 209.228 17.1064C209.484 15.8035 210.118 14.6067 211.048 13.6674C211.977 12.7281 213.162 12.0884 214.452 11.8292C215.741 11.5701 217.078 11.7031 218.293 12.2114C219.508 12.7198 220.546 13.5807 221.277 14.6852C222.008 15.7897 222.397 17.0883 222.397 18.4167C222.397 20.1981 221.697 21.9065 220.45 23.1661C219.203 24.4257 217.512 25.1333 215.749 25.1333Z" fill="#37474F"/>
<path d="M165 52.1849V39.6487C165 38.6221 165.204 37.606 165.6 36.661C165.997 35.716 166.577 34.8614 167.306 34.1481C168.036 33.4348 168.899 32.8774 169.846 32.5091C170.793 32.1409 171.803 31.9692 172.817 32.0045L258.201 34.9655C260.03 35.0289 261.769 35.7804 263.079 37.073C264.39 38.3657 265.176 40.1065 265.286 41.9551L266 54L165 52.1849Z" fill="#37474F"/>
<path d="M130.336 55.6695C130.436 53.6025 131.327 51.653 132.825 50.2251C134.322 48.7973 136.312 48.0005 138.381 48H287.846C290.449 47.9988 292.969 48.9173 294.961 50.5935C296.953 52.2698 298.289 54.5959 298.733 57.1615L298.861 57.8913C299.097 59.2543 299.032 60.6523 298.671 61.9877C298.31 63.323 297.662 64.5632 296.771 65.6215C295.88 66.6797 294.769 67.5305 293.515 68.1141C292.261 68.6977 290.895 69.0001 289.512 69H136.168C135.333 68.9999 134.506 68.8302 133.739 68.5012C132.971 68.1723 132.279 67.6909 131.703 67.0863C131.127 66.4817 130.679 65.7664 130.388 64.9838C130.096 64.2012 129.967 63.3675 130.007 62.5334L130.336 55.6695Z" fill="#37474F"/>
<path d="M136 84.0016L135.3 89.4497H125.023L121.08 121H114.384L118.303 89.4497H108L108.676 84L136 84.0016Z" fill="white"/>
<path d="M161 121H155.777C155.189 121 154.722 120.863 154.375 120.591C154.027 120.317 153.796 119.924 153.726 119.491L152.166 111.763H138.166L134.684 119.491C134.467 119.912 134.146 120.273 133.75 120.539C133.326 120.844 132.814 121.005 132.289 121H127L145.159 84H152.042L161 121ZM140.269 107.081H151.206L148.666 94.4134C148.528 93.7995 148.39 93.1515 148.25 92.4694C148.111 91.7874 147.981 91.02 147.861 90.1674C147.536 91.02 147.212 91.8087 146.887 92.5334C146.563 93.2576 146.267 93.8938 145.991 94.4389L140.269 107.081Z" fill="white"/>
<path d="M175.265 101.242L166.958 84H172.966C173.409 84 173.728 84.0639 173.924 84.1918C174.15 84.3568 174.323 84.5831 174.424 84.8439L180.1 97.6089C180.277 97.2362 180.483 96.8773 180.713 96.5349L188.563 84.9206C188.972 84.3069 189.474 84 190.071 84H197L184.421 100.941L193.701 120.997H187.77C187.583 121.009 187.395 120.983 187.217 120.922C187.04 120.86 186.876 120.764 186.735 120.639C186.496 120.41 186.301 120.14 186.159 119.84L179.737 105.028C179.651 105.165 179.577 105.301 179.494 105.437C179.411 105.573 179.335 105.71 179.252 105.846L169.688 119.84C169.454 120.214 169.129 120.523 168.742 120.735C168.395 120.907 168.012 120.994 167.624 120.991H161L175.265 101.242Z" fill="white"/>
<path d="M205.499 116.726C235.88 96.4018 262.446 95.5617 293.563 109.017C294.549 109.442 295.394 110.139 295.997 111.026C296.599 111.913 296.935 112.953 296.964 114.023L296.998 115.291C297.02 116.187 296.827 117.077 296.433 117.884C296.04 118.691 295.458 119.392 294.737 119.929C294.016 120.467 293.177 120.825 292.288 120.973C291.4 121.121 290.489 121.055 289.632 120.78C262.841 112.149 242.853 107.809 211.485 126.227C210.687 126.694 209.786 126.958 208.862 126.995C207.937 127.033 207.018 126.843 206.184 126.442C205.351 126.042 204.629 125.443 204.084 124.699C203.538 123.954 203.184 123.087 203.055 122.175C202.908 121.13 203.059 120.064 203.491 119.101C203.923 118.137 204.619 117.314 205.499 116.726Z" fill="#9494C4"/>
<path d="M210.877 101.597L195.175 127.746C195.065 127.928 195.005 128.135 195 128.347C194.995 128.56 195.045 128.769 195.145 128.956C195.246 129.144 195.393 129.302 195.572 129.415C195.752 129.528 195.958 129.593 196.17 129.604L225.507 130.998C225.756 131.01 226.004 130.957 226.225 130.843C226.447 130.729 226.635 130.56 226.771 130.351C226.906 130.142 226.985 129.901 226.998 129.652C227.011 129.404 226.959 129.156 226.847 128.934C219.52 120.218 215.082 111.112 213.022 101.67C212.922 101.474 212.773 101.309 212.588 101.192C212.403 101.074 212.19 101.008 211.971 101.001C211.752 100.993 211.535 101.045 211.343 101.15C211.15 101.254 210.99 101.409 210.877 101.597Z" fill="#9494C4"/>
<path d="M227.624 178.44C233.009 169.113 229.791 157.226 220.437 151.889C211.083 146.552 199.135 149.786 193.75 159.113C188.365 168.439 191.583 180.327 200.937 185.664C210.291 191.001 222.239 187.767 227.624 178.44Z" fill="#797979"/>
<path d="M224.463 182.276C231.883 174.856 231.848 162.861 224.384 155.485C216.921 148.109 204.855 148.145 197.435 155.565C190.015 162.985 190.05 174.979 197.514 182.356C204.978 189.732 217.043 189.696 224.463 182.276Z" fill="#BABBE5"/>
<path opacity="0.78" d="M195.733 162C195.615 161.996 195.499 161.965 195.396 161.909C195.308 161.861 195.231 161.797 195.169 161.72C195.106 161.643 195.06 161.554 195.031 161.458C195.003 161.363 194.994 161.263 195.004 161.164C195.014 161.064 195.044 160.968 195.091 160.881C197.008 157.307 200.022 154.454 203.682 152.746C207.342 151.038 211.452 150.567 215.399 151.404C215.497 151.424 215.589 151.464 215.671 151.52C215.753 151.577 215.823 151.649 215.877 151.733C215.931 151.816 215.969 151.91 215.987 152.008C216.005 152.106 216.004 152.207 215.984 152.305C215.963 152.403 215.924 152.496 215.868 152.578C215.812 152.661 215.74 152.731 215.657 152.786C215.574 152.841 215.481 152.878 215.384 152.897C215.286 152.915 215.186 152.914 215.089 152.893C214.072 152.679 213.039 152.557 212.001 152.528C208.822 152.432 205.68 153.231 202.927 154.834C200.174 156.438 197.92 158.783 196.418 161.606C196.351 161.729 196.252 161.831 196.131 161.9C196.01 161.97 195.872 162.004 195.733 162Z" fill="#6667AB"/>
<path opacity="0.78" d="M223.074 180.18C229.323 173.931 229.293 163.831 223.008 157.619C216.723 151.408 206.562 151.438 200.314 157.686C194.065 163.935 194.095 174.035 200.38 180.247C206.665 186.458 216.826 186.428 223.074 180.18Z" fill="#6667AB"/>
<path d="M209.604 180.941L209.654 179.218C207.907 179.112 206.193 178.713 204.593 178.038C204.367 177.935 204.187 177.757 204.087 177.539C203.987 177.32 203.973 177.074 204.047 176.846L204.548 175.261C204.592 175.124 204.667 174.997 204.767 174.889C204.867 174.782 204.99 174.696 205.128 174.637C205.266 174.578 205.415 174.548 205.566 174.549C205.718 174.55 205.867 174.581 206.004 174.641C207.474 175.284 209.063 175.644 210.68 175.703C212.501 175.749 213.877 175.199 213.912 173.998C213.943 172.912 212.911 172.24 210.406 171.53C206.821 170.498 204.269 168.935 204.356 165.915C204.435 163.189 206.595 161.16 210.256 160.7L210.304 158.977C210.312 158.711 210.431 158.458 210.635 158.275C210.839 158.092 211.111 157.994 211.391 158L212.456 158.029C212.595 158.032 212.732 158.062 212.859 158.115C212.986 158.169 213.1 158.246 213.196 158.342C213.291 158.437 213.366 158.55 213.415 158.673C213.465 158.796 213.489 158.927 213.485 159.059L213.44 160.606C214.813 160.675 216.167 160.942 217.456 161.399C217.703 161.491 217.905 161.668 218.02 161.895C218.136 162.122 218.157 162.382 218.079 162.623L217.613 164.095C217.57 164.229 217.498 164.352 217.402 164.457C217.306 164.563 217.187 164.648 217.055 164.708C216.922 164.767 216.777 164.8 216.631 164.804C216.484 164.808 216.338 164.782 216.202 164.729C214.951 164.237 213.616 163.968 212.263 163.937C210.092 163.881 209.459 164.715 209.437 165.478C209.411 166.416 210.688 167.094 213.475 167.988C217.456 169.236 219.079 170.862 218.997 173.706C218.922 176.315 216.816 178.607 212.845 179.096L212.79 181.023C212.782 181.289 212.664 181.542 212.46 181.725C212.256 181.908 211.984 182.007 211.703 182L210.638 181.971C210.499 181.968 210.361 181.94 210.234 181.886C210.106 181.833 209.991 181.756 209.895 181.66C209.799 181.565 209.724 181.452 209.674 181.328C209.624 181.205 209.6 181.073 209.604 180.941Z" fill="white"/>
<path d="M284.695 175.914C295.825 164.784 295.772 146.792 284.576 135.728C273.381 124.664 255.282 124.718 244.153 135.847C233.023 146.977 233.076 164.969 244.271 176.033C255.467 187.097 273.565 187.044 284.695 175.914Z" fill="#797979"/>
<path d="M285.63 175.565C296.565 164.63 296.513 146.954 285.513 136.084C274.514 125.214 256.734 125.266 245.799 136.201C234.864 147.136 234.916 164.812 245.916 175.682C256.915 186.552 274.695 186.499 285.63 175.565Z" fill="#BABBE5"/>
<path opacity="0.78" d="M242.598 145C242.493 144.996 242.391 144.966 242.3 144.91C242.21 144.855 242.135 144.777 242.082 144.684C242.03 144.59 242.002 144.485 242 144.377C241.999 144.27 242.024 144.163 242.074 144.069C244.363 139.698 247.799 136.066 251.995 133.583C256.191 131.1 260.982 129.863 265.827 130.012C267.409 130.056 268.984 130.246 270.532 130.578C270.687 130.618 270.821 130.717 270.906 130.856C270.991 130.994 271.02 131.161 270.987 131.321C270.954 131.481 270.862 131.621 270.73 131.713C270.598 131.805 270.436 131.841 270.278 131.814C268.802 131.497 267.301 131.316 265.794 131.274C261.176 131.132 256.611 132.31 252.613 134.676C248.614 137.042 245.341 140.502 243.16 144.667C243.106 144.771 243.024 144.857 242.925 144.915C242.826 144.974 242.713 145.003 242.598 145Z" fill="#6667AB"/>
<path opacity="0.78" d="M265.5 180C278.479 180 289 169.479 289 156.5C289 143.521 278.479 133 265.5 133C252.521 133 242 143.521 242 156.5C242 169.479 252.521 180 265.5 180Z" fill="#6667AB"/>
<path d="M262.852 173.461L262.921 170.951C260.274 170.775 257.671 170.085 255.832 169.23C255.514 169.079 255.261 168.819 255.121 168.499C254.981 168.178 254.962 167.819 255.068 167.486L255.777 165.164C255.839 164.964 255.943 164.78 256.083 164.623C256.223 164.466 256.395 164.34 256.588 164.255C256.781 164.169 256.991 164.125 257.203 164.126C257.414 164.127 257.623 164.173 257.815 164.26C259.873 165.197 262.098 165.723 264.362 165.808C266.914 165.878 268.84 165.074 268.888 163.322C268.933 161.736 267.488 160.76 263.967 159.725C258.945 158.222 255.373 155.943 255.495 151.542C255.604 147.566 258.629 144.612 263.755 143.938L263.824 141.428C263.829 141.235 263.873 141.046 263.952 140.87C264.031 140.694 264.144 140.535 264.286 140.403C264.427 140.27 264.593 140.166 264.775 140.097C264.957 140.028 265.151 139.995 265.346 140.001L266.84 140.042C267.035 140.046 267.227 140.089 267.405 140.167C267.583 140.245 267.744 140.358 267.878 140.497C268.012 140.637 268.117 140.801 268.187 140.981C268.256 141.161 268.29 141.353 268.284 141.545L268.222 143.8C270.671 143.959 272.444 144.425 273.839 144.955C274.185 145.088 274.467 145.346 274.629 145.677C274.791 146.007 274.821 146.386 274.712 146.737L274.059 148.884C274 149.08 273.9 149.261 273.765 149.415C273.631 149.57 273.466 149.696 273.279 149.784C273.093 149.871 272.89 149.92 272.684 149.925C272.478 149.931 272.272 149.894 272.081 149.817C270.329 149.105 268.459 148.717 266.565 148.673C263.538 148.591 262.638 149.807 262.608 150.917C262.571 152.286 264.36 153.275 268.263 154.577C273.839 156.396 276.111 158.767 275.996 162.912C275.89 166.718 272.946 170.058 267.382 170.762L267.304 173.572C267.299 173.765 267.256 173.954 267.177 174.13C267.098 174.306 266.984 174.465 266.843 174.597C266.702 174.73 266.536 174.834 266.354 174.903C266.172 174.972 265.978 175.005 265.784 174.999L264.29 174.958C263.898 174.947 263.528 174.783 263.258 174.503C262.989 174.222 262.843 173.848 262.852 173.461Z" fill="white"/>
<path d="M269.824 239.613C281.345 228.092 281.29 209.469 269.702 198.017C258.113 186.565 239.38 186.62 227.86 198.14C216.339 209.661 216.394 228.284 227.982 239.736C239.571 251.188 258.304 251.133 269.824 239.613Z" fill="#797979"/>
<path d="M269.695 238.914C280.825 227.784 280.772 209.792 269.576 198.728C258.381 187.664 240.282 187.718 229.153 198.847C218.023 209.977 218.076 227.969 229.271 239.033C240.467 250.097 258.565 250.044 269.695 238.914Z" fill="#BABBE5"/>
<path opacity="0.78" d="M225.603 207C225.507 206.997 225.412 206.972 225.327 206.926C225.255 206.888 225.191 206.836 225.14 206.773C225.088 206.711 225.05 206.639 225.026 206.561C225.003 206.484 224.995 206.403 225.003 206.322C225.012 206.242 225.036 206.164 225.075 206.093C227.439 201.714 230.99 198.076 235.326 195.588C239.663 193.101 244.614 191.862 249.621 192.012C251.256 192.057 252.883 192.246 254.484 192.579C254.566 192.593 254.645 192.624 254.715 192.668C254.785 192.713 254.846 192.772 254.893 192.84C254.94 192.909 254.972 192.986 254.988 193.067C255.004 193.148 255.004 193.232 254.987 193.313C254.97 193.394 254.936 193.471 254.888 193.538C254.84 193.606 254.779 193.664 254.708 193.708C254.638 193.752 254.559 193.781 254.476 193.794C254.394 193.807 254.309 193.803 254.228 193.783C252.701 193.466 251.148 193.285 249.587 193.243C244.809 193.1 240.086 194.281 235.948 196.655C231.811 199.028 228.423 202.499 226.167 206.678C226.112 206.778 226.031 206.861 225.931 206.917C225.832 206.974 225.718 207.003 225.603 207Z" fill="white"/>
<path opacity="0.78" d="M266.111 235.77C275.484 226.397 275.439 211.246 266.012 201.929C256.584 192.612 241.343 192.657 231.971 202.029C222.598 211.402 222.643 226.553 232.07 235.87C241.498 245.187 256.739 245.142 266.111 235.77Z" fill="#6667AB"/>
<path d="M247.22 237.377L247.294 234.721C244.517 234.535 241.796 233.807 239.87 232.902C239.538 232.742 239.274 232.469 239.127 232.132C238.981 231.794 238.96 231.415 239.069 231.064L239.813 228.61C239.877 228.399 239.986 228.203 240.133 228.038C240.28 227.872 240.46 227.739 240.662 227.648C240.864 227.558 241.084 227.511 241.306 227.512C241.527 227.513 241.746 227.562 241.948 227.654C244.104 228.643 246.436 229.196 248.808 229.283C251.481 229.355 253.498 228.506 253.545 226.653C253.591 224.982 252.075 223.947 248.392 222.85C243.132 221.26 239.39 218.852 239.517 214.198C239.633 209.996 242.802 206.866 248.174 206.16L248.248 203.505C248.259 203.094 248.434 202.706 248.732 202.424C249.031 202.142 249.43 201.99 249.841 202.001L251.404 202.043C251.815 202.054 252.205 202.228 252.488 202.527C252.771 202.825 252.924 203.223 252.913 203.633L252.848 206.017C255.412 206.19 257.268 206.679 258.738 207.239C259.1 207.381 259.395 207.653 259.565 208.002C259.734 208.352 259.765 208.752 259.651 209.123L258.967 211.392C258.905 211.599 258.8 211.791 258.66 211.955C258.519 212.119 258.346 212.251 258.151 212.344C257.956 212.437 257.743 212.489 257.527 212.495C257.311 212.501 257.096 212.462 256.896 212.38C255.061 211.625 253.103 211.214 251.12 211.169C247.949 211.083 247.006 212.368 246.975 213.543C246.935 214.989 248.81 216.035 252.897 217.411C258.737 219.336 261.117 221.842 260.996 226.225C260.886 230.245 257.797 233.779 251.974 234.523L251.894 237.496C251.882 237.906 251.707 238.294 251.408 238.576C251.11 238.858 250.711 239.01 250.3 238.999L248.736 238.957C248.325 238.948 247.935 238.776 247.651 238.48C247.366 238.183 247.212 237.787 247.22 237.377Z" fill="white"/>
<path d="M321.787 207.023C330.184 198.627 330.144 185.054 321.698 176.707C313.252 168.361 299.599 168.401 291.203 176.797C282.807 185.193 282.847 198.766 291.292 207.113C299.738 215.459 313.391 215.419 321.787 207.023Z" fill="#797979"/>
<path d="M321.722 206.673C329.924 198.472 329.884 185.215 321.635 177.063C313.386 168.91 300.05 168.95 291.849 177.151C283.648 185.352 283.687 198.609 291.937 206.761C300.186 214.914 313.521 214.874 321.722 206.673Z" fill="#BABBE5"/>
<path opacity="0.78" d="M289.596 183C289.5 182.998 289.406 182.973 289.323 182.928C289.252 182.891 289.189 182.841 289.138 182.78C289.087 182.719 289.049 182.649 289.026 182.574C289.003 182.498 288.995 182.419 289.003 182.341C289.011 182.263 289.035 182.187 289.074 182.118C290.799 178.974 293.39 176.363 296.554 174.577C299.718 172.791 303.33 171.901 306.983 172.009C308.176 172.041 309.364 172.178 310.532 172.417C310.687 172.454 310.821 172.548 310.906 172.679C310.991 172.811 311.02 172.97 310.987 173.122C310.954 173.274 310.861 173.407 310.729 173.494C310.597 173.581 310.435 173.614 310.278 173.586C309.183 173.362 308.069 173.233 306.95 173.203C303.523 173.103 300.135 173.937 297.168 175.612C294.2 177.288 291.771 179.738 290.153 182.687C290.099 182.784 290.018 182.865 289.92 182.92C289.821 182.975 289.709 183.003 289.596 183Z" fill="#6667AB"/>
<path opacity="0.78" d="M309.603 209.922C319.49 208.883 326.676 200.25 325.654 190.639C324.631 181.028 315.788 174.079 305.901 175.118C296.015 176.158 288.829 184.791 289.851 194.402C290.873 204.013 299.716 210.961 309.603 209.922Z" fill="#6667AB"/>
<path d="M305.982 205.802L306.034 203.864C304.018 203.728 302.034 203.197 300.634 202.537C300.392 202.42 300.2 202.221 300.093 201.975C299.986 201.729 299.971 201.453 300.05 201.196L300.592 199.411C300.64 199.258 300.72 199.116 300.826 198.996C300.933 198.875 301.064 198.779 301.211 198.713C301.358 198.647 301.517 198.614 301.678 198.614C301.838 198.614 301.997 198.649 302.144 198.715C303.712 199.437 305.407 199.842 307.132 199.908C309.079 199.961 310.538 199.341 310.582 197.99C310.615 196.771 309.515 196.015 306.832 195.215C303.005 194.054 300.283 192.293 300.376 188.902C300.459 185.834 302.764 183.554 306.67 183.035L306.723 181.097C306.733 180.799 306.861 180.516 307.078 180.311C307.295 180.105 307.584 179.994 307.883 180L309.018 180.031C309.317 180.041 309.6 180.168 309.805 180.385C310.011 180.602 310.123 180.891 310.117 181.19L310.068 182.93C311.534 183.007 312.979 183.308 314.354 183.822C314.617 183.925 314.832 184.124 314.956 184.379C315.079 184.634 315.101 184.926 315.019 185.197L314.521 186.854C314.476 187.004 314.4 187.144 314.298 187.263C314.196 187.383 314.07 187.48 313.928 187.547C313.786 187.615 313.631 187.652 313.474 187.657C313.317 187.661 313.161 187.632 313.015 187.573C311.68 187.023 310.255 186.724 308.811 186.69C306.504 186.626 305.82 187.564 305.795 188.423C305.768 189.478 307.132 190.24 310.105 191.247C314.354 192.649 316.084 194.478 315.997 197.676C315.917 200.611 313.671 203.194 309.434 203.733L309.374 205.901C309.364 206.2 309.237 206.483 309.02 206.688C308.803 206.894 308.514 207.006 308.216 207L307.08 206.969C306.78 206.959 306.496 206.831 306.29 206.612C306.084 206.394 305.974 206.102 305.982 205.802Z" fill="white"/>
<path d="M296.206 251.265C265.163 268.596 239.244 267.516 209.953 252.398C209.023 251.921 208.252 251.193 207.73 250.299C207.208 249.406 206.957 248.385 207.006 247.356L207.066 246.139C207.109 245.277 207.361 244.438 207.802 243.691C208.243 242.945 208.86 242.313 209.601 241.849C210.342 241.384 211.186 241.101 212.061 241.022C212.937 240.944 213.819 241.072 214.633 241.397C240.079 251.575 259.214 257.157 291.078 241.723C291.888 241.333 292.784 241.145 293.686 241.175C294.588 241.206 295.469 241.453 296.25 241.896C297.032 242.339 297.69 242.964 298.168 243.716C298.645 244.468 298.927 245.324 298.988 246.207C299.056 247.222 298.832 248.235 298.339 249.13C297.847 250.025 297.108 250.765 296.206 251.265Z" fill="#9494C4"/>
<path d="M290.639 265.499L307.781 241.335C307.9 241.166 307.974 240.97 307.994 240.765C308.015 240.56 307.981 240.353 307.897 240.165C307.813 239.977 307.682 239.813 307.515 239.691C307.349 239.568 307.153 239.49 306.948 239.465L278.556 236.01C278.315 235.981 278.07 236.015 277.847 236.109C277.623 236.203 277.428 236.354 277.282 236.546C277.135 236.739 277.042 236.966 277.011 237.206C276.98 237.445 277.014 237.689 277.107 237.912C283.593 246.86 287.244 255.991 288.564 265.27C288.646 265.466 288.779 265.636 288.949 265.763C289.12 265.89 289.322 265.969 289.533 265.993C289.745 266.016 289.959 265.983 290.154 265.896C290.348 265.809 290.516 265.672 290.639 265.499Z" fill="#9494C4"/>
<g opacity="0.3">
<path d="M139.743 298.188C140.112 298.387 140.388 298.724 140.509 299.126C140.629 299.528 140.586 299.961 140.387 300.331C139.581 301.824 138.829 303.374 138.151 304.938C137.987 305.318 137.68 305.618 137.296 305.774C136.913 305.93 136.484 305.929 136.101 305.772L136.072 305.761C135.687 305.594 135.385 305.281 135.231 304.891C135.077 304.501 135.084 304.066 135.25 303.682C135.964 302.035 136.755 300.402 137.604 298.83C137.789 298.487 138.095 298.224 138.462 298.093C138.83 297.961 139.233 297.97 139.594 298.117C139.643 298.138 139.694 298.162 139.743 298.188ZM135.371 312.781C134.914 314.422 134.521 316.098 134.205 317.772C134.117 318.174 133.876 318.527 133.532 318.754C133.189 318.981 132.77 319.065 132.365 318.988C131.961 318.912 131.602 318.681 131.365 318.344C131.128 318.007 131.032 317.591 131.098 317.185C131.429 315.431 131.843 313.666 132.325 311.939C132.381 311.739 132.476 311.552 132.604 311.388C132.732 311.225 132.891 311.088 133.072 310.986C133.253 310.884 133.452 310.819 133.659 310.794C133.865 310.769 134.074 310.785 134.274 310.841C134.335 310.858 134.393 310.879 134.451 310.902C134.807 311.049 135.098 311.321 135.267 311.667C135.436 312.013 135.473 312.409 135.371 312.781ZM133.23 326.023C133.15 327.72 133.14 329.441 133.206 331.14C133.219 331.35 133.19 331.561 133.12 331.76C133.051 331.959 132.942 332.142 132.801 332.298C132.659 332.454 132.488 332.581 132.297 332.67C132.106 332.759 131.899 332.809 131.689 332.818C131.478 332.826 131.268 332.792 131.071 332.718C130.873 332.643 130.693 332.53 130.54 332.386C130.387 332.241 130.264 332.067 130.179 331.874C130.095 331.681 130.049 331.473 130.046 331.262C129.977 329.472 129.986 327.659 130.072 325.871C130.092 325.453 130.277 325.059 130.587 324.777C130.898 324.495 131.307 324.348 131.726 324.367C131.907 324.377 132.085 324.416 132.253 324.483C132.554 324.608 132.81 324.823 132.985 325.099C133.16 325.374 133.246 325.697 133.23 326.023ZM134.105 339.411C134.406 341.086 134.783 342.767 135.232 344.403C135.342 344.808 135.285 345.241 135.075 345.605C134.865 345.969 134.52 346.234 134.114 346.344C133.708 346.453 133.275 346.396 132.911 346.186C132.547 345.977 132.281 345.631 132.172 345.225C131.707 343.498 131.309 341.728 130.991 339.965C130.922 339.554 131.017 339.133 131.257 338.792C131.497 338.451 131.861 338.219 132.272 338.145C132.682 338.072 133.104 338.163 133.448 338.399C133.791 338.635 134.027 338.997 134.105 339.406V339.411ZM137.942 352.27C138.605 353.833 139.346 355.389 140.142 356.896C140.325 357.265 140.356 357.691 140.229 358.083C140.103 358.475 139.828 358.803 139.463 358.995C139.099 359.187 138.673 359.23 138.278 359.114C137.882 358.997 137.548 358.731 137.346 358.372C136.508 356.788 135.735 355.152 135.031 353.506C134.944 353.314 134.896 353.107 134.89 352.896C134.885 352.685 134.921 352.476 134.998 352.279C135.074 352.083 135.189 351.903 135.336 351.752C135.483 351.601 135.659 351.48 135.853 351.398C136.047 351.315 136.256 351.273 136.467 351.272C136.677 351.271 136.886 351.313 137.081 351.394C137.276 351.475 137.452 351.595 137.6 351.745C137.748 351.895 137.864 352.074 137.942 352.27ZM144.53 363.961C145.524 365.339 146.59 366.698 147.698 367.986C147.833 368.144 147.936 368.326 148.001 368.524C148.066 368.721 148.091 368.929 148.075 369.136C148.06 369.343 148.003 369.544 147.909 369.73C147.816 369.915 147.686 370.08 147.529 370.215C147.371 370.35 147.189 370.453 146.992 370.518C146.794 370.582 146.586 370.608 146.379 370.592C146.172 370.576 145.97 370.52 145.785 370.426C145.6 370.332 145.435 370.203 145.3 370.046C144.132 368.688 143.011 367.263 141.964 365.813C141.763 365.534 141.659 365.197 141.666 364.854C141.674 364.511 141.793 364.179 142.006 363.909C142.219 363.64 142.514 363.447 142.846 363.36C143.179 363.273 143.531 363.296 143.848 363.426C144.121 363.537 144.358 363.722 144.53 363.961ZM196.997 390.321C197.012 390.74 196.86 391.147 196.575 391.455C196.289 391.762 195.894 391.943 195.475 391.958C193.687 392.024 191.871 392.011 190.079 391.923C189.666 391.893 189.282 391.703 189.008 391.393C188.734 391.083 188.592 390.678 188.613 390.265C188.634 389.852 188.816 389.464 189.12 389.184C189.424 388.903 189.826 388.753 190.24 388.765C191.941 388.851 193.664 388.862 195.362 388.799C195.569 388.791 195.777 388.824 195.971 388.897C196.166 388.969 196.345 389.079 196.497 389.22C196.649 389.361 196.772 389.531 196.858 389.72C196.945 389.909 196.993 390.113 197 390.321H196.997ZM153.54 373.897C154.816 375.024 156.156 376.102 157.524 377.118C157.861 377.367 158.085 377.739 158.148 378.154C158.21 378.568 158.105 378.99 157.856 379.328C157.607 379.665 157.234 379.889 156.82 379.951C156.405 380.014 155.983 379.909 155.646 379.66C154.206 378.597 152.793 377.459 151.45 376.279C151.135 376.001 150.943 375.61 150.917 375.191C150.89 374.772 151.032 374.36 151.309 374.045C151.587 373.731 151.978 373.539 152.397 373.513C152.816 373.487 153.229 373.628 153.544 373.905L153.54 373.897ZM183.231 389.632C183.152 390.043 182.913 390.407 182.566 390.642C182.219 390.877 181.792 390.965 181.381 390.886C179.623 390.549 177.858 390.132 176.133 389.649C175.729 389.536 175.386 389.267 175.181 388.901C174.976 388.536 174.924 388.103 175.037 387.699C175.151 387.296 175.42 386.954 175.786 386.748C176.152 386.543 176.584 386.491 176.988 386.605C178.628 387.065 180.306 387.461 181.981 387.782C182.185 387.82 182.38 387.899 182.554 388.013C182.727 388.127 182.877 388.274 182.993 388.446C183.11 388.618 183.192 388.811 183.233 389.015C183.275 389.218 183.276 389.428 183.236 389.632H183.231ZM164.547 381.568C166.041 382.373 167.589 383.131 169.15 383.811C169.524 383.982 169.817 384.292 169.966 384.676C170.115 385.059 170.109 385.486 169.949 385.865C169.788 386.244 169.486 386.545 169.107 386.705C168.728 386.865 168.301 386.871 167.918 386.722L167.887 386.709C166.244 385.994 164.614 385.201 163.041 384.349C162.685 384.156 162.417 383.834 162.292 383.45C162.167 383.065 162.193 382.648 162.366 382.282C162.54 381.917 162.846 381.632 163.223 381.486C163.6 381.339 164.019 381.343 164.394 381.496C164.445 381.516 164.495 381.539 164.543 381.565L164.547 381.568Z" fill="#BDBEEE"/>
<path d="M206.953 387.131C206.637 386.996 206.287 386.964 205.953 387.041C205.107 387.235 204.241 387.413 203.384 387.57C203.167 387.61 202.96 387.693 202.774 387.816C202.588 387.938 202.427 388.097 202.301 388.283C202.047 388.66 201.948 389.125 202.026 389.576C202.105 390.027 202.355 390.428 202.72 390.69C203.086 390.952 203.538 391.054 203.977 390.973C204.879 390.807 205.789 390.621 206.679 390.418C207.029 390.339 207.346 390.147 207.583 389.87C207.819 389.593 207.963 389.245 207.994 388.877C208.024 388.51 207.94 388.142 207.753 387.827C207.565 387.513 207.285 387.268 206.953 387.129V387.131Z" fill="#BDBEEE"/>
</g>
<g opacity="0.3">
<path d="M246.918 360.11C246.535 359.976 246.109 359.964 245.716 360.075C245.323 360.186 244.99 360.413 244.775 360.715C244.307 361.368 243.814 362.023 243.313 362.665C243.18 362.827 243.087 363.01 243.039 363.203C242.99 363.396 242.987 363.595 243.03 363.789C243.073 363.983 243.161 364.168 243.288 364.333C243.416 364.498 243.58 364.639 243.773 364.749C243.965 364.859 244.181 364.935 244.408 364.973C244.635 365.01 244.869 365.009 245.095 364.969C245.322 364.929 245.537 364.85 245.727 364.738C245.918 364.626 246.081 364.483 246.206 364.317C246.737 363.642 247.251 362.955 247.744 362.264C247.985 361.928 248.06 361.524 247.952 361.141C247.844 360.758 247.562 360.427 247.168 360.222C247.088 360.179 247.005 360.141 246.918 360.11Z" fill="#BDBEEE"/>
<path d="M220.741 271.998C221.116 272.178 221.405 272.498 221.545 272.888C221.684 273.279 221.663 273.708 221.486 274.083C221.309 274.458 220.991 274.749 220.599 274.892C220.208 275.035 219.776 275.018 219.397 274.847C217.89 274.143 216.335 273.494 214.744 272.906C214.545 272.838 214.361 272.731 214.203 272.591C214.046 272.451 213.918 272.281 213.828 272.091C213.738 271.901 213.687 271.696 213.678 271.486C213.669 271.276 213.702 271.067 213.776 270.87C213.849 270.673 213.962 270.493 214.107 270.34C214.251 270.187 214.426 270.065 214.619 269.98C214.812 269.895 215.02 269.849 215.231 269.846C215.443 269.842 215.652 269.88 215.848 269.959C216.535 270.212 217.217 270.478 217.889 270.752C218.852 271.144 219.81 271.564 220.741 271.998ZM208.778 269.4C208.733 269.601 208.648 269.792 208.529 269.961C208.41 270.13 208.258 270.274 208.082 270.384C207.907 270.495 207.711 270.57 207.507 270.605C207.302 270.64 207.092 270.635 206.889 270.59C205.252 270.225 203.583 269.925 201.926 269.699C201.716 269.676 201.512 269.612 201.327 269.51C201.142 269.407 200.98 269.269 200.85 269.103C200.72 268.938 200.624 268.748 200.569 268.545C200.514 268.342 200.501 268.13 200.529 267.921C200.558 267.713 200.629 267.512 200.737 267.332C200.845 267.151 200.988 266.993 201.159 266.869C201.329 266.744 201.523 266.654 201.728 266.605C201.934 266.556 202.147 266.549 202.356 266.583C204.1 266.822 205.858 267.137 207.581 267.52C207.669 267.541 207.755 267.568 207.839 267.6C208.183 267.742 208.467 268.001 208.638 268.33C208.81 268.659 208.86 269.038 208.778 269.4ZM228.278 276.163C229.755 277.117 231.21 278.145 232.604 279.222C232.935 279.478 233.151 279.854 233.203 280.268C233.256 280.682 233.14 281.1 232.883 281.429C232.625 281.759 232.247 281.973 231.83 282.025C231.414 282.077 230.993 281.963 230.662 281.707C229.339 280.683 227.956 279.706 226.554 278.802C226.224 278.588 225.986 278.26 225.887 277.881C225.787 277.503 225.833 277.101 226.016 276.754C226.199 276.407 226.505 276.141 226.875 276.006C227.244 275.872 227.651 275.879 228.016 276.027C228.107 276.065 228.194 276.11 228.277 276.163H228.278ZM195.336 267.572C195.336 267.778 195.296 267.983 195.216 268.174C195.137 268.365 195.02 268.538 194.874 268.685C194.727 268.831 194.552 268.947 194.361 269.026C194.169 269.105 193.963 269.146 193.755 269.146C192.081 269.146 190.385 269.22 188.717 269.363C188.51 269.38 188.302 269.357 188.104 269.295C187.905 269.232 187.722 269.131 187.563 268.998C187.242 268.729 187.041 268.345 187.006 267.929C186.97 267.513 187.102 267.1 187.372 266.781C187.643 266.462 188.03 266.263 188.448 266.227C190.205 266.079 191.994 266.002 193.752 266C193.96 265.999 194.166 266.04 194.358 266.118C194.55 266.197 194.725 266.313 194.872 266.459C195.02 266.605 195.136 266.778 195.216 266.969C195.295 267.16 195.336 267.365 195.336 267.572ZM239.028 284.93C240.256 286.181 241.445 287.503 242.573 288.858C242.84 289.181 242.966 289.596 242.925 290.011C242.884 290.427 242.679 290.809 242.354 291.074C242.029 291.339 241.612 291.465 241.194 291.424C240.776 291.383 240.392 291.179 240.125 290.856C239.06 289.574 237.927 288.315 236.76 287.126C236.506 286.867 236.349 286.529 236.316 286.168C236.283 285.807 236.377 285.446 236.581 285.146C236.785 284.846 237.087 284.625 237.436 284.521C237.785 284.416 238.159 284.434 238.496 284.573C238.696 284.654 238.876 284.776 239.026 284.93H239.028ZM247.582 295.824C248.509 297.317 249.382 298.868 250.178 300.427C250.355 300.797 250.379 301.221 250.246 301.609C250.112 301.997 249.832 302.318 249.464 302.504C249.096 302.689 248.67 302.724 248.276 302.602C247.883 302.48 247.553 302.21 247.356 301.849C246.599 300.366 245.769 298.893 244.889 297.476C244.774 297.3 244.696 297.103 244.659 296.896C244.621 296.69 244.626 296.478 244.672 296.274C244.718 296.069 244.805 295.876 244.928 295.705C245.05 295.534 245.206 295.39 245.385 295.28C245.565 295.17 245.765 295.096 245.973 295.064C246.181 295.032 246.394 295.041 246.599 295.092C246.804 295.143 246.996 295.234 247.165 295.359C247.334 295.485 247.475 295.643 247.582 295.824ZM253.545 308.32C254.122 309.978 254.634 311.684 255.069 313.374C255.158 313.773 255.087 314.189 254.872 314.537C254.656 314.884 254.314 315.134 253.917 315.235C253.519 315.336 253.098 315.279 252.741 315.077C252.385 314.875 252.122 314.543 252.007 314.151C251.593 312.54 251.107 310.925 250.557 309.345C250.425 308.952 250.454 308.523 250.638 308.151C250.822 307.779 251.146 307.495 251.54 307.359C251.934 307.224 252.366 307.248 252.742 307.428C253.118 307.607 253.408 307.926 253.548 308.317L253.545 308.32ZM256.625 321.808C256.823 323.551 256.947 325.323 256.999 327.074C257.008 327.282 256.975 327.49 256.902 327.686C256.83 327.882 256.719 328.061 256.576 328.214C256.433 328.366 256.261 328.489 256.069 328.575C255.878 328.661 255.672 328.708 255.462 328.714C255.252 328.72 255.043 328.684 254.847 328.609C254.652 328.534 254.473 328.421 254.321 328.277C254.17 328.132 254.049 327.959 253.966 327.768C253.882 327.576 253.838 327.37 253.835 327.162C253.788 325.499 253.674 323.817 253.48 322.16C253.457 321.955 253.475 321.747 253.532 321.549C253.59 321.35 253.686 321.165 253.815 321.004C253.945 320.842 254.105 320.708 254.287 320.608C254.468 320.508 254.668 320.445 254.874 320.422C255.139 320.391 255.407 320.428 255.653 320.529C255.915 320.636 256.144 320.811 256.315 321.035C256.486 321.26 256.593 321.526 256.625 321.806V321.808ZM256.647 335.645C256.455 337.384 256.186 339.139 255.841 340.859C255.804 341.065 255.727 341.261 255.613 341.436C255.499 341.612 255.351 341.763 255.177 341.881C255.004 341.999 254.809 342.081 254.603 342.123C254.397 342.165 254.185 342.166 253.979 342.126C253.773 342.086 253.577 342.005 253.402 341.889C253.228 341.773 253.078 341.623 252.963 341.449C252.847 341.275 252.767 341.079 252.728 340.874C252.689 340.669 252.692 340.458 252.736 340.254C253.058 338.62 253.314 336.953 253.498 335.3C253.544 334.886 253.754 334.506 254.081 334.246C254.408 333.985 254.827 333.864 255.244 333.91C255.66 333.955 256.042 334.164 256.304 334.489C256.567 334.814 256.688 335.23 256.642 335.645H256.647ZM253.617 349.135C253.198 350.356 252.736 351.579 252.244 352.769C252.065 353.202 251.883 353.628 251.696 354.051C251.615 354.241 251.497 354.414 251.347 354.559C251.198 354.703 251.021 354.817 250.827 354.893C250.633 354.968 250.426 355.005 250.218 355C250.009 354.994 249.804 354.948 249.614 354.863C249.424 354.78 249.252 354.661 249.107 354.512C248.963 354.363 248.85 354.188 248.774 353.995C248.698 353.803 248.661 353.598 248.665 353.391C248.669 353.185 248.714 352.981 248.797 352.791C248.974 352.388 249.148 351.981 249.318 351.571C249.785 350.438 250.223 349.276 250.623 348.117C250.759 347.722 251.046 347.397 251.423 347.213C251.799 347.029 252.234 347.002 252.631 347.136L252.723 347.17C253.095 347.323 253.395 347.611 253.561 347.976C253.727 348.341 253.748 348.755 253.617 349.134V349.135Z" fill="#BDBEEE"/>
<path d="M180.952 268.127C180.631 267.995 180.276 267.965 179.937 268.041C179.047 268.243 178.142 268.464 177.252 268.703C176.818 268.819 176.449 269.1 176.225 269.486C176.002 269.872 175.942 270.329 176.058 270.759C176.175 271.189 176.459 271.555 176.848 271.776C177.237 271.998 177.699 272.058 178.132 271.942C178.98 271.715 179.838 271.504 180.684 271.313C181.034 271.235 181.35 271.048 181.585 270.78C181.821 270.511 181.964 270.175 181.994 269.821C182.024 269.466 181.939 269.111 181.752 268.808C181.564 268.505 181.284 268.268 180.952 268.134V268.127Z" fill="#BDBEEE"/>
</g>
<path d="M165.677 290.898C165.542 290.971 165.433 291.084 165.365 291.223C165.298 291.361 165.275 291.516 165.3 291.668L166.773 300.546C163.587 303.377 160.883 306.708 158.768 310.408L149.782 310.796C149.628 310.803 149.48 310.858 149.359 310.952C149.238 311.047 149.149 311.177 149.105 311.325L146.029 321.673C145.987 321.82 145.991 321.976 146.041 322.12C146.091 322.264 146.184 322.39 146.307 322.479L153.622 327.712C153.374 331.967 153.82 336.234 154.944 340.345L148.86 346.977C148.756 347.091 148.69 347.234 148.671 347.387C148.653 347.539 148.682 347.694 148.755 347.83L153.896 357.322C153.97 357.457 154.084 357.566 154.222 357.634C154.361 357.701 154.516 357.724 154.668 357.699L163.547 356.226C166.378 359.412 169.708 362.117 173.408 364.233L173.797 373.217C173.803 373.371 173.857 373.52 173.952 373.641C174.047 373.762 174.177 373.851 174.325 373.894L184.673 376.971C184.82 377.013 184.976 377.009 185.12 376.959C185.265 376.909 185.39 376.816 185.479 376.692L190.712 369.377C194.967 369.626 199.234 369.181 203.345 368.057L209.977 374.141C210.091 374.245 210.234 374.311 210.387 374.329C210.54 374.348 210.694 374.319 210.83 374.246L220.322 369.103C220.457 369.029 220.566 368.916 220.634 368.777C220.702 368.639 220.724 368.483 220.699 368.331L219.226 359.453C222.413 356.623 225.117 353.292 227.231 349.591L236.218 349.203C236.371 349.197 236.519 349.143 236.641 349.048C236.762 348.953 236.851 348.823 236.894 348.676L239.971 338.328C240.013 338.181 240.009 338.025 239.959 337.88C239.909 337.736 239.816 337.611 239.692 337.522L232.377 332.289C232.626 328.034 232.18 323.767 231.056 319.655L237.139 313.022C237.244 312.909 237.31 312.766 237.329 312.613C237.348 312.46 237.319 312.305 237.246 312.169L232.103 302.679C232.03 302.543 231.916 302.434 231.778 302.366C231.639 302.298 231.483 302.275 231.331 302.3L222.453 303.775C219.623 300.587 216.292 297.883 212.591 295.768L212.203 286.782C212.196 286.628 212.142 286.48 212.048 286.359C211.953 286.238 211.823 286.149 211.676 286.105L201.326 283.03C201.18 282.987 201.023 282.99 200.879 283.04C200.735 283.09 200.609 283.183 200.52 283.307L195.286 290.624C191.031 290.374 186.765 290.819 182.654 291.944L176.021 285.86C175.907 285.756 175.764 285.689 175.611 285.671C175.458 285.652 175.303 285.681 175.168 285.755L165.677 290.898Z" fill="#BDBEEE"/>
<path d="M198.629 320.549C201.075 322.006 202.861 324.355 203.611 327.102C204.362 329.849 204.017 332.779 202.651 335.278C201.285 337.776 199.003 339.647 196.286 340.498C193.569 341.348 190.627 341.112 188.081 339.839C185.534 338.565 183.58 336.354 182.63 333.67C181.68 330.986 181.808 328.037 182.987 325.446C184.166 322.854 186.304 320.82 188.951 319.772C191.599 318.724 194.55 318.744 197.183 319.826C197.682 320.032 198.165 320.273 198.629 320.549ZM195.087 338.199C196.98 337.717 198.647 336.594 199.805 335.02C200.963 333.447 201.539 331.521 201.436 329.57C201.333 327.619 200.556 325.764 199.239 324.322C197.921 322.879 196.145 321.938 194.211 321.659C192.278 321.38 190.307 321.779 188.635 322.79C186.964 323.801 185.694 325.36 185.043 327.202C184.392 329.043 184.399 331.054 185.064 332.891C185.73 334.728 187.011 336.277 188.69 337.275C189.05 337.489 189.424 337.676 189.811 337.834C191.484 338.521 193.335 338.649 195.087 338.199Z" fill="white"/>
<path d="M204.3 304.934C203.446 304.589 202.575 304.286 201.69 304.027C201.41 303.945 201.126 303.867 200.842 303.793C199.446 303.433 198.023 303.183 196.586 303.045H196.527L196.364 303.03L196.038 303.004C195.952 302.994 195.865 303.001 195.782 303.025C195.699 303.049 195.622 303.089 195.555 303.143C195.489 303.197 195.434 303.264 195.394 303.339C195.354 303.414 195.33 303.497 195.323 303.582C195.317 303.666 195.327 303.752 195.355 303.832C195.383 303.912 195.427 303.987 195.485 304.05C195.542 304.113 195.612 304.164 195.691 304.2C195.769 304.236 195.854 304.256 195.94 304.259C199.99 304.566 203.909 305.811 207.376 307.89C210.843 309.97 213.761 312.827 215.889 316.227C218.018 319.627 219.298 323.473 219.625 327.452C219.952 331.431 219.316 335.43 217.77 339.121C215.338 344.9 210.814 349.588 205.07 352.28C199.326 354.972 192.771 355.476 186.671 353.695C173.072 349.721 165.308 335.624 169.346 322.266C169.593 321.445 169.883 320.637 170.215 319.845C171.646 316.421 173.826 313.349 176.601 310.846C176.672 310.784 176.728 310.708 176.764 310.622C176.819 310.489 176.827 310.342 176.786 310.205C176.745 310.068 176.657 309.948 176.538 309.866C176.418 309.784 176.274 309.745 176.129 309.754C175.983 309.764 175.846 309.821 175.738 309.918C172.143 313.164 169.511 317.308 168.121 321.907C163.881 335.932 172.043 350.733 186.309 354.902C192.713 356.771 199.594 356.241 205.624 353.415C211.654 350.589 216.404 345.668 218.957 339.602C219.31 338.759 219.618 337.9 219.882 337.026C221.784 330.732 221.245 323.969 218.369 318.043C215.493 312.117 210.484 307.449 204.31 304.94L204.3 304.934Z" fill="white"/>
<g opacity="0.3">
<path d="M105.462 239.073C105.291 238.992 105.101 238.978 104.922 239.032C104.743 239.087 104.584 239.207 104.468 239.376C104.011 240.041 103.565 240.737 103.141 241.437C103.019 241.656 102.973 241.922 103.015 242.179C103.057 242.436 103.182 242.664 103.365 242.815C103.547 242.966 103.773 243.028 103.994 242.988C104.215 242.948 104.414 242.809 104.549 242.601C104.951 241.936 105.376 241.271 105.812 240.636C105.895 240.514 105.953 240.37 105.981 240.217C106.009 240.064 106.006 239.905 105.973 239.754C105.939 239.602 105.876 239.462 105.788 239.344C105.7 239.226 105.59 239.133 105.466 239.073H105.462Z" fill="#BDBEEE"/>
<path d="M101.434 245.116C101.666 245.239 101.839 245.448 101.915 245.697C101.992 245.946 101.965 246.215 101.84 246.444C101.185 247.654 100.592 248.896 100.063 250.165C99.9542 250.433 99.845 250.703 99.7358 250.974C99.6403 251.217 99.4514 251.412 99.2104 251.518C98.9694 251.623 98.696 251.629 98.4501 251.536C98.2102 251.435 98.0181 251.247 97.9126 251.011C97.8071 250.776 97.7961 250.509 97.8818 250.266C97.991 249.983 98.1045 249.702 98.2225 249.421C98.7771 248.09 99.3992 246.788 100.086 245.519C100.202 245.304 100.395 245.14 100.626 245.058C100.858 244.976 101.112 244.981 101.339 245.074L101.434 245.116ZM98.2094 255.722C97.7985 257.333 97.4878 258.968 97.279 260.618C97.2712 260.752 97.2355 260.883 97.1743 261.002C97.1131 261.122 97.0276 261.228 96.9232 261.314C96.8187 261.4 96.6976 261.464 96.5672 261.502C96.4368 261.539 96.2999 261.55 96.1651 261.534C96.0303 261.517 95.9003 261.473 95.7834 261.405C95.6664 261.337 95.5648 261.245 95.485 261.137C95.4052 261.028 95.3488 260.904 95.3193 260.773C95.2898 260.642 95.2879 260.507 95.3136 260.375C95.5314 258.646 95.8569 256.932 96.2882 255.243C96.3527 254.99 96.5161 254.773 96.7425 254.64C96.9688 254.506 97.2396 254.467 97.4953 254.531C97.5411 254.542 97.586 254.558 97.6296 254.576C97.8505 254.665 98.0311 254.83 98.1378 255.041C98.2445 255.252 98.2699 255.494 98.2094 255.722ZM96.9695 265.591C96.9727 267.254 97.081 268.914 97.2938 270.563C97.3034 270.809 97.2195 271.049 97.0585 271.237C96.8976 271.424 96.6714 271.545 96.4245 271.576C96.1776 271.606 95.9281 271.545 95.7252 271.402C95.5222 271.26 95.3807 271.048 95.3284 270.808C95.1105 269.078 95.0011 267.336 95.0008 265.593C94.9954 265.461 95.017 265.329 95.0645 265.205C95.112 265.081 95.1843 264.968 95.277 264.873C95.3698 264.777 95.4812 264.701 95.6044 264.65C95.7276 264.598 95.8602 264.571 95.9942 264.571C96.1281 264.571 96.2607 264.598 96.3839 264.65C96.5071 264.701 96.6185 264.777 96.7113 264.873C96.8041 264.968 96.8763 265.081 96.9238 265.205C96.9713 265.329 96.9929 265.461 96.9875 265.593L96.9695 265.591ZM98.2208 275.461C98.6344 277.072 99.148 278.656 99.7588 280.205C99.8423 280.445 99.8288 280.707 99.7209 280.937C99.6131 281.167 99.4193 281.347 99.1802 281.44C98.9411 281.532 98.6751 281.529 98.438 281.432C98.2009 281.335 98.0109 281.151 97.908 280.918C97.2684 279.294 96.7296 277.632 96.2947 275.943C96.2365 275.693 96.2795 275.431 96.4147 275.212C96.5498 274.993 96.7663 274.835 97.0178 274.771C97.2694 274.708 97.536 274.744 97.7608 274.872C97.9856 275.001 98.1507 275.211 98.2208 275.458V275.461ZM101.873 284.729C102.671 286.192 103.559 287.605 104.531 288.961C104.615 289.066 104.675 289.186 104.71 289.315C104.745 289.444 104.753 289.578 104.733 289.71C104.714 289.841 104.667 289.968 104.597 290.081C104.526 290.195 104.433 290.293 104.323 290.37C104.213 290.447 104.089 290.501 103.957 290.528C103.825 290.556 103.689 290.557 103.557 290.531C103.425 290.506 103.299 290.453 103.188 290.378C103.077 290.303 102.982 290.206 102.91 290.094C101.892 288.672 100.962 287.191 100.126 285.657C100.001 285.428 99.9731 285.16 100.049 284.91C100.125 284.661 100.297 284.452 100.529 284.328C100.761 284.205 101.033 284.178 101.286 284.252C101.538 284.327 101.75 284.498 101.875 284.727L101.873 284.729ZM107.692 292.84C108.825 294.066 110.034 295.222 111.312 296.301C111.411 296.384 111.493 296.486 111.552 296.601C111.611 296.716 111.647 296.841 111.657 296.97C111.667 297.098 111.652 297.227 111.611 297.35C111.571 297.473 111.507 297.586 111.422 297.684C111.337 297.782 111.234 297.862 111.117 297.921C111.001 297.979 110.874 298.015 110.744 298.025C110.614 298.035 110.484 298.019 110.36 297.98C110.236 297.94 110.121 297.876 110.022 297.792C108.682 296.661 107.414 295.449 106.225 294.163C106.137 294.068 106.069 293.956 106.025 293.834C105.98 293.713 105.961 293.584 105.967 293.455C105.973 293.326 106.005 293.199 106.061 293.082C106.117 292.965 106.195 292.86 106.292 292.773C106.389 292.686 106.502 292.619 106.625 292.576C106.748 292.532 106.879 292.513 107.009 292.519C107.14 292.525 107.268 292.556 107.387 292.611C107.505 292.667 107.611 292.744 107.699 292.84H107.692ZM115.34 299.295C116.744 300.21 118.205 301.039 119.713 301.776C119.949 301.891 120.13 302.095 120.214 302.342C120.299 302.588 120.281 302.858 120.164 303.092C120.047 303.326 119.841 303.504 119.591 303.588C119.341 303.671 119.068 303.653 118.831 303.538C117.25 302.765 115.719 301.896 114.246 300.938C114.137 300.867 114.043 300.775 113.97 300.669C113.896 300.562 113.845 300.442 113.819 300.316C113.793 300.19 113.792 300.06 113.816 299.933C113.841 299.807 113.89 299.686 113.962 299.579C114.034 299.471 114.126 299.378 114.234 299.306C114.342 299.234 114.464 299.183 114.591 299.157C114.719 299.131 114.851 299.13 114.979 299.155C115.107 299.179 115.229 299.228 115.338 299.299L115.34 299.295ZM129.975 306.227C129.948 306.353 129.895 306.472 129.821 306.578C129.747 306.684 129.652 306.774 129.542 306.844C129.433 306.914 129.31 306.961 129.182 306.984C129.054 307.007 128.922 307.005 128.795 306.978C127.3 306.655 125.824 306.254 124.372 305.777C124.151 305.706 123.932 305.631 123.717 305.555C123.593 305.514 123.479 305.448 123.381 305.363C123.283 305.277 123.204 305.173 123.147 305.056C123.091 304.94 123.058 304.813 123.052 304.684C123.045 304.555 123.065 304.426 123.11 304.305C123.153 304.183 123.22 304.071 123.307 303.975C123.394 303.879 123.499 303.801 123.617 303.745C123.734 303.69 123.862 303.657 123.992 303.65C124.122 303.643 124.253 303.662 124.376 303.704C124.582 303.776 124.788 303.845 125 303.913C126.388 304.369 127.799 304.752 129.229 305.06C129.285 305.072 129.34 305.089 129.392 305.112C129.607 305.2 129.783 305.36 129.89 305.563C129.997 305.767 130.027 306.002 129.975 306.225V306.227Z" fill="#BDBEEE"/>
</g>
<g opacity="0.3">
<path d="M154.174 227.394C155.764 228.063 157.311 228.825 158.808 229.675C159.035 229.805 159.201 230.018 159.269 230.268C159.337 230.518 159.301 230.784 159.17 231.008C159.038 231.231 158.822 231.395 158.569 231.462C158.315 231.528 158.045 231.493 157.818 231.364C156.392 230.551 154.916 229.825 153.401 229.188C153.159 229.088 152.967 228.898 152.867 228.659C152.768 228.419 152.769 228.151 152.87 227.912C152.971 227.674 153.164 227.485 153.407 227.386C153.65 227.288 153.922 227.289 154.165 227.389L154.174 227.394ZM149.974 226.887C149.901 227.135 149.731 227.344 149.501 227.469C149.271 227.593 149.001 227.623 148.749 227.551C147.165 227.098 145.555 226.738 143.927 226.474C143.668 226.431 143.436 226.289 143.283 226.078C143.13 225.867 143.068 225.604 143.112 225.349C143.155 225.093 143.3 224.864 143.514 224.713C143.728 224.563 143.994 224.502 144.254 224.545C145.961 224.82 147.65 225.195 149.312 225.67L149.415 225.705C149.64 225.8 149.821 225.972 149.925 226.191C150.028 226.409 150.046 226.657 149.974 226.887ZM163.137 232.496C164.515 233.524 165.83 234.632 167.074 235.814C167.168 235.903 167.242 236.01 167.294 236.127C167.346 236.245 167.374 236.371 167.376 236.499C167.378 236.627 167.355 236.754 167.307 236.873C167.259 236.992 167.188 237.101 167.098 237.193C167.008 237.285 166.9 237.359 166.781 237.41C166.661 237.461 166.533 237.488 166.403 237.49C166.273 237.493 166.144 237.47 166.023 237.423C165.903 237.376 165.792 237.306 165.699 237.217C164.514 236.088 163.26 235.032 161.946 234.052C161.749 233.911 161.611 233.703 161.56 233.468C161.51 233.233 161.549 232.987 161.67 232.779C161.791 232.571 161.987 232.414 162.218 232.339C162.45 232.263 162.702 232.275 162.925 232.372C162.998 232.405 163.066 232.446 163.129 232.496H163.137ZM140.039 225.046C140.034 225.174 140.003 225.3 139.949 225.416C139.895 225.533 139.818 225.637 139.722 225.724C139.627 225.811 139.515 225.879 139.393 225.923C139.271 225.967 139.141 225.987 139.011 225.982C137.364 225.918 135.714 225.952 134.07 226.083C133.941 226.094 133.811 226.079 133.687 226.04C133.563 226.001 133.449 225.938 133.35 225.856C133.251 225.773 133.169 225.672 133.11 225.558C133.05 225.444 133.014 225.32 133.003 225.193C132.993 225.065 133.008 224.937 133.047 224.815C133.087 224.693 133.15 224.58 133.234 224.482C133.318 224.385 133.421 224.304 133.536 224.246C133.652 224.187 133.778 224.152 133.907 224.141C135.631 224.001 137.361 223.965 139.09 224.033C139.205 224.038 139.319 224.063 139.426 224.106C139.612 224.183 139.77 224.314 139.878 224.482C139.986 224.65 140.04 224.847 140.031 225.046H140.039ZM170.571 239.577C171.659 240.9 172.665 242.287 173.583 243.73C173.658 243.839 173.71 243.961 173.736 244.09C173.762 244.219 173.762 244.352 173.734 244.48C173.707 244.609 173.654 244.731 173.578 244.838C173.501 244.946 173.404 245.038 173.291 245.108C173.178 245.177 173.052 245.224 172.92 245.244C172.788 245.265 172.654 245.259 172.524 245.227C172.395 245.195 172.274 245.138 172.167 245.059C172.061 244.979 171.972 244.88 171.906 244.766C171.031 243.389 170.072 242.067 169.034 240.805C168.897 240.637 168.82 240.429 168.816 240.213C168.812 239.997 168.881 239.786 169.011 239.613C169.142 239.44 169.327 239.314 169.538 239.255C169.748 239.197 169.973 239.209 170.176 239.289C170.327 239.352 170.46 239.451 170.563 239.577H170.571ZM176.066 248.21C176.801 249.752 177.442 251.336 177.984 252.953C178.066 253.199 178.045 253.467 177.927 253.697C177.809 253.928 177.602 254.103 177.353 254.184C177.104 254.265 176.832 254.245 176.598 254.128C176.364 254.012 176.186 253.808 176.104 253.563C175.587 252.02 174.976 250.509 174.275 249.038C174.163 248.803 174.151 248.535 174.241 248.291C174.33 248.048 174.514 247.849 174.752 247.74C174.99 247.63 175.263 247.618 175.51 247.706C175.757 247.794 175.958 247.975 176.07 248.21H176.066ZM179.307 257.891C179.641 259.563 179.871 261.252 179.997 262.951C180.017 263.209 179.932 263.464 179.761 263.66C179.59 263.856 179.347 263.978 179.086 263.997C178.824 264.017 178.565 263.933 178.366 263.765C178.167 263.596 178.044 263.357 178.024 263.099C177.899 261.479 177.674 259.868 177.351 258.275C177.325 258.15 177.325 258.021 177.35 257.895C177.375 257.769 177.425 257.65 177.497 257.543C177.569 257.437 177.662 257.345 177.77 257.274C177.878 257.203 178 257.154 178.127 257.129C178.318 257.09 178.516 257.109 178.697 257.182C178.849 257.242 178.983 257.338 179.088 257.462C179.193 257.586 179.266 257.733 179.299 257.891H179.307Z" fill="#BDBEEE"/>
<path d="M129.436 225.088C129.267 224.999 129.082 224.977 128.904 225.024C128.142 225.228 127.38 225.461 126.64 225.717C126.415 225.807 126.226 226.005 126.113 226.27C125.999 226.535 125.97 226.846 126.032 227.137C126.093 227.429 126.241 227.679 126.443 227.834C126.645 227.989 126.887 228.038 127.116 227.97C127.82 227.726 128.547 227.503 129.275 227.308C129.466 227.257 129.639 227.13 129.769 226.943C129.898 226.757 129.978 226.523 129.996 226.274C130.014 226.026 129.969 225.776 129.868 225.563C129.768 225.349 129.616 225.183 129.436 225.088Z" fill="#BDBEEE"/>
</g>
<path d="M119.186 240.293C119.096 240.342 119.023 240.418 118.978 240.511C118.932 240.603 118.917 240.708 118.934 240.809L119.922 246.76C117.786 248.656 115.974 250.887 114.556 253.367L108.535 253.626C108.432 253.631 108.333 253.668 108.252 253.732C108.17 253.795 108.111 253.883 108.081 253.982L106.021 260.921C105.991 261.02 105.993 261.125 106.027 261.223C106.06 261.321 106.124 261.405 106.208 261.465L111.109 264.972C110.943 267.823 111.241 270.682 111.993 273.438L107.917 277.882C107.847 277.958 107.803 278.054 107.791 278.156C107.779 278.258 107.798 278.362 107.847 278.452L111.293 284.814C111.342 284.904 111.418 284.977 111.511 285.022C111.603 285.068 111.708 285.083 111.809 285.065L117.76 284.079C119.656 286.215 121.888 288.026 124.367 289.444L124.626 295.465C124.631 295.568 124.668 295.667 124.731 295.749C124.795 295.83 124.882 295.889 124.982 295.919L131.921 297.979C132.02 298.009 132.125 298.007 132.223 297.973C132.321 297.94 132.405 297.876 132.465 297.792L135.972 292.891C138.823 293.057 141.682 292.759 144.438 292.007L148.882 296.083C148.958 296.153 149.054 296.197 149.156 296.209C149.258 296.222 149.362 296.202 149.452 296.153L155.814 292.707C155.904 292.658 155.977 292.582 156.022 292.489C156.068 292.397 156.083 292.292 156.066 292.191L155.079 286.24C157.215 284.344 159.026 282.112 160.444 279.633L166.465 279.374C166.568 279.369 166.667 279.333 166.748 279.269C166.83 279.206 166.889 279.119 166.919 279.02L168.979 272.081C169.009 271.982 169.007 271.876 168.973 271.779C168.94 271.681 168.876 271.597 168.792 271.537L163.891 268.03C164.058 265.179 163.76 262.319 163.007 259.564L167.083 255.119C167.153 255.043 167.197 254.948 167.209 254.846C167.221 254.743 167.202 254.64 167.153 254.55L163.707 248.188C163.658 248.097 163.582 248.024 163.489 247.979C163.397 247.934 163.292 247.919 163.191 247.936L157.24 248.922C155.344 246.787 153.112 244.975 150.633 243.558L150.37 237.535C150.366 237.432 150.329 237.333 150.266 237.252C150.203 237.17 150.116 237.111 150.017 237.081L143.077 235.021C142.979 234.991 142.873 234.993 142.775 235.027C142.678 235.06 142.593 235.124 142.534 235.208L139.027 240.109C136.175 239.943 133.316 240.241 130.561 240.993L126.116 236.917C126.04 236.847 125.944 236.803 125.842 236.791C125.74 236.779 125.637 236.798 125.546 236.847L119.186 240.293Z" fill="#BDBEEE"/>
<path d="M141.309 260.039C142.981 261.025 144.206 262.62 144.726 264.49C145.246 266.36 145.021 268.359 144.098 270.066C143.175 271.774 141.626 273.057 139.777 273.646C137.928 274.235 135.922 274.085 134.181 273.226C132.441 272.367 131.101 270.867 130.444 269.041C129.786 267.215 129.862 265.205 130.655 263.434C131.449 261.662 132.898 260.268 134.699 259.543C136.499 258.818 138.51 258.819 140.31 259.546C140.654 259.686 140.988 259.851 141.309 260.039ZM142.224 269.352C142.597 268.726 142.842 268.033 142.946 267.312C143.05 266.592 143.012 265.858 142.832 265.152C142.653 264.447 142.336 263.783 141.9 263.2C141.464 262.617 140.918 262.125 140.292 261.753C139.029 261.023 137.529 260.82 136.118 261.188C134.706 261.557 133.497 262.466 132.751 263.72C132.006 264.974 131.784 266.471 132.135 267.887C132.486 269.303 133.381 270.524 134.626 271.284C134.86 271.422 135.104 271.544 135.355 271.647C136.586 272.15 137.955 272.195 139.216 271.774C140.476 271.352 141.544 270.493 142.224 269.352Z" fill="white"/>
<path d="M144.547 249.347C143.972 249.11 143.378 248.901 142.766 248.72C141.558 248.36 140.317 248.125 139.061 248.016L138.899 248.003C138.771 247.993 138.641 248.009 138.519 248.049C138.396 248.089 138.283 248.153 138.185 248.237C138.087 248.321 138.006 248.423 137.948 248.538C137.89 248.653 137.855 248.779 137.845 248.908C137.835 249.036 137.85 249.166 137.89 249.289C137.931 249.411 137.994 249.525 138.078 249.623C138.162 249.721 138.265 249.801 138.38 249.86C138.495 249.918 138.62 249.953 138.749 249.963C139.923 250.055 141.084 250.273 142.212 250.612L142.396 250.669C145.018 251.472 147.397 252.922 149.314 254.884C150.355 255.953 151.248 257.157 151.969 258.463L151.987 258.496C152.005 258.528 152.024 258.56 152.04 258.594C153.336 260.989 154.022 263.666 154.037 266.389C154.053 269.112 153.397 271.796 152.128 274.205C150.859 276.613 149.016 278.671 146.762 280.196C144.509 281.722 141.914 282.667 139.209 282.948C136.503 283.229 133.77 282.838 131.251 281.809C128.733 280.781 126.507 279.146 124.77 277.05C123.034 274.954 121.84 272.461 121.296 269.793C120.752 267.126 120.874 264.364 121.65 261.755C121.81 261.218 121.996 260.689 122.209 260.17C123.128 257.927 124.53 255.915 126.315 254.276C126.507 254.1 126.621 253.855 126.632 253.594C126.644 253.333 126.551 253.079 126.375 252.887C126.199 252.695 125.954 252.581 125.693 252.569C125.433 252.558 125.179 252.651 124.987 252.827C122.992 254.662 121.424 256.914 120.395 259.423C120.156 260.003 119.947 260.595 119.768 261.197C118.416 265.748 118.861 270.645 121.012 274.877C123.163 279.109 126.855 282.352 131.326 283.937C135.797 285.522 140.705 285.328 145.037 283.395C149.369 281.461 152.794 277.936 154.605 273.548C156.474 269.003 156.465 263.902 154.579 259.364C152.694 254.827 149.086 251.224 144.549 249.347H144.547Z" fill="white"/>
</svg>
