<svg width="456" height="465" viewBox="0 0 456 465" fill="none" xmlns="http://www.w3.org/2000/svg">
<g clip-path="url(#clip0_2358_2174)">
<path d="M426.384 313.072C381.406 418.571 262.677 463.885 169.649 456.159C144.25 454.049 93.1449 449.805 53.241 411.938C-23.3894 339.216 -11.5951 187.209 61.7696 97.7166C71.2169 86.1911 136.609 8.97536 238.508 10.0103C313.115 10.7664 365.477 53.0565 371.851 58.3263C379.894 64.9805 397.637 80.7966 413.625 105.891C451.188 164.844 454.492 247.15 426.384 313.072Z" fill="#DEDCEB"/>
<path d="M110.322 239C110.322 239 111.554 187.154 87.705 173.278C63.8564 159.402 18.5132 150.727 16.8128 76.2806C15.8185 32.6967 14.7407 13.6423 14.0183 5.33296C13.953 4.57856 14.0629 3.81926 14.3394 3.11445C14.6158 2.40964 15.0514 1.77842 15.612 1.27016C16.1725 0.761902 16.8429 0.390382 17.5707 0.184654C18.2985 -0.0210746 19.064 -0.0554323 19.8072 0.0842675C42.3929 4.34883 115.767 21.8811 131.15 72.0275C149.386 131.469 110.322 239 110.322 239Z" fill="#9494C4"/>
<path d="M36.5801 21.2307C61.1563 43.3988 89.5726 82.6265 104.72 121.856C106.668 128.321 112.351 142.07 114.821 166.498C117.026 186.873 115.93 208.4 113.254 222.657C113.171 223.088 112.923 223.468 112.563 223.715C112.203 223.961 111.762 224.053 111.335 223.971C109.804 223.677 110.007 222.01 110.021 222.062C113.076 197.714 111.807 167.409 104.809 140.065C95.866 106.486 75.9157 73.9399 55.2948 46.3299L53.171 43.6123C37.1873 22.853 33.8214 22.7003 35.3233 21.2619C35.4914 21.0993 35.7133 21.0061 35.9457 21.0003C36.1782 20.9945 36.4044 21.0767 36.5801 21.2307Z" fill="white"/>
<path d="M147.784 338.957C151 340.543 117.35 297.974 106.809 231.114C101.842 199.608 101.777 160.133 83.9378 144.922C69.0856 132.261 18.5669 140.254 2.03521 143.292C1.57227 143.377 1.14292 143.593 0.79727 143.914C0.451624 144.235 0.203944 144.649 0.0831362 145.106C-0.0376713 145.564 -0.0266193 146.047 0.114998 146.498C0.256616 146.95 0.522958 147.351 0.88294 147.656C8.81011 154.354 25.7694 170.151 30.1875 186.078C36.0109 207.065 55.8443 220.415 73.6017 224.027C91.359 227.639 101.235 231.145 109.885 259.711C118.535 288.278 138.649 334.452 147.784 338.957Z" fill="#E3E2EF"/>
<path d="M25.4639 152C46.4554 152.888 68.99 162.558 80.4247 180.696L81.505 182.429C83.9969 186.487 98.125 215.339 105.971 239.255C105.995 239.326 106.004 239.401 105.999 239.475C105.993 239.55 105.973 239.622 105.94 239.689C105.907 239.756 105.861 239.815 105.805 239.864C105.749 239.913 105.684 239.95 105.614 239.973C105.476 240.017 105.326 240.007 105.195 239.944C105.064 239.881 104.962 239.77 104.909 239.634C99.4424 226.122 91.5881 208.992 85.3371 196.182C78.6313 182.204 73.9382 172.737 58.6405 163.67C41.6161 153.905 25.3502 152.899 25.3989 152.909C25.2835 152.895 25.1777 152.837 25.1036 152.747C25.0295 152.656 24.9928 152.54 25.0012 152.423C25.0095 152.306 25.0623 152.197 25.1485 152.118C25.2347 152.039 25.3477 151.997 25.4639 152Z" fill="url(#paint0_linear_2358_2174)"/>
<path d="M132.805 343.966C134.71 344.976 122.076 323.096 121.106 303.818C120.136 284.54 115.813 251.638 99.2926 231.955C82.772 212.272 64.6788 210.48 41.8812 228.367C22.8836 243.289 11.0334 250.807 4.08326 252.207C3.68264 252.292 3.30734 252.47 2.98736 252.727C2.66738 252.984 2.41158 253.313 2.24041 253.687C2.06924 254.061 1.98745 254.471 2.00156 254.883C2.01567 255.294 2.1253 255.697 2.32169 256.059C6.77857 264.319 19.3817 283.292 40.5416 281.956C67.5322 280.252 100.244 262.598 110.214 277.326C120.184 292.053 118.903 300.294 119.209 307.275C119.516 314.255 120.198 337.28 132.805 343.966Z" fill="#9494C4"/>
<path d="M37.194 251.594C47.0054 243.582 62.9829 235.71 76.949 237.178C95.117 239.671 107.218 250.005 113.824 265.388C116.403 271.92 117.466 275.408 118.991 283.415C119.113 284.054 118.014 284.238 117.822 283.621C116.711 279.859 115.612 275.921 113.967 271.849C104.39 245.573 83.9484 242.033 83.151 241.496C81.6066 241.626 72.2362 235.651 50.0047 245.84C45.8698 247.752 41.8652 249.941 38.0174 252.391L37.9963 252.404C37.8609 252.489 37.7011 252.524 37.5432 252.505C37.3853 252.486 37.2386 252.412 37.1273 252.297C37.0816 252.249 37.0469 252.191 37.0253 252.128C37.0037 252.064 36.9958 251.997 37.0021 251.93C37.0084 251.864 37.0288 251.799 37.062 251.741C37.0951 251.683 37.1401 251.633 37.194 251.594Z" fill="#BDD0FB"/>
<path d="M130.766 50.0098L367.708 56.2922C374.003 56.459 379.992 59.0387 384.44 63.4983C388.887 67.9579 391.453 73.9566 391.606 80.2549L399.995 424.442C400.053 426.87 399.624 429.286 398.731 431.545C397.838 433.803 396.501 435.86 394.798 437.591C393.095 439.322 391.061 440.693 388.818 441.622C386.575 442.551 384.168 443.02 381.741 442.999L110.046 440.741C107.763 440.722 105.506 440.248 103.408 439.347C101.309 438.445 99.4113 437.134 97.8249 435.491C96.2385 433.847 94.9953 431.904 94.1679 429.774C93.3405 427.644 92.9455 425.371 93.006 423.087L102.165 77.1505C102.262 73.4893 103.078 69.883 104.568 66.5376C106.058 63.1922 108.192 60.1731 110.848 57.6529C113.504 55.1326 116.63 53.1604 120.047 51.8491C123.465 50.5377 127.107 49.9127 130.766 50.0098Z" fill="#6A6BAD"/>
<path d="M130.847 47.1047C163.056 52.3569 273.855 68.8998 365.945 64.2682C366.942 64.2163 367.938 64.3647 368.876 64.7047C369.815 65.0446 370.675 65.5693 371.408 66.2478C372.141 66.9264 372.731 67.745 373.143 68.6555C373.556 69.566 373.782 70.5501 373.809 71.5496L382.997 417.564C383.059 419.842 382.218 422.052 380.659 423.711C379.1 425.37 376.949 426.343 374.677 426.417C335.963 427.685 176.543 432.313 119.921 424.852C118.257 424.63 116.733 423.801 115.641 422.524C114.549 421.246 113.965 419.609 114.002 417.927L121.464 54.9446C121.487 53.7839 121.759 52.6419 122.261 51.5956C122.762 50.5493 123.482 49.6233 124.372 48.88C125.262 48.1367 126.3 47.5936 127.417 47.2873C128.534 46.981 129.704 46.9187 130.847 47.1047Z" fill="#AAAAD6"/>
<path d="M139.721 65.0966C169.776 69.9921 273.159 85.4086 359.086 81.0925C360.016 81.0441 360.946 81.1824 361.821 81.4993C362.696 81.8161 363.5 82.3051 364.183 82.9375C364.867 83.5698 365.417 84.3327 365.802 85.1813C366.187 86.0298 366.398 86.9469 366.424 87.8784L374.997 410.339C375.054 412.463 374.27 414.523 372.815 416.069C371.359 417.615 369.352 418.522 367.231 418.592C331.1 419.772 182.358 424.091 129.526 417.132C127.973 416.925 126.551 416.153 125.531 414.962C124.512 413.771 123.967 412.246 124.002 410.678L130.973 72.403C130.994 71.322 131.248 70.2583 131.715 69.2837C132.183 68.3091 132.854 67.4463 133.684 66.7537C134.513 66.0611 135.481 65.5547 136.523 65.2689C137.564 64.983 138.655 64.9243 139.721 65.0966Z" fill="#DEDCEB"/>
<path d="M264.799 6.5437C256.416 0.420226 248.987 0.342445 243.72 1.73599C241.388 2.3588 239.347 3.76526 237.944 5.71551C236.54 7.66576 235.862 10.039 236.023 12.4306L237.626 36.9212L264.389 40C264.389 40 281.237 18.5541 264.799 6.5437ZM252.476 25.9447C251.153 25.9099 249.871 25.4865 248.79 24.7278C247.71 23.9691 246.88 22.9094 246.406 21.6825C245.932 20.4557 245.835 19.1168 246.128 17.8353C246.42 16.5538 247.089 15.3872 248.049 14.483C249.009 13.5787 250.218 12.9776 251.522 12.7554C252.826 12.5333 254.168 12.7001 255.376 13.2349C256.585 13.7697 257.607 14.6485 258.313 15.7599C259.019 16.8714 259.377 18.1658 259.342 19.4793C259.295 21.2407 258.545 22.9113 257.258 24.1238C255.97 25.3363 254.25 25.9913 252.476 25.9447Z" fill="#37474F"/>
<path d="M200 51.5709L200.327 39.2986C200.353 38.2931 200.583 37.3031 201.003 36.3876C201.424 35.4721 202.026 34.6498 202.775 33.97C203.523 33.2901 204.402 32.7665 205.359 32.4304C206.316 32.0943 207.332 31.9527 208.346 32.0139L293.697 37.1536C295.525 37.2635 297.246 38.0448 298.523 39.3447C299.8 40.6447 300.542 42.3698 300.603 44.1826L301 56L200 51.5709Z" fill="#37474F"/>
<path d="M229 37L233 37.0967L229 37Z" fill="#BDD0FB"/>
<path d="M173.778 47.003L323.157 50.9595C325.758 51.0285 328.252 52.0142 330.198 53.7428C332.144 55.4714 333.417 57.8318 333.794 60.4079L333.9 61.1419C334.1 62.5111 333.999 63.9076 333.603 65.2334C333.207 66.5591 332.525 67.7821 331.606 68.8165C330.687 69.8508 329.553 70.6715 328.284 71.2208C327.014 71.7701 325.639 72.0348 324.257 71.9963L171.002 67.9351C170.168 67.9129 169.347 67.7214 168.588 67.3723C167.83 67.0232 167.151 66.5238 166.591 65.9042C166.031 65.2846 165.603 64.5579 165.333 63.768C165.062 62.978 164.955 62.1414 165.017 61.3087L165.527 54.4567C165.681 52.3917 166.624 50.4655 168.161 49.0776C169.697 47.6897 171.708 46.9468 173.778 47.003Z" fill="#37474F"/>
<g opacity="0.89">
<path d="M180.649 269H180.573L152.45 268.89C148.399 268.873 145.038 266.147 144.635 262.553L142.029 239.355C141.955 238.666 142.023 237.97 142.231 237.308C142.438 236.647 142.779 236.033 143.235 235.506C143.776 234.883 144.439 234.373 145.185 234.006C145.93 233.639 146.742 233.422 147.573 233.369C149.943 233.207 153.208 232.906 156.802 232.584C164.626 231.886 173.483 231.093 178.702 231H178.817C182.545 230.981 185.765 233.198 186.674 236.427C188.172 241.756 188.099 251.847 187.883 262.597C187.81 266.118 184.573 268.977 180.649 269ZM147.742 235.616C147.218 235.646 146.705 235.779 146.235 236.007C145.764 236.235 145.344 236.554 145 236.943C144.742 237.239 144.548 237.582 144.43 237.953C144.311 238.325 144.27 238.716 144.31 239.103L146.916 262.299C147.19 264.758 149.575 266.62 152.46 266.631L180.581 266.743H180.637C183.326 266.729 185.541 264.857 185.592 262.548C185.807 251.971 185.881 242.06 184.464 237.021C183.836 234.792 181.384 233.146 178.748 233.254C173.62 233.345 164.411 234.168 157.012 234.83C153.405 235.155 150.127 235.444 147.745 235.618L147.742 235.616Z" fill="white"/>
<path opacity="0.6" d="M150.612 237.919C156.528 237.484 169.387 236.105 175.489 236.001C178.074 235.953 180.349 237.499 180.968 239.729C182.171 244.062 182.064 252.713 181.903 260.698C181.855 263.09 179.664 265.011 176.973 265L154.455 264.911C151.686 264.899 149.376 263.03 149.104 260.581L147.019 241.763C146.805 239.816 148.424 238.083 150.612 237.919Z" fill="white"/>
<g opacity="0.6">
<path d="M204.708 245C203.494 244.977 202.759 245.928 203.072 247.113L205.671 256.851C205.989 258.036 207.24 259 208.452 259L348.851 258.206C349.139 258.205 349.424 258.146 349.689 258.032C349.953 257.918 350.193 257.751 350.393 257.542C350.593 257.333 350.75 257.086 350.854 256.814C350.958 256.543 351.007 256.254 350.999 255.963L350.836 249.924C350.812 249.326 350.565 248.759 350.144 248.337C349.724 247.916 349.16 247.672 348.568 247.654L204.708 245Z" fill="white"/>
</g>
<path d="M180.65 331H180.572L152.451 330.89C148.398 330.873 145.037 328.149 144.634 324.553L142.03 301.355C141.955 300.666 142.023 299.969 142.23 299.307C142.437 298.645 142.779 298.032 143.235 297.504C143.777 296.881 144.439 296.372 145.184 296.005C145.929 295.638 146.741 295.422 147.572 295.369C149.944 295.197 153.209 294.904 156.801 294.584C164.625 293.886 173.49 293.093 178.702 293H178.816C182.544 292.979 185.765 295.198 186.673 298.425C188.171 303.754 188.1 313.846 187.882 324.597C187.809 328.118 184.574 330.979 180.65 331ZM147.744 297.618C147.22 297.647 146.707 297.78 146.236 298.008C145.764 298.236 145.344 298.555 145.001 298.945C144.743 299.24 144.549 299.583 144.431 299.954C144.313 300.325 144.272 300.716 144.312 301.103L146.918 324.296C147.194 326.755 149.577 328.616 152.462 328.628L180.585 328.738H180.64C183.329 328.724 185.543 326.85 185.594 324.543C185.809 313.966 185.883 304.055 184.468 299.017C183.84 296.787 181.386 295.142 178.75 295.249C173.631 295.34 164.415 296.164 157.016 296.823C153.409 297.148 150.129 297.439 147.749 297.613L147.744 297.618Z" fill="white"/>
<path opacity="0.6" d="M150.612 299.921C156.53 299.485 169.387 298.107 175.488 298.001C178.073 297.955 180.351 299.499 180.969 301.73C182.171 306.063 182.063 314.714 181.904 322.698C181.856 325.09 179.664 327.011 176.973 327L154.455 326.911C151.686 326.899 149.376 325.031 149.104 322.581L147.019 303.764C146.804 301.821 148.419 300.086 150.612 299.921Z" fill="white"/>
<g opacity="0.6">
<path d="M203.708 307C202.494 306.979 201.759 307.929 202.072 309.115L204.67 318.851C204.987 320.036 206.239 321 207.451 321L347.851 320.205C348.139 320.204 348.424 320.145 348.688 320.031C348.953 319.917 349.193 319.75 349.393 319.542C349.593 319.333 349.75 319.085 349.854 318.814C349.958 318.543 350.007 318.254 349.999 317.963L349.836 311.924C349.812 311.325 349.564 310.758 349.143 310.337C348.722 309.916 348.159 309.672 347.567 309.654L203.708 307Z" fill="white"/>
</g>
<path d="M179.65 393H179.572L151.451 392.889C147.398 392.873 144.039 390.147 143.634 386.553L141.029 363.355C140.955 362.666 141.023 361.97 141.23 361.308C141.437 360.646 141.779 360.032 142.235 359.504C142.777 358.882 143.439 358.372 144.184 358.005C144.929 357.639 145.741 357.422 146.572 357.369C148.944 357.197 152.209 356.904 155.801 356.584C163.625 355.884 172.492 355.091 177.702 355H177.818C181.546 354.981 184.766 357.199 185.673 360.427C187.171 365.756 187.1 375.848 186.882 386.6C186.811 390.118 183.574 392.979 179.65 393ZM146.742 359.616C146.218 359.646 145.705 359.779 145.234 360.006C144.763 360.234 144.343 360.552 143.999 360.942C143.741 361.237 143.548 361.581 143.429 361.952C143.311 362.323 143.27 362.714 143.31 363.102L145.915 386.299C146.191 388.759 148.575 390.621 151.461 390.633L179.582 390.743H179.636C182.325 390.727 184.542 388.855 184.591 386.546C184.806 375.97 184.88 366.057 183.465 361.02C182.837 358.789 180.383 357.143 177.747 357.252C172.627 357.343 163.411 358.167 156.012 358.827C152.405 359.152 149.127 359.442 146.745 359.616H146.742Z" fill="white"/>
<path opacity="0.6" d="M149.609 361.921C155.526 361.484 168.385 360.107 174.487 360.001C177.073 359.953 179.35 361.499 179.969 363.729C181.171 368.061 181.063 376.714 180.904 384.698C180.856 387.088 178.663 389.01 175.972 389L153.452 388.909C150.681 388.898 148.372 387.029 148.101 384.58L146.02 365.762C145.799 363.816 147.414 362.083 149.609 361.921Z" fill="white"/>
<g opacity="0.6">
<path d="M203.708 369C202.494 368.977 201.76 369.93 202.072 371.113L204.671 380.851C204.987 382.036 206.238 383 207.452 383L347.849 382.206C348.138 382.206 348.424 382.146 348.69 382.032C348.956 381.917 349.197 381.749 349.397 381.539C349.598 381.328 349.754 381.079 349.858 380.806C349.961 380.533 350.009 380.242 349.999 379.95L349.835 373.912C349.812 373.314 349.565 372.747 349.144 372.325C348.723 371.904 348.16 371.659 347.568 371.641L203.708 369Z" fill="white"/>
</g>
<path d="M162.218 161H151.784V114.151H141V105H173V114.151H162.218V161Z" fill="white"/>
<path d="M202.519 161L199.294 146.926H184.668L181.442 161H171L184.897 105H199.063L213 160.993L202.519 161ZM197.337 137.732L194.342 124.764C194.162 123.977 193.759 122 193.133 118.834C192.508 115.667 192.13 113.552 192 112.488C191.672 114.675 191.25 117.084 190.732 119.716C190.215 122.347 188.885 128.354 186.741 137.737L197.337 137.732Z" fill="white"/>
<path d="M250 161H239.194L231.213 140.929L223.806 161H213L225.754 131.89L213.954 105H224.418L231.787 123.424L238.163 105H249.046L237.246 132.349L250 161Z" fill="white"/>
<path d="M154.031 240.401C154.483 240.135 154.983 239.962 155.503 239.892C156.023 239.822 156.551 239.858 157.057 239.996C157.563 240.134 158.036 240.373 158.449 240.697C158.862 241.022 159.206 241.426 159.462 241.886L164.52 250.996C164.634 251.201 164.803 251.371 165.007 251.485C165.212 251.6 165.444 251.655 165.678 251.645C165.912 251.635 166.139 251.56 166.333 251.428C166.527 251.296 166.68 251.112 166.776 250.897L179.322 222.834C179.948 221.433 182.023 221.907 182 223.44C181.873 232.025 179.605 248.343 165.953 262C165.953 262 158.43 259.058 152.373 245.696C151.949 244.764 151.884 243.707 152.19 242.729C152.496 241.751 153.152 240.922 154.031 240.401Z" fill="#6667AB"/>
<path d="M156.03 303.4C156.483 303.134 156.983 302.961 157.502 302.891C158.022 302.822 158.55 302.857 159.056 302.995C159.561 303.134 160.034 303.372 160.447 303.696C160.86 304.021 161.204 304.424 161.46 304.884L166.52 313.996C166.634 314.201 166.803 314.371 167.007 314.485C167.212 314.6 167.444 314.656 167.678 314.645C167.912 314.635 168.139 314.56 168.333 314.428C168.526 314.296 168.68 314.112 168.776 313.898L181.322 285.832C181.948 284.433 184.023 284.907 184 286.441C183.871 295.026 181.605 311.343 167.953 325C167.953 325 160.43 322.058 154.373 308.696C153.949 307.763 153.884 306.706 154.19 305.728C154.496 304.751 155.152 303.921 156.03 303.4Z" fill="#6667AB"/>
</g>
<g opacity="0.6">
<path d="M261.764 110.001C260.556 109.973 259.786 110.911 260.053 112.085L261.373 117.878C261.64 119.052 262.848 120.006 264.056 120L347.854 119.533C348.14 119.531 348.424 119.473 348.688 119.361C348.952 119.249 349.19 119.086 349.39 118.881C349.59 118.676 349.747 118.433 349.851 118.167C349.956 117.901 350.006 117.617 349.999 117.331L349.923 114.19C349.902 113.602 349.658 113.045 349.241 112.629C348.824 112.214 348.264 111.971 347.675 111.951L261.764 110.001Z" fill="white"/>
</g>
<g opacity="0.6">
<path d="M261.762 131.001C260.554 130.973 259.786 131.911 260.053 133.085L261.372 138.878C261.64 140.052 262.847 141.006 264.056 141L347.855 140.533C348.142 140.531 348.425 140.473 348.689 140.361C348.953 140.249 349.192 140.086 349.391 139.881C349.591 139.676 349.748 139.433 349.852 139.167C349.956 138.901 350.006 138.617 349.999 138.331L349.924 135.19C349.903 134.602 349.659 134.045 349.241 133.629C348.824 133.214 348.264 132.971 347.675 132.951L261.762 131.001Z" fill="white"/>
</g>
<g opacity="0.6">
<path d="M261.764 151.001C260.556 150.973 259.786 151.912 260.053 153.085L261.373 158.876C261.64 160.051 262.848 161.006 264.056 161L347.854 160.533C348.14 160.531 348.424 160.473 348.688 160.361C348.952 160.249 349.19 160.086 349.39 159.881C349.59 159.676 349.747 159.433 349.851 159.167C349.956 158.901 350.006 158.617 349.999 158.331L349.923 155.189C349.902 154.602 349.658 154.044 349.241 153.629C348.824 153.213 348.264 152.971 347.675 152.951L261.764 151.001Z" fill="white"/>
</g>
<g opacity="0.6">
<path d="M142.747 182.001C141.532 181.974 140.773 182.889 141.061 184.035L142.786 190.924C143.072 192.07 144.301 193.005 145.515 193L248.843 192.673C249.131 192.672 249.416 192.616 249.681 192.507C249.946 192.398 250.186 192.239 250.387 192.038C250.588 191.838 250.746 191.6 250.851 191.34C250.956 191.08 251.007 190.801 250.999 190.522L250.906 186.547C250.885 185.972 250.64 185.425 250.221 185.018C249.801 184.611 249.239 184.374 248.646 184.353L142.747 182.001Z" fill="white"/>
</g>
<path d="M358.793 456C363.59 456.458 371.914 457.203 378.476 457.522C382.421 457.714 384.692 457.287 386 456.707C386 456.87 386 457.025 385.987 457.168C385.969 457.541 385.826 457.893 385.586 458.155C385.346 458.417 385.026 458.571 384.689 458.586C376.106 459.128 367.502 459.138 358.918 458.615C358.752 458.605 358.591 458.547 358.451 458.448C358.311 458.35 358.195 458.213 358.117 458.051C358.038 457.889 357.998 457.707 358 457.523C358.003 457.339 358.048 457.159 358.131 457C358.33 456.649 358.551 456.315 358.793 456Z" fill="black"/>
<g filter="url(#filter0_d_2358_2174)">
<path d="M378.539 456.958C372.025 456.672 363.762 456.005 359 455.595C363.681 449.862 378.539 446 378.539 446H382.726C385.612 450.152 386.031 454.105 385.998 456.229C384.707 456.748 382.452 457.13 378.539 456.958Z" fill="#263238"/>
</g>
<path d="M384 439.002L383.599 447.166C383.579 447.598 383.413 448.01 383.131 448.33C382.848 448.65 382.466 448.859 382.05 448.921C380.971 449.086 379.868 448.992 378.83 448.645C378.464 448.523 378.136 448.301 377.882 448.003C377.628 447.705 377.457 447.343 377.387 446.953L376 439L384 439.002Z" fill="#F2F2F2"/>
<path d="M439.425 457.58C441.557 457.283 442.522 456.18 442.928 455C442.928 455.012 442.928 455.022 442.928 455.031C443.242 456.276 442.515 457.567 441.062 458.18C439.303 458.922 437.382 459.048 435.89 458.986C434.289 458.92 432.82 458.261 432.013 457.205L432 457.189C433.613 457.981 435.869 458.073 439.425 457.58Z" fill="black"/>
<g filter="url(#filter1_d_2358_2174)">
<path d="M429.568 439.001H433.11C438.505 438.894 441.894 449.938 443 454.214C442.598 455.354 441.642 456.419 439.529 456.705C436.005 457.185 433.769 457.092 432.177 456.328C429.263 452.605 427.817 447.153 427.123 443.971C426.337 440.353 429.568 439.001 429.568 439.001Z" fill="#263238"/>
</g>
<path d="M432.093 432L433.941 439.651C434.05 440.108 434.007 440.59 433.818 441.018C433.63 441.445 433.307 441.794 432.903 442.005C431.87 442.557 430.413 443.134 429.075 442.973C428.767 442.93 428.477 442.8 428.237 442.596C427.996 442.392 427.815 442.122 427.714 441.817L425 433.765L432.093 432Z" fill="#F2F2F2"/>
<path d="M435 434.763C432.574 436.925 424.679 437.211 424.679 437.211C396.242 368.681 384.61 358.945 384.61 358.945C388.715 384.812 385.264 442.076 385.264 442.076C380.572 444.155 374.523 442.076 374.523 442.076C374.175 405.481 369.297 369.071 360 333.685C379.22 333.25 389.441 326.646 392.779 324C408.806 349.931 435 434.763 435 434.763Z" fill="#37474F"/>
<path d="M387.375 244.47C390.991 262.7 389.696 295.326 388.838 310.209C388.599 314.392 391.489 320.189 393.825 324.146C393.911 324.292 393.968 324.454 393.99 324.623C394.011 324.792 393.999 324.964 393.952 325.127C393.906 325.291 393.826 325.444 393.719 325.575C393.612 325.706 393.479 325.814 393.329 325.891C389.418 327.921 376.169 334.217 360.821 334.998C360.322 335.018 359.832 334.865 359.431 334.564C359.031 334.264 358.744 333.834 358.618 333.346C347.229 290.375 334 262.915 334 262.915C348.604 239.349 387.375 244.47 387.375 244.47Z" fill="#7979B7"/>
<path d="M410 297.274C408.844 305.808 405.428 315.116 398.597 325L396 322.84C396 322.84 398.998 310.428 397.294 296.34C401.508 295.502 406.484 296.367 410 297.274Z" fill="#FBFBFB"/>
<path d="M383 267.364L387.011 245C387.011 245 413.812 265.722 409.538 297C406.03 296.102 401.063 295.247 396.857 296.078C395.631 286.048 391.972 275.15 383 267.364Z" fill="#7979B7"/>
<path d="M333.327 263L348.703 282.502C350.364 296.259 344.824 303.837 337.869 308C336.288 303.148 333.97 298.585 331 294.483C338.081 281.798 333.327 263 333.327 263Z" fill="#7979B7"/>
<path d="M330.894 295C333.966 299.092 336.364 303.642 338 308.481C319.339 321.651 310 313.514 310 313.514V310.913C309.995 309.79 310.363 308.698 311.048 307.805C311.732 306.911 312.694 306.268 313.784 305.974C321.296 304.003 328.225 299.61 330.894 295Z" fill="#FBFBFB"/>
<path d="M343 234.963L348.126 253.361C348.262 253.848 348.502 254.301 348.83 254.692C349.158 255.082 349.567 255.4 350.03 255.625C350.493 255.85 350.999 255.977 351.516 255.997C352.033 256.017 352.548 255.931 353.028 255.743C355.227 254.884 358.015 253.713 360.417 252.449C361.022 252.128 361.551 251.688 361.971 251.156C362.392 250.623 362.694 250.012 362.858 249.359C363.022 248.707 363.044 248.028 362.924 247.366C362.804 246.705 362.543 246.075 362.159 245.517L351.499 230L343 234.963Z" fill="#FBFBFB"/>
<path d="M332 220.959C331.955 221.283 336.193 242 336.193 242L348 239.334L346.908 219.096C346.908 219.096 332.767 215.658 332 220.959Z" fill="#FBFBFB"/>
<path d="M344.847 223.592L346.289 234.233C346.308 234.368 346.308 234.505 346.289 234.641C346.166 235.475 345.534 238.315 342.609 237.502C339.955 236.765 337.524 236.131 335.842 236.635C335.479 236.744 335.17 236.982 334.975 237.303C334.781 237.623 334.715 238.003 334.791 238.368C335.186 240.257 336.153 244.497 337.566 248.054C337.706 248.402 337.974 248.685 338.317 248.849C338.659 249.012 339.052 249.045 339.418 248.939C341.705 248.288 346.488 246.775 350.045 244.676C350.282 244.538 350.476 244.34 350.607 244.102C350.738 243.865 350.801 243.597 350.789 243.327C350.675 240.641 350.353 232.475 350.624 230.186C350.877 228.039 353.567 226.751 354.735 226.285C354.922 226.209 355.092 226.097 355.235 225.956C355.377 225.815 355.489 225.647 355.564 225.462C356.104 224.132 356.851 221.056 352.895 219.795C352.7 219.733 352.519 219.633 352.363 219.501C352.207 219.369 352.081 219.207 351.99 219.026C351.899 218.845 351.847 218.648 351.836 218.446C351.825 218.245 351.855 218.043 351.925 217.854C352.512 216.256 352.755 213.815 349.7 212.471C346.59 211.105 344.267 212.731 343.013 214.051C342.767 214.307 342.437 214.469 342.081 214.511C341.725 214.552 341.365 214.469 341.065 214.277C340.706 214.054 340.236 213.983 339.687 214.323C339.506 214.428 339.306 214.496 339.098 214.521C338.889 214.546 338.678 214.528 338.477 214.468C338.276 214.408 338.091 214.308 337.932 214.174C337.773 214.04 337.644 213.874 337.554 213.689C336.809 212.19 335.292 210.585 332.247 211.097C326.846 212.003 326.234 217.872 327.658 221.31C329.083 224.748 334.882 223.44 337.793 221.705C340.005 220.388 342.874 221.77 344.123 222.506C344.319 222.622 344.486 222.78 344.612 222.968C344.737 223.156 344.818 223.37 344.847 223.592Z" fill="#4E4F87"/>
<path d="M350.962 234.769C350.962 234.769 348.759 228.316 351.021 226.735C353.283 225.154 356.634 225.976 355.896 230.65C354.978 236.468 350.962 234.769 350.962 234.769Z" fill="#FBFBFB"/>
<path d="M438.877 272.399L239 338.377L248.539 368L449.568 303.631C451.636 302.968 453.405 301.594 454.566 299.75C455.727 297.906 456.206 295.71 455.919 293.547C455.315 288.957 453.262 282.652 447.668 275.166C446.673 273.839 445.291 272.859 443.714 272.363C442.137 271.867 440.446 271.88 438.877 272.399Z" fill="#6667AB"/>
<path d="M185.68 369.388L209.554 355C211.86 358.058 213.877 362.762 214 369.884L186.495 371.995C185.035 372.107 184.422 370.147 185.68 369.388Z" fill="#6667AB"/>
<path d="M239.264 338C251.378 351.638 248.762 367.389 248.762 367.389L214.396 370C214.275 363.035 212.279 358.434 210 355.443L239.264 338Z" fill="url(#paint1_linear_2358_2174)"/>
<path d="M442.772 281.04C442.881 280.956 442.958 280.837 442.987 280.703C443.016 280.569 442.997 280.429 442.932 280.307C442.867 280.186 442.761 280.092 442.633 280.041C442.505 279.99 442.364 279.986 442.233 280.03L251.4 342.868C251.327 342.892 251.26 342.93 251.202 342.98C251.144 343.03 251.097 343.09 251.062 343.158C251.028 343.226 251.007 343.3 251.002 343.376C250.996 343.452 251.005 343.529 251.029 343.601C251.053 343.674 251.091 343.741 251.141 343.798C251.191 343.856 251.252 343.903 251.32 343.938C251.388 343.972 251.463 343.993 251.539 343.998C251.615 344.004 251.692 343.995 251.764 343.971L442.597 281.133C442.66 281.111 442.719 281.08 442.772 281.04Z" fill="#7D7EC8"/>
<path d="M446.772 292.04C446.881 291.956 446.958 291.837 446.987 291.703C447.016 291.569 446.997 291.429 446.932 291.307C446.867 291.186 446.761 291.092 446.633 291.041C446.505 290.99 446.364 290.986 446.233 291.03L255.399 353.87C255.326 353.894 255.259 353.932 255.201 353.981C255.144 354.031 255.096 354.092 255.062 354.16C255.028 354.228 255.007 354.302 255.002 354.378C254.996 354.454 255.005 354.53 255.03 354.603C255.054 354.675 255.092 354.742 255.142 354.799C255.192 354.857 255.252 354.904 255.321 354.938C255.389 354.973 255.463 354.993 255.54 354.998C255.616 355.004 255.692 354.995 255.765 354.971L446.599 292.131C446.662 292.111 446.72 292.08 446.772 292.04Z" fill="#7D7EC8"/>
<path d="M397.596 322.009L385.316 321L380 325.942C380 325.942 381.257 327.696 385.189 326.687C389.12 325.678 394.507 325.434 394.507 325.434C394.507 325.434 399.935 327.901 400 323.287L397.596 322.009Z" fill="#FBFBFB"/>
<path d="M318.67 318.771C317.559 319.644 313.749 317.824 311.418 316.565C310.867 316.27 310.436 315.79 310.199 315.209C309.963 314.628 309.936 313.982 310.123 313.383C310.684 311.606 311.619 309.314 312.769 309.025C314.68 308.546 323.251 315.177 318.67 318.771Z" fill="#FBFBFB"/>
<path d="M67.4615 217C67.4615 217 62.0701 219.613 61.0802 222.596C60.2844 224.996 54.3225 225.307 53.7338 230.028C53.4296 232.466 51.6128 234.417 49.1694 234.789C43.0858 235.717 33.6972 238.857 32.196 249.355C31.0451 257.368 35.1556 260.407 39.48 261.458C42.6501 262.231 44.7579 265.294 44.1167 268.48C43.5018 271.528 44.4192 275.054 49.7383 277.841C61.6574 284.087 73.5616 263.044 73.5616 263.044L76 226.303L67.4615 217Z" fill="#4E4F87"/>
<path d="M131.579 208C131.579 208 108.017 245.391 80 252.613C80 252.613 85.4595 268.213 89.6738 270C89.6738 270 124.142 241.144 133 213.314L131.579 208Z" fill="#FBFBFB"/>
<g filter="url(#filter2_d_2358_2174)">
<path d="M18.9846 448.351L18.2456 454.491C18.1787 455.058 17.9244 455.585 17.5241 455.987C17.1237 456.39 16.6007 456.644 16.0395 456.709C14.0919 456.935 10.9656 457.164 7.90706 456.837C7.59149 456.801 7.28777 456.695 7.01775 456.526C6.74773 456.357 6.51813 456.13 6.34545 455.861C6.17277 455.591 6.06131 455.287 6.01908 454.969C5.97686 454.651 6.00491 454.327 6.10124 454.021C6.84657 451.651 8.21118 448.093 10.1777 446H16.9188C17.2131 445.999 17.5042 446.062 17.7729 446.183C18.0415 446.305 18.2814 446.482 18.4768 446.705C18.6722 446.927 18.8185 447.189 18.906 447.473C18.9936 447.757 19.0204 448.056 18.9846 448.351Z" fill="#263238"/>
</g>
<path d="M73.6871 374L74.8836 380.919C74.8836 380.919 70.8765 420.814 70.1573 436.772C70.0468 439.273 70.7026 441.749 72.0398 443.88L79 455L61.2914 444.73L60.9401 442.613L63.86 438.689L60.0485 393.999C59.8252 391.373 60.3764 388.74 61.6361 386.415L65.2984 379.652L73.6871 374Z" fill="#F2F2F2"/>
<g filter="url(#filter3_d_2358_2174)">
<path d="M80.5127 458H74.8912C74.3723 458.001 73.8601 457.88 73.3942 457.648C72.9283 457.415 72.5211 457.077 72.2042 456.659C70.4518 454.342 66.8218 449.824 65.0859 449.707C62.7483 449.548 63.0467 457.998 63.0467 457.998H61.7361L60.0777 447.498C59.8736 446.209 60.074 444.887 60.6505 443.721C61.2269 442.554 62.1502 441.602 63.289 441C63.289 441 63.8231 445.023 66.7212 446.795C69.6193 448.567 78.5097 454.937 78.5097 454.937C79.2704 454.847 80.0397 454.868 80.7946 454.999C82.5634 455.328 82.3145 458 80.5127 458Z" fill="#263238"/>
</g>
<path d="M50 377.906C50 377.906 26.7702 422.137 23.077 432.236C19.3839 442.334 18.09 450.761 18.0408 451.557C17.9637 452.803 16.4189 454 12.1599 454C9.9624 454 8.88003 453.116 8.36017 452.26C8.14185 451.899 8.01858 451.488 8.00194 451.066C7.9853 450.644 8.07584 450.224 8.26505 449.847C9.60981 447.116 13.8737 438.394 15.4529 434.437C17.3389 429.712 21.3961 408.304 23.6199 400.857C25.8436 393.41 28.3593 385.34 38.0514 377.903C38.0399 377.906 44.6964 371.368 50 377.906Z" fill="#F2F2F2"/>
<path d="M64.2115 305.394C70.222 279.877 55 265.444 55 265.444C64.6079 256.206 82.1147 252 82.1147 252C82.1147 252 98.8187 264.235 96.8366 273.813C95.6753 279.425 85.0952 307.431 85.0952 307.431C85.0952 307.431 75.3064 312.07 64.2115 305.394Z" fill="#7979B7"/>
<path d="M50.979 317.62C53.3994 310.245 64.1545 305 64.1545 305C75.1259 311.669 84.8009 307.035 84.8009 307.035C84.8009 307.035 86.9708 315.43 85.4727 323.228C83.9746 331.026 74.5745 381.152 74.5745 381.152C59.7724 384.187 37 378.098 37 378.098C46.4424 361.156 48.5602 324.994 50.979 317.62Z" fill="#37474F"/>
<path d="M70.823 235.042L66.0742 256.508C65.6187 258.398 67.3322 258.09 69.231 257.729C72.3431 257.139 76.3518 255.923 77.6912 253.487C77.8206 253.237 77.9029 252.964 77.9342 252.683L79.9753 237.797C80.0537 237.223 79.9444 236.638 79.6639 236.131C79.3834 235.624 78.9469 235.223 78.4201 234.987L74.4833 233.23C74.1277 233.071 73.7418 232.993 73.3528 233.001C72.9638 233.008 72.5812 233.102 72.2321 233.274C71.883 233.447 71.5758 233.695 71.3323 234C71.0888 234.306 70.9149 234.661 70.823 235.042Z" fill="#EBEBEB"/>
<path d="M55.2931 266C55.2931 266 21.6922 290.219 50.9964 315.679C50.9964 315.679 52.1143 316.952 54.3113 317.615C55.4211 317.942 58.7036 320.452 60.3675 321.756C60.4934 321.856 60.6387 321.927 60.7939 321.966C60.9492 322.005 61.1108 322.01 61.2683 321.982C61.4257 321.953 61.5754 321.892 61.7075 321.801C61.8396 321.71 61.9511 321.592 62.0347 321.454C62.1735 321.231 62.2544 320.976 62.27 320.713C62.2856 320.45 62.2353 320.187 62.1238 319.949L57.9648 311.085C57.4055 310.56 56.6784 310.253 55.9144 310.22C55.1505 310.186 54.3998 310.429 53.7977 310.904C53.6124 311.051 53.3969 311.155 53.1669 311.207C52.9368 311.259 52.6981 311.259 52.4681 311.207C52.2381 311.154 52.0227 311.05 51.8376 310.903C51.6525 310.756 51.5024 310.569 51.3982 310.355C49.1299 305.707 44.8559 292.035 62.3603 276.584C62.6784 276.3 62.8927 275.917 62.9691 275.496C63.0454 275.075 62.9794 274.64 62.7816 274.261C61.5486 271.878 58.7376 267.151 55.2931 266Z" fill="#FBFBFB"/>
<path d="M80.8255 215.772C80.8255 215.772 86.0607 219.257 88.3101 228.13C90.5594 237.003 86.9049 240.187 83.1576 239.992C79.4104 239.796 73.9765 238.657 69.2693 232.292C64.562 225.926 73.9666 211.52 80.8255 215.772Z" fill="#FBFBFB"/>
<path d="M74.0963 228.083C74.0963 228.083 72.2166 215.505 82.7376 217.429L84.8655 219.628C84.8655 219.628 90.015 213.871 84.3173 209.519C78.6197 205.168 70.7099 206.282 66.3357 214.204C61.9615 222.126 60.3721 227.691 64.0391 232.614C67.7062 237.537 70.465 233.315 70.465 233.315C70.465 233.315 68.7831 229.055 70.1779 227.226C71.5727 225.397 73.3746 228.289 73.3746 228.289L74.0963 228.083Z" fill="#4E4F87"/>
<path d="M72 230.078C72 230.078 71.1484 223.445 68.0918 225.341C65.0352 227.237 69.1935 231.536 70.861 233L72 230.078Z" fill="#FBFBFB"/>
<path d="M131.617 215.423C131.687 216.187 128.89 216.717 128 213.458C128.245 212.044 128.68 205.856 129.752 204.886C135.436 199.763 145.573 194 145.573 194C146.707 195.758 145.221 196.911 145.221 196.911L140.16 200.379C140.689 202.158 141.458 203.726 141.546 205.752C141.598 207.297 141.062 208.803 140.05 209.958C139.044 211.127 137.687 212.636 136.465 213.782C134.148 215.955 131.617 215.423 131.617 215.423Z" fill="#FBFBFB"/>
<path d="M134.424 214L133.622 213.664C133.728 213.399 136.249 207.166 137.468 205.869C137.932 205.377 138.155 204.957 138.129 204.617C138.107 204.407 138.011 204.211 137.86 204.067L133.609 206.38L131.732 209.372L131 208.895L132.999 205.709L137.979 203L138.203 203.185C138.699 203.604 138.967 204.055 138.997 204.561C139.033 205.167 138.737 205.795 138.091 206.481C137.178 207.457 135.135 212.24 134.424 214Z" fill="#DEDCEB"/>
</g>
<defs>
<filter id="filter0_d_2358_2174" x="355" y="446" width="35" height="19" filterUnits="userSpaceOnUse" color-interpolation-filters="sRGB">
<feFlood flood-opacity="0" result="BackgroundImageFix"/>
<feColorMatrix in="SourceAlpha" type="matrix" values="0 0 0 0 0 0 0 0 0 0 0 0 0 0 0 0 0 0 127 0" result="hardAlpha"/>
<feOffset dy="4"/>
<feGaussianBlur stdDeviation="2"/>
<feComposite in2="hardAlpha" operator="out"/>
<feColorMatrix type="matrix" values="0 0 0 0 0 0 0 0 0 0 0 0 0 0 0 0 0 0 0.25 0"/>
<feBlend mode="normal" in2="BackgroundImageFix" result="effect1_dropShadow_2358_2174"/>
<feBlend mode="normal" in="SourceGraphic" in2="effect1_dropShadow_2358_2174" result="shape"/>
</filter>
<filter id="filter1_d_2358_2174" x="423" y="439" width="24" height="26" filterUnits="userSpaceOnUse" color-interpolation-filters="sRGB">
<feFlood flood-opacity="0" result="BackgroundImageFix"/>
<feColorMatrix in="SourceAlpha" type="matrix" values="0 0 0 0 0 0 0 0 0 0 0 0 0 0 0 0 0 0 127 0" result="hardAlpha"/>
<feOffset dy="4"/>
<feGaussianBlur stdDeviation="2"/>
<feComposite in2="hardAlpha" operator="out"/>
<feColorMatrix type="matrix" values="0 0 0 0 0 0 0 0 0 0 0 0 0 0 0 0 0 0 0.25 0"/>
<feBlend mode="normal" in2="BackgroundImageFix" result="effect1_dropShadow_2358_2174"/>
<feBlend mode="normal" in="SourceGraphic" in2="effect1_dropShadow_2358_2174" result="shape"/>
</filter>
<filter id="filter2_d_2358_2174" x="2" y="446" width="21" height="19" filterUnits="userSpaceOnUse" color-interpolation-filters="sRGB">
<feFlood flood-opacity="0" result="BackgroundImageFix"/>
<feColorMatrix in="SourceAlpha" type="matrix" values="0 0 0 0 0 0 0 0 0 0 0 0 0 0 0 0 0 0 127 0" result="hardAlpha"/>
<feOffset dy="4"/>
<feGaussianBlur stdDeviation="2"/>
<feComposite in2="hardAlpha" operator="out"/>
<feColorMatrix type="matrix" values="0 0 0 0 0 0 0 0 0 0 0 0 0 0 0 0 0 0 0.25 0"/>
<feBlend mode="normal" in2="BackgroundImageFix" result="effect1_dropShadow_2358_2174"/>
<feBlend mode="normal" in="SourceGraphic" in2="effect1_dropShadow_2358_2174" result="shape"/>
</filter>
<filter id="filter3_d_2358_2174" x="56" y="441" width="30" height="25" filterUnits="userSpaceOnUse" color-interpolation-filters="sRGB">
<feFlood flood-opacity="0" result="BackgroundImageFix"/>
<feColorMatrix in="SourceAlpha" type="matrix" values="0 0 0 0 0 0 0 0 0 0 0 0 0 0 0 0 0 0 127 0" result="hardAlpha"/>
<feOffset dy="4"/>
<feGaussianBlur stdDeviation="2"/>
<feComposite in2="hardAlpha" operator="out"/>
<feColorMatrix type="matrix" values="0 0 0 0 0 0 0 0 0 0 0 0 0 0 0 0 0 0 0.25 0"/>
<feBlend mode="normal" in2="BackgroundImageFix" result="effect1_dropShadow_2358_2174"/>
<feBlend mode="normal" in="SourceGraphic" in2="effect1_dropShadow_2358_2174" result="shape"/>
</filter>
<linearGradient id="paint0_linear_2358_2174" x1="38.4581" y1="-53.835" x2="68.6301" y2="219.498" gradientUnits="userSpaceOnUse">
<stop stop-color="#DAE3FE"/>
<stop offset="1" stop-color="#E9EFFD"/>
</linearGradient>
<linearGradient id="paint1_linear_2358_2174" x1="186.657" y1="347.23" x2="384.484" y2="375.357" gradientUnits="userSpaceOnUse">
<stop stop-color="#FEBBBA"/>
<stop offset="1" stop-color="#FF928E"/>
</linearGradient>
<clipPath id="clip0_2358_2174">
<rect width="456" height="465" fill="white"/>
</clipPath>
</defs>
</svg>
