<svg width="50" height="50" viewBox="0 0 50 50" fill="none" xmlns="http://www.w3.org/2000/svg">
<path d="M49.372 18.8947C49.0823 18.501 48.7052 18.1816 48.271 17.9622C47.8367 17.7428 47.3576 17.6295 46.8721 17.6316H43.7488V14.4737C43.7476 13.3574 43.3082 12.2871 42.5271 11.4978C41.746 10.7084 40.6869 10.2644 39.5823 10.2632H23.6957C23.3857 10.2638 23.0795 10.1942 22.7996 10.0596C22.5197 9.9249 22.2733 9.72855 22.0784 9.48496L20.0378 6.94538C19.5505 6.33648 18.9345 5.84566 18.2348 5.50901C17.5352 5.17236 16.7698 4.99843 15.9949 5.00001H4.16655C3.0619 5.00126 2.00284 5.44527 1.22173 6.23463C0.440614 7.02398 0.00124065 8.09422 0 9.21054L0 40.3382C0.001406 41.5742 0.48788 42.7591 1.3527 43.633C2.21752 44.507 3.39006 44.9986 4.6131 45H39.6784C40.676 44.9962 41.6458 44.6674 42.444 44.0625C43.2421 43.4577 43.8259 42.6089 44.1089 41.6421L49.8725 21.6737C50.0103 21.2032 50.0369 20.7067 49.9499 20.224C49.863 19.7412 49.665 19.2859 49.372 18.8947ZM4.6131 42.8947C3.94237 42.894 3.29932 42.6244 2.82504 42.1451C2.35076 41.6659 2.08399 41.016 2.08328 40.3382V9.21054C2.08383 8.65236 2.30349 8.1172 2.69406 7.72251C3.08463 7.32781 3.6142 7.10583 4.16655 7.10527H15.9949C16.4598 7.10429 16.919 7.20864 17.3388 7.41064C17.7585 7.61264 18.1282 7.90716 18.4204 8.27254L20.461 10.8121C20.851 11.2992 21.3439 11.6918 21.9037 11.9611C22.4634 12.2304 23.0758 12.3696 23.6957 12.3684H39.5823C40.1346 12.369 40.6642 12.591 41.0548 12.9857C41.4453 13.3804 41.665 13.9155 41.6655 14.4737V17.6316H17.2623C16.2649 17.6356 15.2953 17.9644 14.4974 18.5693C13.6995 19.1742 13.1158 20.0229 12.833 20.9895L7.04148 41.0537C6.88636 41.5836 6.56636 42.0489 6.12893 42.3805C5.6915 42.7122 5.15994 42.8925 4.6131 42.8947ZM47.8723 21.0842L42.1088 41.0526C41.9534 41.5829 41.6332 42.0485 41.1954 42.3803C40.7576 42.7121 40.2256 42.8925 39.6784 42.8947H8.46737C8.71991 42.5091 8.91344 42.0872 9.04142 41.6432L14.8329 21.579C14.9881 21.0488 15.3082 20.5832 15.7458 20.2514C16.1834 19.9196 16.7152 19.7392 17.2623 19.7368H46.8722C47.0339 19.7368 47.1935 19.7748 47.3382 19.8478C47.4829 19.9208 47.6088 20.0269 47.7058 20.1577C47.8029 20.2884 47.8685 20.4402 47.8975 20.6011C47.9265 20.7619 47.918 20.9273 47.8727 21.0842H47.8723Z" fill="#6667AB"/>
</svg>
