<svg width="50" height="50" viewBox="0 0 50 50" fill="none" xmlns="http://www.w3.org/2000/svg">
<path d="M47.4357 8H2.56416C1.15381 8 0 9.14227 0 10.5384V38.4615C0 39.8575 1.15381 41 2.56416 41H47.4358C48.846 41 50 39.8577 50 38.4615V10.5384C49.9999 9.14227 48.8461 8 47.4357 8ZM46.4735 9.90372L26.475 24.7539C26.1154 25.0248 25.5634 25.1943 24.9999 25.1917C24.4364 25.1943 23.8845 25.0248 23.5249 24.7539L3.52626 9.90372H46.4735ZM35.7909 25.7337L46.6884 39.0607C46.6993 39.074 46.7127 39.0842 46.7243 39.0963H3.27558C3.2871 39.0836 3.30058 39.074 3.31152 39.0607L14.209 25.7337C14.5428 25.3251 14.4796 24.7259 14.066 24.3946C13.6532 24.0641 13.048 24.1267 12.714 24.5355L1.92304 37.7323V11.0936L22.3716 26.2768C23.1403 26.8435 24.0754 27.0929 24.9998 27.0955C25.9228 27.0935 26.8587 26.8441 27.6279 26.2768L48.0765 11.0936V37.7321L37.2858 24.5355C36.9518 24.1268 36.346 24.064 35.9338 24.3946C35.5203 24.7252 35.4569 25.3251 35.7909 25.7337Z" fill="#6667AB"/>
</svg>
