<svg width="30" height="30" viewBox="0 0 30 30" fill="none" xmlns="http://www.w3.org/2000/svg">
<g clip-path="url(#clip0_2629_2925)">
<path d="M27.3705 23.4742C29.0282 21.0618 30 18.143 30 15.0011C30 6.72938 23.2717 0 15.0011 0C11.9791 0 9.16365 0.899004 6.80637 2.44236C6.75141 2.47148 6.70043 2.50523 6.65355 2.54303C2.64369 5.23857 0 9.81674 0 15.0011C0 23.2717 6.72938 30 15.0011 30C20.0556 30 24.5337 27.4867 27.2524 23.6445C27.2977 23.5927 27.337 23.5354 27.3705 23.4742ZM15.0011 28.0802C7.78811 28.0802 1.91988 22.213 1.91988 15.0011C1.91988 10.8073 3.90404 7.06863 6.98244 4.67309C7.44627 5.24672 8.01029 5.6066 8.61182 5.69508C8.71787 5.71066 8.82504 5.71799 8.9332 5.71799C9.67002 5.71799 10.4433 5.37738 11.2571 5.01908C11.5717 4.88021 11.9003 4.73514 12.2384 4.60617C12.7334 4.41691 12.982 3.86203 12.7927 3.36703C12.6039 2.87145 12.049 2.62395 11.5535 2.81273C11.1848 2.95365 10.826 3.11068 10.4828 3.26203C9.90041 3.51838 9.1735 3.83402 8.8916 3.79553C8.81355 3.78393 8.7082 3.71672 8.59348 3.60035C10.4044 2.57848 12.4814 1.9752 14.6927 1.92375C14.5068 2.63414 14.2696 3.48645 14.0365 3.73359C13.7385 4.04871 13.1728 4.32533 12.6741 4.56979C11.8519 4.97174 11.0023 5.38775 10.8057 6.239C10.7297 6.56766 10.7319 7.07936 11.1754 7.64818C11.9538 8.64709 13.3532 8.67469 14.7067 8.7017C15.4556 8.71623 16.3037 8.73287 16.6973 8.94768C16.8278 9.01893 16.948 9.19313 16.9973 9.38086C17.0379 9.53531 17.0114 9.62367 17.0062 9.6341C17.0057 9.63463 16.9771 9.65701 16.9297 9.66896C16.8543 9.66064 16.6521 9.56186 16.5184 9.49635C16.2537 9.36738 15.9531 9.22025 15.6037 9.16406C15.1341 9.08812 14.7171 9.15 14.3817 9.19945C14.1939 9.22699 14.0442 9.24885 13.883 9.25096C13.6214 9.25043 13.3266 9.19846 13.0146 9.14332C12.3188 9.0201 11.4535 8.86723 10.5664 9.26238C9.72398 9.63732 9.00328 10.4381 8.42449 11.0819C8.28773 11.2342 8.15719 11.3793 8.03397 11.5088L7.92059 11.6273C6.61799 12.9892 5.6768 13.9731 6.81193 16.4701C7.46297 17.9017 8.13117 18.9968 10.2746 18.9968C10.2819 18.9968 10.2887 18.9968 10.2954 18.9968C10.8732 18.9947 11.4041 18.8423 11.8726 18.7082C12.0333 18.6619 12.2501 18.5995 12.4103 18.5678C12.4222 18.6485 12.4321 18.7628 12.4337 18.9204C12.442 19.7415 12.9463 20.2032 13.248 20.4789C13.3234 20.5485 13.4378 20.6531 13.4549 20.6775C13.4549 20.6775 13.4586 20.7097 13.4399 20.7872C13.3733 21.0613 13.2854 21.1955 13.1747 21.365C12.8653 21.8392 12.6172 22.3463 12.962 23.3244L12.9609 23.3254L12.987 23.3946C12.9901 23.4029 12.9932 23.4112 12.9963 23.42C12.9984 23.4247 13 23.4299 13.0021 23.4346C13.0759 23.6384 13.1471 23.94 13.2231 24.2593C13.4893 25.3809 14.0177 27.6107 15.951 27.6102C16.133 27.6102 16.328 27.591 16.5376 27.5499C18.2094 27.2098 18.9832 25.3123 19.4949 24.0575C19.5344 23.9603 19.5807 23.848 19.6244 23.7435C20.2676 23.6551 20.7398 23.4195 21.0606 23.0316C21.6347 22.3348 21.473 21.4612 21.355 20.8226C21.3186 20.6266 21.2603 20.3156 21.2692 20.1643C22.266 19.7488 24.3065 18.8888 23.9977 17.0797C23.8614 16.2768 23.1558 15.5644 22.2629 14.6627C21.5692 13.9617 20.2786 12.6575 20.5365 12.1771C20.7877 11.7101 20.6125 11.1282 20.1455 10.8771C19.6795 10.6264 19.0966 10.8011 18.8454 11.2681C17.9152 12.9992 19.5693 14.6699 20.8984 16.0131C21.3482 16.4671 22.0284 17.1535 22.1048 17.4015C22.1173 17.4748 22.0393 17.7629 20.512 18.3989C19.0649 19.0027 19.3358 20.4675 19.4663 21.1716C19.5006 21.3577 19.5547 21.6495 19.5516 21.8023C19.4751 21.8268 19.315 21.8611 19.0196 21.8637C18.7586 21.8663 18.51 21.9739 18.3301 22.1637C18.0898 22.417 17.9411 22.781 17.7165 23.3327C17.4024 24.1012 16.8189 25.5323 16.1538 25.668C15.7347 25.7559 15.4945 25.5151 15.092 23.8173C15.0088 23.4647 14.9292 23.1299 14.8263 22.8329L14.8273 22.8324L14.8024 22.7664C14.7993 22.758 14.7966 22.7513 14.7935 22.7435C14.793 22.7413 14.7919 22.7388 14.7914 22.7367C14.7472 22.6197 14.7285 22.548 14.7207 22.509C14.7389 22.4783 14.7602 22.4491 14.782 22.4164C14.9329 22.1845 15.1617 21.8355 15.3057 21.2401C15.5995 20.028 14.8866 19.3759 14.5439 19.0624C14.4721 18.9963 14.3562 18.9006 14.3536 18.9006C14.3473 18.2985 14.2626 17.441 13.598 16.9454C12.8919 16.4181 12.0328 16.6641 11.3433 16.8622C10.9782 16.9668 10.6002 17.0749 10.2892 17.076C9.26537 17.0671 9.1026 16.8674 8.56025 15.6746C7.96225 14.3606 8.0642 14.2539 9.30803 12.954L9.4224 12.8344C9.55811 12.6924 9.70166 12.5328 9.85195 12.3659C10.309 11.8578 10.8774 11.225 11.3464 11.0164C11.6808 10.8677 12.0708 10.926 12.6803 11.0336C13.0422 11.0971 13.4514 11.1698 13.8794 11.1704C14.1596 11.1704 14.4306 11.1324 14.661 11.0986C14.9079 11.0617 15.1212 11.0295 15.2975 11.0591C15.3661 11.07 15.5518 11.161 15.6745 11.2213C16.0598 11.4096 16.5855 11.666 17.2001 11.5661C18.12 11.4148 18.7581 10.7986 18.9073 9.91822C19.0799 8.89904 18.5251 7.75711 17.6162 7.26205C16.8107 6.82371 15.7608 6.80291 14.7452 6.78264C14.2049 6.77174 13.3781 6.75562 12.9304 6.59438C13.115 6.49143 13.3417 6.38062 13.518 6.29432C14.1638 5.97814 14.896 5.6199 15.4321 5.05148C16.0301 4.41914 16.3114 3.33129 16.6099 2.17951C16.6235 2.1276 16.637 2.07568 16.6505 2.02371C22.2694 2.73398 26.7878 7.02381 27.8449 12.5295C27.7636 12.4911 27.6661 12.4416 27.5471 12.3783C27.064 12.1209 26.4032 11.7694 25.6413 12.0227C24.9112 12.266 24.6367 12.9374 24.4734 13.3393C24.0667 13.0544 23.2602 12.2546 22.669 11.5937C22.3154 11.1985 21.7085 11.1642 21.3138 11.5178C20.9191 11.8709 20.8843 12.4777 21.2379 12.8729C21.5041 13.1709 22.8738 14.6784 23.697 15.1126C24.0459 15.2967 24.3766 15.3887 24.6871 15.3887C24.8607 15.3887 25.0282 15.3595 25.1883 15.3018C25.8441 15.0631 26.0879 14.463 26.2507 14.0658C26.2694 14.019 26.2934 13.9613 26.3167 13.9072C26.4192 13.9535 26.5471 14.0211 26.6438 14.073C26.9822 14.2537 27.4861 14.5219 28.0717 14.5569C28.0767 14.7045 28.0801 14.8525 28.0801 15.0013C28.0801 17.1149 27.5755 19.1127 26.6814 20.8815C26.3258 20.5972 25.7801 20.3363 24.9564 20.2934C24.1035 20.2434 22.5477 20.6116 21.7043 23.5626C21.5587 24.0717 21.8541 24.6036 22.3637 24.7492C22.4515 24.7747 22.541 24.7867 22.6283 24.7867C23.0454 24.7867 23.4296 24.5116 23.5503 24.0904C23.8893 22.9069 24.3782 22.1789 24.8555 22.2106C25.3339 22.2361 25.4842 22.3739 25.519 22.4155C25.5684 22.4749 25.5856 22.5726 25.5888 22.6704C23.2097 25.9458 19.3502 28.0802 15.0011 28.0802Z" fill="#6667AB"/>
</g>
<defs>
<clipPath id="clip0_2629_2925">
<rect width="30" height="30" fill="white"/>
</clipPath>
</defs>
</svg>
