<svg width="50" height="31" viewBox="0 0 50 31" fill="none" xmlns="http://www.w3.org/2000/svg">
<path d="M41.6399 0C40.2767 0 39.1294 0.280304 38.5684 2.26983C37.8204 4.92253 34.56 10.7562 32.7119 13.6787C31.3963 15.7591 29.6526 14.3118 29.5479 13.4202C29.2838 11.1721 29.5479 2.58456 29.5479 2.58456C29.5479 0.893322 28.5235 0.0217779 27.3917 0.0217779H18.9362C17.5507 0.0217779 16.8537 1.74169 18.8406 2.99763C20.5636 4.08672 21.027 4.15282 21.027 5.68686V15.3996C21.027 16.2299 19.8025 17.1625 18.7829 16.0965C17.2571 14.5016 12.0065 3.21401 12.0065 3.21401C12.0065 3.21401 10.6208 0.0217779 6.92554 0.0217779H1.13851C0.498731 0.0217779 -0.364938 0.869812 0.164266 1.92419C0.164266 1.92419 6.46214 17.4666 12.2265 23.8511C17.9908 30.2356 22.7871 30.9999 22.7871 30.9999H27.8758C27.8758 30.9999 29.6579 31.0449 29.6579 29.179V23.8511C29.5802 22.5804 31.2551 21.6195 32.7119 23.2343L38.0809 29.1853C39.4066 30.6076 40.9471 30.9999 42.4276 30.9999H48.7916C49.7715 30.9999 50.7477 29.7179 49.1608 28.0964L41.4431 19.0852C41.4431 19.0852 40.2111 17.9612 41.2671 16.2527C42.3232 14.5442 47.6579 3.93339 47.9219 3.21401C48.6334 1.68737 48.1403 0.0217779 46.3702 0.0217779C46.3702 0.0217779 41.8661 -1.60892e-06 41.6399 0Z" fill="white"/>
</svg>
