<svg width="35" height="35" viewBox="0 0 35 35" fill="none" xmlns="http://www.w3.org/2000/svg">
<rect width="35" height="35" rx="17.5" fill="#5ACF68"/>
<path fill-rule="evenodd" clip-rule="evenodd" d="M25.0859 10.9068C24.1634 9.98268 23.0658 9.24988 21.8567 8.75091C20.6476 8.25194 19.3511 7.99672 18.0421 8.00003C12.5535 8.00003 8.08541 12.4458 8.08319 17.9106C8.08319 19.6571 8.54132 21.3617 9.41209 22.8653L8 28L13.279 26.6211C14.7392 27.4122 16.3751 27.8271 18.0377 27.8278H18.0421C23.5296 27.8278 27.9977 23.382 28 17.9172C28.0037 16.615 27.7481 15.325 27.248 14.1217C26.7478 12.9185 26.013 11.8258 25.0859 10.9068ZM18.0421 26.1552H18.0388C16.5563 26.1554 15.1011 25.7584 13.8258 25.006L13.5241 24.8271L10.3916 25.6452L11.2268 22.6059L11.0305 22.2946C10.2016 20.9813 9.76287 19.4615 9.76483 17.9106C9.76705 13.3688 13.4797 9.67369 18.0455 9.67369C19.1328 9.67128 20.2098 9.88354 21.2142 10.2982C22.2186 10.7128 23.1304 11.3216 23.8968 12.0892C24.6673 12.8532 25.278 13.7617 25.6937 14.762C26.1093 15.7623 26.3216 16.8347 26.3183 17.9172C26.3161 22.4591 22.6034 26.1552 18.0421 26.1552ZM22.5823 19.985C22.3327 19.8602 21.1103 19.2619 20.8818 19.1791C20.6544 19.0963 20.4892 19.0554 20.3228 19.3027C20.1564 19.55 19.6794 20.1075 19.5341 20.2731C19.3888 20.4387 19.2435 20.4586 18.995 20.335C18.7465 20.2113 17.9445 19.9497 16.9939 19.1062C16.254 18.4493 15.7548 17.639 15.6095 17.3906C15.4642 17.1422 15.594 17.0086 15.7193 16.885C15.8314 16.7746 15.9678 16.5957 16.0921 16.4511C16.2163 16.3065 16.2573 16.2038 16.3405 16.0382C16.4237 15.8726 16.3827 15.728 16.3195 15.6043C16.2573 15.4796 15.7593 14.2608 15.5518 13.7651C15.3511 13.2849 15.1459 13.3489 14.9928 13.3423C14.8342 13.3358 14.6756 13.3329 14.5169 13.3334C14.3907 13.3366 14.2666 13.3657 14.1522 13.4189C14.0379 13.4721 13.9358 13.5483 13.8525 13.6425C13.6239 13.8909 12.9817 14.4893 12.9817 15.7081C12.9817 16.9269 13.8735 18.1049 13.9978 18.2705C14.122 18.4361 15.7526 20.9366 18.2485 22.0097C18.843 22.2647 19.3067 22.4171 19.6672 22.5319C20.2629 22.7207 20.8053 22.6931 21.2346 22.6302C21.7127 22.5595 22.7066 22.0318 22.914 21.4533C23.1214 20.8748 23.1214 20.3791 23.0593 20.2753C22.9972 20.1716 22.8297 20.1086 22.5823 19.985Z" fill="white"/>
</svg>
