<svg width="56" height="55" viewBox="0 0 56 55" fill="none" xmlns="http://www.w3.org/2000/svg">
<path d="M27.949 16C21.6086 16 16.449 21.1596 16.449 27.5C16.449 33.8404 21.6086 39 27.949 39C34.2894 39 39.449 33.8404 39.449 27.5C39.449 21.1596 34.2945 16 27.949 16ZM37.6418 26.617H34.1251C33.9967 23.3723 33.1753 20.5435 31.9278 18.6234C35.0646 20.0301 37.3184 23.0489 37.6418 26.617ZM27.0659 17.992V26.617H23.5441C23.6467 24.2502 24.1447 22.0683 24.9867 20.3895C25.5874 19.1882 26.3164 18.3616 27.0659 17.992ZM27.0659 28.383V37.008C26.3164 36.6384 25.5874 35.8067 24.9867 34.6105C24.1499 32.9317 23.6467 30.7498 23.5441 28.383H27.0659ZM28.8371 37.008V28.383H32.359C32.2563 30.7498 31.7583 32.9317 30.9164 34.6105C30.3157 35.8118 29.5867 36.6384 28.8371 37.008ZM28.8371 26.617V17.992C29.5867 18.3616 30.3157 19.1933 30.9164 20.3895C31.7532 22.0683 32.2563 24.2502 32.359 26.617H28.8371ZM23.9702 18.6234C22.7226 20.5435 21.9012 23.3723 21.7729 26.617H18.2561C18.5847 23.0489 20.8385 20.0301 23.9702 18.6234ZM18.2612 28.383H21.778C21.9063 31.6277 22.7278 34.4565 23.9753 36.3766C20.8385 34.9699 18.5847 31.9511 18.2612 28.383ZM31.9329 36.3766C33.1804 34.4565 34.0019 31.6277 34.1302 28.383H37.647C37.3184 31.9511 35.0646 34.9699 31.9329 36.3766Z" fill="white"/>
<path d="M55.1434 9.45273C54.9448 9.27956 54.68 9.20317 54.4203 9.24391C52.918 9.49347 51.3851 9.6208 49.8676 9.6208C41.9487 9.6208 34.3863 6.30012 28.5757 0.269932C28.4127 0.0967682 28.1836 0 27.9442 0C27.7049 0 27.4757 0.0967682 27.3127 0.269932C21.5022 6.30012 13.9398 9.6208 6.02087 9.6208C4.5033 9.6208 2.97044 9.49347 1.46815 9.24391C1.20843 9.20317 0.943619 9.27956 0.74501 9.45273C0.546401 9.62589 0.439456 9.88054 0.449641 10.1454C0.780655 18.5795 2.41027 26.1784 5.28754 32.7331C7.59955 37.9994 10.7162 42.6035 14.556 46.4233C21.1151 52.9475 27.4299 54.888 27.6998 54.9643C27.7812 54.9898 27.8678 55 27.9493 55C28.0308 55 28.1174 54.9898 28.1988 54.9643C28.4636 54.8829 34.7835 52.9424 41.3427 46.4233C45.1824 42.6035 48.2991 37.9994 50.6111 32.7331C53.4883 26.1784 55.118 18.5744 55.449 10.1454C55.449 9.88054 55.342 9.62589 55.1434 9.45273ZM40.1663 45.1093C34.6307 50.6454 29.1613 52.7743 27.9391 53.2021C26.722 52.7794 21.3137 50.6811 15.7832 45.1806C10.1 39.5222 3.19452 29.0508 2.24731 11.1334C3.50007 11.2964 4.76302 11.3728 6.01578 11.3728C10.2273 11.3728 14.3573 10.4866 18.2888 8.7346C21.8535 7.14557 25.0975 4.92499 27.9442 2.12381C30.7909 4.92499 34.0298 7.15066 37.5996 8.7346C41.5311 10.4866 45.6611 11.3728 49.8727 11.3728C51.1254 11.3728 52.3935 11.2913 53.6411 11.1334C52.6888 28.9999 45.8241 39.456 40.1663 45.1093Z" fill="white"/>
<path d="M28.5112 6.2003C28.1892 5.93323 27.7241 5.93323 27.397 6.2003C21.2638 11.2233 13.9754 13.9248 6.31909 14.0121C6.06865 14.0173 5.83355 14.1251 5.66999 14.31C5.50644 14.5001 5.42466 14.7466 5.45533 14.9982C6.09932 20.6324 7.41285 25.8044 9.36527 30.3703C11.3892 35.1056 14.1134 39.2504 17.4611 42.6966C21.504 46.8568 25.5468 49.0088 27.5912 49.923C27.7037 49.9743 27.8263 50 27.949 50C28.0716 50 28.1943 49.9743 28.3068 49.923C30.0496 49.1474 33.5149 47.3344 37.1437 43.9601C37.5015 43.6262 37.5219 43.0664 37.1897 42.7069C36.8575 42.3474 36.3004 42.3268 35.9426 42.6607C32.7329 45.6447 29.6765 47.3293 27.9439 48.1408C25.925 47.1958 22.332 45.1722 18.7133 41.4589C15.5189 38.1718 12.9123 34.2068 10.9752 29.6718C9.20171 25.5219 7.96996 20.8481 7.31063 15.7584C14.783 15.4656 21.8822 12.8052 27.9439 8.01844C34.0055 12.8052 41.1048 15.4656 48.5771 15.7584C47.9178 20.8481 46.686 25.527 44.9125 29.6718C43.2207 33.6316 41.0077 37.1703 38.3448 40.1903C38.0228 40.5549 38.0535 41.1147 38.4215 41.4383C38.7844 41.7619 39.3415 41.7311 39.6635 41.3613C42.4541 38.1975 44.7643 34.4996 46.5327 30.3651C48.4851 25.7992 49.7986 20.6273 50.4426 14.9931C50.4733 14.7466 50.3915 14.4949 50.228 14.3049C50.0644 14.1149 49.8242 14.007 49.5789 14.007C41.9328 13.93 34.6444 11.2284 28.5112 6.2003Z" fill="white"/>
</svg>
