<svg width="61" height="61" viewBox="0 0 61 61" fill="none" xmlns="http://www.w3.org/2000/svg">
<path d="M46.1605 15.7685C42.0463 11.3889 36.4722 9 30.5 9C24.5278 9 18.9537 11.3889 14.8395 15.7685C11.1235 19.75 9 25.0586 9 30.5C9 36.0741 11.1235 41.25 14.8395 45.2315C18.9537 49.6111 24.5278 52 30.5 52C36.4722 52 42.0463 49.6111 46.1605 45.2315C50.0093 41.25 52 35.9414 52 30.5C52 24.9259 50.0093 19.75 46.1605 15.7685ZM17.0957 15.5031C18.9537 13.7778 21.0772 12.5833 23.4661 11.6543C23.7315 11.5216 23.9969 11.6543 24.2623 11.9198C24.3951 12.1852 24.3951 12.4506 24.2623 12.716C23.2006 14.0432 22.2716 15.9012 21.4753 17.892C21.4753 18.0247 21.3426 18.1574 21.0772 18.2901C20.9444 18.2901 20.679 18.2901 20.5463 18.2901C19.3519 17.7593 18.2901 17.2284 17.2284 16.6975C17.0957 16.5648 16.963 16.4321 16.963 16.1667C16.963 15.9012 16.963 15.6358 17.0957 15.5031ZM15.1049 17.6265C15.3704 17.3611 15.6358 17.3611 16.034 17.4938C17.3611 18.2901 18.821 19.0864 20.2809 19.6173C20.5463 19.75 20.8117 20.0154 20.679 20.4136C20.0154 23.0679 19.4846 25.9877 19.4846 29.0401C19.4846 29.4383 19.2191 29.7037 18.821 29.7037H11.2562C11.1235 29.7037 10.858 29.571 10.7253 29.4383C10.5926 29.3056 10.5926 29.1728 10.5926 28.9074C10.858 24.9259 12.4506 20.9444 15.1049 17.6265ZM15.1049 43.3735C12.4506 40.1883 10.7253 36.0741 10.4599 31.9599C10.4599 31.8272 10.4599 31.5617 10.5926 31.429C10.7253 31.2963 10.858 31.1636 11.1235 31.1636H18.6883C19.0864 31.1636 19.3519 31.429 19.3519 31.8272C19.4846 35.0123 19.8827 37.9321 20.5463 40.5864C20.679 40.8519 20.4136 41.25 20.1481 41.3827C18.6883 42.0463 17.2284 42.7099 15.9012 43.5062C15.6358 43.6389 15.3704 43.6389 15.1049 43.3735ZM24.2623 49.0802C24.1296 49.3457 23.7315 49.4784 23.4661 49.3457C21.2099 48.5494 18.9537 47.2222 17.0957 45.4969C16.963 45.3642 16.8302 45.0988 16.8302 44.9661C16.8302 44.7006 16.963 44.5679 17.0957 44.4352C18.1574 43.7716 19.2191 43.2407 20.4136 42.8426C20.5463 42.8426 20.8117 42.8426 20.9444 42.8426C21.0772 42.9753 21.2099 43.108 21.3426 43.2407C22.1389 45.2315 23.0679 46.9568 24.1296 48.4167C24.3951 48.5494 24.3951 48.8148 24.2623 49.0802ZM29.8364 49.6111C29.8364 49.8765 29.7037 50.0093 29.571 50.142C29.4383 50.2747 29.1728 50.2747 28.9074 50.2747C26.9167 49.4784 25.1914 47.6204 23.8642 44.8333C23.466 44.1698 23.2006 43.3735 22.9352 42.7099C22.8025 42.5772 22.8025 42.3117 22.9352 42.179C23.0679 42.0463 23.2006 41.9136 23.3333 41.7809C25.1914 41.25 27.0494 40.9846 29.0401 40.8519C29.1728 40.8519 29.4383 40.8519 29.571 40.9846C29.7037 41.1173 29.8364 41.25 29.8364 41.5154V49.6111ZM29.8364 38.8611C29.8364 39.2593 29.571 39.5247 29.1728 39.5247C27.0494 39.6574 24.9259 39.9228 22.9352 40.4537C22.8025 40.4537 22.537 40.4537 22.4043 40.4537C22.2716 40.321 22.1389 40.1883 22.1389 40.0556C21.4753 37.534 21.0772 34.7469 20.9444 31.9599C20.9444 31.8272 20.9444 31.5617 21.0772 31.429C21.2099 31.2963 21.3426 31.1636 21.608 31.1636H29.1728C29.3056 31.1636 29.571 31.2963 29.571 31.429C29.7037 31.5617 29.8364 31.6944 29.8364 31.8272V38.8611ZM29.8364 29.1728C29.8364 29.3056 29.7037 29.571 29.571 29.7037C29.4383 29.8364 29.3056 29.8364 29.1728 29.8364H21.608C21.4753 29.8364 21.2099 29.7037 21.0772 29.571C20.9444 29.4383 20.9444 29.3056 20.9444 29.0401C21.0772 26.1204 21.4753 23.466 22.1389 20.9444C22.1389 20.8117 22.2716 20.679 22.4043 20.5463C22.537 20.4136 22.8025 20.4136 22.9352 20.4136C24.9259 20.9444 27.0494 21.3426 29.1728 21.3426C29.571 21.3426 29.8364 21.608 29.8364 22.0062V29.1728ZM29.8364 19.3519C29.8364 19.4846 29.7037 19.75 29.571 19.8827C29.4383 20.0154 29.3056 20.0154 29.0401 20.0154C27.0494 19.8827 25.1914 19.6173 23.3333 19.0864C23.2006 19.0864 22.9352 18.9537 22.9352 18.6883C22.8025 18.5556 22.8025 18.2901 22.9352 18.1574C23.2006 17.3611 23.466 16.6975 23.8642 16.034C25.1914 13.2469 26.9167 11.3889 28.9074 10.5926C29.1728 10.4599 29.3056 10.5926 29.571 10.7253C29.7037 10.858 29.8364 10.9907 29.8364 11.2562V19.3519ZM45.8951 17.6265C48.6821 20.8117 50.2747 24.9259 50.5401 29.0401C50.5401 29.1728 50.5401 29.4383 50.4074 29.571C50.2747 29.7037 50.142 29.8364 49.8765 29.8364H42.3117C41.9136 29.8364 41.6482 29.571 41.6482 29.1728C41.5154 25.9877 41.1173 23.0679 40.4537 20.4136C40.321 20.1481 40.5864 19.75 40.8519 19.6173C42.4444 18.9537 43.7716 18.2901 45.0988 17.4938C45.3642 17.3611 45.6296 17.3611 45.8951 17.6265ZM36.7377 11.9198C36.8704 11.6543 37.2685 11.5216 37.534 11.6543C39.7901 12.4506 41.9136 13.7778 43.7716 15.5031C43.9043 15.6358 44.037 15.9012 44.037 16.034C44.037 16.2994 43.9043 16.4321 43.7716 16.5648C42.7099 17.2284 41.6481 17.7593 40.4537 18.2901C40.321 18.2901 40.0556 18.2901 39.9228 18.2901C39.7901 18.2901 39.6574 18.0247 39.5247 17.892C38.7284 15.9012 37.7994 14.1759 36.8704 12.716C36.6049 12.4506 36.6049 12.1852 36.7377 11.9198ZM31.1636 11.3889C31.1636 11.1235 31.2963 10.9907 31.429 10.858C31.5617 10.7253 31.8272 10.7253 32.0926 10.7253C34.0833 11.5216 35.8086 13.3796 37.1358 16.1667C37.534 16.8302 37.7994 17.4938 38.0648 18.2901C38.0648 18.4228 38.0648 18.6883 38.0648 18.821C37.9321 18.9537 37.7994 19.0864 37.6667 19.2191C35.8086 19.75 33.9506 20.0154 31.9599 20.1481C31.8272 20.1481 31.5617 20.1481 31.429 20.0154C31.2963 19.8827 31.1636 19.75 31.1636 19.4846V11.3889ZM31.1636 22.1389C31.1636 21.7407 31.429 21.4753 31.8272 21.4753C33.9506 21.3426 36.2068 21.0772 38.1975 20.4136C38.3302 20.4136 38.5957 20.4136 38.7284 20.5463C38.8611 20.679 38.9938 20.8117 38.9938 20.9444C39.6574 23.466 40.0556 26.2531 40.1883 29.0401C40.1883 29.1728 40.0556 29.4383 40.0556 29.571C39.9228 29.7037 39.7901 29.8364 39.5247 29.8364H31.8272C31.429 29.8364 31.1636 29.571 31.1636 29.1728V22.1389ZM31.1636 31.8272C31.1636 31.429 31.429 31.1636 31.8272 31.1636H39.392C39.5247 31.1636 39.7901 31.2963 39.9228 31.429C40.0556 31.5617 40.0556 31.6944 40.0556 31.9599C39.9228 34.8796 39.5247 37.6667 38.8611 40.0556C38.8611 40.1883 38.7284 40.321 38.5957 40.4537C38.463 40.5864 38.1975 40.5864 38.0648 40.4537C36.0741 39.9228 33.9506 39.5247 31.6944 39.392C31.2963 39.392 31.0309 39.1265 31.0309 38.7284V31.8272H31.1636ZM32.0926 50.2747C31.8272 50.2747 31.6944 50.2747 31.429 50.142C31.2963 50.0093 31.1636 49.8765 31.1636 49.6111V41.5154C31.1636 41.3827 31.2963 41.1173 31.429 40.9846C31.5617 40.8519 31.6944 40.8519 31.9599 40.8519C33.9506 40.9846 35.9414 41.25 37.6667 41.7809C37.7994 41.7809 38.0648 41.9136 38.0648 42.179C38.1975 42.3117 38.1975 42.5772 38.0648 42.7099C37.7994 43.5062 37.534 44.1698 37.1358 44.8333C35.8086 47.6204 34.0833 49.6111 32.0926 50.2747ZM43.9043 45.4969C42.0463 47.2222 39.9228 48.4167 37.6667 49.3457C37.4012 49.4784 37.1358 49.3457 36.8704 49.0802C36.7377 48.8148 36.7377 48.5494 36.8704 48.284C37.9321 46.9568 38.8611 45.2315 39.5247 43.108C39.5247 42.9753 39.6574 42.8426 39.9228 42.7099C40.0556 42.5772 40.321 42.5772 40.4537 42.7099C41.6481 43.108 42.7099 43.7716 43.7716 44.4352C43.9043 44.5679 44.037 44.7006 44.037 44.9661C44.037 45.0988 44.037 45.3642 43.9043 45.4969ZM45.8951 43.3735C45.6296 43.6389 45.3642 43.6389 45.0988 43.5062C43.7716 42.7099 42.3117 41.9136 40.8519 41.3827C40.5864 41.25 40.321 40.9846 40.4537 40.5864C41.1173 37.9321 41.6482 35.0123 41.6482 31.8272C41.6482 31.429 41.9136 31.1636 42.3117 31.1636H49.8765C50.0093 31.1636 50.2747 31.2963 50.4074 31.429C50.5401 31.5617 50.5401 31.6944 50.5401 31.9599C50.2747 36.2068 48.6821 40.1883 45.8951 43.3735Z" fill="white"/>
<path d="M55 13.2308C55 13.5385 54.8333 13.6923 54.6667 13.8462C54.5 14 54.3333 14 54.1667 14C53.8333 14 53.6667 13.8462 53.5 13.6923C53.3333 13.5385 53.1667 13.3846 53.1667 13.2308C53 13.0769 53 12.9231 53 12.7692C53 12.4615 53.1667 12.3077 53.3333 12.1538C53.5 12 53.6667 12 53.8333 12C54.1667 12 54.3333 12.1538 54.5 12.3077C54.6667 12.4615 54.8333 12.6154 55 12.7692C55 12.9231 55 13.0769 55 13.2308Z" fill="white"/>
<path d="M61 30.4129C61 32.8516 60.7419 35.1548 60.2258 37.4581C60.2258 37.729 59.8387 38 59.5806 38H59.4516C59.1935 37.8645 58.9355 37.5935 58.9355 37.3226V37.1871C59.4516 35.0194 59.7097 32.7161 59.7097 30.5484C59.7097 26.2129 58.8065 21.8774 57 17.9484V17.6774C57 17.4065 57.129 17.1355 57.3871 17H57.6452C57.9032 17 58.1613 17.1355 58.2903 17.4065C60.0968 21.3355 61 25.8065 61 30.4129Z" fill="white"/>
<path d="M11 52.4118C11 52.5294 11 52.7647 10.8889 52.7647C10.7778 52.8824 10.5556 53 10.4444 53C10.3333 53 10.1111 53 10 52.8824C9.77778 52.6471 9.55556 52.4118 9.22222 52.1765C9.11111 52.0588 9 51.8235 9 51.7059C9 51.5882 9 51.3529 9.22222 51.2353C9.33333 51.1176 9.55556 51 9.66667 51C9.77778 51 10 51 10.1111 51.2353C10.3333 51.4706 10.5556 51.7059 10.7778 51.9412C10.8889 52.0588 11 52.1765 11 52.4118Z" fill="white"/>
<path d="M5 45.2069C5 45.4713 4.87805 45.7356 4.63415 45.8678C4.5122 46 4.39024 46 4.26829 46C4.02439 46 3.78049 45.8678 3.65854 45.6034C1.34146 40.977 0 35.6897 0 30.4023C0 28.023 0.243902 25.7759 0.731707 23.5287C0.731707 23.1322 1.09756 23 1.34146 23H1.46341C1.82927 23.1322 1.95122 23.3966 1.95122 23.6609V23.7931C1.46342 25.908 1.21951 28.1552 1.21951 30.2701C1.21951 35.2931 2.43902 40.3161 4.7561 44.6782C4.87805 44.9425 5 45.0747 5 45.2069Z" fill="white"/>
<path d="M53 51.7692V51.8974L52.0649 56.7692C52.0649 57.1538 51.6641 57.282 51.3969 57.282H51.2634C50.8626 57.282 50.729 56.8974 50.729 56.641V56.5128L50.9962 55.2308L51.3969 53.5641L49.7939 54.5897C44.3168 58.6923 37.6374 61 30.6908 61C26.416 61 22.2748 60.2308 18.4008 58.5641C18.1336 58.4359 18 58.1795 18 57.9231L18.1336 57.6667C18.2672 57.4103 18.5344 57.282 18.8015 57.282H19.0687C22.8092 58.8205 26.6832 59.5897 30.8244 59.5897C37.5038 59.5897 43.916 57.4103 48.9924 53.4359L50.4618 52.2821H47.2557C46.855 52.2821 46.5878 51.8974 46.5878 51.641C46.5878 51.2564 46.9886 51 47.2557 51L52.4656 51.1282C52.7328 51.1282 52.8664 51.2564 53 51.3846C53 51.3846 53 51.5128 53 51.7692Z" fill="white"/>
<path d="M50 7.17949C50 7.30769 50 7.5641 49.8662 7.5641C49.7325 7.69231 49.465 7.82051 49.3312 7.82051C49.1975 7.82051 49.0637 7.82051 48.9299 7.69231C43.5796 3.58974 36.8917 1.41026 30.2038 1.41026C23.5159 1.41026 17.0955 3.58974 11.879 7.5641L10.4076 8.71795H13.8853C14.2866 8.71795 14.5541 9.10256 14.5541 9.35897C14.5541 9.74359 14.2866 10 13.8853 10L8.66879 9.87179C8.40127 9.87179 8.26752 9.74359 8.13376 9.61538C8 9.48718 8 9.35897 8 9.23077V9.10256L9.07006 4.23077C9.07006 3.84615 9.47134 3.71795 9.73885 3.71795H9.87261C10.2739 3.71795 10.4076 4.10256 10.4076 4.35897V4.48718L10.1401 5.64102L9.73885 7.30769L11.2102 6.28205C16.5605 2.17949 23.2484 0 30.2038 0C37.293 0 44.2484 2.30769 49.7325 6.66667C49.8662 6.79487 50 7.05128 50 7.17949Z" fill="white"/>
</svg>
