<svg width="57" height="61" viewBox="0 0 57 61" fill="none" xmlns="http://www.w3.org/2000/svg">
<path d="M37.4711 44.5447C37.3375 44.2723 37.0703 44 36.6694 44H7.27444C7.00721 44 6.60637 44.1362 6.60637 44.5447C6.47276 44.817 6.60637 45.2255 6.73998 45.3617L16.2266 54.6213L16.6274 55.0298L21.4375 59.7957C21.7047 60.0681 22.2392 60.0681 22.5064 59.7957L37.2039 45.3617C37.6047 45.0894 37.6047 44.817 37.4711 44.5447ZM27.7173 45.634V47.8128H26.3812C25.8467 47.1319 25.045 46.1787 23.7089 45.634H27.7173ZM22.1055 58.0255L19.1661 55.166C20.235 55.166 21.7047 55.166 23.0408 55.166C23.8425 55.166 24.5106 55.166 25.1787 55.0298L22.1055 58.0255ZM27.1829 53.1234V53.2596C27.0493 53.2596 27.0493 53.1234 27.1829 53.1234C27.0493 53.1234 27.0493 53.1234 27.1829 53.1234C26.9156 53.1234 26.6484 53.2596 26.2476 53.2596C25.4459 53.3957 24.2434 53.5319 22.9072 53.5319C20.6358 53.5319 18.498 53.5319 17.4291 53.5319L9.41226 45.634H18.0971C17.2955 45.9064 16.761 46.1787 16.2266 46.5872C15.1576 47.4043 14.8904 48.4936 14.8904 49.1745C14.8904 49.8553 15.024 50.5362 15.2913 51.0809C15.6921 51.6255 16.2266 51.8979 16.8946 52.034C17.4291 52.1702 18.2308 52.1702 19.0324 52.1702C19.9677 52.1702 20.903 52.1702 22.2392 52.1702C23.5753 52.1702 24.5106 52.1702 25.3123 52.3064C26.114 52.3064 26.5148 52.4426 26.782 52.5787C27.0493 52.7149 27.1829 52.8511 27.1829 52.8511C27.0493 52.7149 27.0493 52.8511 27.1829 53.1234C27.0493 52.9872 27.0493 52.9872 27.1829 53.1234C27.1829 52.9872 27.1829 52.9872 27.1829 53.1234C27.1829 52.9872 27.1829 52.9872 27.1829 53.1234ZM28.3854 51.8979C28.1182 51.4894 27.7173 51.0809 27.1829 50.9447C26.6484 50.8085 25.9803 50.6723 25.1787 50.5362C24.377 50.4 23.3081 50.4 21.9719 50.4C20.6358 50.4 19.5669 50.4 18.7652 50.4C17.9635 50.4 17.2955 50.4 16.8946 50.2638C16.4938 50.1277 16.3602 50.1277 16.3602 49.9915C16.2266 49.8553 16.2266 49.583 16.2266 49.0383C16.2266 48.766 16.3602 48.2213 16.8946 47.8128C17.5627 47.2681 18.7652 46.8596 21.3039 46.8596C23.4417 46.8596 24.7778 48.3574 25.045 49.0383C25.1787 49.3106 25.4459 49.4468 25.7131 49.4468H28.2518C28.6526 49.4468 29.0535 49.0383 29.0535 48.6298V45.634H34.5316L28.3854 51.8979Z" fill="white"/>
<path d="M27.651 53V53.1333C27.5177 53.1333 27.5177 53 27.651 53Z" fill="white"/>
<path d="M56.0849 49.8609C55.419 48.2696 54.2205 46.9435 52.4892 46.0152C47.2954 43.4957 43.167 40.5783 40.6366 38.0587C40.1039 37.3957 39.5712 36.8652 38.7722 36.3348C38.1063 35.8044 37.3073 35.4065 36.6414 35.0087C35.0433 34.0804 33.4452 34.0804 31.7139 35.1413C31.4476 35.4065 31.0481 35.5391 30.6485 35.8043C30.6485 33.9478 30.6485 32.0913 30.6485 30.2348C30.6485 30.1022 30.7817 29.837 30.9149 29.7043C32.3798 28.113 33.312 26.2565 33.7116 24.1348C33.8447 23.4717 33.9779 23.3391 34.6438 23.2065C36.375 23.0739 37.7068 21.4826 37.3073 19.7587C37.0409 18.4326 36.2419 17.7696 34.9101 17.3717C34.9101 17.1065 34.9101 16.9739 34.9101 16.7087C35.1765 14.0565 35.4428 11.4043 35.7092 8.75217C36.1087 5.03913 33.9779 1.5913 30.5154 0.397826C29.9827 0.265218 29.45 0.132609 29.0504 0H14.9339C14.8007 0 14.8007 0.132609 14.6676 0.132609C10.6723 0.795652 7.87564 4.24348 8.27516 8.22174C8.40834 9.81304 8.54151 11.4043 8.67469 12.863C8.80786 14.3217 8.94104 15.6478 9.07421 17.1065C8.80786 17.2391 8.67469 17.2391 8.54151 17.2391C7.07659 17.7696 6.27754 19.2283 6.67707 20.687C7.07659 22.013 8.14199 22.8087 9.60691 22.8087C10.0064 22.8087 10.1396 22.9413 10.1396 23.3391C10.5391 25.5935 11.6045 27.45 13.0695 29.1739C13.2026 29.4391 13.3358 29.7043 13.3358 29.9696C13.3358 31.5609 13.3358 33.1522 13.3358 34.7435C13.3358 34.8761 13.3358 35.0087 13.3358 35.2739C12.8031 35.0087 12.4036 34.7435 12.0041 34.4783C10.5391 33.6826 9.07421 33.6826 7.74246 34.4783C6.94341 35.0087 6.01119 35.4065 5.21214 36.0696C3.48087 37.263 2.54865 38.8543 2.14912 40.8435C2.14912 41.1087 2.01595 41.3739 1.88277 41.5065C0.95055 43.363 0.551025 44.9543 0.551025 46.6783C0.551025 49.0652 0.551025 57.4196 0.551025 59.8065C0.551025 60.337 0.6842 60.7348 1.08372 61H1.61642C2.01595 60.7348 2.14912 60.337 2.14912 59.8065C2.14912 57.4196 2.14912 49.1978 2.14912 46.6783C2.14912 43.7609 3.8804 41.5065 6.67707 40.5783C7.87564 40.1804 9.07421 39.9152 10.406 39.5174C10.9387 39.3848 11.205 38.987 11.0718 38.4565C10.9387 38.0587 10.5391 37.7935 10.0064 37.9261C8.54151 38.3239 7.07659 38.8543 5.61167 39.2522C5.34532 39.3848 4.94579 39.5174 4.54627 39.65C5.07897 38.7217 5.61167 38.0587 6.41072 37.5283C7.07659 37.1304 7.60929 36.7326 8.27516 36.3348C9.47374 35.5391 10.5391 35.5391 11.7377 36.3348C14.4012 38.0587 16.9315 39.65 19.595 41.3739C21.3263 42.4348 22.9244 42.4348 24.6557 41.3739C26.2538 40.313 27.985 39.2522 29.5831 38.1913C29.9827 37.9261 30.1158 37.9261 30.5154 38.1913C30.9149 38.4565 31.3144 38.5891 31.8471 38.7217C33.7115 39.2522 35.576 39.7826 37.4404 40.4457C40.3703 41.3739 41.9684 43.6283 41.9684 46.5457C41.9684 48.9326 41.9684 57.1544 41.9684 59.5413C41.9684 60.0717 42.1016 60.4696 42.5011 60.6022H43.0338C43.4333 60.337 43.5665 60.0717 43.5665 59.5413C43.5665 57.0217 43.5665 48.6674 43.5665 46.1478C43.5665 44.4239 43.0338 42.9652 42.1016 41.5065C41.9684 41.3739 41.8352 41.1087 41.8352 40.8435C44.4987 42.9652 47.8281 45.087 51.8233 47.0761C53.2882 47.7391 54.2205 48.8 54.62 49.9935C55.0195 51.187 55.1527 52.6457 54.62 54.3696C54.4868 54.7674 54.7532 55.2978 55.1527 55.4304C55.5522 55.563 56.0849 55.2978 56.2181 54.9C56.6176 53.4413 56.7508 51.5848 56.0849 49.8609ZM31.3144 3.05C31.5807 2.78478 31.7139 2.91739 31.9803 3.05C33.7115 4.37609 34.3774 6.23261 34.2442 8.35435C33.9779 11.0065 33.7115 13.5261 33.4452 16.0457C33.4452 16.3109 33.4452 16.5761 33.312 16.8413C33.312 16.9739 33.1788 17.1065 33.1788 17.1065C32.513 17.1065 32.1135 16.8413 32.1135 16.0457C32.1135 14.9848 32.1135 13.9239 32.1135 12.863C32.1135 12.3326 32.1135 11.8022 32.1135 11.2717C32.1135 8.88478 31.0481 7.02826 28.9173 5.83478C28.5177 5.56956 27.8519 5.43696 27.3192 5.17174C27.8519 4.90652 28.3846 4.6413 28.7841 4.24348C29.8495 3.97826 30.5154 3.58044 31.3144 3.05ZM10.0064 6.36522C10.6723 3.71304 13.0695 1.85652 15.8661 1.85652C19.9945 1.85652 24.123 1.85652 28.2514 1.85652C28.7841 1.85652 29.3168 1.98913 29.8495 1.98913C29.8495 1.98913 29.8495 2.12174 29.8495 2.25435C23.7234 6.1 16.9315 8.35435 10.0064 10.6087C9.87326 9.01739 9.60691 7.6913 10.0064 6.36522ZM28.9173 36.8652C27.186 38.0587 25.3215 39.1196 23.5903 40.313C22.658 40.9761 21.5926 40.9761 20.6604 40.313C18.9291 39.2522 17.1979 38.0587 15.3334 36.9978C15.0671 36.8652 15.0671 36.7326 15.0671 36.3348C15.2003 35.8044 15.0671 35.2739 15.0671 34.6109V31.2957C19.7282 34.213 24.3893 34.213 29.0504 31.2957C29.0504 31.4283 29.0504 31.6935 29.0504 31.8261C29.0504 33.4174 29.1836 34.8761 29.1836 36.4674C29.1836 36.6 29.0504 36.7326 28.9173 36.8652ZM29.0504 29.1739C25.8542 31.9587 22.2585 32.7543 18.2633 31.163C14.268 29.7043 12.1372 26.6543 11.6045 22.5435C11.6045 22.1457 11.6045 21.8804 11.4714 21.4826C11.4714 21.0848 11.205 20.8196 10.8055 20.687C10.406 20.5543 10.0064 20.8196 9.87326 21.2174C9.74009 21.6152 9.60691 21.6152 9.20739 21.6152C8.54151 21.6152 8.00881 21.0848 7.87564 20.4217C7.87564 19.7587 8.27516 19.2283 8.94104 19.0957C9.34056 18.963 9.87326 18.963 10.2728 18.963C10.406 18.963 10.6723 18.963 10.8055 18.963C10.9387 18.963 10.9387 18.963 11.0718 18.963C12.2704 18.6978 12.9363 17.7696 13.0695 16.3109V14.0565C13.0695 13.5261 12.6699 13.1283 12.2704 13.1283C11.7377 13.1283 11.4714 13.5261 11.4714 14.0565C11.4714 14.8522 11.4714 15.6478 11.4714 16.4435C11.4714 17.1065 11.205 17.3717 10.406 17.3717C10.406 16.9739 10.2728 16.4435 10.2728 16.0457C10.1396 14.7196 10.0064 13.5261 9.87326 12.2C11.205 11.6696 12.6699 11.4043 14.0017 10.8739C17.331 9.68044 20.5272 8.22174 23.8566 7.16087C25.3215 6.63043 27.0528 6.76304 28.5177 7.6913C29.8495 8.61957 30.5154 9.81304 30.5154 11.4043V11.6696C30.5154 12.7304 30.5154 13.7913 30.5154 14.8522V16.1783C30.5154 17.637 31.1812 18.5652 32.513 18.8304C32.6461 18.8304 32.6461 18.8304 32.7793 18.963C32.9125 18.963 33.1788 18.963 33.312 18.963C33.7115 18.963 33.9779 18.963 34.3774 18.963C35.1765 18.963 35.7092 19.6261 35.7092 20.2891C35.7092 20.9522 35.0433 21.6152 34.2442 21.6152C34.1111 21.6152 33.8447 21.4826 33.8447 21.35C33.7115 20.9522 33.312 20.687 32.9125 20.8196C32.6461 20.9522 32.513 21.2174 32.513 21.7478C32.3798 24.6652 31.3144 27.1848 29.0504 29.1739ZM31.5807 37.1304C33.1788 35.8043 34.3774 35.4065 35.9755 36.4674C36.5082 36.8652 37.1741 37.263 37.84 37.6609C38.1063 37.9261 38.3727 38.0587 38.639 38.3239C38.7722 38.4565 38.9054 38.5891 39.0385 38.8543C39.1717 39.1196 39.4381 39.3848 39.5712 39.65C36.9077 38.8544 34.2442 38.0587 31.5807 37.1304Z" fill="white"/>
<path d="M25.551 24.9891C25.551 25.2984 25.4131 25.6078 25.1372 25.9172C24.4475 26.5359 23.2059 27 22.1024 27C20.9988 27 20.0332 26.6906 19.0675 25.9172C18.5158 25.4531 18.3778 24.8344 18.7916 24.3703C19.0675 23.9062 19.6193 23.9062 20.1711 24.3703C21.2747 25.2984 23.068 25.2984 24.1716 24.3703C24.1716 24.3703 24.3095 24.3703 24.3095 24.2156C24.7233 23.9062 25.1372 23.9062 25.4131 24.3703C25.4131 24.525 25.551 24.6797 25.551 24.9891Z" fill="white"/>
<path d="M18.551 17C18.551 17.6667 18.301 18 17.926 18C17.676 18 17.426 18 17.176 18C16.926 18 16.676 18 16.301 18C15.926 18 15.676 17.6667 15.551 17.1667V17C15.551 16.8333 15.551 16.8333 15.551 16.6667C15.551 16.5 15.551 16.5 15.676 16.3333C15.676 16.3333 15.676 16.3333 15.676 16.1667L15.801 16H15.926C16.051 16 16.051 16 16.051 16C16.551 16 17.051 16 17.551 16H17.676C17.801 16 17.801 16 17.926 16.1667C17.926 16.1667 18.051 16.1667 18.051 16.3333C18.051 16.3333 18.051 16.5 18.176 16.5C18.551 16.8333 18.551 17 18.551 17Z" fill="white"/>
<path d="M28.551 17C28.551 17.6667 28.301 18 27.801 18C27.551 18 27.301 18 27.051 18C26.801 18 26.426 18 26.176 18C25.801 18 25.551 17.6667 25.551 17.1667V17C25.551 16.5 25.801 16.1667 26.176 16C26.801 16 27.426 16 28.176 16C28.301 16 28.551 16.5 28.551 17Z" fill="white"/>
<path d="M18.551 18.9412C18.551 19.0588 18.551 19.1765 18.551 19.2941V19.4118C18.551 19.7647 18.2177 20 17.551 20C17.051 20 16.7177 19.8824 16.551 19.5294V19.4118C16.551 19.1765 16.551 18.8235 16.551 18.5882V18.4706C16.551 18.3529 16.551 18.3529 16.7177 18.2353L16.8844 18.1176C16.8844 18.1176 17.051 18.1176 17.051 18C17.2177 18 17.2177 18 17.3844 18C17.551 18 17.551 18 17.7177 18C17.7177 18 17.8844 18 17.8844 18.1176L18.051 18.2353C18.051 18.2353 18.051 18.3529 18.2177 18.3529C18.2177 18.4706 18.2177 18.5882 18.3844 18.5882C18.551 18.5882 18.3844 18.8235 18.551 18.9412C18.3844 18.9412 18.3844 18.9412 18.551 18.9412Z" fill="white"/>
<path d="M28.551 18.8889C28.551 19 28.551 19.1111 28.551 19.2222V19.3333C28.551 19.4444 28.551 19.4444 28.3844 19.5556C28.3844 19.6667 28.2177 19.6667 28.2177 19.7778L28.051 19.8889C27.8844 19.8889 27.7177 20 27.551 20C27.051 20 26.7177 19.7778 26.551 19.3333V19.2222V19C26.551 18.3333 26.8844 18 27.551 18H27.7177H27.8844H28.051C28.051 18 28.2177 18 28.2177 18.1111L28.3844 18.2222C28.3844 18.3333 28.551 18.4444 28.551 18.5556C28.551 18.6667 28.551 18.6667 28.551 18.7778C28.551 18.6667 28.551 18.7778 28.551 18.8889Z" fill="white"/>
</svg>
