<svg width="21" height="22" viewBox="0 0 21 22" fill="none" xmlns="http://www.w3.org/2000/svg">
<g filter="url(#filter0_d_2891_31373)">
<path d="M16.2812 10.2812L11.0312 15.7812C10.8854 15.9271 10.7083 16 10.5 16C10.2917 16 10.1146 15.9271 9.96875 15.7812L4.71875 10.2812C4.42708 9.90625 4.42708 9.55208 4.71875 9.21875C5.09375 8.92708 5.44792 8.92708 5.78125 9.21875L9.75 13.375V2.75C9.79167 2.29167 10.0312 2.04167 10.4688 2C10.6771 2 10.8542 2.07292 11 2.21875C11.1667 2.36458 11.25 2.54167 11.25 2.75V13.375L15.2188 9.21875C15.5521 8.92708 15.9062 8.92708 16.2812 9.21875C16.5729 9.55208 16.5729 9.90625 16.2812 10.2812Z" fill="white"/>
</g>
<defs>
<filter id="filter0_d_2891_31373" x="0.28125" y="0" width="20.4375" height="22" filterUnits="userSpaceOnUse" color-interpolation-filters="sRGB">
<feFlood flood-opacity="0" result="BackgroundImageFix"/>
<feColorMatrix in="SourceAlpha" type="matrix" values="0 0 0 0 0 0 0 0 0 0 0 0 0 0 0 0 0 0 127 0" result="hardAlpha"/>
<feOffset dy="2"/>
<feGaussianBlur stdDeviation="2"/>
<feComposite in2="hardAlpha" operator="out"/>
<feColorMatrix type="matrix" values="0 0 0 0 0 0 0 0 0 0 0 0 0 0 0 0 0 0 0.25 0"/>
<feBlend mode="normal" in2="BackgroundImageFix" result="effect1_dropShadow_2891_31373"/>
<feBlend mode="normal" in="SourceGraphic" in2="effect1_dropShadow_2891_31373" result="shape"/>
</filter>
</defs>
</svg>
