<svg width="21" height="21" viewBox="0 0 21 21" fill="none" xmlns="http://www.w3.org/2000/svg">
<path d="M1 12.5L13 13L9.5 17L13 19L20 10.5L12 3L10 5.5L13 9H1V12.5Z" fill="#DEDCEB"/>
<path d="M20.5614 9.7756L13.4035 2.48264C12.772 1.83912 11.7193 1.83912 11.0878 2.48264L9.61407 3.98413C9.33336 4.27014 9.12286 4.6991 9.12286 5.12811C9.12286 5.55712 9.26322 5.98609 9.61407 6.2721L11.579 8.27406H1.68423C0.771955 8.27406 0 9.06058 0 9.99006V12.0635C0 12.9215 0.771914 13.6365 1.68423 13.6365H11.5088L9.61403 15.567C9.33331 15.853 9.12282 16.282 9.12282 16.7825C9.12282 17.2115 9.26318 17.6405 9.61403 17.998L11.0877 19.4995C11.3684 19.7855 11.7895 20 12.2105 20C12.6316 20 13.0526 19.857 13.3333 19.4995L20.4912 12.2065C20.8421 11.849 20.9825 11.42 20.9825 10.991C21.0526 10.5621 20.9123 10.1331 20.5614 9.7756ZM19.5789 11.2055L12.4211 18.4985C12.2807 18.6415 12.2106 18.6415 12.0702 18.4985L10.5965 16.997C10.5263 16.9255 10.5263 16.854 10.5263 16.7826C10.5263 16.711 10.5263 16.6395 10.5965 16.5681L13.6842 13.4221C13.8947 13.2077 13.9649 12.9216 13.8245 12.6356C13.6842 12.3496 13.4736 12.2066 13.193 12.2066H1.68423C1.54387 12.2066 1.40351 12.1351 1.40351 12.0636V9.99014C1.40351 9.84714 1.54387 9.70414 1.68423 9.70414H13.3334C13.6141 9.70414 13.8948 9.56113 13.9649 9.27513C14.0351 8.98912 14.0351 8.70311 13.8246 8.48861L10.6667 5.27116C10.5965 5.19966 10.5965 5.12816 10.5965 5.12816C10.5965 5.05665 10.5965 5.05665 10.6667 4.98515L12.1404 3.4837C12.2106 3.4122 12.3509 3.3407 12.4913 3.4837L19.6491 10.7766C19.7193 10.8481 19.7193 10.9196 19.7193 10.991C19.6491 11.0626 19.6491 11.1341 19.5789 11.2055Z" fill="#6667AB"/>
</svg>
