<svg width="58" height="62" viewBox="0 0 58 62" fill="none" xmlns="http://www.w3.org/2000/svg">
<path d="M35.949 22C35.949 22.5 36.3361 23 36.9812 23H46.9167C47.4328 23 47.949 22.625 47.949 22C47.949 21.5 47.5619 21 46.9167 21H36.9812C36.4651 21 35.949 21.5 35.949 22Z" fill="white"/>
<path d="M41.949 28C41.949 28.5 42.3361 29 42.9812 29H48.9167C49.4328 29 49.949 28.625 49.949 28C49.949 27.375 49.5619 27 48.9167 27H42.9812C42.4651 27 41.949 27.5 41.949 28Z" fill="white"/>
<path d="M40.9167 16C41.4328 16 41.949 15.625 41.949 15C41.949 14.375 41.5619 14 40.9167 14H38.9812C38.4651 14 37.949 14.375 37.949 15C37.949 15.625 38.3361 16 38.9812 16H40.9167Z" fill="white"/>
<path d="M27.9812 27C27.4651 27 26.949 27.375 26.949 28C26.949 28.625 27.3361 29 27.9812 29H37.9167C38.4328 29 38.949 28.625 38.949 28C38.949 27.375 38.5619 27 37.9167 27H27.9812Z" fill="white"/>
<path d="M32.9086 55.1357H13.9221C12.2315 55.1357 10.931 53.804 10.931 52.0729V5.06533C10.931 4.53266 10.5409 4 9.89068 4C7.15974 4 4.94897 6.26382 4.94897 9.0603C4.94897 9.59297 5.33911 10.1256 5.98933 10.1256C6.50951 10.1256 7.02969 9.72613 7.02969 9.0603C7.02969 7.72864 7.80996 6.53015 8.98036 6.13065V51.9397C8.98036 54.7362 11.1911 57 13.9221 57H32.9086C33.4288 57 33.949 56.6005 33.949 55.9347C33.8189 55.6683 33.4288 55.1357 32.9086 55.1357Z" fill="white"/>
<path d="M17.9812 22H31.9167C32.4328 22 32.949 21.625 32.949 21C32.949 20.5 32.5619 20 31.9167 20H17.9812C17.4651 20 16.949 20.375 16.949 21C16.949 21.625 17.3361 22 17.9812 22Z" fill="white"/>
<path d="M17.9703 16H21.9277C22.4383 16 22.949 15.625 22.949 15C22.949 14.375 22.566 14 21.9277 14H17.9703C17.4596 14 16.949 14.375 16.949 15C16.949 15.625 17.332 16 17.9703 16Z" fill="white"/>
<path d="M33.91 14H25.9879C25.4685 14 24.949 14.375 24.949 15C24.949 15.5 25.3386 16 25.9879 16H33.91C34.4295 16 34.949 15.625 34.949 15C34.949 14.375 34.5594 14 33.91 14Z" fill="white"/>
<path d="M48.6914 0H10.0743C5.04874 0 0.948975 4.17308 0.948975 9.28846C0.948975 12.5192 2.66823 15.6154 5.57774 17.3654C6.10675 17.6346 6.63575 17.5 6.90025 16.9615C7.16475 16.4231 7.0325 15.8846 6.5035 15.6154C4.25524 14.2692 2.93273 11.9808 2.93273 9.42308C2.93273 5.38461 6.10675 2.15385 10.0743 2.15385H48.6914C52.659 2.15385 55.833 5.38461 55.833 9.42308V52.9038C55.833 53.4423 55.7007 53.9808 55.4362 54.3846C55.1717 54.9231 55.304 55.4615 55.833 55.8654C55.9652 56 56.2297 56 56.362 56C56.7587 56 57.0232 55.8654 57.2877 55.4615C57.6845 54.6538 57.949 53.8462 57.949 52.9038V9.28846C57.8167 4.17308 53.717 0 48.6914 0Z" fill="white"/>
<path d="M51.949 47C51.949 43.7391 49.2098 41 45.949 41C42.6881 41 39.949 43.7391 39.949 47C39.949 50.2609 42.6881 53 45.949 53C49.2098 53 51.949 50.2609 51.949 47ZM45.949 50.913C43.7316 50.913 41.9055 49.087 41.9055 46.8696C41.9055 44.6522 43.7316 42.8261 45.949 42.8261C48.1664 42.8261 49.9925 44.6522 49.9925 46.8696C49.9925 49.2174 48.1664 50.913 45.949 50.913Z" fill="white"/>
<path d="M44.4526 54.9286C43.8927 54.6714 43.3327 54.8 43.0528 55.3143L40.6732 59.0429L40.2533 58.5286C40.1133 58.2714 39.6933 58.1429 39.4134 58.1429H38.7135L41.0931 54.4143C41.3731 53.9 41.2331 53.3857 40.6732 53.1286C40.1133 52.8714 39.5534 53 39.2734 53.5143L36.054 58.6571C35.914 58.9143 35.914 59.3 36.054 59.5571C36.1939 59.8143 36.6139 60.0714 36.8938 60.0714L38.7135 60.2L39.6934 61.6143C39.8333 61.8714 40.2533 62 40.5332 62C40.9531 62 41.2331 61.7429 41.3731 61.4857L44.5925 56.4714C45.1524 55.7 45.0125 55.1857 44.4526 54.9286Z" fill="white"/>
<path d="M52.0486 52.5294C51.7936 52 51.1561 51.8676 50.7737 52.1324C50.2637 52.3971 50.1362 53.0588 50.3912 53.4559L52.5585 57.2941H51.9211C51.6661 57.2941 51.2836 57.4265 51.1561 57.6912L50.7737 58.2206L48.7338 54.3824C48.4789 53.8529 47.8414 53.7206 47.4589 53.9853C46.949 54.25 46.8215 54.9118 47.0765 55.3088L50.0087 60.4706C50.1362 60.7353 50.5187 61 50.7737 61C51.1561 61 51.4111 60.8676 51.5386 60.6029L52.431 59.1471L54.0884 59.0147C54.4709 59.0147 54.7259 58.75 54.8534 58.4853C54.9808 58.2206 54.9808 57.8235 54.8534 57.5588L52.0486 52.5294Z" fill="white"/>
<path d="M17.9812 29H23.9167C24.4328 29 24.949 28.625 24.949 28C24.949 27.375 24.5619 27 23.9167 27H17.9812C17.4651 27 16.949 27.375 16.949 28C16.949 28.625 17.3361 29 17.9812 29Z" fill="white"/>
<path d="M17.986 35H29.9119C30.4305 35 30.949 34.625 30.949 34C30.949 33.5 30.5601 33 29.9119 33H17.986C17.4675 33 16.949 33.375 16.949 34C16.949 34.5 17.3379 35 17.986 35Z" fill="white"/>
<path d="M18.0102 47.3986C18.27 47.9154 18.9195 48.0446 19.3092 47.7862C19.8288 47.5278 19.9587 46.8818 19.6989 46.4941C18.6597 44.556 18.5298 42.7471 19.0494 41.8426C19.4391 41.3258 19.9587 41.0673 20.7381 41.0673C21.2578 41.0673 21.3877 41.1966 21.5176 41.3258C22.297 42.3594 21.5176 45.5897 20.868 47.657C20.7381 48.0446 20.868 48.5615 21.2578 48.8199C21.6475 49.0783 22.1671 49.0783 22.5568 48.6907C22.9465 48.3031 23.4661 47.7862 23.8558 47.5278V47.9154C23.8558 48.3031 24.1156 48.6907 24.5053 48.8199C24.895 48.9491 25.2847 48.9491 25.5445 48.5615C26.0641 48.0446 26.5838 47.657 26.9735 47.3986C26.9735 47.3986 26.9735 47.3986 26.9735 47.5278C26.8436 47.7862 26.8436 48.1739 26.9735 48.4323C27.1034 48.6907 27.4931 48.9491 27.8828 48.9491H31.9098C32.4294 48.9491 32.949 48.5615 32.949 47.9154C32.949 47.3986 32.5593 46.8818 31.9098 46.8818H29.3117C29.4416 46.3649 29.3117 45.9773 29.1818 45.5897C28.922 45.202 28.5323 44.9436 28.0127 44.9436C27.3632 44.9436 26.7137 45.3313 26.0641 45.7189C26.0641 45.3313 25.8043 44.9436 25.4146 44.8144C25.1548 44.6852 24.7651 44.556 23.9857 45.0728C24.3754 43.3931 24.3754 41.455 23.596 40.1629C23.2063 39.646 22.5568 39 21.1279 39C19.569 39 18.3999 39.646 17.7504 40.6797C16.5813 42.3594 16.7112 44.8144 18.0102 47.3986Z" fill="white"/>
<path d="M44.949 34C44.949 33.5 44.5619 33 43.9167 33H33.9812C33.4651 33 32.949 33.375 32.949 34C32.949 34.5 33.3361 35 33.9812 35H43.9167C44.4328 35 44.949 34.5 44.949 34Z" fill="white"/>
</svg>
