<svg width="50" height="50" viewBox="0 0 50 50" fill="none" xmlns="http://www.w3.org/2000/svg">
<path d="M36.8807 43.7692C37.0875 43.7692 37.2842 43.6844 37.4304 43.5326L46.7611 33.8403C47.4889 33.0843 46.3887 31.943 45.6617 32.6982L36.5588 42.1538H25.2173V40.5385H36.8807C37.0875 40.5385 37.2842 40.4537 37.4304 40.3018L46.7611 30.6095C47.4889 29.8535 46.3887 28.7122 45.6617 29.4674L36.5588 38.9231H25.2173V37.3077H36.8807C37.0875 37.3077 37.2842 37.2229 37.4304 37.071L46.7611 27.3787C47.2494 26.8715 46.9042 26 46.2114 26H15.109C14.9021 26 14.7046 26.0848 14.5592 26.2367L5.22849 35.929C4.74019 36.4362 5.0862 37.3077 5.77823 37.3077H16.6641V38.9231H5.77823C4.74874 38.9231 4.75029 40.5385 5.77823 40.5385H16.6641V42.1538H5.77823C4.74874 42.1538 4.75029 43.7692 5.77823 43.7692H16.6641V45.3846H5.77823C4.74874 45.3846 4.75029 47 5.77823 47H36.8807C37.0875 47 37.2842 46.9152 37.4304 46.7633L46.7611 37.071C47.4889 36.315 46.3887 35.1738 45.6617 35.929L36.5588 45.3846H25.2173V43.7692H36.8807ZM19.4524 33.2692H15.3741C15.3881 32.695 15.1572 32.1272 14.7622 31.7378L15.0382 31.4495C16.2528 31.3728 17.3958 30.8809 18.3156 30.0385H22.5627L19.4524 33.2692ZM27.0943 27.6154H31.8934C31.1096 28.4295 25.1885 34.5801 24.1178 35.6923H19.3187C28.7015 25.9459 16.6929 38.4199 27.0943 27.6154ZM31.7597 30.0385H36.6155C36.6015 30.6127 36.8325 31.1805 37.2275 31.5698L36.9507 31.8582C35.7369 31.9349 34.5931 32.4268 33.6732 33.2692H28.6486L31.7597 30.0385ZM36.5588 35.6923H26.3167L27.0943 34.8846H33.9796C34.1849 34.8846 34.3816 34.8006 34.527 34.6512C35.2711 33.8855 36.2501 33.4631 37.2842 33.4631C37.4918 33.4631 37.6901 33.3775 37.8355 33.2248L39.1185 31.884C39.6037 31.3776 39.2592 30.5069 38.5672 30.5069C38.2196 30.5069 38.0392 30.057 38.2849 29.8018C38.774 29.2946 38.428 28.4231 37.736 28.4231H33.3156L34.0931 27.6154H44.3352L36.5588 35.6923ZM15.4309 27.6154H24.8953L24.1178 28.4231H18.0093C17.804 28.4231 17.6073 28.5071 17.4619 28.6565C16.7177 29.4222 15.7388 29.8446 14.7046 29.8446C14.497 29.8446 14.2995 29.9302 14.1533 30.0829L12.8704 31.4237C12.3852 31.9301 12.7296 32.8008 13.4217 32.8008C13.7692 32.8008 13.9496 33.2507 13.7039 33.5059C13.2156 34.0131 13.5616 34.8846 14.2536 34.8846H17.8965L17.119 35.6923H7.65526L15.4309 27.6154ZM18.2192 45.3846V37.3077H23.6621V45.3846H18.2192Z" fill="#6667AB"/>
<path d="M9.26087 28C10.297 28 10.2955 26.4138 9.26087 26.4138H6.91304C5.61861 26.4138 4.56522 25.3463 4.56522 24.0345V16.1034H37.4348V22.4483C37.4348 23.4983 39 23.4968 39 22.4483V8.96552C39 6.77893 37.2446 5 35.087 5H6.91304C4.75539 5 3 6.77893 3 8.96552V24.0345C3 26.2211 4.75539 28 6.91304 28H9.26087ZM4.56522 14.5172V11.3448H37.4348V14.5172H4.56522ZM6.91304 6.58621H35.087C36.3814 6.58621 37.4348 7.65372 37.4348 8.96552V9.75862H4.56522V8.96552C4.56522 7.65372 5.61861 6.58621 6.91304 6.58621Z" fill="#6667AB"/>
<path d="M8.75 18C8.33525 18 8 18.3725 8 18.8333V22.1667C8 22.6275 8.33525 23 8.75 23H13.25C13.6648 23 14 22.6275 14 22.1667V18.8333C14 18.3725 13.6648 18 13.25 18H8.75ZM12.5 21.3333H9.5V19.6667H12.5V21.3333Z" fill="#6667AB"/>
<path d="M16.7826 18C16.3498 18 16 18.3725 16 18.8333V22.1667C16 22.6275 16.3498 23 16.7826 23H33.2174C33.6502 23 34 22.6275 34 22.1667V18.8333C34 18.3725 33.6502 18 33.2174 18H16.7826ZM32.4348 21.3333H17.5652V19.6667H32.4348V21.3333Z" fill="#6667AB"/>
</svg>
