<svg width="50" height="50" viewBox="0 0 50 50" fill="none" xmlns="http://www.w3.org/2000/svg">
<path d="M45.129 1H17.2581C16.2318 1.00123 15.2479 1.40946 14.5222 2.13514C13.7966 2.86082 13.3883 3.8447 13.3871 4.87097V32.176C12.3607 32.0372 11.3261 31.9676 10.2903 31.9677C5.67381 31.9677 1 33.2978 1 35.8387V38.9355C1.01531 39.5221 1.2622 40.0788 1.68671 40.4839C1.26318 40.8897 1.01648 41.4459 1 42.0323V45.129C1 47.6699 5.67381 49 10.2903 49C14.4106 49 18.5665 47.9378 19.415 45.9032H45.129C46.1553 45.902 47.1392 45.4938 47.8649 44.7681C48.5905 44.0424 48.9988 43.0585 49 42.0323V4.87097C48.9988 3.8447 48.5905 2.86082 47.8649 2.13514C47.1392 1.40946 46.1553 1.00123 45.129 1ZM10.2903 33.5161C14.9448 33.5161 18.0323 34.9143 18.0323 35.8387C18.0323 36.7631 14.9448 38.1613 10.2903 38.1613C5.63587 38.1613 2.54839 36.7631 2.54839 35.8387C2.54839 34.9143 5.63587 33.5161 10.2903 33.5161ZM2.54839 38.9355V38.0692C4.30194 39.1499 7.30426 39.7097 10.2903 39.7097C13.2764 39.7097 16.2787 39.1499 18.0323 38.0692V38.9355C18.0323 39.8599 14.9448 41.2581 10.2903 41.2581C5.63587 41.2581 2.54839 39.8599 2.54839 38.9355ZM19.5806 38.9355V36.6129H21.129V39.7097H19.415C19.5211 39.4652 19.5774 39.202 19.5806 38.9355ZM2.96723 41.4021C5.27509 42.4036 7.77566 42.8832 10.2903 42.8064C12.8053 42.8834 15.3063 42.4036 17.6142 41.4013C17.7228 41.4729 17.8158 41.5657 17.8876 41.6741C17.9595 41.7825 18.0087 41.9043 18.0323 42.0323C18.0323 42.9566 14.9448 44.3548 10.2903 44.3548C5.63587 44.3548 2.54839 42.9566 2.54839 42.0323C2.57296 41.9047 2.62264 41.7833 2.69454 41.6751C2.76644 41.5669 2.85913 41.4741 2.96723 41.4021ZM10.2903 47.4516C5.63587 47.4516 2.54839 46.0534 2.54839 45.129V44.2627C4.30194 45.3435 7.30426 45.9032 10.2903 45.9032C13.2764 45.9032 16.2787 45.3435 18.0323 44.2627V45.129C18.0323 46.0534 14.9448 47.4516 10.2903 47.4516ZM47.4516 42.0323C47.4516 42.6482 47.2069 43.239 46.7713 43.6746C46.3358 44.1101 45.745 44.3548 45.129 44.3548H19.5806V42.0323C19.5789 41.7659 19.5236 41.5026 19.4181 41.2581H21.9032C22.1086 41.2581 22.3055 41.1765 22.4507 41.0313C22.5959 40.8861 22.6774 40.6892 22.6774 40.4839V35.8387C22.6774 35.6334 22.5959 35.4365 22.4507 35.2913C22.3055 35.1461 22.1086 35.0645 21.9032 35.0645H19.415C19.0889 34.3955 18.5527 33.8516 17.8883 33.5161H21.9032C22.1086 33.5161 22.3055 33.4346 22.4507 33.2894C22.5959 33.1442 22.6774 32.9473 22.6774 32.7419V28.0968C22.6774 27.8914 22.5959 27.6945 22.4507 27.5493C22.3055 27.4041 22.1086 27.3226 21.9032 27.3226H17.2581C17.0527 27.3226 16.8558 27.4041 16.7106 27.5493C16.5654 27.6945 16.4839 27.8914 16.4839 28.0968V32.7419C16.4891 32.7945 16.4998 32.8464 16.5156 32.8968C15.9984 32.7165 15.4707 32.5678 14.9355 32.4516V4.87097C14.9355 4.25498 15.1802 3.66422 15.6158 3.22866C16.0513 2.79309 16.6421 2.54839 17.2581 2.54839H45.129C45.745 2.54839 46.3358 2.79309 46.7713 3.22866C47.2069 3.66422 47.4516 4.25498 47.4516 4.87097V42.0323ZM18.0323 31.9677V28.871H21.129V31.9677H18.0323Z" fill="#6667AB"/>
<path d="M45.2105 4H16.7895C16.5801 4 16.3793 4.08194 16.2312 4.22781C16.0832 4.37367 16 4.5715 16 4.77778V17.2222C16 17.4285 16.0832 17.6263 16.2312 17.7722C16.3793 17.9181 16.5801 18 16.7895 18H45.2105C45.4199 18 45.6207 17.9181 45.7688 17.7722C45.9168 17.6263 46 17.4285 46 17.2222V4.77778C46 4.5715 45.9168 4.37367 45.7688 4.22781C45.6207 4.08194 45.4199 4 45.2105 4ZM44.4211 16.4444H17.5789V5.55556H44.4211V16.4444Z" fill="#6667AB"/>
<path d="M45.25 27H40.75C40.5511 27 40.3603 27.0843 40.2197 27.2343C40.079 27.3843 40 27.5878 40 27.8V42.2C40 42.4122 40.079 42.6157 40.2197 42.7657C40.3603 42.9157 40.5511 43 40.75 43H45.25C45.4489 43 45.6397 42.9157 45.7803 42.7657C45.921 42.6157 46 42.4122 46 42.2V27.8C46 27.5878 45.921 27.3843 45.7803 27.2343C45.6397 27.0843 45.4489 27 45.25 27ZM44.5 41.4H41.5V28.6H44.5V41.4Z" fill="#6667AB"/>
<path d="M45.25 20H40.75C40.5511 20 40.3603 20.079 40.2197 20.2197C40.079 20.3603 40 20.5511 40 20.75V25.25C40 25.4489 40.079 25.6397 40.2197 25.7803C40.3603 25.921 40.5511 26 40.75 26H45.25C45.4489 26 45.6397 25.921 45.7803 25.7803C45.921 25.6397 46 25.4489 46 25.25V20.75C46 20.5511 45.921 20.3603 45.7803 20.2197C45.6397 20.079 45.4489 20 45.25 20ZM44.5 24.5H41.5V21.5H44.5V24.5Z" fill="#6667AB"/>
<path d="M21.25 20H16.75C16.5511 20 16.3603 20.079 16.2197 20.2197C16.079 20.3603 16 20.5511 16 20.75V25.25C16 25.4489 16.079 25.6397 16.2197 25.7803C16.3603 25.921 16.5511 26 16.75 26H21.25C21.4489 26 21.6397 25.921 21.7803 25.7803C21.921 25.6397 22 25.4489 22 25.25V20.75C22 20.5511 21.921 20.3603 21.7803 20.2197C21.6397 20.079 21.4489 20 21.25 20ZM20.5 24.5H17.5V21.5H20.5V24.5Z" fill="#6667AB"/>
<path d="M29.25 20H24.75C24.5511 20 24.3603 20.079 24.2197 20.2197C24.079 20.3603 24 20.5511 24 20.75V25.25C24 25.4489 24.079 25.6397 24.2197 25.7803C24.3603 25.921 24.5511 26 24.75 26H29.25C29.4489 26 29.6397 25.921 29.7803 25.7803C29.921 25.6397 30 25.4489 30 25.25V20.75C30 20.5511 29.921 20.3603 29.7803 20.2197C29.6397 20.079 29.4489 20 29.25 20ZM28.5 24.5H25.5V21.5H28.5V24.5Z" fill="#6667AB"/>
<path d="M37.25 20H32.75C32.5511 20 32.3603 20.079 32.2197 20.2197C32.079 20.3603 32 20.5511 32 20.75V25.25C32 25.4489 32.079 25.6397 32.2197 25.7803C32.3603 25.921 32.5511 26 32.75 26H37.25C37.4489 26 37.6397 25.921 37.7803 25.7803C37.921 25.6397 38 25.4489 38 25.25V20.75C38 20.5511 37.921 20.3603 37.7803 20.2197C37.6397 20.079 37.4489 20 37.25 20ZM36.5 24.5H33.5V21.5H36.5V24.5Z" fill="#6667AB"/>
<path d="M29.25 27H24.75C24.5511 27 24.3603 27.079 24.2197 27.2197C24.079 27.3603 24 27.5511 24 27.75V32.25C24 32.4489 24.079 32.6397 24.2197 32.7803C24.3603 32.921 24.5511 33 24.75 33H29.25C29.4489 33 29.6397 32.921 29.7803 32.7803C29.921 32.6397 30 32.4489 30 32.25V27.75C30 27.5511 29.921 27.3603 29.7803 27.2197C29.6397 27.079 29.4489 27 29.25 27ZM28.5 31.5H25.5V28.5H28.5V31.5Z" fill="#6667AB"/>
<path d="M37.25 27H32.75C32.5511 27 32.3603 27.079 32.2197 27.2197C32.079 27.3603 32 27.5511 32 27.75V32.25C32 32.4489 32.079 32.6397 32.2197 32.7803C32.3603 32.921 32.5511 33 32.75 33H37.25C37.4489 33 37.6397 32.921 37.7803 32.7803C37.921 32.6397 38 32.4489 38 32.25V27.75C38 27.5511 37.921 27.3603 37.7803 27.2197C37.6397 27.079 37.4489 27 37.25 27ZM36.5 31.5H33.5V28.5H36.5V31.5Z" fill="#6667AB"/>
<path d="M29.25 35H24.75C24.5511 35 24.3603 35.079 24.2197 35.2197C24.079 35.3603 24 35.5511 24 35.75V40.25C24 40.4489 24.079 40.6397 24.2197 40.7803C24.3603 40.921 24.5511 41 24.75 41H29.25C29.4489 41 29.6397 40.921 29.7803 40.7803C29.921 40.6397 30 40.4489 30 40.25V35.75C30 35.5511 29.921 35.3603 29.7803 35.2197C29.6397 35.079 29.4489 35 29.25 35ZM28.5 39.5H25.5V36.5H28.5V39.5Z" fill="#6667AB"/>
<path d="M37.25 35H32.75C32.5511 35 32.3603 35.079 32.2197 35.2197C32.079 35.3603 32 35.5511 32 35.75V40.25C32 40.4489 32.079 40.6397 32.2197 40.7803C32.3603 40.921 32.5511 41 32.75 41H37.25C37.4489 41 37.6397 40.921 37.7803 40.7803C37.921 40.6397 38 40.4489 38 40.25V35.75C38 35.5511 37.921 35.3603 37.7803 35.2197C37.6397 35.079 37.4489 35 37.25 35ZM36.5 39.5H33.5V36.5H36.5V39.5Z" fill="#6667AB"/>
<path d="M38.5 12H37C37 12.5967 37.2371 13.169 37.659 13.591C38.081 14.0129 38.6533 14.25 39.25 14.25V15H40.75V14.25C41.3467 14.25 41.919 14.0129 42.341 13.591C42.7629 13.169 43 12.5967 43 12C43 11.4033 42.7629 10.831 42.341 10.409C41.919 9.98705 41.3467 9.75 40.75 9.75V8.25C40.9489 8.25 41.1397 8.32902 41.2803 8.46967C41.421 8.61032 41.5 8.80109 41.5 9H43C43 8.40326 42.7629 7.83097 42.341 7.40901C41.919 6.98705 41.3467 6.75 40.75 6.75V6H39.25V6.75C38.6533 6.75 38.081 6.98705 37.659 7.40901C37.2371 7.83097 37 8.40326 37 9C37 9.59674 37.2371 10.169 37.659 10.591C38.081 11.0129 38.6533 11.25 39.25 11.25V12.75C39.0511 12.75 38.8603 12.671 38.7197 12.5303C38.579 12.3897 38.5 12.1989 38.5 12ZM38.5 9C38.5 8.80109 38.579 8.61032 38.7197 8.46967C38.8603 8.32902 39.0511 8.25 39.25 8.25V9.75C39.0511 9.75 38.8603 9.67098 38.7197 9.53033C38.579 9.38968 38.5 9.19891 38.5 9ZM40.75 11.25C40.9489 11.25 41.1397 11.329 41.2803 11.4697C41.421 11.6103 41.5 11.8011 41.5 12C41.5 12.1989 41.421 12.3897 41.2803 12.5303C41.1397 12.671 40.9489 12.75 40.75 12.75V11.25Z" fill="#6667AB"/>
</svg>
