<svg width="50" height="50" viewBox="0 0 50 50" fill="none" xmlns="http://www.w3.org/2000/svg">
<g clip-path="url(#clip0_2825_3320)">
<path d="M10.1282 12.3023C9.92163 12.0958 9.64344 11.9888 9.34406 12.0009C9.05174 12.0171 8.78062 12.1552 8.59619 12.3829C5.63189 16.0448 4 20.6521 4 25.3572C4 36.74 13.2599 46 24.6425 46C29.3475 46 33.9549 44.3681 37.6166 41.4038C37.8444 41.2193 37.9825 40.9482 37.9986 40.6559C38.0137 40.3635 37.9039 40.0783 37.6972 39.8717L10.1282 12.3023ZM24.6425 43.9358C14.3988 43.9358 6.06422 35.6012 6.06422 25.3573C6.06422 21.4475 7.24955 17.7514 9.50333 14.5975L35.4022 40.4967C32.2484 42.7505 28.5523 43.9358 24.6425 43.9358Z" fill="#6667AB"/>
<path d="M25 0C11.2152 0 0 11.2152 0 25C0 38.7848 11.2152 50 25 50C38.7848 50 50 38.7848 50 25C50 11.2152 38.7848 0 25 0ZM25 47.9167C12.3637 47.9167 2.0833 37.6363 2.0833 25C2.0833 12.3637 12.3637 2.0833 25 2.0833C37.6363 2.0833 47.9167 12.3637 47.9167 25C47.9167 37.6363 37.6363 47.9167 25 47.9167Z" fill="#6667AB"/>
<path d="M25.3575 4C20.6524 4 16.0451 5.6319 12.3834 8.59623C12.1556 8.78066 12.0175 9.05179 12.0014 9.34411C11.9863 9.63643 12.0961 9.92168 12.3028 10.1283L39.8717 37.6976C40.0652 37.8921 40.3283 38 40.6015 38C40.6197 38 40.6378 38 40.656 37.999C40.9483 37.9829 41.2194 37.8448 41.4038 37.617C44.3681 33.9551 46 29.3479 46 24.6428C45.9999 13.26 36.74 4 25.3575 4ZM40.4966 35.4025L14.5978 9.50338C17.7516 7.24958 21.4477 6.06424 25.3575 6.06424C35.6011 6.06424 43.9357 14.3989 43.9357 24.6427C43.9357 28.5525 42.7504 32.2486 40.4966 35.4025Z" fill="#6667AB"/>
</g>
<defs>
<clipPath id="clip0_2825_3320">
<rect width="50" height="50" fill="white"/>
</clipPath>
</defs>
</svg>
