<svg width="50" height="48" viewBox="0 0 50 48" fill="none" xmlns="http://www.w3.org/2000/svg">
<path d="M47.5 20.2105H39.345C39.7629 19.7509 39.9965 19.1505 40 18.5263V2.52632C40 1.13107 38.8807 0 37.5 0H21.6667C21.0301 0.000202585 20.4178 0.247036 19.9558 0.689684L12.2792 6.13811C11.3998 6.55131 10.8363 7.44111 10.8333 8.42105V20.2105C10.1967 20.2107 9.58443 20.4576 9.1225 20.9002L1.44583 26.3486C0.566517 26.7618 0.00299307 27.6516 0 28.6316V45.4737C0 46.8689 1.11929 48 2.5 48H20C20.617 47.9978 21.2111 47.7637 21.6667 47.3432C22.1222 47.7637 22.7163 47.9978 23.3333 48H40.8333C41.5095 47.9996 42.1563 47.7211 42.625 47.2286L49.2567 40.5272C49.732 40.0553 49.9999 39.4102 50 38.7368V22.7368C49.9932 21.3445 48.8779 20.2174 47.5 20.2105ZM41.945 26.3806C41.6009 26.2022 41.2201 26.1078 40.8333 26.1053H33.5283L37.695 21.8947H47.0183L41.945 26.3806ZM20 26.1053H13.3333C12.8731 26.1053 12.5 25.7282 12.5 25.2632V8.42105C12.5 7.95597 12.8731 7.57895 13.3333 7.57895H30.8333C31.2936 7.57895 31.6667 7.95597 31.6667 8.42105V25.2632C31.6674 25.4836 31.5821 25.6954 31.4292 25.8526L31.4125 25.8695C31.2573 26.0214 31.0494 26.106 30.8333 26.1053H20ZM33.1058 7.38189L38.3333 2.75958V18.5263C38.3321 18.7488 38.242 18.9614 38.0833 19.1158L33.3333 23.9234V8.42105C33.3323 8.06216 33.2547 7.70772 33.1058 7.38189ZM31.945 6.17011C31.6009 5.99163 31.2201 5.8973 30.8333 5.89474H24.9292L30.2858 1.68421H37.0183L31.945 6.17011ZM20.9708 2.02779C21.013 1.99785 21.0523 1.96402 21.0883 1.92674C21.2411 1.77074 21.4495 1.68335 21.6667 1.68421L27.5708 1.6842L22.2142 5.89474H15.5225L20.9708 2.02779ZM10.1375 22.2383C10.1797 22.2084 10.219 22.1745 10.255 22.1373C10.4078 21.9813 10.6162 21.8939 10.8333 21.8947V25.2632C10.8361 25.5507 10.888 25.8356 10.9867 26.1053H4.68917L10.1375 22.2383ZM2.5 46.3158C2.03976 46.3158 1.66667 45.9388 1.66667 45.4737V28.6316C1.66667 28.1665 2.03976 27.7895 2.5 27.7895H20C20.4602 27.7895 20.8333 28.1665 20.8333 28.6316V45.4737C20.8333 45.6941 20.7477 45.9058 20.595 46.0632L20.58 46.0775C20.425 46.2306 20.2168 46.3162 20 46.3158H2.5ZM23.3333 46.3158C22.8731 46.3158 22.5 45.9388 22.5 45.4737V28.6316C22.5 28.1665 22.8731 27.7895 23.3333 27.7895H40.8333C41.2936 27.7895 41.6667 28.1665 41.6667 28.6316V45.4737C41.6652 45.6888 41.5823 45.8952 41.435 46.0505L41.4167 46.0632L41.405 46.0766C41.2519 46.2275 41.0472 46.3132 40.8333 46.3158H23.3333ZM48.0833 39.3263L43.3333 44.1263V28.6316C43.3323 28.2727 43.2547 27.9182 43.1058 27.5924L48.3333 22.9701V38.7368C48.3321 38.9594 48.242 39.172 48.0833 39.3263Z" fill="#6667AB"/>
<path d="M19.25 19H15.75C14.7835 19 14 19.7462 14 20.6667V22.3333C14 23.2538 14.7835 24 15.75 24H19.25C20.2165 24 21 23.2538 21 22.3333V20.6667C21 19.7462 20.2165 19 19.25 19ZM15.75 22.3333V20.6667H19.25V22.3333H15.75Z" fill="#6667AB"/>
<path d="M29.2 19H26.8C26.3582 19 26 19.4477 26 20C26 20.5523 26.3582 21 26.8 21H29.2C29.6418 21 30 20.5523 30 20C30 19.4477 29.6418 19 29.2 19Z" fill="#6667AB"/>
<path d="M29.2 23H26.8C26.3582 23 26 23.4477 26 24C26 24.5523 26.3582 25 26.8 25H29.2C29.6418 25 30 24.5523 30 24C30 23.4477 29.6418 23 29.2 23Z" fill="#6667AB"/>
<path d="M8.25 40H4.75C3.7835 40 3 40.7462 3 41.6667V43.3333C3 44.2538 3.7835 45 4.75 45H8.25C9.2165 45 10 44.2538 10 43.3333V41.6667C10 40.7462 9.2165 40 8.25 40ZM4.75 43.3333V41.6667H8.25V43.3333H4.75Z" fill="#6667AB"/>
<path d="M18.2 40H15.8C15.3582 40 15 40.4477 15 41C15 41.5523 15.3582 42 15.8 42H18.2C18.6418 42 19 41.5523 19 41C19 40.4477 18.6418 40 18.2 40Z" fill="#6667AB"/>
<path d="M18.2 43H15.8C15.3582 43 15 43.4477 15 44C15 44.5523 15.3582 45 15.8 45H18.2C18.6418 45 19 44.5523 19 44C19 43.4477 18.6418 43 18.2 43Z" fill="#6667AB"/>
<path d="M29.25 40H25.75C24.7835 40 24 40.7462 24 41.6667V43.3333C24 44.2538 24.7835 45 25.75 45H29.25C30.2165 45 31 44.2538 31 43.3333V41.6667C31 40.7462 30.2165 40 29.25 40ZM25.75 43.3333V41.6667H29.25V43.3333H25.75Z" fill="#6667AB"/>
<path d="M39.2 40H36.8C36.3582 40 36 40.4477 36 41C36 41.5523 36.3582 42 36.8 42H39.2C39.6418 42 40 41.5523 40 41C40 40.4477 39.6418 40 39.2 40Z" fill="#6667AB"/>
<path d="M39.2 43H36.8C36.3582 43 36 43.4477 36 44C36 44.5523 36.3582 45 36.8 45H39.2C39.6418 45 40 44.5523 40 44C40 43.4477 39.6418 43 39.2 43Z" fill="#6667AB"/>
</svg>
