<svg width="50" height="50" viewBox="0 0 50 50" fill="none" xmlns="http://www.w3.org/2000/svg">
<g clip-path="url(#clip0_2825_3398)">
<path d="M41.045 6.13824C40.0127 5.86134 38.9333 6.00333 38.0061 6.53799C36.0949 7.64016 35.4326 10.0892 36.5297 11.9975C37.0617 12.9229 37.9229 13.5849 38.9548 13.8617C39.2998 13.9543 39.6499 14 39.9979 14C40.6914 14 41.3765 13.8181 41.9939 13.462C43.9051 12.3599 44.5674 9.91084 43.4703 8.00255C42.9382 7.07707 42.0768 6.41505 41.045 6.13824ZM41.2998 12.2673C40.6937 12.6166 39.9889 12.7095 39.3149 12.5288C38.6415 12.3482 38.0793 11.9159 37.7317 11.3114C37.0127 10.0606 37.447 8.45521 38.6999 7.73264C39.1036 7.49991 39.5512 7.38102 40.0043 7.38102C40.2314 7.38102 40.4599 7.41083 40.6847 7.47111C41.3581 7.65175 41.9204 8.08408 42.268 8.68849C42.9871 9.93946 42.5528 11.5448 41.2998 12.2673Z" fill="#6667AB"/>
<path d="M49.4634 12.6975L48.1106 11.5431C48.2172 10.7486 48.2051 9.95194 48.0749 9.16516L49.3495 8.08193C49.9135 7.60265 50.055 6.79147 49.6859 6.15312L48.5156 4.12987C48.1448 3.48892 47.3654 3.20236 46.6626 3.44857L44.9807 4.03736C44.3452 3.55405 43.6462 3.16969 42.8941 2.88995L42.5906 1.25395C42.4559 0.52721 41.8176 0 41.073 0C41.0729 0 41.0728 0 41.0727 0L38.7222 0.000288198C37.9793 0.000480329 37.3398 0.526537 37.2017 1.25097L36.8689 2.99706C36.1366 3.30121 35.4322 3.72169 34.8178 4.22181L33.2423 3.66962C32.5412 3.42408 31.7614 3.70939 31.3883 4.34881L30.2081 6.37224C29.8357 7.0106 29.9739 7.82236 30.5367 8.30249L31.8895 9.45692C31.783 10.2513 31.795 11.048 31.9253 11.8348L30.6507 12.9181C30.0867 13.3973 29.9452 14.2085 30.3143 14.8469L31.4844 16.87C31.8551 17.511 32.6342 17.7977 33.3375 17.5514L35.0194 16.9626C35.655 17.4459 36.354 17.8303 37.106 18.1101L37.4095 19.7462C37.5443 20.4728 38.1828 21 38.9274 21L41.2779 20.9997C42.0208 20.9995 42.6602 20.4735 42.7984 19.7489L43.1311 18.0028C43.8631 17.6986 44.568 17.2782 45.1822 16.7781L46.758 17.3303C47.4591 17.576 48.2389 17.2902 48.6117 16.6511L49.792 14.6276C50.1643 13.9893 50.026 13.1776 49.4634 12.6975ZM48.5322 13.9068L47.3518 15.9303C47.3295 15.9686 47.2839 15.9859 47.2433 15.9719L45.2683 15.2798C45.0147 15.1908 44.7322 15.2479 44.534 15.4279C43.8721 16.0289 43.0894 16.4977 42.2448 16.7988C42.0022 16.8852 41.824 17.0923 41.7762 17.3432L41.3687 19.4818C41.3602 19.5264 41.3219 19.5587 41.2777 19.5587L38.9274 19.559C38.885 19.559 38.8485 19.5282 38.8405 19.4857L38.4604 17.4363C38.4117 17.1741 38.2206 16.9598 37.9639 16.8794C37.1018 16.61 36.3176 16.1798 35.6331 15.6009C35.4066 15.4297 35.1684 15.3859 34.9182 15.4696L32.8525 16.1927C32.8121 16.207 32.7685 16.1909 32.747 16.1538L31.5769 14.1306C31.5542 14.0914 31.563 14.0413 31.5981 14.0115L33.1926 12.6564C33.3959 12.4837 33.4868 12.2143 33.4295 11.9552C33.236 11.0818 33.2216 10.1897 33.3867 9.30369C33.4336 9.05181 33.3421 8.79416 33.1462 8.6271L31.4864 7.2108C31.4526 7.18198 31.4449 7.13251 31.468 7.09302L32.6482 5.06959C32.6706 5.03135 32.7162 5.01397 32.7569 5.0279L34.7319 5.72005C34.9853 5.80882 35.2679 5.75185 35.4662 5.57182C36.1279 4.97093 36.9106 4.50174 37.7552 4.20096C37.9978 4.1146 38.1761 3.90748 38.2239 3.65665L38.6315 1.51794C38.6399 1.47336 38.6782 1.44099 38.7225 1.44099H41.0729C41.1153 1.44099 41.1517 1.47173 41.1596 1.51429L41.5398 3.56366C41.5885 3.82592 41.7796 4.04024 42.0363 4.12055C42.8986 4.39011 43.6828 4.8202 44.3671 5.39909C44.5646 5.56596 44.837 5.61611 45.082 5.53042L47.1477 4.80723C47.1886 4.79301 47.2317 4.80915 47.2532 4.84623L48.4233 6.86938C48.446 6.90858 48.4372 6.95872 48.4021 6.9885L46.8076 8.34361C46.6043 8.51634 46.5134 8.7857 46.5707 9.04479C46.7641 9.91803 46.7786 10.8101 46.6134 11.6963C46.5665 11.9482 46.658 12.2058 46.8539 12.3729L48.5137 13.7892C48.5474 13.8179 48.5551 13.8675 48.5322 13.9068Z" fill="#6667AB"/>
<path d="M11 26.5145C10.9996 25.207 9.8788 24.0512 8.5078 24.0572L8.07976 24.0561L8.07662 20.3742C8.0755 19.2561 6.27433 19.5197 6.55607 20.5622L6.55901 24.0523C5.83098 24.0504 5.10285 24.0486 4.37481 24.0467L4.36397 11.4293C4.36387 11.2988 4.32798 11.1707 4.26005 11.0582L2.44935 8.06042L2.44833 4.10618L8.45995 4.13328L8.46096 8.0401L6.65137 11.0517C6.58365 11.1643 6.54806 11.2922 6.54816 11.4225L6.55232 16.2761C6.29785 17.3006 8.07418 17.4817 8.07317 16.4494L8.06911 11.6203L9.8786 8.60882C9.94622 8.49634 9.98181 8.36854 9.98181 8.23848L9.97978 0.735978C9.97978 0.356308 9.61764 0 9.21718 0L1.68482 0.0213C1.27249 0.0223797 0.927383 0.356407 0.926673 0.755806L0.928701 8.26017C0.928701 8.39072 0.964591 8.51891 1.03262 8.63159L2.84342 11.6296L2.85407 24.0428L2.42542 24.0417C-0.535068 24.0499 -0.912315 28.4717 1.999 28.9633L1.97427 43.6391C1.96768 48.1345 8.94192 48.1003 8.94821 43.6565L8.97305 28.9374C10.1259 28.7188 11.0004 27.7148 11 26.5145ZM2.44793 2.63384L2.44762 1.49149L8.45914 1.47441L8.45944 2.66093L2.44793 2.63384ZM5.47046 45.6272C4.38698 45.6272 3.49349 44.6693 3.49501 43.6416L3.51975 28.9964L7.4522 28.9853L7.42746 43.6545C7.42594 44.7391 6.54796 45.6242 5.47046 45.6272ZM8.50455 27.51L2.42623 27.5271C1.19656 27.5271 1.2072 25.5175 2.42562 25.5141L8.508 25.5295C9.72815 25.5295 9.73687 27.5064 8.50455 27.51Z" fill="#6667AB"/>
<path d="M47.0924 41.5115L47.091 38.2719C47.0888 32.9531 44.6735 27.9905 40.4647 24.6565C40.0444 24.3235 39.3352 24.2897 38.88 24.5813C37.2722 23.4957 35.5105 22.7081 33.6273 22.2344C33.7016 21.8413 33.6215 21.3004 33.23 21.098C30.8861 19.887 28.0878 19.888 25.7451 21.1012C25.3537 21.3038 25.2741 21.8454 25.3488 22.2385C24.4847 22.4566 23.6461 22.7405 22.8363 23.0893L22.9085 14.4624C25.9104 13.722 27.4958 11.7932 27.5044 8.85349C27.5139 5.59739 25.5703 1.84803 22.9834 0.132347C22.3581 -0.119407 21.9762 0.0830123 21.8379 0.739802L21.82 6.82959C21.7931 7.15715 21.618 7.33749 21.2948 7.37071L18.1875 7.35527C17.8971 7.35381 17.6616 7.10743 17.6625 6.80585L17.6803 0.715965C17.5464 0.0595661 17.1664 -0.145491 16.5402 0.100792C13.9423 1.79147 11.976 5.52246 11.9665 8.77934C11.9579 11.7164 13.5303 13.6597 16.5242 14.4301L16.4427 26.5963C13.5269 29.7827 11.8969 33.9146 11.8988 38.2865L11.9001 41.5179C8.99489 42.4 9.55671 46.8229 12.6627 46.8229C14.8359 46.8229 16.8681 47.4655 18.7651 48.4785C20.6701 49.4739 22.815 50 24.9682 50H24.9738L34.0259 49.9962C36.1813 49.9952 38.3277 49.4674 40.2333 48.4696C42.1286 47.4449 44.1597 46.8097 46.3333 46.8089C49.397 46.8077 50.046 42.3694 47.0924 41.5115ZM38.2608 25.9362L38.2645 34.529C38.2647 34.9336 38.5945 35.2614 39.0013 35.2614H39.0015C39.4085 35.2612 39.7382 34.933 39.738 34.5284L39.7344 25.9537C43.4744 29.006 45.6154 33.482 45.6175 38.2725L45.619 41.3969H39.7411L39.7397 38.423C39.7395 38.0184 39.4097 37.6906 39.0029 37.6906C39.0028 37.6906 39.0027 37.6906 39.0026 37.6906C38.5956 37.6908 38.266 38.0189 38.2661 38.4236L38.2674 41.397H33.6356L33.6281 23.7507C35.2889 24.2116 36.8423 24.9445 38.2608 25.9362ZM32.1538 22.2097L32.162 41.3968H26.8306L26.8224 22.2118C28.5194 21.4711 30.4562 21.4703 32.1538 22.2097ZM25.3569 41.3969H20.7252L20.7186 25.9435C22.121 24.9613 23.698 24.2146 25.3495 23.7547L25.3569 41.3969ZM13.4401 8.78364C13.4467 6.5286 14.5929 3.93016 16.2022 2.27974L16.1891 6.80165C16.1858 7.90958 17.0791 8.8153 18.1803 8.82077L21.2877 8.8362C22.3618 8.8362 23.2906 7.89952 23.2937 6.83389L23.3069 2.31735C24.9067 3.98428 26.0376 6.59415 26.0309 8.84939C26.024 11.2499 24.7193 12.6567 22.0424 13.1499C21.6954 13.2138 21.4428 13.5133 21.4398 13.8643L21.3565 23.8151C20.9272 24.0531 20.508 24.3119 20.0981 24.5892C19.643 24.298 18.9335 24.3322 18.5137 24.6657C18.3133 24.8247 18.1182 24.9886 17.926 25.1549L18.0016 13.8509C18.0039 13.4987 17.754 13.1945 17.4062 13.127C14.7304 12.6065 13.433 11.1858 13.4401 8.78364ZM19.2449 25.9622L19.2515 41.3968H13.3736L13.3722 38.2859C13.3704 33.4955 15.5075 29.0176 19.2449 25.9622ZM47.2424 44.9599C47.0024 45.2071 46.6792 45.3433 46.3326 45.3435C43.9233 45.3444 41.6532 46.048 39.5468 47.173C37.8519 48.0605 35.9426 48.5301 34.0254 48.5308L24.9732 48.5346C24.9714 48.5346 24.97 48.5346 24.9682 48.5346C23.0529 48.5345 21.1448 48.0667 19.4505 47.1813C17.4097 46.0959 15.0191 45.2273 12.6627 45.3575C11.0118 45.3575 11.0439 42.8629 12.7141 42.8622H19.9886H26.0939H32.8989H39.0043H46.2789C47.3177 42.9238 48.0536 44.125 47.2424 44.9599Z" fill="#6667AB"/>
</g>
<defs>
<clipPath id="clip0_2825_3398">
<rect width="50" height="50" fill="white"/>
</clipPath>
</defs>
</svg>
