<svg width="50" height="50" viewBox="0 0 50 50" fill="none" xmlns="http://www.w3.org/2000/svg">
<path d="M32.6923 40.5V39C32.6923 38.2044 32.3681 37.4413 31.7911 36.8787C31.2141 36.3161 30.4314 36 29.6154 36H10.3846C9.56856 36 8.78594 36.3161 8.2089 36.8787C7.63187 37.4413 7.30769 38.2044 7.30769 39V40.5C6.69565 40.5 6.10868 40.7371 5.67591 41.159C5.24313 41.581 5 42.1533 5 42.75C5 43.3467 5.24313 43.919 5.67591 44.341C6.10868 44.7629 6.69565 45 7.30769 45H32.6923C33.3043 45 33.8913 44.7629 34.3241 44.341C34.7569 43.919 35 43.3467 35 42.75C35 42.1533 34.7569 41.581 34.3241 41.159C33.8913 40.7371 33.3043 40.5 32.6923 40.5ZM8.84615 39C8.84615 38.6022 9.00824 38.2206 9.29676 37.9393C9.58528 37.658 9.97659 37.5 10.3846 37.5H29.6154C30.0234 37.5 30.4147 37.658 30.7032 37.9393C30.9918 38.2206 31.1538 38.6022 31.1538 39V40.5H8.84615V39ZM32.6923 43.5H7.30769C7.10368 43.5 6.90802 43.421 6.76376 43.2803C6.61951 43.1397 6.53846 42.9489 6.53846 42.75C6.53846 42.5511 6.61951 42.3603 6.76376 42.2197C6.90802 42.079 7.10368 42 7.30769 42H32.6923C32.8963 42 33.092 42.079 33.2362 42.2197C33.3805 42.3603 33.4615 42.5511 33.4615 42.75C33.4615 42.9489 33.3805 43.1397 33.2362 43.2803C33.092 43.421 32.8963 43.5 32.6923 43.5Z" fill="#6667AB"/>
<path d="M45.3096 36.9753L29.1702 20.8446L32.609 17.4076C32.9362 17.5721 33.2972 17.6583 33.6634 17.6593C34.13 17.6589 34.586 17.5203 34.9739 17.261C35.3617 17.0017 35.664 16.6334 35.8425 16.2025C36.021 15.7716 36.0677 15.2975 35.9768 14.8401C35.8859 14.3827 35.6614 13.9625 35.3317 13.6325L26.3924 4.71382C25.9982 4.30895 25.4717 4.05892 24.9086 4.00917C24.3455 3.95942 23.7833 4.11326 23.3241 4.44272C22.8648 4.77218 22.5392 5.25539 22.4062 5.80451C22.2733 6.35363 22.3419 6.9322 22.5996 7.43505L19.1608 10.872L17.4847 9.16531C17.045 8.72941 16.4515 8.48367 15.8322 8.48107C15.5198 8.47511 15.2094 8.53269 14.9199 8.65032C14.6304 8.76794 14.3679 8.94315 14.1482 9.16531C13.7054 9.60736 13.4563 10.2071 13.4557 10.8326C13.4563 11.4582 13.7054 12.0579 14.1482 12.5L15.8164 14.1752L12.3698 17.6593C11.9305 17.4589 11.4414 17.3937 10.9649 17.4722C10.4885 17.5506 10.0461 17.7691 9.69434 18.0997C9.47426 18.3189 9.29963 18.5794 9.18048 18.8662C9.06133 19.153 9 19.4605 9 19.771C9 20.0815 9.06133 20.389 9.18048 20.6758C9.29963 20.9626 9.47426 21.2231 9.69434 21.4423L18.6021 30.2981C18.9969 30.6824 19.5137 30.9166 20.0631 30.96C20.6125 31.0035 21.1597 30.8534 21.6101 30.536C22.0604 30.2185 22.3854 29.7535 22.5287 29.2217C22.6721 28.6899 22.6248 28.1246 22.395 27.624L25.8337 24.1792L41.9731 40.31C42.4158 40.7518 43.0158 41 43.6414 41C44.267 41 44.867 40.7518 45.3096 40.31C45.7517 39.8676 46 39.2679 46 38.6426C46 38.0174 45.7517 37.4177 45.3096 36.9753ZM27.502 20.2862L26.3924 21.403L21.3799 26.405L13.5895 18.6188L17.524 14.7257L18.6414 13.6168L23.6461 8.6069L27.5807 12.5393L31.4758 16.4324L27.5807 20.3255L27.502 20.2862ZM24.1655 5.86208C24.3129 5.7156 24.5124 5.63338 24.7203 5.63338C24.9282 5.63338 25.1276 5.7156 25.275 5.86208L34.1828 14.7257C34.2565 14.7988 34.3151 14.8858 34.355 14.9817C34.395 15.0775 34.4155 15.1803 34.4155 15.2841C34.4155 15.388 34.395 15.4908 34.355 15.5866C34.3151 15.6824 34.2565 15.7694 34.1828 15.8425C34.1096 15.9163 34.0226 15.9748 33.9267 16.0147C33.8308 16.0546 33.728 16.0752 33.6241 16.0752C33.5202 16.0752 33.4173 16.0546 33.3215 16.0147C33.2256 15.9748 33.1385 15.9163 33.0654 15.8425L24.1655 6.93956C24.0283 6.7937 23.9519 6.60103 23.9519 6.40082C23.9519 6.20062 24.0283 6.00794 24.1655 5.86208ZM15.2656 11.3675C15.1913 11.2946 15.1321 11.2078 15.0916 11.1119C15.0511 11.016 15.03 10.9131 15.0295 10.8091C15.0325 10.6016 15.1174 10.4037 15.2656 10.2585C15.3363 10.184 15.4218 10.1252 15.5167 10.0859C15.6116 10.0466 15.7138 10.0277 15.8164 10.0304C16.0202 10.0333 16.2148 10.1151 16.3594 10.2585L18.0276 11.9259L17.4689 12.4764L16.9181 13.0348L15.2656 11.3675ZM20.829 29.1655C20.7559 29.2392 20.6688 29.2978 20.5729 29.3377C20.4771 29.3776 20.3742 29.3982 20.2703 29.3982C20.1664 29.3982 20.0636 29.3776 19.9677 29.3377C19.8718 29.2978 19.7848 29.2392 19.7116 29.1655L10.8432 20.2862C10.6967 20.1388 10.6144 19.9395 10.6144 19.7317C10.6144 19.5239 10.6967 19.3246 10.8432 19.1772C10.9907 19.0307 11.1901 18.9485 11.398 18.9485C11.6059 18.9485 11.8053 19.0307 11.9528 19.1772L20.829 28.0723C20.9028 28.1454 20.9613 28.2324 21.0013 28.3283C21.0412 28.4241 21.0618 28.5269 21.0618 28.6307C21.0618 28.7345 21.0412 28.8373 21.0013 28.9332C20.9613 29.029 20.9028 29.116 20.829 29.1891V29.1655ZM44.1922 39.1932C44.0448 39.3397 43.8453 39.4219 43.6374 39.4219C43.4295 39.4219 43.2301 39.3397 43.0827 39.1932L26.9433 23.0703L27.502 22.5119L28.0607 21.9535L44.1922 38.1078C44.3317 38.2541 44.4095 38.4484 44.4095 38.6505C44.4095 38.8526 44.3317 39.0469 44.1922 39.1932Z" fill="#6667AB"/>
</svg>
