<svg width="30" height="30" viewBox="0 0 30 30" fill="none" xmlns="http://www.w3.org/2000/svg">
<path d="M24.3333 1H5.66667C3.09347 1 1 3.09347 1 5.66667V24.3333C1 26.9065 3.09347 29 5.66667 29H24.3333C26.9065 29 29 26.9065 29 24.3333V5.66667C29 3.09347 26.9065 1 24.3333 1ZM27.1333 5.66667V14.0667H15.9333V2.86667H24.3333C25.8771 2.86667 27.1333 4.12293 27.1333 5.66667ZM5.66667 2.86667H14.0667V14.0667H2.86667V5.66667C2.86667 4.12293 4.12293 2.86667 5.66667 2.86667ZM2.86667 24.3333V15.9333H14.0667V27.1333H5.66667C4.12293 27.1333 2.86667 25.8771 2.86667 24.3333ZM24.3333 27.1333H15.9333V15.9333H27.1333V24.3333C27.1333 25.8771 25.8771 27.1333 24.3333 27.1333Z" fill="#6667AB"/>
<path d="M5.875 9.375H7.625V11.125C7.625 11.608 8.01612 12 8.5 12C8.98388 12 9.375 11.608 9.375 11.125V9.375H11.125C11.6089 9.375 12 8.983 12 8.5C12 8.017 11.6089 7.625 11.125 7.625H9.375V5.875C9.375 5.392 8.98388 5 8.5 5C8.01612 5 7.625 5.392 7.625 5.875V7.625H5.875C5.39113 7.625 5 8.017 5 8.5C5 8.983 5.39113 9.375 5.875 9.375Z" fill="#6667AB"/>
<path d="M18.875 10H24.125C24.6089 10 25 9.552 25 9C25 8.448 24.6089 8 24.125 8H18.875C18.3911 8 18 8.448 18 9C18 9.552 18.3911 10 18.875 10Z" fill="#6667AB"/>
<path d="M24.125 22H18.875C18.3911 22 18 22.448 18 23C18 23.552 18.3911 24 18.875 24H24.125C24.6089 24 25 23.552 25 23C25 22.448 24.6089 22 24.125 22Z" fill="#6667AB"/>
<path d="M24.125 19H18.875C18.3911 19 18 19.448 18 20C18 20.552 18.3911 21 18.875 21H24.125C24.6089 21 25 20.552 25 20C25 19.448 24.6089 19 24.125 19Z" fill="#6667AB"/>
<path d="M10.3591 21.9996L11.7181 20.6407C12.094 20.265 12.094 19.6576 11.7181 19.2818C11.3423 18.9061 10.7349 18.9061 10.3591 19.2818L9 20.6407L7.64093 19.2818C7.26512 18.9061 6.65767 18.9061 6.28186 19.2818C5.90605 19.6576 5.90605 20.265 6.28186 20.6407L7.64093 21.9996L6.28186 23.3595C5.90605 23.7353 5.90605 24.3427 6.28186 24.7184C6.46928 24.9058 6.71534 25 6.96139 25C7.20745 25 7.4535 24.9058 7.64093 24.7184L9 23.3595L10.3591 24.7184C10.5465 24.9058 10.7926 25 11.0386 25C11.2847 25 11.5307 24.9058 11.7181 24.7184C12.094 24.3427 12.094 23.7353 11.7181 23.3595L10.3591 21.9996Z" fill="#6667AB"/>
</svg>
