<svg width="30" height="30" viewBox="0 0 30 30" fill="none" xmlns="http://www.w3.org/2000/svg">
<g clip-path="url(#clip0_2738_4150)">
<path d="M0.894005 30H17.106C17.5998 30 18 29.6024 18 29.1119V27.2172C18 26.0594 17.2524 25.072 16.212 24.7054V23.5497C16.212 22.1437 15.0605 21 13.6452 21H4.35478C2.93951 21 1.78801 22.1437 1.78801 23.5497V24.7054C0.747565 25.072 0 26.0594 0 27.2172V29.1119C0 29.6024 0.400207 30 0.894005 30ZM4.35478 22.7763H13.6452C14.0745 22.7763 14.424 23.1232 14.424 23.5497V24.5528H3.57625V23.5497C3.57625 23.1232 3.92547 22.7763 4.35478 22.7763ZM1.78801 27.2172C1.78801 26.7273 2.18915 26.329 2.68201 26.329H15.3178C15.8109 26.329 16.212 26.7273 16.212 27.2172V28.2237H1.78801V27.2172Z" fill="#6667AB"/>
<path d="M9.83057 18.4574C10.7153 19.6254 12.3955 19.8674 13.5777 18.9827C14.3651 18.3935 14.7313 17.4524 14.624 16.5432C15.391 16.4134 16.1321 16.2013 16.8368 15.9152L25.1876 26.9409C26.0725 28.1096 27.753 28.3504 28.9347 27.4661C30.1132 26.5839 30.3504 24.913 29.4629 23.7413L21.1123 12.7157C21.5834 12.1216 21.9933 11.4726 22.3308 10.776C23.1904 11.1344 24.2 11.033 24.9786 10.4503C26.1573 9.56807 26.3945 7.89719 25.507 6.72547L21.2152 1.05898C20.3277 -0.112732 18.6468 -0.348229 17.4681 0.533963C16.6807 1.12317 16.3144 2.064 16.4218 2.97321C13.0609 3.54233 10.1955 5.68651 8.71547 8.73944C7.85749 8.38181 6.85225 8.47878 6.0672 9.06613C4.88567 9.9504 4.64923 11.6164 5.5388 12.7909L9.83057 18.4574ZM19.8727 14.0273L21.0638 15.5998L19.6386 16.6662L18.4476 15.0939C18.9523 14.7793 19.4289 14.4223 19.8727 14.0273ZM27.8617 26.0494C27.4687 26.3436 26.9085 26.2651 26.6126 25.8744L20.7114 18.0829L22.1366 17.0165L28.0377 24.8078C28.3336 25.1984 28.2544 25.7553 27.8617 26.0494ZM18.5412 1.95064C18.9353 1.65558 19.4953 1.73639 19.7903 2.12565L24.0818 7.79214C24.3777 8.18256 24.2987 8.73967 23.9058 9.03358C23.5121 9.32841 22.9535 9.25014 22.6569 8.85857L18.3651 3.19208C18.0692 2.80144 18.1482 2.24455 18.5412 1.95064ZM17.2361 4.6494C17.6223 5.15964 20.5428 9.0158 20.9356 9.53413C19.7183 12.4755 16.991 14.5172 13.8099 14.867L10.1104 9.98203C11.3291 7.03716 14.052 4.99964 17.2361 4.6494ZM7.14026 10.4828C7.53302 10.1887 8.09208 10.2656 8.38914 10.6578L12.6809 16.3243C12.6809 16.3243 12.6809 16.3243 12.6809 16.3245C12.9766 16.715 12.8976 17.2718 12.5049 17.566C12.1119 17.8599 11.5516 17.7814 11.2557 17.391L6.96397 11.7245C6.6676 11.3329 6.74634 10.7776 7.14026 10.4828Z" fill="#6667AB"/>
</g>
<defs>
<clipPath id="clip0_2738_4150">
<rect width="30" height="30" fill="white"/>
</clipPath>
</defs>
</svg>
