<svg width="30" height="30" viewBox="0 0 30 30" fill="none" xmlns="http://www.w3.org/2000/svg">
<path d="M25.6055 15.2575H22.6689C22.2692 15.2575 21.8822 15.3122 21.514 15.4127C20.7875 13.9826 19.3044 13 17.5954 13H12.4046C10.6956 13 9.21246 13.9826 8.48602 15.4127C8.11775 15.3122 7.7308 15.2575 7.33113 15.2575H4.39453C1.97139 15.2575 0 17.2317 0 19.6583V24.3595C0 25.8155 1.18283 27 2.63672 27H27.3633C28.8172 27 30 25.8155 30 24.3595V19.6583C30 17.2317 28.0286 15.2575 25.6055 15.2575ZM8.01006 17.401V25.2397H2.63672C2.15209 25.2397 1.75781 24.8449 1.75781 24.3595V19.6584C1.75781 18.2024 2.94064 17.0179 4.39453 17.0179H7.33113C7.56973 17.0179 7.80076 17.0503 8.02072 17.1101C8.01439 17.2064 8.01006 17.3032 8.01006 17.401ZM20.2321 25.2397H9.76787V17.4009C9.76787 15.9449 10.9507 14.7604 12.4046 14.7604H17.5954C19.0493 14.7604 20.2321 15.9449 20.2321 17.4009V25.2397ZM28.2422 24.3595C28.2422 24.8449 27.8479 25.2397 27.3633 25.2397H21.9899V17.4009C21.9899 17.3031 21.9856 17.2063 21.9793 17.11C22.1992 17.0503 22.4303 17.0178 22.6689 17.0178H25.6055C27.0594 17.0178 28.2422 18.2023 28.2422 19.6583V24.3595Z" fill="#6667AB"/>
<path d="M6 7C3.79438 7 2 8.79438 2 11C1.99994 13.2056 3.79438 15 6 15C8.20556 15 10 13.2056 10 11C10 8.79438 8.20562 7 6 7ZM5.99994 13.1994C4.78714 13.1994 3.8005 12.2128 3.8005 11C3.8005 9.7872 4.78714 8.80056 5.99994 8.80056C7.21274 8.80056 8.19938 9.7872 8.19938 11C8.19938 12.2128 7.21274 13.1994 5.99994 13.1994Z" fill="#6667AB"/>
<path d="M15 3C12.243 3 10 5.24297 10 8C10 10.757 12.243 13 15 13C17.757 13 20 10.757 20 8C20 5.24303 17.757 3 15 3ZM15 11.3153C13.1719 11.3153 11.6847 9.8281 11.6847 8C11.6847 6.17196 13.1719 4.68467 15 4.68467C16.8281 4.68467 18.3153 6.1719 18.3153 8C18.3153 9.8281 16.8281 11.3153 15 11.3153Z" fill="#6667AB"/>
<path d="M24 7C21.7944 7 20 8.79438 20 11C20.0001 13.2056 21.7944 15 24 15C26.2056 15 28 13.2056 28 11C28 8.79438 26.2056 7 24 7ZM24 13.1994C22.7873 13.1994 21.8006 12.2128 21.8006 11C21.8006 9.7872 22.7873 8.80056 24 8.80056C25.2128 8.80056 26.1994 9.7872 26.1994 11C26.1994 12.2128 25.2128 13.1994 24 13.1994Z" fill="#6667AB"/>
</svg>
