<svg width="50" height="50" viewBox="0 0 50 50" fill="none" xmlns="http://www.w3.org/2000/svg">
<g clip-path="url(#clip0_2866_1299)">
<path d="M49.908 11.8336C49.7359 11.2 49.316 10.6598 48.7415 10.3324C48.1665 10.0033 47.483 9.91425 46.8417 10.0846C46.2012 10.2554 45.6556 10.6707 45.3248 11.2395L44.9081 11.9573C44.5122 11.7321 44.0065 11.8646 43.7749 12.2546L41.6583 15.8262L40.9332 15.4138C40.7411 15.3038 40.5125 15.274 40.2984 15.3312C40.084 15.3888 39.9017 15.5282 39.7915 15.7191C39.5656 16.1134 39.7032 16.6145 40.0999 16.8409L40.825 17.2534L33.7418 29.4049L31.9917 34.0331L31.1584 35.5755C30.6705 36.4157 30.7226 37.4602 31.2918 38.2485L29.4169 40.5251L28.892 39.2221C28.6552 38.6412 28.1071 38.2432 27.4768 38.1945C26.8461 38.1454 26.2419 38.4539 25.9168 38.9909L25.6169 39.494L25.3337 36.1942C25.2686 35.4135 24.6579 34.786 23.8725 34.6917C23.0868 34.5978 22.343 35.0639 22.092 35.8067L20.0421 41.8947C19.8988 42.3253 20.1332 42.7893 20.5669 42.9343C20.6483 42.9718 20.7358 42.9944 20.8253 43C21.1834 43.0012 21.5024 42.7752 21.6171 42.4393L23.6585 36.3513L23.9503 39.7002C24.0105 40.4148 24.5293 41.0089 25.2348 41.1708C25.9404 41.3328 26.6703 41.025 27.0418 40.4099L27.3503 39.9064L27.867 41.2019C28.0863 41.7477 28.5823 42.1372 29.1695 42.2238C29.7566 42.3104 30.3458 42.0812 30.7169 41.6224L32.6586 39.189C32.8734 39.2446 33.0948 39.2724 33.317 39.2716C34.2101 39.2785 35.0393 38.8128 35.4918 38.0503L36.3251 36.6727L39.5001 32.8533L46.6582 20.5532L47.3833 20.9657C47.5765 21.0752 47.7173 21.2561 47.7747 21.4692C47.8325 21.6806 47.8024 21.9062 47.6917 22.0959L44.3584 27.813C44.2327 28.0007 44.19 28.2311 44.2404 28.451C44.2909 28.6705 44.4296 28.8603 44.6249 28.9759C44.817 29.0862 45.0457 29.116 45.2597 29.0589C45.4741 29.0012 45.6564 28.8619 45.7667 28.6709L49.1 22.9539C49.4324 22.3847 49.5223 21.708 49.3498 21.0732C49.1773 20.4392 48.7578 19.899 48.1832 19.5715L47.4581 19.1591L49.5414 15.587C49.7689 15.195 49.635 14.6948 49.2416 14.4652L49.6582 13.7474C49.9996 13.1693 50.0899 12.4789 49.908 11.8336ZM46.7664 12.0644C46.8767 11.8735 47.0598 11.7337 47.275 11.6769C47.4891 11.6246 47.7153 11.654 47.9082 11.7595C48.1014 11.8687 48.2422 12.0499 48.3 12.2626C48.3529 12.4745 48.3232 12.6984 48.2166 12.8894L47.7999 13.6072L46.3498 12.7822L46.7664 12.0644ZM35.4084 35.0973L34.9917 34.8581L33.7584 34.1483L34.9417 31.0137L37.5666 32.5149L35.4084 35.0973ZM32.9084 37.4811C32.5565 37.2382 32.4482 36.771 32.6586 36.4004L33.0753 35.683L34.525 36.508L34.1084 37.2173C33.9916 37.4179 33.7955 37.5605 33.5672 37.6108C33.3389 37.6608 33.1001 37.6141 32.9084 37.4811ZM38.5167 31.1623L35.6334 29.5124L42.2999 18.0783L45.1832 19.7282L38.5167 31.1623ZM46.0165 18.3011L43.1333 16.6512L44.7999 13.7969L47.6832 15.4468L46.0165 18.3011Z" fill="#6667AB"/>
<path d="M13.5354 37.2083L10.3949 40.2671L8.51374 38.4301C8.16758 38.0942 7.6087 38.0942 7.26254 38.4301C7.09445 38.593 7 38.8143 7 39.0453C7 39.2763 7.09445 39.498 7.26254 39.6604L9.14367 41.4974C9.4764 41.8197 9.9261 42.0004 10.3949 42C10.8662 42.0025 11.3198 41.8219 11.6547 41.4974L14.7866 38.4301C15.0882 38.0862 15.0678 37.5739 14.7403 37.254C14.4123 36.9338 13.8876 36.9139 13.5354 37.2083Z" fill="#6667AB"/>
<path d="M3 39.9999C3 43.8663 6.13408 47 10 47C13.8659 47 17 43.8663 17 39.9999C17 39.5451 16.6313 39.1763 16.1765 39.1763C15.7217 39.1763 15.3529 39.5451 15.3529 39.9999C15.3529 42.9563 12.9563 45.3529 10 45.3529C7.04366 45.3529 4.64706 42.9563 4.64706 39.9999C4.64706 37.0435 7.04366 34.6469 10 34.6469C11.1589 34.6436 12.2868 35.0196 13.2117 35.7177C13.5756 35.9907 14.0919 35.9168 14.3645 35.5528C14.6376 35.1889 14.564 34.673 14.2001 34.4C12.0789 32.8092 9.24081 32.5534 6.86954 33.7389C4.49787 34.9247 3 37.3487 3 39.9999Z" fill="#6667AB"/>
<path d="M29.1786 6.66667C29.6322 6.66667 30 6.29395 30 5.83333C30 5.37313 29.6322 5 29.1786 5H7.82143C7.3678 5 7 5.37313 7 5.83333V9.16667C7 9.62728 7.3678 10 7.82143 10H29.1786C29.6322 10 30 9.62728 30 9.16667C30 8.70646 29.6322 8.33333 29.1786 8.33333H8.64286V6.66667H29.1786Z" fill="#6667AB"/>
<path d="M10.8182 12C10.3663 12 10 12.4478 10 13C10 13.5527 10.3663 14 10.8182 14H27.1818C27.6337 14 28 13.5527 28 13C28 12.4478 27.6337 12 27.1818 12H10.8182Z" fill="#6667AB"/>
<path d="M32.1667 18H13.8333C13.3731 18 13 18.4478 13 19C13 19.5527 13.3731 20 13.8333 20H32.1667C32.6269 20 33 19.5527 33 19C33 18.4478 32.6269 18 32.1667 18Z" fill="#6667AB"/>
<path d="M24 24C24 23.4478 23.6337 23 23.1818 23H6.81818C6.36634 23 6 23.4478 6 24C6 24.5527 6.36634 25 6.81818 25H23.1818C23.6337 25 24 24.5527 24 24Z" fill="#6667AB"/>
<path d="M32.2222 23H26.7778C26.3483 23 26 23.4478 26 24C26 24.5527 26.3483 25 26.7778 25H32.2222C32.6517 25 33 24.5527 33 24C33 23.4478 32.6517 23 32.2222 23Z" fill="#6667AB"/>
<path d="M15.1667 29C15.6269 29 16 28.5527 16 28C16 27.4478 15.6269 27 15.1667 27H6.83333C6.37313 27 6 27.4478 6 28C6 28.5527 6.37313 29 6.83333 29H15.1667Z" fill="#6667AB"/>
<path d="M17.7778 29H23.2222C23.6517 29 24 28.5527 24 28C24 27.4478 23.6517 27 23.2222 27H17.7778C17.3483 27 17 27.4478 17 28C17 28.5527 17.3483 29 17.7778 29Z" fill="#6667AB"/>
<path d="M37.1739 38.3333C36.7177 38.3333 36.3478 38.7065 36.3478 39.1667V47.5C36.3478 47.9606 35.9779 48.3333 35.5217 48.3333H2.47826C2.02206 48.3333 1.65217 47.9606 1.65217 47.5V2.5C1.65217 2.03979 2.02206 1.66667 2.47826 1.66667H35.5217C35.9779 1.66667 36.3478 2.03979 36.3478 2.5V18.1502C36.3478 18.6104 36.7177 18.9836 37.1739 18.9836C37.6301 18.9836 38 18.6104 38 18.1502V2.5C38 1.11938 36.8903 0 35.5217 0H2.47826C1.10965 0 0 1.11938 0 2.5V47.5C0 48.881 1.10965 50 2.47826 50H35.5217C36.8903 50 38 48.881 38 47.5V39.1667C38 38.7065 37.6301 38.3333 37.1739 38.3333Z" fill="#6667AB"/>
</g>
<defs>
<clipPath id="clip0_2866_1299">
<rect width="50" height="50" fill="white"/>
</clipPath>
</defs>
</svg>
