<svg width="80" height="80" viewBox="0 0 80 80" fill="none" xmlns="http://www.w3.org/2000/svg">
<path d="M9.98775 1.13658C9.17291 1.63771 8.08646 1.76299 7.40742 2.3894C6.86419 2.76525 6.86419 3.51694 7.40742 3.89279C7.95065 4.14335 8.62968 3.89279 9.17291 3.76751C9.58033 3.64222 9.71614 3.39166 9.71614 3.01581C10.1236 2.76525 10.531 2.51468 10.8026 2.13884C11.3458 1.63771 10.6668 0.63545 9.98775 1.13658Z" fill="#6667AB"/>
<path d="M4.44138 9.09017C3.70394 9.78635 2.9665 10.6218 2.35197 11.4572C1.73744 12.2926 1 13.4065 1 14.3812C1 14.9381 1.61453 15.2166 1.86035 14.7989C2.47488 14.1027 2.59778 12.9888 3.08941 12.1534C3.58103 11.1787 4.19557 10.4825 4.93301 9.64711C5.17882 9.2294 4.68719 8.81169 4.44138 9.09017Z" fill="#6667AB"/>
<path d="M1.52 20.6133C1.2 19.5901 1.04 18.4389 1.04 17.2878C1.04 16.9041 0.24 16.9041 0.24 17.2878C0.24 18.8227 -0.72 21.8924 1.2 22.9156C1.52 23.1714 2 22.7877 2 22.5319C2 21.8924 1.68 21.2529 1.52 20.6133Z" fill="#6667AB"/>
<path d="M8.36683 26.4701C6.20355 26.7574 4.31068 27.1884 2.2826 26.0392C2.01219 25.8955 1.87699 26.1828 2.1474 26.3265C4.17547 27.9066 6.47396 28.6249 8.77245 27.332C9.31327 27.0447 8.77245 26.3265 8.36683 26.4701Z" fill="#6667AB"/>
<path d="M18.4455 19.0527C17.4474 19.448 16.6989 20.2386 15.8255 20.8975C14.8274 21.6881 13.9541 22.4787 13.0808 23.4011C12.8313 23.6646 13.2056 24.1917 13.5798 23.9282C14.3284 23.1376 15.2017 22.6105 16.0751 21.9516C16.9484 21.2928 18.0712 20.7657 18.8198 19.9751C19.1941 19.5798 18.9446 18.7891 18.4455 19.0527Z" fill="#6667AB"/>
<path d="M27.4385 10.0218C25.0562 11.003 22.8063 13.386 21.0857 15.3485C20.821 15.769 21.2181 16.1896 21.6151 15.9092C22.6739 14.928 23.865 13.9467 25.0562 13.1057C25.9826 12.4048 27.0414 11.8441 27.8355 11.003C28.2326 10.4423 27.8355 9.88161 27.4385 10.0218Z" fill="#6667AB"/>
<path d="M39.4788 5.01124C36.9771 4.89425 34.4755 5.71315 32.2518 6.41507C31.8348 6.53206 31.9738 7 32.3907 7C34.7534 6.41507 37.1161 6.1811 39.4788 6.06411C40.1737 5.94713 40.1737 5.01124 39.4788 5.01124Z" fill="#6667AB"/>
<path d="M48.3331 9.39079C47.6996 8.60722 46.8127 7.82365 46.0525 7.17067C45.419 6.64829 44.6588 7.43186 45.1656 8.08484C45.7993 8.73781 46.4326 9.52139 47.0661 10.305C47.6998 11.0885 48.3331 12.2639 49.22 12.9169C49.6001 13.1781 50.1069 12.7863 49.9802 12.2639C49.9802 11.2191 49.0933 10.1744 48.3331 9.39079Z" fill="#6667AB"/>
<path d="M50.9635 16.416C50.9635 15.8613 49.8719 15.8613 49.8719 16.416C49.716 17.8029 49.404 19.051 49.0918 20.4379C48.7799 21.686 48 22.9341 48 24.321C48 25.0144 49.0918 25.2918 49.404 24.5983C50.8078 22.2407 51.1195 18.9123 50.9635 16.416Z" fill="#6667AB"/>
<path d="M45.9246 30.2636C45.1976 31.2593 44.4711 32.2549 43.7442 33.2506C43.163 34.2462 42.1456 35.2419 42 36.3798C42 36.9487 42.5814 37.0909 43.0174 36.9487C44.0349 36.522 44.4709 35.2419 44.9069 34.3885C45.6337 33.2506 46.2151 31.9705 46.9418 30.8326C47.2327 30.1214 46.3606 29.6947 45.9246 30.2636Z" fill="#6667AB"/>
<path d="M38.5181 40.0852C37.3331 41.0988 36.4114 42.1125 35.6213 43.2528C34.8313 44.3931 33.7779 46.0402 34.0412 47.4339C34.1729 48.0674 34.8313 48.1941 35.2263 47.6873C35.8847 46.8004 36.0163 45.5334 36.4114 44.5198C36.9381 42.9994 37.8598 41.6057 38.9132 40.3386C39.1765 40.2119 38.7815 39.8318 38.5181 40.0852Z" fill="#6667AB"/>
<path d="M30.3884 53.1403C29.2041 54.1804 28.2829 55.3506 27.4934 56.7809C26.7038 58.2111 25.7827 60.0317 26.0459 61.5919C26.1775 62.112 26.967 62.112 27.0986 61.722C27.8882 60.5515 27.8882 58.9913 28.4145 57.691C28.9409 56.261 29.862 54.8306 30.9148 53.5303C31.178 53.2703 30.7832 52.7502 30.3884 53.1403Z" fill="#6667AB"/>
<path d="M30.7327 72.8143C29.8744 72.2889 29.1387 71.8947 28.5257 71.1063C27.9126 70.0552 27.6674 68.4784 27.6674 67.2958C27.6674 66.9014 27.0544 66.9014 27.0544 67.2958C26.8091 69.7924 27.2996 74.1283 30.4874 73.9971C30.9779 73.8657 31.2231 73.0773 30.7327 72.8143Z" fill="#6667AB"/>
<path d="M45.2241 77.8685C43.6919 77.7153 42.1593 78.0213 40.6272 78.0213C38.6766 77.8685 36.8656 77.2557 35.3333 76.0307C35.0547 75.8779 34.9153 76.3372 35.0547 76.4901C37.9801 78.9401 42.0202 81.0838 45.6422 79.3994C46.3385 78.9401 45.9206 77.8685 45.2241 77.8685Z" fill="#6667AB"/>
<path d="M56.8145 69.0592C55.8155 69.5828 54.9593 70.3682 53.8176 71.0227C52.8186 71.5463 51.6768 71.8081 50.5353 71.939C49.8216 72.0699 49.8216 72.9862 50.5353 72.9862C53.1041 73.1171 56.3863 72.3317 57.8134 70.1064C58.3845 69.4519 57.528 68.7972 56.8145 69.0592Z" fill="#6667AB"/>
<path d="M61.9126 61.2021C60.1739 63.011 58.3018 64.9591 57.0979 67.1854C56.6966 67.8814 57.6328 68.2986 58.0341 67.742C59.5052 65.794 61.9126 64.4025 62.9827 62.037C63.1163 61.3415 62.4476 60.6458 61.9126 61.2021Z" fill="#6667AB"/>
<path d="M71.9383 61.1325C71.5311 60.3798 70.4452 59.878 69.6308 59.5016C68.6807 59.1252 67.5949 59 66.509 59C65.8303 59 65.8303 59.878 66.509 59.878C67.4591 59.878 68.2735 60.1291 69.0879 60.5055C69.7668 60.8818 70.3097 61.5091 70.9881 61.8853C71.5311 62.2614 72.2095 61.6344 71.9383 61.1325Z" fill="#6667AB"/>
<path d="M79.8666 66.1204C78.0365 63.1275 76.86 59.7441 75.2913 56.621C74.5069 55.1896 72.4153 56.4909 73.069 57.9223C74.2455 60.5247 75.2913 63.2576 76.86 65.7301C75.6834 65.8602 74.5069 65.9903 73.1997 66.1204C72.6768 66.2506 71.7617 66.2506 71.3695 66.7713L71.239 66.9012C71.239 66.9012 71.1083 66.9012 71.1083 67.0314C70.8468 67.2916 71.1083 67.8121 71.3697 67.8121C71.5005 67.9423 71.6314 67.9423 71.8926 67.9423C72.5465 68.0722 73.1999 67.9423 73.9842 67.9423C75.6837 67.8121 77.2524 67.6818 78.9518 67.8121C79.7359 67.9423 80.2588 66.9012 79.8666 66.1204Z" fill="#6667AB"/>
</svg>
