<svg width="40" height="40" viewBox="0 0 40 40" fill="none" xmlns="http://www.w3.org/2000/svg">
<path fill-rule="evenodd" clip-rule="evenodd" d="M12.7733 20.6726C12.8861 19.9897 13.537 19.295 14.2201 19.1284C14.4896 19.0626 17.2326 19.0201 20.3157 19.034C25.7307 19.0585 25.9348 19.0695 26.3213 19.3582C27.2526 20.0539 27.2906 20.191 27.3017 22.8919L27.3032 23.2581C27.3079 24.4226 28.2523 25.3647 29.4168 25.3666C31.9157 25.3707 32.5078 25.4853 33.1032 26.0802C33.3903 26.367 33.5547 26.7541 33.5617 27.1598L33.5961 29.1334L33.6044 29.6112C33.625 30.7931 34.5879 31.741 35.77 31.7429C38.3875 31.7471 38.9136 31.8568 39.529 32.5266C39.8319 32.8564 40 33.2879 40 33.7358V35.8021C40 38.8728 39.9222 39.2064 39.0871 39.7155C38.6333 39.9923 38.2154 39.9985 20.029 39.999C2.29048 39.9995 0.90885 40.0473 0.477473 39.4306C0.4095 39.3334 0.365121 39.2197 0.284058 39.0867C0.0294202 38.6692 0.00101417 38.3445 0.000579392 35.8383L0.000140876 33.7308C5.00743e-05 33.2944 0.158768 32.8729 0.446667 32.545C1.05203 31.8556 1.5813 31.7411 4.16667 31.7403C5.38744 31.7398 6.37681 30.75 6.37681 29.5293V29.2012V27.3595C6.37681 26.9117 6.5449 26.4802 6.84783 26.1503C7.46203 25.4817 7.99 25.3708 10.5797 25.3666L10.6161 25.3666C11.7571 25.3647 12.6811 24.4392 12.681 23.2981C12.6809 22.1623 12.7225 20.9808 12.7733 20.6726ZM23.1886 25.2907C24.3491 25.2907 25.2899 24.3499 25.2899 23.1895C25.2899 22.0265 24.3516 21.0814 23.1887 21.073L20.0323 21.0501C15.7986 21.0195 14.7607 21.0492 14.7019 21.2024C14.6617 21.307 14.6471 22.2697 14.6696 23.3416C14.6921 24.4246 15.5765 25.2907 16.6597 25.2907H20H23.1886ZM16.8118 31.667C17.9723 31.667 18.913 30.7262 18.913 29.5657C18.913 28.4027 17.9748 27.4576 16.8118 27.4492L13.6555 27.4263C9.42174 27.3957 8.38391 27.4254 8.32507 27.5786C8.28493 27.6833 8.27029 28.6459 8.29275 29.7179C8.3153 30.8008 9.19966 31.667 10.2829 31.667H13.6232H16.8118ZM29.5654 31.667C30.7259 31.667 31.6667 30.7262 31.6667 29.5657C31.6667 28.4027 30.7284 27.4576 29.5655 27.4492L26.4091 27.4263C22.1754 27.3957 21.1375 27.4254 21.0787 27.5786C21.0385 27.6833 21.0239 28.6459 21.0464 29.7179C21.0689 30.8008 21.9533 31.667 23.0365 31.667H26.3768H29.5654ZM10.44 38.0351C11.5981 38.034 12.5362 37.0949 12.5362 35.9369C12.5362 34.7767 11.6002 33.8339 10.4401 33.8254L7.30855 33.8027C4.43333 33.7817 2.0529 33.7926 2.0187 33.8268C1.90391 33.9417 1.96275 37.8078 2.08116 37.9262C2.14551 37.9906 4.5242 38.0409 7.36725 38.0381L10.44 38.0351ZM23.1971 38.0433C24.3556 38.0339 25.2899 37.0921 25.2899 35.9335C25.2899 34.7752 24.3553 33.8339 23.1971 33.8255L20.0622 33.8027C17.187 33.7817 14.7901 33.8089 14.7361 33.863C14.682 33.9172 14.6377 34.8559 14.6377 35.9493V37.1722C14.6377 37.6074 14.9659 37.9725 15.3986 38.0187C15.817 38.0635 18.2138 38.0835 20.7246 38.0632L23.1971 38.0433ZM35.9089 38.0332C37.0696 38.0324 38.0132 37.0969 38.0239 35.9363C38.0347 34.7797 37.1045 33.834 35.9478 33.8257L32.7135 33.8027L29.5211 33.7799C28.3496 33.7715 27.4016 34.7306 27.4236 35.9019C27.4459 37.0885 28.4146 38.0385 29.6013 38.0377L32.7341 38.0355L35.9089 38.0332Z" fill="black"/>
<path fill-rule="evenodd" clip-rule="evenodd" d="M22.971 1.33561C12.9649 5.4706 13.4401 5.25628 13.0717 5.79971C12.788 6.21822 12.7387 6.44182 12.7897 7.07814C12.8512 7.843 12.8654 7.86314 14.5032 9.50546L15.6263 10.6317C15.9182 10.9244 15.9179 11.3983 15.6255 11.6906C15.2922 12.0239 14.8221 12.182 14.3551 12.1178L12.618 11.8789L11.3334 11.7023C10.5808 11.5988 9.82298 11.8515 9.28304 12.3858L8.82255 12.8414C8.58484 13.0766 8.22531 13.1378 7.92319 12.9944C7.3429 12.7191 6.49928 12.6839 6.04116 12.916C5.58913 13.145 0.456522 18.257 0.207681 18.7261C0.0934781 18.9414 0 19.4265 0 19.8042C0 20.4746 0.0302894 20.5211 1.27696 21.7677C2.52362 23.0142 2.57014 23.0445 3.24058 23.0445C3.61841 23.0445 4.10348 22.9511 4.31884 22.8369C4.78797 22.5881 9.90044 17.4559 10.1294 17.0039C10.3688 16.5315 10.3232 15.5378 10.0403 15.0587C9.79159 14.6378 9.79246 14.6346 10.2939 14.1365C10.6107 13.8218 11.0571 13.6746 11.4989 13.7391L13.1806 13.9845C14.4914 14.1758 15.6464 14.2862 15.747 14.23C15.8475 14.1737 16.2943 13.7765 16.7399 13.3474C17.1905 12.9134 17.9051 12.9179 18.3503 13.3576L19.2594 14.2555L20.3993 15.3813C20.7642 15.7416 21.2564 15.9437 21.7693 15.9437C22.671 15.9437 23.1794 15.6474 23.5686 14.8947C23.879 14.2947 28.5532 2.93967 28.7112 2.40218C28.8991 1.76253 28.6239 0.966951 28.0364 0.451055C27.1936 -0.288879 26.6885 -0.200626 22.971 1.33561ZM21.7501 13.9149C21.8181 13.9149 26.1291 3.58816 26.6051 2.28553C26.6559 2.14612 26.6417 2.03801 26.5735 2.0454C26.4257 2.06149 14.8846 6.8273 14.7891 6.91178C14.7529 6.94395 15.3557 7.60259 16.1286 8.37542L16.3372 8.58409C16.9987 9.24547 18.0706 9.24689 18.7338 8.58728C19.7146 7.61157 20.0149 7.39377 20.3791 7.39377C21.0117 7.39377 21.3746 7.84648 21.3214 8.56931C21.312 8.69771 20.7677 9.33374 20.1119 9.98252C19.454 10.6334 19.45 11.6949 20.103 12.3506L20.2901 12.5385C21.0441 13.2956 21.7012 13.9149 21.7501 13.9149ZM7.67772 16.7432C8.03711 16.3838 8.03987 15.802 7.68391 15.4393C7.33029 15.0792 7.00507 14.7844 6.96102 14.7844C6.91696 14.7844 5.77362 15.893 4.42043 17.2478L2.64695 19.0234C2.26749 19.4033 2.26769 20.0189 2.64739 20.3985C3.02705 20.7781 3.64249 20.7781 4.0221 20.3985L5.83072 18.59L7.67772 16.7432Z" fill="white"/>
</svg>
