<svg width="40" height="42" viewBox="0 0 40 42" fill="none" xmlns="http://www.w3.org/2000/svg">
<path fill-rule="evenodd" clip-rule="evenodd" d="M16.613 15.1497C16.3286 15.3675 12.7614 19.5659 12.6754 19.7841C12.5158 20.189 12.7167 20.3916 14.7396 21.8654C16.9059 23.4439 17.061 23.5149 17.4901 23.1261C17.6253 23.0035 18.1856 22.3134 18.735 21.5927C19.8686 20.1056 19.6749 20.165 20.2478 21.1287L20.3422 21.2876C20.4475 21.4647 20.3839 21.6938 20.2024 21.7912V21.7912C19.8453 21.983 19.6924 22.2561 19.7711 22.5614C19.879 22.9798 19.9538 23.0098 22.289 23.5693C24.3817 24.0707 24.5673 24.1029 24.8072 24.0053C25.0216 23.9181 25.2704 23.5811 26.2505 22.0506C27.4394 20.1942 27.5451 19.9603 27.3531 19.611C27.2102 19.351 26.7003 19.2878 26.2241 19.4712C26.1349 19.5055 26.0332 19.3622 25.8281 18.9133C24.941 16.9719 24.1353 15.3277 23.9965 15.1752V15.1752C23.8948 15.0636 23.7508 15 23.5999 15H20.3227C16.9767 15 16.7992 15.0072 16.613 15.1497ZM18.1226 20.1351C18.6768 19.4244 18.7535 18.4517 18.3177 17.663V17.663C17.9224 16.9478 17.544 16.3516 17.4766 16.3382C17.3992 16.3227 16.8161 16.9463 15.891 18.034C15.0862 18.9802 14.4173 19.7836 14.4045 19.8195C14.3833 19.8794 16.7095 21.5992 16.8664 21.6395C16.9045 21.6493 17.4083 21.0513 17.9859 20.3104L18.1226 20.1351ZM23.901 18.0367C23.4907 17.1588 23.1439 16.4259 23.13 16.408C23.079 16.3419 19.1862 16.3554 19.1862 16.4216C19.1862 16.4973 19.6617 17.3509 21.1559 19.957C21.8073 21.0932 22.1453 21.7625 22.1453 21.9161V21.9161C22.1453 22.0527 22.2396 22.1711 22.3727 22.2017L23.1649 22.3836C23.7258 22.5124 24.1867 22.6119 24.1893 22.6047C24.1919 22.5976 24.4371 22.2163 24.7343 21.7573L24.8847 21.5251C25.1266 21.1513 25.1555 20.6783 24.9607 20.2779V20.2779C24.788 19.9232 24.3112 18.9146 23.901 18.0367Z" fill="white"/>
<path fill-rule="evenodd" clip-rule="evenodd" d="M28.5017 22.895C27.7522 23.2129 24.4692 25.0173 24.2767 25.2171C24.0989 25.4016 24.0588 25.5023 24.0943 25.6753C24.1193 25.7971 24.5354 26.5899 25.0187 27.4367L25.7291 28.6813C25.8099 28.8228 25.7223 29.0012 25.561 29.0238V29.0238C25.3758 29.0498 25.0175 29.0939 24.7645 29.1218L24.6573 29.1337C24.4691 29.1544 24.3046 29.0071 24.3046 28.8178V28.8178C24.3046 28.5341 24.2622 28.4247 24.093 28.272C23.8705 28.0713 23.5246 28.0237 23.2664 28.1583C23.1303 28.2291 20.7583 31.1113 20.4294 31.6054C20.3332 31.7498 20.3019 31.8967 20.334 32.0529C20.3772 32.263 22.5397 35.4838 22.8547 35.8072C22.9267 35.8811 23.101 35.964 23.242 35.9915C23.597 36.0606 23.9847 35.6964 23.9847 35.2937V35.2937C23.9847 35.1418 24.1071 35.0182 24.259 35.0167L26.4118 34.9957C28.4252 34.9761 28.8639 34.9521 28.9851 34.8553C29.1152 34.7514 29.5211 33.9706 30.1792 32.5583C30.2989 32.3013 30.7589 31.3225 31.2013 30.3832C31.6438 29.4437 32.0032 28.5851 32 28.475C31.9909 28.1671 29.4023 23.0691 29.1769 22.9155C28.9519 22.762 28.8243 22.7581 28.5017 22.895ZM29.9239 27.1942C29.5486 26.4615 29.0866 25.5379 28.8972 25.1418C28.7077 24.7457 28.5235 24.4218 28.488 24.422C28.4332 24.4223 25.844 25.7938 25.7528 25.8707C25.7355 25.8853 26.1111 26.5791 26.5873 27.4126C27.3963 28.8286 27.4666 28.9259 27.6583 28.8971C27.7712 28.88 28.4574 28.8247 29.1832 28.7742C29.9089 28.7236 30.526 28.6472 30.5544 28.6044C30.5828 28.5615 30.2991 27.9269 29.9239 27.1942ZM26.2525 33.6103C27.4369 33.6098 28.5136 32.9228 29.0131 31.8489V31.8489C29.4636 30.8807 29.821 30.0825 29.8075 30.0751C29.764 30.0515 26.9311 30.2464 26.0641 30.3326C25.6022 30.3786 24.9544 30.4356 24.6245 30.4594C24.2946 30.4831 23.944 30.519 23.8454 30.539C23.7469 30.559 23.5436 30.5255 23.3936 30.4645V30.4645C23.2321 30.3988 23.0465 30.4473 22.9377 30.5836L22.4736 31.165V31.165C22.0898 31.6458 22.0608 32.3233 22.4055 32.8328V32.8328C22.8804 33.5346 23.0139 33.6823 23.145 33.6504C23.233 33.6291 24.405 33.6111 25.7496 33.6105L26.2525 33.6103Z" fill="white"/>
<path fill-rule="evenodd" clip-rule="evenodd" d="M12.1084 23.0239C11.4926 23.0542 10.8341 23.0831 10.6452 23.0883C10.2111 23.1003 9.90903 23.3634 9.90903 23.7292C9.90903 23.9163 9.98453 24.0483 10.2117 24.2588V24.2588C10.3869 24.421 10.4205 24.6855 10.2914 24.8863L9.41431 26.2518C8.03417 28.4001 7.95227 28.5486 8.01449 28.79C8.04169 28.8954 8.60975 29.7514 9.27691 30.6921C9.94398 31.6329 10.836 32.9163 11.2591 33.5443C11.6822 34.1722 12.1239 34.7416 12.2406 34.8096C12.4246 34.9166 12.8601 34.9331 15.5033 34.9331H18.2797C18.4554 34.9331 18.6241 34.8645 18.7499 34.742V34.742C18.8579 34.6369 18.9508 34.488 18.9562 34.4111C19.0022 33.7624 18.9831 29.9371 18.9329 29.7532C18.815 29.3209 18.6148 29.2739 16.627 29.2123C15.6373 29.1816 14.8167 29.1464 14.8035 29.134C14.7903 29.1216 14.9301 28.8158 15.1141 28.4546L15.2533 28.1813C15.361 27.9699 15.6203 27.8867 15.8308 27.996V27.996C16.1999 28.1876 16.2222 28.1901 16.4872 28.0671C16.6448 27.9939 16.8029 27.8421 16.8592 27.7101C16.9489 27.499 16.8921 27.3082 16.1558 25.3476C15.6187 23.9172 15.298 23.1698 15.1823 23.0784C14.9918 22.9279 14.3133 22.9159 12.1084 23.0239ZM14.8158 26.2517C14.9261 26.1813 14.9712 26.0426 14.9234 25.9207L14.6323 25.1787L14.3595 24.4834C14.2986 24.3281 14.1501 24.2249 13.9833 24.222V24.222C13.8318 24.2192 13.359 24.2293 12.9326 24.2442C12.2134 24.2694 12.1535 24.2838 12.1043 24.4438C12.0752 24.5386 11.8433 24.949 11.589 25.3559C9.92223 28.023 9.58793 28.5886 9.62416 28.6806C9.64647 28.7373 10.1386 29.4692 10.7175 30.307L11.2999 31.1497C11.5157 31.4619 11.9848 31.4373 12.1666 31.1042V31.1042C12.3846 30.7048 13.027 29.4769 13.5943 28.3755C14.2564 27.0899 14.6937 26.3295 14.8158 26.2517V26.2517ZM17.5867 32.13C17.5867 31.3164 17.5777 30.6476 17.5667 30.6438C17.5557 30.64 16.7638 30.5963 15.807 30.5464L15.5822 30.5348C14.657 30.4866 13.7867 30.9755 13.3465 31.7907V31.7907L12.7587 32.8792C12.6761 33.0321 12.6792 33.2169 12.7669 33.3669V33.3669V33.3669C12.8544 33.5165 13.0146 33.6085 13.1879 33.6085L15.2474 33.609L16.1073 33.6092C16.9243 33.6093 17.5867 32.947 17.5867 32.13V32.13Z" fill="white"/>
<path d="M6.54491 25.1772L6.54491 25.1772L6.38973 23.6901L6.38971 23.69C6.3241 23.0629 5.97347 19.7668 5.85658 18.6795C5.76275 17.8061 5.25614 12.9729 5.09412 11.4061H35.0024C34.998 11.454 34.9931 11.5057 34.9878 11.5609C34.961 11.8387 34.9239 12.1989 34.8831 12.5739C34.801 13.3281 34.6625 14.6321 34.5753 15.4722C34.4881 16.3114 34.3826 17.2953 34.3411 17.6585C34.2988 18.0276 34.1434 19.4922 33.9958 20.9118C33.8481 22.3319 33.6253 24.4446 33.5007 25.6062C33.0747 29.5745 32.6566 33.5909 32.5384 34.8484C32.3978 36.344 32.2749 36.8902 32.0386 37.3752C31.9391 37.5795 31.7076 37.8878 31.4207 38.189C31.1314 38.4927 30.8471 38.7245 30.6728 38.8145L30.6728 38.8145C30.6232 38.8402 30.578 38.8643 30.5382 38.8856L30.5371 38.8862C30.4674 38.9234 30.4171 38.9501 30.3674 38.9736L30.5812 39.4256L30.3674 38.9736C30.173 39.0656 29.9401 39.1388 28.7158 39.1743C27.5063 39.2094 25.4105 39.2092 21.5565 39.2087L20.0363 39.2086C15.3273 39.2086 12.9164 39.2076 11.6217 39.1878C10.3317 39.168 10.2053 39.128 10.0496 39.0787L10.0426 39.0765C9.25497 38.8275 8.50205 38.2034 8.0871 37.444L7.64833 37.6838L8.0871 37.444C7.87045 37.0476 7.67544 36.2998 7.61956 35.5245L7.159 35.5577L7.61956 35.5244C7.57669 34.93 7.3889 33.1134 6.81346 27.7197L6.31628 27.7728L6.81346 27.7197C6.73082 26.9452 6.60994 25.8009 6.54491 25.1772ZM35.0292 11.082V11.0822V11.082ZM17.6189 6.57557L20.1181 6.57793L35.9993 6.59228C36.1903 6.59245 36.3786 6.6373 36.5492 6.72324C37.4092 7.1566 37.4077 8.4733 36.5541 8.90337L36.554 8.90339C36.3804 8.99086 36.1887 9.03642 35.9943 9.03642H20.0039C12.0245 9.03642 7.92439 9.0354 5.78293 9.01636C4.70901 9.00681 4.13961 8.99277 3.82283 8.97303C3.66351 8.96311 3.586 8.9527 3.54776 8.94518C3.54023 8.9437 3.53529 8.94253 3.53242 8.94179C3.2452 8.79547 2.98435 8.51344 2.89302 8.29172L2.89299 8.29165C2.80593 8.08038 2.78996 7.79252 2.85963 7.50443C2.92979 7.21427 3.07091 6.98782 3.22386 6.86842L3.22387 6.86842C3.26057 6.83977 3.29178 6.81306 3.31384 6.79419L3.31577 6.79253L3.31578 6.79253C3.33548 6.77568 3.34616 6.76661 3.35594 6.75885C3.37033 6.74742 3.37559 6.74372 3.39607 6.73625C3.42802 6.72459 3.4965 6.70568 3.64048 6.68668C3.93258 6.64813 4.44303 6.62007 5.39414 6.60183C7.28585 6.56556 10.8261 6.56897 17.6189 6.57557ZM19.4359 0.519376L19.4359 0.519378C18.9282 0.592049 18.4025 0.762776 17.8748 1.01708L17.8747 1.0171C17.2749 1.30626 16.6902 1.84191 16.2409 2.41921C15.8131 2.96893 15.4582 3.62069 15.3493 4.22297H9.78886C7.71602 4.22297 6.18414 4.22975 5.13455 4.24419C4.61012 4.25141 4.20311 4.26057 3.908 4.2719C3.6351 4.28238 3.40895 4.2957 3.28631 4.3223L3.28619 4.32233C1.05372 4.80713 -0.137788 7.29511 0.85092 9.36092C1.15899 10.0047 1.8058 10.6437 2.46065 10.9636L2.68011 10.5143L2.46066 10.9636C2.59593 11.0296 2.68755 11.1608 2.70301 11.3106L2.78533 12.1082C2.78534 12.1083 2.78534 12.1083 2.78534 12.1083C2.86 12.8323 3.17694 15.8372 3.48956 18.7856C4.27447 26.1892 4.3265 26.6792 4.58733 29.1174L5.08122 29.0645L4.58733 29.1174C4.71394 30.3008 4.90563 32.1142 5.01326 33.1468C5.12096 34.1801 5.25876 35.488 5.31941 36.0534L5.81656 36.0001L5.31941 36.0535C5.40849 36.8836 5.55718 37.5646 5.82011 38.1736C6.08508 38.7872 6.45515 39.3026 6.95542 39.8159L6.95544 39.816C7.60633 40.4838 8.33629 40.9416 9.24679 41.2589L9.24683 41.259C9.70474 41.4185 10.1862 41.5 10.6711 41.5H29.3366C29.8215 41.5 30.303 41.4185 30.7609 41.259L30.7609 41.2589C31.6699 40.9421 32.4003 40.4845 33.0518 39.8178C34.014 38.8331 34.5755 37.5796 34.6844 36.1864L34.6844 36.1863C34.7106 35.8504 34.8155 34.8009 34.9179 33.8531C35.0202 32.9055 35.2248 30.9855 35.3725 29.5863C35.8076 25.4661 36.3095 20.7365 36.7512 16.5944C36.9784 14.4643 37.2074 12.2859 37.26 11.7547L37.3037 11.3131C37.3186 11.1625 37.4105 11.0303 37.5465 10.9638L37.3289 10.5182L37.5466 10.9638C37.887 10.7975 38.2311 10.5264 38.5161 10.2368C38.7993 9.94899 39.0616 9.60479 39.2066 9.26922L39.2066 9.26919C39.9152 7.6299 39.2994 5.58686 37.7775 4.7163L37.7762 4.7155C37.5907 4.60941 37.4038 4.50252 37.1319 4.42487C36.8698 4.35003 36.5496 4.30757 36.0822 4.28012C35.1512 4.22544 33.5015 4.22476 30.2744 4.22414L24.6819 4.22304C24.2306 2.50139 22.8826 1.05053 21.2705 0.65403L21.1511 1.13938L21.2705 0.654028C21.024 0.593423 20.6604 0.548229 20.332 0.523212C20.0126 0.498889 19.6555 0.487953 19.4359 0.519376ZM15.3368 4.29963C15.3368 4.29928 15.3369 4.29893 15.3369 4.29858C15.3369 4.29892 15.3368 4.29926 15.3368 4.2996L15.3368 4.29963ZM18.3319 3.52406L18.3319 3.52402C18.5426 3.32699 18.6958 3.21051 18.8529 3.12432C19.0104 3.03786 19.1944 2.96942 19.4809 2.89412L19.4809 2.8941C19.715 2.83256 19.8381 2.81138 19.9549 2.80865C20.0755 2.80584 20.2161 2.82204 20.4865 2.87319C21.239 3.01561 21.878 3.49091 22.2166 4.14923C22.2291 4.17352 22.2416 4.19818 22.254 4.22297H20.0472C18.9479 4.22297 18.2465 4.21899 17.8087 4.20692C17.8132 4.19944 17.8178 4.19192 17.8224 4.18437C17.9832 3.92159 18.1793 3.66677 18.3319 3.52406ZM17.2812 4.17391C17.2812 4.17389 17.2823 4.17411 17.2843 4.17461C17.2821 4.17417 17.2811 4.17392 17.2812 4.17391Z" fill="black" stroke="black"/>
</svg>
