<svg width="38" height="40" viewBox="0 0 38 40" fill="none" xmlns="http://www.w3.org/2000/svg">
<path d="M32.0445 0.119098C31.6281 0.335955 30.9458 0.465636 29.1154 0.675809C26.8392 0.937191 25.6565 1.20559 24.5974 1.70119C23.4945 2.21727 22.4793 3.18038 21.9772 4.18696C21.4084 5.32726 21.2838 6.84858 21.6537 8.13842C21.8295 8.75172 22.2546 9.59645 22.5317 9.88294C22.8273 10.1887 22.9777 10.2268 23.2634 10.0687C23.5832 9.89164 23.6751 9.68993 23.7956 8.90093C23.9769 7.71466 24.2329 6.92224 24.691 6.12925C25.0908 5.43704 25.7111 4.73757 26.3705 4.23519C26.6824 3.99756 27.7123 3.39358 27.8056 3.39358C27.8281 3.39358 27.7073 3.59371 27.5374 3.83836C26.762 4.95447 26.1793 6.14641 25.797 7.39918C25.354 8.85025 24.7757 11.6866 24.5448 13.5392C24.2879 15.6013 24.0755 18.9285 24.0645 21.0643L24.0608 21.7782C24.0597 22.0038 24.1155 22.2261 24.2232 22.4243C24.4159 22.7792 24.6302 22.9809 24.9887 23.1448C25.2157 23.2486 25.2984 23.2609 25.6411 23.242C26.0883 23.2174 26.4098 23.0826 26.6679 22.8116C26.7519 22.7233 26.987 22.3602 27.1904 22.0046C27.632 21.2322 27.9503 20.752 28.3297 20.2859C28.8538 19.642 28.9516 19.6177 29.4844 19.9994C30.5609 20.7707 30.9423 20.8931 32.275 20.895C33.0864 20.8962 33.343 20.8496 33.8445 20.6103C34.9555 20.0799 35.5495 19.4522 36.8958 17.3859C37.2491 16.8437 37.6421 16.2603 37.769 16.0893C37.8961 15.9183 38 15.7553 38 15.7272C38 15.699 37.7129 15.4772 37.3619 15.2342C37.011 14.9912 36.4028 14.5435 36.0104 14.2393C34.8825 13.3647 34.0587 12.9119 33.2003 12.6944C31.729 12.3218 30.0991 12.814 29.0594 13.9449C28.5078 14.5448 28.1302 15.5014 28.337 15.7751C28.4366 15.9068 28.7921 15.8954 29.5969 15.7345C29.9412 15.6657 30.4473 15.5872 30.7216 15.56C31.7231 15.4609 33.4734 15.5208 33.4734 15.6542C33.4734 15.6749 33.3271 15.7059 33.1484 15.7233C30.7889 15.9518 28.8504 16.8563 27.0883 18.551L27.0161 18.6204C26.8552 18.7752 26.5872 18.6611 26.5873 18.4378C26.5873 17.3561 26.9776 12.8908 27.121 12.3308C27.1719 12.1321 27.2523 12.0893 27.7421 12.0001C28.6288 11.8385 29.4702 11.3293 30.4428 10.3657C31.1247 9.69002 31.3448 9.37984 31.8074 8.44235C32.5877 6.86103 32.7629 6.01736 32.7707 3.80229C32.7741 2.83418 32.7554 2.41109 32.6874 1.92704C32.5216 0.745819 32.3898 0.0115833 32.3418 0.000475983C32.3153 -0.00563062 32.1815 0.0477421 32.0445 0.119098Z" fill="white"/>
<path d="M18.1451 12.6284C17.0658 12.7469 16.2233 13.1896 14.1632 14.7209C13.6997 15.0654 13.2166 15.4182 13.0896 15.5048C12.8987 15.6352 12.8644 15.6804 12.8912 15.7668C12.9377 15.9174 14.5519 18.3445 14.9272 18.8284C15.6143 19.714 16.4954 20.4644 17.1243 20.6994C18.0253 21.036 19.3378 21.0136 20.2205 20.6467C21.0019 20.3219 21.7218 19.6939 22.0259 19.0719C22.1602 18.7973 22.1803 18.7063 22.1806 18.3716C22.181 18.0361 22.1637 17.9576 22.0456 17.7569C21.5328 16.8858 19.1635 15.8948 17.1849 15.7239C16.9797 15.7062 16.8117 15.6751 16.8117 15.6548C16.8117 15.582 17.0931 15.5538 18.0952 15.5262C19.5552 15.486 20.492 15.6008 21.5123 15.9453C22.0945 16.1417 22.3106 16.1361 22.5282 15.9189C22.6797 15.7676 22.6938 15.7319 22.6641 15.5742C22.5831 15.1429 22.3056 14.597 21.9005 14.072C21.5464 13.613 20.8052 13.0582 20.2859 12.8634C19.7273 12.6538 18.82 12.5543 18.1451 12.6284Z" fill="white"/>
<path fill-rule="evenodd" clip-rule="evenodd" d="M18.1139 22.4403C18.9997 22.5192 19.5818 22.7994 20.2646 23.4757C20.8006 24.0066 21.4074 25.1369 21.5214 25.8163C21.549 25.9813 21.577 26.4313 21.5834 26.8163C21.5951 27.5095 21.5939 27.5186 21.4588 27.7662C21.2861 28.0827 20.7484 28.6815 20.368 28.981C20.1766 29.1316 20.0957 29.2232 20.1343 29.2455C20.1667 29.2642 20.4457 29.3435 20.7541 29.4216C21.4731 29.6037 22.0714 29.6138 22.6287 29.4531C23.2413 29.2766 24.3815 28.8187 26.9924 27.7011C30.877 26.0382 32.1267 25.5631 33.2042 25.3396C34.0282 25.1687 34.4647 25.2169 35.1184 25.5509C35.6115 25.8027 35.9123 26.1117 36.051 26.5086C36.2687 27.1308 36.2977 28.6077 36.108 29.4013C35.91 30.2297 35.4443 30.9621 34.4282 32.043C33.6319 32.8901 33.1246 33.351 31.9739 34.2727C29.1698 36.5185 25.8577 38.4906 22.7868 39.7428C22.3707 39.9124 21.9241 39.9949 21.4748 39.9849L20.7541 39.9689C18.7658 39.9248 17.0554 39.7925 13.3008 39.3923L12.9 39.3495C12.2841 39.2839 11.6844 39.1112 11.1279 38.8393C8.40683 37.5095 6.89637 36.7905 6.82426 36.7905C6.75501 36.7905 6.71295 37.1905 6.71249 37.8545C6.71202 38.4753 6.65665 38.6672 6.3952 38.9543C6.08749 39.2922 5.99085 39.3068 3.92329 39.3283C2.91633 39.3388 1.77418 39.3253 1.38521 39.2984C0.74316 39.2538 0.661102 39.2373 0.494514 39.1194C0.393579 39.0479 0.253255 38.896 0.182648 38.7819C0.0986283 38.646 0.0524153 38.4902 0.0487859 38.3305L0.0263869 37.345C-0.0106691 35.7147 -0.00796106 25.6176 0.0298893 24.2081L0.0536876 23.322C0.0575784 23.1771 0.104595 23.0367 0.188723 22.9187C0.45433 22.5461 0.597085 22.4882 1.38521 22.4335C1.77418 22.4066 2.91633 22.3931 3.92329 22.4036C5.99085 22.4251 6.08749 22.4397 6.3952 22.7776C6.66309 23.0718 6.71207 23.2513 6.71207 23.9399C6.71207 24.2708 6.72622 24.5414 6.74351 24.5414C6.76085 24.5414 7.65977 24.0642 8.74117 23.481C10.032 22.7848 11.4748 22.4183 12.9414 22.4142L14.1887 22.4107C16.1034 22.4053 17.8697 22.4186 18.1139 22.4403ZM9.66399 25.687C7.84732 26.6586 6.71597 28.5542 6.72326 30.6144L6.73267 33.2752C6.73436 33.7543 7.00684 34.1914 7.43636 34.4038C7.82188 34.5945 8.50529 34.9311 8.95505 35.1517C9.40482 35.3725 10.0357 35.6823 10.3569 35.8402C10.6782 35.9982 11.3158 36.3104 11.7739 36.534C12.3248 36.8029 12.919 36.9722 13.5289 37.034L13.83 37.0646C14.9813 37.1813 17.0668 37.3745 18.4086 37.4887C20.3912 37.6575 21.5062 37.6493 22.2166 37.4607C23.8415 37.0292 28.104 34.4129 31.0344 32.0485C32.3933 30.952 33.6305 29.7097 33.8376 29.2338C33.9711 28.9269 33.9741 28.8823 33.9012 28.2745C33.829 27.6717 33.7837 27.6231 33.3859 27.7213C32.5948 27.9168 31.4298 28.3759 27.7167 29.9557C23.5801 31.7157 22.924 31.9418 21.9617 31.9399C20.8649 31.9377 19.3995 31.5773 16.3616 30.5625C13.4359 29.5851 12.2487 29.0766 12.0166 28.7014C11.6497 28.1082 11.8736 27.2843 12.4831 26.9852C12.8142 26.8227 12.9138 26.8424 14.4223 27.3688C14.8464 27.5168 15.33 27.6714 15.4971 27.7126C16.3363 27.9191 18.5236 28.0349 18.9692 27.8964C19.2583 27.8066 19.6118 27.468 19.7691 27.1303C19.8667 26.9209 19.8896 26.7997 19.8896 26.4936C19.8896 25.844 19.7398 25.5263 19.2779 25.1963C18.7581 24.8249 18.5464 24.8072 14.5276 24.7984L12.8865 24.7948C11.8703 24.7926 10.8694 25.0423 9.97335 25.5215L9.66399 25.687Z" fill="black"/>
</svg>
