<svg width="40" height="40" viewBox="0 0 40 40" fill="none" xmlns="http://www.w3.org/2000/svg">
<path fill-rule="evenodd" clip-rule="evenodd" d="M3.52345 0.89089C3.66039 0.732954 3.89401 0.656085 5.14186 0.358577C5.94395 0.167331 6.67128 0.0248398 6.75814 0.0418505C6.845 0.0588612 7.96544 0.557082 9.24801 1.1489C10.5306 1.74078 11.6848 2.26961 11.8129 2.32413C12.043 2.42206 12.0769 2.40861 14.5998 1.21167C16.0144 0.540569 17.2426 0 17.353 0C17.5669 0 19.8173 1.29836 20.1763 1.62897C20.5568 1.97929 20.705 2.45018 20.5804 2.9131C20.4216 3.50313 20.2559 3.61324 17.3008 5.09189L17.2157 5.13447C15.5066 5.98966 14.2076 7.48917 13.6047 9.3027C13.0868 10.8606 12.6226 12.2153 12.5731 12.3132C12.5065 12.4451 12.0749 12.6933 10.9063 13.272L9.59476 13.9216C9.42839 14.004 9.2324 14.0006 9.06895 13.9126C8.91749 13.831 8.77899 13.6884 8.73829 13.572C8.68672 13.4248 8.74064 12.7116 8.94154 10.8823C9.09186 9.51317 9.20284 8.38235 9.18804 8.36932C9.17331 8.35637 8.20084 8.70847 7.02705 9.15189L6.14403 9.48539C5.31667 9.79787 4.43986 9.95904 3.55546 9.96121C2.52181 9.9637 2.1728 9.941 2.01878 9.86128C1.74632 9.72036 1.40229 9.31466 1.31159 9.02747C0.768089 7.30633 0.446683 6.14754 0.446683 5.9089C0.446683 5.20697 1.0382 4.62633 1.75322 4.62633C2.00875 4.62633 2.31942 4.75039 3.3695 5.27189L3.39503 5.28456C4.19972 5.68413 5.14322 5.69255 5.95491 5.3074C6.66196 4.97196 7.24046 4.67345 7.24046 4.64413C7.24046 4.61473 6.42414 3.97573 5.42642 3.22413C4.42869 2.47246 3.55638 1.78833 3.48788 1.70377C3.31316 1.48804 3.32952 1.11466 3.52345 0.89089ZM31.321 1.63473C31.321 0.582989 31.3964 0.229395 31.6523 0.0806405C31.7411 0.0289679 33.0482 0.00362994 35.7042 0.00213528L39.3596 0.000144495C39.5294 5.19825e-05 39.6924 0.0674951 39.8125 0.187616C39.9326 0.307795 40 0.47073 40 0.640615V5.30826V9.97788C40 10.1477 39.9392 10.312 39.8285 10.4409C39.6618 10.6349 39.6338 10.6412 38.8411 10.6643L38.3015 10.6799C38.1422 10.6846 38.0097 10.8039 37.9885 10.9619C37.9056 11.5804 37.4837 12.1388 36.8501 12.4687C36.3908 12.7078 35.6042 12.6944 35.1172 12.4392C34.516 12.1242 34.0243 11.4053 34.0243 10.8414C34.0243 10.7501 33.9503 10.6762 33.8591 10.6762H32.6727H31.5562C31.4263 10.6762 31.321 10.7814 31.321 10.9113C31.321 11.5175 30.6168 12.3633 29.9461 12.5626C29.4982 12.6957 29.2303 12.6967 28.8 12.5672C28.0651 12.3459 27.5689 11.8132 27.4018 11.0662C27.3522 10.8442 27.1619 10.6816 26.9349 10.6671L26.8634 10.6626C26.485 10.6384 26.3762 10.6011 26.215 10.4399C26.0907 10.3157 26.0199 10.1479 26.0178 9.97225L26.0023 8.73516C25.9812 7.04135 26.0012 6.9484 26.4308 6.73794C26.5937 6.65809 26.697 6.49246 26.697 6.31102V5.87181C26.697 5.46726 26.7173 5.08313 26.7422 5.01836C26.7901 4.89338 29.4453 2.87139 29.7528 2.72562C29.8536 2.67786 30.241 2.63843 30.6274 2.63665C31.011 2.63488 31.321 2.32343 31.321 1.93984V1.63473ZM36.0135 6.65828C37.4883 6.65636 38.6829 5.46051 38.6833 3.98576C38.6836 2.51061 37.49 1.31345 36.0149 1.30939L35.6783 1.30847L35.3539 1.30758C33.8743 1.30351 32.6727 2.50182 32.6727 3.98142C32.6727 5.46165 33.8737 6.66107 35.3539 6.65914L35.6777 6.65872L36.0135 6.65828ZM10.0803 3.23694C10.1861 3.19376 10.1894 3.04507 10.0856 2.99726L8.5152 2.27409C7.50105 1.80705 6.60732 1.42733 6.52907 1.43025C6.36616 1.43637 5.64915 1.6037 5.60853 1.64512C5.59366 1.66021 6.24288 2.17174 7.05123 2.78185L7.96628 3.47242C8.30959 3.73151 8.76494 3.78808 9.16122 3.62085C9.51336 3.47224 9.92689 3.2995 10.0803 3.23694ZM18.2777 3.10835C18.7204 2.88684 18.7435 2.26363 18.3185 2.00989C17.7782 1.6874 17.3054 1.42655 17.268 1.43032C17.2305 1.43402 14.4148 2.76178 11.0108 4.38078C7.60683 5.99986 4.75259 7.32598 4.668 7.32776C4.58349 7.32954 3.90319 7.02726 3.1563 6.65609C2.40941 6.28498 1.79832 6.00107 1.79832 6.02534C1.79832 6.04954 1.97959 6.65751 2.20111 7.3763L2.32752 7.78638C2.49186 8.31954 2.98459 8.68327 3.54251 8.68327C4.16311 8.68327 4.7786 8.57124 5.35939 8.35257L7.14122 7.68171C8.60434 7.13089 9.90804 6.67929 10.0383 6.67815C10.3012 6.67594 10.5832 6.89153 10.6462 7.14292C10.6675 7.22776 10.5618 8.38576 10.4113 9.71623C10.2607 11.0467 10.1447 12.1433 10.1535 12.1532C10.1623 12.1631 10.4622 12.019 10.8201 11.833C11.2373 11.616 11.5537 11.2451 11.7022 10.7989L12.4419 8.57651C12.976 6.97153 13.4474 5.61509 13.4893 5.56221C13.5313 5.5094 14.856 4.82043 16.4332 4.03125L18.2777 3.10835ZM23.3417 3.33011C22.9737 3.31854 22.6765 3.02583 22.6592 2.65801L22.6589 2.65125C22.6422 2.29272 22.9284 1.99288 23.2873 1.99288H23.311C23.6859 1.99288 23.9937 2.29682 23.9937 2.67174V2.69823C23.9937 3.05513 23.6985 3.34128 23.3417 3.33011ZM26.0212 3.98576C25.6479 3.98576 25.3454 3.68286 25.3454 3.30961C25.3454 2.93636 25.6479 2.63345 26.0212 2.63345C26.3944 2.63345 26.697 2.93636 26.697 3.30961C26.697 3.68285 26.3944 3.98576 26.0212 3.98576ZM29.9822 6.65997C30.721 6.66191 31.321 6.06349 31.321 5.32463V4.53709C31.321 4.23289 31.0739 3.98656 30.7697 3.98754C30.4117 3.98875 30.0637 4.10539 29.7773 4.32014L29.2224 4.73616C28.6747 5.1469 28.177 5.54199 28.1164 5.61416C28.0412 5.7037 28.0074 5.88947 28.0097 6.20007C28.0115 6.45195 28.2159 6.65534 28.4678 6.656L29.667 6.65915L29.9822 6.65997ZM38.0965 9.32384C38.4437 9.32384 38.7215 9.0357 38.7088 8.68878L38.708 8.66548C38.6945 8.29772 38.3931 8.00618 38.0251 8.005L33.0106 7.9889L28.0138 7.97285C27.6405 7.97165 27.3372 8.27394 27.3372 8.64726V9.06732C27.3372 9.20899 27.4521 9.32384 27.5938 9.32384C27.7677 9.32384 27.9222 9.26306 28.074 9.13488C28.7999 8.52178 29.8251 8.52484 30.6346 9.14263C30.7886 9.26017 30.977 9.32384 31.1708 9.32384H32.7217C34.5226 9.32384 34.5749 9.31979 34.7069 9.17139C35.2712 8.53665 36.7612 8.53665 37.3255 9.17139C37.4449 9.30569 37.5367 9.32384 38.0965 9.32384ZM29.9372 10.3979C29.8758 10.2793 29.7641 10.1492 29.6887 10.1089C29.5044 10.0101 29.1063 10.02 28.9673 10.1268C28.6354 10.3818 28.6042 10.8159 28.8968 11.1087C29.2659 11.4779 29.8052 11.3518 29.968 10.8582C30.0335 10.6597 30.0277 10.5731 29.9372 10.3979ZM36.6542 10.6552C36.6558 10.4612 36.6072 10.3357 36.4818 10.2103C36.3533 10.0817 36.2303 10.0356 36.0162 10.0356C35.62 10.0356 35.376 10.2761 35.376 10.6666C35.376 10.8937 35.4184 10.9838 35.5949 11.1325C36.0531 11.5182 36.6492 11.2495 36.6542 10.6552ZM4.67946 12.669C4.30621 12.669 4.00364 12.3661 4.00364 11.9929C4.00364 11.6196 4.30621 11.3167 4.67946 11.3167C5.0527 11.3167 5.35528 11.6196 5.35528 11.9929C5.35528 12.3661 5.0527 12.669 4.67946 12.669ZM3.29256 15.3025C2.93879 15.3025 2.65199 15.0157 2.65199 14.6619C2.65199 14.3081 2.93879 14.0214 3.29256 14.0214H3.32781H3.36307C3.71684 14.0214 4.00364 14.3081 4.00364 14.6619C4.00364 15.0157 3.71684 15.3025 3.36307 15.3025H3.32781H3.29256ZM36.6568 15.3025C36.303 15.3025 36.0162 15.0157 36.0162 14.6619C36.0162 14.3081 36.303 14.0214 36.6568 14.0214H36.692H36.7273C37.0811 14.0214 37.3679 14.3081 37.3679 14.6619C37.3679 15.0157 37.0811 15.3025 36.7273 15.3025H36.692H36.6568ZM2.68756 18.0071C2.31432 18.0071 2.01174 17.7042 2.01174 17.331C2.01174 16.9577 2.31432 16.6548 2.68756 16.6548C3.06081 16.6548 3.36338 16.9577 3.36338 17.331C3.36338 17.7042 3.06081 18.0071 2.68756 18.0071ZM37.3323 18.0071C36.959 18.0071 36.6565 17.7042 36.6565 17.331C36.6565 16.9577 36.959 16.6548 37.3323 16.6548C37.7055 16.6548 38.0081 16.9577 38.0081 17.331C38.0081 17.7042 37.7055 18.0071 37.3323 18.0071ZM2.65231 20.6406C2.29853 20.6406 2.01174 20.3538 2.01174 20C2.01174 19.6462 2.29853 19.3594 2.65231 19.3594H2.68756H2.72281C3.07659 19.3594 3.36338 19.6462 3.36338 20C3.36338 20.3538 3.07659 20.6406 2.72282 20.6406H2.68756H2.65231ZM37.297 20.6406C36.9433 20.6406 36.6565 20.3538 36.6565 20C36.6565 19.6462 36.9433 19.3594 37.297 19.3594H37.3323H37.3675C37.7213 19.3594 38.0081 19.6462 38.0081 20C38.0081 20.3538 37.7213 20.6406 37.3675 20.6406H37.3323H37.297ZM2.68756 23.3452C2.31432 23.3452 2.01174 23.0423 2.01174 22.669C2.01174 22.2958 2.31432 21.9929 2.68756 21.9929C3.06081 21.9929 3.36338 22.2958 3.36338 22.669C3.36338 23.0423 3.06081 23.3452 2.68756 23.3452ZM37.3323 23.3452C36.959 23.3452 36.6565 23.0423 36.6565 22.669C36.6565 22.2958 36.959 21.9929 37.3323 21.9929C37.7055 21.9929 38.0081 22.2958 38.0081 22.669C38.0081 23.0423 37.7055 23.3452 37.3323 23.3452ZM3.36338 25.2939C3.36338 25.1357 3.42621 24.9841 3.53803 24.8722C3.86804 24.542 3.99873 24.5879 6.98579 26.0826C8.66901 26.9248 9.79805 27.5307 9.86656 27.6287C10.0109 27.8348 10.0109 28.1794 9.86663 28.3855C9.79848 28.4828 8.74263 29.0526 7.19892 29.8251L5.34283 30.7538C4.91445 30.9682 4.64389 31.4061 4.64389 31.8851C4.64389 32.3171 4.99336 32.6678 5.42537 32.6692L10.4835 32.6856L16.0597 32.7038C16.227 32.7043 16.3857 32.7775 16.4947 32.9043C16.5891 33.0142 16.6664 33.183 16.6664 33.2795C16.6664 33.3759 16.4266 34.5328 16.1334 35.8502C15.8403 37.1676 15.6118 38.2569 15.6258 38.2709C15.6738 38.3189 15.8707 37.9608 15.9596 37.6639C16.0125 37.4874 16.1749 37.3665 16.3591 37.3665H16.7025H16.9461C17.1615 37.3665 17.3261 37.5589 17.2928 37.7717C17.1611 38.6116 16.5565 39.3986 15.754 39.7751C15.4057 39.9384 15.2576 39.9644 14.6745 39.9644C14.0951 39.9644 13.9423 39.938 13.6041 39.7793C13.3872 39.6774 13.0932 39.4919 12.9509 39.3668C12.8005 39.2347 12.5777 39.2274 12.4189 39.3493L12.3495 39.4026C11.7491 39.8636 11.4518 39.9643 10.6907 39.9643C10.1091 39.9644 9.95918 39.9383 9.61508 39.7769C9.39519 39.6737 9.09079 39.4768 8.93869 39.3393L8.908 39.3115C8.76998 39.1868 8.55861 39.1915 8.42621 39.3221C8.29645 39.4502 8.00855 39.6471 7.78653 39.7597C7.4218 39.9446 7.31395 39.9644 6.67135 39.9644C6.04198 39.9644 5.91479 39.9422 5.56841 39.7718C5.35307 39.6659 5.06524 39.469 4.92873 39.3342C4.78946 39.1968 4.56711 39.1919 4.42193 39.3231L4.40401 39.3393C4.25191 39.4768 3.94751 39.6737 3.72762 39.7769C3.38337 39.9384 3.23363 39.9644 2.6505 39.9644C2.0301 39.9644 1.9337 39.945 1.50352 39.7331C0.71004 39.3423 0.141496 38.5619 0.0428261 37.7279C0.0200364 37.5356 0.170245 37.3665 0.363883 37.3665H0.68578H1.17576C1.28392 37.3665 1.37165 37.4541 1.37185 37.5623C1.3722 37.7401 1.71965 38.4226 1.72505 38.2562C1.72633 38.2171 1.48361 37.0875 1.18568 35.746C0.702143 33.5688 0.653555 33.2837 0.733231 33.0914C0.884117 32.7268 1.09739 32.669 2.29274 32.669C2.88404 32.669 3.36338 32.1897 3.36338 31.5984V28.858V25.2939ZM36.6568 25.9786C36.303 25.9786 36.0162 25.6919 36.0162 25.3381C36.0162 24.9843 36.303 24.6975 36.6568 24.6975H36.692H36.7273C37.0811 24.6975 37.3679 24.9843 37.3679 25.3381C37.3679 25.6919 37.0811 25.9786 36.7273 25.9786H36.692H36.6568ZM6.24103 28.8101C7.11952 28.3712 7.83177 28.0065 7.82387 27.9997C7.81605 27.993 7.09733 27.6314 6.22673 27.1962L6.07646 27.1211C5.41824 26.7921 4.64389 27.2708 4.64389 28.0066C4.64389 28.7425 5.41821 29.2212 6.07651 28.8923L6.24103 28.8101ZM26.697 29.3655C26.697 27.6752 26.722 27.5461 27.0781 27.4009C27.162 27.3668 30.0264 27.3451 33.4436 27.3527L39.3933 27.366C39.5606 27.3663 39.7193 27.4394 39.8283 27.5663C39.9987 27.7644 40 27.7779 40 29.3537V30.6805C40 30.8476 39.9336 31.0078 39.8155 31.126C39.6601 31.2816 39.5567 31.3138 39.1575 31.3314C38.8924 31.3431 38.6833 31.561 38.6824 31.8263L38.6715 35.3381C38.6646 37.5302 38.6566 39.3974 38.6537 39.4872C38.6508 39.5771 38.5697 39.7292 38.4737 39.8253C38.3619 39.9371 38.2103 40 38.0521 40H33.3485H28.6449C28.4867 40 28.3351 39.9371 28.2233 39.8253C28.1272 39.7292 28.0452 39.5931 28.041 39.5228C28.0367 39.4525 28.0287 37.5854 28.0232 35.3737L28.0143 31.8263C28.0136 31.561 27.8045 31.3431 27.5395 31.3314C27.1403 31.3138 27.0369 31.2816 26.8815 31.126C26.7633 31.0078 26.697 30.8476 26.697 30.6805V29.3655ZM38.0259 30C38.3893 30 38.6839 29.7054 38.6839 29.342C38.6839 28.9786 38.3894 28.684 38.026 28.684L33.3485 28.6837L28.6714 28.6833C28.3078 28.6833 28.0131 28.978 28.0131 29.3416C28.0131 29.7052 28.3078 30 28.6714 30H33.3485H38.0259ZM33.649 38.6833C35.6862 38.6833 37.3405 37.0372 37.3507 35C37.3609 32.9688 35.7171 31.3167 33.6858 31.3167H33.3485H33.0112C30.9799 31.3167 29.3361 32.9688 29.3463 35C29.3565 37.0372 31.0108 38.6833 33.048 38.6833H33.3485H33.649ZM31.9972 34.0214C31.6238 34.0214 31.321 33.7186 31.321 33.3452C31.321 32.9718 31.6238 32.669 31.9972 32.669H33.3485H34.6998C35.0732 32.669 35.376 32.9718 35.376 33.3452C35.376 33.7186 35.0732 34.0214 34.6998 34.0214H33.3485H31.9972ZM14.1765 38.5411C14.1765 38.5067 15.0373 34.5997 15.137 34.1815C15.1565 34.0998 15.0945 34.0214 15.0105 34.0214H8.67228H2.77115C2.46253 34.0214 2.23342 34.3074 2.30078 34.6085C2.37299 34.9315 2.59992 35.9564 2.80508 36.8861C3.01018 37.8159 3.2024 38.5765 3.23213 38.5765C3.26187 38.5765 3.41403 38.4549 3.57018 38.3063C3.76283 38.1229 3.88298 37.9283 3.94367 37.7013C3.99645 37.5039 4.1753 37.3665 4.37965 37.3665H4.68515H5.05062C5.21566 37.3665 5.35624 37.4864 5.38231 37.6494C5.43282 37.9655 5.75565 38.38 6.08353 38.5497C6.3525 38.6888 6.9902 38.6888 7.25917 38.5497C7.58705 38.38 7.90988 37.9655 7.96039 37.6494C7.98646 37.4864 8.12704 37.3665 8.29208 37.3665H8.65755H8.98677C9.17714 37.3665 9.34374 37.4945 9.39292 37.6784C9.55518 38.2853 10.0575 38.6635 10.695 38.6586C11.0792 38.6556 11.2698 38.5776 11.5685 38.3009C11.8198 38.0683 11.9712 37.7851 11.9712 37.548C11.9712 37.4478 12.0525 37.3665 12.1527 37.3665H12.6358H12.9846C13.1719 37.3665 13.3371 37.4895 13.3908 37.669C13.5073 38.0589 13.7079 38.3377 13.9687 38.4727C14.083 38.5318 14.1765 38.5626 14.1765 38.5411ZM25.3454 37.3665C24.9918 37.3665 24.7051 37.0799 24.7051 36.7263V36.6904V36.6545C24.7051 36.3009 24.9918 36.0142 25.3454 36.0142C25.699 36.0142 25.9856 36.3009 25.9856 36.6545V36.6904V36.7263C25.9856 37.0799 25.699 37.3665 25.3454 37.3665ZM20.0099 38.0071C19.6563 38.0071 19.3697 37.7205 19.3697 37.3669V37.331V37.2951C19.3697 36.9415 19.6563 36.6548 20.0099 36.6548C20.3635 36.6548 20.6502 36.9415 20.6502 37.2951V37.331V37.3669C20.6502 37.7205 20.3635 38.0071 20.0099 38.0071ZM22.6776 38.0071C22.3044 38.0071 22.0018 37.7042 22.0018 37.331C22.0018 36.9577 22.3044 36.6548 22.6776 36.6548C23.0509 36.6548 23.3535 36.9577 23.3535 37.331C23.3535 37.7042 23.0509 38.0071 22.6776 38.0071Z" fill="white"/>
<path fill-rule="evenodd" clip-rule="evenodd" d="M18.9073 11.3982C15.2531 11.8642 12.2753 14.6636 11.4984 18.363C11.3264 19.1821 11.3246 20.8109 11.4948 21.6151C11.958 23.8038 13.1089 25.6343 14.8573 26.9635C15.5241 27.4703 16.9034 28.1408 17.7335 28.3616C19.7841 28.9071 21.8771 28.7109 23.7484 27.7976C26.2251 26.5889 27.9184 24.4064 28.5205 21.6468C28.686 20.8881 28.6858 19.0946 28.5201 18.344C27.9275 15.6596 26.3168 13.5189 23.9814 12.3122C22.3924 11.4912 20.6457 11.1765 18.9073 11.3982ZM21.5756 14.2592C21.2282 13.5233 20.7937 12.9605 20.4262 12.7703C20.1947 12.6506 19.8182 12.6419 19.6187 12.7516C19.3521 12.8982 18.9338 13.3443 18.6951 13.7367C18.4986 14.0596 18.018 15.147 18.018 15.2688C18.018 15.2873 18.9165 15.3025 20.0147 15.3025H21.8444C21.9278 15.3025 21.9877 15.2223 21.9641 15.1423C21.9381 15.0542 21.7632 14.6569 21.5756 14.2592ZM16.8404 14.6263C16.9668 14.274 17.1719 13.7856 17.2962 13.5409C17.4205 13.2963 17.5085 13.0961 17.492 13.0961C17.4754 13.0961 17.1464 13.254 16.761 13.4471C15.9759 13.8403 15.3268 14.3102 14.7462 14.9056C14.6026 15.0528 14.7094 15.3001 14.915 15.2965L15.483 15.2866L15.9301 15.2788C16.3396 15.2716 16.7021 15.0119 16.8404 14.6263ZM25.2029 14.8389C24.6848 14.3149 23.9677 13.7959 23.2942 13.4571C23.0464 13.3324 22.7662 13.2009 22.6716 13.165C22.6108 13.1419 22.5534 13.2057 22.5828 13.2637L22.7245 13.5426C22.8483 13.7863 23.053 14.274 23.1795 14.6263C23.3178 15.0119 23.6802 15.2716 24.0898 15.2788L24.5372 15.2866L25.0079 15.2948C25.2479 15.299 25.3717 15.0096 25.2029 14.8389ZM16.0564 18.6655C16.1092 17.9282 16.2227 16.986 16.2836 16.7794C16.3177 16.6637 16.2194 16.6548 14.9024 16.6548H13.9324C13.6601 16.6548 13.4133 16.8152 13.3028 17.0641C12.9829 17.7844 12.6283 19.2102 12.7409 19.3229C12.761 19.343 13.504 19.3594 14.3921 19.3594H15.3109C15.7029 19.3594 16.0284 19.0565 16.0564 18.6655ZM22.6421 19.0072C22.6421 18.6604 22.4603 17.1275 22.3821 16.8149C22.3586 16.7208 22.274 16.6548 22.177 16.6548H20.0072H18.0536C17.8319 16.6548 17.6409 16.8111 17.597 17.0285C17.4971 17.5234 17.3791 18.5989 17.3783 19.0214C17.378 19.208 17.5292 19.3594 17.7159 19.3594H20.0099H22.2898C22.4844 19.3594 22.6421 19.2017 22.6421 19.0072ZM27.2789 19.3229C27.3916 19.2102 27.037 17.7844 26.7171 17.0641C26.6065 16.8152 26.3598 16.6548 26.0875 16.6548H25.1174C23.8005 16.6548 23.7022 16.6637 23.7363 16.7794C23.7972 16.986 23.9107 17.9282 23.9635 18.6655C23.9915 19.0565 24.3169 19.3594 24.7089 19.3594H25.6278C26.5158 19.3594 27.2589 19.343 27.2789 19.3229ZM16.2836 23.2206C16.2227 23.014 16.1092 22.0718 16.0564 21.3345C16.0284 20.9435 15.7029 20.6406 15.3109 20.6406H14.3921C13.504 20.6406 12.761 20.657 12.7409 20.6771C12.6283 20.7898 12.9829 22.2156 13.3028 22.9359C13.4133 23.1848 13.6601 23.3452 13.9324 23.3452H14.9024C16.2194 23.3452 16.3177 23.3363 16.2836 23.2206ZM22.4229 22.9715C22.5228 22.4766 22.6408 21.4011 22.6415 20.9786C22.6418 20.792 22.4906 20.6406 22.304 20.6406H20.0099H17.7533C17.5459 20.6406 17.3778 20.8087 17.3778 21.0161C17.3778 21.4441 17.4875 22.4186 17.5978 22.9715C17.6412 23.1888 17.8319 23.3452 18.0535 23.3452H20.0099H21.9662C22.188 23.3452 22.379 23.1889 22.4229 22.9715ZM26.7171 22.9359C27.037 22.2156 27.3916 20.7898 27.2789 20.6771C27.2589 20.657 26.5158 20.6406 25.6278 20.6406H24.7089C24.3169 20.6406 23.9915 20.9435 23.9635 21.3345C23.9107 22.0718 23.7972 23.014 23.7363 23.2206C23.7022 23.3363 23.8005 23.3452 25.1174 23.3452H26.0875C26.3598 23.3452 26.6065 23.1848 26.7171 22.9359ZM17.2953 26.4574C17.1715 26.2137 16.9668 25.726 16.8404 25.3737C16.7021 24.9881 16.3396 24.7284 15.9301 24.7212L15.4826 24.7134L15.0119 24.7052C14.7719 24.701 14.6481 24.9904 14.8169 25.1611C15.4732 25.8246 16.531 26.5242 17.3483 26.835C17.4091 26.8581 17.4665 26.7943 17.437 26.7363L17.2953 26.4574ZM21.342 26.2278C21.5285 25.9063 22.0018 24.8377 22.0018 24.7381C22.0018 24.7157 21.1033 24.6975 20.0052 24.6975H18.1754C18.092 24.6975 18.0321 24.7777 18.0557 24.8576C18.0818 24.9458 18.2566 25.3431 18.4443 25.7408C19.0605 27.0462 19.7641 27.5759 20.4225 27.23C20.694 27.0875 21.0999 26.6451 21.342 26.2278ZM22.6717 26.835C23.4879 26.5245 24.5467 25.8246 25.201 25.163C25.3717 24.9904 25.2494 24.6975 25.0067 24.6975H24.5408C23.7084 24.6975 23.4121 24.7204 23.3889 24.7865C23.0638 25.7115 22.9415 26.0196 22.7398 26.4217C22.5021 26.8959 22.5014 26.8998 22.6717 26.835Z" fill="black"/>
</svg>
