<svg width="40" height="40" viewBox="0 0 40 40" fill="none" xmlns="http://www.w3.org/2000/svg">
<path fill-rule="evenodd" clip-rule="evenodd" d="M23.3186 3.89709C22.7753 3.94029 21.404 4.23576 20.6866 4.46427C20.4952 4.52523 20.0625 4.68991 19.7251 4.83023C17.4744 5.76646 15.5603 7.25739 14.0643 9.23971C13.1182 10.4933 12.278 12.248 11.8779 13.8058C11.6071 14.8602 11.4608 16.1035 11.4986 17.0278C11.5411 18.0657 11.7569 18.4337 12.5838 18.8782C12.748 18.9664 12.9315 19.0127 13.1179 19.013L23.5035 19.0274C29.3718 19.0356 34.7311 19.0279 35.413 19.0104C36.5355 18.9815 36.6757 18.9696 36.894 18.8845C37.423 18.6782 37.863 18.176 38.0061 17.6152C38.1541 17.0349 38.0196 15.2567 37.7369 14.0568C37.2983 12.1954 36.4244 10.4064 35.2046 8.87275C34.7945 8.35712 33.6462 7.20283 33.1507 6.80815C31.3721 5.39132 29.0021 4.31547 27.0164 4.02348C26.1172 3.89126 24.2113 3.82612 23.3186 3.89709ZM27.6566 8.01771C27.1436 7.84437 26.6907 7.75735 25.9942 7.69835C24.7408 7.59219 23.3715 7.61703 22.7892 7.75644C21.7518 8.00487 20.2877 8.63723 19.4295 9.20755C18.7455 9.66209 17.7312 10.631 17.1184 11.4152C16.4446 12.2774 15.894 13.3932 15.5495 14.5946C15.4337 14.9987 15.4048 15.1567 15.4405 15.1924C15.5227 15.2746 17.3284 15.2935 25.918 15.3022L33.9223 15.3103C34.0247 15.3104 34.1077 15.2273 34.1075 15.125C34.1069 14.866 33.6364 13.4801 33.3502 12.8945C32.6511 11.4635 31.4641 10.1262 30.0619 9.18954C29.3125 8.68897 28.5646 8.32462 27.6566 8.01771Z" fill="black"/>
<path fill-rule="evenodd" clip-rule="evenodd" d="M0 3.7572V3.87668C0 4.85591 0.793594 5.64986 1.77282 5.65029C3.77335 5.65116 4.19722 5.68057 4.55231 5.84316C4.86315 5.98548 5.36764 6.49189 5.55205 6.8467C5.64122 7.01825 5.68805 7.20864 5.68865 7.40197L5.7115 14.8524C5.73173 21.4603 5.72612 22.6417 5.67308 22.9016C5.32944 24.5854 4.47974 28.8391 4.3303 29.6237C3.81025 32.3538 3.78119 32.573 3.88999 32.9465C4.07967 33.5975 4.61082 34.1036 5.20423 34.1987C5.58294 34.2594 35.3535 34.3018 37.3564 34.2445L38.4377 34.2136C38.6189 34.2084 38.7969 34.1645 38.9597 34.0848C39.2952 33.9207 39.6322 33.5725 39.8211 33.1949C40.0614 32.7144 40.0612 32.6643 39.8108 31.2941C39.3591 28.8223 38.1292 22.9061 37.9147 22.1735C37.7999 21.7814 37.4993 21.4454 37.0678 21.2267C36.8982 21.1407 36.7742 21.1237 36.0889 21.0921C35.6574 21.0722 29.5038 21.0548 22.4143 21.0536C12.2208 21.0517 9.52087 21.04 9.50774 20.9974C9.4986 20.9679 9.47902 18.1047 9.46427 14.6348C9.43734 8.30652 9.4102 6.97227 9.2953 6.32324C9.18758 5.71503 8.8291 4.93269 8.37952 4.32474C7.42307 3.03139 6.10574 2.20841 4.65502 1.99791C4.32726 1.95036 1.77748 1.86669 0.619945 1.86551C0.277657 1.86518 0 2.14256 0 2.48485V3.7572ZM35.2549 27.5669C35.558 29.093 35.8057 30.3857 35.8053 30.4395C35.8049 30.4937 35.7608 30.5374 35.7066 30.5374H21.883C14.2261 30.5374 7.9614 30.528 7.9614 30.5164C7.9614 30.4958 8.51056 27.7542 8.89258 25.8676C8.99834 25.3453 9.09735 24.9054 9.11258 24.8902C9.12785 24.8749 9.82945 24.8561 10.6717 24.8482C11.514 24.8403 12.2423 24.8281 12.2901 24.821C12.338 24.8139 17.4007 24.8046 23.5405 24.8002L31.8749 24.7942C33.519 24.7931 34.9346 25.9543 35.2549 27.5669ZM9.55072 36.6178C9.67353 37.3764 9.84438 37.8295 10.2128 38.3736C10.716 39.1167 11.4807 39.6552 12.3771 39.8976C12.8397 40.0227 13.7625 40.0356 14.1773 39.9228C14.7941 39.7551 15.2536 39.5155 15.7421 39.1072C16.4759 38.4938 16.9099 37.693 17.0676 36.6613C17.0982 36.4611 16.9433 36.2806 16.7407 36.2806H13.311H9.83771C9.6586 36.2806 9.52209 36.441 9.55072 36.6178ZM26.7562 36.7049C26.8517 37.2321 26.9745 37.6002 27.1956 38.021C27.6793 38.9416 28.5498 39.6259 29.5833 39.898C30.0906 40.0315 30.9721 40.0329 31.4603 39.9008C32.9179 39.5064 34.0927 38.1573 34.2602 36.6855C34.2761 36.5466 34.2985 36.3986 34.3101 36.3568C34.3301 36.2847 34.1281 36.2806 30.5053 36.2806H27.1105C26.886 36.2806 26.7162 36.4839 26.7562 36.7049Z" fill="white"/>
<path d="M24.3203 0.0637565C22.9647 0.428059 22.4843 2.12405 23.448 3.14312C24.1494 3.88486 25.2622 3.91493 26.0303 3.21286C26.4439 2.83477 26.6497 2.31605 26.6161 1.7359C26.5677 0.89948 25.9204 0.204509 25.0379 0.0413493C24.7142 -0.0184758 24.6148 -0.0153866 24.3203 0.0637565Z" fill="black"/>
</svg>
