<svg width="18" height="35" viewBox="0 0 18 35" fill="none" xmlns="http://www.w3.org/2000/svg">
<path d="M10.0862 0C6.27252 0 4.4976 2.26368 4.4976 5.43345V13.0891H1.79904C0.802372 13.0891 0 13.8692 0 14.8382V18.5226C0 19.4916 0.802372 20.2717 1.79904 20.2717H4.4976V33.2509C4.4976 34.2199 5.29997 35 6.29664 35H10.0862C11.0829 35 11.8853 34.2199 11.8853 33.2509V20.2717H15.3481C16.3447 20.2717 16.9352 19.4694 17.1471 18.5226L17.9717 14.8382C18.1836 13.8914 17.1693 13.0891 16.1726 13.0891H11.8853V10.7132C11.8853 8.09447 12.4919 7.18254 15.1138 7.18254H15.8822C16.8788 7.18254 17.6812 6.40244 17.6812 5.43345V1.74909C17.6812 0.780094 16.8788 0 15.8822 0H10.0862Z" fill="white"/>
</svg>
