<svg width="178" height="40" viewBox="0 0 178 40" fill="none" xmlns="http://www.w3.org/2000/svg">
<g clip-path="url(#clip0_3337_1806)">
<path d="M4.46333 4.44505V17.6792H19.3242L14.8862 22.1242H4.46333V32.5297L0 37V0H37L32.562 4.44505H4.46333Z" fill="white"/>
<path d="M30 9V31H13V26.5133H25.6448V13.4867H13V9H30Z" fill="white"/>
<path d="M40 3V40H3L7.44102 35.5519H35.5336V7.47336L40 3Z" fill="white"/>
<path d="M57.6255 39.0903C56.4861 38.4838 55.6056 37.6498 54.9582 36.5884C54.3108 35.5271 54 34.3141 54 33C54 31.6606 54.3367 30.4729 54.9841 29.4116C55.6315 28.3502 56.5379 27.5162 57.6773 26.9097C58.8167 26.3032 60.0857 26 61.4841 26C62.6235 26 63.6594 26.2022 64.6175 26.5812C65.5498 26.9603 66.3526 27.5415 67 28.2744L65.3167 29.8159C64.3068 28.7545 63.0637 28.2238 61.5876 28.2238C60.6295 28.2238 59.7749 28.426 59.0239 28.8303C58.2729 29.2347 57.6773 29.8159 57.2371 30.5235C56.8227 31.2563 56.5896 32.065 56.5896 33C56.5896 33.9097 56.7968 34.7437 57.2371 35.4765C57.6514 36.2094 58.247 36.7653 59.0239 37.1697C59.7749 37.574 60.6295 37.7762 61.5876 37.7762C63.0637 37.7762 64.3068 37.2455 65.3167 36.1588L67 37.7256C66.3526 38.4585 65.5498 39.0397 64.5916 39.4188C63.6335 39.7978 62.5976 40 61.4582 40C60.0339 40 58.7649 39.6968 57.6255 39.0903Z" fill="white"/>
<path d="M70.6598 39.0903C69.5258 38.4838 68.6237 37.6498 67.9794 36.5884C67.335 35.5271 67 34.3141 67 33C67 31.6859 67.335 30.4729 67.9794 29.4116C68.6237 28.3502 69.5258 27.5162 70.6598 26.9097C71.7938 26.3032 73.0825 26 74.5 26C75.9175 26 77.1804 26.3032 78.3402 26.9097C79.4742 27.5162 80.3763 28.3502 81.0206 29.4116C81.665 30.4729 82 31.6859 82 33C82 34.3141 81.665 35.5271 81.0206 36.5884C80.3763 37.6498 79.4742 38.4838 78.3402 39.0903C77.2062 39.6968 75.9175 40 74.5 40C73.0825 40 71.7938 39.6968 70.6598 39.0903ZM77 37.1697C77.7474 36.7653 78.3144 36.1841 78.7526 35.4513C79.165 34.7184 79.3969 33.9097 79.3969 33C79.3969 32.0903 79.1907 31.2816 78.7526 30.5487C78.3402 29.8159 77.7474 29.2347 77 28.8303C76.2526 28.426 75.4278 28.2238 74.5 28.2238C73.5722 28.2238 72.7474 28.426 72 28.8303C71.2526 29.2347 70.6856 29.8159 70.2474 30.5487C69.8351 31.2816 69.6031 32.0903 69.6031 33C69.6031 33.9097 69.8093 34.7184 70.2474 35.4513C70.6598 36.1841 71.2526 36.7653 72 37.1697C72.7474 37.574 73.5722 37.7762 74.5 37.7762C75.4278 37.7762 76.2526 37.574 77 37.1697Z" fill="white"/>
<path d="M96 26V40H93.9457L86.5052 30.5195V40H84V26H86.0793L93.5198 35.4805V26H96Z" fill="white"/>
<path d="M100.353 39.5199C99.3558 39.2166 98.5884 38.8375 98 38.3321L98.8953 36.361C99.4581 36.7906 100.149 37.1697 100.967 37.4477C101.786 37.7256 102.605 37.8773 103.449 37.8773C104.472 37.8773 105.24 37.7256 105.751 37.3971C106.263 37.0686 106.519 36.639 106.519 36.1083C106.519 35.7292 106.365 35.4007 106.084 35.148C105.802 34.8953 105.444 34.6931 105.009 34.5668C104.574 34.4152 103.986 34.2635 103.244 34.0866C102.195 33.8339 101.351 33.6065 100.686 33.3538C100.047 33.1011 99.4837 32.722 99.0233 32.1913C98.5628 31.6606 98.3326 30.9531 98.3326 30.0686C98.3326 29.3105 98.5372 28.6282 98.9465 28.0217C99.3558 27.4152 99.9953 26.9097 100.814 26.556C101.658 26.2022 102.656 26 103.884 26C104.728 26 105.547 26.1011 106.365 26.3033C107.184 26.5054 107.874 26.8087 108.463 27.1877L107.644 29.1588C107.03 28.8051 106.416 28.5523 105.751 28.3502C105.086 28.1733 104.447 28.0722 103.833 28.0722C102.809 28.0722 102.067 28.2491 101.581 28.5776C101.095 28.9061 100.84 29.361 100.84 29.917C100.84 30.296 100.993 30.6245 101.274 30.8773C101.556 31.13 101.914 31.3069 102.349 31.4585C102.784 31.6101 103.372 31.7617 104.114 31.9386C105.137 32.1661 105.981 32.4188 106.621 32.6715C107.286 32.9242 107.849 33.3032 108.309 33.8339C108.77 34.3646 109 35.0469 109 35.9314C109 36.6895 108.795 37.3718 108.386 37.9783C107.977 38.5848 107.337 39.065 106.519 39.444C105.674 39.7978 104.651 40 103.449 40C102.374 39.9495 101.351 39.7978 100.353 39.5199Z" fill="white"/>
<path d="M111.576 38.3876C110.508 37.3126 110 35.777 110 33.7806V26H112.542V33.6782C112.542 36.3912 113.712 37.7477 116.025 37.7477C118.339 37.7477 119.483 36.3912 119.483 33.6782V26H122V33.7806C122 35.777 121.466 37.3126 120.424 38.3876C119.381 39.4625 117.907 40 116 40C114.093 39.9744 112.619 39.4369 111.576 38.3876Z" fill="white"/>
<path d="M125 26H127.644V37.7922H135V40H125V26Z" fill="white"/>
<path d="M136.69 28.2078H132V26H144V28.2078H139.31V40H136.69V28.2078Z" fill="white"/>
<path d="M149 26H146V40H149V26Z" fill="white"/>
<path d="M163 26V40H160.941L153.485 30.5195V40H151V26H153.059L160.515 35.4805V26H163Z" fill="white"/>
<path d="M175.415 32.8231H177.846V38.2563C177.13 38.8123 176.311 39.2419 175.364 39.5451C174.417 39.8484 173.445 40 172.447 40C171.039 40 169.785 39.6967 168.634 39.0903C167.508 38.4838 166.612 37.6498 165.972 36.5884C165.333 35.5271 165 34.3141 165 33C165 31.6607 165.333 30.4729 165.972 29.4116C166.612 28.3502 167.508 27.5162 168.634 26.9097C169.76 26.3032 171.039 26 172.472 26C173.624 26 174.673 26.1769 175.62 26.556C176.567 26.935 177.36 27.491 178 28.1986L176.388 29.7653C175.339 28.7292 174.059 28.1986 172.575 28.1986C171.602 28.1986 170.732 28.4007 169.99 28.8051C169.222 29.2094 168.634 29.7653 168.224 30.4982C167.815 31.231 167.585 32.065 167.585 33C167.585 33.9097 167.789 34.7184 168.224 35.4513C168.659 36.1841 169.248 36.7401 169.99 37.1697C170.758 37.574 171.602 37.8014 172.549 37.8014C173.624 37.8014 174.571 37.574 175.39 37.0939V32.8231H175.415Z" fill="white"/>
<path d="M58.5381 2.15985V6.42751H65.1624V8.63941H58.5381V14H56V0H66V2.15985H58.5381Z" fill="white"/>
<path d="M69.5763 12.362C68.5085 11.287 68 9.75137 68 7.75503V0H70.5424V7.67825C70.5424 10.3912 71.7119 11.7477 74.0254 11.7477C76.339 11.7477 77.4831 10.3912 77.4831 7.67825V0H80V7.78062C80 9.77697 79.4661 11.3126 78.4237 12.3876C77.3814 13.4625 75.9068 14 74 14C72.0932 13.9744 70.6186 13.4369 69.5763 12.362Z" fill="white"/>
<path d="M83 0H85.6178V11.8141H93V14H83V0Z" fill="white"/>
<path d="M94 0H96.6247V11.8141H104V14H94V0Z" fill="white"/>
<path d="M115 0H117.618V11.8141H125V14H115V0Z" fill="white"/>
<path d="M136 11.8141V14H126V0H135.728V2.15985H128.475V5.80297H134.911V7.96283H128.475V11.8141H136Z" fill="white"/>
<path d="M148.415 6.84838H150.846V12.2563C150.13 12.8123 149.311 13.2419 148.364 13.5451C147.417 13.8484 146.445 14 145.447 14C144.039 14 142.785 13.6968 141.634 13.0903C140.508 12.4838 139.612 11.6498 138.972 10.5884C138.333 9.52708 138 8.31408 138 7C138 5.66065 138.333 4.47292 138.972 3.41155C139.612 2.35018 140.508 1.51625 141.634 0.909747C142.76 0.303249 144.039 0 145.472 0C146.624 0 147.673 0.176895 148.62 0.555957C149.567 0.935018 150.36 1.49097 151 2.19856L149.388 3.76534C148.339 2.72924 147.059 2.19856 145.575 2.19856C144.602 2.19856 143.732 2.40072 142.99 2.80505C142.222 3.20939 141.634 3.76534 141.224 4.49819C140.789 5.23105 140.585 6.06498 140.585 7C140.585 7.90975 140.789 8.71841 141.224 9.45126C141.659 10.1841 142.248 10.7401 142.99 11.1697C143.732 11.574 144.602 11.8014 145.549 11.8014C146.624 11.8014 147.571 11.574 148.39 11.0939V6.84838H148.415Z" fill="white"/>
<path d="M161.916 10.7532H155.007L153.646 14H151L157.216 0H159.759L166 14H163.303L161.916 10.7532ZM161.068 8.7013L158.449 2.5974L155.854 8.7013H161.068Z" fill="white"/>
<path d="M167 0H169.618V11.8141H177V14H167V0Z" fill="white"/>
</g>
<defs>
<clipPath id="clip0_3337_1806">
<rect width="178" height="40" fill="white"/>
</clipPath>
</defs>
</svg>
