<svg width="174" height="255" viewBox="0 0 174 255" fill="none" xmlns="http://www.w3.org/2000/svg">
<g clip-path="url(#clip0_2765_975)">
<path d="M85.6882 224.786C85.5989 221.942 85.5067 219.097 85.3791 216.252C85.1225 210.501 84.7241 204.748 83.923 199.044C82.5818 189.494 79.0529 180.996 76.5845 171.777C75.6098 168.121 74.8298 164.415 74.248 160.674C73.1534 153.704 72.7181 146.694 72.7763 139.659C72.8358 132.758 73.3306 125.792 75.7338 119.267C77.0396 115.721 78.4886 111.275 81.3469 108.672C81.7992 108.26 82.6016 107.814 82.9759 107.422C82.9759 107.422 82.9759 107.422 82.9759 107.412C83.1177 107.302 83.2595 107.191 83.3871 107.071C83.4849 106.433 83.6026 105.797 83.6976 105.152C83.7061 105.104 83.7118 105.054 83.7189 105.009C82.2415 104.889 80.611 105.966 79.3123 106.533C76.2173 107.891 73.04 109.051 69.9548 110.439C68.537 111.078 67.0951 111.747 65.7014 112.426C64.3474 113.091 63.2912 114.207 61.9244 114.875C60.4045 115.621 58.8818 116.36 57.3364 117.057C56.1681 117.586 54.9956 118.107 53.8316 118.646C54.665 120.913 55.7454 123.078 57.0529 125.104C57.0117 125.247 56.9706 125.39 56.9253 125.541C55.7783 129.22 53.541 132.397 52.014 135.905C51.6397 136.763 51.3249 137.645 51.0215 138.518C51.7205 138.901 51.7489 139.762 51.9871 140.504C53.9578 146.661 50.7266 150.218 49.8391 155.98C49.1302 160.591 50.8315 164.763 50.6487 169.268C50.5253 172.174 48.926 174.663 48.1845 177.407C47.8603 178.637 47.6141 179.887 47.4473 181.149C45.7913 193.171 43.1088 205.131 40.7751 217.057C40.208 219.916 39.7302 223 39 226.018C39.7529 235.242 39.8507 244.677 39.7798 254H85.6343C85.8356 249.834 85.9859 245.664 85.9987 241.492C86.0157 235.875 85.8654 230.381 85.6882 224.786ZM75.5651 208.644C74.903 207.153 75.7735 205.161 77.4933 205.04C78.2844 204.984 78.7693 205.013 79.4371 205.533C80.8549 206.648 80.258 208.472 79.2684 209.655C78.2788 210.837 76.0911 209.822 75.5651 208.644ZM80.8847 236.491C79.9021 237.665 77.7031 236.659 77.1814 235.481C76.5193 233.988 77.3898 231.998 79.1068 231.877C79.8993 231.821 80.3899 231.849 81.052 232.37C82.4712 233.485 81.8715 235.309 80.8847 236.491Z" fill="#6667AB"/>
<path d="M29.0168 57C29.0168 57.0196 29.0168 57.0308 29 57.0504C29 57.0336 29 57.0168 29 57H29.0168Z" fill="#8CC295"/>
<path d="M97.3286 98.5589V98.4642C101.49 98.3184 106.349 95.84 109.926 93L110 93.0962C109.849 94.3267 109.92 95.6796 109.83 96.7832C109.654 98.9482 109.545 101.186 109.705 103.367C107.233 103.513 104.841 104.169 102.283 103.959C99.3445 103.692 96.4573 103.001 93.7077 101.906C91.3564 100.97 89.2658 99.4176 87.2651 97.8737C85.9028 96.8182 84.8283 95.5615 83.6598 94.2961C83.4517 94.0715 83.2323 93.7741 83 93.4709C84.3581 94.2509 85.7418 94.9915 87.1483 95.7452C88.8725 96.6695 90.7179 97.2818 92.6004 97.8067C94.1425 98.2447 95.7293 98.4971 97.3286 98.5589Z" fill="#E3E3E3"/>
<path d="M80.1483 205.497C81.585 206.577 80.9802 208.345 79.9774 209.49C78.9746 210.635 76.7536 209.652 76.2249 208.511C75.554 207.066 76.4361 205.137 78.1787 205.02C78.9804 204.966 79.476 204.993 80.1483 205.497Z" fill="#37628F"/>
<path d="M152.16 254H114.078C114.131 248.203 114.207 242.365 113.688 236.619C113.256 231.786 112.99 226.932 113.121 222.079C113.228 218.092 112.91 214.05 113.046 210.035C113.19 205.542 114.168 201.076 114.354 196.564C114.498 193.2 115.074 189.946 115.793 186.657C116.615 182.884 116.564 178.996 117.601 175.232C118.652 171.432 119.76 167.654 120.523 163.761C121.214 160.22 121.639 156.65 122.368 153.127C124.025 145.141 124.065 137.061 122.753 129.017C122.37 126.669 122.206 124.333 121.62 122.011C120.469 117.469 118.389 113.043 114.819 109.887C113.499 108.72 111.691 108.155 110.403 107.07C110.282 106.435 110.142 105.805 110.026 105.161C110.015 105.113 110.007 105.065 110 105.018C111.494 104.851 113.184 105.876 114.52 106.402C117.703 107.661 120.965 108.717 124.139 110.007C125.6 110.599 127.082 111.222 128.512 111.857C129.906 112.478 131.021 113.562 132.421 114.185C133.987 114.883 135.557 115.572 137.146 116.22C140.528 117.598 143.946 118.928 147.116 120.754C151.321 123.184 155.275 125.601 158.63 129.19C161.758 132.549 164.244 136.981 166.412 140.995C168.81 145.436 170.617 150.402 172.238 155.169C172.63 156.324 173.205 157.488 173.433 158.685C173.865 160.938 174.009 163.289 174.354 165.568C174.743 168.142 175.097 170.723 175.418 173.312C176.073 178.57 176.605 183.843 177.064 189.121C177.65 195.851 177.577 202.623 178.304 209.343C179.013 215.92 181.598 221.831 182.715 228.29C183.435 232.479 182.596 236.682 182.321 240.873C182.177 243.129 183.008 245.305 182.98 247.554C182.954 249.716 182.371 251.829 182.311 253.999L152.16 254Z" fill="#6667AB"/>
<path d="M29.5057 133.866C29.2804 132.801 29.1421 131.728 28.9353 130.643C28.7243 129.503 28.4662 128.362 28.2081 127.222C27.1329 122.477 26.3229 118.058 27.8202 113.297C29.1649 109.02 31.4964 105.111 32.5174 100.732C33.2175 97.7302 33.0507 94.7139 32.9537 91.6534C32.8311 87.9029 33.0264 84.1397 33.0493 80.3921C33.0649 77.7663 32.7641 73.9503 35.3622 72.3566C36.1009 71.9047 36.55 71.8962 37.3386 72.2525C39.5902 73.2689 40.0137 76.5974 40.1107 78.7285C40.3831 84.697 40.1592 90.6456 40.135 96.6198C40.135 96.9434 40.1948 97.1429 40.2077 97.438C41.0266 97.4024 41.8457 97.5026 42.6318 97.7345C46.1155 98.7837 48.4784 101.877 50.6173 104.672C51.1036 102.631 52.2358 100.161 54.3705 99.4422C55.0193 99.2241 55.5755 99.0716 56.2243 99.3082C57.2054 99.6689 58.1066 100.278 58.5743 101.237C59.5839 103.3 58.5401 105.871 58.0852 107.947C57.7715 109.379 57.3879 110.785 57.3964 112.277C57.3964 113.904 57.6731 115.513 57.713 117.138C57.7458 118.458 57.7387 119.79 57.6403 121.112C57.535 122.724 57.245 124.318 56.7761 125.864C55.6225 129.531 53.3723 132.699 51.8365 136.197C51.4601 137.052 51.1435 137.932 50.8384 138.803C49.9314 141.324 49.0473 143.782 46.7415 145.547C43.707 147.876 39.6458 147.115 36.5614 145.302C34.8755 144.311 33.3901 143.014 32.1823 141.477C31.5106 140.622 31.2825 140.017 31.09 138.985C30.839 137.635 30.1845 136.345 29.7995 135.029C29.6844 134.644 29.5865 134.256 29.5057 133.866Z" fill="#F6F6F6"/>
<path d="M105.816 74.8137C106.542 76.6685 104.962 78.7532 103.782 80.0118C101.817 82.0994 99.2486 83.3159 96.3912 82.9284C94.7831 82.7122 93.5033 82.3412 92.1349 81.4115C90.8958 80.569 89.7264 79.5612 88.8418 78.3236C88.1503 77.3549 87.6026 75.5932 88.3798 74.5058C89.0233 73.6046 90.2581 73.2923 91.2851 73.4034C92.2395 73.504 93.2186 73.519 94.1759 73.5911C95.0693 73.64 95.9647 73.6354 96.8575 73.5776C98.0284 73.522 99.208 73.5776 100.372 73.4274C101.435 73.2772 102.475 72.8267 103.557 73.0715C104.555 73.2922 105.412 73.7894 105.816 74.8137Z" fill="#D8D8D8"/>
<path d="M60.7401 60.5577C60.5787 59.416 60.4545 58.2744 60.3117 57.1484C60.1689 55.9112 60.0604 54.6411 59.6763 53.438C58.9052 51.0235 57.4116 48.9214 56.5905 46.5268C56.205 45.4023 55.9851 44.3791 56.0008 43.1846C56.0208 41.886 56.1921 40.5973 56.3049 39.3044C56.4906 37.1424 56.9432 35.0118 57.4473 32.904C58.1141 30.1298 59.1137 27.2614 58.8138 24.3802C58.7781 24.0463 58.7353 23.7137 58.6924 23.3812C58.4168 21.2064 59.1522 19.5952 60.1475 17.7258C61.6825 14.8374 63.9729 12.1602 66.9101 10.619C70.1372 8.92794 74.0783 8.35569 77.4511 6.89295C78.8999 6.26087 80.2948 5.51204 81.622 4.65389C82.1661 4.30283 82.5802 3.85045 83.1528 3.55362C84.0167 3.10695 84.9305 2.74305 85.8187 2.36202C86.893 1.89869 88.0163 1.55831 89.1672 1.34738C92.7107 0.737444 96.3461 0.932542 99.8038 1.91821C103.131 2.87148 106.586 4.91504 107.41 8.52551C107.622 9.45596 108.319 9.36748 109.164 9.36748C111.663 8.79665 114.344 9.36748 116.568 10.5862C119.803 12.3572 120.896 15.4382 122.636 18.435C124.183 21.0994 126.349 23.3256 128.24 25.7345C130.648 28.8012 132.483 32.2633 131.886 36.2805C131.601 38.1513 131.315 39.9081 131.378 41.7861C131.437 43.6969 130.521 45.8603 130.049 47.6913C129.739 48.8772 129.62 50.1629 129.16 51.2818C128.048 53.9547 127.867 56.7731 127.994 59.6187C128.002 59.8256 128.011 60.0325 128.024 60.2409C128.05 61.0025 128.029 61.7651 127.961 62.5242C127.939 63.0646 127.843 63.5995 127.675 64.1139C127.513 64.562 127.137 65.2556 126.592 65.3312C124.808 65.5952 125.151 60.4192 125.124 59.466C125.034 56.3264 124.477 52.803 122.665 50.1401C121.724 48.7587 121.147 47.0106 120.761 45.3866C120.333 43.587 120.22 41.8917 120.222 40.0565C120.222 37.2024 120.432 34.3168 118.901 31.7196C117.502 29.3464 114.627 28.2946 112.004 28.1005C111.374 28.0534 110.974 28.0934 110.359 28.0563C106.115 27.8009 101.934 28.0934 97.9889 29.7502C96.7358 30.2598 95.3902 30.5028 94.0378 30.4638C90.5794 30.401 87.308 29.0196 83.9581 28.3232C82.3543 27.9884 80.711 27.8826 79.0775 28.0092C77.3511 28.1277 75.619 28.2347 74.184 29.3378C72.8903 30.3367 72.0064 31.7638 71.5052 33.3036C71.1706 34.3712 70.9518 35.4716 70.8526 36.5859C70.7098 37.9801 71.1154 39.3073 70.9954 40.6872C70.7955 43.0933 70.3529 45.3965 69.1877 47.5371C68.885 48.0937 68.6779 48.6888 68.4237 49.2653C68.1924 49.7876 67.844 50.1715 67.5327 50.6453C66.8502 51.6828 66.0934 52.6903 65.6193 53.8476C64.5412 56.4891 65.2209 59.3832 65.2595 62.1246C65.2766 63.2491 65.2595 64.4721 64.5269 65.3954C63.763 66.3487 62.742 66.0847 62.0138 65.2285C61.2527 64.338 61.1685 63.2049 60.9771 62.1032C60.8943 61.578 60.8115 61.0714 60.7401 60.5577Z" fill="#1E244A"/>
<path d="M110.089 105C110.095 105.049 110.104 105.096 110.114 105.143C110.064 105.113 110.016 105.119 110 105.009C110.029 105.006 110.067 105.003 110.089 105Z" fill="#8CC295"/>
<path d="M111.943 56.3407C112.14 57.3008 111.81 58.331 111.249 59.1334C110.626 60.025 109.252 60.1402 108.23 59.8741C105.949 59.2816 105.278 56.7192 106.873 55.1102C107.725 54.2516 109.17 53.6412 110.362 54.2392C111.096 54.6068 111.786 55.5766 111.943 56.3407Z" fill="#2B1A0F"/>
<path d="M81.1484 232.497C82.5855 233.578 81.979 235.345 80.9788 236.49C79.9786 237.635 77.7539 236.652 77.225 235.511C76.5539 234.065 77.4363 232.137 79.1766 232.02C79.9786 231.966 80.4758 231.993 81.1484 232.497Z" fill="#37628F"/>
<path d="M52.364 140.931C54.3656 147.087 51.0838 150.643 50.1823 156.403C49.4623 161.014 51.1904 165.185 51.0046 169.688C50.8793 172.594 49.2549 175.083 48.5018 177.825C48.1725 179.056 47.9224 180.306 47.753 181.567C46.071 193.586 43.3465 205.544 40.9762 217.467C40.4002 220.326 39.9149 223.409 39.1733 226.426C38.2329 230.252 36.8908 233.969 34.4888 236.966C28.7863 244.081 15.0757 246.842 7.83662 240.286C3.51651 236.371 1.85326 230.138 1.26429 224.564C-0.0432671 212.199 3.71235 198.955 7.87837 187.448C9.33857 183.421 11.3085 179.599 12.7947 175.584C14.1982 171.859 15.1176 167.971 15.5307 164.015C15.8187 161.181 16.4984 158.405 17.8665 155.886C19.4721 152.93 22.2485 150.804 23.2292 147.498C24.5626 143.002 23.7058 137.791 28.3226 134.889C28.8396 134.565 29.4328 134.402 29.8375 134C29.9201 134.389 30.0161 134.776 30.1255 135.162C30.5143 136.481 31.1753 137.775 31.4287 139.128C31.6231 140.163 31.8536 140.768 32.5318 141.627C33.7516 143.168 35.2516 144.469 36.9542 145.462C40.069 147.275 44.1702 148.043 47.2346 145.707C49.5631 143.938 50.4559 141.474 51.3718 138.945C52.099 139.328 52.1278 140.189 52.364 140.931Z" fill="#6667AB"/>
<path d="M82.8141 105.052C82.8141 104.952 82.8141 104.855 82.8141 104.756C82.9237 102.765 82.9266 100.769 82.8228 98.7767C82.7619 97.7806 82.6632 96.7873 82.5108 95.8024C82.4455 95.3797 82.3077 94.9683 82.2307 94.571C82.1611 94.199 82.267 93.6256 82 93.3184L82.1901 93C82.4339 93.1409 82.6806 93.2733 82.9288 93.41C83.1653 93.7031 83.3888 93.9905 83.6007 94.2075C84.7907 95.4262 85.8849 96.6407 87.2752 97.6608C89.3069 99.1529 91.4416 100.653 93.8361 101.558C96.6363 102.616 99.5766 103.284 102.57 103.542C105.182 103.745 107.61 103.119 110.128 102.97C110.154 103.335 110.188 103.697 110.235 104.056C110.267 104.314 110.307 104.568 110.354 104.821C110.325 104.821 110.293 104.821 110.264 104.832C110.28 104.941 110.329 104.935 110.38 104.965C110.498 105.599 110.638 106.22 110.76 106.846C110.945 107.705 111.024 108.583 110.994 109.461C110.893 111.12 110.443 112.742 109.67 114.226C108.164 117.164 105.53 119.598 102.369 120.792C101.747 121.027 101.13 121.298 100.499 121.512C99.3312 121.892 98.1 122.052 96.8706 121.985C95.6387 121.908 94.4179 121.711 93.2266 121.396C91.282 120.893 89.6595 120.377 88.0022 119.201C85.5105 117.426 83.5804 114.833 82.8025 111.911C82.5029 110.887 82.4705 109.806 82.7082 108.766C82.8106 108.242 82.8592 107.709 82.8533 107.176C82.8519 106.461 82.8011 105.757 82.8141 105.052Z" fill="#F6F6F6"/>
<path d="M114.797 45.1734C115.292 45.9587 114.834 46.8031 113.944 46.9313C113.113 47.0524 112.302 46.6993 111.536 46.44C111.188 46.3204 110.812 46.1792 110.459 46.0956C110.016 45.9904 109.588 46.1244 109.146 46.1114C107.872 46.0725 106.746 46.5509 105.556 46.9198C105.24 47.0164 104.835 47.0524 104.522 46.8737C103.432 46.2627 104.285 45.2238 104.942 44.6546C105.359 44.2786 105.849 43.9876 106.383 43.7987C107.122 43.5264 107.968 43.2223 108.747 43.1128C109.427 42.9976 110.119 42.9705 110.806 43.0321C112.193 43.1848 114.04 43.9687 114.797 45.1734Z" fill="#1E244A"/>
<path d="M87.7963 45.1719C88.2928 45.9578 87.8332 46.8029 86.9422 46.9313C86.1117 47.0524 85.3035 46.6991 84.538 46.4395C84.1893 46.3198 83.814 46.1785 83.4593 46.0948C83.016 45.9896 82.589 46.1237 82.1457 46.1107C80.8719 46.0718 79.7474 46.5506 78.5564 46.9197C78.2432 47.0164 77.8383 47.0524 77.5221 46.8736C76.433 46.2621 77.2842 45.2224 77.9402 44.6527C78.3575 44.276 78.8479 43.9847 79.3824 43.7961C80.1213 43.5235 80.968 43.2192 81.7467 43.1096C82.424 42.9965 83.1136 42.9708 83.7977 43.0332C85.1852 43.1817 87.0353 43.9663 87.7963 45.1719Z" fill="#1E244A"/>
<path d="M84.9428 56.3407C85.1396 57.3008 84.8096 58.331 84.2481 59.1334C83.6244 60.025 82.251 60.1402 81.2292 59.8741C78.9499 59.2816 78.2784 56.7192 79.8718 55.1102C80.7256 54.2516 82.1685 53.6412 83.361 54.2392C84.0961 54.6068 84.7865 55.5766 84.9428 56.3407Z" fill="#2B1A0F"/>
<path d="M83.7587 93.9888C83.5149 93.845 83.2725 93.7113 83.033 93.5705C81.6414 92.7654 80.2769 91.9087 78.9381 90.9542C76.3017 89.0724 73.4786 86.9204 71.5324 84.2898C70.3803 82.7344 69.1884 81.2436 67.9836 79.7227C66.9113 78.3686 66.2184 76.7557 65.1804 75.3785C64.0768 73.9122 62.8335 73.6794 61.2994 72.8039C59.731 71.9098 58.2709 70.6893 57.2215 69.2101C56.8109 68.6351 56.3803 68.2038 56.0923 67.5497C55.7642 66.8544 55.4928 66.1332 55.281 65.3934C54.8889 63.8912 54.8689 62.274 55.4664 60.8207C55.7291 60.2202 56.1427 59.6993 56.6663 59.3095C57.19 58.9198 57.8055 58.6746 58.452 58.5982C60.153 58.4272 60.7333 59.6692 61.623 60.8422C61.6943 61.3597 61.7727 61.8744 61.8625 62.3904C62.0536 63.5002 62.1377 64.6416 62.8977 65.5386C63.6248 66.4011 64.6443 66.6671 65.4071 65.7068C66.1457 64.7767 66.1557 63.5505 66.1386 62.412C66.1001 59.6433 65.4256 56.728 66.4979 54.0743C66.9712 52.9085 67.7269 51.8936 68.4084 50.8485C68.7193 50.3712 69.0672 49.986 69.2981 49.4584C69.5519 48.8834 69.7587 48.2782 70.061 47.7176C71.2244 45.5613 71.6664 43.2397 71.866 40.8174C71.9815 39.4273 71.5809 38.0861 71.7235 36.686C71.8225 35.5635 72.041 34.455 72.375 33.3796C72.8712 31.8343 73.7538 30.3867 75.0456 29.3905C76.4785 28.2793 78.208 28.1715 79.9318 28.0522C81.563 27.9247 83.2038 28.0312 84.8053 28.3684C88.1502 29.0757 91.4168 30.4672 94.8701 30.5247C96.2204 30.564 97.564 30.3192 98.8153 29.806C102.756 28.137 106.93 27.8423 111.167 28.0996C111.782 28.137 112.181 28.0996 112.81 28.1442C115.429 28.3425 118.299 29.3991 119.696 31.7897C121.225 34.406 121.019 37.3113 121.015 40.1878C121.015 42.0365 121.126 43.7442 121.554 45.557C121.939 47.1929 122.515 48.9538 123.455 50.3454C125.264 53.0278 125.82 56.5713 125.91 59.7396C125.937 60.6999 125.595 65.921 127.376 65.6479C127.92 65.5659 128.295 64.8731 128.458 64.4217C128.625 63.9035 128.721 63.3647 128.743 62.8203C128.811 62.0556 128.832 61.2875 128.806 60.5202C128.793 60.3103 128.784 60.1019 128.776 59.8934H128.86C130.368 57.6164 133.622 58.7937 134.519 60.9702C135.136 62.4695 135.114 64.1327 134.71 65.6896C134.49 66.4505 134.21 67.1923 133.872 67.9077C133.575 68.5848 133.13 69.0289 132.708 69.6241C131.623 71.1479 130.109 72.41 128.495 73.33C127.306 74.0114 126.05 74.5591 124.832 75.1816L124.745 75.1428C123.202 78.6949 121.297 82.375 118.933 85.2515C117.08 87.5041 114.83 89.7251 112.735 91.7563C112.09 92.3784 111.412 92.9666 110.707 93.5187C107.128 96.3262 102.266 98.7686 98.1024 98.9066V99C96.5024 98.9405 94.9147 98.693 93.3715 98.2625C91.488 97.745 89.6416 97.1413 87.9164 96.2299C86.502 95.4881 85.1175 94.7579 83.7587 93.9888ZM113.858 47.2245C114.713 47.0966 115.158 46.2542 114.68 45.4707C113.945 44.2689 112.162 43.4869 110.818 43.3389C110.157 43.2765 109.491 43.3021 108.837 43.415C108.087 43.53 107.269 43.8276 106.556 44.0993C106.041 44.2877 105.568 44.578 105.166 44.9532C104.533 45.521 103.71 46.5575 104.761 47.167C105.069 47.3453 105.46 47.3108 105.759 47.213C106.9 46.845 107.993 46.3677 109.222 46.4065C109.65 46.4195 110.065 46.2858 110.488 46.3907C110.829 46.4741 111.191 46.615 111.528 46.7343C112.274 46.9931 113.056 47.3452 113.858 47.2245ZM111.337 59.7439C111.889 58.903 112.214 57.8263 112.02 56.8171C111.866 56.0164 111.186 55.0001 110.463 54.6148C109.288 53.9881 107.865 54.6278 107.025 55.5277C105.457 57.2096 106.115 59.8992 108.363 60.5202C109.369 60.7991 110.722 60.6783 111.337 59.7439ZM104.285 79.7155C105.447 78.5109 106.994 76.5156 106.281 74.7402C105.884 73.7599 105.043 73.284 104.067 73.0698C103.004 72.837 101.983 73.274 100.94 73.4105C99.7991 73.5543 98.6399 73.504 97.4907 73.5543C96.6143 73.6096 95.7355 73.614 94.8587 73.5672C93.9191 73.4982 92.9581 73.4839 92.0213 73.3875C91.0061 73.2812 89.7942 73.5802 89.1697 74.4427C88.4069 75.4835 88.9444 77.174 89.6231 78.0969C90.4914 79.2814 91.6392 80.246 92.8554 81.0524C94.1985 81.9423 95.4547 82.2973 97.033 82.5043C99.8347 82.8666 102.356 81.7166 104.285 79.7155ZM86.6973 47.2274C87.5528 47.0994 88.0005 46.257 87.5214 45.4736C86.7871 44.2718 85.002 43.4898 83.6575 43.3417C82.9974 43.2795 82.332 43.3051 81.6785 43.4179C80.9299 43.5329 80.1101 43.8305 79.3972 44.1022C78.8814 44.2902 78.4082 44.5806 78.0056 44.9561C77.3725 45.5239 76.5512 46.5604 77.6021 47.1699C77.91 47.3481 78.3007 47.3136 78.6001 47.2159C79.7493 46.8479 80.8344 46.3706 82.0634 46.4094C82.4912 46.4224 82.9089 46.2887 83.331 46.3936C83.6732 46.477 84.0353 46.6179 84.3718 46.7372C85.1161 46.9931 85.896 47.3452 86.6973 47.2245V47.2274ZM84.5971 59.7468C85.1503 58.9059 85.4754 57.8292 85.2815 56.82C85.1275 56.0193 84.446 55.003 83.7231 54.6177C82.5482 53.9909 81.1267 54.6306 80.2854 55.5305C78.7171 57.2125 79.3772 59.9021 81.6229 60.5231C82.6295 60.7991 83.9826 60.6783 84.5971 59.7439V59.7468Z" fill="#F6F6F6"/>
<path d="M90.7338 244.652C90.2301 243.144 90.2657 241.617 89.9982 240.045C89.3551 236.265 88.9312 232.452 88.5926 228.635C88.4318 226.812 88.53 224.778 88.1216 222.997C87.7973 221.578 87.6948 220.243 87.6166 218.781C87.2039 211.74 85.9906 204.768 84 198C84.0811 198.487 84.1594 198.976 84.2291 199.468C85.0016 204.905 85.4 210.393 85.6518 215.869C85.6618 216.095 85.6731 216.32 85.6831 216.546C85.8111 219.369 85.9036 222.193 85.9932 225.015C86.1711 230.568 86.3247 236.02 86.3048 241.587C86.292 245.727 86.1412 249.866 85.9392 254H92C91.9061 252.756 91.7368 251.51 91.5646 250.28C91.3142 248.478 91.3029 246.377 90.7338 244.652Z" fill="#A8A9D1"/>
<path d="M123.079 128.957C122.698 126.608 122.535 124.271 121.953 121.948C120.809 117.404 118.742 112.975 115.195 109.818C113.883 108.651 112.087 108.086 110.807 107C110.989 107.873 111.066 108.764 111.037 109.655C110.938 111.34 110.494 112.987 109.733 114.493C108.248 117.476 105.652 119.948 102.537 121.159C101.923 121.398 101.315 121.673 100.693 121.89C99.5424 122.276 98.3289 122.439 97.1173 122.371C95.9008 122.294 94.6951 122.095 93.5186 121.776C91.602 121.265 90.0029 120.742 88.3695 119.547C85.9137 117.745 84.0114 115.113 83.2447 112.146C82.9494 111.105 82.9174 110.008 83.1517 108.953C83.2527 108.42 83.3006 107.879 83.2948 107.338C82.9172 107.722 82.1076 108.176 81.6514 108.588C78.7679 111.193 77.3061 115.642 75.9888 119.19C73.5573 125.717 73.0652 132.689 73.0051 139.595C72.9465 146.64 73.3856 153.654 74.4898 160.623C75.0754 164.366 75.8608 168.074 76.8427 171.733C79.2041 180.478 82.5224 188.582 84.0142 197.535C86.0154 204.36 87.2352 211.389 87.6501 218.488C87.7359 219.963 87.8317 221.317 88.1578 222.74C88.5683 224.535 88.4696 226.587 88.6312 228.425C88.9717 232.273 89.3979 236.118 90.0444 239.929C90.3133 241.514 90.2775 243.054 90.7839 244.574C91.3646 246.314 91.3731 248.437 91.6263 250.249C91.7994 251.489 91.9696 252.745 92.064 254H114.458C114.511 248.201 114.587 242.36 114.071 236.61C113.642 231.775 113.377 226.919 113.507 222.063C113.614 218.075 113.298 214.031 113.433 210.014C113.576 205.519 114.548 201.05 114.733 196.537C114.876 193.171 115.448 189.915 116.163 186.625C116.98 182.85 116.928 178.96 117.96 175.195C119.004 171.393 120.105 167.613 120.863 163.718C121.55 160.176 121.972 156.604 122.697 153.079C124.343 145.094 124.383 137.005 123.079 128.957Z" fill="#BFC0F2"/>
<path d="M101.394 25C101.316 24.9999 101.24 24.977 101.176 24.9342C101.111 24.8913 101.061 24.8305 101.031 24.7592C101.001 24.688 100.992 24.6095 101.007 24.5337C101.022 24.4579 101.059 24.3881 101.113 24.333C103.984 21.4417 105.306 17.635 106.221 14.3042C106.233 14.2527 106.255 14.2042 106.286 14.1616C106.318 14.1189 106.357 14.0829 106.403 14.0558C106.448 14.0286 106.499 14.0109 106.551 14.0037C106.604 13.9965 106.657 13.9999 106.709 14.0137C106.76 14.0275 106.808 14.0514 106.85 14.0841C106.891 14.1167 106.926 14.1574 106.951 14.2037C106.977 14.25 106.993 14.3009 106.998 14.3534C107.003 14.4059 106.998 14.4589 106.982 14.5093C105.297 20.631 103.358 23.1887 101.675 24.8842C101.638 24.9212 101.594 24.9505 101.546 24.9704C101.498 24.9903 101.446 25.0003 101.394 25Z" fill="black"/>
<path d="M107.423 25C107.323 24.9999 107.227 24.9677 107.15 24.9092C107.074 24.8507 107.023 24.7696 107.006 24.6802C106.989 24.5909 107.008 24.4991 107.059 24.4209C107.109 24.3428 107.189 24.2834 107.283 24.2533C109.493 23.5618 111.535 22.4895 113.295 21.0955C113.38 21.0282 113.491 20.9942 113.603 21.0008C113.716 21.0075 113.82 21.0543 113.895 21.131C113.969 21.2078 114.006 21.3081 113.999 21.4099C113.992 21.5117 113.94 21.6067 113.855 21.674C112.012 23.132 109.876 24.2543 107.564 24.9795C107.518 24.9928 107.471 24.9998 107.423 25Z" fill="black"/>
<path d="M88.6222 22C88.5364 21.9998 88.4531 21.9674 88.3864 21.9083C88.3197 21.8492 88.2734 21.7669 88.2554 21.6751C87.4093 17.3951 85.2137 14.1568 82.2309 12.7916C82.1853 12.7706 82.1439 12.7401 82.1091 12.7016C82.0742 12.6632 82.0467 12.6177 82.028 12.5676C82.0093 12.5175 81.9998 12.4639 82 12.4098C82.0003 12.3557 82.0102 12.3022 82.0294 12.2524C82.0486 12.2025 82.0765 12.1572 82.1117 12.1192C82.1469 12.0811 82.1885 12.051 82.2343 12.0306C82.2802 12.0101 82.3292 11.9997 82.3787 12C82.4282 12.0003 82.4771 12.0112 82.5227 12.0321C85.7358 13.5042 88.0934 16.9561 88.9917 21.5025C89.0125 21.609 88.9938 21.7201 88.9399 21.8116C88.886 21.9032 88.8012 21.9677 88.7039 21.9912C88.677 21.9971 88.6497 22.0001 88.6222 22Z" fill="black"/>
<path d="M75.595 21.9983C75.5266 21.9979 75.4594 21.9767 75.3998 21.9368C72.9601 20.3274 70.6309 19.6942 68.4596 20.0595C68.4071 20.0682 68.3536 20.0646 68.3023 20.0487C68.251 20.0329 68.2029 20.0053 68.1605 19.9673C68.1182 19.9294 68.0826 19.8819 68.0557 19.8275C68.0289 19.7732 68.0113 19.7131 68.0039 19.6507C67.9966 19.5883 67.9996 19.5247 68.0129 19.4637C68.0262 19.4027 68.0495 19.3454 68.0814 19.2951C68.1133 19.2448 68.1532 19.2024 68.1989 19.1705C68.2446 19.1385 68.2951 19.1176 68.3476 19.1088C70.6969 18.7163 73.2012 19.387 75.7916 21.1006C75.8701 21.152 75.9318 21.2331 75.9672 21.331C76.0026 21.4289 76.0096 21.538 75.987 21.6411C75.9645 21.7442 75.9137 21.8354 75.8427 21.9004C75.7718 21.9654 75.6846 22.0004 75.595 22V21.9983Z" fill="black"/>
<path d="M97.1383 67C96.6959 66.9916 96.2599 66.8851 95.8578 66.6874C95.2058 66.4061 94.607 66.0003 94.0905 65.4897C94.0289 65.4114 93.9967 65.3112 94.0003 65.2088C94.0038 65.1064 94.0428 65.0091 94.1098 64.9358C94.1767 64.8626 94.2667 64.8186 94.3622 64.8125C94.4577 64.8063 94.552 64.8385 94.6266 64.9027C95.0777 65.3418 95.5993 65.6899 96.1663 65.9301C96.5491 66.1296 96.9774 66.207 97.4002 66.1531C97.6914 66.1012 97.9746 66.0069 98.242 65.8728C98.6081 65.6923 99.7158 65.139 98.9878 62.5823C98.7465 61.7369 98.4627 60.8871 98.1885 60.0666C97.9376 59.3167 97.6785 58.5402 97.4509 57.7638C97.3387 57.3368 97.2711 56.8977 97.2494 56.4547C97.2329 56.2521 97.2178 56.0599 97.1918 55.8676C96.9944 54.3647 97.1178 52.8148 97.2795 51.3633C97.2856 51.3095 97.3014 51.2575 97.3262 51.2103C97.351 51.1631 97.3843 51.1216 97.424 51.0881C97.4638 51.0547 97.5094 51.0299 97.5581 51.0153C97.6068 51.0007 97.6578 50.9965 97.708 51.0029C97.7582 51.0094 97.8068 51.0264 97.8509 51.0529C97.895 51.0795 97.9338 51.1151 97.965 51.1576C97.9963 51.2002 98.0194 51.249 98.033 51.3011C98.0467 51.3533 98.0506 51.4078 98.0446 51.4616C97.8883 52.8574 97.7704 54.3427 97.9555 55.7531C97.9829 55.9689 98.0007 56.1802 98.0171 56.3842C98.0341 56.7674 98.0906 57.1474 98.1858 57.5173C98.4093 58.279 98.6656 59.0466 98.9138 59.7892C99.188 60.62 99.4787 61.4786 99.7254 62.343C100.489 65.0289 99.5157 66.159 98.5656 66.6228C98.2337 66.7887 97.8822 66.9053 97.5208 66.9692C97.3943 66.99 97.2664 67.0003 97.1383 67Z" fill="#676767"/>
<path d="M61.6273 69C61.5575 69.0001 61.4892 68.9804 61.4298 68.9433C61.3704 68.9062 61.3223 68.8531 61.2909 68.7899C61.0973 68.3968 60.7289 68.1433 60.3378 67.8749C59.8853 67.5645 59.3713 67.2121 59.1284 66.594C58.8854 65.9759 59.051 65.393 59.2018 64.8969C59.2705 64.6937 59.3231 64.4852 59.3593 64.2734C59.3718 64.0609 59.3309 63.8487 59.2405 63.6567C59.2005 63.5455 59.1591 63.4317 59.1244 63.3042C59.0149 62.8976 58.9161 62.6536 58.6839 62.4598C58.0858 61.9623 57.5519 61.717 57.1808 61.7685C57.0772 61.7859 56.9785 61.8258 56.8914 61.8855C56.8043 61.9451 56.7309 62.0231 56.6762 62.1141C56.6178 62.1939 56.531 62.2474 56.4343 62.2631C56.3377 62.2788 56.2388 62.2555 56.1588 62.1981C56.0788 62.1408 56.0241 62.054 56.0063 61.9562C55.9885 61.8585 56.009 61.7575 56.0635 61.6749C56.1764 61.4973 56.3254 61.3463 56.5007 61.2322C56.6759 61.1181 56.8733 61.0435 57.0793 61.0135C57.6774 60.9321 58.3768 61.2195 59.1591 61.8715C59.5836 62.2239 59.7331 62.6739 59.8479 63.1023C59.8746 63.1999 59.9079 63.2947 59.9453 63.3964C60.0825 63.706 60.1364 64.0469 60.1015 64.3846C60.0605 64.635 59.9993 64.8816 59.9186 65.1219C59.7851 65.5706 59.673 65.9244 59.8252 66.3121C59.9774 66.6997 60.3418 66.9586 60.7596 67.2446C61.1774 67.5306 61.682 67.8777 61.961 68.4483C61.9893 68.5064 62.0026 68.5709 61.9996 68.6356C61.9966 68.7003 61.9775 68.7632 61.944 68.8184C61.9105 68.8736 61.8637 68.9192 61.8081 68.9509C61.7524 68.9827 61.6898 68.9996 61.6259 69H61.6273Z" fill="#676767"/>
<path d="M127.425 70C127.359 70.0004 127.294 69.9852 127.236 69.9555C127.186 69.9311 127.141 69.8973 127.104 69.856C127.068 69.8148 127.04 69.7668 127.022 69.7149C127.004 69.6631 126.997 69.6083 127.001 69.5537C127.005 69.4992 127.02 69.4459 127.045 69.397C127.374 68.7569 127.954 68.3776 128.451 68.0443C128.947 67.7109 129.359 67.4413 129.549 66.9864C129.738 66.5316 129.594 66.1227 129.44 65.6352C129.346 65.3641 129.274 65.0862 129.225 64.804C129.185 64.4253 129.249 64.0431 129.408 63.6958C129.45 63.5817 129.491 63.4736 129.521 63.3639C129.656 62.8809 129.824 62.3772 130.324 61.9801C131.233 61.2482 132.054 60.9223 132.748 61.0156C132.987 61.0497 133.216 61.1334 133.42 61.2612C133.623 61.389 133.797 61.5578 133.928 61.7564C133.99 61.8467 134.013 61.957 133.993 62.0639C133.973 62.1707 133.911 62.2656 133.82 62.3283C133.729 62.3909 133.617 62.4164 133.507 62.3993C133.397 62.3821 133.299 62.3237 133.233 62.2364C133.167 62.1315 133.079 62.0418 132.974 61.9735C132.87 61.9052 132.751 61.8599 132.627 61.8409C132.187 61.7831 131.557 62.0601 130.854 62.6246C130.579 62.8454 130.464 63.121 130.333 63.5832C130.294 63.7314 130.246 63.8558 130.199 63.9803C130.102 64.244 130.024 64.4514 130.058 64.6825C130.101 64.9219 130.162 65.1577 130.243 65.3878C130.42 65.9463 130.621 66.5731 130.33 67.2946C130.04 68.0161 129.473 68.3673 128.919 68.7347C128.464 69.031 128.026 69.3274 127.798 69.7718C127.762 69.8392 127.709 69.896 127.644 69.9362C127.578 69.9764 127.502 69.9984 127.425 70Z" fill="#676767"/>
<path d="M49.5617 116C49.4935 115.999 49.426 115.985 49.3622 115.959C49.349 115.952 49.3346 115.948 49.32 115.948C49.2272 115.937 49.142 115.887 49.0825 115.808C49.023 115.729 48.9938 115.629 49.0011 115.527C49.0084 115.425 49.0517 115.331 49.1217 115.263C49.1917 115.196 49.283 115.161 49.3763 115.165C49.4438 115.17 49.5104 115.185 49.5745 115.209C49.6089 115.2 49.6442 115.198 49.6793 115.2C50.6332 115.277 51.4695 113.978 51.7636 113.143C52.2623 111.754 52.4029 110.147 52.1779 108.364C51.9886 106.856 51.7419 105.29 50.9913 104.236L50.5667 103.632C50.5087 103.549 50.4832 103.445 50.4958 103.341C50.5084 103.238 50.5581 103.144 50.6339 103.081C50.7097 103.018 50.8054 102.99 50.9 103.003C50.9946 103.017 51.0803 103.071 51.1383 103.154C51.279 103.357 51.4196 103.558 51.5603 103.755C52.4183 104.968 52.6881 106.645 52.8901 108.258C53.1305 110.175 52.9758 111.915 52.4324 113.428C52.2023 114.067 51.8565 114.648 51.4158 115.137C50.8749 115.724 50.2765 116.018 49.6832 115.993C49.6429 115.999 49.6023 116.001 49.5617 116Z" fill="#676767"/>
<path d="M35.3752 97.9999C35.2964 97.9982 35.2201 97.9762 35.1566 97.9367C35.0931 97.8973 35.0455 97.8423 35.0203 97.7793C34.995 97.7163 34.9933 97.6482 35.0154 97.5843C35.0375 97.5205 35.0823 97.4639 35.1438 97.4222C36.4389 96.6109 37.9755 96.119 39.5824 96.0012C39.6841 95.9938 39.785 96.0209 39.8631 96.0763C39.9411 96.1318 39.9899 96.2112 39.9986 96.2969C40.0073 96.3827 39.9753 96.4679 39.9095 96.5338C39.8438 96.5997 39.7498 96.6408 39.6481 96.6482C38.1852 96.7555 36.7862 97.203 35.6066 97.941C35.5389 97.9811 35.4578 98.0017 35.3752 97.9999Z" fill="#676767"/>
<path d="M43.1608 122C42.6064 122 42.087 121.859 41.7146 121.471C41.6543 121.431 41.5899 121.398 41.5225 121.371C41.3014 121.273 40.9304 121.107 40.894 120.693C40.8859 120.594 40.917 120.495 40.9811 120.417C41.0452 120.338 41.1376 120.287 41.2396 120.271C41.3416 120.256 41.4458 120.279 41.5312 120.335C41.6166 120.391 41.6769 120.476 41.7 120.574C41.7538 120.603 41.8092 120.63 41.8659 120.654C42.0326 120.718 42.1845 120.814 42.3126 120.935C42.9251 121.57 44.6549 120.993 45.41 120.513C47.5196 119.151 49.0473 115.771 47.7131 112.19C47.5545 111.768 47.2432 111.346 46.942 110.924C46.8242 110.763 46.7034 110.599 46.5914 110.433C44.8135 107.816 43.0589 106.314 41.3741 105.967C39.5643 105.595 37.5434 105.891 36.5003 106.1C36.4473 106.112 36.3924 106.113 36.3388 106.104C36.2853 106.095 36.2341 106.076 36.1884 106.048C36.1426 106.019 36.1031 105.983 36.0723 105.939C36.0414 105.896 36.0198 105.847 36.0087 105.796C35.9975 105.744 35.9971 105.691 36.0075 105.64C36.0178 105.588 36.0387 105.539 36.0689 105.495C36.0991 105.452 36.138 105.414 36.1833 105.385C36.2287 105.356 36.2795 105.336 36.3329 105.327C37.4401 105.104 39.589 104.792 41.5444 105.194C43.4736 105.591 45.3489 107.164 47.2737 110C47.3785 110.151 47.4905 110.305 47.6084 110.467C47.9415 110.918 48.2849 111.387 48.4813 111.917C49.5797 114.871 49.0356 119.118 45.8625 121.166C45.3082 121.519 44.1763 122 43.1608 122Z" fill="#676767"/>
<path d="M37.8213 127C37.4261 126.996 37.0375 126.902 36.6868 126.727C36.3361 126.551 36.033 126.299 35.802 125.99C35.3798 125.467 35.1169 124.841 35.0425 124.182C35.0301 123.929 35.0396 123.675 35.0709 123.424C35.1069 123.042 35.1413 122.679 35.005 122.398C34.665 121.692 34.0388 121.205 33.3752 120.688L33.155 120.516C33.0683 120.448 33.0134 120.35 33.0021 120.242C32.9909 120.135 33.0243 120.028 33.095 119.945C33.1658 119.861 33.268 119.808 33.3792 119.797C33.4905 119.787 33.6016 119.819 33.6883 119.887L33.904 120.057C34.614 120.609 35.3466 121.18 35.769 122.057C35.9997 122.537 35.9518 123.046 35.9083 123.5C35.8826 123.708 35.8741 123.918 35.8829 124.127C35.9444 124.628 36.1475 125.103 36.4701 125.501C37.0933 126.284 38.031 126.416 38.9194 125.846C40.4638 124.854 41.087 122.778 41.1544 121.166C41.179 120.267 41.0447 119.37 40.7575 118.515C40.4474 117.545 39.622 116.738 38.8235 115.959L38.6317 115.771C37.77 114.9 36.7194 114.222 35.5548 113.786C35.4503 113.747 35.3659 113.671 35.3201 113.572C35.2743 113.474 35.2709 113.362 35.3106 113.262C35.3504 113.161 35.43 113.08 35.5319 113.036C35.6339 112.992 35.7499 112.988 35.8544 113.027C37.1357 113.504 38.2914 114.25 39.2384 115.208L39.4287 115.395C40.2586 116.204 41.1979 117.126 41.5679 118.281C41.8806 119.223 42.0255 120.209 41.9963 121.197C41.8975 123.544 40.9207 125.527 39.3853 126.519C38.9251 126.826 38.3806 126.993 37.8213 127Z" fill="#676767"/>
<path d="M42.3823 128C42.3446 128 42.307 127.994 42.2708 127.983C42.174 127.952 42.0928 127.881 42.0451 127.787C41.9974 127.693 41.9871 127.583 42.0163 127.481C42.5769 125.537 43.2409 124.086 44.173 122.775C44.3404 122.541 44.49 122.325 44.6383 122.113C44.8547 121.802 45.0601 121.508 45.3037 121.173C45.3332 121.128 45.371 121.09 45.4148 121.061C45.4586 121.032 45.5075 121.013 45.5585 121.005C45.6096 120.996 45.6617 120.999 45.7118 121.012C45.7619 121.026 45.8088 121.05 45.8499 121.083C45.8909 121.116 45.9252 121.157 45.9506 121.205C45.976 121.252 45.992 121.304 45.9977 121.358C46.0034 121.412 45.9986 121.467 45.9836 121.519C45.9686 121.571 45.9438 121.62 45.9106 121.661C45.6725 121.991 45.4697 122.282 45.2547 122.588C45.1051 122.803 44.954 123.018 44.7853 123.257C43.909 124.49 43.2886 125.864 42.7443 127.715C42.7206 127.797 42.6727 127.869 42.6076 127.92C42.5425 127.971 42.4636 127.999 42.3823 128Z" fill="#676767"/>
<path d="M38.4164 225C38.384 225 38.3517 224.997 38.32 224.99C38.2667 224.978 38.2165 224.955 38.1721 224.924C38.1278 224.893 38.0902 224.854 38.0615 224.809C38.0329 224.764 38.0137 224.714 38.0051 224.662C37.9966 224.61 37.9987 224.557 38.0115 224.505C38.4995 222.53 38.8851 220.521 39.2573 218.579C39.4367 217.638 39.6073 216.751 39.7897 215.863C40.3933 212.913 41.0296 209.909 41.6465 207C43.5211 198.156 45.4609 189.012 46.7645 179.984C46.941 178.705 47.2021 177.438 47.5461 176.191C47.8575 175.167 48.2309 174.161 48.6643 173.179C49.3673 171.497 50.0302 169.906 50.1088 168.142C50.1933 166.202 49.8953 164.274 49.6061 162.41C49.2294 159.98 48.8393 157.457 49.265 154.811C49.5838 152.838 50.1785 151.139 50.748 149.493C51.8766 146.267 52.8495 143.48 51.5236 139.523C51.4614 139.337 51.4139 139.148 51.3664 138.967C51.23 138.435 51.1114 137.975 50.7109 137.765C50.6597 137.741 50.614 137.708 50.5765 137.667C50.5391 137.626 50.5107 137.578 50.4932 137.526C50.4756 137.474 50.4692 137.419 50.4744 137.365C50.4795 137.311 50.4962 137.258 50.5232 137.21C50.5503 137.162 50.5872 137.12 50.6318 137.086C50.6763 137.052 50.7276 137.028 50.7823 137.013C50.8371 136.999 50.8943 136.996 50.9503 137.004C51.0064 137.012 51.0602 137.031 51.1084 137.06C51.8321 137.439 52.0145 138.148 52.1762 138.775C52.2207 138.951 52.2637 139.118 52.3245 139.277C53.7349 143.487 52.6715 146.53 51.5459 149.752C50.9823 151.365 50.3995 153.031 50.0925 154.935C49.6847 157.461 50.0658 159.917 50.4336 162.293C50.7302 164.195 51.0268 166.161 50.9438 168.178C50.8607 170.08 50.1385 171.809 49.44 173.481C49.0199 174.434 48.6574 175.41 48.3544 176.404C48.018 177.618 47.7634 178.851 47.5921 180.097C46.2855 189.156 44.3442 198.314 42.4651 207.17C41.8497 210.072 41.2134 213.074 40.6098 216.022C40.4289 216.904 40.2599 217.79 40.0789 218.728C39.7052 220.68 39.3181 222.7 38.8257 224.694C38.8031 224.782 38.7504 224.86 38.6761 224.915C38.6019 224.971 38.5104 225.001 38.4164 225Z" fill="#2E5378"/>
<path d="M38.5919 165C38.5376 165 38.4837 164.989 38.4336 164.968C38.3834 164.947 38.3378 164.917 38.2995 164.878C34.8031 161.344 31.6882 157.44 28.0836 152.664C28.0177 152.577 27.989 152.467 28.0038 152.358C28.0186 152.249 28.0757 152.151 28.1626 152.084C28.2494 152.018 28.3589 151.989 28.4669 152.004C28.5749 152.019 28.6726 152.076 28.7385 152.164C32.3211 156.913 35.4185 160.793 38.8813 164.293C38.9383 164.351 38.977 164.425 38.9924 164.506C39.0079 164.586 38.9995 164.669 38.9683 164.744C38.9371 164.82 38.8844 164.884 38.8169 164.93C38.7495 164.975 38.6701 165 38.589 165H38.5919Z" fill="#2E5378"/>
<path d="M31.4326 174C29.5358 174 27.5226 173.619 25.284 172.845C25.2331 172.828 25.1858 172.8 25.1448 172.764C25.1039 172.727 25.0701 172.682 25.0455 172.632C25.0209 172.581 25.0059 172.525 25.0014 172.469C24.9969 172.412 25.003 172.354 25.0194 172.3C25.0357 172.245 25.0619 172.195 25.0966 172.152C25.1312 172.108 25.1735 172.073 25.2211 172.047C25.2687 172.021 25.3206 172.005 25.3738 172.001C25.427 171.997 25.4804 172.004 25.531 172.022C28.9442 173.202 31.7959 173.437 34.5041 172.762C34.6084 172.736 34.7182 172.755 34.8092 172.816C34.9002 172.876 34.965 172.973 34.9894 173.085C35.0138 173.197 34.9957 173.314 34.9392 173.412C34.8826 173.509 34.7922 173.579 34.6879 173.605C33.6205 173.869 32.5283 174.002 31.4326 174Z" fill="#2E5378"/>
<path d="M152.578 254C152.524 254 152.469 253.989 152.419 253.968C152.369 253.948 152.323 253.918 152.284 253.88C152.246 253.842 152.216 253.798 152.195 253.749C152.174 253.7 152.164 253.648 152.164 253.595C152.191 250.829 151.939 247.975 151.696 245.216C151.483 242.819 151.265 240.347 151.23 237.932C151.165 233.493 150.933 228.989 150.708 224.629C150.627 223.053 150.543 221.434 150.469 219.836C150.024 210.384 149.358 201.387 148.423 192.34C147.438 182.806 146.603 173.479 147.201 164.195C147.632 157.476 149.166 150.304 151.887 142.272C151.923 142.172 151.997 142.089 152.096 142.042C152.194 141.995 152.307 141.987 152.411 142.02C152.515 142.053 152.602 142.124 152.652 142.218C152.702 142.312 152.712 142.421 152.679 142.522C149.981 150.49 148.46 157.595 148.033 164.244C147.44 173.469 148.27 182.76 149.252 192.26C150.188 201.321 150.859 210.328 151.301 219.8C151.377 221.395 151.46 223.019 151.541 224.589C151.765 228.956 151.998 233.467 152.063 237.921C152.099 240.3 152.316 242.764 152.526 245.147C152.771 247.927 153.025 250.799 152.998 253.596C152.998 253.649 152.988 253.702 152.966 253.751C152.945 253.8 152.914 253.845 152.875 253.883C152.836 253.92 152.79 253.95 152.739 253.97C152.688 253.99 152.633 254 152.578 254Z" fill="#2E5378"/>
<path d="M164.418 239C164.332 239.001 164.248 238.976 164.178 238.927C164.107 238.878 164.054 238.807 164.025 238.726C163.995 238.644 163.992 238.555 164.015 238.472C164.038 238.388 164.087 238.314 164.153 238.26C168.504 234.548 171.551 230.842 173.214 227.247C173.236 227.197 173.268 227.151 173.308 227.113C173.348 227.075 173.394 227.046 173.446 227.026C173.497 227.007 173.551 226.998 173.606 227C173.66 227.003 173.714 227.016 173.763 227.039C173.813 227.063 173.857 227.096 173.894 227.137C173.93 227.178 173.959 227.226 173.977 227.278C173.995 227.33 174.003 227.385 173.999 227.441C173.996 227.496 173.982 227.55 173.958 227.599C172.247 231.299 169.127 235.106 164.684 238.896C164.611 238.962 164.516 238.999 164.418 239Z" fill="#2E5378"/>
<path d="M77.6197 200C77.529 200 77.4413 199.965 77.3727 199.902C77.304 199.838 77.2591 199.75 77.2461 199.654C76.6616 195.395 75.5073 191.323 74.4565 187.902C74.0923 186.717 73.6502 185.498 73.2269 184.319C72.3105 181.778 71.3632 179.151 71.0057 176.475C70.9969 176.422 70.9983 176.367 71.0096 176.314C71.021 176.261 71.0421 176.211 71.0718 176.167C71.1015 176.124 71.1391 176.086 71.1824 176.058C71.2256 176.03 71.2737 176.012 71.3238 176.004C71.3739 175.996 71.4249 176 71.4738 176.013C71.5227 176.027 71.5685 176.051 71.6085 176.085C71.6486 176.118 71.682 176.159 71.7067 176.207C71.7315 176.254 71.7472 176.306 71.7528 176.36C72.0982 178.944 73.0294 181.527 73.9311 184.026C74.3597 185.214 74.8032 186.444 75.1741 187.648C76.2356 191.108 77.4007 195.216 77.996 199.536C78.0032 199.588 78.0007 199.642 77.9886 199.694C77.9765 199.745 77.9551 199.794 77.9255 199.836C77.8959 199.879 77.8588 199.915 77.8163 199.943C77.7737 199.97 77.7265 199.988 77.6775 199.996L77.6197 200Z" fill="#2E5378"/>
<path d="M153.4 139C153.348 139 153.297 138.99 153.249 138.971C153.201 138.951 153.156 138.922 153.119 138.886C153.081 138.85 153.052 138.806 153.031 138.759C153.011 138.711 153 138.66 153 138.608C153 138.557 153.01 138.505 153.03 138.458C153.679 136.896 154.596 135.47 155.493 134.093C156.097 133.159 156.722 132.194 157.243 131.213C157.267 131.167 157.301 131.126 157.341 131.093C157.381 131.059 157.428 131.034 157.478 131.018C157.528 131.003 157.581 130.997 157.633 131.001C157.686 131.006 157.737 131.02 157.783 131.044C157.83 131.068 157.872 131.1 157.906 131.14C157.94 131.18 157.965 131.225 157.981 131.275C157.997 131.324 158.003 131.376 157.999 131.427C157.994 131.479 157.979 131.529 157.955 131.575C157.418 132.587 156.785 133.567 156.172 134.511C155.298 135.86 154.395 137.255 153.773 138.753C153.743 138.826 153.692 138.888 153.625 138.932C153.559 138.977 153.48 139 153.4 139Z" fill="#2E5378"/>
<path d="M25.1795 57.1276C25.0212 56.6625 24.9614 56.1694 25.0036 55.6779C25.0451 55.2118 25.186 54.7578 25.4173 54.345C25.6586 53.92 25.9843 53.5453 26.375 53.2435C26.8186 52.9015 27.3213 52.6407 27.8582 52.4742C28.3944 52.293 28.9581 52.2072 29.5222 52.2209C30.0196 52.2322 30.5078 52.3426 30.9568 52.5451C31.3866 52.7433 31.7678 53.0276 32.076 53.3799C32.3992 53.7529 32.641 54.1867 32.7873 54.6557C32.9446 55.1171 33.0032 55.6066 32.9595 56.0942C32.9138 56.5564 32.7717 57.0062 32.5422 57.4158C32.298 57.8432 31.9682 58.2193 31.5729 58.5211C31.1246 58.8633 30.6183 59.1252 30.0781 59.2941C29.5458 59.4745 28.9858 59.5591 28.4257 59.5436C27.9321 59.5288 27.4482 59.4172 27.0027 59.2156C26.5757 59.0197 26.1959 58.7394 25.8871 58.3921C25.5644 58.0238 25.3236 57.5934 25.1795 57.1276ZM29.7344 48.617L24.0799 50.4543L17.1672 31.9457L24.4279 29.5865L29.7344 48.617Z" fill="white"/>
<path d="M34.271 42.2645C34.1497 41.9079 34.1023 41.5303 34.1317 41.1545C34.1605 40.7981 34.2642 40.4514 34.436 40.1368C34.6153 39.8128 34.8582 39.5277 35.1504 39.2987C35.4822 39.0392 35.8587 38.8422 36.2614 38.7174C36.6635 38.5814 37.0868 38.5185 37.5108 38.5318C37.8847 38.5429 38.2522 38.6297 38.5906 38.7869C38.9147 38.9406 39.2026 39.16 39.4359 39.431C39.6806 39.7179 39.8646 40.0511 39.9768 40.4106C40.0973 40.7644 40.1437 41.1391 40.1133 41.512C40.0812 41.8654 39.9766 42.2088 39.8061 42.521C39.6247 42.8469 39.3787 43.133 39.083 43.3619C38.7477 43.6216 38.3685 43.8194 37.9633 43.946C37.5641 44.0814 37.1437 44.1434 36.7227 44.1288C36.3516 44.115 35.9873 44.0273 35.6515 43.8709C35.3296 43.7189 35.0428 43.5026 34.809 43.2354C34.5646 42.952 34.3815 42.6216 34.271 42.2645ZM37.6526 35.7756L33.4117 37.1535L28.1254 22.9593L33.5709 21.1899L37.6526 35.7756Z" fill="white"/>
</g>
<defs>
<clipPath id="clip0_2765_975">
<rect width="174" height="255" fill="white"/>
</clipPath>
</defs>
</svg>
