<svg width="30" height="30" viewBox="0 0 30 30" fill="none" xmlns="http://www.w3.org/2000/svg">
<path d="M11.6992 2.3999C11.4025 2.3999 11.1125 2.48788 10.8659 2.6527C10.6192 2.81752 10.4269 3.05179 10.3134 3.32588C10.1999 3.59997 10.1702 3.90157 10.228 4.19254C10.2859 4.48351 10.4288 4.75078 10.6386 4.96056C10.8483 5.17034 11.1156 5.3132 11.4066 5.37108C11.6976 5.42896 11.9992 5.39925 12.2732 5.28572C12.5473 5.17219 12.7816 4.97993 12.9464 4.73326C13.1112 4.48658 13.1992 4.19657 13.1992 3.8999C13.1992 3.50208 13.0412 3.12055 12.7599 2.83924C12.4786 2.55794 12.097 2.3999 11.6992 2.3999ZM11.6992 4.3999C11.6003 4.3999 11.5037 4.37058 11.4214 4.31564C11.3392 4.2607 11.2751 4.18261 11.2373 4.09124C11.1994 3.99988 11.1895 3.89935 11.2088 3.80236C11.2281 3.70537 11.2757 3.61628 11.3457 3.54635C11.4156 3.47642 11.5047 3.4288 11.6017 3.40951C11.6987 3.39022 11.7992 3.40012 11.8906 3.43796C11.9819 3.47581 12.06 3.53989 12.115 3.62212C12.1699 3.70434 12.1992 3.80101 12.1992 3.8999C12.1992 4.03251 12.1465 4.15969 12.0528 4.25346C11.959 4.34722 11.8318 4.3999 11.6992 4.3999Z" fill="#6667AB"/>
<path d="M5.39844 15.6H7.19844V16.8H5.39844V15.6Z" fill="#6667AB"/>
<path d="M8.39844 15.6H15.5984V16.8H8.39844V15.6Z" fill="#6667AB"/>
<path d="M5.39844 18.6H7.19844V19.8H5.39844V18.6Z" fill="#6667AB"/>
<path d="M5.39844 21.6H7.19844V22.8H5.39844V21.6Z" fill="#6667AB"/>
<path d="M5.39844 24H7.19844V25.2H5.39844V24Z" fill="#6667AB"/>
<path d="M28.9292 16.7118H28.4592C26.9344 16.708 25.4513 16.2137 24.2292 15.302L23.1012 14.4562C23.0202 14.3944 22.9211 14.361 22.8192 14.361C22.7173 14.361 22.6183 14.3944 22.5372 14.4562L21.8792 14.9496V5.43351C21.8781 5.05996 21.7292 4.70202 21.465 4.43787C21.2008 4.17373 20.8428 4.02484 20.4692 4.02372H16.6246C16.5271 3.74987 16.3475 3.51273 16.1103 3.34456C15.8732 3.17639 15.59 3.08536 15.2992 3.08386H14.1994C14.0056 2.53311 13.6457 2.05609 13.1692 1.71864C12.6927 1.38119 12.1231 1.19995 11.5392 1.19995C10.9553 1.19995 10.3858 1.38119 9.90927 1.71864C9.43277 2.05609 9.07279 2.53311 8.87902 3.08386H7.77922C7.48848 3.08536 7.20526 3.17639 6.9681 3.34456C6.73095 3.51273 6.55137 3.74987 6.45382 4.02372H2.60922C2.23561 4.02484 1.87762 4.17373 1.61343 4.43787C1.34925 4.70202 1.20033 5.05996 1.19922 5.43351V27.9902C1.20033 28.3637 1.34925 28.7217 1.61343 28.9858C1.87762 29.2499 2.23561 29.3988 2.60922 29.4H20.4692C20.6821 29.3986 20.8919 29.3493 21.0831 29.2557C21.2743 29.1622 21.442 29.0268 21.5737 28.8595L22.6171 29.353C22.68 29.3839 22.7491 29.3999 22.8192 29.3999C22.8893 29.3999 22.9584 29.3839 23.0213 29.353L27.1479 27.3934C27.8285 27.0355 28.3982 26.4981 28.795 25.8395C29.1919 25.1809 29.4008 24.4263 29.3992 23.6574V17.1818C29.3992 17.0571 29.3497 16.9376 29.2616 16.8495C29.1734 16.7613 29.0539 16.7118 28.9292 16.7118ZM16.7092 4.96358H20.4692C20.5939 4.96358 20.7134 5.01309 20.8016 5.10122C20.8897 5.18935 20.9392 5.30888 20.9392 5.43351V15.6263C20.6385 15.8138 20.3243 15.9787 19.9992 16.1197V6.37337C19.9992 6.24874 19.9497 6.12921 19.8616 6.04108C19.7734 5.95295 19.6539 5.90344 19.5292 5.90344H16.7092V4.96358ZM7.30922 4.49365C7.30922 4.36902 7.35873 4.24949 7.44688 4.16136C7.53502 4.07323 7.65456 4.02372 7.77922 4.02372H9.23622C9.34485 4.02483 9.45043 3.98781 9.53459 3.91913C9.61874 3.85044 9.67615 3.75442 9.69682 3.64778C9.78311 3.22285 10.0137 2.84083 10.3495 2.56642C10.6852 2.29202 11.1056 2.14212 11.5392 2.14212C11.9729 2.14212 12.3932 2.29202 12.729 2.56642C13.0647 2.84083 13.2953 3.22285 13.3816 3.64778C13.4023 3.75442 13.4597 3.85044 13.5438 3.91913C13.628 3.98781 13.7336 4.02483 13.8422 4.02372H15.2992C15.4239 4.02372 15.5434 4.07323 15.6316 4.16136C15.7197 4.24949 15.7692 4.36902 15.7692 4.49365V6.37337H7.30922V4.49365ZM6.83922 7.31324H16.2392C16.3639 7.31324 16.4834 7.26372 16.5716 7.1756C16.6597 7.08747 16.7092 6.96794 16.7092 6.84331H19.0592V16.4487C18.4472 16.6206 17.8149 16.7091 17.1792 16.7118H16.7092C16.5846 16.7118 16.465 16.7613 16.3769 16.8495C16.2887 16.9376 16.2392 17.0571 16.2392 17.1818V18.5916H8.24922V19.5314H16.2392V21.4111H8.24922V22.351H16.2392V23.6574C16.2399 23.8491 16.2524 24.0406 16.2768 24.2307H8.24922V25.1706H16.5259C16.7287 25.6954 17.0338 26.1746 17.4236 26.5804H4.01922V6.84331H6.36922C6.36922 6.96794 6.41874 7.08747 6.50688 7.1756C6.59502 7.26372 6.71457 7.31324 6.83922 7.31324ZM20.4692 28.4601H2.60922C2.48457 28.4601 2.36502 28.4106 2.27688 28.3225C2.18874 28.2343 2.13922 28.1148 2.13922 27.9902V5.43351C2.13922 5.30888 2.18874 5.18935 2.27688 5.10122C2.36502 5.01309 2.48457 4.96358 2.60922 4.96358H6.36922V5.90344H3.54922C3.42457 5.90344 3.30502 5.95295 3.21688 6.04108C3.12874 6.12921 3.07922 6.24874 3.07922 6.37337V27.0503C3.07922 27.1749 3.12874 27.2945 3.21688 27.3826C3.30502 27.4707 3.42457 27.5202 3.54922 27.5202H18.7584L20.6478 28.4178C20.5916 28.4434 20.5309 28.4578 20.4692 28.4601ZM28.4592 23.6574C28.4609 24.252 28.3003 24.8359 27.9947 25.346C27.6891 25.8561 27.2501 26.2731 26.7249 26.5522L22.8192 28.4084L18.9229 26.5569C18.396 26.2778 17.9552 25.8604 17.648 25.3495C17.3407 24.8386 17.1787 24.2536 17.1792 23.6574V17.6517C18.9075 17.6483 20.5886 17.088 21.9732 16.0539L22.8192 15.4195L23.6652 16.0539C25.0498 17.088 26.731 17.6483 28.4592 17.6517V23.6574Z" fill="#6667AB"/>
<path d="M14.527 10.2856H13.1127V8.87133C13.1127 8.7463 13.0631 8.62639 12.9746 8.53798C12.8862 8.44957 12.7663 8.3999 12.6413 8.3999H10.7556C10.6305 8.3999 10.5106 8.44957 10.4222 8.53798C10.3338 8.62639 10.2842 8.7463 10.2842 8.87133V10.2856H8.86987C8.74484 10.2856 8.62493 10.3353 8.53652 10.4237C8.44811 10.5121 8.39844 10.632 8.39844 10.757V12.6428C8.39844 12.7678 8.44811 12.8877 8.53652 12.9761C8.62493 13.0645 8.74484 13.1142 8.86987 13.1142H10.2842V14.5285C10.2842 14.6535 10.3338 14.7734 10.4222 14.8618C10.5106 14.9502 10.6305 14.9999 10.7556 14.9999H12.6413C12.7663 14.9999 12.8862 14.9502 12.9746 14.8618C13.0631 14.7734 13.1127 14.6535 13.1127 14.5285V13.1142H14.527C14.652 13.1142 14.7719 13.0645 14.8604 12.9761C14.9488 12.8877 14.9984 12.7678 14.9984 12.6428V10.757C14.9984 10.632 14.9488 10.5121 14.8604 10.4237C14.7719 10.3353 14.652 10.2856 14.527 10.2856ZM14.0556 12.1713H12.6413C12.5163 12.1713 12.3964 12.221 12.3079 12.3094C12.2195 12.3978 12.1699 12.5177 12.1699 12.6428V14.057H11.227V12.6428C11.227 12.5177 11.1773 12.3978 11.0889 12.3094C11.0005 12.221 10.8806 12.1713 10.7556 12.1713H9.34129V11.2285H10.7556C10.8806 11.2285 11.0005 11.1788 11.0889 11.0904C11.1773 11.002 11.227 10.8821 11.227 10.757V9.34276H12.1699V10.757C12.1699 10.8821 12.2195 11.002 12.3079 11.0904C12.3964 11.1788 12.5163 11.2285 12.6413 11.2285H14.0556V12.1713Z" fill="#6667AB"/>
<path d="M27.192 18.6097C25.7033 18.3844 24.2936 17.796 23.088 16.8968C23.0052 16.834 22.9041 16.7999 22.8 16.7999C22.6959 16.7999 22.5948 16.834 22.512 16.8968C21.3064 17.796 19.8967 18.3844 18.408 18.6097C18.2947 18.6276 18.1915 18.6851 18.1167 18.7719C18.042 18.8586 18.0006 18.969 18 19.0834V23.8728C18.0002 24.2998 18.1151 24.719 18.3329 25.0867C18.5507 25.4544 18.8634 25.7572 19.2384 25.9636L19.2672 25.978L22.5936 27.5521C22.6578 27.5836 22.7284 27.5999 22.8 27.5999C22.8716 27.5999 22.9422 27.5836 23.0064 27.5521L26.3616 25.9636C26.7362 25.7567 27.0486 25.4538 27.2663 25.0862C27.484 24.7186 27.5992 24.2997 27.6 23.8728V19.0834C27.5994 18.969 27.558 18.8586 27.4833 18.7719C27.4085 18.6851 27.3053 18.6276 27.192 18.6097ZM26.64 23.8728C26.6413 24.1245 26.5753 24.372 26.4488 24.5898C26.3222 24.8076 26.1397 24.9879 25.92 25.112L22.8 26.5904L19.6896 25.1215C19.4681 24.9963 19.2838 24.8147 19.1556 24.5953C19.0275 24.376 18.96 24.1266 18.96 23.8728V19.4853C20.3386 19.2174 21.6463 18.6667 22.8 17.8681C23.9537 18.6667 25.2614 19.2174 26.64 19.4853V23.8728Z" fill="#6667AB"/>
<path d="M21.0819 22.8724L20.3984 23.5716L21.8484 25.0551C21.939 25.1478 22.062 25.1999 22.1901 25.1999C22.3183 25.1999 22.4412 25.1478 22.5318 25.0551L26.3984 21.0991L25.715 20.3999L22.1901 24.0063L21.0819 22.8724Z" fill="#6667AB"/>
</svg>
