<svg width="40" height="40" viewBox="0 0 40 40" fill="none" xmlns="http://www.w3.org/2000/svg">
<path d="M39.4273 4.69517L29.818 2.02835C29.6815 1.99055 29.5373 1.99055 29.4008 2.02835L20 4.63734L10.5992 2.02835C10.4627 1.99055 10.3186 1.99055 10.182 2.02835L0.572656 4.69517C0.234297 4.78908 0 5.09759 0 5.44937V37.2174C0 37.4619 0.113984 37.6923 0.308281 37.8403C0.5025 37.9883 0.754531 38.0368 0.989844 37.9716L10.3906 35.3627L19.7914 37.9716C19.9279 38.0094 20.0721 38.0094 20.2086 37.9716L29.6094 35.3627L39.0102 37.9716C39.0788 37.9907 39.149 38 39.2187 38C39.3877 38 39.5541 37.9451 39.6917 37.8403C39.8859 37.6923 40 37.4618 40 37.2174V5.44937C40 5.09759 39.7657 4.78908 39.4273 4.69517ZM31.2666 14.1018L32.3715 15.2085L31.2666 16.3153L30.1618 15.2085C29.8566 14.903 29.362 14.903 29.057 15.2085L27.952 16.3153L26.8472 15.2085L27.952 14.1018C28.2571 13.7961 28.2571 13.3006 27.952 12.995L26.8472 11.8881L27.952 10.7813L29.0569 11.8881C29.362 12.1938 29.8566 12.1938 30.1618 11.8881L31.2666 10.7814L32.3715 11.8881L31.2666 12.995C30.9616 13.3005 30.9616 13.7961 31.2666 14.1018ZM20.7812 28.6934C21.0445 28.5675 21.2268 28.2992 21.2268 27.9875C21.2268 27.6759 21.0445 27.4075 20.7812 27.2817V6.04463L28.8281 3.81145V9.4453L28.5045 9.12114C28.358 8.97441 28.1593 8.89192 27.9521 8.89192C27.7449 8.89192 27.5462 8.97441 27.3997 9.12114L25.19 11.3348C24.8849 11.6404 24.8849 12.1358 25.19 12.4415L26.2948 13.5484L25.19 14.6551C24.8849 14.9607 24.8849 15.4563 25.19 15.762L27.3997 17.9755C27.7048 18.2811 28.1995 18.2811 28.5045 17.9755L28.8282 17.6514V33.9554L20.7813 36.1886V28.6934H20.7812ZM1.5625 6.04463L9.60938 3.81145V6.65757C9.60938 7.0898 9.95914 7.44018 10.3906 7.44018C10.8221 7.44018 11.1719 7.0898 11.1719 6.65757V3.81145L19.2188 6.04463V12.7657H17.6925C17.261 12.7657 16.9113 13.1161 16.9113 13.5483C16.9113 13.9805 17.261 14.3309 17.6925 14.3309H19.2188V20.0541C19.1212 20.0102 19.0134 19.9853 18.8995 19.9853H17.337C16.9055 19.9853 16.5558 20.3356 16.5558 20.7679C16.5558 21.2001 16.9055 21.5505 17.337 21.5505H18.8995C19.0134 21.5505 19.1213 21.5255 19.2188 21.4817V27.2048H18.883C18.4516 27.2048 18.1018 27.5552 18.1018 27.9874C18.1018 28.4197 18.4516 28.7701 18.883 28.7701H19.2188V36.1884L11.1719 33.9552V28.7627C11.5553 28.7128 11.8516 28.3851 11.8516 27.9874C11.8516 27.5898 11.5553 27.2621 11.1719 27.2122V13.7011C11.1719 13.2688 10.8221 12.9184 10.3906 12.9184C9.95914 12.9184 9.60938 13.2688 9.60938 13.7011V27.2048H9.50789C9.07641 27.2048 8.72664 27.5552 8.72664 27.9874C8.72664 28.4197 9.07641 28.7701 9.50789 28.7701H9.60938V33.9552L1.5625 36.1885V6.04463ZM38.4375 36.1885L30.3906 33.9553V17.6513L30.7142 17.9754C30.8668 18.1283 31.0667 18.2047 31.2666 18.2047C31.4666 18.2047 31.6666 18.1283 31.8191 17.9754L34.0287 15.7619C34.3338 15.4563 34.3338 14.9607 34.0287 14.6551L32.9239 13.5483L34.0287 12.4414C34.3338 12.1358 34.3338 11.6404 34.0287 11.3347L31.8191 9.12107C31.6726 8.97433 31.4738 8.89184 31.2666 8.89184C31.0595 8.89184 30.8607 8.97433 30.7142 9.12107L30.3906 9.4453V3.81145L38.4375 6.04463V36.1885Z" fill="#6667AB"/>
<path d="M5.5 21C4.12154 21 3 22.0846 3 23.4176C3 24.5077 3.74992 25.4311 4.77692 25.7318V27.2561C4.77692 27.667 5.12131 28 5.54615 28C5.971 28 6.31538 27.667 6.31538 27.2561V25.7025C7.29462 25.3747 8 24.4746 8 23.4176C8 22.0846 6.87854 21 5.5 21ZM5.5 24.3475C4.96977 24.3475 4.53846 23.9304 4.53846 23.4176C4.53846 22.9049 4.96977 22.4878 5.5 22.4878C6.03023 22.4878 6.46154 22.9049 6.46154 23.4176C6.46154 23.9304 6.03023 24.3475 5.5 24.3475Z" fill="#6667AB"/>
<path d="M23.2473 22C23.5763 22 23.8786 21.7338 23.9718 21.327C24.0842 20.837 23.8506 20.3282 23.4502 20.1907C23.0816 20.0641 22.6995 20 22.3147 20H21.7529C21.3371 20 21 20.4126 21 20.9217C21 21.4307 21.3371 21.8433 21.7529 21.8433H22.3147C22.562 21.8433 22.8073 21.8844 23.0435 21.9655C23.1115 21.9888 23.18 22 23.2473 22Z" fill="#6667AB"/>
<path d="M22.638 15H23.362C23.7144 15 24 14.5523 24 14C24 13.4477 23.7144 13 23.362 13H22.638C22.2856 13 22 13.4477 22 14C22 14.5523 22.2856 15 22.638 15Z" fill="#6667AB"/>
<path d="M25.478 22.0709C25.0648 22.2479 24.8851 22.7008 25.0767 23.0825C25.2583 23.4441 25.3503 23.8302 25.3503 24.2301V24.2382C25.3503 24.6589 25.7196 25 26.1752 25C26.6307 25 27 24.6589 27 24.2382V24.2301C27 23.6071 26.8565 23.0053 26.5734 22.4414C26.3816 22.0598 25.8913 21.8938 25.478 22.0709Z" fill="#6667AB"/>
<path d="M24.6847 26.1616C24.3654 26.3924 23.9858 26.5642 23.5871 26.6581C23.1616 26.7583 22.9117 27.1344 23.0289 27.4981C23.1266 27.8011 23.4482 28 23.7988 28C23.8691 28 23.9405 27.992 24.0116 27.9753C24.6323 27.8292 25.222 27.5627 25.717 27.2047C26.0539 26.961 26.096 26.53 25.8109 26.242C25.5258 25.954 25.0217 25.9179 24.6847 26.1616Z" fill="#6667AB"/>
<path d="M13.4878 16.9011C13.624 16.9682 13.7701 17 13.9141 17C14.2424 17 14.5599 16.8347 14.7238 16.5451C14.946 16.1525 15.2639 15.8011 15.643 15.5291C16.0434 15.2418 16.1183 14.7063 15.8102 14.3329C15.5021 13.9595 14.9278 13.8897 14.5276 14.177C13.9416 14.5973 13.4501 15.1408 13.106 15.7485C12.8702 16.165 13.0411 16.6811 13.4878 16.9011Z" fill="#6667AB"/>
<path d="M13.9224 20.7767C14.0459 20.926 14.2031 21 14.36 21C14.5306 21 14.701 20.9124 14.8269 20.7391C15.0686 20.4066 15.0556 19.8842 14.7978 19.5723C14.5534 19.2767 14.358 18.9108 14.2327 18.5142C14.0993 18.092 13.726 17.8892 13.3986 18.0613C13.0713 18.2333 12.9141 18.715 13.0475 19.1373C13.2419 19.7526 13.5444 20.3195 13.9224 20.7767Z" fill="#6667AB"/>
<path d="M13 28C13 28.5523 13.3358 29 13.75 29H15.25C15.6642 29 16 28.5523 16 28C16 27.4477 15.6642 27 15.25 27H13.75C13.3358 27 13 27.4477 13 28Z" fill="#6667AB"/>
<path d="M11.0002 11C11.5524 11 12 10.5523 12 10C12 9.4477 11.5524 9 11.0002 9H10.9994C10.4472 9 10 9.4477 10 10C10 10.5523 10.448 11 11.0002 11Z" fill="#6667AB"/>
</svg>
