<svg width="50" height="50" viewBox="0 0 50 50" fill="none" xmlns="http://www.w3.org/2000/svg">
<g clip-path="url(#clip0_2866_1319)">
<path d="M47.842 18.2679H42.886V12.0128C42.886 9.74188 41.1205 7.87903 38.8973 7.73597C39.6614 6.91367 40.1302 5.81061 40.1302 4.59939C40.1302 2.06344 38.0779 0 35.5556 0C33.033 0 30.9811 2.06344 30.9811 4.59939C30.9811 5.81061 31.4499 6.91367 32.214 7.73597C29.9908 7.87903 28.2253 9.74188 28.2253 12.0128V18.2679H27.7191C27.5146 17.3045 26.6617 16.5792 25.6432 16.5792H21.7747V12.0128C21.7747 9.74226 20.0092 7.87903 17.786 7.73597C18.5501 6.91367 19.0189 5.81099 19.0189 4.59939C19.0189 2.06344 16.967 0 14.4444 0C11.9221 0 9.86977 2.06344 9.86977 4.59939C9.86977 5.81099 10.339 6.91367 11.1027 7.73597C8.87947 7.87903 7.11403 9.74226 7.11403 12.0128V18.2679H2.15797C0.974274 18.2679 0.00724793 19.2245 0 20.4234V20.4376V44.4065V44.4203C0.00686646 45.5897 0.947189 46.5761 2.15797 46.5761H7.11403V48.3308C7.11403 49.2513 7.85866 50 8.77419 50H20.1145C21.03 50 21.7747 49.2513 21.7747 48.3308V46.5761H23.2403C23.645 46.5761 23.9731 46.2463 23.9731 45.8398C23.9731 45.4328 23.645 45.103 23.2403 45.103H21.7747V43.0085H28.2253V45.103H26.6586C26.2539 45.103 25.9262 45.4328 25.9262 45.8394C25.9262 46.2463 26.2539 46.5758 26.6586 46.5758H28.2253V48.3308C28.2253 49.2513 28.97 50 29.8855 50H41.2258C42.1413 50 42.886 49.2513 42.886 48.3308V46.5758H47.842C49.0265 46.5758 49.9916 45.6108 49.9996 44.421C50 44.4161 50 44.4111 50 44.4065C50 44.0586 50 33.2213 50 32.6698C50 32.2629 49.6723 31.9334 49.2676 31.9334C48.8628 31.9334 48.5352 32.2629 48.5352 32.6698V40.8288V40.8399C48.5344 41.2235 48.2239 41.5357 47.842 41.5357H42.823C42.49 39.6099 40.8699 38.1191 38.8973 37.9949C41.6157 35.0692 39.5496 30.2593 35.5556 30.2593C31.559 30.2593 29.4975 35.0715 32.214 37.9949C30.3116 38.1076 28.6308 39.5505 28.2879 41.5357H21.7117C21.3703 39.5601 19.6957 38.108 17.786 37.9949C20.5044 35.0692 18.4383 30.2593 14.4444 30.2593C10.4477 30.2593 8.38661 35.0715 11.1027 37.9949C9.16595 38.1168 7.51762 39.5704 7.17697 41.5357H2.15797C1.77536 41.5357 1.46561 41.2235 1.46484 40.8407C1.46484 40.8365 1.46484 40.8327 1.46484 40.8288V20.4476C1.46484 20.4438 1.46484 20.4403 1.46484 20.4365C1.46561 20.0506 1.7765 19.7411 2.15797 19.7411H13.5815V23.0119C13.5815 24.1886 14.5336 25.1459 15.704 25.1459H18.4834V28.4432C18.4834 29.6199 19.4355 30.5772 20.6059 30.5772H25.4532C25.5226 30.5772 25.5875 30.6079 25.6313 30.662L28.1593 33.7721C28.7872 34.5445 30.019 34.0878 30.019 33.1051V30.5772H30.545C31.7154 30.5772 32.6675 29.6199 32.6675 28.4432V24.1445C32.6675 22.9678 31.7154 22.0105 30.545 22.0105H27.7657V19.7411H47.842C48.2239 19.7411 48.5344 20.0533 48.5352 20.4361V20.448V29.2329C48.5352 29.6399 48.8628 29.9697 49.2676 29.9697C49.6723 29.9697 50 29.6399 50 29.2329V20.4376C50 20.433 50 20.428 50 20.4234C49.9924 19.2337 49.0269 18.2679 47.842 18.2679ZM42.886 43.0085H47.842C48.0659 43.0085 48.3109 42.9705 48.5352 42.8938V44.3961V44.4072C48.5344 44.7908 48.2239 45.103 47.842 45.103H42.886V43.0085ZM35.5556 31.7321C37.2704 31.7321 38.6654 33.1347 38.6654 34.8587C38.6654 36.5827 37.2704 37.9853 35.5556 37.9853C33.8409 37.9853 32.4459 36.5827 32.4459 34.8587C32.4459 33.1347 33.8409 31.7321 35.5556 31.7321ZM29.6902 42.2721C29.6902 40.7203 30.946 39.4581 32.489 39.4581H38.6223C40.1653 39.4581 41.4211 40.7203 41.4211 42.2721V48.3308C41.4211 48.4394 41.3334 48.5272 41.2258 48.5272H39.7297V43.9926C39.7297 43.5861 39.402 43.2562 38.9973 43.2562C38.5925 43.2562 38.2648 43.5861 38.2648 43.9926V48.5272H32.8465V43.9926C32.8465 43.5861 32.5188 43.2562 32.114 43.2562C31.7093 43.2562 31.3816 43.5861 31.3816 43.9926V48.5272H29.8855C29.7775 48.5272 29.6902 48.4394 29.6902 48.3308C29.6902 47.6922 29.6902 43.058 29.6902 42.2721ZM14.4444 31.7321C16.1591 31.7321 17.5541 33.1347 17.5541 34.8587C17.5541 36.5827 16.1591 37.9853 14.4444 37.9853C12.7296 37.9853 11.3346 36.5827 11.3346 34.8587C11.3346 33.1347 12.7296 31.7321 14.4444 31.7321ZM8.57887 42.2721C8.57887 40.7203 9.83467 39.4581 11.3777 39.4581H17.511C19.0544 39.4581 20.3098 40.7203 20.3098 42.2721V48.3308C20.3098 48.439 20.2225 48.5272 20.1145 48.5272H18.6184V43.9926C18.6184 43.5857 18.2907 43.2559 17.886 43.2559C17.4816 43.2559 17.1535 43.5857 17.1535 43.9926V48.5272H11.7352V43.9926C11.7352 43.5857 11.4075 43.2559 11.0027 43.2559C10.5984 43.2559 10.2703 43.5857 10.2703 43.9926V48.5272H8.77419C8.66661 48.5272 8.57887 48.439 8.57887 48.3308C8.57887 47.6926 8.57887 43.0583 8.57887 42.2721ZM2.15797 43.0085H7.11403V45.103H2.15797C1.77231 45.103 1.46561 44.7889 1.46484 44.408C1.46484 44.4042 1.46484 44.4003 1.46484 44.3965V42.8942C1.66969 42.964 1.92032 43.0085 2.15797 43.0085ZM14.4444 1.47279C16.1591 1.47279 17.5541 2.87539 17.5541 4.59939C17.5541 6.3234 16.1591 7.726 14.4444 7.726C12.7296 7.726 11.3346 6.3234 11.3346 4.59939C11.3346 2.87539 12.7296 1.47279 14.4444 1.47279ZM13.628 18.2679H11.7352V13.7334C11.7352 13.3268 11.4075 12.997 11.0027 12.997C10.598 12.997 10.2703 13.3268 10.2703 13.7334V18.2679H8.57887V12.0128C8.57887 10.4614 9.83467 9.19879 11.3777 9.19879H17.511C19.0544 9.19879 20.3098 10.461 20.3098 12.0128V16.1155L18.0897 13.3843C17.466 12.6173 16.2304 13.0618 16.2304 14.0513V16.5792H15.704C14.6904 16.5792 13.8336 17.3003 13.628 18.2679ZM18.5356 23.6731H15.704C15.3412 23.6731 15.0463 23.3763 15.0463 23.0119C15.0463 22.1029 15.0463 19.6303 15.0463 18.7136C15.0463 18.3489 15.3412 18.0524 15.704 18.0524H16.5508C17.1818 18.0524 17.6952 17.5361 17.6952 16.9018V15.2269L19.4836 17.4268C19.9715 18.0263 20.5399 18.0524 21.0423 18.0524H25.6432C26.0059 18.0524 26.3008 18.3489 26.3008 18.7136V22.0105H20.6059C19.6167 22.0105 18.755 22.7039 18.5356 23.6731ZM30.545 23.4833C30.9078 23.4833 31.2027 23.7802 31.2027 24.1445V28.4428C31.2027 28.8076 30.9078 29.1041 30.545 29.1041H29.6986C29.0672 29.1041 28.5542 29.6203 28.5542 30.2547V31.93L26.7654 29.7296C26.442 29.3323 25.964 29.1041 25.4532 29.1041H20.6059C20.2431 29.1041 19.9482 28.8076 19.9482 28.4428C19.9482 27.9834 19.9482 24.6025 19.9482 24.1445C19.9482 23.7802 20.2435 23.4833 20.6059 23.4833H30.545ZM35.5556 1.47279C37.2704 1.47279 38.6654 2.87539 38.6654 4.59939C38.6654 6.3234 37.2704 7.726 35.5556 7.726C33.8409 7.726 32.4459 6.3234 32.4459 4.59939C32.4459 2.87539 33.8409 1.47279 35.5556 1.47279ZM41.4211 18.2679H39.7297V13.7334C39.7297 13.3268 39.402 12.997 38.9973 12.997C38.5925 12.997 38.2648 13.3268 38.2648 13.7334V18.2679H32.8465V13.7334C32.8465 13.3268 32.5188 12.997 32.114 12.997C31.7093 12.997 31.3816 13.3268 31.3816 13.7334V18.2679H29.6902V12.0128C29.6902 10.4614 30.9456 9.19879 32.489 9.19879H38.6223C40.1657 9.19879 41.4211 10.461 41.4211 12.0128V18.2679Z" fill="#6667AB"/>
</g>
<defs>
<clipPath id="clip0_2866_1319">
<rect width="50" height="50" fill="white"/>
</clipPath>
</defs>
</svg>
