<svg width="537" height="343" viewBox="0 0 537 343" fill="none" xmlns="http://www.w3.org/2000/svg">
<g clip-path="url(#clip0_2338_3357)">
<path d="M44.4962 341.988C44.4962 341.988 -20.6492 278.889 20.7962 204.649C62.2417 130.408 117.904 167.744 115.211 81.3329C112.517 -5.07787 243.227 -12.4986 284.832 12.5549C326.436 37.6085 326.188 67.7857 412.077 57.8031C497.965 47.8206 514.375 131.047 492.032 173.475C460.332 233.658 580.023 223.731 504.602 342L44.4962 341.988Z" fill="#DEDCEB"/>
<path opacity="0.3" d="M331 194C331 194 344.845 135.471 391.551 129.037C391.551 129.037 400.638 127.923 403.663 137.904C406.689 147.885 388.621 147.955 377.454 151.972C366.286 155.988 340.248 173.004 331 194Z" fill="#B9B8D7"/>
<path opacity="0.3" d="M329.238 183C329.238 183 324.398 134.12 358.368 116.773C358.368 116.773 365.016 113.504 369.956 120.412C374.895 127.32 361.115 132.163 353.635 138.223C346.154 144.283 330.771 164.33 329.238 183Z" fill="#B9B8D7"/>
<path d="M536.38 342H0.619745C0.277469 342 0 342.188 0 342.42V342.58C0 342.812 0.277469 343 0.619745 343H536.38C536.723 343 537 342.812 537 342.58V342.42C537 342.188 536.723 342 536.38 342Z" fill="#2E3552"/>
<path d="M77.2609 297.982C70.0305 281.522 96.2553 267.381 96.2553 267.381C96.2553 267.381 130.812 278.556 135.773 275.492C140.735 272.428 108.096 260.172 108.096 260.172C116.149 252.3 147.028 245.084 147.028 245.084C147.028 245.084 167.859 273.804 171.913 269.613C175.967 265.422 152.175 245.117 152.175 245.117C162.669 240.849 178.499 244.354 178.499 244.354C201.296 252.462 189.696 281.29 189.696 281.29C189.696 281.29 197.13 291.088 211.896 297.303C211.896 297.303 214.865 298.256 219 300.61L216.696 302.464C216.01 301.999 215.322 301.569 214.631 301.181H214.618L214.587 301.165C214.142 300.936 213.509 300.612 212.717 300.224C210.903 299.415 209.6 298.771 208.713 298.287C203.118 295.661 195.541 292.475 192.561 292.925C192.506 292.427 192.386 291.939 192.204 291.472L192.561 292.925C195.424 304.55 176.837 321.824 164.034 328.413C151.231 335.002 153.525 328.054 155.391 318.266C157.257 308.478 170.72 299.828 172.794 294.91C174.867 289.992 167.911 292.327 161.055 298.786C154.198 305.244 156.422 315.509 145.497 326.158C134.572 336.808 107.629 321.824 107.629 321.824C117.841 317.782 128.861 301.48 127.159 298.221C125.457 294.962 103.986 312.692 99.9245 314.569C95.8626 316.445 84.4893 314.45 77.2609 297.982Z" fill="#9494C4"/>
<path d="M406.827 317.633C417.374 305.224 398.249 286.192 398.249 286.192C398.249 286.192 365.328 286.965 361.811 283.027C358.294 279.088 389.831 276.884 389.831 276.884C384.873 267.976 359.917 253.75 359.917 253.75C359.917 253.75 334.377 273.282 331.94 268.602C329.503 263.922 355.438 252.458 355.438 252.458C347.425 246.048 332.763 245 332.763 245C310.854 246.15 313.465 274.143 313.465 274.143C313.465 274.143 304.468 280.721 290.028 282.301C290.028 282.301 287.203 282.359 283 283.337L284.523 285.541C285.237 285.314 285.946 285.12 286.65 284.961C286.652 284.96 286.654 284.96 286.656 284.96C286.658 284.96 286.661 284.96 286.662 284.961H286.694C287.138 284.879 287.774 284.754 288.563 284.626C290.35 284.392 291.64 284.176 292.544 283.979C298.084 283.151 305.496 282.339 307.966 283.499C308.144 283.081 308.375 282.689 308.654 282.33C308.446 282.703 308.207 283.091 307.966 283.499C302.47 292.836 314.145 312.617 323.562 321.637C332.979 330.657 332.788 324.036 333.702 315.068C334.616 306.1 325.157 295.121 324.629 290.321C324.102 285.521 329.528 289.339 333.824 296.714C338.12 304.089 333.519 312.412 340.264 324.473C347.01 336.534 374.29 330.481 374.29 330.481C366.465 324.339 361.109 307.366 363.438 304.971C365.767 302.576 379.824 323.502 382.868 326.176C385.911 328.851 396.282 330.04 406.827 317.633Z" fill="#F0EEFB"/>
<path opacity="0.5" d="M145.153 77.833C156.001 59.7023 187.515 75.1007 187.515 75.1007C187.515 75.1007 200.437 115.726 206.771 118.376C213.106 121.025 202.535 81.4926 202.535 81.4926C215.6 83.814 243.654 108.384 243.654 108.384C243.654 108.384 230.344 147.867 237.139 148.881C243.934 149.895 247.133 113.326 247.133 113.326C258.41 120.439 265.879 137.948 265.879 137.948C273.694 165.25 238.095 173.836 238.095 173.836C238.095 173.836 233.78 187.617 237.916 205.96C237.916 205.96 239.034 209.447 239.604 215L236.249 214.064C236.227 213.092 236.169 212.142 236.067 211.216C236.069 211.214 236.069 211.21 236.069 211.207C236.069 211.204 236.069 211.201 236.067 211.198C236.067 211.186 236.067 211.171 236.067 211.159C235.982 210.578 235.86 209.75 235.698 208.74C235.235 206.454 234.958 204.785 234.819 203.596C233.51 196.462 231.383 187.051 228.911 184.513C229.352 184.121 229.739 183.673 230.062 183.181L228.911 184.513C219.722 195.174 190.422 189.207 175.338 181.475C160.254 173.743 168.496 171.192 179.161 166.298C189.827 161.403 207.344 168.363 213.483 166.987C219.622 165.612 212.629 160.585 201.729 158.423C190.829 156.26 182.51 165.405 164.821 162.233C147.133 159.061 143.071 123.111 143.071 123.111C153.936 130.108 177.113 129.514 179.083 125.66C181.052 121.806 149.339 113.401 144.761 110.79C140.183 108.18 134.304 95.9658 145.153 77.833Z" fill="#9494C4"/>
<path d="M266.001 110.898C265.986 109.784 266.201 108.679 266.634 107.649C267.047 106.673 267.665 105.793 268.447 105.066C269.26 104.318 270.217 103.739 271.264 103.362C272.451 102.935 273.708 102.725 274.973 102.742C276.246 102.727 277.512 102.937 278.709 103.362C279.765 103.735 280.733 104.314 281.553 105.066C282.334 105.794 282.952 106.674 283.366 107.649C283.798 108.679 284.013 109.784 283.999 110.898C284.014 112.002 283.799 113.099 283.366 114.119C282.946 115.084 282.329 115.954 281.553 116.676C280.733 117.426 279.765 118.006 278.709 118.38C277.512 118.803 276.246 119.013 274.973 118.999C273.708 119.015 272.451 118.805 271.264 118.38C270.218 118.002 269.26 117.422 268.447 116.676C267.67 115.954 267.053 115.084 266.634 114.119C266.2 113.099 265.985 112.003 266.001 110.898ZM281.673 95.7414H268.296L266.396 51H283.573L281.673 95.7414Z" fill="#455A64"/>
<path d="M227.001 66.7908C226.993 65.9443 227.161 65.1049 227.497 64.3223C227.819 63.577 228.298 62.9044 228.905 62.3475C229.537 61.777 230.282 61.3343 231.095 61.0454C232.017 60.721 232.994 60.562 233.977 60.5763C234.966 60.5633 235.951 60.7222 236.882 61.0454C237.703 61.3307 238.455 61.7737 239.093 62.3475C239.7 62.9044 240.179 63.577 240.501 64.3223C240.839 65.1095 241.008 65.9538 241 66.8052C241.01 67.6521 240.841 68.4922 240.501 69.2737C240.176 70.0111 239.696 70.6763 239.093 71.228C238.455 71.8022 237.703 72.2453 236.882 72.5301C235.951 72.8532 234.966 73.0121 233.977 72.9991C232.994 73.0134 232.017 72.8545 231.095 72.5301C230.281 72.242 229.537 71.7991 228.905 71.228C228.3 70.6721 227.82 70.0019 227.497 69.2593C227.157 68.478 226.988 67.6377 227.001 66.7908ZM239.187 55.2053H228.779L227.306 21H240.657L239.187 55.2053Z" fill="#9494C4"/>
<path d="M422 124.804C421.992 123.952 422.161 123.107 422.498 122.32C422.821 121.575 423.301 120.902 423.907 120.345C424.538 119.773 425.282 119.33 426.095 119.042C427.019 118.718 427.996 118.559 428.979 118.573C429.968 118.56 430.951 118.719 431.881 119.042C432.702 119.326 433.455 119.77 434.091 120.345C434.698 120.902 435.178 121.574 435.499 122.32C435.838 123.107 436.008 123.952 435.999 124.804C436.011 125.651 435.84 126.492 435.499 127.273C435.174 128.01 434.695 128.676 434.091 129.228C433.454 129.802 432.702 130.245 431.881 130.53C430.951 130.853 429.967 131.011 428.979 130.999C427.996 131.013 427.019 130.854 426.095 130.53C425.283 130.241 424.539 129.798 423.907 129.228C423.304 128.675 422.825 128.01 422.498 127.273C422.159 126.491 421.99 125.651 422 124.804ZM434.183 113.215H423.783L422.308 79H435.655L434.183 113.215Z" fill="#9494C4"/>
<path d="M399.499 212.966C397.413 216.863 394.948 220.545 392.141 223.959C389.349 227.3 386.49 229.839 384.077 230.699H384.059C383.931 230.742 383.808 230.783 383.683 230.816C383.677 230.818 383.671 230.818 383.665 230.816C383.211 230.952 382.738 231.014 382.264 230.997C374.346 230.639 366 213.622 366 213.622C366 213.622 366.218 211.606 367.758 210.18C369.101 208.946 370.134 208.612 370.134 208.612C370.134 208.612 378.662 217.387 380.746 218.019C382.057 218.414 383.779 212.287 386.248 204.592C388.716 196.897 397.39 195 397.39 195C397.39 195 406.167 200.59 399.499 212.966Z" fill="#6A6BAD"/>
<path d="M392.849 224.071C389.934 227.447 386.951 230.013 384.433 230.881H384.414L384.021 231H384C384.092 230.942 386.786 229.586 387.215 227.069C387.643 224.5 384.842 222.396 391.891 218.419C395.992 216.114 392.849 224.071 392.849 224.071Z" fill="#585891"/>
<path d="M387 341H405.492C406.816 340.115 405.134 331.464 405.134 331.464C405.134 331.464 400.088 329.578 399.216 333.413C398.344 337.248 392.787 338.465 389.848 338.932C387.837 339.255 387.201 340.343 387 341Z" fill="#24406D"/>
<path d="M416 249.426C416 249.426 415.398 260.36 414.643 273.031C414.102 282.115 413.485 292.094 412.952 299.567C412.882 300.558 412.812 301.506 412.741 302.402C412.722 302.68 412.7 302.956 412.679 303.231C411.312 319.988 406.737 334.668 406.737 334.668C401.368 335.778 398.942 333.747 398.942 333.747C398.942 333.747 395.24 291.191 393.869 274.028C392.86 261.395 392 243 392 243L416 249.426Z" fill="#9494C4"/>
<path d="M414 273.332C413.475 282.462 412.877 292.49 412.36 300C408.956 291.833 402 260 402 260L414 273.332Z" fill="#8282B3"/>
<path d="M414 341H432.492C433.816 340.115 432.134 331.464 432.134 331.464C432.134 331.464 427.086 329.578 426.215 333.413C425.343 337.248 419.788 338.465 416.848 338.932C414.837 339.255 414.203 340.343 414 341Z" fill="#24406D"/>
<path d="M397 247.423C397 247.423 410.392 280.657 414.673 293.254C417.724 302.227 426.324 333.706 426.324 333.706C426.324 333.706 430.059 334.842 433.208 332.649C433.208 332.649 436.408 300.487 429.945 291.419C426.515 286.607 429.092 241.403 415.188 241.016C401.283 240.629 397 247.423 397 247.423Z" fill="#9494C4"/>
<path d="M424.87 236.479C424.813 241.223 424.761 244.706 424.773 245.587C424.811 248.457 422.957 249.105 421.046 249.544C421.046 249.544 419.281 249.92 417.06 250.293C414.878 250.655 412.235 251.012 410.387 251C404.458 250.908 398.575 249.95 392.928 248.154C391.139 248.154 390.325 245.417 390.031 241.591C389.832 239.003 390.64 213.187 390.74 206.741C390.81 202.118 393.373 197.845 394.097 197.22C400.734 191.404 420.318 192.142 423.844 196.15C424.716 197.141 424.97 206.698 425 217.168C425.006 223.908 424.937 231.024 424.87 236.479Z" fill="#6A6BAD"/>
<path d="M412.794 194.106C410.261 196.839 401.745 196.433 402.006 194.048C402.04 193.754 402.095 192.009 402.125 191.738C402.146 191.527 402.167 191.315 402.184 191.104C402.242 190.515 402.289 189.995 402.327 189.547C402.442 188.239 402.478 187.53 402.478 187.53C402.72 187.461 408.192 185.914 410.912 185.273C411.825 185.062 412.431 184.945 412.42 185.026C411.598 191.114 413.629 193.209 412.794 194.106Z" fill="#F7F7F7"/>
<path d="M411 186.681C411 186.681 408.685 188.844 402 189C402.116 187.776 402.153 187.113 402.153 187.113C402.398 187.048 407.943 185.6 410.699 185C411.194 185.184 410.55 186.374 411 186.681Z" fill="#D1D1D1"/>
<path d="M401.131 187.006C402.373 187.403 403.651 187.687 404.948 187.854C408.076 188.262 412.191 188.021 413.487 184.404C415.664 178.319 418.444 174.669 412.038 172.185C408.609 170.854 406.415 170.784 404.925 171.292C403.631 171.728 402.867 172.605 402.29 173.47C401.042 175.334 398.54 185.939 401.131 187.006Z" fill="#F7F7F7"/>
<path d="M402.303 168.888C400.109 170.306 400.825 173.655 403.41 174.107C404.959 174.376 406.259 174.429 407.01 174.761C408.537 175.432 409.851 176.145 409.489 178.489C409.368 179.287 408.975 180.26 411.048 179.777C411.296 179.694 411.566 179.71 411.802 179.822C412.661 180.326 411.562 182.776 411.231 183.307C411.231 183.307 410.754 185.061 411.814 185.914C411.941 186.017 414.022 186.927 419.037 179.322C419.825 178.13 420.576 175.444 419.36 172.857C418.144 170.27 414.753 167 408.365 167C406.701 167 404.202 167.652 402.303 168.888Z" fill="#233862"/>
<path d="M423.889 237.059C423.007 241.473 423.231 241.519 421.88 240.36C416.369 235.642 417.98 233.169 419.204 229.08C420.428 224.991 416.131 218.596 419.204 215.869C422.21 213.205 423.922 217.5 423.997 217.692C424.014 224.451 423.951 231.588 423.889 237.059Z" fill="#585891"/>
<path d="M423.464 236C423.464 236 421.305 239.685 419.89 239.566C418.476 239.446 416.564 238.884 415.469 239.985C414.374 241.086 412.589 243.916 413.085 244.671C413.582 245.426 415.579 244.757 417.012 243.93C418.445 243.104 420.708 244.337 421.912 243.397C423.116 242.458 426 238.727 426 238.727L423.464 236Z" fill="#F7F7F7"/>
<path d="M422.937 196C422.937 196 441.152 213.436 438.788 225.036C437.709 230.322 434.365 234.781 425.452 242C425.452 242 421.235 239.036 420.309 236.629C420.309 236.629 428.401 225.036 428.088 223.062C427.704 220.646 422.181 214.587 420.201 213.645C418.221 212.704 418.401 198.023 422.937 196Z" fill="#6A6BAD"/>
<path d="M420 239.589C420 239.589 418.072 238.573 417.452 238.138C416.833 237.702 416.97 238.407 417.161 238.758C417.352 239.11 417.867 239.901 418.624 239.995C419.106 240.029 419.585 239.888 420 239.589Z" fill="#F7F7F7"/>
<path d="M94.8283 202.153C94.166 200.853 109.292 196.174 109.533 209C109.533 209 137.867 208.291 124.342 192.237C119.658 186.68 120.14 182.085 120.282 177.811C120.423 173.538 117.363 161.101 106.875 162.353C106.875 162.353 104.129 161.216 100.705 163.024C92.9011 167.13 75.4386 206.882 94.8283 202.153Z" fill="#42436F"/>
<path d="M142 213.458C142 213.458 143.835 210.546 145.303 210.489C146.771 210.431 149.506 209.636 149.288 210.203C149.069 210.77 147.377 210.843 147.214 211.174C147.051 211.504 149.724 212.027 150.489 212.089C151.253 212.15 153.054 212.089 152.999 212.487C152.944 212.886 149.753 214.544 147.493 214.315C145.234 214.087 142.457 215 142.457 215L142 213.458Z" fill="#F7F7F7"/>
<path d="M115 214.874C115.813 216.411 116.765 217.868 117.844 219.227C120.053 222.029 123.458 225.264 127.734 225.904C129.775 226.208 131.773 225.763 133.607 224.938C138.788 222.604 142.703 217.235 142.703 217.235C143.619 214.706 142.121 212.993 142.121 212.993C142.121 212.993 131.636 215.382 130.637 214.882C129.638 214.383 123.499 200.582 122.393 198.284C120.042 193.402 116.312 192 116.312 192L115 214.874Z" fill="#6A6BAD"/>
<path d="M118.328 218.446C120.524 221.157 123.91 224.287 128.161 224.907C130.19 225.202 132.176 224.771 134 223.973C133.794 223.997 128.643 224.627 126.582 221.001C124.485 217.304 122.218 211.431 119.105 213.39C117.768 214.235 117.827 216.333 118.328 218.446Z" fill="#585891"/>
<path d="M75.6106 327.358C75.6106 327.358 72.4663 330.226 73.0792 332.264C73.6922 334.301 76.529 335.661 76.9139 338.151C77.2988 340.64 78.8302 342 80.2109 342H86.7908C86.7908 342 87.809 340.247 85.353 339.718C82.897 339.189 81.9745 336.258 82.1273 333.548C82.28 330.839 81.8971 327.207 81.8971 327.207L76.6838 326L75.6106 327.358Z" fill="#37474F"/>
<path d="M103.452 329C103.452 329 102.28 341.315 103.71 342L122 341.965C122 341.965 122 339.901 119.061 339.439C116.121 338.977 110.963 337.297 110.09 333.548C109.217 329.799 103.452 329 103.452 329Z" fill="#37474F"/>
<path d="M89.1228 205.689C88.9591 208.45 88.9591 211.218 89.1228 213.979C89.3033 216.978 92.379 220.992 92.8154 221.984C93.9105 224.466 95.1442 224.879 95.1442 224.879L104.703 227.189L108.06 228L118.653 224.892C118.653 224.892 123.478 211.616 121.542 204.144C119.605 196.673 116.643 191.48 116.643 191.48C116.643 191.48 109.461 188.688 96.7429 190.773L89.1228 205.689Z" fill="#6A6BAD"/>
<path d="M92 215.03C92.1811 218.022 92.4613 220.812 92.8994 221.802C93.9989 224.28 95.2374 224.693 95.2374 224.693L104.834 227L109 225.8C109 225.8 95.0984 223.735 96.6339 212L92 215.03Z" fill="#CBCBCB"/>
<path d="M117.452 227C117.452 227 122.657 243.052 122.992 248.517C123.327 253.982 113.04 326.152 112.626 328.67C112.236 331.044 109.261 332.555 109.261 332.555C109.261 332.555 107.891 333.356 105.93 332.809C103.223 332.052 102.363 331.145 102.363 331.145C102.363 331.145 98.3117 279.674 100.818 261.287C102.346 249.917 103.193 238.468 103.356 227H117.452Z" fill="#AAA9CE"/>
<path d="M95.7262 227C95.7262 227 87.8133 237.611 87.0747 244.784C86.3361 251.957 85.917 277.151 84.3465 284.144C82.7759 291.137 77 304.592 77 326.402C77 326.402 77.5996 327.646 79.4523 328.318C80.1598 328.557 80.8802 328.756 81.61 328.915C82.3528 329.084 83.1312 328.999 83.8195 328.673C84.5079 328.346 85.0663 327.798 85.4046 327.115C89.3092 319.26 101.747 293.923 102.384 288.666C102.836 284.934 106.762 260.31 115.328 245.858C117.384 242.387 114.067 228.588 114.067 228.588L95.7262 227Z" fill="#B9B8D7"/>
<path d="M118.708 225C118.708 225 116.653 226.512 112.542 226.588C107.647 226.679 95.5179 225.432 95.5179 225.432C95.1832 226.357 95.0084 227.324 95 228.299C95 228.299 109.815 231.762 118.399 228.806C118.404 228.806 119.511 226.875 118.708 225Z" fill="#40535D"/>
<path d="M111 228.499C111 227.122 112.12 226 113.5 226C114.88 226 116 227.122 116 228.499C116 229.876 114.878 231 113.498 231C112.118 231 111 229.872 111 228.499ZM111.828 228.499C111.828 229.474 112.578 230.267 113.5 230.267C114.422 230.267 115.172 229.474 115.172 228.499C115.172 227.524 114.422 226.731 113.5 226.731C112.578 226.731 111.828 227.526 111.828 228.499Z" fill="white"/>
<path d="M80.7276 229.763L92.9277 240.477C93.3514 240.848 93.904 241.034 94.4641 240.995C95.0241 240.955 95.5457 240.693 95.9141 240.267L111.48 222.247C111.663 222.036 111.802 221.791 111.89 221.525C111.979 221.259 112.014 220.978 111.995 220.699C111.976 220.419 111.902 220.146 111.778 219.895C111.653 219.645 111.481 219.421 111.272 219.237L99.0715 208.524C98.862 208.34 98.6185 208.2 98.355 208.11C98.0916 208.021 97.8133 207.986 97.5361 208.005C97.2589 208.025 96.9882 208.099 96.7396 208.224C96.4909 208.349 96.2692 208.523 96.0871 208.734L80.5192 226.753C80.151 227.18 79.9661 227.737 80.0051 228.302C80.0442 228.866 80.3041 229.392 80.7276 229.763Z" fill="#37474F"/>
<path d="M99.1324 228C99.3179 228.042 105.998 228.714 106 229.889C106 231.254 104.042 233.084 102.194 232.997C101.448 232.963 98 230.251 98 230.251L99.1324 228Z" fill="#F7F7F7"/>
<path d="M102.191 190.907C102.915 189.114 103.337 186.381 103.325 183L103.807 183.097L111.895 184.731C111.895 184.731 111.712 187.331 111.706 189.78V189.84C111.706 191.967 113.113 194.1 109.772 194.944C108.739 195.204 100.667 194.675 102.191 190.907Z" fill="#F7F7F7"/>
<path d="M112 184.468C112 184.468 111.819 186.801 111.813 189C107.336 188.882 104.97 185.098 104 183L112 184.468Z" fill="#DADADA"/>
<path d="M112.534 187C112.534 187 102.125 187.176 102.117 180.531C102.109 173.887 100.763 169.422 107.407 169.039C114.052 168.655 115.346 171.181 115.876 173.399C116.405 175.616 115.232 186.784 112.534 187Z" fill="#F7F7F7"/>
<path d="M113 168.377C113 168.377 110.044 176.316 105.506 177.491C100.967 178.665 99 177.441 99 177.441C99 177.441 102.48 174.666 103.203 169.803C103.203 169.803 110.77 164.596 113 168.377Z" fill="#38385E"/>
<path d="M112 169.303C112 169.303 114.004 170.132 114.83 171.751C115.826 173.641 116.29 175.817 116.165 178C116.165 178 118.202 172.572 115.913 169.501C113.484 166.243 112 169.303 112 169.303Z" fill="#38385E"/>
<path d="M99 227.431C99 227.431 100.414 226.865 101.358 227.03C102.303 227.195 103 227.006 103 227.336C103 227.667 101.781 227.822 101.522 227.978C101.263 228.133 99 227.431 99 227.431Z" fill="#F7F7F7"/>
<path d="M96.6079 191C96.6079 191 89.1428 191.53 86.277 198.559C83.4113 205.588 78 217.387 78 219.373C78 221.359 81.0331 227.479 97.3207 231C97.3207 231 99.0046 229.208 98.9034 227.792C98.9034 227.792 88.7358 218.966 88.7626 217.934C88.8143 215.984 90.43 213.407 99.3559 204.381C101.773 201.928 96.6079 191 96.6079 191Z" fill="#6A6BAD"/>
<path d="M306.441 132H225.563C223.608 132 221.733 132.777 220.349 134.158L163.161 191.347C162.475 192.031 161.932 192.845 161.561 193.74C161.191 194.635 161 195.594 161 196.562V277.438C161 279.394 161.777 281.27 163.161 282.653L220.349 339.839C221.034 340.524 221.847 341.068 222.741 341.438C223.636 341.809 224.595 342 225.563 342H306.441C307.409 342 308.368 341.809 309.263 341.439C310.158 341.068 310.97 340.525 311.655 339.839L368.839 282.653C370.223 281.27 371 279.394 371 277.438V196.562C371 195.594 370.809 194.635 370.439 193.74C370.068 192.845 369.525 192.031 368.839 191.347L311.655 134.158C310.272 132.776 308.396 132 306.441 132Z" fill="#37474F"/>
<path d="M300.252 331H230.748C229.356 331.003 227.976 330.73 226.69 330.197C225.403 329.663 224.235 328.88 223.253 327.892L174.107 278.748C173.12 277.767 172.336 276.599 171.803 275.312C171.27 274.026 170.997 272.646 171 271.253V201.749C170.997 200.356 171.27 198.977 171.803 197.69C172.337 196.404 173.12 195.236 174.107 194.254L223.253 145.108C224.235 144.12 225.403 143.337 226.69 142.803C227.976 142.27 229.356 141.997 230.748 142H300.252C301.645 141.997 303.024 142.269 304.311 142.803C305.597 143.336 306.765 144.12 307.747 145.108L356.893 194.256C357.881 195.237 358.664 196.404 359.197 197.691C359.731 198.977 360.004 200.356 360 201.749V271.253C360.004 272.646 359.731 274.026 359.198 275.312C358.664 276.599 357.881 277.767 356.893 278.748L307.747 327.895C306.765 328.882 305.597 329.665 304.311 330.199C303.024 330.732 301.644 331.004 300.252 331ZM230.748 149.209C230.303 149.209 229.861 149.296 229.449 149.467C229.038 149.637 228.664 149.888 228.349 150.204L179.206 199.352C178.89 199.666 178.639 200.039 178.469 200.451C178.298 200.862 178.21 201.303 178.211 201.749V271.253C178.21 271.699 178.298 272.141 178.468 272.552C178.639 272.964 178.89 273.338 179.206 273.652L228.351 322.8C228.666 323.116 229.04 323.366 229.452 323.537C229.863 323.707 230.305 323.794 230.75 323.793H300.254C300.699 323.794 301.141 323.707 301.553 323.537C301.964 323.366 302.338 323.116 302.653 322.8L351.798 273.652C352.115 273.338 352.366 272.964 352.536 272.553C352.707 272.141 352.794 271.699 352.793 271.253V201.749C352.794 201.303 352.707 200.862 352.536 200.451C352.366 200.039 352.115 199.666 351.798 199.352L302.651 150.204C302.336 149.888 301.962 149.637 301.551 149.467C301.139 149.296 300.698 149.209 300.252 149.209H230.748Z" fill="#DEDCEB"/>
<path d="M322.05 239.594L320.634 238.37C318.915 236.894 316.68 236.157 314.418 236.319C312.156 236.482 310.05 237.53 308.56 239.236L300.557 248.456C300.305 248.749 299.969 248.957 299.595 249.052C299.221 249.148 298.826 249.127 298.464 248.991C298.103 248.856 297.791 248.613 297.572 248.296C297.354 247.978 297.238 247.601 297.241 247.216C297.24 246.493 297.201 245.771 297.125 245.053V187.019C297.119 185.182 296.385 183.423 295.083 182.124C293.782 180.825 292.018 180.094 290.177 180.088H289.662C287.821 180.093 286.057 180.825 284.755 182.123C283.453 183.422 282.719 185.182 282.714 187.019V224.794C282.714 225.232 282.54 225.653 282.229 225.963C281.918 226.273 281.496 226.448 281.056 226.448C280.569 226.448 280.102 226.255 279.758 225.911C279.413 225.568 279.22 225.102 279.22 224.616V179.699C279.214 177.924 278.505 176.223 277.247 174.968C275.988 173.713 274.283 173.005 272.504 173H271.528C269.748 173.005 268.043 173.713 266.785 174.968C265.526 176.223 264.817 177.924 264.812 179.699V224.918C264.812 225.325 264.649 225.716 264.361 226.004C264.072 226.292 263.68 226.454 263.272 226.454C263.014 226.454 262.759 226.404 262.521 226.306C262.283 226.207 262.067 226.063 261.884 225.882C261.702 225.7 261.558 225.484 261.459 225.247C261.361 225.009 261.31 224.755 261.311 224.498V188.452C261.306 186.615 260.572 184.855 259.27 183.556C257.968 182.258 256.204 181.526 254.363 181.521H253.849C252.008 181.526 250.244 182.258 248.942 183.557C247.64 184.856 246.906 186.615 246.901 188.452V224.792C246.901 225.23 246.726 225.651 246.415 225.961C246.104 226.271 245.682 226.446 245.242 226.446C245.002 226.446 244.763 226.398 244.541 226.306C244.318 226.214 244.116 226.08 243.946 225.91C243.776 225.74 243.641 225.538 243.549 225.316C243.457 225.094 243.41 224.856 243.41 224.616V196.185C243.404 194.349 242.67 192.589 241.368 191.291C240.067 189.992 238.303 189.26 236.462 189.254H235.948C234.107 189.26 232.343 189.992 231.041 191.29C229.739 192.589 229.005 194.349 229 196.185V246.105C229 246.244 229 246.38 229.015 246.519C229.015 246.75 229 246.984 229 247.218V274.695C229 285.861 238.16 295 249.355 295H276.9C280.31 294.993 283.664 294.134 286.654 292.499C289.645 290.865 292.176 288.509 294.017 285.646C295.105 283.944 296.31 282.32 297.626 280.787L322.929 251.632C324.406 249.917 325.142 247.688 324.977 245.432C324.813 243.177 323.76 241.078 322.05 239.594Z" fill="#DEDCEB"/>
</g>
<defs>
<clipPath id="clip0_2338_3357">
<rect width="537" height="343" fill="white"/>
</clipPath>
</defs>
</svg>
