<svg width="405" height="418" viewBox="0 0 405 418" fill="none" xmlns="http://www.w3.org/2000/svg">
<g clip-path="url(#clip0_2338_3408)">
<path d="M123.183 4.27674C109.476 6.18852 96.2983 10.8471 84.4402 17.9727C72.582 25.0982 62.2887 34.5437 54.1786 45.7416C37.7862 68.3676 31.2852 96.7148 36.3061 124.19C52.0302 210.223 -91.5832 386.507 103.396 412.459C298.376 438.411 398.54 368.279 403.202 304.431C407.645 243.571 425.519 -37.8443 123.183 4.27674Z" fill="#DEDCEB"/>
<path d="M270.901 336C268.572 335.634 263.823 332.783 262.898 331.532C256.709 323.195 244.104 308.34 245.05 297.406C245.213 295.538 253.622 294.033 254.84 292.348C259.969 290.086 261.888 289.62 265.708 285.075C276.981 271.658 252.841 245.22 282.002 236.962C303.364 230.915 321.051 238.702 319.679 205.767C318.306 172.832 346.028 113.648 380.114 137.533C399.676 151.243 378.679 178.64 388.363 199.541C397.565 219.403 388.814 235.304 367.671 246.49C346.529 257.675 357.401 267.027 362.939 285.808C369.591 308.375 335.069 311.39 319.013 311.424C306.087 311.45 273.176 320.239 270.901 336Z" fill="#6667AB"/>
<path d="M254.212 316L254 315.537C289.457 299.519 319.029 273.12 339.513 239.193C359.011 206.912 370.067 168.462 371.489 128L372 128.018C370.582 168.563 359.499 207.099 339.958 239.455C319.414 273.472 289.762 299.94 254.212 316Z" fill="#FCFDFE"/>
<path d="M366.838 296C346.982 288.511 313.471 287.355 292.139 293.419L292 292.903C313.419 286.814 347.065 287.978 367 295.496L366.838 296Z" fill="#FCFDFE"/>
<path d="M268.323 310L268 309.612C276.554 302.123 281.09 290.491 281.475 275.035C281.759 263.702 279.846 250.616 275.791 236.139L276.269 236C280.343 250.526 282.257 263.664 281.972 275.049C281.584 290.656 276.992 302.41 268.323 310Z" fill="#FCFDFE"/>
<path d="M342.353 235L342 234.632C357.914 219.768 380.687 216.296 396.99 216L397 216.506C380.788 216.8 358.148 220.247 342.353 235Z" fill="#FCFDFE"/>
<path d="M361.725 189L361.219 188.95C362.265 178.585 361.16 157.443 342 132.304L342.407 132C361.671 157.275 362.78 178.561 361.725 189Z" fill="#FCFDFE"/>
<path d="M294.977 298C282.277 296.293 269.591 294.293 256.918 292.002C256.715 292.19 252.224 264.711 265.136 250.112C290.677 221.827 272.936 196.937 267.783 182.122C259.65 161.26 263.516 138.512 284.864 137.917C308.533 136.794 312.349 97.5799 307.623 62.0097C304.094 44.6762 320.243 23.3973 336.556 18.3802C353.205 12.8399 370.017 23.5615 375.55 58.1297C383.776 98.131 354.785 122.667 344.185 142.902C333.755 162.765 358.771 178.43 339.005 196.159C322.388 211.899 301.344 223.325 309.33 242.747C317.527 261.947 315.813 277.744 294.977 298Z" fill="#393D5F"/>
<path d="M277.507 300H277C276.993 299.755 288.298 241.74 308.326 185.148C311.074 175.992 314.069 166.755 316.966 157.822C324.722 133.902 332.744 109.169 336.397 84.5933C340.481 57.124 338.606 32.4515 330.674 9.16549L331.153 9C339.115 32.3639 340.995 57.1185 336.898 84.6684C333.238 109.284 325.211 134.039 317.448 157.981C314.548 166.912 311.558 176.145 308.806 185.307C289.709 239.273 277.648 298.192 277.507 300Z" fill="#FCFDFE"/>
<path d="M332.381 111L332 110.666C345.823 94.9228 362.461 72.5981 371.399 60.6016C378.588 50.9528 378.635 50.9625 378.93 51.0053L378.859 51.5066L378.895 51.2566L379 51.4817C378.634 51.7386 375.621 55.7834 371.805 60.9041C362.862 72.906 346.217 95.2501 332.381 111Z" fill="#FCFDFE"/>
<path d="M336.497 90C333.351 72.2455 325.79 60.6332 320 54.0188C313.605 46.7104 307.763 43.5657 307.169 43.5024C307.212 43.5045 307.255 43.4913 307.29 43.4652L307 43.0521C307.127 42.9654 307.279 42.9847 307.622 43.1265C309.196 43.7805 315.091 47.3231 321.323 54.7857C329.173 64.1841 334.594 76.332 337 89.916L336.497 90Z" fill="#FCFDFE"/>
<path d="M297.596 222L297.096 221.946C298.86 205.173 294.799 187.204 285.028 168.54C279.932 158.806 273.467 149.289 265.813 140.254C265.264 139.601 265.063 139.368 265 139.262L265.434 139C265.479 139.077 265.795 139.449 266.194 139.921C273.872 148.988 280.357 158.537 285.471 168.304C295.292 187.057 299.371 205.123 297.596 222Z" fill="#FCFDFE"/>
<path d="M303.435 204L303 203.736C317.781 179.002 349.544 176.919 349.808 177.002L350 177.239L349.829 177.491L349.746 177.253L349.728 177.503C349.309 177.503 317.999 179.633 303.435 204ZM349.662 177.009L349.744 177.25L349.662 177.009Z" fill="#FCFDFE"/>
<path d="M279.992 290L279.482 289.988C279.66 282.788 276.904 270.554 262.754 253.149C261.986 252.206 261.986 252.206 262.004 252.065L262.511 252.131L262.258 252.098L262.491 252C262.531 252.071 262.819 252.425 263.151 252.835C277.399 270.357 280.173 282.717 279.992 290Z" fill="#FCFDFE"/>
<path d="M283.495 277L283 276.859C284.55 271.23 290.787 260.163 315.129 249.282C315.465 249.131 315.682 249.035 315.759 249L316 249.457C315.919 249.499 315.691 249.597 315.338 249.76C291.188 260.552 285.02 271.459 283.495 277Z" fill="#FCFDFE"/>
<path d="M307 363.665C307 370.454 302.169 376.259 296.211 376.606L66.4024 389.98C59.5741 390.378 54 384.761 54 377.458V48.7525C54 41.4494 59.5741 35.7344 66.4024 36.0095L296.211 45.301C302.169 45.5428 307 51.2605 307 58.0509V363.665Z" fill="#393D5F"/>
<path d="M314 363.665C314 370.454 309.169 376.259 303.211 376.606L73.4023 389.98C66.5741 390.378 61 384.761 61 377.458V48.7525C61 41.4494 66.5741 35.7344 73.4023 36.0095L303.211 45.301C309.169 45.5428 314 51.2605 314 58.0509V363.665Z" fill="#393D5F"/>
<path d="M67 48.822V377.29C67 381.196 69.963 384.196 73.6096 383.99L255.215 373.714L303.23 370.998C306.42 370.819 309 367.719 309 364.075V57.7253C309 54.0831 306.42 51.0291 303.23 50.9109L253.482 48.9819L73.6096 42.0048C69.963 41.8629 67 44.9155 67 48.822Z" fill="#6C6CA2"/>
<path d="M306 349.666C305.997 350.323 305.745 350.955 305.296 351.434C304.846 351.913 304.232 352.204 303.576 352.249L73.7716 363.996C72.2411 364.074 71 362.958 71 361.508V48.5281C71 47.0787 72.2439 45.945 73.7716 46.0021L303.576 54.6415C304.23 54.676 304.845 54.9595 305.296 55.4337C305.747 55.908 305.999 56.5369 306 57.1911V349.666Z" fill="#D8DEE8"/>
<path d="M215.578 370.39L168.555 372.992C166.041 373.133 164 371.377 164 369.076V368.903C164 366.601 166.041 364.627 168.555 364.494L215.578 362.007C218.022 361.877 220 363.609 220 365.875V366.044C220 368.307 218.022 370.256 215.578 370.39Z" fill="url(#paint0_linear_2338_3408)"/>
<path d="M195 46.0845C195 47.188 193.882 48.044 192.501 47.9983C191.119 47.9525 190 47.0204 190 45.9156C190 44.8108 191.119 43.9549 192.501 44.0018C193.882 44.0488 195 44.9822 195 46.0845Z" fill="url(#paint1_linear_2338_3408)"/>
<g style="mix-blend-mode:screen" opacity="0.3">
<path d="M253.358 342.153C252.421 322.123 274.776 310.375 272.629 282.12C272.436 279.572 270.437 257.706 252.771 242.885C236.908 229.575 223.573 234.583 194.212 223.968C173.634 216.527 150.499 208.164 141.143 191.381C122.558 158.055 175.654 124.767 164.787 81.6222C161.673 69.2558 152.88 54.1105 129.658 38.2801L73.414 36.0097C66.5793 35.7318 61 41.4495 61 48.7526V377.458C61 384.761 66.5793 390.38 73.414 389.98L283 377.794C260.677 364.939 253.842 352.588 253.358 342.153Z" fill="white"/>
</g>
<path d="M290 339.768L83 355L84.1117 43L290 47.9086V339.768Z" fill="#8686B4"/>
<path d="M190.959 86L97 85.0274L97.0825 59L191 60.7334L190.959 86Z" fill="white"/>
<path d="M150.928 152.675L121 153L121.089 120L151 120.004L150.928 152.675Z" fill="white"/>
<path d="M265.994 134.369L160 135L160.034 119.089L266 119L265.994 134.369Z" fill="white"/>
<path d="M150.927 217.034L121 218L121.089 185.644L151 185L150.927 217.034Z" fill="white"/>
<path d="M265.994 198.062L160 201L160.034 184.373L266 182L265.994 198.062Z" fill="white"/>
<path d="M149.928 283.367L120 285L120.089 252.306L150 251L149.928 283.367Z" fill="white"/>
<path d="M265.994 261.85L160 267L160.033 250.589L266 246L265.994 261.85Z" fill="white"/>
<g style="mix-blend-mode:soft-light" opacity="0.3">
<path d="M206.956 344.856L83 354L84.0507 42L160.622 43.8287C145.65 69.5755 127.379 121.02 179.626 169.231C232.725 218.228 254.011 293.135 206.956 344.856Z" fill="white"/>
</g>
<path d="M297 29.9072V321.77L214.307 327.856L90 337L91.0537 25L167.84 26.8301L297 29.9072Z" fill="#C1BFD4"/>
<path opacity="0.5" d="M213.957 327.856L90 337L91.0508 25L167.621 26.8301C152.649 52.5768 134.379 104.022 186.627 152.232C239.725 201.229 261.011 276.129 213.957 327.856Z" fill="#DEDCEB"/>
<path style="mix-blend-mode:multiply" opacity="0.6" d="M197.959 69L104 68.0288L104.082 42L198 43.7334L197.959 69Z" fill="#37474F"/>
<path style="mix-blend-mode:multiply" opacity="0.6" d="M159.928 136.676L130 137L130.089 104L160 104.004L159.928 136.676Z" fill="#37474F"/>
<path opacity="0.5" d="M275.994 119.371L170 120L170.034 104.089L276 104L275.994 119.371Z" fill="#DEDCEB"/>
<path style="mix-blend-mode:multiply" opacity="0.6" d="M159.928 202.034L130 203L130.09 170.645L160 170L159.928 202.034Z" fill="#37474F"/>
<path opacity="0.5" d="M275.994 183.062L170 186L170.034 169.371L276 167L275.994 183.062Z" fill="#DEDCEB"/>
<path style="mix-blend-mode:multiply" opacity="0.6" d="M159.928 267.368L130 269L130.09 236.306L160 235L159.928 267.368Z" fill="#37474F"/>
<path opacity="0.5" d="M275.994 245.85L170 251L170.033 234.589L276 230L275.994 245.85Z" fill="#DEDCEB"/>
<path d="M382.02 387.925C383.715 382.725 383.211 377.75 380.507 373L175 394.075L176.514 409L382.02 387.925Z" fill="#6A6A95"/>
<path d="M381.379 378C381.884 379.834 382.083 381.741 381.969 383.641L175.567 405L175 399.359L381.379 378Z" fill="#60608C"/>
<path d="M176.536 409C178.889 403.763 178.419 398.76 175.027 394L129.355 405.807C129.245 405.839 129.149 405.91 129.084 406.007C129.02 406.104 128.991 406.22 129.003 406.337C129.014 406.453 129.066 406.561 129.148 406.643C129.231 406.724 129.339 406.774 129.454 406.783L176.536 409Z" fill="#CECCDA"/>
<path d="M129.357 405.284L147.205 401C147.95 402.917 148.176 404.98 147.863 407L129.456 406.195C129.341 406.187 129.232 406.141 129.149 406.064C129.066 405.988 129.014 405.887 129.003 405.779C128.991 405.67 129.02 405.561 129.085 405.471C129.149 405.38 129.246 405.314 129.357 405.284Z" fill="#7C81AE"/>
<path d="M128.252 369.654C133.366 372.241 139.789 369.865 142.599 364.35C145.409 358.835 143.544 352.267 138.431 349.678C138.166 349.54 137.896 349.431 137.626 349.324C138.565 346.312 139.282 343.235 139.771 340.118C140.065 340.118 140.359 340.118 140.657 340.086C146.49 339.568 151.12 334.227 150.998 328.156C150.875 322.086 146.048 317.585 140.215 318.103C139.91 318.131 139.61 318.178 139.312 318.231C138.708 315.241 137.873 312.302 136.816 309.44C137.083 309.284 137.351 309.122 137.612 308.94C142.601 305.457 144.197 298.581 141.176 293.582C138.154 288.584 131.657 287.356 126.666 290.841C126.411 291.019 126.17 291.212 125.933 291.407C123.949 289.224 121.783 287.21 119.46 285.388C119.625 285.119 119.786 284.847 119.931 284.555C122.743 279.04 126.415 273.014 121.262 270.508C109.343 264.709 104.227 269.674 101.418 275.189C101.278 275.475 101.139 275.766 101.026 276.056C98.1785 275.263 95.2691 274.709 92.3287 274.402C92.3468 274.095 92.3621 273.788 92.3551 273.477C92.2325 267.406 94.0402 264.122 88.1863 264.008C75.4177 263.761 71.1095 269.285 71.2322 275.353C71.2322 275.67 71.2656 275.981 71.2963 276.289C68.3551 277.128 65.4832 278.193 62.7063 279.472C62.567 279.201 62.4359 278.933 62.2784 278.671C59.2567 273.671 52.7602 272.446 47.769 275.929C42.7779 279.412 41.1834 286.29 44.2065 291.288C44.3612 291.544 44.5299 291.782 44.7027 292.02C42.4654 294.252 40.3956 296.644 38.5101 299.178C38.2634 299.024 38.0125 298.872 37.7477 298.739C32.6352 296.152 26.2112 298.526 23.4013 304.043C20.5914 309.559 22.4563 316.125 27.5688 318.714C27.8336 318.853 28.104 318.961 28.3758 319.068C27.435 322.08 26.7176 325.157 26.2293 328.274C25.9352 328.274 25.6426 328.274 25.3429 328.306C19.5099 328.824 14.8811 334.166 15.0023 340.236C15.1236 346.307 19.9531 350.808 25.7861 350.29C26.09 350.262 26.3896 350.215 26.6879 350.162C27.2919 353.152 28.1269 356.091 29.1856 358.953C28.9166 359.108 28.649 359.271 28.3883 359.453C23.3986 362.936 21.8026 369.812 24.8258 374.81C27.8489 379.808 37.8536 382.13 42.8434 378.646C43.0998 378.468 39.83 377.181 40.0683 376.979C42.0513 379.167 44.2156 381.184 46.5383 383.01C46.3739 383.279 46.2122 383.551 46.0672 383.843C43.2559 389.358 45.1222 395.925 50.2347 398.513C55.3471 401.1 61.7711 398.725 64.5824 393.209C64.7218 392.923 64.8528 392.632 64.974 392.342C67.8196 393.13 70.7266 393.678 73.6643 393.981C73.6462 394.288 73.6323 394.595 73.6379 394.906C73.7605 400.976 78.5872 405.477 84.4202 404.959C90.2533 404.441 94.8835 399.1 94.7608 393.03C94.7608 392.713 94.7288 392.402 94.6967 392.094C97.6401 391.256 100.514 390.194 103.294 388.916C103.433 389.194 103.564 389.455 103.722 389.716C106.745 394.716 113.24 395.942 118.231 392.457C123.222 388.973 124.817 382.098 121.795 377.1C121.64 376.845 121.47 376.604 121.297 376.368C123.535 374.137 125.604 371.744 127.49 369.21C127.737 369.369 127.987 369.52 128.252 369.654ZM64.5183 370.459C45.9557 361.067 39.1805 337.22 49.3858 317.192C59.5912 297.164 82.9164 288.542 101.475 297.933C120.033 307.324 126.813 331.173 116.607 351.201C106.402 371.228 83.0822 379.85 64.5183 370.459Z" fill="#2B2F4D"/>
<path d="M141.605 339.552C147.467 339.035 152.121 333.701 151.998 327.639C151.874 321.578 147.023 317.083 141.161 317.6C140.854 317.628 140.553 317.675 140.253 317.728C139.646 314.742 138.807 311.807 137.744 308.949C138.013 308.794 138.282 308.632 138.544 308.45C143.559 304.972 149.765 296.565 146.226 291.909C139.511 283.073 132.56 286.897 127.543 290.384C127.287 290.561 127.045 290.754 126.806 290.95C124.812 288.769 122.636 286.758 120.301 284.939C120.466 284.67 120.629 284.398 120.774 284.114C122.315 281.116 122.456 277.81 121.433 275C116.588 283.442 111.815 291.922 107.115 300.441C121.999 311.239 126.738 332.517 117.434 350.658C109.551 366.029 93.8786 374.661 78.5773 373.579C77.8951 375.332 77.2241 377.094 76.4942 378.829C74.5107 383.545 72.2567 388.153 70 392.76C71.4195 393.024 72.8442 393.231 74.2739 393.381C74.2557 393.688 74.2417 393.994 74.2473 394.305C74.3706 400.367 78.087 405.517 88.7123 404.958C94.5958 404.651 95.6002 398.493 95.4769 392.431C95.4769 392.115 95.4447 391.804 95.4125 391.497C98.371 390.661 101.26 389.599 104.053 388.322C104.193 388.6 104.325 388.862 104.483 389.122C107.521 394.115 118.058 396.234 123.075 392.756C128.091 389.278 125.684 381.516 122.654 376.53C122.499 376.275 122.328 376.035 122.154 375.799C124.403 373.571 126.483 371.182 128.378 368.652C128.626 368.806 128.878 368.957 129.144 369.09C134.284 371.673 140.739 369.301 143.565 363.794C146.39 358.287 144.513 351.728 139.375 349.143C139.109 349.005 138.837 348.896 138.565 348.79C139.509 345.781 140.23 342.709 140.721 339.596C141.007 339.583 141.305 339.578 141.605 339.552Z" fill="#2B2F4D"/>
<path d="M134.255 370.553C139.367 373.146 145.789 370.765 148.6 365.234C151.412 359.703 149.545 353.119 144.432 350.523C144.167 350.384 143.896 350.276 143.626 350.168C144.566 347.147 145.283 344.063 145.772 340.938C146.065 340.938 146.359 340.938 146.657 340.904C152.49 340.385 157.12 335.031 156.998 328.944C156.875 322.857 152.048 318.344 146.216 318.863C145.91 318.889 145.611 318.938 145.314 318.991C144.71 315.993 143.875 313.046 142.816 310.176C143.085 310.019 143.352 309.857 143.612 309.675C148.603 306.181 150.198 299.286 147.176 294.276C144.154 289.266 137.658 288.033 132.669 291.526C132.412 291.705 132.172 291.899 131.934 292.095C129.95 289.905 127.786 287.886 125.463 286.058C125.627 285.79 125.788 285.517 125.934 285.23C128.744 279.699 126.878 273.115 121.765 270.519C116.653 267.923 110.231 270.307 107.42 275.838C107.28 276.117 107.141 276.415 107.028 276.707C104.182 275.912 101.273 275.357 98.3339 275.049C98.352 274.741 98.3659 274.433 98.3603 274.121C98.2377 268.035 93.4098 263.521 87.577 264.041C81.7442 264.56 77.1142 269.916 77.2369 276.001C77.2369 276.32 77.2703 276.631 77.3024 276.94C74.3586 277.782 71.4841 278.849 68.7044 280.132C68.565 279.86 68.4326 279.59 68.2751 279.328C65.2535 274.315 58.7573 273.085 53.7677 276.579C48.7782 280.073 47.1837 286.964 50.2039 291.968C50.3587 292.226 50.5287 292.466 50.7001 292.702C48.4641 294.941 46.3949 297.341 44.5091 299.881C44.2611 299.726 44.0102 299.575 43.7454 299.44C38.6332 296.847 32.2108 299.228 29.3996 304.759C26.5885 310.29 28.4547 316.874 33.5669 319.47C33.8317 319.609 34.1021 319.717 34.3739 319.825C33.4346 322.846 32.7173 325.93 32.2275 329.055C31.9349 329.055 31.6408 329.055 31.3425 329.089C25.5083 329.608 20.8797 334.962 21.0024 341.051C21.125 347.139 25.9515 351.649 31.7843 351.13C32.0896 351.104 32.3878 351.055 32.6861 351.002C33.29 354 34.125 356.947 35.1837 359.817C34.9147 359.974 34.6485 360.136 34.3878 360.318C29.3969 363.812 27.801 370.707 30.824 375.718C33.8471 380.73 40.3419 381.96 45.3314 378.467C45.5879 378.288 45.8276 378.094 46.0659 377.899C48.0497 380.089 50.2144 382.108 52.5371 383.935C52.3726 384.203 52.2123 384.476 52.066 384.77C49.2562 390.301 51.1224 396.885 56.2346 399.481C61.3469 402.077 67.7692 399.693 70.5804 394.162C70.7197 393.876 70.8508 393.585 70.972 393.293C73.8188 394.088 76.7276 394.643 79.6675 394.951C79.6494 395.259 79.6355 395.568 79.6411 395.88C79.7637 401.965 84.5916 406.479 90.4244 405.959C96.2572 405.44 100.886 400.084 100.765 393.999C100.765 393.68 100.731 393.369 100.699 393.06C103.643 392.221 106.517 391.155 109.296 389.872C109.428 390.144 109.566 390.414 109.725 390.676C112.746 395.689 119.241 396.919 124.232 393.425C129.223 389.931 130.818 383.038 127.796 378.026C127.641 377.77 127.471 377.529 127.298 377.292C129.535 375.054 131.605 372.654 133.491 370.113C133.735 370.267 133.99 370.418 134.255 370.553ZM70.5232 371.361C51.9601 361.945 45.1851 338.032 55.39 317.95C65.595 297.867 88.915 289.221 107.477 298.637C126.039 308.054 132.815 331.967 122.61 352.049C112.405 372.131 89.085 380.778 70.5232 371.361Z" fill="#393D5F"/>
<path d="M71.7832 236.932C74.9796 238.546 78.9917 237.064 80.7484 233.622C82.505 230.18 81.339 226.079 78.144 224.465C77.9786 224.381 77.8091 224.312 77.6395 224.244C78.2269 222.364 78.6752 220.444 78.9806 218.498C79.1641 218.498 79.3475 218.498 79.5365 218.479C83.1818 218.155 86.0683 214.822 85.9988 211.033C85.9293 207.244 82.9038 204.434 79.2558 204.763C79.0654 204.78 78.8778 204.81 78.6916 204.843C78.3143 202.977 77.7925 201.142 77.1309 199.356C77.2991 199.259 77.4658 199.158 77.6284 199.045C80.747 196.87 81.7448 192.578 79.852 189.46C77.9592 186.341 73.9025 185.574 70.784 187.748C70.6242 187.86 70.4741 187.98 70.3254 188.102C69.0861 186.739 67.7333 185.482 66.2813 184.346C66.3841 184.177 66.4842 184.007 66.5759 183.83C68.3325 180.387 70.627 176.626 67.4097 175.062C59.9608 171.443 56.7644 174.541 55.0078 177.983C54.9175 178.161 54.8382 178.343 54.7632 178.525C52.984 178.029 51.1657 177.683 49.328 177.492C49.3405 177.301 49.3488 177.109 49.3446 176.915C49.2682 173.126 50.398 171.075 46.7389 171.005C38.7604 170.851 36.0672 174.298 36.1436 178.085C36.1436 178.283 36.1644 178.477 36.1839 178.669C34.3465 179.191 32.5522 179.852 30.8168 180.648C30.7334 180.479 30.6472 180.311 30.5485 180.147C28.6599 177.029 24.6005 176.263 21.4819 178.437C18.3634 180.611 17.3656 184.903 19.2584 188.022C19.3556 188.182 19.4613 188.331 19.5683 188.478C18.1695 189.875 16.875 191.371 15.6951 192.956C15.5408 192.859 15.3838 192.765 15.2184 192.679C12.022 191.065 8.0085 192.541 6.25188 195.99C4.49526 199.439 5.66263 203.532 8.85762 205.146C9.023 205.229 9.19116 205.3 9.36071 205.367C8.77347 207.247 8.32525 209.167 8.01962 211.112C7.83617 211.112 7.65273 211.112 7.46373 211.133C3.81846 211.456 0.925045 214.789 1.00148 218.578C1.07792 222.368 4.09502 225.175 7.74028 224.853C7.93067 224.835 8.1169 224.806 8.30312 224.772C8.68089 226.638 9.20266 228.472 9.86379 230.259C9.69702 230.357 9.53025 230.458 9.36627 230.571C6.24771 232.745 5.25128 237.038 7.1427 240.156C9.03412 243.274 15.2837 244.72 18.3995 242.55C18.5593 242.439 16.5164 241.636 16.6651 241.514C17.9054 242.876 19.2582 244.133 20.7092 245.27C20.6064 245.437 20.5063 245.607 20.416 245.786C18.6594 249.229 19.8254 253.328 23.0204 254.942C26.2154 256.556 30.2289 255.08 31.9855 251.631C32.0772 251.453 32.1551 251.272 32.2301 251.091C34.0097 251.586 35.8278 251.931 37.6653 252.124C37.6542 252.315 37.6445 252.507 37.6487 252.7C37.7251 256.49 40.7422 259.298 44.3875 258.975C48.0327 258.651 50.9192 255.318 50.8497 251.53C50.8497 251.331 50.8289 251.138 50.8094 250.945C52.6503 250.424 54.448 249.761 56.1863 248.964C56.2683 249.132 56.3558 249.3 56.4545 249.463C58.3431 252.583 62.4025 253.349 65.5211 251.175C68.6396 249.001 69.6361 244.709 67.7447 241.59C67.6488 241.43 67.5418 241.28 67.4347 241.132C68.8325 239.74 70.1256 238.247 71.3038 236.666C71.4608 236.758 71.6123 236.854 71.7832 236.932ZM31.9522 237.436C20.3521 231.574 16.1176 216.692 22.495 204.191C28.8725 191.689 43.4466 186.31 55.0481 192.17C66.6496 198.031 70.8827 212.914 64.5052 225.416C58.1277 237.917 43.5536 243.301 31.9522 237.44V237.436Z" fill="#2B2F4D"/>
<path d="M79.5343 218.714C83.1808 218.388 86.0683 215.025 85.9988 211.201C85.9293 207.378 82.9055 204.538 79.2562 204.87C79.0658 204.887 78.8781 204.918 78.6918 204.951C78.3144 203.068 77.7924 201.217 77.1306 199.414C77.2988 199.316 77.4656 199.215 77.6283 199.1C80.7479 196.905 84.6086 191.604 82.4064 188.668C78.2358 183.095 73.9053 185.507 70.7856 187.701C70.6257 187.814 70.4756 187.935 70.3268 188.058C69.0872 186.683 67.7338 185.415 66.2813 184.268C66.3842 184.098 66.4843 183.926 66.576 183.748C67.0296 182.868 67.2998 181.904 67.3701 180.916C67.4404 179.928 67.3093 178.936 66.9848 178C63.9708 183.324 61.0022 188.673 58.079 194.047C67.3365 200.857 70.2837 214.281 64.4977 225.723C59.5944 235.417 49.8461 240.861 40.3287 240.18C39.9033 241.285 39.4862 242.396 39.0316 243.49C37.7985 246.461 36.3972 249.37 35 252.281C35.8823 252.448 36.7684 252.579 37.6581 252.673C37.647 252.866 37.6372 253.06 37.6414 253.255C37.7179 257.078 40.0298 260.326 46.6389 259.974C50.2952 259.78 50.9236 255.896 50.8471 252.073C50.8471 251.873 50.8262 251.678 50.8068 251.484C52.6464 250.953 54.4423 250.28 56.1786 249.471C56.2606 249.641 56.3482 249.81 56.4469 249.974C58.3362 253.122 64.8897 254.459 68.0107 252.266C71.1318 250.072 69.6331 245.177 67.7438 242.03C67.6479 241.868 67.5408 241.718 67.4338 241.568C68.8321 240.163 70.1257 238.657 71.3042 237.061C71.4599 237.157 71.6156 237.254 71.7824 237.34C74.9799 238.969 78.9935 237.473 80.7507 234C82.5079 230.526 81.3415 226.389 78.1454 224.76C77.98 224.675 77.8104 224.606 77.6408 224.537C78.2282 222.64 78.6766 220.703 78.9823 218.741C79.1645 218.734 79.348 218.731 79.5343 218.714Z" fill="#2B2F4D"/>
<path d="M75.7811 237.786C78.9776 239.411 82.9914 237.925 84.7481 234.452C86.5048 230.979 85.3388 226.857 82.1436 225.232C81.9768 225.148 81.8087 225.077 81.6391 225.009C82.2264 223.116 82.6746 221.182 82.9803 219.224C83.1637 219.224 83.3472 219.224 83.5362 219.203C87.1816 218.877 90.0683 215.521 89.9988 211.705C89.9293 207.889 86.9065 205.061 83.261 205.387C83.0692 205.405 82.883 205.434 82.6968 205.468C82.319 203.589 81.7972 201.742 81.136 199.943C81.3042 199.844 81.4709 199.743 81.6336 199.628C84.7523 197.439 85.7488 193.117 83.8572 189.976C81.9657 186.836 77.9089 186.063 74.7902 188.252C74.6303 188.365 74.4802 188.486 74.3315 188.609C73.0915 187.237 71.7386 185.971 70.2872 184.826C70.3901 184.658 70.4901 184.487 70.5819 184.307C72.3372 180.839 71.1711 176.712 67.976 175.086C64.7808 173.461 60.7671 174.947 59.0104 178.42C58.9186 178.6 58.8408 178.782 58.7658 178.965C56.9861 178.466 55.1679 178.118 53.3302 177.925C53.3414 177.732 53.3511 177.539 53.3469 177.344C53.2705 173.528 50.2532 170.7 46.6078 171.026C42.9623 171.351 40.0757 174.708 40.1452 178.522C40.1452 178.723 40.166 178.917 40.1855 179.111C38.3459 179.637 36.5495 180.305 34.8125 181.108C34.7305 180.938 34.6444 180.77 34.5457 180.605C32.6569 177.464 28.5959 176.692 25.4772 178.881C22.3585 181.07 21.362 185.393 23.2535 188.533C23.3494 188.695 23.4565 188.845 23.5635 188.994C22.1657 190.397 20.8725 191.9 19.6943 193.493C19.5386 193.396 19.3829 193.3 19.2162 193.214C16.0196 191.589 12.0073 193.075 10.2506 196.548C8.49385 200.021 9.65989 204.143 12.855 205.768C13.0204 205.853 13.19 205.923 13.3595 205.991C12.7723 207.884 12.324 209.818 12.0184 211.776C11.8349 211.776 11.6515 211.776 11.4625 211.797C7.81701 212.123 4.9304 215.479 5.00128 219.295C5.07216 223.111 8.09359 225.939 11.739 225.613C11.9294 225.596 12.1171 225.566 12.3033 225.532C12.6806 227.412 13.2024 229.259 13.864 231.058C13.6959 231.156 13.5291 231.257 13.3665 231.372C10.2478 233.562 9.2499 237.883 11.1428 241.024C13.0357 244.164 17.0912 244.937 20.2099 242.748C20.3697 242.635 20.5198 242.514 20.6685 242.391C21.9078 243.764 23.2607 245.029 24.7128 246.174C24.61 246.344 24.5099 246.515 24.4182 246.693C22.6615 250.161 23.8289 254.288 27.0241 255.915C30.2192 257.542 34.233 256.047 35.9897 252.581C36.0814 252.401 36.1592 252.219 36.2343 252.035C38.0136 252.535 39.8319 252.883 41.6698 253.075C41.6587 253.268 41.649 253.461 41.6531 253.656C41.7296 257.472 44.7468 260.3 48.3923 259.974C52.0377 259.649 54.9243 256.292 54.8549 252.478C54.8549 252.279 54.834 252.084 54.8146 251.89C56.6536 251.363 58.4495 250.695 60.1861 249.892C60.2695 250.062 60.3557 250.232 60.4544 250.395C62.3431 253.536 66.4027 254.308 69.5228 252.119C72.6429 249.93 73.638 245.607 71.7465 242.467C71.6492 242.305 71.5436 242.155 71.4366 242.007C72.8344 240.604 74.1276 239.1 75.3058 237.507C75.4517 237.608 75.6088 237.702 75.7811 237.786ZM35.9494 238.293C24.3487 232.391 20.114 217.404 26.4918 204.814C32.8696 192.225 47.4444 186.808 59.0465 192.71C70.6486 198.612 74.8819 213.599 68.5041 226.188C62.1263 238.778 47.5445 244.195 35.9424 238.293H35.9494Z" fill="#393D5F"/>
</g>
<defs>
<linearGradient id="paint0_linear_2338_3408" x1="194.284" y1="349.985" x2="189.573" y2="385.657" gradientUnits="userSpaceOnUse">
<stop stop-color="#444B8C"/>
<stop offset="1" stop-color="#26264F"/>
</linearGradient>
<linearGradient id="paint1_linear_2338_3408" x1="191.261" y1="44.8082" x2="193.596" y2="47.7603" gradientUnits="userSpaceOnUse">
<stop stop-color="#FF9085"/>
<stop offset="1" stop-color="#FB6FBB"/>
</linearGradient>
<clipPath id="clip0_2338_3408">
<rect width="405" height="418" fill="white"/>
</clipPath>
</defs>
</svg>
