<svg width="22" height="28" viewBox="0 0 22 28" fill="none" xmlns="http://www.w3.org/2000/svg">
<path d="M0 11.2441C0 5.03405 4.92498 0 11 0C17.075 0 22 5.03405 22 11.2441C22 16.0945 15.2894 23.59 12.351 26.6396C11.6073 27.4115 10.3927 27.4115 9.64906 26.6396C6.71063 23.59 0 16.0944 0 11.2441ZM11 15.9843C13.6801 15.9843 15.8529 13.7632 15.8529 11.0236C15.8529 8.28403 13.6801 6.06299 11 6.06299C8.31988 6.06299 6.14706 8.28403 6.14706 11.0236C6.14706 13.7632 8.31988 15.9843 11 15.9843Z" fill="white"/>
</svg>
