<svg width="40" height="40" viewBox="0 0 40 40" fill="none" xmlns="http://www.w3.org/2000/svg">
<g clip-path="url(#clip0_2869_21621)">
<path d="M38.6414 25.3864H38.0587V5.09028C38.0587 3.90334 37.101 2.93764 35.9238 2.93764H23.9105V1.36984C23.9105 0.614528 23.301 0 22.5519 0H17.7775C17.0284 0 16.419 0.614528 16.419 1.36984V2.93764H12.3116C11.99 2.93764 11.7293 3.20045 11.7293 3.52475C11.7293 3.84904 11.99 4.11185 12.3116 4.11185H35.9239C36.4589 4.11185 36.8943 4.55075 36.8943 5.09036V25.3865H27.7241C27.4024 25.3865 27.1418 25.6493 27.1418 25.9736C27.1418 26.2979 27.4024 26.5607 27.7241 26.5607H38.6414C38.7485 26.5607 38.8355 26.6484 38.8355 26.7564V28.1285C38.8355 28.2365 38.7485 28.3242 38.6414 28.3242H7.58227C7.26065 28.3242 7 28.587 7 28.9113C7 29.2356 7.26065 29.4984 7.58227 29.4984H10.9659L9.0101 39.2971C8.9757 39.4696 9.01979 39.6487 9.13043 39.7848C9.241 39.9211 9.40634 40 9.58091 40H13.0738C13.351 40 13.5899 39.8029 13.6446 39.5288L14.2829 36.331H26.0828L26.721 39.5288C26.7758 39.8029 27.0146 40 27.2918 40H30.7847C30.9592 40 31.1246 39.921 31.2351 39.7848C31.3458 39.6487 31.3899 39.4697 31.3555 39.2971L29.3997 29.4984H38.6414C39.3905 29.4984 40 28.8839 40 28.1286V26.7565C40 26.0009 39.3905 25.3864 38.6414 25.3864ZM17.5834 1.36984C17.5834 1.26187 17.6704 1.17413 17.7775 1.17413H22.5519C22.659 1.17413 22.746 1.26187 22.746 1.36984V2.93764H17.5834V1.36984ZM24.7189 29.4982L25.3479 32.6493H15.0176L15.6466 29.4982H24.7189ZM12.597 38.8256H10.292L12.1538 29.4983H14.4588L12.597 38.8256ZM14.5172 35.1567L14.7833 33.8235H25.5822L25.8483 35.1567H14.5172ZM30.0735 38.8256H27.7684L25.9067 29.4983H28.2117L30.0735 38.8256Z" fill="#6667AB"/>
<path d="M4.9914 28.8064H1.37721C1.26866 28.8064 1.18046 28.7173 1.18046 28.6075V27.2127C1.18046 27.1029 1.26866 27.0138 1.37721 27.0138H25.4097C25.7358 27.0138 26 26.7466 26 26.4169C26 26.0873 25.7358 25.8201 25.4097 25.8201H3.14833V5.18833C3.14833 4.63988 3.5896 4.19364 4.13203 4.19364H9.78565C10.1117 4.19364 10.3759 3.92648 10.3759 3.59682C10.3759 3.26716 10.1117 3 9.78565 3H4.13211C2.93877 3 1.96788 3.98167 1.96788 5.18825V25.8201H1.37721C0.617838 25.8202 0 26.4449 0 27.2127V28.6075C0 29.3753 0.617838 30 1.37721 30H4.9914C5.31744 30 5.58167 29.7328 5.58167 29.4032C5.58167 29.0735 5.31744 28.8064 4.9914 28.8064Z" fill="#6667AB"/>
<path d="M14.8119 10.1881C14.5655 9.93273 14.1709 9.9381 13.9307 10.1998L11.9074 12.4031L11.0576 11.5256C10.8107 11.2707 10.4164 11.2767 10.1764 11.5387C9.93649 11.8007 9.94196 12.2197 10.1888 12.4745L11.4846 13.8127C11.6057 13.9377 11.7624 14 11.919 14C12.0811 14 12.243 13.9332 12.3652 13.8003L14.823 11.124C15.0633 10.8621 15.0583 10.4432 14.8119 10.1881Z" fill="#6667AB"/>
<path d="M17 11.5C17 9.01864 14.9813 7 12.5 7C10.0186 7 8 9.01872 8 11.5C8 13.9814 10.0187 16 12.5 16C14.9814 16 17 13.9814 17 11.5ZM12.5 14.7939C10.6838 14.7939 9.20609 13.3162 9.20609 11.5C9.20609 9.68376 10.6838 8.20609 12.5 8.20609C14.3162 8.20609 15.7939 9.68376 15.7939 11.5C15.7939 13.3162 14.3162 14.7939 12.5 14.7939Z" fill="#6667AB"/>
<path d="M13.8191 18.1809C13.5778 17.9397 13.1868 17.9397 12.9455 18.1809L12 19.1264L11.0544 18.1809C10.8132 17.9397 10.4221 17.9397 10.1809 18.1809C9.93971 18.4221 9.93971 18.8132 10.1809 19.0544L11.1264 20L10.1809 20.9455C9.93971 21.1868 9.93971 21.5779 10.1809 21.8191C10.3015 21.9397 10.4596 22 10.6176 22C10.7757 22 10.9338 21.9397 11.0544 21.8191L12 20.8735L12.9455 21.8191C13.0662 21.9397 13.2242 22 13.3823 22C13.5404 22 13.6984 21.9397 13.8191 21.8191C14.0602 21.5779 14.0602 21.1868 13.8191 20.9455L12.8735 20L13.8191 19.0544C14.0603 18.8132 14.0603 18.4222 13.8191 18.1809Z" fill="#6667AB"/>
<path d="M31.8191 18.1809C31.5778 17.9397 31.1868 17.9397 30.9455 18.1809L30 19.1264L29.0545 18.1809C28.8131 17.9397 28.4222 17.9397 28.1809 18.1809C27.9397 18.4221 27.9397 18.8132 28.1809 19.0544L29.1265 20L28.1809 20.9455C27.9397 21.1868 27.9397 21.5779 28.1809 21.8191C28.3016 21.9397 28.4596 22 28.6177 22C28.7757 22 28.9338 21.9397 29.0545 21.8191L30 20.8735L30.9455 21.8191C31.0662 21.9397 31.2243 22 31.3823 22C31.5404 22 31.6984 21.9397 31.8191 21.8191C32.0603 21.5779 32.0603 21.1868 31.8191 20.9455L30.8735 20L31.8191 19.0544C32.0603 18.8132 32.0603 18.4222 31.8191 18.1809Z" fill="#6667AB"/>
<path d="M19.1809 13.8191C19.3016 13.9397 19.4596 14 19.6177 14C19.7758 14 19.9338 13.9397 20.0545 13.8191L21 12.8735L21.9456 13.8191C22.0662 13.9397 22.2242 14 22.3824 14C22.5404 14 22.6985 13.9397 22.8191 13.8191C23.0603 13.5778 23.0603 13.1868 22.8191 12.9455L21.8736 12L22.8191 11.0544C23.0603 10.8132 23.0603 10.4221 22.8191 10.1808C22.5779 9.93976 22.1868 9.93976 21.9456 10.1808L21 11.1264L20.0545 10.1808C19.8132 9.93976 19.4222 9.93968 19.1809 10.1808C18.9398 10.4221 18.9398 10.8132 19.1809 11.0544L20.1265 12L19.1809 12.9455C18.9397 13.1868 18.9397 13.5778 19.1809 13.8191Z" fill="#6667AB"/>
<path d="M19 20.5C19 21.8786 20.1215 23 21.5 23C22.8786 23 24 21.8785 24 20.5C24 19.1216 22.8785 18 21.5 18C20.1216 18 19 19.1216 19 20.5ZM22.82 20.5C22.82 21.2279 22.2278 21.8201 21.5 21.8201C20.7721 21.8201 20.1799 21.2279 20.1799 20.5C20.1799 19.7722 20.7721 19.18 21.5 19.18C22.2278 19.18 22.82 19.7722 22.82 20.5Z" fill="#6667AB"/>
<path d="M18.0098 16.1189C17.9505 16.4396 18.1677 16.7467 18.4949 16.8048C18.5933 16.8223 19.6323 17 21.0777 17C23.0583 17 25.802 16.6661 27.9318 15.1282C29.6683 13.8742 30.699 12.0351 30.9955 9.66191C31.0359 9.33841 30.801 9.04397 30.471 9.00438C30.1419 8.96503 29.8407 9.195 29.8003 9.5185C29.546 11.5547 28.6784 13.1213 27.2216 14.1749C23.9601 16.5339 18.7613 15.6524 18.7091 15.6432C18.3825 15.5857 18.069 15.7982 18.0098 16.1189Z" fill="#6667AB"/>
</g>
<defs>
<clipPath id="clip0_2869_21621">
<rect width="40" height="40" fill="white"/>
</clipPath>
</defs>
</svg>
