<svg width="50" height="50" viewBox="0 0 50 50" fill="none" xmlns="http://www.w3.org/2000/svg">
<g clip-path="url(#clip0_2755_2360)">
<path d="M49.999 21.7075C49.9991 21.5065 49.9395 21.3036 49.8131 21.1286C49.7693 21.0681 49.7196 21.0146 49.666 20.9673C49.6662 20.9672 49.6663 20.9671 49.6665 20.9669L46.2963 17.9937C47.0225 17.4042 47.4883 16.5015 47.4883 15.4907V13.8753C47.4883 9.53285 43.9836 6 39.6758 6C35.368 6 31.8633 9.53285 31.8633 13.8753C31.8633 18.2177 35.368 21.7506 39.6758 21.7506C40.2151 21.7506 40.6523 21.3098 40.6523 20.7662C40.6523 20.2225 40.2151 19.7817 39.6758 19.7817C36.4449 19.7817 33.8164 17.1321 33.8164 13.8753C33.8164 10.6185 36.4449 7.96882 39.6758 7.96882C42.9066 7.96882 45.5352 10.6185 45.5352 13.8753V15.4907C45.5352 16.1768 44.9814 16.735 44.3007 16.735C43.62 16.735 43.0663 16.1768 43.0663 15.4907V14.1304V11.3003C43.0663 11.0296 42.9558 10.7708 42.7606 10.5849C41.9229 9.78663 40.8274 9.347 39.6758 9.347C37.1988 9.347 35.1836 11.3784 35.1836 13.8753C35.1836 16.3721 37.1988 18.4036 39.6758 18.4036C40.5139 18.4036 41.3218 18.1697 42.0228 17.7352C42.5832 18.313 43.3573 18.6786 44.215 18.7017C44.2675 18.794 44.3349 18.8796 44.4188 18.9537L47.4602 21.6368L39.6484 27.3655V24.7992C39.6484 24.2555 39.2112 23.8148 38.6719 23.8148C38.1325 23.8148 37.6953 24.2555 37.6953 24.7992V28.7979L30.4049 34.1443L25.5745 30.602C25.232 30.3508 24.768 30.3508 24.4255 30.602L19.5951 34.1443L2.58223 21.6678L8.13916 16.7655C8.54502 16.4075 8.58603 15.7855 8.23086 15.3764C7.87559 14.9673 7.25869 14.9259 6.85283 15.284L0.360156 20.9442C0.359766 20.9446 0.359375 20.9449 0.358984 20.9453C0.139941 21.1259 0 21.4002 0 21.7076V49.0156C0 49.5593 0.437207 50 0.976562 50H49.0234C49.5628 50 50 49.5593 50 49.0156V21.7076C49.9997 21.7076 49.9993 21.7075 49.999 21.7075ZM41.1133 14.1305V15.4908V15.9845C40.6926 16.277 40.1941 16.4348 39.6759 16.4348C38.2759 16.4348 37.1368 15.2865 37.1368 13.8753C37.1368 12.464 38.2759 11.3158 39.6759 11.3158C40.1942 11.3158 40.6926 11.4736 41.1133 11.7661V14.1305ZM1.95312 23.6411L17.9352 35.3616L1.95312 47.0821V23.6411ZM3.97891 48.0312L25 32.6153L46.0211 48.0312H3.97891ZM48.0469 47.0821L32.0648 35.3616L48.0469 23.6411V47.0821Z" fill="#6667AB"/>
<path d="M32.6619 6.45958L25.3348 0.234112C24.9626 -0.0822528 24.4172 -0.0734141 24.055 0.23296C24.0547 0.232671 24.0546 0.232479 24.0543 0.232191L20.5278 3.21042C20.1179 3.55667 20.0718 4.16327 20.4248 4.56533C20.6185 4.78601 20.8921 4.89918 21.1675 4.89918C21.3939 4.89918 21.6213 4.8227 21.8063 4.66649L24.6917 2.22962L29.4201 6.24716H10.9796C10.4385 6.24716 10 6.67728 10 7.20789V21.0393C10 21.5699 10.4385 22 10.9796 22C11.5206 22 11.9591 21.5699 11.9591 21.0393V8.1687H32.0204C32.0172 8.16073 32.0148 8.15381 32.0116 8.14603C32.0144 8.14603 32.0172 8.14641 32.02 8.14641C32.2942 8.14641 32.567 8.03401 32.7608 7.81477C33.115 7.41377 33.0707 6.80698 32.6619 6.45958Z" fill="#6667AB"/>
<path d="M24.9998 16H15.0002C14.4478 16 14 16.4477 14 17C14 17.5523 14.4478 18 15.0002 18H24.9998C25.5522 18 26 17.5523 26 17C26 16.4477 25.5522 16 24.9998 16Z" fill="#6667AB"/>
<path d="M24.9881 11H15.0119C14.453 11 14 11.4477 14 12C14 12.5523 14.453 13 15.0119 13H24.9881C25.547 13 26 12.5523 26 12C26 11.4477 25.547 11 24.9881 11Z" fill="#6667AB"/>
<path d="M11.707 24.293C11.521 24.107 11.263 24 11 24C10.737 24 10.479 24.107 10.293 24.293C10.107 24.479 10 24.737 10 25C10 25.264 10.107 25.521 10.293 25.707C10.479 25.8941 10.737 26 11 26C11.263 26 11.521 25.894 11.707 25.707C11.893 25.521 12 25.264 12 25C12 24.737 11.893 24.479 11.707 24.293Z" fill="#6667AB"/>
<path d="M31.9896 21H30.0104C29.4523 21 29 21.4477 29 22C29 22.5523 29.4523 23 30.0104 23H31.9896C32.5477 23 33 22.5523 33 22C33 21.4477 32.5477 21 31.9896 21Z" fill="#6667AB"/>
<path d="M25.0055 21H24.9945C24.4452 21 24 21.4477 24 22C24 22.5523 24.4452 23 24.9945 23H25.0055C25.5546 23 26 22.5523 26 22C26 21.4477 25.5547 21 25.0055 21Z" fill="#6667AB"/>
<path d="M20.0621 21H14.9379C14.4199 21 14 21.4477 14 22C14 22.5523 14.4199 23 14.9379 23H20.0621C20.5801 23 21 22.5523 21 22C21 21.4477 20.5801 21 20.0621 21Z" fill="#6667AB"/>
</g>
<defs>
<clipPath id="clip0_2755_2360">
<rect width="50" height="50" fill="white"/>
</clipPath>
</defs>
</svg>
