<svg width="50" height="50" viewBox="0 0 50 50" fill="none" xmlns="http://www.w3.org/2000/svg">
<path d="M40.1519 29.0876L34.737 27L28.5259 42.4964L27.2519 33.7445H28.0481L29.2426 31.3358L28.0481 28.927H23.1111L21.9167 31.3358L23.1111 33.7445H23.9074L22.6333 42.7372L16.5019 27.4015L10.9278 29.1679C6.78704 30.6131 4 34.5474 4 38.8832V49H47V38.8832C47 34.5474 44.213 30.6131 40.1519 29.0876ZM23.987 32.1387L23.5889 31.3358L23.987 30.5328H27.013L27.4111 31.3358L27.013 32.1387H23.987ZM5.59259 47.3942V38.8832C5.59259 35.1898 7.90185 31.8175 11.4056 30.6131L15.5463 29.3285L22.713 47.3942H5.59259ZM24.4648 47.3942L23.7481 45.708L25.4204 33.7445H25.6593L27.4111 45.4672L26.6148 47.3942H24.4648ZM45.4074 47.3942H28.287L35.613 29.0876L39.5944 30.6131C43.0981 31.8978 45.4074 35.1898 45.4074 38.9635V47.3942Z" fill="#6667AB"/>
<path d="M12.4141 15.84C12.4141 18 14.4826 17.6 14.4826 17.6C16.2329 22.72 20.2904 28 25.4617 28C30.6329 28 34.6904 22.72 36.4407 17.6C37.5545 17.44 38.4297 16.64 38.5092 15.52L38.9866 13.04C39.0661 12.4 38.8274 10.96 37.3158 10.48C36.8385 6.8 33.3379 0 25.4617 0C19.4152 0 14.4826 4.48 13.687 10.48C12.0959 11.04 11.9368 12.4 12.0163 13.12C11.9368 13.12 12.4141 15.68 12.4141 15.84ZM25.4617 1.6C28.9622 1.6 31.9854 3.36 33.8948 6.08L28.2462 3.36C28.2462 3.36 26.2572 8.8 20.529 8.8H15.5964C17.0285 4.56 20.9268 1.6 25.4617 1.6ZM14.4031 12H15.1191C15.1191 12 15.2782 10.72 15.2782 10.4H20.6086C24.1092 10.4 27.2915 8.48 29.0418 5.44L35.1678 8.4C35.8042 10.08 35.8838 12 35.8838 12H36.6794C37.3158 12.08 37.475 12.64 37.475 12.8L36.9976 15.28C36.918 15.68 36.5998 16 36.202 16H35.3269L35.1678 16.56C33.6562 21.44 29.9169 26.4 25.5412 26.4C21.1655 26.4 17.4263 21.44 15.9147 16.56L15.7556 16H14.1644C14.1644 15.92 14.0053 14.24 13.687 12.88C13.4484 12.64 13.6075 12 14.4031 12Z" fill="#6667AB"/>
</svg>
