<svg width="50" height="50" viewBox="0 0 50 50" fill="none" xmlns="http://www.w3.org/2000/svg">
<g clip-path="url(#clip0_2755_2343)">
<path d="M31.5 39C30.674 39 30 38.326 30 37.5C30 36.674 30.674 36 31.5 36C32.326 36 33 36.674 33 37.5C33 38.326 32.326 39 31.5 39Z" fill="#6667AB"/>
<path d="M41.5 39C40.674 39 40 38.326 40 37.5C40 36.674 40.674 36 41.5 36C42.326 36 43 36.674 43 37.5C43 38.326 42.326 39 41.5 39Z" fill="#6667AB"/>
<path d="M36 46C34.6627 46 33.3213 45.5362 32.3028 44.6086C31.8991 44.241 31.8991 43.6434 32.3028 43.2757C32.7064 42.9081 33.3627 42.9081 33.7663 43.2757C35.0001 44.3994 36.9999 44.3994 38.2337 43.2757C38.6373 42.9081 39.2936 42.9081 39.6972 43.2757C40.1009 43.6434 40.1009 44.241 39.6972 44.6086C38.6787 45.5362 37.3373 46 36 46Z" fill="#6667AB"/>
<path d="M24.039 35.9994C23.7212 35.9994 23.4055 35.8593 23.2041 35.5952C22.8634 35.1511 22.959 34.529 23.418 34.2009C23.6007 34.0708 27.9705 31 36.5128 31C45.055 31 49.404 34.0708 49.5847 34.2009C50.0437 34.533 50.1351 35.1571 49.7945 35.5972C49.4559 36.0414 48.8038 36.1294 48.3427 35.8053C48.3012 35.7753 44.3052 33.0005 36.5107 33.0005C28.714 33.0005 24.6953 35.7773 24.6537 35.8053C24.4689 35.9373 24.2529 35.9994 24.039 35.9994Z" fill="#6667AB"/>
<path d="M36.5115 50C33.1076 50 30.2703 48.8432 28.0747 46.5629C25.5228 43.9143 24 39.7698 24 35.4859C24 35.3985 24.0104 35.3132 24.0312 35.232L25.5395 28.4223C25.9728 26.4686 27.5122 24.9186 29.4641 24.4754L35.3491 23.1293C36.1115 22.9545 36.9177 22.9587 37.6801 23.1313L43.538 24.4754C45.4899 24.9227 47.0293 26.4728 47.4585 28.4223L48.975 35.2632C48.9917 35.3381 49 35.413 49 35.4879V35.8021C49 38.9792 47.9355 43.4753 44.9503 46.565C42.7443 48.8432 39.9049 50 36.5115 50ZM26.0832 35.594C26.1123 38.5131 27.0414 42.4849 29.5766 45.1189C31.364 46.9769 33.695 47.9194 36.5115 47.9194C39.3196 47.9194 41.6527 46.9769 43.4505 45.1148C46.0065 42.4725 46.9148 38.5693 46.9148 35.7979V35.5961L45.4232 28.8654C45.1649 27.6941 44.2442 26.764 43.0713 26.4957L37.2114 25.1516C36.751 25.0455 36.2719 25.0434 35.8115 25.1495L29.9266 26.4957C28.7559 26.762 27.833 27.692 27.5726 28.8654L26.0832 35.594Z" fill="#6667AB"/>
<path d="M21.0478 22C20.6642 22 20.2952 21.7871 20.1107 21.424C19.8528 20.9085 20.0604 20.2823 20.5782 20.0235L40.4822 10.1099C40.8071 9.94712 41.1929 9.96799 41.501 10.1537C41.8113 10.3458 42 10.6818 42 11.0428V19.9129C42 20.489 41.5304 20.9565 40.9518 20.9565C40.3731 20.9565 39.9035 20.489 39.9035 19.9129V12.7334L21.5153 21.8915C21.3665 21.9645 21.2051 22 21.0478 22Z" fill="#6667AB"/>
<path d="M19.9043 42C19.7303 42 19.5563 41.9559 19.3949 41.8678L0.538805 31.376C0.207555 31.1913 0 30.8409 0 30.459V11.0492C0 10.6862 0.188686 10.3483 0.496874 10.1553C0.802966 9.96643 1.19082 9.94754 1.51578 10.1112L21.4201 20.0784C21.9379 20.3386 22.1476 20.9681 21.8897 21.4864C21.6298 22.0047 20.9966 22.2167 20.483 21.9565L2.09652 12.7489V29.8421L20.4138 40.0338C20.919 40.315 21.1014 40.9529 20.8184 41.4607C20.6297 41.8049 20.2712 42 19.9043 42Z" fill="#6667AB"/>
<path d="M40.9508 11.9999C40.7933 11.9999 40.6337 11.9644 40.4804 11.8892L20.9876 2.20921L1.52004 11.8892C1.00552 12.1481 0.371302 11.9373 0.110894 11.4238C-0.147414 10.9083 0.0604923 10.2822 0.579208 10.0234L20.5172 0.109574C20.8133 -0.0365245 21.1619 -0.0365245 21.4559 0.109574L41.4191 10.0234C41.9378 10.2801 42.1478 10.9083 41.8895 11.4238C41.7047 11.787 41.3351 11.9999 40.9508 11.9999Z" fill="#6667AB"/>
<path d="M10.0483 25C9.46962 25 9 24.5268 9 23.9438V16.09C9 15.6908 9.22433 15.3253 9.57864 15.1458L29.483 5.11204C29.9966 4.8501 30.6298 5.06345 30.8897 5.58521C31.1476 6.10697 30.9379 6.74068 30.4201 7.00261L11.0965 16.7427V23.9438C11.0965 24.5289 10.6269 25 10.0483 25Z" fill="#6667AB"/>
</g>
<defs>
<clipPath id="clip0_2755_2343">
<rect width="50" height="50" fill="white"/>
</clipPath>
</defs>
</svg>
