<svg width="35" height="35" viewBox="0 0 35 35" fill="none" xmlns="http://www.w3.org/2000/svg">
<rect width="35" height="35" rx="17.5" fill="#7D519D"/>
<path d="M25.6935 23.4101L21.5608 20.7978C21.109 20.5119 20.571 20.415 20.0445 20.521C19.5173 20.629 19.0641 20.932 18.7703 21.3737L18.5759 21.6642C16.7873 21.089 14.8151 20.3541 13.6343 17.0279L14.1232 16.6143C14.9623 15.9043 15.0504 14.6623 14.3208 13.8443L11.0878 10.2249C10.8444 9.95202 10.4194 9.92388 10.139 10.1601L8.109 11.8772C6.32842 13.3836 7.16021 15.6118 7.43389 16.3441C7.44599 16.3768 7.46078 16.4082 7.47827 16.439C7.54887 16.562 9.23464 19.4897 11.9573 22.1884C14.6907 24.8982 19.6256 27.4006 19.7769 27.4732C20.3404 27.8292 20.9745 28 21.6018 28C22.7033 28 23.7832 27.4745 24.4274 26.5113L25.8919 24.3165C26.0936 24.0122 26.0049 23.6071 25.6935 23.4101ZM23.299 25.798C22.6932 26.7063 21.4411 26.9641 20.4527 26.3438C20.4036 26.3189 15.5009 23.8342 12.9168 21.2723C10.5015 18.8779 8.89775 16.2178 8.67922 15.8467C8.14666 14.3933 8.2408 13.5001 8.99122 12.8653L10.5143 11.5775L13.3062 14.7029C13.5543 14.9803 13.5254 15.386 13.2416 15.6262L12.4165 16.3238C12.2155 16.4939 12.1361 16.7629 12.2148 17.0102C13.6215 21.4588 16.3569 22.3324 18.354 22.9704L18.6452 23.064C18.9364 23.1595 19.2551 23.0502 19.4218 22.8002L19.8986 22.0857C19.9968 21.9378 20.1474 21.8376 20.3222 21.8017C20.4977 21.765 20.6766 21.799 20.8286 21.8952L24.3978 24.1509L23.299 25.798Z" fill="white"/>
<path d="M17.881 14.027C17.5132 13.9214 17.1309 14.1347 17.0265 14.5019C16.9221 14.8684 17.1351 15.2501 17.5021 15.3543C18.5322 15.647 19.3528 16.4677 19.6431 17.4968C19.7288 17.8005 20.006 18 20.3081 18C20.3704 18 20.4333 17.9917 20.4962 17.9745C20.8633 17.8709 21.0776 17.4899 20.9739 17.1227C20.5543 15.636 19.3687 14.4495 17.881 14.027Z" fill="white"/>
<path d="M23.2994 18C23.3624 18 23.4261 17.9916 23.4898 17.9741C23.8622 17.8693 24.0785 17.483 23.9735 17.112C23.1475 14.1894 20.8173 11.8587 17.8913 11.0273C17.5197 10.9204 17.1326 11.1376 17.0269 11.5086C16.9212 11.8796 17.1368 12.266 17.5085 12.3715C19.9703 13.0702 21.9309 15.0327 22.626 17.4914C22.7135 17.7988 22.9935 18 23.2994 18Z" fill="white"/>
<path d="M17.8452 8.02592C17.4924 7.92465 17.1256 8.12917 17.0255 8.48196C16.9253 8.83343 17.1296 9.19946 17.4818 9.2994C21.4341 10.4213 24.5826 13.5706 25.6982 17.5175C25.7804 17.8087 26.0464 18 26.3362 18C26.3959 18 26.4563 17.9921 26.5166 17.9755C26.8688 17.8762 27.0744 17.5102 26.9749 17.1587C25.7353 12.7724 22.2373 9.27359 17.8452 8.02592Z" fill="white"/>
</svg>
