<svg width="229" height="224" viewBox="0 0 229 224" fill="none" xmlns="http://www.w3.org/2000/svg">
<path d="M114.5 224C171.385 224 217.5 192.66 217.5 154C217.5 115.34 171.385 84 114.5 84C57.6147 84 11.5 115.34 11.5 154C11.5 192.66 57.6147 224 114.5 224Z" fill="#F5F5F5"/>
<path d="M57 172C71.6356 172 83.5 165.06 83.5 156.5C83.5 147.94 71.6356 141 57 141C42.3645 141 30.5 147.94 30.5 156.5C30.5 165.06 42.3645 172 57 172Z" fill="#E0E0E0"/>
<path d="M58.9604 93.206C59.2228 92.588 59.8968 92.1399 60.9156 92.0163C62.0385 91.9401 63.1636 92.1314 64.1984 92.5746C65.2332 93.0177 66.1483 93.7001 66.8687 94.5657C67.4861 95.3846 67.6353 96.1829 67.3832 96.801L50.4295 141.155C50.1054 142.093 49.1483 142.767 47.6511 142.953C44.8006 143.298 41.0908 141.717 39.3672 139.42C38.4616 138.214 38.2918 137.051 38.7343 136.17L58.9604 93.206Z" fill="#455A64"/>
<path d="M66.8489 94.551C68.1363 96.198 67.455 97.7367 65.3308 97.9845C64.1663 98.0584 63.0001 97.8674 61.9265 97.427C60.853 96.9866 59.9022 96.3091 59.1511 95.4494C57.8637 93.8023 58.545 92.2637 60.6692 92.0158C61.8338 91.9411 63.0003 92.1317 64.074 92.5722C65.1477 93.0127 66.0984 93.6906 66.8489 94.551Z" fill="#37474F"/>
<path d="M67.4196 80.0095C68.1179 79.965 68.8176 80.0775 69.4609 80.3379C70.1043 80.5982 70.6731 80.999 71.1206 81.5072C71.2918 81.679 71.411 81.8909 71.4659 82.121C71.5208 82.3511 71.5093 82.5908 71.4326 82.8153L65.7964 95.2964C65.678 95.5043 65.5028 95.6783 65.2889 95.8004C65.0749 95.9225 64.8302 95.9881 64.5803 95.9903C63.8819 96.0353 63.1821 95.9229 62.5387 95.6625C61.8952 95.4021 61.3265 95.0012 60.8792 94.4926C60.7081 94.3198 60.5889 94.107 60.5341 93.8762C60.4793 93.6453 60.4907 93.4049 60.5673 93.1796L66.2035 80.6985C66.3234 80.4922 66.4992 80.3197 66.7128 80.1986C66.9265 80.0776 67.1704 80.0123 67.4196 80.0095Z" fill="#6667AB"/>
<path opacity="0.2" d="M67.4196 80.0095C68.1179 79.965 68.8176 80.0775 69.4609 80.3379C70.1043 80.5982 70.6731 80.999 71.1206 81.5072C71.2918 81.679 71.411 81.8909 71.4659 82.121C71.5208 82.3511 71.5093 82.5908 71.4326 82.8153L65.7964 95.2964C65.678 95.5043 65.5028 95.6783 65.2889 95.8004C65.0749 95.9225 64.8302 95.9881 64.5803 95.9903C63.8819 96.0353 63.1821 95.9229 62.5387 95.6625C61.8952 95.4021 61.3265 95.0012 60.8792 94.4926C60.7081 94.3198 60.5889 94.107 60.5341 93.8762C60.4793 93.6453 60.4907 93.4049 60.5673 93.1796L66.2035 80.6985C66.3234 80.4922 66.4992 80.3197 66.7128 80.1986C66.9265 80.0776 67.1704 80.0123 67.4196 80.0095Z" fill="black"/>
<path opacity="0.2" d="M63.5 86.9433L63.8974 87.1754L63.9564 87.2132L64.0316 87.2564L64.1175 87.2996C64.3697 87.4502 64.6296 87.5871 64.8962 87.7099C65.2175 87.8733 65.5474 88.0193 65.8843 88.1471C66.1807 88.2764 66.4836 88.3899 66.7918 88.4872C66.9481 88.5439 67.1077 88.5907 67.2697 88.6275C67.4443 88.6941 67.6239 88.7464 67.8067 88.7841C67.9893 88.8381 68.1558 88.8812 68.3437 88.919C68.4721 88.9563 68.6032 88.9834 68.7358 89H68.87L71.4315 82.9541C71.5094 82.7114 71.5211 82.4522 71.4654 82.2034C71.4096 81.9547 71.2885 81.7255 71.1147 81.5398C70.9588 81.338 70.7784 81.1567 70.5777 81C68.9789 81.4923 67.324 81.7771 65.6534 81.8475L63.5 86.9433Z" fill="black"/>
<path opacity="0.15" d="M63.5123 98.0262L45.5 142.892C46.2017 143.008 46.916 143.031 47.6237 142.959C49.1346 142.774 50.1004 142.102 50.4275 141.168L67.5 97C67.2352 97.6209 66.555 98.057 65.5269 98.1801C64.8514 98.2422 64.1701 98.1901 63.5123 98.0262Z" fill="black"/>
<path d="M119.482 26.9662C119.482 26.5967 119.451 26.2323 119.42 25.868C119.39 25.5036 119.379 25.1547 119.343 24.8006C119.343 24.5594 119.297 24.3234 119.266 24.0873C119.204 23.4715 119.117 22.8608 119.014 22.281C118.968 22.0141 118.922 21.7678 118.87 21.4804C118.819 21.193 118.767 20.9672 118.711 20.7363C118.557 20.0641 118.392 19.4072 118.197 18.776C118.099 18.4784 118.006 18.1808 117.904 17.8882C117.885 17.8436 117.871 17.7972 117.862 17.7497C117.755 17.4572 117.652 17.1801 117.539 16.9081C117.425 16.6361 117.287 16.2666 117.143 15.969C116.999 15.6714 116.942 15.5225 116.824 15.307C116.758 15.1437 116.678 14.9859 116.587 14.8349C116.495 14.645 116.397 14.45 116.284 14.2653C116.263 14.2225 116.239 14.1814 116.212 14.1421C116.119 13.9779 116.022 13.8137 115.924 13.629C115.826 13.4442 115.785 13.4186 115.724 13.3159C115.256 12.5898 114.73 11.9033 114.15 11.2633L113.862 10.9348C113.78 10.8425 113.698 10.7604 113.616 10.6783C113.533 10.5961 113.41 10.4679 113.297 10.3601C113 10.0574 112.684 9.77455 112.351 9.51336C112.196 9.37994 112.032 9.25165 111.867 9.13362C111.703 9.01559 111.538 8.8873 111.353 8.76927C111.086 8.5794 110.813 8.39979 110.541 8.2561L110.325 8.12268L110.279 8.08676L105.188 5.09499L105.116 5.05394C102.64 3.67355 99.8443 2.96577 97.0082 3.00127C92.7818 3.00127 88.0104 4.38169 82.9511 7.29135C65.5828 17.293 51.5 41.612 51.5 61.6255C51.5 71.6066 55.0014 78.6318 60.652 81.9212H60.7086L65.809 84.9027L65.8656 84.9386L65.9376 84.9797C65.9684 84.9797 65.9941 85.0105 66.0198 85.0208C66.2612 85.1639 66.5101 85.2941 66.7654 85.4108C67.0739 85.5647 67.3927 85.7033 67.7166 85.8264C67.9974 85.9507 68.286 86.057 68.5804 86.1446C68.7291 86.2025 68.8821 86.2488 69.038 86.2831C69.2051 86.3464 69.377 86.3962 69.5521 86.432C69.7269 86.4833 69.8863 86.5243 70.0663 86.5603C70.1898 86.5933 70.3151 86.619 70.4416 86.6372C70.6627 86.6834 70.8941 86.7296 71.1255 86.7553C71.176 86.7759 71.2302 86.7863 71.2848 86.786C71.5522 86.8271 71.8298 86.8682 72.0972 86.8938C76.7812 87.407 82.2261 86.0676 88.0361 82.7115C105.41 72.7048 119.492 48.355 119.492 28.3466C119.508 27.9155 119.498 27.4434 119.482 26.9662ZM62.1739 74.1775C61.4514 71.5009 61.0951 68.7389 61.1148 65.9669C61.1148 46.9797 74.9971 22.9583 91.4758 13.475C93.882 12.054 96.479 10.9826 99.1882 10.2934C100.485 9.96702 101.815 9.79477 103.152 9.78021C103.826 9.77705 104.498 9.82853 105.163 9.93416H105.219C108.587 13.9112 109.081 20.2847 109.081 23.687C109.081 42.6742 95.1984 66.6956 78.7453 76.1738C74.56 78.5856 70.5187 79.8634 67.079 79.8634C66.3622 79.8679 65.648 79.7764 64.9555 79.5914C63.6698 78.0016 62.7232 76.1663 62.1739 74.1981V74.1775Z" fill="#37474F"/>
<path opacity="0.25" d="M114.5 26.976C114.5 37.0194 110.58 48.4903 104.439 58.4569C104.152 58.9327 103.854 59.3983 103.55 59.8639C103.247 60.3295 103.037 60.662 102.764 61.0611C102.184 61.9155 101.603 62.7546 100.992 63.5784C100.704 63.974 100.411 64.3629 100.113 64.7449C99.7893 65.1695 99.4604 65.5891 99.1316 66.0035C98.4996 66.7965 97.8419 67.5691 97.1791 68.3212C96.7423 68.8328 96.2953 69.3189 95.8483 69.7947C92.4466 73.5209 88.5091 76.7245 84.164 79.3009C83.3778 79.7562 82.6225 80.1656 81.8312 80.539C79.3306 81.8094 76.6206 82.6205 73.831 82.9335C73.3923 82.978 72.9515 83.0002 72.5105 83C72.2793 83 72.0635 83 71.8425 83C71.424 82.9841 71.0069 82.9414 70.5939 82.8721C70.3935 82.8414 70.1931 82.8107 70.003 82.7646C69.8129 82.7186 69.6177 82.6828 69.4275 82.6265C67.4803 82.1325 65.7494 81.0164 64.5 79.4493C65.1905 79.6319 65.9025 79.7214 66.6169 79.7153C70.0698 79.7153 74.0931 78.4516 78.2807 76.0469C94.723 66.597 108.596 42.6218 108.596 23.7118C108.596 20.3146 108.082 13.9907 104.732 10H104.681C108.971 10.6856 111.407 13.5814 112.784 16.9429C113.173 17.8941 113.485 18.8743 113.719 19.8745C113.719 19.9308 113.745 19.982 113.755 20.0383C113.801 20.2173 113.847 20.4015 113.878 20.5857C113.909 20.7699 113.95 20.9387 113.981 21.0974C113.984 21.1433 113.984 21.1895 113.981 21.2355C114.017 21.4248 114.053 21.6141 114.084 21.7983C114.192 22.4992 114.279 23.1797 114.336 23.8448C114.336 24.0393 114.372 24.2183 114.382 24.3974C114.392 24.5765 114.382 24.6737 114.413 24.8067C114.413 24.863 114.413 24.9193 114.413 24.9755C114.413 25.1239 114.413 25.2672 114.438 25.4104C114.441 25.4496 114.441 25.4889 114.438 25.5281C114.438 25.7123 114.438 25.8828 114.438 26.0397C114.5 26.3467 114.5 26.6537 114.5 26.976Z" fill="black"/>
<path d="M65.5 85L60.7365 82.2162C55.0285 78.9015 51.5 71.8492 51.5 61.8379C51.5 52.873 54.328 43.0422 59.0085 34L64.4362 37.0931C59.7661 46.1146 56.6527 55.8373 56.6527 64.8072C56.6423 74.633 60.0048 81.5924 65.5 85Z" fill="#263238"/>
<path d="M110.251 8.0724L110.205 8.03683L105.077 5.07954L105.005 5.03381C102.511 3.66632 99.6941 2.96544 96.8371 3.00131C92.5797 3.00131 87.7733 4.36817 82.6769 7.24924C72.9813 12.7421 64.306 22.5997 58.5 33.6718L63.8916 36.7815L63.7725 37C69.5992 26.055 78.2331 16.1668 87.8251 10.2167C96.5056 4.85089 104.746 4.77467 110.5 8.18419L110.251 8.0724Z" fill="#455A64"/>
<path opacity="0.1" d="M111.499 25.6713C111.499 44.7062 97.6563 68.7879 81.2242 78.2951C78.8259 79.7219 76.236 80.796 73.5336 81.4847C72.2408 81.8119 70.914 81.9846 69.5807 81.9992C68.212 82.0157 66.8516 81.7821 65.5663 81.3098C63.5155 79.5915 62.2952 77.1118 61.5569 74.5601C60.8364 71.8767 60.4811 69.1078 60.5008 66.3288C60.5008 47.2939 74.3437 23.2122 90.7758 13.705C93.1752 12.2804 95.7648 11.2064 98.4663 10.5154C99.7592 10.1882 101.086 10.0155 102.419 10.0009C103.788 9.98332 105.148 10.2152 106.434 10.6852C108.485 12.3983 109.705 14.8883 110.443 17.4348C111.164 20.1199 111.519 22.8906 111.499 25.6713Z" fill="#6667AB"/>
<path opacity="0.3" d="M69.8425 81.9998C71.1992 81.9852 72.5495 81.8121 73.8651 81.4841C76.615 80.7938 79.2505 79.7171 81.691 78.2869C98.3864 68.757 112.499 44.5972 112.499 25.5376C112.519 22.7519 112.158 19.9764 111.424 17.2866C110.673 14.7391 109.426 12.2484 107.36 10.5312L107.162 10.4641C106.979 10.3971 106.797 10.3404 106.604 10.2836L106.275 10.196C106.087 10.1444 105.889 10.1083 105.696 10.067L105.352 10H105.315H105.352C108.774 13.9966 109.275 20.3962 109.275 23.8203C109.275 42.9006 95.1882 67.045 78.4928 76.5697C74.2407 78.9934 70.1451 80.2671 66.6495 80.2671C65.9241 80.2732 65.2011 80.183 64.5 79.9989L64.5313 80.0402C64.913 80.4931 65.3336 80.9124 65.7887 81.2933C67.0858 81.7683 68.4592 82.0077 69.8425 81.9998Z" fill="white"/>
<path d="M150.227 35.017L126.773 48.7257C125.517 49.4561 124.5 48.6784 124.5 46.9812V26.384C124.5 24.6869 125.538 22.7059 126.773 21.9808L150.227 8.27739C151.483 7.54178 152.5 8.31943 152.5 10.0166V30.6191C152.49 32.3215 151.483 34.2814 150.227 35.017Z" fill="#FAFAFA"/>
<path d="M126.091 49C125.848 49.0021 125.608 48.9376 125.397 48.8131C124.826 48.4809 124.5 47.7334 124.5 46.7368V26.4096C124.5 24.6551 125.561 22.6099 126.856 21.8469L149.899 8.3041C150.146 8.12876 150.435 8.02502 150.735 8.00399C151.035 7.98295 151.335 8.04542 151.603 8.18471C152.174 8.52211 152.5 9.26958 152.5 10.261V30.6141C152.5 32.3634 151.444 34.4138 150.144 35.1769L127.106 48.6937C126.8 48.8849 126.45 48.9905 126.091 49ZM150.909 8.51173C150.638 8.52084 150.374 8.60325 150.144 8.7505L127.106 22.2777C125.938 22.9629 124.99 24.816 124.99 26.4304V46.7783C124.99 47.5673 125.229 48.159 125.642 48.403C125.837 48.4955 126.052 48.5332 126.265 48.5122C126.479 48.4912 126.683 48.4122 126.856 48.2836L149.899 34.7408C151.062 34.0556 152.01 32.2077 152.01 30.6141V10.2403C152.01 9.45126 151.771 8.85951 151.358 8.61554C151.221 8.53776 151.066 8.49835 150.909 8.50134V8.51173Z" fill="#E0E0E0"/>
<path d="M145 20L140.5 37L149.5 31.5401L145 20Z" fill="#6667AB"/>
<path opacity="0.3" d="M145 20L140.5 37L149.5 31.5401L145 20Z" fill="white"/>
<path d="M138.002 19L133.5 41L142.5 35.5206L138.002 19Z" fill="#6667AB"/>
<path d="M132 30L127.5 44L136.5 38.6609L132 30Z" fill="#6667AB"/>
<path opacity="0.3" d="M132 30L127.5 44L136.5 38.6609L132 30Z" fill="black"/>
<path d="M128.354 25.5717L127.646 25.9831C127.563 26.0272 127.5 25.9831 127.5 25.8705V24.7096C127.501 24.6548 127.514 24.6009 127.54 24.5524C127.565 24.5039 127.602 24.4621 127.646 24.4304L128.354 24.0189C128.437 23.97 128.5 24.0189 128.5 24.1316V25.2876C128.499 25.3431 128.486 25.3977 128.46 25.447C128.435 25.4963 128.398 25.539 128.354 25.5717Z" fill="#6667AB"/>
<path opacity="0.3" d="M128.354 25.5717L127.646 25.9831C127.563 26.0272 127.5 25.9831 127.5 25.8705V24.7096C127.501 24.6548 127.514 24.6009 127.54 24.5524C127.565 24.5039 127.602 24.4621 127.646 24.4304L128.354 24.0189C128.437 23.97 128.5 24.0189 128.5 24.1316V25.2876C128.499 25.3431 128.486 25.3977 128.46 25.447C128.435 25.4963 128.398 25.539 128.354 25.5717Z" fill="black"/>
<path d="M128.354 27.5727L127.646 27.9812C127.563 28.0298 127.5 27.9812 127.5 27.8694V26.7218C127.501 26.6667 127.514 26.6125 127.54 26.5636C127.565 26.5146 127.602 26.4722 127.646 26.4398L128.354 26.0167C128.436 25.973 128.5 26.0167 128.5 26.1286V27.281C128.501 27.3379 128.489 27.3943 128.463 27.4452C128.438 27.4961 128.4 27.5399 128.354 27.5727Z" fill="#6667AB"/>
<path d="M128.354 29.57L127.646 29.981C127.563 30.0299 127.5 29.981 127.5 29.8733V28.7089C127.5 28.654 127.513 28.5999 127.539 28.5513C127.564 28.5027 127.601 28.461 127.646 28.43L128.354 28.019C128.437 27.9701 128.5 28.019 128.5 28.1267V29.2862C128.501 29.342 128.488 29.3971 128.462 29.4466C128.437 29.4961 128.399 29.5385 128.354 29.57Z" fill="#6667AB"/>
<path opacity="0.3" d="M128.354 29.57L127.646 29.981C127.563 30.0299 127.5 29.981 127.5 29.8733V28.7089C127.5 28.654 127.513 28.5999 127.539 28.5513C127.564 28.5027 127.601 28.461 127.646 28.43L128.354 28.019C128.437 27.9701 128.5 28.019 128.5 28.1267V29.2862C128.501 29.342 128.488 29.3971 128.462 29.4466C128.437 29.4961 128.399 29.5385 128.354 29.57Z" fill="white"/>
<path d="M87.0061 102.893C87.0474 102.872 87.0835 102.84 87.1113 102.8C87.1391 102.76 87.1578 102.714 87.1659 102.664C87.2647 102.231 87.3423 101.792 87.3983 101.349C87.4547 100.931 87.4887 100.509 87.5 100.086C87.5 99.98 87.4516 99.9214 87.3838 99.948L86.5896 100.214C86.5821 99.6252 86.4973 99.0404 86.3378 98.478L87.0157 97.4127C87.0443 97.3716 87.0639 97.3238 87.0731 97.273C87.0823 97.2223 87.0809 97.1699 87.069 97.1198C86.8715 96.569 86.5597 96.0766 86.1586 95.6817C86.1102 95.6391 86.0327 95.6817 85.9746 95.7723L85.3015 96.8375C84.978 96.5961 84.5978 96.463 84.207 96.454L84.3717 95.1864C84.3717 95.0746 84.3475 95 84.2845 95C84.0147 95.0232 83.7482 95.0804 83.4903 95.1704C83.2059 95.2662 82.9303 95.391 82.6671 95.5433C82.6288 95.574 82.5965 95.613 82.5724 95.6578C82.5483 95.7027 82.5327 95.7525 82.5266 95.8043L82.362 97.0719C81.8871 97.4039 81.454 97.8032 81.0738 98.2596L80.6283 97.5512C80.5896 97.4926 80.5121 97.5086 80.4492 97.5885C79.925 98.2712 79.4643 99.0099 79.0739 99.7935C79.0531 99.8371 79.0422 99.8855 79.0422 99.9347C79.0422 99.9838 79.0531 100.032 79.0739 100.076L79.5194 100.779C79.2188 101.442 78.974 102.133 78.7881 102.845L77.9939 103.112C77.9524 103.133 77.9159 103.165 77.8874 103.205C77.8588 103.245 77.8389 103.291 77.8293 103.341C77.7324 103.777 77.655 104.214 77.5969 104.656C77.5442 105.077 77.5118 105.5 77.5 105.924C77.5 106.025 77.5484 106.084 77.6162 106.062L78.4104 105.796C78.4173 106.382 78.5022 106.963 78.6622 107.522L77.9843 108.587C77.9561 108.628 77.9366 108.676 77.9274 108.727C77.9182 108.778 77.9194 108.83 77.931 108.88C78.1263 109.432 78.4384 109.925 78.8414 110.318C78.8898 110.361 78.9673 110.318 79.0254 110.233L79.6985 109.168C80.0216 109.406 80.3993 109.539 80.7881 109.551L80.6283 110.819C80.6283 110.925 80.6525 111.005 80.7155 111C80.9851 110.979 81.2516 110.923 81.5097 110.835C81.7942 110.737 82.0698 110.61 82.3329 110.456C82.3721 110.427 82.4049 110.388 82.4292 110.343C82.4534 110.298 82.4685 110.248 82.4734 110.196L82.638 108.928C83.1128 108.598 83.546 108.2 83.9262 107.745L84.3717 108.449C84.4104 108.512 84.4879 108.496 84.5508 108.417C85.075 107.733 85.5342 106.992 85.9213 106.206C85.9429 106.163 85.9543 106.114 85.9543 106.065C85.9543 106.016 85.9429 105.967 85.9213 105.924L85.4758 105.221C85.7756 104.559 86.0203 103.87 86.207 103.16L87.0061 102.893ZM82.9237 106.132C80.8511 107.905 79.4274 105.658 80.5315 102.345C80.8317 101.384 81.362 100.53 82.0666 99.8734C84.1392 98.0945 85.563 100.347 84.4588 103.66C84.1586 104.621 83.6283 105.475 82.9237 106.132Z" fill="#E6E6E6"/>
<path d="M93.4572 103.774C93.4737 103.755 93.4858 103.733 93.4929 103.708C93.5 103.684 93.5018 103.659 93.4982 103.634C93.4802 103.395 93.446 103.157 93.3956 102.922C93.3482 102.71 93.2813 102.502 93.1955 102.301C93.1955 102.266 93.1391 102.266 93.1032 102.301L92.5337 102.802C92.4058 102.545 92.2134 102.325 91.9745 102.16L92.2721 101.333C92.2721 101.278 92.2721 101.223 92.2721 101.208C91.9571 101.046 91.6007 100.976 91.246 101.007C91.2101 101.007 91.169 101.053 91.1485 101.108L90.8509 101.935C90.5258 101.992 90.2154 102.111 89.9377 102.286L89.7889 101.629C89.7873 101.621 89.7834 101.613 89.7778 101.606C89.7721 101.599 89.7648 101.594 89.7565 101.591C89.7483 101.588 89.7394 101.587 89.7307 101.589C89.722 101.59 89.7138 101.594 89.7068 101.599C89.5003 101.742 89.3033 101.898 89.1168 102.065C88.9172 102.248 88.7287 102.442 88.5525 102.647C88.5344 102.666 88.5209 102.689 88.513 102.714C88.505 102.739 88.5027 102.766 88.5063 102.792L88.6551 103.449C88.3734 103.804 88.1277 104.185 87.9215 104.586L87.4084 104.491C87.3776 104.491 87.3315 104.491 87.3109 104.566C87.0508 105.106 86.848 105.671 86.7055 106.251C86.7055 106.306 86.7055 106.351 86.7414 106.356L87.2545 106.456C87.1648 106.871 87.1218 107.295 87.1262 107.719L86.5619 108.221C86.5411 108.239 86.5247 108.261 86.514 108.286C86.5034 108.312 86.4987 108.339 86.5003 108.366C86.5154 108.606 86.5497 108.843 86.6029 109.078C86.6503 109.29 86.7173 109.498 86.803 109.699C86.803 109.734 86.8595 109.734 86.8954 109.699L87.4648 109.198C87.5898 109.457 87.7828 109.678 88.0241 109.84L87.7265 110.672C87.7265 110.722 87.7265 110.777 87.7265 110.792C88.0415 110.954 88.3979 111.024 88.7526 110.993C88.7885 110.993 88.8295 110.948 88.8501 110.892L89.1425 110.07C89.4688 110.009 89.7804 109.888 90.0608 109.714L90.2096 110.371C90.2092 110.381 90.2119 110.39 90.2173 110.398C90.2227 110.406 90.2305 110.412 90.2396 110.415C90.2486 110.418 90.2586 110.419 90.2679 110.416C90.2773 110.414 90.2856 110.409 90.2917 110.401C90.4994 110.26 90.6966 110.104 90.8817 109.935C91.0814 109.754 91.2698 109.561 91.4461 109.358C91.4803 109.316 91.4967 109.262 91.4922 109.208L91.3435 108.556C91.6241 108.199 91.8697 107.816 92.0771 107.414L92.5902 107.514C92.6209 107.514 92.6671 107.484 92.6876 107.434C92.9447 106.893 93.1474 106.329 93.293 105.749C93.293 105.694 93.293 105.649 93.2571 105.644L92.7441 105.544C92.8337 105.129 92.8767 104.705 92.8723 104.281L93.4572 103.774ZM90.892 107.323C89.7171 108.917 88.2652 108.597 88.3627 106.732C88.4171 105.993 88.6799 105.283 89.122 104.682C90.302 103.093 91.7488 103.413 91.6564 105.278C91.6036 106.017 91.3386 106.725 90.892 107.323Z" fill="#E6E6E6"/>
<path d="M95.4382 91.7808C95.459 91.7627 95.4753 91.7402 95.486 91.715C95.4966 91.6898 95.5013 91.6626 95.4997 91.6353C95.4842 91.3957 95.45 91.1576 95.3972 90.9232C95.3499 90.7104 95.283 90.5023 95.1974 90.3013C95.1974 90.2662 95.141 90.2662 95.1051 90.3013L94.5364 90.8028C94.4089 90.546 94.2189 90.3238 93.983 90.1559L94.275 89.3334C94.275 89.2782 94.275 89.223 94.275 89.208C93.9604 89.0456 93.6045 88.9759 93.2503 89.0074C93.2144 89.0074 93.1734 89.0525 93.1529 89.1077L92.8608 89.9302C92.5349 89.9913 92.2237 90.1121 91.9436 90.2863L91.795 89.6293C91.7934 89.6208 91.7896 89.6129 91.7839 89.6063C91.7782 89.5997 91.7709 89.5947 91.7627 89.5917C91.7545 89.5886 91.7456 89.5877 91.7369 89.5891C91.7282 89.5904 91.72 89.5939 91.7131 89.5992C91.5068 89.7424 91.31 89.8981 91.1238 90.0656C90.9256 90.2479 90.7375 90.4405 90.5602 90.6423C90.5429 90.6632 90.5303 90.6874 90.5232 90.7133C90.5162 90.7392 90.5148 90.7663 90.5192 90.7928L90.6678 91.4498C90.383 91.8038 90.1357 92.1852 89.9299 92.5882L89.4175 92.4879C89.3868 92.4879 89.3458 92.518 89.3202 92.5682C89.0594 93.1071 88.8535 93.6699 88.7053 94.2482C88.7053 94.3034 88.7053 94.3486 88.7411 94.3536L89.2535 94.4539C89.164 94.8693 89.1211 95.2931 89.1254 95.7177L88.5618 96.2192C88.541 96.2373 88.5247 96.2598 88.514 96.285C88.5034 96.3102 88.4987 96.3374 88.5003 96.3647C88.5154 96.6043 88.5497 96.8424 88.6028 97.0768C88.6501 97.2896 88.717 97.4977 88.8026 97.6987C88.8026 97.7338 88.859 97.7338 88.8949 97.6987L89.4636 97.1972C89.5918 97.4537 89.7839 97.6744 90.0221 97.8391L89.725 98.6716C89.725 98.7218 89.725 98.777 89.725 98.792C90.0396 98.9544 90.3955 99.0241 90.7497 98.9926C90.7856 98.9926 90.8266 98.9475 90.8471 98.8923L91.1443 98.0698C91.4679 98.0063 91.777 97.8857 92.0564 97.7137L92.205 98.3707C92.2066 98.3792 92.2104 98.3871 92.2161 98.3937C92.2218 98.4003 92.2291 98.4053 92.2373 98.4083C92.2455 98.4114 92.2544 98.4122 92.2631 98.4109C92.2718 98.4096 92.28 98.4061 92.2869 98.4008C92.4954 98.2605 92.6924 98.1045 92.8762 97.9344C93.0756 97.7533 93.2638 97.5607 93.4398 97.3577C93.458 97.3372 93.4715 97.3132 93.4795 97.2873C93.4874 97.2614 93.4896 97.234 93.486 97.2072L93.3374 96.5552C93.6177 96.1974 93.863 95.8146 94.0701 95.4118L94.5825 95.5121C94.6132 95.5121 94.6593 95.482 94.685 95.4318C94.9401 94.8905 95.1408 94.3261 95.2845 93.7467C95.2845 93.6916 95.2845 93.6464 95.2486 93.6414L94.7362 93.5411C94.8257 93.1256 94.8687 92.7019 94.8643 92.2773L95.4382 91.7808ZM92.8762 95.3315C91.6977 96.9264 90.2527 96.6054 90.3449 94.7397C90.3987 93.9996 90.6632 93.289 91.1084 92.6885C92.2818 91.0987 93.7319 91.4147 93.6346 93.2853C93.5807 94.0223 93.3201 94.7304 92.8813 95.3315H92.8762Z" fill="#E6E6E6"/>
<path d="M19.6602 81.9824C19.5724 82.03 19.5001 81.9824 19.5001 81.8236V61.3691C19.4987 61.3022 19.5124 61.2358 19.5402 61.1753C19.568 61.1147 19.609 61.0615 19.6602 61.0198C19.748 60.9669 19.8204 61.0198 19.8204 61.1786V81.6331C19.821 81.6999 19.8069 81.766 19.7792 81.8265C19.7515 81.8869 19.7108 81.9402 19.6602 81.9824Z" fill="#E0E0E0"/>
<path d="M40.3451 69.5235L17.6548 82.9801C17.5672 83.0331 17.5001 82.9801 17.5001 82.8211C17.4985 82.7554 17.5116 82.6901 17.5384 82.6304C17.5653 82.5706 17.6051 82.518 17.6548 82.4766L40.3451 69.02C40.4328 68.967 40.4998 69.02 40.4998 69.1737C40.5018 69.2403 40.4889 69.3064 40.4621 69.3671C40.4353 69.4277 40.3952 69.4812 40.3451 69.5235Z" fill="#E0E0E0"/>
<path d="M23.5 63L20.5 64.6497V79L23.5 77.3503V63Z" fill="#F5F5F5"/>
<path d="M27.5 71L24.5 72.6378V77L27.5 75.3622V71Z" fill="#EBEBEB"/>
<path d="M31.5 55L28.5 56.6148V74L31.5 72.3852V55Z" fill="#F5F5F5"/>
<path d="M35.5 60L32.5 61.6076V72L35.5 70.3924V60Z" fill="#E0E0E0"/>
<path d="M39.5 61L36.5 62.6134V69L39.5 67.3917V61Z" fill="#F5F5F5"/>
<path d="M33.5 88V94.5994L29.3544 101C27.885 99.1835 28.3152 94.6532 30.6115 91.074C31.3053 89.8421 32.2957 88.788 33.5 88Z" fill="#E0E0E0"/>
<path d="M38.5 94C37.7024 97.7628 34.9269 101.263 32.1946 101.889C31.7271 102.023 31.2293 102.036 30.7546 101.926C30.2799 101.816 29.8462 101.587 29.5 101.263L33.5473 95.1399L38.5 94Z" fill="#F0F0F0"/>
<path d="M38.3887 92.8414L33.5 94L36.2651 87C37.9739 87.6383 38.82 89.8805 38.3887 92.8414Z" fill="#E0E0E0"/>
<path d="M35.5 87.056L33.5 93V87.4684C34.0978 87.0553 34.811 86.9082 35.5 87.056Z" fill="#F0F0F0"/>
<path d="M153.003 190C148.025 190 143.053 188.893 139.267 186.678C135.481 184.463 133.5 181.6 133.5 178.497C133.5 175.394 135.563 172.495 139.267 170.322C146.839 165.893 159.161 165.893 166.738 170.322C170.452 172.495 172.5 175.4 172.5 178.497C172.5 181.595 170.437 184.505 166.738 186.678C162.947 188.893 157.975 190 153.003 190ZM153.003 167.501C148.118 167.501 143.233 168.588 139.514 170.761C135.96 172.851 134 175.588 134 178.497C134 181.407 135.96 184.16 139.514 186.239C146.952 190.585 159.048 190.585 166.486 186.239C170.04 184.149 172 181.412 172 178.497C172 175.583 170.04 172.84 166.486 170.761C162.772 168.588 157.882 167.501 153.003 167.501Z" fill="#6667AB"/>
<path d="M153.5 174.735V178L150.5 169.26V166L153.5 174.735Z" fill="#263238"/>
<path d="M153.5 174.684V178L166.5 173.311V170L153.5 174.684Z" fill="#37474F"/>
<path d="M150.5 166.137L153.626 175L166.5 170.334C162.967 167.11 156.847 165.501 150.5 166.137Z" fill="#455A64"/>
<path d="M136.502 175C136.499 175.033 136.499 175.065 136.502 175.098V175Z" fill="#6667AB"/>
<path d="M152.5 178.495L150.499 188C142.331 187.197 136.432 183.021 136.501 178.255V175C136.501 179.729 142.388 183.856 150.504 184.66L151.879 178.128L152.5 178.495Z" fill="#6667AB"/>
<path opacity="0.4" d="M152.5 178.495L150.499 188C142.331 187.197 136.432 183.021 136.501 178.255V175C136.501 179.729 142.388 183.856 150.504 184.66L151.879 178.128L152.5 178.495Z" fill="black"/>
<path d="M151.5 184.72V187.955C154.844 188.151 158.194 187.708 161.367 186.652C165.195 185.343 167.897 183.267 168.976 180.81C169.304 180.099 169.483 179.329 169.5 178.549C169.5 178.245 169.5 175.211 169.5 175.211C169.5 175.211 168.573 175.138 167.489 174L164.98 174.855L153.511 178.75L151.5 184.72Z" fill="#6667AB"/>
<path opacity="0.6" d="M151.5 184.72V187.955C154.844 188.151 158.194 187.708 161.367 186.652C165.195 185.343 167.897 183.267 168.976 180.81C169.304 180.099 169.483 179.329 169.5 178.549C169.5 178.245 169.5 175.211 169.5 175.211C169.5 175.211 168.573 175.138 167.489 174L164.98 174.855L153.511 178.75L151.5 184.72Z" fill="white"/>
<path d="M141.5 171.268L151.5 177V173.732L141.5 168V171.268Z" fill="#6667AB"/>
<path opacity="0.1" d="M141.5 171.268L151.5 177V173.732L141.5 168V171.268Z" fill="black"/>
<path d="M136.627 174.318C135.527 179.447 141.702 184.142 150.499 185L152.5 175.656L140.891 169C138.464 170.506 137.069 172.252 136.627 174.318Z" fill="#6667AB"/>
<path opacity="0.3" d="M136.627 174.318C135.527 179.447 141.702 184.142 150.499 185L152.5 175.656L140.891 169C138.464 170.506 137.069 172.252 136.627 174.318Z" fill="black"/>
<path d="M151.558 184.69L151.5 184.958C154.849 185.147 158.203 184.697 161.377 183.631C165.209 182.325 167.914 180.257 168.994 177.799C170.017 175.485 169.477 173.088 167.485 171L164.973 171.854L153.513 175.767L151.558 184.69Z" fill="#6667AB"/>
<path opacity="0.75" d="M151.558 184.69L151.5 184.958C154.849 185.147 158.203 184.697 161.377 183.631C165.209 182.325 167.914 180.257 168.994 177.799C170.017 175.485 169.477 173.088 167.485 171L164.973 171.854L153.513 175.767L151.558 184.69Z" fill="white"/>
<path d="M141.5 168.23L151.5 174L148.557 166C146.089 166.309 143.697 167.064 141.5 168.23Z" fill="#6667AB"/>
<path d="M152.5 178.377V175L150.5 184.623V188L152.5 178.377Z" fill="#6667AB"/>
<path opacity="0.55" d="M152.5 178.377V175L150.5 184.623V188L152.5 178.377Z" fill="black"/>
<path d="M164.5 161L162.5 162L164.5 163L166.5 162L164.5 161Z" fill="#6667AB"/>
<path opacity="0.3" d="M164.5 161L162.5 162L164.5 163L166.5 162L164.5 161Z" fill="black"/>
<path d="M166.5 162V163L164.5 164V163L166.5 162Z" fill="#6667AB"/>
<path opacity="0.4" d="M166.5 162V163L164.5 164V163L166.5 162Z" fill="black"/>
<path d="M164.5 163V164L162.5 163V162L164.5 163Z" fill="#6667AB"/>
<path opacity="0.55" d="M164.5 163V164L162.5 163V162L164.5 163Z" fill="black"/>
<path d="M167.862 159.844L175.575 155.215C175.823 155.079 176.098 155.006 176.379 155C176.659 154.995 176.937 155.058 177.19 155.184C177.621 155.445 177.601 155.877 177.14 156.154L169.427 160.783C169.179 160.92 168.904 160.994 168.623 161C168.342 161.005 168.065 160.942 167.812 160.814C167.376 160.559 167.401 160.121 167.862 159.844Z" fill="#E0E0E0"/>
<path d="M169.498 164L167.5 164.998L169.498 166L171.5 164.998L169.498 164Z" fill="#6667AB"/>
<path opacity="0.88" d="M169.498 164L167.5 164.998L169.498 166L171.5 164.998L169.498 164Z" fill="white"/>
<path d="M171.5 165V166L169.5 167V166L171.5 165Z" fill="#6667AB"/>
<path opacity="0.75" d="M171.5 165V166L169.5 167V166L171.5 165Z" fill="white"/>
<path d="M169.5 166V167L167.5 166V165L169.5 166Z" fill="#6667AB"/>
<path opacity="0.6" d="M169.5 166V167L167.5 166V165L169.5 166Z" fill="white"/>
<path d="M172.86 162.848L180.573 158.215C180.821 158.079 181.098 158.006 181.379 158C181.66 157.995 181.939 158.058 182.192 158.184C182.623 158.445 182.598 158.877 182.137 159.153L174.425 163.786C174.177 163.922 173.901 163.995 173.62 164C173.34 164.004 173.062 163.94 172.81 163.812C172.379 163.556 172.399 163.119 172.86 162.848Z" fill="#E0E0E0"/>
<path d="M174.5 166L172.5 167L174.5 168L176.5 167L174.5 166Z" fill="#6667AB"/>
<path opacity="0.3" d="M174.5 166L172.5 167L174.5 168L176.5 167L174.5 166Z" fill="white"/>
<path d="M176.5 168V169L174.5 170V169L176.5 168Z" fill="#6667AB"/>
<path d="M174.5 169V170L172.5 169V168L174.5 169Z" fill="#6667AB"/>
<path opacity="0.1" d="M174.5 169V170L172.5 169V168L174.5 169Z" fill="black"/>
<path d="M177.863 165.852L185.577 161.215C185.825 161.079 186.1 161.006 186.381 161C186.661 160.995 186.939 161.058 187.192 161.184C187.623 161.445 187.598 161.878 187.141 162.154L179.423 166.785C179.175 166.922 178.899 166.995 178.618 167C178.338 167.004 178.06 166.94 177.808 166.811C177.377 166.561 177.402 166.128 177.863 165.852Z" fill="#E0E0E0"/>
<path d="M179.5 169L177.5 170L179.5 171L181.5 170L179.5 169Z" fill="#455A64"/>
<path d="M181.5 170V171L179.5 172V171L181.5 170Z" fill="#37474F"/>
<path d="M179.5 171V172L177.5 171V170L179.5 171Z" fill="#263238"/>
<path d="M182.86 167.847L190.575 163.214C190.823 163.078 191.099 163.005 191.379 163C191.66 162.996 191.938 163.06 192.19 163.188C192.621 163.444 192.601 163.876 192.14 164.152L184.425 168.785C184.177 168.921 183.902 168.994 183.621 169C183.341 169.005 183.063 168.942 182.81 168.816C182.379 168.571 182.399 168.123 182.86 167.847Z" fill="#E0E0E0"/>
<g opacity="0.3">
<path d="M144.09 155C144.048 155 144.007 154.99 143.971 154.97L128.619 146.287C128.584 146.266 128.554 146.236 128.533 146.201C128.512 146.165 128.501 146.125 128.5 146.084C128.5 146.044 128.511 146.004 128.532 145.969C128.553 145.935 128.583 145.906 128.619 145.886L147.796 135.031C147.831 135.011 147.871 135 147.912 135C147.953 135 147.994 135.011 148.029 135.031L163.386 143.713C163.422 143.734 163.451 143.764 163.471 143.799C163.491 143.835 163.501 143.875 163.5 143.916C163.501 143.956 163.491 143.995 163.471 144.03C163.45 144.065 163.421 144.094 163.386 144.114L144.209 154.97C144.173 154.99 144.132 155 144.09 155ZM129.21 146.084L144.09 154.502L162.811 143.916L147.92 135.498L129.21 146.084Z" fill="#6667AB"/>
</g>
<path d="M143.5 152V83.6243L132.5 77V145.376L143.5 152Z" fill="#6667AB"/>
<path opacity="0.2" d="M143.5 152V83.6243L132.5 77V145.376L143.5 152Z" fill="black"/>
<path d="M144.5 152L159.495 143.194L159.5 75L144.5 83.8056V152Z" fill="#6667AB"/>
<path d="M159.5 75.43L147.929 69L132.5 77.57L144.071 84L159.5 75.43Z" fill="#6667AB"/>
<path opacity="0.25" d="M159.5 75.43L147.929 69L132.5 77.57L144.071 84L159.5 75.43Z" fill="white"/>
<path opacity="0.3" d="M159.5 75L143.914 83.4966L138.853 80.7005L132.5 77.1988L138.749 80.8961L143.868 83.9137C143.743 85.6337 143.711 145.022 143.732 146.737C143.746 148.497 143.86 150.254 144.076 152C144.29 150.254 144.403 148.496 144.414 146.737C144.414 145.074 144.414 85.7418 144.289 84.0785L159.5 75Z" fill="white"/>
<g opacity="0.3">
<path d="M116.087 171C116.045 171 116.004 170.989 115.968 170.97L100.619 162.287C100.583 162.266 100.554 162.236 100.533 162.201C100.512 162.165 100.501 162.125 100.5 162.084C100.5 162.044 100.511 162.004 100.532 161.969C100.553 161.935 100.583 161.906 100.619 161.886L119.792 151.031C119.828 151.011 119.869 151 119.911 151C119.953 151 119.994 151.011 120.03 151.031L135.379 159.713C135.415 159.733 135.446 159.762 135.467 159.797C135.489 159.832 135.5 159.872 135.5 159.913C135.5 159.955 135.489 159.995 135.467 160.03C135.446 160.065 135.415 160.094 135.379 160.114L116.206 170.97C116.17 170.99 116.129 171 116.087 171ZM101.21 162.084L116.087 170.492L134.803 159.906L119.926 151.488L101.21 162.084Z" fill="#6667AB"/>
</g>
<path d="M115.5 169V120.601L104.5 114V162.399L115.5 169Z" fill="#6667AB"/>
<path opacity="0.1" d="M115.5 169V120.601L104.5 114V162.399L115.5 169Z" fill="white"/>
<path d="M115.5 169L130.5 160.227V112L115.5 120.768V169Z" fill="#6667AB"/>
<path opacity="0.3" d="M115.5 169L130.5 160.227V112L115.5 120.768V169Z" fill="white"/>
<path d="M131.5 111.43L119.929 105L104.5 113.57L116.071 120L131.5 111.43Z" fill="#6667AB"/>
<path opacity="0.55" d="M131.5 111.43L119.929 105L104.5 113.57L116.071 120L131.5 111.43Z" fill="white"/>
<path opacity="0.3" d="M116.274 121.045L131.5 112L115.914 120.46C114.233 119.522 112.545 118.599 110.858 117.676L104.5 114.189L110.749 117.866C112.457 118.891 114.16 119.886 115.873 120.875C115.821 122.649 115.763 135.591 115.748 137.365C115.732 139.139 115.722 156.336 115.748 158.14C115.774 159.945 115.789 161.76 115.847 163.57C115.904 165.38 115.972 167.19 116.086 169C116.206 167.19 116.279 165.38 116.326 163.57C116.373 161.76 116.414 159.95 116.425 158.14C116.435 156.33 116.425 139.169 116.425 137.365C116.383 135.647 116.326 122.762 116.274 121.045Z" fill="white"/>
<g opacity="0.3">
<path d="M87.0924 188C87.0506 188 87.0095 187.99 86.9732 187.97L71.6141 179.287C71.579 179.266 71.5502 179.236 71.5302 179.2C71.5102 179.165 71.4999 179.125 71.5 179.084C71.4992 179.044 71.5094 179.005 71.5294 178.97C71.5495 178.935 71.5787 178.906 71.6141 178.886L90.7935 168.031C90.829 168.011 90.8692 168 90.9101 168C90.9511 168 90.9913 168.011 91.0268 168.031L106.386 176.713C106.422 176.734 106.451 176.764 106.471 176.799C106.491 176.835 106.501 176.875 106.5 176.916C106.501 176.956 106.491 176.995 106.471 177.03C106.45 177.065 106.421 177.094 106.386 177.114L87.2064 187.97C87.1719 187.99 87.1325 188 87.0924 188ZM72.205 179.084L87.0924 187.502L105.816 176.916L90.9283 168.498L72.205 179.084Z" fill="#6667AB"/>
</g>
<path d="M86.5 186L86.495 152.668L75.5 146L75.505 179.332L86.5 186Z" fill="#6667AB"/>
<path opacity="0.45" d="M86.5 186L86.495 152.668L75.5 146L75.505 179.332L86.5 186Z" fill="black"/>
<path d="M87.5051 186L102.495 177.154L102.5 144L87.5 152.84L87.5051 186Z" fill="#6667AB"/>
<path opacity="0.3" d="M87.5051 186L102.495 177.154L102.5 144L87.5 152.84L87.5051 186Z" fill="black"/>
<path d="M102.5 143.43L90.9315 137L75.5 145.57L87.0685 152L102.5 143.43Z" fill="#6667AB"/>
<path opacity="0.15" d="M102.5 143.43L90.9315 137L75.5 145.57L87.0685 152L102.5 143.43Z" fill="black"/>
<path opacity="0.3" d="M102.5 144L86.9175 152.525L81.8569 149.723L75.5 146.208L81.7476 149.914L86.8654 152.949C86.7457 153.983 86.7144 181.693 86.7352 182.743C86.7465 183.837 86.8616 184.927 87.0789 186C87.2919 184.927 87.4052 183.837 87.4173 182.743C87.4173 181.745 87.4173 154.107 87.3027 153.109L102.5 144Z" fill="white"/>
<g opacity="0.3">
<path d="M173.087 138C173.047 137.999 173.008 137.989 172.973 137.97L157.619 129.287C157.583 129.266 157.553 129.236 157.532 129.201C157.512 129.165 157.5 129.125 157.5 129.084C157.5 129.044 157.511 129.004 157.532 128.969C157.553 128.934 157.583 128.906 157.619 128.886L176.792 118.031C176.828 118.011 176.869 118 176.911 118C176.953 118 176.994 118.011 177.03 118.031L192.379 126.713C192.415 126.733 192.446 126.762 192.467 126.797C192.489 126.832 192.5 126.872 192.5 126.913C192.5 126.955 192.489 126.995 192.467 127.03C192.446 127.065 192.415 127.094 192.379 127.114L173.206 137.97C173.17 137.99 173.129 138 173.087 138ZM158.21 129.084L173.087 137.502L191.803 126.911L176.926 118.493L158.21 129.084Z" fill="#6667AB"/>
</g>
<path d="M172.5 136V36.6173L161.5 30L161.505 129.383L172.5 136Z" fill="#6667AB"/>
<path opacity="0.3" d="M172.5 136V36.6173L161.5 30L161.505 129.383L172.5 136Z" fill="white"/>
<path d="M173.5 136L188.5 127.197V28L173.5 36.8031V136Z" fill="#6667AB"/>
<path opacity="0.55" d="M173.5 136L188.5 127.197V28L173.5 36.8031V136Z" fill="white"/>
<path d="M188.5 27.43L176.929 21L161.5 29.57L173.071 36L188.5 27.43Z" fill="#6667AB"/>
<path opacity="0.75" d="M188.5 27.43L176.929 21L161.5 29.57L173.071 36L188.5 27.43Z" fill="white"/>
<path opacity="0.3" d="M173.274 37.0836L188.5 28L172.914 36.4918C171.238 35.55 169.545 34.6236 167.858 33.6972L161.5 30.1976L167.749 33.8928C169.457 34.9221 171.16 35.9154 172.878 36.9087C172.821 38.9261 172.763 40.9435 172.748 42.961C172.732 44.9784 172.748 121.595 172.748 123.648C172.748 125.702 172.789 127.766 172.852 129.824C172.914 131.883 172.972 133.941 173.092 136C173.206 133.941 173.279 131.883 173.326 129.824C173.373 127.766 173.42 125.707 173.43 123.648C173.44 121.59 173.43 45.0144 173.43 42.961C173.383 40.9899 173.331 39.029 173.274 37.0836Z" fill="white"/>
<path d="M145.296 48.1655L132.699 55.5853C132.351 55.8173 132.06 56.1299 131.852 56.4976C131.644 56.8654 131.523 57.2781 131.5 57.7023V68.1271C131.5 68.9068 132.036 69.2217 132.699 68.8345L137.34 66.0927L138.585 68.2872C138.639 68.3861 138.721 68.4667 138.819 68.5193C138.917 68.5718 139.029 68.5939 139.139 68.583C139.25 68.572 139.355 68.5285 139.442 68.4576C139.528 68.3867 139.593 68.2916 139.628 68.1839L141.09 63.888L145.296 61.4147C145.645 61.1833 145.937 60.871 146.146 60.5031C146.355 60.1353 146.476 59.7224 146.5 59.2977V48.8729C146.5 48.0932 145.958 47.7783 145.296 48.1655Z" fill="#FAFAFA"/>
<path d="M132.481 70C132.32 70.0011 132.162 69.9573 132.024 69.8734C131.85 69.7629 131.71 69.6061 131.618 69.42C131.526 69.234 131.487 69.026 131.504 68.8188V58.1774C131.527 57.6952 131.663 57.2256 131.901 56.8074C132.138 56.3892 132.471 56.0346 132.871 55.7728L145.828 48.2057C145.995 48.089 146.189 48.0192 146.391 48.0034C146.593 47.9877 146.795 48.0265 146.977 48.1161C147.149 48.2279 147.289 48.385 147.38 48.5706C147.472 48.7563 147.512 48.9637 147.497 49.1707V59.8068C147.474 60.2897 147.338 60.7599 147.099 61.1783C146.86 61.5966 146.526 61.9509 146.125 62.2114L141.899 64.6846L140.433 68.977C140.378 69.1373 140.279 69.2783 140.147 69.383C140.015 69.4877 139.857 69.5518 139.69 69.5676C139.524 69.5814 139.358 69.5478 139.21 69.4704C139.062 69.393 138.938 69.275 138.853 69.1299L137.72 67.1313L133.193 69.768C132.98 69.9083 132.735 69.9884 132.481 70ZM146.514 48.5485C146.369 48.5576 146.228 48.6029 146.104 48.6803L133.172 56.2579C132.856 56.4706 132.593 56.7545 132.403 57.0875C132.212 57.4204 132.1 57.7934 132.076 58.1774V68.824C132.063 68.9296 132.077 69.0366 132.116 69.1352C132.155 69.2338 132.218 69.3208 132.299 69.3883C132.397 69.4267 132.502 69.4391 132.606 69.4244C132.71 69.4096 132.808 69.3681 132.892 69.3039L137.902 66.3667L139.316 68.8504C139.346 68.9035 139.39 68.9467 139.443 68.9748C139.497 69.0028 139.557 69.0146 139.617 69.0086C139.678 69.0028 139.736 68.9793 139.784 68.941C139.832 68.9026 139.868 68.851 139.888 68.7924L141.421 64.2996L145.828 61.7263C146.144 61.5133 146.406 61.2293 146.596 60.8963C146.785 60.5633 146.896 60.1905 146.92 59.8068V49.1602C146.933 49.0551 146.921 48.9482 146.882 48.8496C146.844 48.7509 146.782 48.6636 146.702 48.5959C146.645 48.5631 146.58 48.5467 146.514 48.5485Z" fill="#E0E0E0"/>
<path d="M134.737 65C134.695 65.0001 134.654 64.9893 134.618 64.9684C134.582 64.9476 134.552 64.9175 134.531 64.8814C134.516 64.8547 134.506 64.8252 134.502 64.7945C134.498 64.7639 134.5 64.7328 134.508 64.703C134.516 64.6732 134.53 64.6454 134.549 64.6211C134.568 64.5968 134.592 64.5765 134.619 64.5615L144.123 59.047C144.149 59.027 144.18 59.0129 144.212 59.0057C144.245 58.9984 144.279 58.9981 144.311 59.0048C144.344 59.0115 144.375 59.025 144.402 59.0445C144.429 59.064 144.451 59.089 144.468 59.1179C144.485 59.1468 144.495 59.1789 144.499 59.2121C144.502 59.2453 144.499 59.2789 144.488 59.3107C144.478 59.3425 144.461 59.3717 144.439 59.3965C144.417 59.4213 144.389 59.441 144.359 59.4545L134.85 64.969C134.815 64.9887 134.776 64.9994 134.737 65Z" fill="#E0E0E0"/>
<path d="M134.737 63C134.696 63.0001 134.655 62.9892 134.619 62.9683C134.582 62.9474 134.552 62.9173 134.532 62.881C134.516 62.8543 134.506 62.8247 134.502 62.794C134.498 62.7632 134.5 62.732 134.508 62.7022C134.516 62.6723 134.53 62.6444 134.549 62.62C134.568 62.5956 134.592 62.5753 134.619 62.5603L144.146 57.0302C144.201 56.9998 144.265 56.992 144.326 57.0084C144.386 57.0248 144.438 57.0641 144.47 57.1181C144.5 57.1725 144.508 57.2365 144.492 57.2964C144.475 57.3564 144.436 57.4075 144.383 57.4389L134.851 62.969C134.816 62.9887 134.777 62.9994 134.737 63Z" fill="#E0E0E0"/>
<path d="M134.737 61C134.695 61.0001 134.654 60.9893 134.618 60.9684C134.582 60.9476 134.552 60.9175 134.531 60.8814C134.516 60.8547 134.506 60.8252 134.502 60.7945C134.498 60.7639 134.5 60.7328 134.508 60.703C134.516 60.6732 134.53 60.6454 134.549 60.6211C134.568 60.5968 134.592 60.5765 134.619 60.5615L144.123 55.047C144.149 55.027 144.18 55.0129 144.212 55.0057C144.245 54.9984 144.279 54.9981 144.311 55.0048C144.344 55.0115 144.375 55.025 144.402 55.0445C144.429 55.064 144.451 55.089 144.468 55.1179C144.485 55.1468 144.495 55.1789 144.499 55.2121C144.502 55.2453 144.499 55.2789 144.488 55.3107C144.478 55.3425 144.461 55.3717 144.439 55.3965C144.417 55.4213 144.389 55.441 144.359 55.4545L134.85 60.969C134.815 60.9887 134.776 60.9994 134.737 61Z" fill="#E0E0E0"/>
<path d="M134.738 59C134.697 59.0002 134.656 58.9898 134.62 58.9699C134.584 58.95 134.554 58.9212 134.532 58.8862C134.516 58.859 134.506 58.8291 134.502 58.7979C134.498 58.7668 134.5 58.7352 134.508 58.7049C134.516 58.6747 134.53 58.6463 134.549 58.6215C134.568 58.5966 134.592 58.5758 134.619 58.5603L144.146 53.0302C144.201 52.9998 144.265 52.992 144.326 53.0084C144.386 53.0248 144.438 53.0641 144.47 53.1181C144.5 53.1725 144.508 53.2365 144.492 53.2964C144.475 53.3564 144.436 53.4075 144.383 53.4389L134.851 58.969C134.816 58.9887 134.777 58.9994 134.738 59Z" fill="#6667AB"/>
<path d="M117.3 84.1689L104.7 91.5884C104.35 91.8199 104.059 92.1323 103.851 92.5002C103.642 92.8681 103.522 93.281 103.5 93.7054V104.125C103.5 104.904 104.037 105.225 104.7 104.832L109.342 102.096L110.587 104.29C110.643 104.387 110.725 104.466 110.823 104.517C110.921 104.568 111.032 104.589 111.141 104.579C111.251 104.568 111.355 104.525 111.442 104.456C111.529 104.386 111.594 104.293 111.63 104.187L113.093 99.8858L117.3 97.4126C117.65 97.1812 117.941 96.8688 118.149 96.5009C118.358 96.133 118.478 95.72 118.5 95.2957V84.8711C118.5 84.0914 117.963 83.7764 117.3 84.1689Z" fill="#FAFAFA"/>
<path d="M104.483 106C104.322 106 104.164 105.959 104.024 105.879C103.851 105.767 103.712 105.61 103.62 105.424C103.528 105.239 103.488 105.031 103.503 104.825V94.1873C103.526 93.7046 103.663 93.2344 103.901 92.8156C104.139 92.3967 104.473 92.0412 104.874 91.7784L117.842 84.2037C118.005 84.0829 118.2 84.0127 118.401 84.0016C118.603 83.9905 118.804 84.039 118.979 84.1412C119.154 84.2435 119.296 84.395 119.387 84.5774C119.479 84.7597 119.516 84.9651 119.494 85.1683V95.8108C119.471 96.2936 119.335 96.7638 119.095 97.1821C118.856 97.6004 118.521 97.9544 118.118 98.2145L113.882 100.687L112.413 104.977C112.359 105.138 112.26 105.28 112.127 105.385C111.995 105.49 111.835 105.553 111.668 105.568C111.501 105.586 111.333 105.554 111.184 105.476C111.035 105.398 110.911 105.278 110.829 105.13L109.693 103.132L105.155 105.768C104.955 105.904 104.723 105.984 104.483 106ZM118.139 84.6939L105.176 92.2686C104.858 92.4803 104.593 92.7639 104.402 93.0969C104.212 93.4299 104.1 93.8032 104.076 94.1873V104.825C104.043 104.931 104.047 105.045 104.087 105.149C104.127 105.253 104.2 105.34 104.296 105.395C104.391 105.451 104.502 105.473 104.611 105.456C104.72 105.439 104.82 105.386 104.894 105.304L109.917 102.368L111.334 104.851C111.363 104.905 111.407 104.95 111.461 104.978C111.515 105.006 111.576 105.017 111.637 105.009C111.698 105.005 111.757 104.983 111.806 104.944C111.854 104.905 111.89 104.853 111.908 104.793L113.471 100.307L117.889 97.7295C118.206 97.5169 118.469 97.2331 118.659 96.9002C118.849 96.5673 118.96 96.1944 118.983 95.8108V85.1683C118.996 85.0633 118.983 84.9566 118.945 84.8581C118.907 84.7596 118.845 84.6723 118.764 84.6043C118.665 84.5657 118.558 84.5536 118.453 84.5693C118.348 84.585 118.249 84.6279 118.165 84.6939H118.139Z" fill="#E0E0E0"/>
<path d="M106.737 101C106.695 101 106.654 100.989 106.618 100.968C106.582 100.948 106.552 100.918 106.531 100.881C106.516 100.855 106.506 100.825 106.502 100.795C106.498 100.764 106.5 100.733 106.508 100.703C106.516 100.673 106.53 100.645 106.549 100.621C106.568 100.597 106.592 100.577 106.619 100.562L116.123 95.047C116.149 95.027 116.18 95.0129 116.212 95.0057C116.245 94.9984 116.279 94.9981 116.311 95.0048C116.344 95.0115 116.375 95.025 116.402 95.0445C116.429 95.064 116.451 95.089 116.468 95.1179C116.485 95.1468 116.495 95.1789 116.499 95.2121C116.502 95.2453 116.499 95.2789 116.488 95.3107C116.478 95.3425 116.461 95.3717 116.439 95.3965C116.417 95.4213 116.389 95.441 116.359 95.4545L106.85 100.959C106.816 100.982 106.777 100.996 106.737 101Z" fill="#6667AB"/>
<path d="M106.737 99C106.695 99.0001 106.654 98.9893 106.618 98.9684C106.582 98.9476 106.552 98.9175 106.531 98.8814C106.516 98.8547 106.506 98.8252 106.502 98.7945C106.498 98.7639 106.5 98.7328 106.508 98.703C106.516 98.6732 106.53 98.6454 106.549 98.6211C106.568 98.5968 106.592 98.5765 106.619 98.5615L116.123 93.047C116.149 93.027 116.18 93.0129 116.212 93.0057C116.245 92.9984 116.279 92.9981 116.311 93.0048C116.344 93.0115 116.375 93.025 116.402 93.0445C116.429 93.064 116.451 93.089 116.468 93.1179C116.485 93.1468 116.495 93.1789 116.499 93.2121C116.502 93.2453 116.499 93.2789 116.488 93.3107C116.478 93.3425 116.461 93.3717 116.439 93.3965C116.417 93.4213 116.389 93.441 116.359 93.4545L106.85 98.969C106.815 98.9887 106.776 98.9994 106.737 99Z" fill="#E0E0E0"/>
<path d="M106.737 96.9999C106.696 97.0001 106.655 96.9891 106.619 96.9682C106.582 96.9473 106.552 96.9172 106.532 96.8809C106.516 96.8541 106.506 96.8245 106.502 96.7938C106.498 96.763 106.5 96.7318 106.508 96.7019C106.516 96.6721 106.53 96.6441 106.549 96.6197C106.568 96.5953 106.592 96.575 106.619 96.56L116.146 91.0321C116.173 91.0163 116.203 91.0061 116.234 91.002C116.265 90.9979 116.296 91 116.326 91.0082C116.357 91.0164 116.385 91.0305 116.409 91.0497C116.434 91.0689 116.455 91.0928 116.47 91.12C116.5 91.1744 116.508 91.2385 116.492 91.2984C116.475 91.3584 116.436 91.4095 116.383 91.441L106.851 96.974C106.816 96.992 106.777 97.0009 106.737 96.9999Z" fill="#E0E0E0"/>
<path d="M106.737 95C106.695 95.0001 106.654 94.9893 106.618 94.9684C106.582 94.9476 106.552 94.9175 106.531 94.8814C106.516 94.8547 106.506 94.8252 106.502 94.7945C106.498 94.7639 106.5 94.7328 106.508 94.703C106.516 94.6732 106.53 94.6454 106.549 94.6211C106.568 94.5968 106.592 94.5765 106.619 94.5615L116.123 89.047C116.149 89.027 116.18 89.0129 116.212 89.0057C116.245 88.9984 116.279 88.9981 116.311 89.0048C116.344 89.0115 116.375 89.025 116.402 89.0445C116.429 89.064 116.451 89.089 116.468 89.1179C116.485 89.1468 116.495 89.1789 116.499 89.2121C116.502 89.2453 116.499 89.2789 116.488 89.3107C116.478 89.3425 116.461 89.3717 116.439 89.3965C116.417 89.4213 116.389 89.441 116.359 89.4545L106.85 94.969C106.815 94.9887 106.776 94.9994 106.737 95Z" fill="#E0E0E0"/>
<path d="M88.3002 116.169L75.6998 123.588C75.3503 123.82 75.0595 124.132 74.851 124.5C74.6425 124.868 74.5222 125.281 74.5 125.705V136.125C74.5 136.904 75.0366 137.225 75.6998 136.832L80.3421 134.096L81.5874 136.29C81.6439 136.387 81.7262 136.465 81.8246 136.516C81.9231 136.567 82.0336 136.588 82.1434 136.577C82.2533 136.566 82.3578 136.524 82.4449 136.455C82.532 136.386 82.598 136.293 82.6353 136.187L84.0933 131.886L88.3002 129.413C88.6497 129.181 88.9405 128.869 89.149 128.501C89.3575 128.133 89.4778 127.72 89.5 127.296V116.871C89.5 116.091 88.9634 115.776 88.3002 116.169Z" fill="#FAFAFA"/>
<path d="M75.4827 138C75.3222 138 75.1644 137.958 75.0242 137.879C74.8514 137.767 74.7116 137.61 74.6199 137.424C74.5282 137.239 74.4878 137.031 74.5032 136.825V126.187C74.5261 125.704 74.6629 125.233 74.9022 124.814C75.1415 124.395 75.4763 124.04 75.8787 123.778L88.8422 116.204C89.0053 116.083 89.1995 116.013 89.4014 116.002C89.6032 115.99 89.8039 116.039 89.9789 116.141C90.154 116.243 90.2959 116.395 90.3873 116.577C90.4787 116.76 90.5158 116.965 90.4939 117.168V127.811C90.4716 128.293 90.3355 128.763 90.0971 129.181C89.8587 129.599 89.5249 129.953 89.1235 130.214L84.8823 132.687L83.413 136.977C83.3568 137.134 83.258 137.27 83.1281 137.372C82.9983 137.474 82.8426 137.536 82.679 137.552C82.5155 137.568 82.3509 137.537 82.2041 137.463C82.0574 137.388 81.9346 137.273 81.8498 137.13L80.7088 135.132L76.1705 137.768C75.9659 137.906 75.7284 137.986 75.4827 138ZM89.1444 116.694L76.2018 124.269C75.8847 124.481 75.6208 124.764 75.4309 125.097C75.241 125.43 75.1303 125.804 75.1076 126.187V136.825C75.0941 136.93 75.107 137.038 75.1453 137.137C75.1835 137.237 75.2458 137.325 75.3264 137.394C75.4259 137.43 75.5326 137.44 75.637 137.424C75.7415 137.409 75.8406 137.368 75.9256 137.304L80.9432 134.368L82.3605 136.851C82.3914 136.903 82.4365 136.946 82.4905 136.974C82.5444 137.001 82.6051 137.013 82.6653 137.007C82.7255 137 82.7827 136.977 82.8302 136.939C82.8777 136.901 82.9136 136.851 82.9336 136.793L84.4707 132.307L88.863 129.708C89.1802 129.496 89.4445 129.212 89.6352 128.88C89.8259 128.547 89.9379 128.174 89.9624 127.79V117.168C89.9749 117.063 89.9609 116.956 89.9218 116.857C89.8826 116.759 89.8195 116.672 89.7384 116.604C89.6402 116.566 89.5338 116.554 89.4296 116.569C89.3254 116.585 89.2271 116.628 89.1444 116.694Z" fill="#E0E0E0"/>
<path d="M77.7444 133C77.6914 133.003 77.639 132.987 77.596 132.956C77.5529 132.925 77.5219 132.88 77.508 132.828C77.4942 132.777 77.4983 132.722 77.5198 132.673C77.5413 132.624 77.5789 132.584 77.6261 132.56L87.1505 127.031C87.2044 127 87.2682 126.992 87.328 127.008C87.3576 127.017 87.3854 127.03 87.4096 127.049C87.4339 127.068 87.4542 127.092 87.4694 127.119C87.4846 127.146 87.4943 127.175 87.4982 127.206C87.502 127.236 87.4998 127.268 87.4917 127.297C87.4836 127.327 87.4697 127.355 87.4509 127.379C87.432 127.404 87.4086 127.424 87.3819 127.439L77.8627 132.963C77.8269 132.985 77.7862 132.998 77.7444 133Z" fill="#E0E0E0"/>
<path d="M77.7356 131C77.6939 131 77.6529 130.989 77.6167 130.968C77.5806 130.947 77.5505 130.917 77.5297 130.881C77.4997 130.827 77.4921 130.763 77.5084 130.703C77.5248 130.643 77.5638 130.592 77.6172 130.56L87.1508 125.033C87.1771 125.017 87.2063 125.007 87.2366 125.002C87.267 124.998 87.2979 125 87.3276 125.007C87.3573 125.015 87.3851 125.029 87.4096 125.047C87.434 125.066 87.4545 125.089 87.4699 125.116C87.5002 125.171 87.508 125.236 87.4916 125.296C87.4753 125.357 87.4362 125.409 87.3824 125.441L77.854 130.969C77.8177 130.989 77.777 131 77.7356 131Z" fill="#E0E0E0"/>
<path d="M77.7444 129C77.6914 129.003 77.639 128.987 77.596 128.956C77.5529 128.925 77.5219 128.879 77.508 128.828C77.4942 128.776 77.4983 128.721 77.5198 128.672C77.5413 128.624 77.5789 128.584 77.6261 128.559L87.1505 123.031C87.1772 123.016 87.2066 123.006 87.2371 123.002C87.2675 122.998 87.2984 123 87.328 123.008C87.3576 123.017 87.3854 123.031 87.4096 123.05C87.4339 123.068 87.4542 123.092 87.4694 123.119C87.4846 123.146 87.4943 123.175 87.4982 123.206C87.502 123.237 87.4998 123.268 87.4917 123.298C87.4836 123.328 87.4697 123.356 87.4509 123.38C87.432 123.404 87.4086 123.425 87.3819 123.44L77.8627 128.969C77.8264 128.989 77.7858 128.999 77.7444 129Z" fill="#6667AB"/>
<path d="M77.7356 127C77.6939 127 77.6529 126.989 77.6167 126.968C77.5806 126.947 77.5505 126.917 77.5297 126.881C77.4997 126.827 77.4921 126.763 77.5084 126.703C77.5248 126.643 77.5638 126.592 77.6172 126.56L87.1508 121.031C87.2043 121.001 87.2675 120.992 87.3271 121.008C87.3866 121.023 87.4379 121.061 87.4699 121.114C87.5002 121.169 87.508 121.234 87.4916 121.295C87.4753 121.355 87.4362 121.407 87.3824 121.44L77.854 126.969C77.8177 126.989 77.777 127 77.7356 127Z" fill="#E0E0E0"/>
<path d="M174.3 0.164169L161.7 7.58506C161.35 7.81651 161.059 8.12897 160.851 8.49693C160.642 8.8649 160.522 9.27795 160.5 9.70236V20.1288C160.5 20.9086 161.037 21.2236 161.7 20.8311L166.342 18.0941L167.587 20.2889C167.643 20.3874 167.724 20.4676 167.823 20.5198C167.922 20.572 168.033 20.5939 168.144 20.583C168.255 20.5721 168.36 20.5288 168.447 20.4583C168.534 20.3878 168.6 20.2931 168.635 20.1856L170.093 15.8839L174.3 13.4102C174.65 13.1788 174.941 12.8663 175.149 12.4984C175.358 12.1304 175.478 11.7173 175.5 11.2929V0.87166C175.5 0.112529 174.963 -0.228306 174.3 0.164169Z" fill="#FAFAFA"/>
<path d="M161.483 22C161.322 21.9997 161.165 21.958 161.024 21.8788C160.851 21.7675 160.711 21.6107 160.619 21.425C160.528 21.2394 160.487 21.032 160.503 20.8251V10.1824C160.525 9.699 160.661 9.22791 160.901 8.80887C161.14 8.38983 161.476 8.03513 161.879 7.77466L174.842 0.203619C175.005 0.0828513 175.2 0.0126452 175.401 0.0015532C175.603 -0.00953877 175.804 0.038962 175.979 0.141148C176.154 0.243334 176.296 0.394794 176.387 0.577076C176.479 0.759358 176.516 0.964592 176.494 1.16778V11.8052C176.471 12.2876 176.334 12.7576 176.096 13.1763C175.858 13.5949 175.524 13.9503 175.124 14.2129L170.882 16.6787L169.434 20.9463C169.381 21.1068 169.282 21.2481 169.151 21.3529C169.02 21.4578 168.861 21.5215 168.694 21.5364C168.527 21.5555 168.358 21.5242 168.209 21.4464C168.06 21.3685 167.937 21.2477 167.855 21.0991L166.714 19.1075L162.176 21.7418C161.973 21.8902 161.733 21.9794 161.483 22ZM175.144 0.704141L162.176 8.26464C161.859 8.47714 161.596 8.76088 161.406 9.09361C161.216 9.42634 161.105 9.79903 161.082 10.1824V20.8198C161.051 20.9256 161.056 21.0388 161.097 21.1411C161.137 21.2434 161.211 21.3289 161.305 21.3838C161.4 21.4386 161.51 21.4596 161.618 21.4433C161.726 21.427 161.825 21.3744 161.9 21.294L166.917 18.3594L168.335 20.8409C168.363 20.8954 168.407 20.9398 168.461 20.968C168.515 20.9963 168.576 21.0071 168.637 20.999C168.698 20.9956 168.756 20.9737 168.804 20.936C168.853 20.8984 168.889 20.8469 168.908 20.7882L170.445 16.2993L174.863 13.723C175.177 13.509 175.439 13.2247 175.627 12.8921C175.814 12.5595 175.924 12.1876 175.947 11.8052V1.17305C175.98 1.06689 175.976 0.952545 175.936 0.848836C175.896 0.745128 175.823 0.658229 175.727 0.602432C175.632 0.546634 175.521 0.525263 175.412 0.541833C175.303 0.558403 175.204 0.611929 175.129 0.693603L175.144 0.704141Z" fill="#E0E0E0"/>
<path d="M167.5 15.1173C167.501 14.7929 167.593 14.4727 167.77 14.181C167.947 13.8893 168.205 13.6337 168.523 13.4333C169.064 13.1866 169.499 13.5513 169.499 14.1895C169.51 14.5163 169.428 14.8409 169.259 15.1383C169.09 15.4358 168.838 15.6982 168.523 15.9057C167.948 16.19 167.5 15.8038 167.5 15.1173ZM167.62 6.82593L169.432 6L169.071 12.2105L167.981 12.7147L167.62 6.82593Z" fill="#6667AB"/>
<circle cx="21.5" cy="20" r="20" fill="#313155"/>
<path d="M21.4909 29.3C20.2743 29.3 19.0659 29.1417 17.8659 28.825C16.6826 28.4917 15.6659 28.025 14.8159 27.425L16.4159 24.325C17.0826 24.8083 17.8493 25.1917 18.7159 25.475C19.5993 25.7583 20.4909 25.9 21.3909 25.9C22.4076 25.9 23.2076 25.7 23.7909 25.3C24.3743 24.9 24.6659 24.3417 24.6659 23.625C24.6659 23.175 24.5493 22.775 24.3159 22.425C24.0826 22.075 23.6659 21.8083 23.0659 21.625C22.4826 21.4417 21.6576 21.35 20.5909 21.35H16.1159L17.0159 11.5H27.6909V14.75H18.4659L20.5659 12.9L19.9409 19.925L17.8409 18.075H21.5409C23.2743 18.075 24.6659 18.3167 25.7159 18.8C26.7826 19.2667 27.5576 19.9083 28.0409 20.725C28.5243 21.5417 28.7659 22.4667 28.7659 23.5C28.7659 24.5333 28.5076 25.4917 27.9909 26.375C27.4743 27.2417 26.6743 27.95 25.5909 28.5C24.5243 29.0333 23.1576 29.3 21.4909 29.3Z" fill="white"/>
</svg>
