<svg width="229" height="224" viewBox="0 0 229 224" fill="none" xmlns="http://www.w3.org/2000/svg">
<path d="M115.5 224C174.594 224 222.5 194.899 222.5 159C222.5 123.101 174.594 94 115.5 94C56.4055 94 8.5 123.101 8.5 159C8.5 194.899 56.4055 224 115.5 224Z" fill="#FAFAFA"/>
<path d="M207.014 158.247C199.695 153.918 187.841 153.918 180.523 158.247C177.462 160.06 175.541 161.261 175.047 163.647V166.093C175.111 168.09 175.926 169.985 177.319 171.382L144.5 188.374V190.82L148.179 193H158.441L162.477 190.609V188.309L165.695 186.47L170.168 186.064L171.951 185.009L172.132 180.91L175.438 178.951L180.283 180.076L186.592 176.344C193.386 178.012 201.493 177.213 207.019 173.943C210.683 171.774 212.51 168.921 212.5 166.078V163.657C212.167 161.1 210.301 160.181 207.014 158.247ZM202.443 165.279C201.28 165.881 199.995 166.195 198.691 166.195C197.388 166.195 196.103 165.881 194.939 165.279C192.867 164.049 192.867 162.065 194.939 160.834C196.103 160.232 197.388 159.918 198.691 159.918C199.995 159.918 201.28 160.232 202.443 160.834C204.516 162.044 204.516 164.028 202.443 165.259V165.279Z" fill="#6667AB"/>
<path opacity="0.1" d="M207.014 158.247C199.695 153.918 187.841 153.918 180.523 158.247C177.462 160.06 175.541 161.261 175.047 163.647V166.093C175.111 168.09 175.926 169.985 177.319 171.382L144.5 188.374V190.82L148.179 193H158.441L162.477 190.609V188.309L165.695 186.47L170.168 186.064L171.951 185.009L172.132 180.91L175.438 178.951L180.283 180.076L186.592 176.344C193.386 178.012 201.493 177.213 207.019 173.943C210.683 171.774 212.51 168.921 212.5 166.078V163.657C212.167 161.1 210.301 160.181 207.014 158.247ZM202.443 165.279C201.28 165.881 199.995 166.195 198.691 166.195C197.388 166.195 196.103 165.881 194.939 165.279C192.867 164.049 192.867 162.065 194.939 160.834C196.103 160.232 197.388 159.918 198.691 159.918C199.995 159.918 201.28 160.232 202.443 160.834C204.516 162.044 204.516 164.028 202.443 165.259V165.279Z" fill="black"/>
<path d="M207.014 156.252C199.696 151.916 187.842 151.916 180.523 156.252C174.518 159.808 173.455 165.179 177.32 169.388L144.5 188.825L148.179 191H158.441L162.477 188.609L162.203 186.459L165.696 184.449L170.168 184.047L171.951 182.992L172.132 178.893L175.439 176.934L180.283 178.054L186.593 174.322C193.387 175.989 201.494 175.191 207.019 171.92C214.328 167.6 214.328 160.582 207.014 156.252ZM202.444 163.26C201.28 163.862 199.995 164.176 198.692 164.176C197.388 164.176 196.103 163.862 194.94 163.26C192.868 162.034 192.868 160.044 194.94 158.819C196.103 158.216 197.388 157.903 198.692 157.903C199.995 157.903 201.28 158.216 202.444 158.819C204.516 160.044 204.516 162.034 202.444 163.26Z" fill="#6667AB"/>
<path opacity="0.3" d="M194 173C189.392 173 185.092 171.941 181.888 170.011C179.099 168.326 177.5 166.136 177.5 164.003C177.5 161.869 179.099 159.674 181.888 157.989C185.092 156.059 189.392 155 194 155C198.608 155 202.908 156.059 206.112 157.989C208.901 159.674 210.5 161.864 210.5 164.003C210.5 166.141 208.901 168.326 206.112 170.011C202.908 171.941 198.608 173 194 173ZM194 155.687C189.509 155.687 185.326 156.706 182.225 158.585C179.65 160.138 178.173 162.108 178.173 163.992C178.173 165.876 179.636 167.842 182.225 169.395C185.326 171.264 189.509 172.292 194 172.292C198.491 172.292 202.674 171.274 205.775 169.395C208.35 167.842 209.827 165.871 209.827 163.992C209.827 162.113 208.364 160.138 205.775 158.585C202.674 156.726 198.491 155.698 194 155.698V155.687Z" fill="black"/>
<path opacity="0.1" d="M200.5 174.092V176.325C195.883 177.256 191.102 177.224 186.5 176.229V174C191.102 174.996 195.884 175.027 200.5 174.092Z" fill="black"/>
<path opacity="0.1" d="M180.5 178.256V181L175.5 179.738V177L180.5 178.256Z" fill="black"/>
<path opacity="0.1" d="M171.681 179V181.24L171.5 185V182.76L171.681 179Z" fill="black"/>
<path opacity="0.1" d="M169.5 184V186.571L165.5 187V184.423L169.5 184Z" fill="black"/>
<path opacity="0.1" d="M158.5 191H148.5V193H158.5V191Z" fill="black"/>
<path opacity="0.15" d="M144.5 188V190.641L148.5 193V190.353L146.748 189.321V190.462L145.778 189.891V188.739L144.5 188Z" fill="black"/>
<path d="M145.5 189L146.5 189.675V191L145.5 190.338V189Z" fill="#6667AB"/>
<path opacity="0.15" d="M145.5 188.96V190L179.5 170.525L178.604 170L145.5 188.96Z" fill="black"/>
<path opacity="0.15" d="M178.5 170V171L179.5 170.505L178.5 170Z" fill="black"/>
<path d="M60.9066 220.528L24.3149 199.213C23.2284 198.584 23.2284 197.558 24.3149 196.928L116.16 143.474C116.77 143.162 117.444 143 118.127 143C118.81 143 119.484 143.162 120.093 143.474L156.685 164.788C157.772 165.422 157.772 166.444 156.685 167.073L64.8347 220.528C64.2258 220.838 63.553 221 62.8706 221C62.1883 221 61.5155 220.838 60.9066 220.528Z" fill="#EBEBEB"/>
<path d="M109.138 143.489L11.3377 195.854C10.2208 196.502 10.2208 197.552 11.3377 198.195L18.8098 202.512C19.4364 202.833 20.1299 203 20.8335 203C21.5371 203 22.2307 202.833 22.8572 202.512L120.662 150.152C121.779 149.504 121.779 148.459 120.662 147.811L113.19 143.489C112.563 143.168 111.869 143 111.164 143C110.459 143 109.765 143.168 109.138 143.489Z" fill="#EBEBEB"/>
<path d="M141.5 30.5189L142.335 31L159.5 21.4764L158.66 21L141.5 30.5189Z" fill="#FAFAFA"/>
<path d="M157.495 21.405L141.5 31V13.59L157.5 4L157.495 21.405Z" fill="white"/>
<path d="M160.5 0L140.5 11.9205V34L160.5 22.0795V0ZM158.949 21.1515L142.032 31.2257V12.8485L158.949 2.77928V21.1515Z" fill="#F0F0F0"/>
<path d="M159.5 21L158.5 20.5062L158.506 3.48886L159.5 3V21Z" fill="#E0E0E0"/>
<path d="M160.5 0.4773L159.657 0L139.5 11.5227L140.343 12L160.5 0.4773Z" fill="#FAFAFA"/>
<path d="M139.5 12L140.5 12.4815V34L139.5 33.5185V12Z" fill="#E0E0E0"/>
<path d="M157.5 20.4699L142.5 29V24.7349L146.248 16.2048L148.586 18.3349L147.745 21.9108L152.926 11L157.5 16.2048V20.4699Z" fill="#F0F0F0"/>
<path d="M148.5 12.1586C148.209 12.3792 147.966 12.677 147.792 13.0277C147.618 13.3784 147.518 13.772 147.5 14.1765C147.5 14.9158 147.941 15.2033 148.5 14.8491C148.791 14.6285 149.034 14.3307 149.208 13.98C149.382 13.6293 149.482 13.2357 149.5 12.8312C149.5 12.0867 149.051 11.7889 148.5 12.1586Z" fill="#F0F0F0"/>
<path d="M141.5 57.5189L142.335 58L159.5 48.4764L158.66 48L141.5 57.5189Z" fill="#FAFAFA"/>
<path d="M157.495 48.405L141.5 58V40.59L157.5 31L157.495 48.405Z" fill="white"/>
<path d="M160.5 27L140.5 38.9205V61L160.5 49.0795V27ZM158.949 48.1515L142.032 58.2207V39.8485L158.949 29.7793V48.1515Z" fill="#F0F0F0"/>
<path d="M159.5 48L158.5 47.5062L158.506 30.4889L159.5 30V48Z" fill="#E0E0E0"/>
<path d="M160.5 27.4775L159.657 27L139.5 38.5225L140.343 39L160.5 27.4775Z" fill="#FAFAFA"/>
<path d="M139.5 39L140.5 39.4814V61L139.5 60.5186V39Z" fill="#E0E0E0"/>
<path d="M157.5 47.4699L142.5 56V51.7349L146.248 43.2048L148.586 45.3349L147.745 48.9108L152.926 38L157.5 43.2048V47.4699Z" fill="#F0F0F0"/>
<path d="M148.5 39.1586C148.209 39.3792 147.966 39.677 147.792 40.0277C147.618 40.3784 147.518 40.772 147.5 41.1765C147.5 41.9158 147.941 42.2033 148.5 41.8491C148.791 41.6285 149.034 41.3307 149.208 40.98C149.382 40.6293 149.482 40.2357 149.5 39.8312C149.5 39.0867 149.051 38.7889 148.5 39.1586Z" fill="#F0F0F0"/>
<path d="M141.06 163.141C141.06 163.141 138.589 152.52 144.026 142.153C147.066 136.361 152.845 133.218 155.821 133.012C159.158 132.786 162.376 135.778 159.192 139.573C156.162 143.183 150.665 144.57 146.898 154.059C144.427 160.317 144.452 165 144.452 165L141.06 163.141Z" fill="#6667AB"/>
<path opacity="0.5" d="M141.06 163.141C141.06 163.141 138.589 152.52 144.026 142.153C147.066 136.361 152.845 133.218 155.821 133.012C159.158 132.786 162.376 135.778 159.192 139.573C156.162 143.183 150.665 144.57 146.898 154.059C144.427 160.317 144.452 165 144.452 165L141.06 163.141Z" fill="white"/>
<path d="M142.758 160.996C142.782 160.998 142.806 160.994 142.829 160.986C142.852 160.978 142.873 160.965 142.891 160.949C142.909 160.932 142.924 160.912 142.934 160.89C142.945 160.868 142.951 160.844 142.952 160.819C142.263 149.083 149.822 139.418 155.408 136.3C155.429 136.292 155.448 136.279 155.464 136.262C155.479 136.245 155.49 136.224 155.495 136.202C155.501 136.18 155.502 136.157 155.496 136.134C155.491 136.112 155.481 136.091 155.466 136.074C155.431 136.036 155.384 136.011 155.333 136.003C155.282 135.995 155.23 136.004 155.185 136.029C149.517 139.192 141.846 148.98 142.544 160.844C142.548 160.868 142.556 160.892 142.569 160.913C142.582 160.934 142.599 160.953 142.619 160.967C142.639 160.981 142.661 160.991 142.685 160.996C142.709 161.001 142.734 161.001 142.758 160.996Z" fill="white"/>
<path d="M144.32 165C144.98 162.323 147.045 159.086 151.22 156.237C155.395 153.388 161.078 150.843 160.452 148.205C159.826 145.567 155.44 145.523 152.285 146.881C149.13 148.24 141.826 154.487 142.55 164.044L144.32 165Z" fill="#6667AB"/>
<path opacity="0.65" d="M144.32 165C144.98 162.323 147.045 159.086 151.22 156.237C155.395 153.388 161.078 150.843 160.452 148.205C159.826 145.567 155.44 145.523 152.285 146.881C149.13 148.24 141.826 154.487 142.55 164.044L144.32 165Z" fill="white"/>
<path d="M143.691 161C143.736 161 143.778 160.985 143.814 160.959C143.849 160.933 143.875 160.896 143.888 160.854C144.835 155.219 153.5 148.32 157.356 147.32C157.38 147.317 157.402 147.309 157.422 147.297C157.442 147.285 157.46 147.268 157.473 147.249C157.486 147.229 157.495 147.207 157.498 147.184C157.502 147.161 157.5 147.137 157.494 147.115C157.471 147.069 157.433 147.034 157.386 147.015C157.339 146.996 157.286 146.995 157.238 147.012C153.195 148.061 144.481 154.96 143.5 160.819C143.5 160.907 143.569 160.99 143.682 161H143.691Z" fill="white"/>
<path d="M16.5 197C16.5232 196.741 16.6121 196.491 16.7581 196.276C16.9041 196.061 17.1025 195.886 17.3346 195.769L100.27 143.485V66.9698L110.555 54.209C112.32 51.7958 113.344 48.9175 113.5 45.9283V2.81132C113.5 0.236514 111.733 -0.748115 109.573 0.610674L17.3346 58.0835C17.1025 58.2006 16.9041 58.375 16.7581 58.5904C16.6121 58.8057 16.5232 59.0549 16.5 59.3143V197Z" fill="#6667AB"/>
<path opacity="0.3" d="M107.476 13.9295C107.476 11.3475 105.66 10.2713 103.424 11.5203L19.252 58.5148C18.4021 58.944 17.4389 59.0892 16.5018 58.9295C16.4994 58.9739 16.4994 59.0184 16.5018 59.0628V197C16.5474 196.767 16.644 196.547 16.7845 196.357C16.9251 196.166 17.106 196.01 17.3141 195.899L99.9882 143.469V66.7396L107.5 57.3595L107.476 13.9295Z" fill="black"/>
<path d="M17.2545 198.554C17.8662 198.853 18.5383 199.006 19.2183 199C19.8982 198.994 20.5676 198.83 21.174 198.52L105.443 151.542C107.687 150.293 109.5 147.189 109.5 144.632V15.9277C109.5 13.3515 107.687 12.2707 105.443 13.5193L21.174 60.4973C20.5679 60.8079 19.8988 60.9731 19.2188 60.9799C18.5389 60.9868 17.8666 60.8351 17.2545 60.5368C17.0447 60.4391 16.8644 60.2872 16.7319 60.0965C16.5993 59.9057 16.5193 59.6831 16.5 59.4511V197.454C16.5158 197.689 16.5942 197.915 16.727 198.109C16.8598 198.302 17.0421 198.456 17.2545 198.554Z" fill="#6667AB"/>
<path opacity="0.3" d="M17.2545 198.554C17.8662 198.853 18.5383 199.006 19.2183 199C19.8982 198.994 20.5676 198.83 21.174 198.52L105.443 151.542C107.687 150.293 109.5 147.189 109.5 144.632V15.9277C109.5 13.3515 107.687 12.2707 105.443 13.5193L21.174 60.4973C20.5679 60.8079 19.8988 60.9731 19.2188 60.9799C18.5389 60.9868 17.8666 60.8351 17.2545 60.5368C17.0447 60.4391 16.8644 60.2872 16.7319 60.0965C16.5993 59.9057 16.5193 59.6831 16.5 59.4511V197.454C16.5158 197.689 16.5942 197.915 16.727 198.109C16.8598 198.302 17.0421 198.456 17.2545 198.554Z" fill="white"/>
<path opacity="0.3" d="M19.5 60.5299C18.7594 60.5473 18.026 60.3957 17.369 60.0893C17.1289 59.9933 16.9218 59.8417 16.769 59.6502C16.6163 59.4588 16.5234 59.2343 16.5 59V197.449C16.5178 197.685 16.6065 197.912 16.7565 198.106C16.9065 198.3 17.1124 198.455 17.3524 198.553C18.0089 198.861 18.7423 199.015 19.4834 198.999L19.5 60.5299Z" fill="white"/>
<path d="M30.2409 59.0019C30.2103 59.0019 30.18 59.0081 30.1519 59.02C30.1237 59.032 30.0981 59.0495 30.0767 59.0716C30.0553 59.0936 30.0385 59.1198 30.0273 59.1485C30.016 59.1772 30.0106 59.2078 30.0112 59.2387V188.388C30.0112 188.453 30.037 188.516 30.0828 188.562C30.1286 188.608 30.1907 188.634 30.2556 188.634C30.3204 188.634 30.3825 188.608 30.4283 188.562C30.4742 188.516 30.4999 188.453 30.4999 188.388V59.2387C30.5009 59.2052 30.4946 59.1718 30.4816 59.141C30.4686 59.1101 30.4491 59.0825 30.4245 59.06C30.3999 59.0375 30.3707 59.0206 30.339 59.0106C30.3073 59.0006 30.2738 58.9976 30.2409 59.0019ZM22.7297 63.3824C22.6688 63.3824 22.6103 63.4068 22.5673 63.4503C22.5242 63.4937 22.5 63.5527 22.5 63.6142V192.768C22.5 192.83 22.5242 192.889 22.5673 192.932C22.6103 192.976 22.6688 193 22.7297 193C22.7906 193 22.849 192.976 22.8921 192.932C22.9352 192.889 22.9594 192.83 22.9594 192.768V63.6142C22.9594 63.5544 22.9366 63.4969 22.8956 63.4536C22.8546 63.4104 22.7987 63.3849 22.7395 63.3824H22.7297ZM26.4877 61.1921C26.4264 61.1921 26.3674 61.2164 26.3236 61.2597C26.2797 61.3031 26.2544 61.362 26.2532 61.424V190.578C26.2544 190.64 26.2797 190.699 26.3236 190.742C26.3674 190.786 26.4264 190.81 26.4877 190.81C26.5486 190.81 26.6071 190.785 26.6501 190.742C26.6932 190.698 26.7174 190.639 26.7174 190.578V61.424C26.7175 61.3642 26.6946 61.3066 26.6536 61.2634C26.6127 61.2202 26.5567 61.1947 26.4975 61.1921H26.4877Z" fill="#6667AB"/>
<path d="M38.4588 67L36.5 65.8685L124.536 15L126.5 16.1315L38.4588 67Z" fill="#F0F0F0"/>
<path d="M126.5 16V150.441L38.5 201L38.5347 66.5397L126.5 16Z" fill="#FAFAFA"/>
<path d="M126.005 16.8037V150.174L38.9706 200.191L39.0052 66.806L126.005 16.8037ZM126.5 16L38.5347 66.5397L38.5 201L126.475 150.441V16H126.5Z" fill="#EBEBEB"/>
<path d="M38.5 67.1194L38.4646 201L36.5203 199.91L36.5 66L38.4646 67.0948L38.5 67.1194Z" fill="#E0E0E0"/>
<path d="M150.5 162.245V164.501L62.938 215L61.9516 214.443C56.0439 211.02 51.1385 206.108 47.7252 200.198C44.3119 194.288 42.5102 187.586 42.5 180.763V76.5084L130.057 26L132.03 27.1235V130.249C132.029 136.732 133.736 143.102 136.978 148.718C140.219 154.334 144.883 158.999 150.5 162.245Z" fill="#F0F0F0"/>
<path d="M132.018 130.329V27L44.5 77.6079V180.942C44.5009 187.439 46.2087 193.822 49.4519 199.449C52.6951 205.076 57.3596 209.75 62.9768 213L150.5 162.392C144.881 159.142 140.215 154.468 136.971 148.84C133.727 143.212 132.019 136.828 132.018 130.329ZM44.9141 180.942V77.8548L131.584 27.7455V130.329C131.595 136.775 133.263 143.11 136.426 148.724C139.59 154.338 144.143 159.041 149.647 162.382L62.9768 212.496C57.4875 209.263 52.9346 204.652 49.7671 199.118C46.5996 193.585 44.927 187.32 44.9141 180.942Z" fill="#E0E0E0"/>
<path d="M149.5 162.09L62.6087 212C57.1054 208.779 52.5409 204.187 49.3654 198.676C46.1898 193.165 44.5129 186.926 44.5 180.574V77.9056L131.391 28V130.166C131.402 136.586 133.074 142.896 136.245 148.487C139.417 154.078 143.982 158.762 149.5 162.09Z" fill="#FAFAFA"/>
<path d="M44.4296 180.881V78.1195L42.5 77V180.881C42.5101 187.681 44.2734 194.36 47.6137 200.25C50.954 206.14 55.7544 211.035 61.5352 214.445L62.5 215V212.761C57.0052 209.527 52.4428 204.879 49.271 199.283C46.0991 193.688 44.4295 187.341 44.4296 180.881Z" fill="#E0E0E0"/>
<path opacity="0.15" d="M62.5 212.743V215L150.5 164.262V162L62.5 212.743Z" fill="black"/>
<path d="M104.447 53.8821L125.558 42.1296C126.057 41.8414 126.5 42.0479 126.5 42.6099C126.477 42.9148 126.379 43.2102 126.216 43.4721C126.052 43.7341 125.827 43.9553 125.558 44.1179L104.447 55.8704C103.924 56.1586 103.5 55.9521 103.5 55.3901C103.521 55.0842 103.619 54.7876 103.783 54.5253C103.948 54.2629 104.175 54.0424 104.447 53.8821Z" fill="#E0E0E0"/>
<path d="M104.447 61.8861L125.558 50.1296C126.057 49.8413 126.5 50.0479 126.5 50.6101C126.477 50.9151 126.379 51.2106 126.216 51.4727C126.052 51.7347 125.827 51.956 125.558 52.1187L104.447 63.8704C103.924 64.1587 103.5 63.9521 103.5 63.3899C103.522 63.0847 103.62 62.789 103.784 62.5275C103.949 62.2659 104.176 62.046 104.447 61.8861Z" fill="#E0E0E0"/>
<path d="M112.441 53.794L125.564 46.135C126.059 45.8348 126.5 46.0499 126.5 46.6352C126.477 46.9528 126.38 47.2605 126.218 47.5334C126.055 47.8063 125.831 48.0367 125.564 48.206L112.441 55.865C111.946 56.1652 111.5 55.9501 111.5 55.3648C111.521 55.0461 111.618 54.7372 111.781 54.4639C111.945 54.1906 112.171 53.9609 112.441 53.794Z" fill="#E0E0E0"/>
<path d="M54.43 107.785L122.57 68.1338C123.087 67.8362 123.5 68.0495 123.5 68.6297C123.479 68.9452 123.384 69.2512 123.222 69.5221C123.061 69.7929 122.837 70.0209 122.57 70.187L54.43 109.863C53.9379 110.166 53.5 109.952 53.5 109.367C53.52 109.048 53.6147 108.738 53.7764 108.463C53.938 108.188 54.162 107.956 54.43 107.785Z" fill="#E0E0E0"/>
<path d="M54.43 111.829L122.57 72.1339C123.087 71.8362 123.5 72.0495 123.5 72.63C123.479 72.9457 123.384 73.2518 123.222 73.5228C123.061 73.7938 122.837 74.0219 122.57 74.1881L54.43 113.863C53.9379 114.166 53.5 113.952 53.5 113.367C53.5267 113.055 53.6246 112.755 53.786 112.488C53.9473 112.221 54.1677 111.995 54.43 111.829Z" fill="#E0E0E0"/>
<path d="M54.43 115.805L122.57 76.1338C123.087 75.8362 123.5 76.0495 123.5 76.6297C123.479 76.9451 123.384 77.251 123.222 77.5219C123.061 77.7927 122.837 78.0207 122.57 78.1868L54.43 117.863C53.9379 118.166 53.5 117.952 53.5 117.367C53.523 117.052 53.6192 116.746 53.7807 116.475C53.9422 116.203 54.1646 115.974 54.43 115.805Z" fill="#E0E0E0"/>
<path d="M54.43 119.829L122.57 80.1339C123.087 79.8362 123.5 80.0495 123.5 80.63C123.479 80.9457 123.384 81.2518 123.222 81.5228C123.061 81.7938 122.837 82.0219 122.57 82.1881L54.43 121.863C53.9379 122.166 53.5 121.952 53.5 121.367C53.526 121.055 53.6236 120.754 53.785 120.487C53.9464 120.22 54.1672 119.995 54.43 119.829Z" fill="#E0E0E0"/>
<path d="M54.43 127.832L122.57 88.137C123.087 87.8343 123.5 88.0477 123.5 88.6332C123.478 88.9492 123.382 89.2555 123.221 89.5271C123.059 89.7988 122.836 90.028 122.57 90.1962L54.43 129.866C53.9379 130.164 53.5 129.95 53.5 129.37C53.526 129.058 53.6236 128.757 53.785 128.49C53.9464 128.223 54.1672 127.998 54.43 127.832Z" fill="#E0E0E0"/>
<path d="M54.43 131.807L122.57 92.1377C123.087 91.8351 123.5 92.0484 123.5 92.6091C123.478 92.9251 123.382 93.2314 123.221 93.503C123.059 93.7746 122.836 94.0039 122.57 94.1721L54.43 133.866C53.9379 134.164 53.5 133.95 53.5 133.37C53.5223 133.054 53.6181 132.748 53.7797 132.476C53.9412 132.205 54.164 131.975 54.43 131.807Z" fill="#E0E0E0"/>
<path d="M54.43 135.827L122.57 96.1378C123.087 95.835 123.5 96.0485 123.5 96.6095C123.478 96.9257 123.382 97.2322 123.221 97.504C123.059 97.7758 122.836 98.0052 122.57 98.1734L54.43 137.863C53.9379 138.166 53.5 137.952 53.5 137.366C53.5275 137.055 53.6257 136.754 53.7869 136.487C53.9482 136.22 54.1683 135.995 54.43 135.827Z" fill="#E0E0E0"/>
<path d="M54.43 139.827L122.57 100.137C123.087 99.8342 123.5 100.048 123.5 100.634C123.478 100.95 123.382 101.256 123.221 101.528C123.059 101.8 122.836 102.029 122.57 102.198L54.43 141.862C53.9379 142.165 53.5 141.952 53.5 141.391C53.5238 141.075 53.6202 140.769 53.7817 140.498C53.9431 140.226 54.1651 139.996 54.43 139.827Z" fill="#E0E0E0"/>
<path d="M54.43 147.788L122.57 108.135C123.087 107.837 123.5 108.045 123.5 108.631C123.479 108.946 123.384 109.252 123.222 109.523C123.061 109.794 122.837 110.022 122.57 110.188L54.43 149.866C53.9379 150.164 53.5 149.951 53.5 149.37C53.5192 149.051 53.6136 148.741 53.7753 148.466C53.9371 148.191 54.1615 147.958 54.43 147.788Z" fill="#E0E0E0"/>
<path d="M54.43 151.851L122.57 112.135C123.087 111.837 123.5 112.046 123.5 112.631C123.479 112.947 123.384 113.253 123.222 113.525C123.061 113.796 122.837 114.024 122.57 114.19L54.43 153.866C53.9379 154.164 53.5 153.95 53.5 153.37C53.5289 153.061 53.6279 152.764 53.7892 152.5C53.9504 152.237 54.1697 152.015 54.43 151.851Z" fill="#E0E0E0"/>
<path d="M54.4208 154.867L90.5792 134.13C91.0664 133.84 91.5 134.048 91.5 134.614C91.4772 134.921 91.382 135.219 91.222 135.482C91.0621 135.746 90.8419 135.969 90.5792 136.133L54.4208 156.87C53.9336 157.16 53.5 156.952 53.5 156.386C53.5228 156.079 53.618 155.781 53.778 155.518C53.9379 155.254 54.1581 155.031 54.4208 154.867Z" fill="#E0E0E0"/>
<path d="M54.4256 162.874L78.5744 149.131C79.0641 148.842 79.5 149.044 79.5 149.613C79.4794 149.92 79.3847 150.217 79.2237 150.48C79.0627 150.744 78.8401 150.965 78.5744 151.127L54.4256 164.87C53.9359 165.159 53.5 164.952 53.5 164.388C53.5229 164.082 53.6186 163.785 53.7794 163.522C53.9402 163.259 54.1616 163.037 54.4256 162.874Z" fill="#6667AB"/>
<path d="M58.5592 93.3288C58.564 93.2332 58.5883 93.1401 58.6302 93.0566C58.6583 92.9939 58.7012 92.9408 58.7543 92.9032L59.2997 92.547C59.3189 92.5309 59.3422 92.5223 59.3662 92.5223C59.3902 92.5223 59.4135 92.5309 59.4327 92.547C59.4532 92.5731 59.4682 92.6039 59.4767 92.6373C59.4851 92.6707 59.4867 92.7058 59.4815 92.74C59.4658 93.0904 59.4197 93.4384 59.344 93.779C59.2605 94.1555 59.1401 94.5205 58.9849 94.8675C58.8174 95.234 58.6104 95.5763 58.3686 95.8868C58.1182 96.2162 57.8181 96.4942 57.4819 96.7081C57.2366 96.8851 56.9535 96.9859 56.6616 97C56.4361 97.0004 56.2189 96.9049 56.0542 96.7328C55.867 96.5199 55.7338 96.2552 55.6685 95.9659C55.567 95.5832 55.5104 95.1873 55.5 94.7883C55.5 94.5014 55.5 94.1715 55.5 93.7988C55.5 93.4261 55.5 93.0962 55.5 92.8092C55.5175 92.341 55.574 91.8756 55.6685 91.4189C55.7521 90.9813 55.8815 90.5561 56.0542 90.1523C56.214 89.7741 56.4183 89.4213 56.6616 89.1034C56.8932 88.7966 57.1707 88.5372 57.4819 88.3365C57.747 88.142 58.0522 88.0262 58.3686 88C58.6023 88.003 58.8273 88.0996 59.0026 88.2721C59.1726 88.44 59.297 88.6577 59.3617 88.9005C59.4415 89.1777 59.4877 89.4656 59.4992 89.7565C59.504 89.8456 59.4872 89.9345 59.4504 90.0137C59.4218 90.0845 59.3757 90.1446 59.3174 90.1869L58.7721 90.5382C58.7527 90.5513 58.7304 90.5582 58.7078 90.5582C58.6851 90.5582 58.6629 90.5513 58.6435 90.5382C58.6192 90.5176 58.6 90.4904 58.5876 90.4593C58.5752 90.4281 58.57 90.394 58.5725 90.3601C58.5587 90.2249 58.5258 90.093 58.475 89.9692C58.4323 89.861 58.3632 89.7684 58.2755 89.702C58.1772 89.6402 58.064 89.6143 57.9518 89.6278C57.7936 89.6542 57.6424 89.7183 57.5085 89.8158C57.3388 89.9286 57.1887 90.0744 57.0651 90.2463C56.9333 90.4241 56.823 90.6203 56.737 90.8301C56.6456 91.0494 56.5786 91.2804 56.5375 91.5179C56.4898 91.7587 56.4616 92.0037 56.4532 92.2501C56.4532 92.5519 56.4532 92.8785 56.4532 93.2397C56.4532 93.6009 56.4532 93.9175 56.4532 94.2045C56.4577 94.4187 56.486 94.6314 56.5375 94.8378C56.5698 94.9951 56.6386 95.1401 56.737 95.2584C56.8245 95.3556 56.9417 95.4122 57.0651 95.4167C57.2227 95.4122 57.3762 95.3591 57.5085 95.2633C57.6723 95.1515 57.8215 95.015 57.9518 94.8576C58.077 94.7076 58.1856 94.5415 58.2755 94.3628C58.3623 94.1955 58.4322 94.018 58.4839 93.8334C58.5243 93.6685 58.5495 93.4994 58.5592 93.3288Z" fill="#6667AB"/>
<path d="M60.5051 89.7358C60.5194 89.292 60.567 88.8503 60.6475 88.4153C60.7295 87.9894 60.8533 87.5749 61.0167 87.1793C61.1775 86.797 61.3824 86.4399 61.6262 86.1169C61.8761 85.789 62.1777 85.5148 62.5159 85.3078C62.7711 85.1185 63.0683 85.0119 63.3745 85C63.4868 84.9994 63.5981 85.0237 63.7019 85.0714C63.8058 85.1191 63.9001 85.1893 63.9795 85.278C64.1594 85.492 64.2879 85.7533 64.3532 86.0375C64.4435 86.4083 64.4928 86.7901 64.5 87.1743C64.5 87.3183 64.5 87.4771 64.5 87.6707C64.5 87.8643 64.5 88.0331 64.5 88.2217C64.5 88.4104 64.5 88.594 64.5 88.7728C64.5 88.9515 64.5 89.1202 64.5 89.2692C64.4879 89.7132 64.4403 90.1551 64.3576 90.5896C64.2756 91.0155 64.1518 91.4301 63.9884 91.8257C63.8294 92.2101 63.6227 92.5677 63.3745 92.888C63.1319 93.2078 62.8414 93.4782 62.5159 93.6873C62.2502 93.8795 61.9427 93.9876 61.6262 94C61.3993 93.999 61.1812 93.9014 61.0167 93.727C60.8381 93.5108 60.7111 93.2478 60.6475 92.9625C60.5611 92.5926 60.5134 92.2128 60.5051 91.8307C60.5051 91.6867 60.5051 91.5279 60.5051 91.3343V90.2322C60.4962 90.0535 60.5007 89.8847 60.5051 89.7358ZM63.5658 87.8196C63.5811 87.6237 63.5614 87.4263 63.508 87.2388C63.4546 87.0514 63.3684 86.8776 63.2544 86.7275C63.0586 86.5439 62.8095 86.5538 62.4937 86.7573C62.1602 86.9827 61.8951 87.3148 61.733 87.7104C61.5332 88.1758 61.4255 88.6837 61.4171 89.1997C61.4171 89.5025 61.4171 89.8301 61.4171 90.1925C61.4171 90.5549 61.4171 90.8775 61.4171 91.1853C61.403 91.3808 61.4237 91.5775 61.4779 91.7641C61.5321 91.9506 61.6188 92.1234 61.733 92.2725C61.9242 92.4512 62.1778 92.4363 62.4937 92.2328C62.8248 92.0086 63.0894 91.6805 63.2544 91.2896C63.4542 90.8244 63.5605 90.3161 63.5658 89.8003C63.5658 89.4975 63.5658 89.1699 63.5658 88.8075C63.5658 88.4451 63.5747 88.1076 63.5658 87.8196Z" fill="#6667AB"/>
<path d="M69.7926 89.1815C69.7115 89.2296 69.6495 89.2344 69.6066 89.1815L69.5112 89.0806L67.479 85.5826V90.2146C67.4777 90.301 67.4582 90.3862 67.4218 90.4645C67.394 90.5336 67.3457 90.5923 67.2834 90.6326L66.6967 90.9738C66.6776 90.9907 66.653 91 66.6275 91C66.6021 91 66.5775 90.9907 66.5584 90.9738C66.5371 90.9488 66.5211 90.9197 66.5113 90.8884C66.5015 90.857 66.498 90.824 66.5011 90.7912V83.5309C66.5018 83.4444 66.5214 83.3591 66.5584 83.281C66.5861 83.2119 66.6344 83.1531 66.6967 83.1128L67.2071 82.8149C67.2882 82.7669 67.3502 82.7669 67.3932 82.8149L67.4886 82.9206L69.5159 86.4187V81.7867C69.5178 81.6997 69.539 81.6144 69.578 81.5368C69.6039 81.4666 69.6527 81.4073 69.7163 81.3686L70.303 81.0275C70.3209 81.0099 70.3449 81 70.3698 81C70.3948 81 70.4188 81.0099 70.4366 81.0275C70.4596 81.0505 70.4771 81.0784 70.4879 81.1092C70.4986 81.14 70.5023 81.1728 70.4986 81.2053V88.4704C70.4985 88.556 70.4772 88.6402 70.4366 88.7154C70.4105 88.7854 70.3639 88.8457 70.303 88.8884L69.7926 89.1815Z" fill="#6667AB"/>
<path d="M75.3026 78.0258C75.3218 78.0092 75.3465 78 75.3721 78C75.3977 78 75.4224 78.0092 75.4416 78.0258C75.4625 78.0498 75.4784 78.0776 75.4883 78.1077C75.4982 78.1378 75.5019 78.1696 75.4991 78.2011V78.9923C75.4983 79.076 75.4787 79.1585 75.4416 79.2339C75.4123 79.3024 75.3641 79.3615 75.3026 79.4044L73.9939 80.1529V86.2262C73.9932 86.312 73.9718 86.3965 73.9316 86.4725C73.904 86.5408 73.8553 86.5988 73.7925 86.6383L73.2029 86.9747C73.1844 86.991 73.1606 87 73.1358 87C73.111 87 73.0871 86.991 73.0687 86.9747C73.0455 86.9511 73.0279 86.9227 73.0171 86.8916C73.0063 86.8604 73.0026 86.8273 73.0064 86.7947V80.7214L71.6977 81.4699C71.6784 81.4865 71.6537 81.4957 71.6281 81.4957C71.6026 81.4957 71.5779 81.4865 71.5586 81.4699C71.5373 81.4452 71.5212 81.4166 71.5113 81.3857C71.5015 81.3547 71.498 81.3221 71.5011 81.2899V80.5035C71.5019 80.4197 71.5215 80.3372 71.5586 80.2619C71.5879 80.1933 71.6361 80.1342 71.6977 80.0913L75.3026 78.0258Z" fill="#6667AB"/>
<path d="M78.5868 76.3295C79.1958 75.9515 79.6561 75.8997 79.9726 76.169C80.2891 76.4382 80.4521 76.9974 80.4521 77.8258C80.4559 78.3905 80.3733 78.9521 80.2076 79.4877C80.0514 79.9906 79.8072 80.4564 79.4883 80.8598L80.4953 83.2259C80.5016 83.2653 80.5016 83.3055 80.4953 83.3449C80.4942 83.4203 80.4778 83.4945 80.4473 83.5624C80.4235 83.6236 80.3835 83.6758 80.3323 83.7125L79.7137 84.1009C79.6178 84.163 79.5458 84.163 79.4979 84.1009C79.456 84.0591 79.4232 84.0078 79.402 83.9507L78.4429 81.7244L77.4839 82.3302V85.1519C77.4826 85.245 77.463 85.3368 77.4264 85.4211C77.3985 85.4956 77.3499 85.5589 77.2873 85.6023L76.6975 85.9699C76.6788 85.9892 76.6539 86 76.628 86C76.6021 86 76.5772 85.9892 76.5584 85.9699C76.5375 85.9438 76.5216 85.9133 76.5117 85.8804C76.5018 85.8475 76.4981 85.8128 76.5009 85.7784V77.9552C76.5016 77.862 76.5212 77.7701 76.5584 77.686C76.5863 77.6115 76.6349 77.5482 76.6975 77.5048L78.5868 76.3295ZM77.4935 80.8287L78.5532 80.1712C78.8197 80.0128 79.0468 79.7872 79.215 79.5136C79.3962 79.1917 79.4832 78.8181 79.4643 78.4419C79.4643 77.9863 79.3828 77.7377 79.215 77.686C78.981 77.6515 78.7437 77.7165 78.5532 77.8672L77.4935 78.5144V80.8287Z" fill="#6667AB"/>
<path d="M83.414 74.038C83.4916 73.9873 83.5497 73.9873 83.5885 74.038C83.64 74.1084 83.6764 74.1897 83.6951 74.2762L85.4975 80.6817C85.5008 80.7086 85.5008 80.7358 85.4975 80.7627C85.4951 80.8527 85.4736 80.941 85.4345 81.0212C85.4067 81.0956 85.3576 81.1593 85.294 81.2036L84.7659 81.5229C84.669 81.5786 84.5963 81.5888 84.5575 81.5229C84.5198 81.4819 84.4931 81.4312 84.48 81.3759L84.1602 80.2509L81.8344 81.6597L81.5195 83.18C81.5006 83.264 81.473 83.3456 81.4371 83.4232C81.3926 83.5205 81.3196 83.6004 81.2288 83.6513L80.7006 83.9706C80.6817 83.9895 80.6565 84 80.6304 84C80.6042 84 80.579 83.9895 80.5601 83.9706C80.5389 83.9449 80.5229 83.9152 80.5129 83.883C80.5029 83.8508 80.4992 83.8168 80.502 83.7831C80.4993 83.7527 80.4993 83.7222 80.502 83.6918L82.3093 75.1073C82.3307 74.9822 82.3648 74.8599 82.411 74.7424C82.4476 74.6546 82.5106 74.5817 82.5903 74.5346L83.414 74.038ZM83.8162 78.9992L83.007 76.1056L82.1978 79.9773L83.8162 78.9992Z" fill="#6667AB"/>
<path d="M89.559 75.2819C89.5672 75.1868 89.5914 75.0942 89.6303 75.0089C89.6599 74.947 89.7028 74.8941 89.7552 74.855L90.3037 74.5026C90.3229 74.4865 90.3464 74.4778 90.3705 74.4778C90.3947 74.4778 90.4181 74.4865 90.4374 74.5026C90.4588 74.5283 90.4748 74.5591 90.484 74.5926C90.4933 74.6261 90.4957 74.6615 90.4909 74.6962C90.4714 75.0477 90.4236 75.3966 90.3482 75.7386C90.2678 76.1175 90.1465 76.4842 89.987 76.8307C89.823 77.207 89.6194 77.5602 89.3806 77.8831C89.1264 78.2108 88.825 78.4893 88.4888 78.7071C88.2421 78.8848 87.9573 78.9859 87.6638 79C87.4364 78.999 87.2178 78.9014 87.0529 78.727C86.8668 78.5135 86.7332 78.2502 86.665 77.9625C86.5652 77.5781 86.5098 77.1811 86.5 76.7811C86.5 76.4882 86.5 76.1705 86.5 75.8131C86.5 75.4557 86.5 75.128 86.5 74.8203C86.5165 74.3507 86.5717 73.8837 86.665 73.4254C86.7538 72.9894 86.8839 72.5651 87.0529 72.1595C87.2155 71.7797 87.4208 71.4244 87.6638 71.1022C87.8982 70.7975 88.1771 70.539 88.4888 70.3377C88.7545 70.1404 89.0619 70.0241 89.3806 70.0002C89.6032 69.9956 89.8204 70.0762 89.996 70.2285C90.1684 70.3976 90.2937 70.6181 90.3572 70.8639C90.4375 71.1422 90.4854 71.4308 90.4998 71.7227C90.5019 71.8124 90.4835 71.9012 90.4463 71.9808C90.4177 72.0506 90.3712 72.1093 90.3126 72.1496L89.7641 72.507C89.7443 72.5192 89.722 72.5256 89.6994 72.5256C89.6768 72.5256 89.6546 72.5192 89.6348 72.507C89.5946 72.507 89.5724 72.4226 89.5634 72.3283C89.5531 72.1919 89.5198 72.0589 89.4653 71.9362C89.4224 71.829 89.3527 71.7377 89.2647 71.6731C89.1674 71.6064 89.0521 71.5801 88.9391 71.5986C88.7803 71.623 88.6281 71.6856 88.4932 71.7823C88.3233 71.8985 88.1725 72.0462 88.0473 72.2191C87.9164 72.3969 87.8055 72.592 87.7173 72.7999C87.6279 73.021 87.5606 73.2524 87.5167 73.4899C87.4688 73.7332 87.4404 73.9807 87.432 74.2296C87.432 74.5274 87.432 74.86 87.432 75.2224C87.432 75.5847 87.432 75.9024 87.432 76.1903C87.4361 76.4053 87.4646 76.6187 87.5167 76.8257C87.55 76.9832 87.6191 77.1285 87.7173 77.2477C87.8054 77.3458 87.9229 77.4042 88.0473 77.4115C88.2063 77.4054 88.3606 77.3505 88.4932 77.2527C88.659 77.142 88.8092 77.0048 88.9391 76.8456C89.1852 76.5546 89.3682 76.2048 89.4743 75.823C89.5197 75.6465 89.5481 75.4651 89.559 75.2819Z" fill="#6667AB"/>
<path d="M94.3025 67.0271C94.3204 67.0097 94.3445 67 94.3696 67C94.3946 67 94.4187 67.0097 94.4366 67.0271C94.4594 67.05 94.4768 67.0775 94.4875 67.1078C94.4983 67.1381 94.5022 67.1704 94.4988 67.2024V67.9889C94.4993 68.0749 94.4779 68.1596 94.4366 68.2352C94.4103 68.3029 94.3635 68.3608 94.3025 68.4011L92.9907 69.1496V75.2283C92.9899 75.3121 92.9703 75.3946 92.9332 75.4699C92.904 75.5385 92.8558 75.5976 92.7944 75.6405L92.2054 75.9769C92.1855 75.9919 92.1611 76 92.136 76C92.1109 76 92.0866 75.9919 92.0666 75.9769C92.0455 75.9521 92.0296 75.9234 92.0197 75.8925C92.0099 75.8616 92.0063 75.8291 92.0091 75.7969V69.7466L90.6973 70.4952C90.6773 70.5102 90.6529 70.5183 90.6278 70.5183C90.6028 70.5183 90.5784 70.5102 90.5584 70.4952C90.5373 70.4704 90.5214 70.4417 90.5116 70.4108C90.5017 70.3799 90.4981 70.3474 90.5009 70.3152V69.5287C90.5017 69.4449 90.5213 69.3624 90.5584 69.287C90.5862 69.2176 90.6346 69.1581 90.6973 69.1165L94.3025 67.0271Z" fill="#6667AB"/>
<path opacity="0.2" d="M115.498 136.377V134.279C110.852 136.96 107.066 144.175 107.066 150.36L108.643 149.453C108.643 144.42 111.721 138.558 115.498 136.377ZM121.577 141.999C121.577 137.539 118.851 135.48 115.498 137.411C112.144 139.342 109.423 144.542 109.423 149.002C109.423 153.462 112.149 155.521 115.498 153.59C118.846 151.659 121.577 146.459 121.577 141.999ZM110.194 148.556C110.194 144.679 112.566 140.151 115.483 138.47C115.689 138.352 115.89 138.259 116.087 138.171L110.234 149.34C110.224 149.081 110.194 148.821 110.194 148.556ZM110.42 150.463L117.015 137.891C118.719 137.597 120.059 138.622 120.56 140.612L114 153.119C112.306 153.428 110.951 152.423 110.435 150.453L110.42 150.463ZM120.732 141.739C120.732 141.969 120.761 142.229 120.761 142.464C120.761 146.346 118.385 150.87 115.468 152.551C115.289 152.654 115.103 152.748 114.913 152.83L120.732 141.739ZM115.498 132.196C109.988 135.372 105.5 143.925 105.5 151.262C105.5 158.599 109.988 161.985 115.498 158.804C121.007 155.624 125.5 147.086 125.5 139.734C125.5 132.383 120.997 129.021 115.498 132.196ZM115.498 157.756C110.42 160.696 106.291 157.564 106.291 150.806C106.291 144.047 110.42 136.171 115.498 133.245C120.575 130.319 124.709 133.436 124.709 140.195C124.709 146.954 120.58 154.83 115.498 157.756ZM122.372 141.548C122.372 146.581 119.293 152.448 115.498 154.624V156.721C120.148 154.041 123.934 146.831 123.934 140.641L122.372 141.548Z" fill="#6667AB"/>
<path d="M97.9971 170.83L60.5529 192.888C60.4645 192.947 60.3636 192.984 60.2586 192.996C60.1535 193.008 60.0472 192.994 59.9484 192.956C59.8495 192.918 59.7608 192.857 59.6894 192.777C59.6181 192.698 59.5662 192.602 59.538 192.498V192.433C59.476 192.196 59.4902 191.945 59.5784 191.716C59.6666 191.488 59.8243 191.294 60.0283 191.163L97.4725 169.1C97.5599 169.045 97.6587 169.012 97.761 169.002C97.8633 168.993 97.9663 169.009 98.0616 169.048C98.157 169.087 98.2421 169.148 98.31 169.226C98.378 169.305 98.427 169.399 98.4531 169.5V169.565C98.522 169.798 98.5148 170.047 98.4326 170.275C98.3503 170.503 98.1975 170.698 97.9971 170.83Z" fill="#E0E0E0"/>
<path d="M89.0305 180.715L62.6736 195.888C62.5801 195.945 62.4753 195.982 62.3662 195.995C62.2572 196.008 62.1467 195.997 62.0422 195.964C61.9377 195.93 61.8418 195.874 61.7611 195.801C61.6803 195.727 61.6167 195.636 61.5746 195.536V195.501C61.4837 195.283 61.4756 195.039 61.5517 194.815C61.6278 194.591 61.783 194.402 61.9885 194.283L88.3504 179.11C88.4426 179.053 88.5463 179.017 88.6541 179.005C88.7619 178.992 88.871 179.004 88.9738 179.039C89.0765 179.073 89.1702 179.13 89.2482 179.205C89.3262 179.28 89.3865 179.371 89.4248 179.472V179.506C89.5146 179.721 89.5243 179.961 89.452 180.183C89.3798 180.404 89.2303 180.593 89.0305 180.715Z" fill="#E0E0E0"/>
<path d="M132.031 156.713L105.674 171.886C105.58 171.944 105.475 171.981 105.366 171.994C105.257 172.008 105.146 171.997 105.041 171.964C104.937 171.93 104.841 171.874 104.76 171.8C104.679 171.725 104.616 171.634 104.575 171.533V171.499C104.484 171.28 104.476 171.037 104.552 170.813C104.628 170.589 104.783 170.399 104.989 170.28L131.345 155.107C131.438 155.051 131.542 155.016 131.65 155.004C131.758 154.993 131.867 155.004 131.97 155.039C132.073 155.073 132.167 155.13 132.245 155.204C132.324 155.279 132.385 155.369 132.425 155.47V155.504C132.515 155.719 132.524 155.959 132.452 156.181C132.38 156.402 132.23 156.591 132.031 156.713Z" fill="#E0E0E0"/>
<path d="M83.0527 169.026C82.5793 170.172 81.8485 171.191 80.9178 172.004C80.8332 172.095 80.7271 172.164 80.6093 172.204C80.4252 172.239 80.3655 172.084 80.3406 171.873C80.3198 171.524 80.3415 171.174 80.4053 170.831C80.4849 170.144 80.5844 169.462 80.6939 168.78C80.8797 167.684 81.0787 166.59 81.2911 165.497C81.4851 165.036 81.6693 164.57 81.8434 164.094C82.35 162.719 82.7738 161.314 83.1124 159.888C83.4458 158.485 83.7543 156.956 83.5006 155.507C83.4757 155.367 83.2915 155.256 83.2219 155.412C82.6247 156.745 82.4157 158.359 82.1171 159.828L81.0721 164.941C81.0472 165.056 81.0273 165.166 81.0024 165.282C80.6707 166.09 80.3091 166.877 79.9176 167.643C79.6887 168.094 79.4498 168.535 79.201 168.966C78.9851 169.388 78.7354 169.792 78.4546 170.174C78.0714 170.635 77.5738 170.49 77.3448 169.903C77.2966 169.777 77.2632 169.646 77.2453 169.512C77.6023 169.147 77.8996 168.728 78.1261 168.269C78.4052 167.756 78.6431 167.221 78.8377 166.67C79.0403 166.079 79.1951 165.472 79.3005 164.856C79.3652 164.45 79.5145 163.828 79.2707 163.487C79.0268 163.146 78.6785 163.452 78.4894 163.773C78.1897 164.303 77.9318 164.856 77.7181 165.427C77.2307 166.607 76.9674 167.869 76.9418 169.146C76.9393 169.195 76.9393 169.243 76.9418 169.292C76.902 169.322 76.8671 169.357 76.8223 169.387C76.7182 169.477 76.5899 169.534 76.4537 169.55C76.3175 169.566 76.1795 169.541 76.0574 169.478C75.9353 169.416 75.8344 169.318 75.7677 169.197C75.701 169.076 75.6714 168.938 75.6828 168.801C75.6828 168.605 75.4489 168.525 75.3692 168.695C75.1005 169.297 75.0806 170.049 74.7572 170.605C74.6079 170.856 74.3342 171.166 74.0903 170.986C74.0266 170.932 73.976 170.865 73.9423 170.788C73.9087 170.712 73.8929 170.628 73.8963 170.545C73.9261 170.455 73.9609 170.369 73.9858 170.279C74.0505 170.089 73.7967 169.953 73.7072 170.084C73.6247 170.198 73.5779 170.334 73.5728 170.475C73.4185 170.921 73.2543 171.362 73.0752 171.788C73.0029 171.331 73.0029 170.866 73.0752 170.41C73.105 170.229 72.8015 170.109 72.7666 170.304C72.643 170.914 72.4767 171.513 72.269 172.099C72.1645 172.395 72.0451 172.685 71.9157 172.971C71.7985 173.301 71.6306 173.611 71.418 173.888C71.3185 173.989 71.1742 174.084 71.0498 174.009C70.9254 173.933 70.9055 173.623 70.9005 173.427C70.9005 173.101 70.9005 172.77 70.9254 172.425C70.9735 171.781 71.075 171.142 71.2289 170.515C71.2787 170.299 70.9752 170.159 70.9105 170.374C70.6211 171.372 70.2636 172.349 69.8406 173.297C69.6365 173.753 69.4225 174.204 69.1837 174.63C69.0742 174.831 68.7856 175.277 68.5467 175.267C68.5965 175.177 68.6413 175.086 68.691 175.001C69.2296 173.98 69.6904 172.919 70.0695 171.828C70.4659 170.729 70.725 169.584 70.8408 168.42C70.8687 168.264 70.8578 168.104 70.8092 167.953C70.7606 167.803 70.6757 167.667 70.5621 167.557C70.6767 166.969 70.6902 166.366 70.6019 165.773C70.4079 164.725 69.6365 164.339 68.8801 164.58C67.9744 164.866 67.2578 165.783 66.6308 166.65C65.3787 168.387 64.3877 170.301 63.6898 172.329C63.3241 173.389 63.0299 174.473 62.809 175.573C62.6 176.615 62.3114 177.878 62.6697 178.906C63.5156 181.352 65.8694 179.101 66.8199 177.903C67.382 177.172 67.8814 176.394 68.3128 175.578C68.4485 175.618 68.5933 175.616 68.7276 175.571C68.862 175.526 68.9795 175.441 69.0642 175.327C69.3822 174.938 69.6389 174.501 69.8256 174.034C70.0894 173.482 70.3233 172.916 70.5522 172.334C70.5522 172.55 70.5522 172.765 70.5522 172.981C70.5089 173.345 70.5515 173.714 70.6766 174.059C70.7271 174.155 70.8045 174.233 70.8993 174.285C70.994 174.337 71.1017 174.359 71.209 174.349C71.7415 174.299 72.055 173.442 72.2889 172.906C72.4689 172.491 72.6235 172.066 72.7517 171.633C72.7854 171.857 72.837 172.078 72.906 172.294C72.912 172.325 72.9273 172.353 72.9498 172.374C72.9722 172.395 73.0007 172.409 73.0312 172.414C73.0618 172.418 73.093 172.413 73.1204 172.399C73.1479 172.384 73.1703 172.362 73.1846 172.334C73.387 171.897 73.5711 171.451 73.737 170.996C73.806 171.115 73.9074 171.211 74.0292 171.273C74.151 171.335 74.2879 171.361 74.4237 171.347C75.1553 171.166 75.2847 170.119 75.5185 169.297C75.6169 169.486 75.7672 169.642 75.9515 169.748C76.1166 169.836 76.3031 169.876 76.4897 169.863C76.6763 169.85 76.8554 169.784 77.0065 169.673C77.0745 169.998 77.2354 170.296 77.4693 170.53C77.6006 170.674 77.7823 170.761 77.9762 170.774C78.1702 170.786 78.3612 170.722 78.5093 170.595C78.9057 170.176 79.2318 169.696 79.4747 169.171C79.7832 168.63 80.0818 168.074 80.3655 167.507L80.684 166.841C80.4998 167.768 80.3306 168.7 80.1863 169.638C80.1266 170.034 80.0719 170.43 80.0271 170.831C79.9714 171.162 79.9513 171.498 79.9674 171.833C80.0271 172.385 80.3754 172.69 80.7885 172.52C81.0533 172.38 81.291 172.193 81.4901 171.968C81.7573 171.711 82.0036 171.433 82.2266 171.136C82.6859 170.518 83.0671 169.845 83.3612 169.131C83.4508 168.966 83.1373 168.821 83.0527 169.026ZM82.361 160.194C82.5302 159.367 82.6894 158.54 82.8586 157.718C82.9662 157.182 83.1058 156.653 83.2766 156.134C83.3031 157.033 83.2094 157.931 82.9979 158.805C82.779 159.808 82.5003 160.84 82.2316 161.813C82.0624 162.369 81.8832 162.916 81.6941 163.457C81.9181 162.374 82.142 161.277 82.361 160.184V160.194ZM67.3474 176.525C66.8494 177.33 66.2451 178.064 65.551 178.705C65.2358 178.987 64.8883 179.229 64.5159 179.427C64.1576 179.618 63.7645 179.758 63.4261 179.457C62.7742 178.881 62.8488 177.688 62.9832 176.791C63.1257 175.864 63.3218 174.947 63.5704 174.044C64.0496 172.276 64.7345 170.572 65.6107 168.966C66.0408 168.177 66.523 167.419 67.0538 166.695C67.6211 165.933 68.2929 165.091 69.124 164.921C70.3083 164.68 70.383 166.089 70.1491 167.497C69.7786 167.579 69.4489 167.79 69.2185 168.094C68.5718 168.967 68.1356 169.979 67.9446 171.051C67.8648 171.395 67.8049 171.743 67.7654 172.094C67.4693 172.294 67.126 172.411 66.7702 172.435C66.2477 172.435 66.3223 171.557 66.377 171.086C66.4381 170.571 66.5653 170.065 66.7552 169.582C66.805 169.462 66.601 169.287 66.5462 169.412C66.3173 169.948 66.1616 170.513 66.0834 171.091C65.9691 171.573 66.0309 172.08 66.2576 172.52C66.5263 172.881 66.9692 172.796 67.3126 172.695C67.4502 172.651 67.5848 172.597 67.7157 172.535C67.6682 173.156 67.6933 173.78 67.7903 174.395C67.8276 174.718 67.9167 175.033 68.0541 175.327C67.8351 175.728 67.5913 176.129 67.3474 176.515V176.525ZM70.0695 167.923C69.9437 168.563 69.7622 169.19 69.527 169.798C69.2375 170.565 68.772 171.252 68.1685 171.803C68.291 171.042 68.5015 170.299 68.7955 169.587C68.9631 169.145 69.2 168.732 69.4972 168.364C69.6332 168.194 69.8026 168.054 69.9948 167.953L70.0695 167.923ZM68.2581 174.941C68.2183 174.796 68.1934 174.625 68.1685 174.51C68.122 174.265 68.0904 174.017 68.074 173.768C68.0292 173.285 68.0292 172.798 68.074 172.314C68.2339 172.206 68.3853 172.085 68.5268 171.953C69.2871 171.171 69.8339 170.204 70.1143 169.146C70.2188 168.811 70.3233 168.435 70.4079 168.049C70.4079 168.079 70.4079 168.109 70.4079 168.154C70.4178 168.272 70.4178 168.391 70.4079 168.51C70.289 169.488 70.0739 170.452 69.7659 171.387C69.3722 172.619 68.8675 173.812 68.2581 174.951V174.941ZM77.31 168.024C77.466 167.017 77.7504 166.035 78.156 165.101C78.3268 164.638 78.5559 164.198 78.8377 163.793C78.8626 163.758 79.0069 163.602 79.0517 163.643C79.0965 163.683 79.0816 163.798 79.0816 163.828C79.094 163.948 79.094 164.069 79.0816 164.189C79.0484 164.46 79.0036 164.73 78.9472 165.001C78.742 166.074 78.3691 167.108 77.8425 168.064C77.6695 168.396 77.4645 168.71 77.2304 169.001C77.2338 168.674 77.2604 168.347 77.31 168.024ZM93.3437 163.186L93.1894 163.151C93.2293 162.369 93.2342 161.582 93.2193 160.81C93.1944 159.307 93.0999 157.848 92.9357 156.384C92.9357 156.234 92.9008 156.084 92.8759 155.933C92.9506 155.482 93.0153 155.031 93.065 154.575C93.1546 153.687 93.2143 152.57 92.5674 152.043C92.4828 151.973 92.3485 151.978 92.3285 152.134C92.2326 153.158 92.2846 154.192 92.4828 155.201C92.4828 155.372 92.5276 155.547 92.5475 155.703C92.4342 156.426 92.2847 157.144 92.0996 157.853C91.8688 158.76 91.5796 159.651 91.2338 160.52C91.0646 160.951 90.8804 161.377 90.6864 161.793C90.5202 162.246 90.2174 162.635 89.8205 162.906C89.7388 162.731 89.7029 162.537 89.716 162.344C89.716 162.159 89.4771 162.033 89.4274 162.244C89.4171 162.293 89.4038 162.342 89.3875 162.389C89.4274 161.888 89.4821 161.387 89.5567 160.886C89.5816 160.72 89.3179 160.58 89.2731 160.755C89.1373 161.324 88.9474 161.878 88.7058 162.409C88.5801 162.687 88.4371 162.957 88.2778 163.216C88.1882 163.367 87.9942 163.718 87.83 163.678C87.4567 163.627 87.7354 162.174 87.83 161.873C87.83 161.783 87.8747 161.698 87.8996 161.607C88.0887 161.171 88.2629 160.72 88.3973 160.259C88.4619 160.079 88.2181 159.913 88.1385 160.079C87.9953 160.376 87.8723 160.682 87.7702 160.996C87.3357 162.041 86.8147 163.047 86.2126 164.003C85.8494 164.575 85.3717 165.462 84.7695 165.557C84.4212 165.607 84.3067 165.297 84.2968 164.896C84.9092 164.224 85.4404 163.482 85.8792 162.685C86.2027 162.094 87.7852 158.83 86.3221 158.971C85.6852 159.031 85.2871 159.868 85.0084 160.535C84.6597 161.362 84.393 162.221 84.2122 163.101C84.1276 163.522 84.0529 163.953 84.0081 164.384C84.0006 164.511 84.0006 164.638 84.0081 164.765C83.5495 165.26 83.0409 165.705 82.4904 166.094C82.3709 166.174 82.5501 166.409 82.6546 166.339C83.1508 166 83.6155 165.615 84.043 165.191C84.0627 165.303 84.0978 165.411 84.1475 165.512C84.5058 166.194 85.2323 165.858 85.6404 165.432C86.2598 164.709 86.7849 163.909 87.2029 163.051C87.2875 162.891 87.3721 162.73 87.4518 162.55C87.3821 163.051 87.3522 163.733 87.7105 163.923C88.0688 164.114 88.5018 163.512 88.7058 163.126C88.8587 162.851 88.9949 162.566 89.1138 162.274C89.1138 162.45 89.089 162.625 89.084 162.775C89.079 162.926 89.2084 163.041 89.3029 162.976C89.3869 162.914 89.4608 162.84 89.5219 162.755C89.5582 162.886 89.6117 163.01 89.6811 163.126C89.7005 163.155 89.7275 163.178 89.7592 163.192C89.7909 163.207 89.826 163.211 89.8603 163.206C90.7013 162.956 91.1541 161.668 91.5274 160.755C91.9293 159.778 92.2619 158.773 92.5226 157.748C92.5923 157.462 92.662 157.171 92.7217 156.881C92.7814 157.507 92.8312 158.134 92.861 158.76C92.9548 160.184 92.9664 161.611 92.8958 163.036C92.1905 163.05 91.5077 163.289 90.9451 163.718C90.123 164.241 89.3931 164.898 88.7854 165.663C88.1919 166.432 87.8934 167.391 87.9444 168.364C88.0041 169.292 88.442 170.089 89.1537 170.304C90.6465 170.765 91.9205 168.801 92.4928 167.222C92.9046 165.995 93.1441 164.716 93.2044 163.422C93.259 163.417 93.314 163.417 93.3686 163.422C93.5477 163.577 93.5477 163.252 93.3437 163.201V163.186ZM84.466 163.527C84.5972 162.826 84.7818 162.135 85.0183 161.462C85.2024 160.759 85.5427 160.108 86.0136 159.557C86.1081 159.467 86.3619 159.272 86.4764 159.347C86.5908 159.422 86.6307 159.718 86.6008 159.938C86.5418 160.315 86.4433 160.685 86.3072 161.041C86.0599 161.703 85.7517 162.341 85.3866 162.946C85.0734 163.475 84.719 163.977 84.3266 164.45C84.3565 164.084 84.4261 163.738 84.466 163.542V163.527ZM92.6968 154.7C92.5794 153.986 92.546 153.261 92.5973 152.54C92.9008 153.101 92.7963 154.013 92.6968 154.715V154.7ZM92.6072 165.307C92.2937 167.056 91.5871 169.056 90.2534 169.818C90.1088 169.924 89.942 169.994 89.7659 170.024C89.5898 170.054 89.4092 170.043 89.2382 169.991C89.0672 169.939 88.9104 169.848 88.7801 169.725C88.6498 169.602 88.5494 169.45 88.4868 169.282C88.328 168.845 88.2631 168.379 88.2966 167.915C88.3301 167.451 88.4611 166.999 88.6809 166.59C89.2112 165.69 89.9421 164.926 90.8157 164.359C91.3871 163.869 92.0906 163.562 92.8361 163.477C92.7907 164.095 92.7143 164.711 92.6072 165.322V165.307Z" fill="#455A64"/>
<path d="M42.5 182.823C42.5737 185.582 42.9623 188.325 43.6585 191L54.5884 184.84L57.5 176.543L54.5884 176L42.5 182.823Z" fill="#E0E0E0"/>
<path d="M53.6569 175L32.5 187.159V196L53.6569 183.841L57.5 177.212L53.6569 175Z" fill="#6667AB"/>
<path d="M206.133 13.1292C206.303 12.8265 206.417 12.49 206.469 12.139C206.52 11.7879 206.508 11.4291 206.433 11.0831C206.359 10.7371 206.222 10.4106 206.033 10.1224C205.843 9.83408 205.603 9.58964 205.327 9.40299C205.051 9.21634 204.745 9.09114 204.425 9.03453C204.105 8.97792 203.778 8.99101 203.462 9.07306C203.147 9.15511 202.849 9.30451 202.587 9.51272C202.324 9.72094 202.101 9.98389 201.931 10.2866L200.629 12.6091C200.531 12.8234 200.488 13.0624 200.503 13.3013C200.518 13.5402 200.592 13.7702 200.716 13.9673C201.031 14.5371 201.465 15.0171 201.982 15.368C202.499 15.719 203.083 15.9311 203.689 15.9869C203.903 16.0198 204.121 15.9904 204.321 15.9018C204.521 15.8132 204.697 15.6685 204.83 15.482L206.133 13.1595V13.1292Z" fill="#455A64"/>
<path d="M203.689 14.9881C203.903 15.0181 204.121 14.9912 204.322 14.9103C204.522 14.8293 204.698 14.697 204.831 14.5266L206.133 12.4041C206.354 12.0455 206.479 11.6365 206.498 11.2158C206.516 10.7951 206.427 10.3766 206.239 10C206.46 10.6645 205.834 11.6704 205.112 12.847C204.389 14.0237 203.501 14.5866 201.724 13.5899C200.431 12.8655 200.587 12.0718 200.771 11.6935L200.629 11.9288C200.531 12.1246 200.488 12.3431 200.503 12.5614C200.518 12.7797 200.592 12.9899 200.716 13.17C201.035 13.6856 201.47 14.1188 201.986 14.4346C202.503 14.7505 203.086 14.94 203.689 14.9881Z" fill="#37474F"/>
<path d="M206.301 23.4077C207.441 21.558 207.786 19.346 207.259 17.2512C206.733 15.1565 205.378 13.3477 203.489 12.217C201.6 11.0864 199.329 10.7249 197.167 11.2109C195.006 11.697 193.129 12.9914 191.942 14.8136C191.29 15.8467 191.335 17.2733 192.241 18.9213C194.048 22.173 198.593 24.8934 202.394 24.9967C204.292 25.0508 205.643 24.4408 206.301 23.4077Z" fill="#6667AB"/>
<path d="M206.773 20.121C204.997 16.8516 200.53 14.1073 196.793 14.0033C194.928 13.9488 193.594 14.568 192.953 15.6033L161.933 65.7384C161.291 66.7786 161.341 68.2152 162.227 69.8746C164.003 73.1489 168.47 75.8882 172.207 75.9972C174.072 76.0467 175.406 75.4325 176.047 74.3972L207.067 24.2572C207.709 23.2219 207.659 21.7606 206.773 20.121Z" fill="#6667AB"/>
<path opacity="0.2" d="M206.773 20.121C204.997 16.8516 200.53 14.1073 196.793 14.0033C194.928 13.9488 193.594 14.568 192.953 15.6033L161.933 65.7384C161.291 66.7786 161.341 68.2152 162.227 69.8746C164.003 73.1489 168.47 75.8882 172.207 75.9972C174.072 76.0467 175.406 75.4325 176.047 74.3972L207.067 24.2572C207.709 23.2219 207.659 21.7606 206.773 20.121Z" fill="white"/>
<path d="M170.637 78.9962C166.75 78.8876 162.103 76.0781 160.255 72.7254C159.334 71.0466 159.283 69.5505 159.953 68.4889L162.365 64.6425C163.034 63.5809 164.419 62.9489 166.363 63.0032C170.25 63.1119 174.897 65.9214 176.745 69.274C177.666 70.9528 177.717 72.4489 177.047 73.5154L174.635 77.3569C173.966 78.4185 172.581 79.0554 170.637 78.9962Z" fill="#6667AB"/>
<path opacity="0.35" d="M170.637 78.9962C166.75 78.8876 162.103 76.0781 160.255 72.7254C159.334 71.0466 159.283 69.5505 159.953 68.4889L162.365 64.6425C163.034 63.5809 164.419 62.9489 166.363 63.0032C170.25 63.1119 174.897 65.9214 176.745 69.274C177.666 70.9528 177.717 72.4489 177.047 73.5154L174.635 77.3569C173.966 78.4185 172.581 79.0554 170.637 78.9962Z" fill="white"/>
<path d="M163.779 66.0032C167.52 66.1105 171.993 68.8797 173.772 72.195C174.663 73.8478 174.707 75.325 174.062 76.3781C173.418 77.4312 172.09 78.0504 170.219 77.9968C166.478 77.8895 162.005 75.1154 160.227 71.805C159.34 70.1473 159.291 68.6701 159.936 67.6218C160.58 66.5736 161.908 65.9496 163.779 66.0032Z" fill="#6667AB"/>
<path opacity="0.15" d="M163.779 66.0032C167.52 66.1105 171.993 68.8797 173.772 72.195C174.663 73.8478 174.707 75.325 174.062 76.3781C173.418 77.4312 172.09 78.0504 170.219 77.9968C166.478 77.8895 162.005 75.1154 160.227 71.805C159.34 70.1473 159.291 68.6701 159.936 67.6218C160.58 66.5736 161.908 65.9496 163.779 66.0032Z" fill="black"/>
<path d="M132.432 114.435C133.01 113.508 134.204 112.94 135.885 113.005C139.237 113.1 143.252 115.552 144.848 118.487C145.646 119.953 145.686 121.264 145.109 122.191L143.187 124.065C142.801 124.405 142.349 124.662 141.858 124.82C141.368 124.977 140.849 125.033 140.336 124.982C137.245 124.897 133.552 122.634 132.081 119.933C131.805 119.5 131.622 119.016 131.544 118.51C131.465 118.004 131.493 117.487 131.624 116.992L132.432 114.435Z" fill="#6667AB"/>
<g opacity="0.15">
<path d="M132.432 114.435C133.01 113.508 134.204 112.94 135.885 113.005C139.237 113.1 143.252 115.552 144.848 118.487C145.646 119.953 145.686 121.264 145.109 122.191L143.187 124.065C142.801 124.405 142.349 124.662 141.858 124.82C141.368 124.977 140.849 125.033 140.336 124.982C137.245 124.897 133.552 122.634 132.081 119.933C131.805 119.5 131.622 119.016 131.544 118.51C131.465 118.004 131.493 117.487 131.624 116.992L132.432 114.435Z" fill="black"/>
</g>
<path d="M135.929 112.93C139.258 113.023 143.245 115.445 144.829 118.343C145.622 119.79 145.662 121.085 145.089 122L173.111 77.078C173.684 76.1577 173.645 74.8634 172.852 73.4166C171.267 70.5179 167.286 68.0966 163.951 68.0031C162.287 67.9539 161.096 68.4952 160.523 69.4155L132.5 114.342C133.058 113.422 134.259 112.881 135.929 112.93Z" fill="#6667AB"/>
<path d="M142.148 124.237C142.663 123.409 142.63 122.242 141.936 120.895C140.563 118.266 137.096 116.077 134.196 116.002C132.751 115.967 131.735 116.446 131.244 117.279V117.304C129.519 120.227 126.129 129.055 126.533 133.455L126.61 133.505C126.624 133.745 126.692 133.979 126.808 134.188C127.117 134.705 127.54 135.138 128.043 135.453C128.545 135.768 129.112 135.955 129.698 135.999C129.92 136.008 130.142 135.967 130.348 135.879C134.307 134.283 140.433 127.12 142.148 124.237Z" fill="#6667AB"/>
<path opacity="0.2" d="M172.578 73.2086C172.28 72.6727 171.925 72.1702 171.52 71.7097L143.702 116.6C144.109 117.059 144.464 117.562 144.761 118.099C144.81 118.192 144.85 118.285 144.895 118.379L172.717 73.5133C172.652 73.3954 172.652 73.302 172.578 73.2086ZM177.09 70.3385C177.063 70.1841 177.027 70.0314 176.981 69.8814L204.417 25.65C208.019 19.8458 208.004 17.4032 206.698 15C207.475 17.3738 204.175 22.657 203.73 23.3548L176.076 67.9451C176.199 68.1367 176.313 68.3284 176.422 68.5201L174.047 72.3486C174.361 72.9126 174.586 73.5208 174.715 74.1522L177.09 70.3385ZM128.742 135L130.187 134.356C130.187 134.356 131.236 134.464 134.362 131.638C137.489 128.813 139.374 125.741 142.663 120.443C142.312 119.819 141.878 119.246 141.372 118.738C141.338 118.806 137.672 125.864 133.076 130.852C131.711 132.362 130.176 133.711 128.5 134.872C128.579 134.916 128.658 134.961 128.742 135Z" fill="white"/>
<path d="M127.438 134.015L126.351 135.725C125.885 136.472 125.115 138.58 125.726 138.947C126.337 139.313 127.937 137.702 128.413 136.956L129.5 135.25C129.5 135.25 129.477 134.798 128.665 134.345C127.853 133.893 127.438 134.015 127.438 134.015Z" fill="#455A64"/>
<path d="M126.5 138.761C126.48 138.633 126.438 138.512 126.376 138.404C126.314 138.297 126.233 138.206 126.14 138.138C126.047 138.07 125.942 138.026 125.834 138.008C125.725 137.991 125.615 138.001 125.51 138.037C125.473 138.462 125.542 138.799 125.725 138.935C125.908 139.071 126.188 138.984 126.5 138.761Z" fill="#263238"/>
<circle cx="21.5" cy="20" r="20" fill="#313155"/>
<path d="M15.452 29V26.375L22.202 20C22.7353 19.5167 23.127 19.0833 23.377 18.7C23.627 18.3167 23.7936 17.9667 23.877 17.65C23.977 17.3333 24.027 17.0417 24.027 16.775C24.027 16.075 23.7853 15.5417 23.302 15.175C22.8353 14.7917 22.1436 14.6 21.227 14.6C20.4936 14.6 19.8103 14.7417 19.177 15.025C18.5603 15.3083 18.0353 15.75 17.602 16.35L14.652 14.45C15.3186 13.45 16.252 12.6583 17.452 12.075C18.652 11.4917 20.0353 11.2 21.602 11.2C22.902 11.2 24.0353 11.4167 25.002 11.85C25.9853 12.2667 26.7436 12.8583 27.277 13.625C27.827 14.3917 28.102 15.3083 28.102 16.375C28.102 16.9417 28.027 17.5083 27.877 18.075C27.7436 18.625 27.4603 19.2083 27.027 19.825C26.6103 20.4417 25.9936 21.1333 25.177 21.9L19.577 27.175L18.802 25.7H28.677V29H15.452Z" fill="white"/>
</svg>
