<svg width="61" height="58" viewBox="0 0 61 58" fill="none" xmlns="http://www.w3.org/2000/svg">
<path d="M23.0477 46.58V50.9951C23.0477 52.8915 24.3749 54.4857 26.1524 54.8946C26.5612 56.6666 28.155 58 30.051 58C31.947 58 33.5408 56.6725 33.9496 54.8946C35.7271 54.4857 37.0543 52.8915 37.0543 50.9951V46.58C43.5125 43.8421 48.051 37.4416 48.051 29.9982C48.051 20.0716 39.9753 12 30.0569 12C20.1386 12 12.051 20.0716 12.051 29.9982C12.051 37.4416 16.5895 43.8421 23.0477 46.58ZM30.0451 55.9969C29.3045 55.9969 28.6646 55.5939 28.315 54.9954H31.7752C31.4256 55.5939 30.7857 55.9969 30.0451 55.9969ZM35.0458 50.9951C35.0458 52.0974 34.1511 52.9923 33.049 52.9923H27.0471C25.945 52.9923 25.0504 52.0974 25.0504 50.9951V47.2852C26.6383 47.7475 28.315 47.9905 30.051 47.9905C31.787 47.9905 33.4638 47.7416 35.0517 47.2852V50.9951H35.0458ZM28.0128 45.7385L25.0267 34.5318C25.4414 34.7629 25.9924 34.9941 26.8456 34.9941C27.9299 34.9941 28.5342 34.6148 28.9727 34.3422C29.3223 34.1229 29.5296 33.9925 30.0392 33.9925C30.5546 33.9925 30.762 34.1229 31.1116 34.3422C31.55 34.6148 32.1544 34.9941 33.2446 34.9941C34.1037 34.9941 34.6547 34.7629 35.0695 34.5259L32.0833 45.7385C32.0714 45.78 32.0655 45.8274 32.0596 45.8689C31.4019 45.9518 30.7324 45.9933 30.051 45.9933C29.3697 45.9933 28.7001 45.9518 28.0425 45.8689C28.0306 45.8274 28.0247 45.7859 28.0128 45.7385ZM30.0451 13.9972C38.8673 13.9972 46.0425 21.1739 46.0425 29.9982C46.0425 37.3764 41.024 43.5991 34.2281 45.4422L38.0082 31.2546C38.1504 30.7212 37.8305 30.1701 37.2972 30.0278C36.764 29.8856 36.213 30.2056 36.0708 30.739L35.7212 32.0606C35.0695 32.1791 34.6429 32.4458 34.3111 32.6473C33.9615 32.8665 33.7541 32.9969 33.2386 32.9969C32.7232 32.9969 32.5158 32.8665 32.1662 32.6473C31.7278 32.3746 31.1234 31.9954 30.0332 31.9954C28.949 31.9954 28.3446 32.3746 27.9062 32.6473C27.5566 32.8665 27.3492 32.9969 26.8397 32.9969C26.3242 32.9969 26.1169 32.8665 25.7732 32.6473C25.4414 32.4398 25.0148 32.1732 24.3631 32.0606L24.0135 30.739C23.8713 30.2056 23.3262 29.8856 22.787 30.0278C22.2538 30.1701 21.9338 30.7153 22.076 31.2546L25.8562 45.4422C19.0662 43.5991 14.0477 37.3705 14.0477 29.9982C14.0477 21.1739 21.2228 13.9972 30.0451 13.9972Z" fill="white"/>
<path d="M34.668 18.9225C37.561 20.1328 39.9145 22.488 41.1239 25.383C41.284 25.7686 41.6575 26 42.0487 26C42.1792 26 42.3096 25.9763 42.4341 25.9229C42.9439 25.7093 43.187 25.122 42.9736 24.6118C41.5626 21.2362 38.8178 18.4894 35.4386 17.0775C34.9288 16.8639 34.3419 17.1072 34.1285 17.6174C33.9151 18.1276 34.1581 18.7089 34.668 18.9225Z" fill="white"/>
<path d="M30.051 7C30.606 7 31.051 6.48083 31.051 5.83333V1.16667C31.051 0.519167 30.606 0 30.051 0C29.496 0 29.051 0.519167 29.051 1.16667V5.83333C29.051 6.48083 29.496 7 30.051 7Z" fill="white"/>
<path d="M58.8844 29H54.2177C53.5702 29 53.051 29.445 53.051 30C53.051 30.555 53.5702 31 54.2177 31H58.8844C59.5319 31 60.051 30.555 60.051 30C60.051 29.445 59.5319 29 58.8844 29Z" fill="white"/>
<path d="M5.88436 29H1.21769C0.570192 29 0.0510254 29.445 0.0510254 30C0.0510254 30.555 0.570192 31 1.21769 31H5.88436C6.53186 31 7.05103 30.555 7.05103 30C7.05103 29.445 6.53186 29 5.88436 29Z" fill="white"/>
<path d="M49.9339 8.36317L46.4148 11.8769C45.9298 12.3611 45.9298 13.1495 46.4148 13.6337C46.6572 13.8758 46.9743 14 47.2914 14C47.6085 14 47.9256 13.8758 48.1681 13.6337L51.6873 10.12C52.1723 9.6358 52.1723 8.84739 51.6873 8.36317C51.2023 7.87894 50.4189 7.87894 49.9339 8.36317Z" fill="white"/>
<path d="M11.9339 46.3675L8.41476 49.8785C7.92978 50.3624 7.92978 51.1502 8.41476 51.634C8.65724 51.8759 8.97434 52 9.29144 52C9.60854 52 9.92564 51.8759 10.1681 51.634L13.6873 48.123C14.1723 47.6392 14.1723 46.8514 13.6873 46.3675C13.2085 45.8775 12.4189 45.8775 11.9339 46.3675Z" fill="white"/>
<path d="M48.1743 46.3632C47.6894 45.8789 46.8997 45.8789 46.4148 46.3632C45.9298 46.8474 45.9298 47.6358 46.4148 48.12L49.9339 51.6337C50.1764 51.8758 50.4935 52 50.8106 52C51.1277 52 51.4448 51.8758 51.6873 51.6337C52.1723 51.1495 52.1723 50.3611 51.6873 49.8769L48.1743 46.3632Z" fill="white"/>
<path d="M11.9361 13.6337C12.1784 13.8758 12.4951 14 12.8119 14C13.1287 14 13.4454 13.8758 13.6877 13.6337C14.1721 13.1495 14.1721 12.3611 13.6877 11.8769L10.1721 8.36317C9.68767 7.87894 8.89885 7.87894 8.41438 8.36317C7.92991 8.84739 7.92991 9.6358 8.41438 10.12L11.9361 13.6337Z" fill="white"/>
</svg>
