<svg width="57" height="56" viewBox="0 0 57 56" fill="none" xmlns="http://www.w3.org/2000/svg">
<path d="M8.55103 11C9.69388 11 10.551 10.1429 10.551 9C10.551 7.85714 9.69388 7 8.55103 7C7.40817 7 6.55103 7.85714 6.55103 9C6.55103 10.1429 7.55103 11 8.55103 11Z" fill="white"/>
<path d="M48.551 7C49.6939 7 50.551 6.14286 50.551 5C50.551 3.85714 49.6939 3 48.551 3C47.4082 3 46.551 3.85714 46.551 5C46.551 6.14286 47.4082 7 48.551 7Z" fill="white"/>
<path d="M56.3517 21.4169C56.2188 21.5514 55.953 21.6859 55.6872 21.6859C55.4214 21.6859 55.1556 21.5514 55.0227 21.4169L53.4278 19.8031C52.2317 21.4169 50.1053 25.048 49.7066 26.9308C49.175 29.3516 48.6434 31.7723 47.1815 33.3862L45.8525 34.731C45.7196 34.8655 45.4538 35 45.188 35C44.9222 35 44.7893 34.8655 44.5235 34.731C44.1248 34.3276 44.1248 33.7896 44.5235 33.3862L45.8525 32.0413C46.9157 30.9654 47.4473 28.6792 47.846 26.5274C48.2447 24.3756 50.504 20.2065 52.0988 18.4582L41.2009 7.43036L36.6823 12.0029C35.0875 13.6167 33.3598 13.6167 32.0308 13.6167C30.8347 13.6167 29.7714 13.6167 28.7082 14.6926L17.5445 25.9894L18.209 26.6619C19.2723 27.7377 21.1329 27.7377 22.1961 26.6619L27.5121 21.2824C27.9108 20.879 28.4424 20.879 28.8411 21.2824C30.436 22.8963 32.5624 23.7032 34.6888 23.7032C36.9481 23.7032 39.0745 22.7618 40.6693 21.1479C41.068 20.7445 41.5996 20.7445 41.9984 21.1479C42.3971 21.5514 42.3971 22.0893 41.9984 22.4928C40.0048 24.3756 37.4797 25.586 34.8217 25.586C32.4295 25.586 30.1702 24.7791 28.3095 23.1652L23.3922 28.0067C22.4619 28.9481 21.3987 29.3516 20.0697 29.3516C18.7407 29.3516 17.6774 28.8136 16.7471 28.0067L16.0826 27.3343C15.6839 26.9308 15.551 26.5274 15.551 25.9894C15.551 25.4515 15.6839 25.048 16.0826 24.6446L27.2463 13.3477C28.8411 11.7339 30.436 11.7339 31.8979 11.7339C33.094 11.7339 34.1572 11.7339 35.2204 10.658L39.739 6.08549L39.2074 5.41306C38.8087 5.00961 38.8087 4.47166 39.2074 4.0682L42.9287 0.302594C43.3274 -0.100865 43.859 -0.100865 44.2577 0.302594C44.6564 0.706052 44.6564 1.244 44.2577 1.64745L41.2009 4.74063L56.3517 20.072C56.6175 20.4755 56.6175 21.0134 56.3517 21.4169Z" fill="white"/>
<path d="M45.4398 43.2079C44.901 43.7409 44.3621 44.0074 43.6886 44.1407L44.0928 44.5404C45.5745 46.0062 45.5745 48.4047 44.0928 49.8704C42.8805 51.0697 41.2641 51.203 39.7824 50.5367C39.6477 51.203 39.2436 51.8692 38.7048 52.4022C37.6272 53.4682 35.7414 53.7347 34.3944 53.0685C34.2597 53.7347 33.8556 54.401 33.3168 54.934C32.6433 55.6002 31.5657 56 30.6228 56C29.6799 56 28.737 55.6002 27.9288 54.934L12.0342 39.2104C9.20549 36.4121 8.53199 32.8143 8.12789 30.016C7.72379 28.0173 5.29919 24.2862 4.2216 23.2202C4.2216 23.2202 4.2216 23.2202 4.2216 23.087L2.2011 25.0858C2.0664 25.219 1.797 25.3523 1.5276 25.3523C1.2582 25.3523 0.9888 25.219 0.8541 25.0858C0.450001 24.686 0.450001 24.153 0.8541 23.7532L16.2099 8.56262L11.226 3.63233C10.8219 3.23257 10.8219 2.69957 11.226 2.29981C11.6301 1.90006 12.1689 1.90006 12.573 2.29981L18.2304 7.89636C18.6345 8.29611 18.6345 8.82912 18.2304 9.22887L17.4222 10.0284L22.1367 14.6922C22.5408 15.0919 22.5408 15.6249 22.1367 16.0247C22.002 16.1579 21.7326 16.2912 21.4632 16.2912C21.1938 16.2912 20.9244 16.1579 20.7897 16.0247L16.0752 11.3609L5.56859 21.7545C5.56859 21.7545 5.56859 21.7545 5.70329 21.7545C7.18499 23.2202 9.74429 27.2178 10.1484 29.483C10.5525 32.1481 11.0913 35.2128 13.5159 37.6114L29.5452 53.4682C30.2187 54.1345 31.431 54.1345 32.2392 53.4682C32.6433 53.0685 32.778 52.6687 32.778 52.1357C32.778 51.6027 32.5086 51.203 32.2392 50.8032L23.349 42.5416C22.9449 42.1419 22.9449 41.6089 23.349 41.2091C23.7531 40.8094 24.2919 40.8094 24.696 41.2091L33.3168 49.7372L34.6638 51.0697C35.3373 51.736 36.6843 51.736 37.3578 51.0697C38.0313 50.4035 38.0313 49.2042 37.3578 48.4047L26.7165 37.8779C26.3124 37.4781 26.3124 36.9451 26.7165 36.5453C27.1206 36.1456 27.6594 36.1456 28.0635 36.5453L40.0518 48.4047C40.7253 49.0709 41.9376 49.0709 42.7458 48.4047C43.4193 47.7384 43.4193 46.5392 42.7458 45.7397L30.084 33.3473C29.6799 32.9476 29.6799 32.4146 30.084 32.0148C30.4881 31.6151 31.0269 31.6151 31.431 32.0148L41.3988 41.8754C42.0723 42.5416 43.2846 42.5416 44.0928 41.8754C44.7663 41.2091 44.7663 40.0099 44.0928 39.2104L34.125 29.3498C33.7209 28.95 33.7209 28.417 34.125 28.0173C34.5291 27.6175 35.0679 27.6175 35.472 28.0173L45.4398 37.8779C46.9214 39.3436 46.9214 41.7421 45.4398 43.2079Z" fill="white"/>
<path d="M23.1287 54.12C22.6022 54.3885 21.6808 54.3885 20.891 53.5828C20.1012 52.7771 20.1012 51.8371 20.3645 51.4342C20.6278 51.0314 20.4961 50.4942 20.1012 50.2256C19.7063 49.9571 19.1798 49.957 18.9166 50.3599C18.2584 51.0314 17.0737 51.0314 16.2839 50.3599C15.6258 49.6885 15.6258 48.4799 16.2839 47.6742C16.4156 47.5399 16.5472 47.2713 16.5472 47.0027C16.5472 46.7341 16.4156 46.4656 16.2839 46.3313C15.8891 45.9284 15.3625 45.9284 14.9676 46.3313L14.3095 47.0027C13.6513 47.6742 12.4667 47.6742 11.6769 47.0027C11.0187 46.3313 11.0187 45.1227 11.6769 44.317L12.335 43.6455C12.5983 43.3769 12.7299 42.8398 12.4667 42.4369C12.2034 42.0341 11.6769 41.8998 11.282 42.1684C10.7555 42.4369 9.96568 42.4369 9.17589 41.6312C8.38611 40.8255 8.38611 39.8855 8.64937 39.4826C8.91263 39.0797 8.781 38.4083 8.38611 38.1397C7.99121 37.8712 7.33306 38.0054 7.0698 38.4083C6.28001 39.4826 6.28001 41.3626 7.85958 42.9741C8.38611 43.5112 9.04426 43.9141 9.70241 44.0484C9.43915 44.5855 9.43915 44.9884 9.43915 45.5256C9.43915 46.4656 9.83404 47.4056 10.4922 48.2113C11.4136 49.1513 12.7299 49.5542 14.0462 49.1513C14.1779 49.9571 14.4411 50.8971 15.0993 51.4342C16.0207 52.3742 17.337 52.6428 18.5217 52.5085C18.6533 53.3142 19.0482 54.12 19.7063 54.7914C20.4961 55.5971 21.5492 56 22.4706 56C22.9971 56 23.6553 55.8657 24.0502 55.5971C24.4451 55.3286 24.7083 54.7914 24.4451 54.3885C24.1818 54.12 23.6553 53.9857 23.1287 54.12Z" fill="white"/>
</svg>
